999
dxfrw 0.5.11
0
SECTION
2
HEADER
9
$ACADVER
1
AC1021
9
$HANDSEED
5
20000
9
$DWGCODEPAGE
3
ANSI_1252
9
$INSBASE
10
0
20
0
30
0
9
$EXTMIN
10
-0.0625
20
-1.94871225167
30
0
9
$EXTMAX
10
32.0556687542
20
14
30
0
9
$LIMMIN
10
0
20
0
9
$LIMMAX
10
420
20
297
9
$ORTHOMODE
70
0
9
$LTSCALE
40
1
9
$TEXTSTYLE
7
STANDARD
9
$CLAYER
8
outer_boundary_circ
9
$DIMASZ
40
0.5
9
$DIMLFAC
40
1
9
$DIMSCALE
40
1
9
$DIMEXO
40
0.025
9
$DIMEXE
40
0.05
9
$DIMTXT
40
0.5
9
$DIMTSZ
40
0
9
$DIMAUNIT
70
0
9
$DIMADEC
70
2
9
$DIMLUNIT
70
2
9
$DIMSTYLE
2
STANDARD
9
$DIMGAP
40
0.025
9
$DIMTIH
70
0
9
$LUNITS
70
2
9
$LUPREC
70
4
9
$AUNITS
70
0
9
$AUPREC
70
2
9
$SPLINESEGS
70
8
9
$GRIDMODE
70
1
9
$SNAPSTYLE
70
0
9
$GRIDUNIT
10
0
20
0
9
$PINSBASE
10
0
20
0
30
0
9
$PLIMMIN
10
0
20
0
9
$PLIMMAX
10
1.21213118e-09
20
1.71429934e-09
9
$INSUNITS
70
1
9
$PSVPSCALE
40
1
0
ENDSEC
0
SECTION
2
CLASSES
0
ENDSEC
0
SECTION
2
TABLES
0
TABLE
2
VPORT
5
8
330
0
100
AcDbSymbolTable
70
1
0
VPORT
5
31
330
2
100
AcDbSymbolTableRecord
100
AcDbViewportTableRecord
2
*ACTIVE
70
0
10
0
20
0
11
1
21
1
12
25.5042719548
22
13.1747781984
13
0
23
0
14
10
24
10
15
10
25
10
16
0
26
0
36
1
17
0
27
0
37
0
40
41.1566080003
41
1.68130311615
42
50
43
0
44
0
50
0
51
0
71
0
72
100
73
1
74
3
75
0
76
1
77
0
78
0
281
0
65
1
110
0
120
0
130
0
111
1
121
0
131
0
112
0
122
1
132
0
79
0
146
0
348
10020
60
7
61
5
292
1
282
1
141
0
142
0
63
250
421
3358443
0
ENDTAB
0
TABLE
2
LTYPE
5
5
330
0
100
AcDbSymbolTable
70
4
0
LTYPE
5
14
330
5
100
AcDbSymbolTableRecord
100
AcDbLinetypeTableRecord
2
ByBlock
70
0
3

72
65
73
0
40
0
0
LTYPE
5
15
330
5
100
AcDbSymbolTableRecord
100
AcDbLinetypeTableRecord
2
ByLayer
70
0
3

72
65
73
0
40
0
0
LTYPE
5
16
330
5
100
AcDbSymbolTableRecord
100
AcDbLinetypeTableRecord
2
Continuous
70
0
3
Solid line
72
65
73
0
40
0
0
LTYPE
5
32
330
5
100
AcDbSymbolTableRecord
100
AcDbLinetypeTableRecord
2
DOT
70
0
3
Dot . . . . . . . . . . . . . . . . . . . . . .
72
65
73
2
40
6.35
49
0
74
0
49
-6.35
74
0
0
LTYPE
5
33
330
5
100
AcDbSymbolTableRecord
100
AcDbLinetypeTableRecord
2
DOT2
70
0
3
Dot (.5x) .....................................
72
65
73
2
40
3.175
49
0
74
0
49
-3.175
74
0
0
LTYPE
5
34
330
5
100
AcDbSymbolTableRecord
100
AcDbLinetypeTableRecord
2
DOTX2
70
0
3
Dot (2x) .  .  .  .  .  .  .  .  .  .  .  .  .
72
65
73
2
40
12.7
49
0
74
0
49
-12.7
74
0
0
LTYPE
5
35
330
5
100
AcDbSymbolTableRecord
100
AcDbLinetypeTableRecord
2
DASHED
70
0
3
Dot . . . . . . . . . . . . . . . . . . . . . .
72
65
73
2
40
19.05
49
12.7
74
0
49
-6.35
74
0
0
LTYPE
5
36
330
5
100
AcDbSymbolTableRecord
100
AcDbLinetypeTableRecord
2
DASHED2
70
0
3
Dashed (.5x) _ _ _ _ _ _ _ _ _ _ _ _ _ _ _ _ _
72
65
73
2
40
9.525
49
6.35
74
0
49
-3.175
74
0
0
LTYPE
5
37
330
5
100
AcDbSymbolTableRecord
100
AcDbLinetypeTableRecord
2
DASHEDX2
70
0
3
Dashed (2x) ____  ____  ____  ____  ____  ___
72
65
73
2
40
38.1
49
25.4
74
0
49
-12.7
74
0
0
LTYPE
5
38
330
5
100
AcDbSymbolTableRecord
100
AcDbLinetypeTableRecord
2
DASHDOT
70
0
3
Dash dot __ . __ . __ . __ . __ . __ . __ . __
72
65
73
4
40
25.4
49
12.7
74
0
49
-6.35
74
0
49
0
74
0
49
-6.35
74
0
0
LTYPE
5
39
330
5
100
AcDbSymbolTableRecord
100
AcDbLinetypeTableRecord
2
DASHDOT2
70
0
3
Dash dot (.5x) _._._._._._._._._._._._._._._.
72
65
73
4
40
12.7
49
6.35
74
0
49
-3.175
74
0
49
0
74
0
49
-3.175
74
0
0
LTYPE
5
3A
330
5
100
AcDbSymbolTableRecord
100
AcDbLinetypeTableRecord
2
DASHDOTX2
70
0
3
Dash dot (2x) ____  .  ____  .  ____  .  ___
72
65
73
4
40
50.8
49
25.4
74
0
49
-12.7
74
0
49
0
74
0
49
-12.7
74
0
0
LTYPE
5
3B
330
5
100
AcDbSymbolTableRecord
100
AcDbLinetypeTableRecord
2
DIVIDE
70
0
3
Divide ____ . . ____ . . ____ . . ____ . . ____
72
65
73
6
40
31.75
49
12.7
74
0
49
-6.35
74
0
49
0
74
0
49
-6.35
74
0
49
0
74
0
49
-6.35
74
0
0
LTYPE
5
3C
330
5
100
AcDbSymbolTableRecord
100
AcDbLinetypeTableRecord
2
DIVIDE2
70
0
3
Divide (.5x) __..__..__..__..__..__..__..__.._
72
65
73
6
40
15.875
49
6.35
74
0
49
-3.175
74
0
49
0
74
0
49
-3.175
74
0
49
0
74
0
49
-3.175
74
0
0
LTYPE
5
3D
330
5
100
AcDbSymbolTableRecord
100
AcDbLinetypeTableRecord
2
DIVIDEX2
70
0
3
Divide (2x) ________  .  .  ________  .  .  _
72
65
73
6
40
63.5
49
25.4
74
0
49
-12.7
74
0
49
0
74
0
49
-12.7
74
0
49
0
74
0
49
-12.7
74
0
0
LTYPE
5
3E
330
5
100
AcDbSymbolTableRecord
100
AcDbLinetypeTableRecord
2
BORDER
70
0
3
Border __ __ . __ __ . __ __ . __ __ . __ __ .
72
65
73
6
40
44.45
49
12.7
74
0
49
-6.35
74
0
49
12.7
74
0
49
-6.35
74
0
49
0
74
0
49
-6.35
74
0
0
LTYPE
5
3F
330
5
100
AcDbSymbolTableRecord
100
AcDbLinetypeTableRecord
2
BORDER2
70
0
3
Border (.5x) __.__.__.__.__.__.__.__.__.__.__.
72
65
73
6
40
22.225
49
6.35
74
0
49
-3.175
74
0
49
6.35
74
0
49
-3.175
74
0
49
0
74
0
49
-3.175
74
0
0
LTYPE
5
40
330
5
100
AcDbSymbolTableRecord
100
AcDbLinetypeTableRecord
2
BORDERX2
70
0
3
Border (2x) ____  ____  .  ____  ____  .  ___
72
65
73
6
40
88.9
49
25.4
74
0
49
-12.7
74
0
49
25.4
74
0
49
-12.7
74
0
49
0
74
0
49
-12.7
74
0
0
LTYPE
5
41
330
5
100
AcDbSymbolTableRecord
100
AcDbLinetypeTableRecord
2
CENTER
70
0
3
Center ____ _ ____ _ ____ _ ____ _ ____ _ ____
72
65
73
4
40
50.8
49
31.75
74
0
49
-6.35
74
0
49
6.35
74
0
49
-6.35
74
0
0
LTYPE
5
42
330
5
100
AcDbSymbolTableRecord
100
AcDbLinetypeTableRecord
2
CENTER2
70
0
3
Center (.5x) ___ _ ___ _ ___ _ ___ _ ___ _ ___
72
65
73
4
40
28.575
49
19.05
74
0
49
-3.175
74
0
49
3.175
74
0
49
-3.175
74
0
0
LTYPE
5
43
330
5
100
AcDbSymbolTableRecord
100
AcDbLinetypeTableRecord
2
CENTERX2
70
0
3
Center (2x) ________  __  ________  __  _____
72
65
73
4
40
101.6
49
63.5
74
0
49
-12.7
74
0
49
12.7
74
0
49
-12.7
74
0
0
ENDTAB
0
TABLE
2
LAYER
5
2
330
0
100
AcDbSymbolTable
70
1
0
LAYER
5
10
330
2
100
AcDbSymbolTableRecord
100
AcDbLayerTableRecord
2
0
70
0
62
7
6
CONTINUOUS
370
0
390
F
0
LAYER
5
44
330
2
100
AcDbSymbolTableRecord
100
AcDbLayerTableRecord
2
8-32_insert_hole
70
0
62
6
6
CONTINUOUS
370
0
390
F
0
LAYER
5
45
330
2
100
AcDbSymbolTableRecord
100
AcDbLayerTableRecord
2
8-32_through_hole
70
0
62
6
6
CONTINUOUS
370
0
390
F
0
LAYER
5
46
330
2
100
AcDbSymbolTableRecord
100
AcDbLayerTableRecord
2
dimension
70
0
62
7
6
CONTINUOUS
370
0
390
F
0
LAYER
5
47
330
2
100
AcDbSymbolTableRecord
100
AcDbLayerTableRecord
2
drill_hole
70
0
62
6
6
CONTINUOUS
370
0
390
F
0
LAYER
5
48
330
2
100
AcDbSymbolTableRecord
100
AcDbLayerTableRecord
2
duct_hole
70
0
62
3
6
CONTINUOUS
370
0
390
F
0
LAYER
5
49
330
2
100
AcDbSymbolTableRecord
100
AcDbLayerTableRecord
2
fixture_holes
70
0
62
56
420
8421376
6
CONTINUOUS
370
0
390
F
0
LAYER
5
4A
330
2
100
AcDbSymbolTableRecord
100
AcDbLayerTableRecord
2
inner_boundary
70
0
62
3
6
CONTINUOUS
370
0
390
F
0
LAYER
5
4B
330
2
100
AcDbSymbolTableRecord
100
AcDbLayerTableRecord
2
outer_boundary
70
0
62
5
6
CONTINUOUS
370
0
390
F
0
LAYER
5
4C
330
2
100
AcDbSymbolTableRecord
100
AcDbLayerTableRecord
2
outer_boundary_circ
70
0
62
136
420
32896
6
CONTINUOUS
370
0
390
F
0
LAYER
5
4D
330
2
100
AcDbSymbolTableRecord
100
AcDbLayerTableRecord
2
pocket
70
0
62
3
6
CONTINUOUS
370
0
390
F
0
LAYER
5
4E
330
2
100
AcDbSymbolTableRecord
100
AcDbLayerTableRecord
2
ring_pocket
70
0
62
2
6
CONTINUOUS
370
0
390
F
0
LAYER
5
4F
330
2
100
AcDbSymbolTableRecord
100
AcDbLayerTableRecord
2
scratch
70
0
62
56
420
8421376
6
CONTINUOUS
370
0
390
F
0
LAYER
5
50
330
2
100
AcDbSymbolTableRecord
100
AcDbLayerTableRecord
2
scrratch
70
0
62
56
420
8421376
6
CONTINUOUS
370
0
390
F
0
LAYER
5
51
330
2
100
AcDbSymbolTableRecord
100
AcDbLayerTableRecord
2
visualization
70
1
62
253
420
10526884
6
CONTINUOUS
370
0
390
F
0
ENDTAB
0
TABLE
2
STYLE
5
3
330
0
100
AcDbSymbolTable
70
3
0
STYLE
5
52
330
2
100
AcDbSymbolTableRecord
100
AcDbTextStyleTableRecord
2
Standard
70
0
40
0
41
1
50
0
71
0
42
1
3
txt
4

0
ENDTAB
0
TABLE
2
VIEW
5
6
330
0
100
AcDbSymbolTable
70
0
0
ENDTAB
0
TABLE
2
UCS
5
7
330
0
100
AcDbSymbolTable
70
0
0
ENDTAB
0
TABLE
2
APPID
5
9
330
0
100
AcDbSymbolTable
70
1
0
APPID
5
12
330
9
100
AcDbSymbolTableRecord
100
AcDbRegAppTableRecord
2
ACAD
70
0
0
ENDTAB
0
TABLE
2
DIMSTYLE
5
A
330
0
100
AcDbSymbolTable
70
1
100
AcDbDimStyleTable
71
1
0
DIMSTYLE
105
53
330
A
100
AcDbSymbolTableRecord
100
AcDbDimStyleTableRecord
2
Standard
70
0
40
1
41
0.5
42
0.025
43
0.38
44
0.05
45
0
46
0
47
0
48
0
140
0.5
141
0.09
142
0
143
25.4
144
1
145
0
146
1
147
0.025
148
0
71
0
72
0
73
0
74
1
75
0
76
0
77
0
78
0
79
0
170
0
171
2
172
0
173
0
174
0
175
0
176
0
177
0
178
0
179
0
271
4
272
4
273
2
274
2
275
0
276
0
277
2
278
46
279
0
280
0
281
0
282
0
283
1
284
0
285
0
286
0
288
0
289
3
340
Standard
341

371
-2
372
-2
0
ENDTAB
0
TABLE
2
BLOCK_RECORD
5
1
330
0
100
AcDbSymbolTable
70
2
0
BLOCK_RECORD
5
1F
330
1
100
AcDbSymbolTableRecord
100
AcDbBlockTableRecord
2
*Model_Space
70
0
280
1
281
0
0
BLOCK_RECORD
5
1E
330
1
100
AcDbSymbolTableRecord
100
AcDbBlockTableRecord
2
*Paper_Space
70
0
280
1
281
0
0
BLOCK_RECORD
5
54
330
1
100
AcDbSymbolTableRecord
100
AcDbBlockTableRecord
2
*D2
70
0
280
1
281
0
0
BLOCK_RECORD
5
57
330
1
100
AcDbSymbolTableRecord
100
AcDbBlockTableRecord
2
*D1
70
0
280
1
281
0
0
ENDTAB
0
ENDSEC
0
SECTION
2
BLOCKS
0
BLOCK
5
20
330
1F
100
AcDbEntity
8
0
100
AcDbBlockBegin
2
*Model_Space
70
0
10
0
20
0
30
0
3
*Model_Space
1

0
ENDBLK
5
21
330
1F
100
AcDbEntity
8
0
100
AcDbBlockEnd
0
BLOCK
5
1C
330
1B
100
AcDbEntity
8
0
100
AcDbBlockBegin
2
*Paper_Space
70
0
10
0
20
0
30
0
3
*Paper_Space
1

0
ENDBLK
5
1D
330
1F
100
AcDbEntity
8
0
100
AcDbBlockEnd
0
BLOCK
5
55
330
54
100
AcDbEntity
8
0
100
AcDbBlockBegin
2
*D2
70
1
10
0
20
0
3
*D2
1

0
LINE
5
5A
100
AcDbEntity
8
dimension
6
CONTINUOUS
62
7
370
0
100
AcDbLine
10
31.9724118226
20
14
11
31.9724118226
21
-4.73215196636e-16
0
SOLID
5
5B
100
AcDbEntity
8
dimension
6
CONTINUOUS
62
7
370
0
100
AcDbTrace
10
31.9724118226
20
14
30
0
11
32.0556687542
21
13.5
31
0
12
31.889154891
22
13.5
32
0
13
31.889154891
23
13.5
33
0
0
SOLID
5
5C
100
AcDbEntity
8
dimension
6
CONTINUOUS
62
7
370
0
100
AcDbTrace
10
31.9724118226
20
-4.73215196636e-16
30
0
11
31.889154891
21
0.5
31
0
12
32.0556687542
22
0.5
32
0
13
32.0556687542
23
0.5
33
0
0
MTEXT
5
5D
100
AcDbEntity
8
dimension
6
CONTINUOUS
62
7
370
0
100
AcDbMText
10
31.6974118226
20
7
30
0
40
0.5
41
0.555555555556
71
5
72
1
1
14
7
standard
210
0
220
0
230
1
50
90
73
2
44
1
0
LINE
5
5E
100
AcDbEntity
8
dimension
6
CONTINUOUS
62
7
370
0
100
AcDbLine
10
30.025
20
14
11
32.0224118226
21
14
0
LINE
5
5F
100
AcDbEntity
8
dimension
6
CONTINUOUS
62
7
370
0
100
AcDbLine
10
30.025
20
-3.33066907388e-16
11
32.0224118226
21
-4.73215196636e-16
0
ENDBLK
5
56
330
54
100
AcDbEntity
8
0
100
AcDbBlockEnd
0
BLOCK
5
58
330
57
100
AcDbEntity
8
0
100
AcDbBlockBegin
2
*D1
70
1
10
0
20
0
3
*D1
1

0
LINE
5
60
100
AcDbEntity
8
dimension
6
CONTINUOUS
62
7
370
0
100
AcDbLine
10
-0.0625
20
-1.86545532012
11
30
21
-1.86545532012
0
SOLID
5
61
100
AcDbEntity
8
dimension
6
CONTINUOUS
62
7
370
0
100
AcDbTrace
10
-0.0625
20
-1.86545532012
30
0
11
0.4375
21
-1.78219838857
31
0
12
0.4375
22
-1.94871225167
32
0
13
0.4375
23
-1.94871225167
33
0
0
SOLID
5
62
100
AcDbEntity
8
dimension
6
CONTINUOUS
62
7
370
0
100
AcDbTrace
10
30
20
-1.86545532012
30
0
11
29.5
21
-1.94871225167
31
0
12
29.5
22
-1.78219838857
32
0
13
29.5
23
-1.78219838857
33
0
0
MTEXT
5
63
100
AcDbEntity
8
dimension
6
CONTINUOUS
62
7
370
0
100
AcDbMText
10
14.96875
20
-1.59045532012
30
0
40
0.5
41
2.33333333333
71
5
72
1
1
30.0625
7
standard
210
0
220
0
230
1
50
0
73
2
44
1
0
LINE
5
64
100
AcDbEntity
8
dimension
6
CONTINUOUS
62
7
370
0
100
AcDbLine
10
-0.0625
20
-0.0875
11
-0.0625
21
-1.91545532012
0
LINE
5
65
100
AcDbEntity
8
dimension
6
CONTINUOUS
62
7
370
0
100
AcDbLine
10
30
20
-0.025
11
30
21
-1.91545532012
0
ENDBLK
5
59
330
57
100
AcDbEntity
8
0
100
AcDbBlockEnd
0
ENDSEC
0
SECTION
2
ENTITIES
0
LINE
5
66
100
AcDbEntity
8
outer_boundary
6
ByLayer
62
256
370
-1
100
AcDbLine
10
-0.0625
20
-0.0625
11
12.0625
21
-0.0625
0
LINE
5
67
100
AcDbEntity
8
outer_boundary
6
ByLayer
62
256
370
-1
100
AcDbLine
10
12.0625
20
-0.0625
11
12.0625
21
12.0625
0
LINE
5
68
100
AcDbEntity
8
outer_boundary
6
ByLayer
62
256
370
-1
100
AcDbLine
10
12.0625
20
12.0625
11
-0.0625
21
12.0625
0
LINE
5
69
100
AcDbEntity
8
outer_boundary
6
ByLayer
62
256
370
-1
100
AcDbLine
10
-0.0625
20
12.0625
11
-0.0625
21
-0.0625
0
CIRCLE
5
6A
100
AcDbEntity
8
duct_hole
6
ByLayer
62
256
370
-1
100
AcDbCircle
10
6
20
6
40
3
0
CIRCLE
5
6B
100
AcDbEntity
8
visualization
6
ByLayer
62
256
370
-1
100
AcDbCircle
10
6
20
6
40
4
0
CIRCLE
5
6C
100
AcDbEntity
8
visualization
6
ByLayer
62
256
370
-1
100
AcDbCircle
10
6
20
6
40
5
0
CIRCLE
5
6D
100
AcDbEntity
8
visualization
6
ByLayer
62
256
370
-1
100
AcDbCircle
10
6
20
6
40
3.5
0
CIRCLE
5
6E
100
AcDbEntity
8
8-32_through_hole
6
ByLayer
62
256
370
-1
100
AcDbCircle
10
23.5
20
6
40
0.086
0
CIRCLE
5
6F
100
AcDbEntity
8
8-32_through_hole
6
ByLayer
62
256
370
-1
100
AcDbCircle
10
22.1819805153
20
9.18198051534
40
0.086
0
CIRCLE
5
70
100
AcDbEntity
8
8-32_through_hole
6
ByLayer
62
256
370
-1
100
AcDbCircle
10
19
20
10.5
40
0.086
0
CIRCLE
5
71
100
AcDbEntity
8
8-32_through_hole
6
ByLayer
62
256
370
-1
100
AcDbCircle
10
15.8180194847
20
9.18198051534
40
0.086
0
CIRCLE
5
72
100
AcDbEntity
8
8-32_through_hole
6
ByLayer
62
256
370
-1
100
AcDbCircle
10
14.5
20
6
40
0.086
0
CIRCLE
5
73
100
AcDbEntity
8
8-32_through_hole
6
ByLayer
62
256
370
-1
100
AcDbCircle
10
15.8180194847
20
2.81801948466
40
0.086
0
CIRCLE
5
74
100
AcDbEntity
8
8-32_through_hole
6
ByLayer
62
256
370
-1
100
AcDbCircle
10
19
20
1.5
40
0.086
0
CIRCLE
5
75
100
AcDbEntity
8
8-32_through_hole
6
ByLayer
62
256
370
-1
100
AcDbCircle
10
22.1819805153
20
2.81801948466
40
0.086
0
CIRCLE
5
76
100
AcDbEntity
8
inner_boundary
6
ByLayer
62
256
370
-1
100
AcDbCircle
10
19
20
6
40
3.5
0
CIRCLE
5
77
100
AcDbEntity
8
ring_pocket
6
ByLayer
62
256
370
-1
100
AcDbCircle
10
19
20
6
40
4.125
0
LINE
5
78
100
AcDbEntity
8
outer_boundary
6
ByLayer
62
256
370
-1
100
AcDbLine
10
27
20
0
11
27
21
14
0
LINE
5
79
100
AcDbEntity
8
outer_boundary
6
ByLayer
62
256
370
-1
100
AcDbLine
10
27
20
14
11
26
21
14
0
LINE
5
7A
100
AcDbEntity
8
outer_boundary
6
ByLayer
62
256
370
-1
100
AcDbLine
10
26
20
14
11
26
21
0
0
LINE
5
7B
100
AcDbEntity
8
outer_boundary
6
ByLayer
62
256
370
-1
100
AcDbLine
10
26
20
0
11
27
21
0
0
LINE
5
7C
100
AcDbEntity
8
pocket
6
ByLayer
62
256
370
-1
100
AcDbLine
10
26.74
20
0.9325
11
26.74
21
13.0675
0
LINE
5
7D
100
AcDbEntity
8
pocket
6
ByLayer
62
256
370
-1
100
AcDbLine
10
26.74
20
13.0675
11
26.26
21
13.0675
0
LINE
5
7E
100
AcDbEntity
8
pocket
6
ByLayer
62
256
370
-1
100
AcDbLine
10
26.26
20
13.0675
11
26.26
21
0.9325
0
LINE
5
7F
100
AcDbEntity
8
pocket
6
ByLayer
62
256
370
-1
100
AcDbLine
10
26.26
20
0.9325
11
26.74
21
0.9325
0
CIRCLE
5
80
100
AcDbEntity
8
drill_hole
6
ByLayer
62
256
370
-1
100
AcDbCircle
10
26.5
20
10.26625
40
0.125
0
CIRCLE
5
81
100
AcDbEntity
8
drill_hole
6
ByLayer
62
256
370
-1
100
AcDbCircle
10
26.5
20
3.73375
40
0.125
0
LINE
5
82
100
AcDbEntity
8
outer_boundary
6
ByLayer
62
256
370
-1
100
AcDbLine
10
30
20
-3.33066907388e-16
11
30
21
14
0
LINE
5
83
100
AcDbEntity
8
outer_boundary
6
ByLayer
62
256
370
-1
100
AcDbLine
10
30
20
14
11
29
21
14
0
LINE
5
84
100
AcDbEntity
8
outer_boundary
6
ByLayer
62
256
370
-1
100
AcDbLine
10
29
20
14
11
29
21
-3.33066907388e-16
0
LINE
5
85
100
AcDbEntity
8
outer_boundary
6
ByLayer
62
256
370
-1
100
AcDbLine
10
29
20
-3.33066907388e-16
11
30
21
-3.33066907388e-16
0
CIRCLE
5
86
100
AcDbEntity
8
drill_hole
6
ByLayer
62
256
370
-1
100
AcDbCircle
10
29.5
20
10.26625
40
0.125
0
CIRCLE
5
87
100
AcDbEntity
8
drill_hole
6
ByLayer
62
256
370
-1
100
AcDbCircle
10
29.5
20
3.73375
40
0.125
0
LINE
5
88
100
AcDbEntity
8
scratch
6
ByLayer
62
256
370
-1
100
AcDbLine
10
29.5
20
-3.33066907388e-16
11
29.5
21
-0.005
0
LINE
5
89
100
AcDbEntity
8
scratch
6
ByLayer
62
256
370
-1
100
AcDbLine
10
29.5
20
14
11
29.5
21
13.995
0
LINE
5
8A
100
AcDbEntity
8
scratch
6
ByLayer
62
256
370
-1
100
AcDbLine
10
29.5
20
13.5375
11
29.26
21
13.5375
0
LINE
5
8B
100
AcDbEntity
8
scratch
6
ByLayer
62
256
370
-1
100
AcDbLine
10
29.5
20
0.4625
11
29.74
21
0.4625
0
LINE
5
8C
100
AcDbEntity
8
pocket
6
ByLayer
62
256
370
-1
100
AcDbLine
10
29.74
20
0.4625
11
29.74
21
13.5375
0
LINE
5
8D
100
AcDbEntity
8
pocket
6
ByLayer
62
256
370
-1
100
AcDbLine
10
29.74
20
13.5375
11
29.26
21
13.5375
0
LINE
5
8E
100
AcDbEntity
8
pocket
6
ByLayer
62
256
370
-1
100
AcDbLine
10
29.26
20
13.5375
11
29.26
21
0.4625
0
LINE
5
8F
100
AcDbEntity
8
pocket
6
ByLayer
62
256
370
-1
100
AcDbLine
10
29.26
20
0.4625
11
29.74
21
0.4625
0
DIMENSION
5
90
100
AcDbEntity
8
dimension
6
ByLayer
62
256
370
-1
100
AcDbDimension
2
*D1
10
30
20
-1.86545532012
30
0
11
14.96875
21
-1.59045532012
31
0
70
32
71
5
3
Standard
53
0
210
0
220
0
230
1
100
AcDbAlignedDimension
13
-0.0625
23
-0.0625
33
0
14
30
24
-3.33066907388e-16
34
0
100
AcDbRotatedDimension
0
DIMENSION
5
91
100
AcDbEntity
8
dimension
6
ByLayer
62
256
370
-1
100
AcDbDimension
2
*D2
10
31.9724118226
20
-5.74609712419e-16
30
0
11
31.6974118226
21
7
31
0
70
32
71
5
3
Standard
53
0
210
0
220
0
230
1
100
AcDbAlignedDimension
13
30
23
14
33
0
14
30
24
-3.33066907388e-16
34
0
50
90
100
AcDbRotatedDimension
0
CIRCLE
5
92
100
AcDbEntity
8
8-32_insert_hole
6
ByLayer
62
256
370
-1
100
AcDbCircle
10
9.18198
20
9.18198
40
0.1175
0
CIRCLE
5
93
100
AcDbEntity
8
8-32_insert_hole
6
ByLayer
62
256
370
-1
100
AcDbCircle
10
10.5
20
6
40
0.1175
0
CIRCLE
5
94
100
AcDbEntity
8
8-32_insert_hole
6
ByLayer
62
256
370
-1
100
AcDbCircle
10
9.18198
20
2.81802
40
0.1175
0
CIRCLE
5
95
100
AcDbEntity
8
8-32_insert_hole
6
ByLayer
62
256
370
-1
100
AcDbCircle
10
6
20
1.5
40
0.1175
0
CIRCLE
5
96
100
AcDbEntity
8
8-32_insert_hole
6
ByLayer
62
256
370
-1
100
AcDbCircle
10
2.81802
20
2.81802
40
0.1175
0
CIRCLE
5
97
100
AcDbEntity
8
8-32_insert_hole
6
ByLayer
62
256
370
-1
100
AcDbCircle
10
2.81802
20
9.18198
40
0.1175
0
CIRCLE
5
98
100
AcDbEntity
8
8-32_insert_hole
6
ByLayer
62
256
370
-1
100
AcDbCircle
10
1.5
20
6
40
0.1175
0
CIRCLE
5
99
100
AcDbEntity
8
8-32_insert_hole
6
ByLayer
62
256
370
-1
100
AcDbCircle
10
6
20
10.5
40
0.1175
0
CIRCLE
5
9A
100
AcDbEntity
8
fixture_holes
6
ByLayer
62
256
370
-1
100
AcDbCircle
10
5
20
5
40
0.0625
0
CIRCLE
5
9B
100
AcDbEntity
8
fixture_holes
6
ByLayer
62
256
370
-1
100
AcDbCircle
10
7
20
5
40
0.0625
0
CIRCLE
5
9C
100
AcDbEntity
8
fixture_holes
6
ByLayer
62
256
370
-1
100
AcDbCircle
10
19
20
8
40
0.0625
0
CIRCLE
5
9D
100
AcDbEntity
8
fixture_holes
6
ByLayer
62
256
370
-1
100
AcDbCircle
10
17
20
6
40
0.0625
0
CIRCLE
5
9E
100
AcDbEntity
8
fixture_holes
6
ByLayer
62
256
370
-1
100
AcDbCircle
10
19
20
4
40
0.0625
0
CIRCLE
5
9F
100
AcDbEntity
8
fixture_holes
6
ByLayer
62
256
370
-1
100
AcDbCircle
10
21
20
6
40
0.0625
0
CIRCLE
5
A0
100
AcDbEntity
8
fixture_holes
6
ByLayer
62
256
370
-1
100
AcDbCircle
10
5
20
7
40
0.0625
0
CIRCLE
5
A1
100
AcDbEntity
8
fixture_holes
6
ByLayer
62
256
370
-1
100
AcDbCircle
10
7
20
7
40
0.0625
0
CIRCLE
5
A2
100
AcDbEntity
8
outer_boundary_circ
6
ByLayer
62
256
370
-1
100
AcDbCircle
10
19
20
6
40
5
0
ENDSEC
0
SECTION
2
OBJECTS
0
DICTIONARY
5
C
330
0
100
AcDbDictionary
281
1
3
ACAD_GROUP
350
D
0
DICTIONARY
5
D
330
C
100
AcDbDictionary
281
1
0
ENDSEC
0
EOF
