999
dxfrw 0.5.11
0
SECTION
2
HEADER
9
$ACADVER
1
AC1021
9
$HANDSEED
5
20000
9
$DWGCODEPAGE
3
ANSI_1252
9
$INSBASE
10
0
20
0
30
0
9
$EXTMIN
10
-94.4224609375
20
-59.2186253417
30
0
9
$EXTMAX
10
1114
20
304
30
0
9
$LIMMIN
10
0
20
0
9
$LIMMAX
10
420
20
297
9
$ORTHOMODE
70
0
9
$LTSCALE
40
1
9
$TEXTSTYLE
7
STANDARD
9
$CLAYER
8
DIMENSION
9
$DIMASZ
40
1
9
$DIMLFAC
40
1
9
$DIMSCALE
40
0.5
9
$DIMEXO
40
0.025
9
$DIMEXE
40
0.05
9
$DIMTXT
40
1
9
$DIMTSZ
40
0
9
$DIMAUNIT
70
0
9
$DIMADEC
70
2
9
$DIMLUNIT
70
2
9
$DIMSTYLE
2
STANDARD
9
$DIMGAP
40
0.025
9
$DIMTIH
70
0
9
$LUNITS
70
2
9
$LUPREC
70
4
9
$AUNITS
70
0
9
$AUPREC
70
2
9
$SPLINESEGS
70
8
9
$GRIDMODE
70
1
9
$SNAPSTYLE
70
0
9
$GRIDUNIT
10
0
20
0
9
$PINSBASE
10
0
20
0
30
0
9
$PLIMMIN
10
0
20
0
9
$PLIMMAX
10
3.07881e-08
20
4.35433e-08
9
$INSUNITS
70
4
9
$PSVPSCALE
40
1
0
ENDSEC
0
SECTION
2
CLASSES
0
ENDSEC
0
SECTION
2
TABLES
0
TABLE
2
VPORT
5
8
330
0
100
AcDbSymbolTable
70
1
0
VPORT
5
31
330
2
100
AcDbSymbolTableRecord
100
AcDbViewportTableRecord
2
*ACTIVE
70
0
10
0
20
0
11
1
21
1
12
15.2525298162
22
16.0998925838
13
0
23
0
14
10
24
10
15
10
25
10
16
0
26
0
36
1
17
0
27
0
37
0
40
45.5620441947
41
1.27038626609
42
50
43
0
44
0
50
0
51
0
71
0
72
100
73
1
74
3
75
0
76
1
77
0
78
0
281
0
65
1
110
0
120
0
130
0
111
1
121
0
131
0
112
0
122
1
132
0
79
0
146
0
348
10020
60
7
61
5
292
1
282
1
141
0
142
0
63
250
421
3358443
0
ENDTAB
0
TABLE
2
LTYPE
5
5
330
0
100
AcDbSymbolTable
70
4
0
LTYPE
5
14
330
5
100
AcDbSymbolTableRecord
100
AcDbLinetypeTableRecord
2
ByBlock
70
0
3

72
65
73
0
40
0
0
LTYPE
5
15
330
5
100
AcDbSymbolTableRecord
100
AcDbLinetypeTableRecord
2
ByLayer
70
0
3

72
65
73
0
40
0
0
LTYPE
5
16
330
5
100
AcDbSymbolTableRecord
100
AcDbLinetypeTableRecord
2
Continuous
70
0
3
Solid line
72
65
73
0
40
0
0
LTYPE
5
32
330
5
100
AcDbSymbolTableRecord
100
AcDbLinetypeTableRecord
2
DOT
70
0
3
Dot . . . . . . . . . . . . . . . . . . . . . .
72
65
73
2
40
6.35
49
0
74
0
49
-6.35
74
0
0
LTYPE
5
33
330
5
100
AcDbSymbolTableRecord
100
AcDbLinetypeTableRecord
2
DOT2
70
0
3
Dot (.5x) .....................................
72
65
73
2
40
3.175
49
0
74
0
49
-3.175
74
0
0
LTYPE
5
34
330
5
100
AcDbSymbolTableRecord
100
AcDbLinetypeTableRecord
2
DOTX2
70
0
3
Dot (2x) .  .  .  .  .  .  .  .  .  .  .  .  .
72
65
73
2
40
12.7
49
0
74
0
49
-12.7
74
0
0
LTYPE
5
35
330
5
100
AcDbSymbolTableRecord
100
AcDbLinetypeTableRecord
2
DASHED
70
0
3
Dot . . . . . . . . . . . . . . . . . . . . . .
72
65
73
2
40
19.05
49
12.7
74
0
49
-6.35
74
0
0
LTYPE
5
36
330
5
100
AcDbSymbolTableRecord
100
AcDbLinetypeTableRecord
2
DASHED2
70
0
3
Dashed (.5x) _ _ _ _ _ _ _ _ _ _ _ _ _ _ _ _ _
72
65
73
2
40
9.525
49
6.35
74
0
49
-3.175
74
0
0
LTYPE
5
37
330
5
100
AcDbSymbolTableRecord
100
AcDbLinetypeTableRecord
2
DASHEDX2
70
0
3
Dashed (2x) ____  ____  ____  ____  ____  ___
72
65
73
2
40
38.1
49
25.4
74
0
49
-12.7
74
0
0
LTYPE
5
38
330
5
100
AcDbSymbolTableRecord
100
AcDbLinetypeTableRecord
2
DASHDOT
70
0
3
Dash dot __ . __ . __ . __ . __ . __ . __ . __
72
65
73
4
40
25.4
49
12.7
74
0
49
-6.35
74
0
49
0
74
0
49
-6.35
74
0
0
LTYPE
5
39
330
5
100
AcDbSymbolTableRecord
100
AcDbLinetypeTableRecord
2
DASHDOT2
70
0
3
Dash dot (.5x) _._._._._._._._._._._._._._._.
72
65
73
4
40
12.7
49
6.35
74
0
49
-3.175
74
0
49
0
74
0
49
-3.175
74
0
0
LTYPE
5
3A
330
5
100
AcDbSymbolTableRecord
100
AcDbLinetypeTableRecord
2
DASHDOTX2
70
0
3
Dash dot (2x) ____  .  ____  .  ____  .  ___
72
65
73
4
40
50.8
49
25.4
74
0
49
-12.7
74
0
49
0
74
0
49
-12.7
74
0
0
LTYPE
5
3B
330
5
100
AcDbSymbolTableRecord
100
AcDbLinetypeTableRecord
2
DIVIDE
70
0
3
Divide ____ . . ____ . . ____ . . ____ . . ____
72
65
73
6
40
31.75
49
12.7
74
0
49
-6.35
74
0
49
0
74
0
49
-6.35
74
0
49
0
74
0
49
-6.35
74
0
0
LTYPE
5
3C
330
5
100
AcDbSymbolTableRecord
100
AcDbLinetypeTableRecord
2
DIVIDE2
70
0
3
Divide (.5x) __..__..__..__..__..__..__..__.._
72
65
73
6
40
15.875
49
6.35
74
0
49
-3.175
74
0
49
0
74
0
49
-3.175
74
0
49
0
74
0
49
-3.175
74
0
0
LTYPE
5
3D
330
5
100
AcDbSymbolTableRecord
100
AcDbLinetypeTableRecord
2
DIVIDEX2
70
0
3
Divide (2x) ________  .  .  ________  .  .  _
72
65
73
6
40
63.5
49
25.4
74
0
49
-12.7
74
0
49
0
74
0
49
-12.7
74
0
49
0
74
0
49
-12.7
74
0
0
LTYPE
5
3E
330
5
100
AcDbSymbolTableRecord
100
AcDbLinetypeTableRecord
2
BORDER
70
0
3
Border __ __ . __ __ . __ __ . __ __ . __ __ .
72
65
73
6
40
44.45
49
12.7
74
0
49
-6.35
74
0
49
12.7
74
0
49
-6.35
74
0
49
0
74
0
49
-6.35
74
0
0
LTYPE
5
3F
330
5
100
AcDbSymbolTableRecord
100
AcDbLinetypeTableRecord
2
BORDER2
70
0
3
Border (.5x) __.__.__.__.__.__.__.__.__.__.__.
72
65
73
6
40
22.225
49
6.35
74
0
49
-3.175
74
0
49
6.35
74
0
49
-3.175
74
0
49
0
74
0
49
-3.175
74
0
0
LTYPE
5
40
330
5
100
AcDbSymbolTableRecord
100
AcDbLinetypeTableRecord
2
BORDERX2
70
0
3
Border (2x) ____  ____  .  ____  ____  .  ___
72
65
73
6
40
88.9
49
25.4
74
0
49
-12.7
74
0
49
25.4
74
0
49
-12.7
74
0
49
0
74
0
49
-12.7
74
0
0
LTYPE
5
41
330
5
100
AcDbSymbolTableRecord
100
AcDbLinetypeTableRecord
2
CENTER
70
0
3
Center ____ _ ____ _ ____ _ ____ _ ____ _ ____
72
65
73
4
40
50.8
49
31.75
74
0
49
-6.35
74
0
49
6.35
74
0
49
-6.35
74
0
0
LTYPE
5
42
330
5
100
AcDbSymbolTableRecord
100
AcDbLinetypeTableRecord
2
CENTER2
70
0
3
Center (.5x) ___ _ ___ _ ___ _ ___ _ ___ _ ___
72
65
73
4
40
28.575
49
19.05
74
0
49
-3.175
74
0
49
3.175
74
0
49
-3.175
74
0
0
LTYPE
5
43
330
5
100
AcDbSymbolTableRecord
100
AcDbLinetypeTableRecord
2
CENTERX2
70
0
3
Center (2x) ________  __  ________  __  _____
72
65
73
4
40
101.6
49
63.5
74
0
49
-12.7
74
0
49
12.7
74
0
49
-12.7
74
0
0
ENDTAB
0
TABLE
2
LAYER
5
2
330
0
100
AcDbSymbolTable
70
1
0
LAYER
5
10
330
2
100
AcDbSymbolTableRecord
100
AcDbLayerTableRecord
2
0
70
0
62
7
6
CONTINUOUS
370
0
390
F
0
LAYER
5
44
330
2
100
AcDbSymbolTableRecord
100
AcDbLayerTableRecord
2
6-32_TAP_HOLE
70
0
62
2
6
CONTINUOUS
370
0
390
F
0
LAYER
5
45
330
2
100
AcDbSymbolTableRecord
100
AcDbLayerTableRecord
2
ALIGNMENT_POCKET
70
0
62
6
6
CONTINUOUS
370
0
390
F
0
LAYER
5
46
330
2
100
AcDbSymbolTableRecord
100
AcDbLayerTableRecord
2
DIMENSION
70
0
62
7
6
CONTINUOUS
370
0
390
F
0
LAYER
5
47
330
2
100
AcDbSymbolTableRecord
100
AcDbLayerTableRecord
2
OUTER_BOUNDARY
70
0
62
5
6
CONTINUOUS
370
0
390
F
0
LAYER
5
48
330
2
100
AcDbSymbolTableRecord
100
AcDbLayerTableRecord
2
REFERENCE
70
0
62
253
420
10526884
6
CONTINUOUS
370
0
390
F
0
ENDTAB
0
TABLE
2
STYLE
5
3
330
0
100
AcDbSymbolTable
70
3
0
STYLE
5
49
330
2
100
AcDbSymbolTableRecord
100
AcDbTextStyleTableRecord
2
Standard
70
0
40
0
41
1
50
0
71
0
42
1
3
txt
4

0
ENDTAB
0
TABLE
2
VIEW
5
6
330
0
100
AcDbSymbolTable
70
0
0
ENDTAB
0
TABLE
2
UCS
5
7
330
0
100
AcDbSymbolTable
70
0
0
ENDTAB
0
TABLE
2
APPID
5
9
330
0
100
AcDbSymbolTable
70
1
0
APPID
5
12
330
9
100
AcDbSymbolTableRecord
100
AcDbRegAppTableRecord
2
ACAD
70
0
0
ENDTAB
0
TABLE
2
DIMSTYLE
5
A
330
0
100
AcDbSymbolTable
70
1
100
AcDbDimStyleTable
71
1
0
DIMSTYLE
105
4A
330
A
100
AcDbSymbolTableRecord
100
AcDbDimStyleTableRecord
2
Standard
70
0
40
1
41
1
42
0.025
43
0.38
44
0.05
45
0
46
0
47
0
48
0
140
1
141
0.09
142
0
143
25.4
144
1
145
0
146
1
147
0.025
148
0
71
0
72
0
73
0
74
1
75
0
76
0
77
0
78
0
79
0
170
0
171
2
172
0
173
0
174
0
175
0
176
0
177
0
178
0
179
0
271
4
272
4
273
2
274
2
275
0
276
0
277
2
278
46
279
0
280
0
281
0
282
0
283
1
284
0
285
0
286
0
288
0
289
3
340
Standard
341

371
-2
372
-2
0
ENDTAB
0
TABLE
2
BLOCK_RECORD
5
1
330
0
100
AcDbSymbolTable
70
2
0
BLOCK_RECORD
5
1F
330
1
100
AcDbSymbolTableRecord
100
AcDbBlockTableRecord
2
*Model_Space
70
0
280
1
281
0
0
BLOCK_RECORD
5
1E
330
1
100
AcDbSymbolTableRecord
100
AcDbBlockTableRecord
2
*Paper_Space
70
0
280
1
281
0
0
BLOCK_RECORD
5
4B
330
1
100
AcDbSymbolTableRecord
100
AcDbBlockTableRecord
2
*D8
70
0
280
1
281
0
0
BLOCK_RECORD
5
4E
330
1
100
AcDbSymbolTableRecord
100
AcDbBlockTableRecord
2
*D14
70
0
280
1
281
0
0
BLOCK_RECORD
5
51
330
1
100
AcDbSymbolTableRecord
100
AcDbBlockTableRecord
2
*D3
70
0
280
1
281
0
0
BLOCK_RECORD
5
54
330
1
100
AcDbSymbolTableRecord
100
AcDbBlockTableRecord
2
*D2
70
0
280
1
281
0
0
BLOCK_RECORD
5
57
330
1
100
AcDbSymbolTableRecord
100
AcDbBlockTableRecord
2
*D10
70
0
280
1
281
0
0
BLOCK_RECORD
5
5A
330
1
100
AcDbSymbolTableRecord
100
AcDbBlockTableRecord
2
*D6
70
0
280
1
281
0
0
BLOCK_RECORD
5
5D
330
1
100
AcDbSymbolTableRecord
100
AcDbBlockTableRecord
2
*D13
70
0
280
1
281
0
0
BLOCK_RECORD
5
60
330
1
100
AcDbSymbolTableRecord
100
AcDbBlockTableRecord
2
*D11
70
0
280
1
281
0
0
BLOCK_RECORD
5
63
330
1
100
AcDbSymbolTableRecord
100
AcDbBlockTableRecord
2
*D4
70
0
280
1
281
0
0
BLOCK_RECORD
5
66
330
1
100
AcDbSymbolTableRecord
100
AcDbBlockTableRecord
2
*D15
70
0
280
1
281
0
0
BLOCK_RECORD
5
69
330
1
100
AcDbSymbolTableRecord
100
AcDbBlockTableRecord
2
*D12
70
0
280
1
281
0
0
BLOCK_RECORD
5
6C
330
1
100
AcDbSymbolTableRecord
100
AcDbBlockTableRecord
2
*D9
70
0
280
1
281
0
0
BLOCK_RECORD
5
6F
330
1
100
AcDbSymbolTableRecord
100
AcDbBlockTableRecord
2
*D5
70
0
280
1
281
0
0
BLOCK_RECORD
5
72
330
1
100
AcDbSymbolTableRecord
100
AcDbBlockTableRecord
2
*D1
70
0
280
1
281
0
0
BLOCK_RECORD
5
75
330
1
100
AcDbSymbolTableRecord
100
AcDbBlockTableRecord
2
*D7
70
0
280
1
281
0
0
BLOCK_RECORD
5
78
330
1
100
AcDbSymbolTableRecord
100
AcDbBlockTableRecord
2
*D16
70
0
280
1
281
0
0
ENDTAB
0
ENDSEC
0
SECTION
2
BLOCKS
0
BLOCK
5
20
330
1F
100
AcDbEntity
8
0
100
AcDbBlockBegin
2
*Model_Space
70
0
10
0
20
0
30
0
3
*Model_Space
1

0
ENDBLK
5
21
330
1F
100
AcDbEntity
8
0
100
AcDbBlockEnd
0
BLOCK
5
1C
330
1B
100
AcDbEntity
8
0
100
AcDbBlockBegin
2
*Paper_Space
70
0
10
0
20
0
30
0
3
*Paper_Space
1

0
ENDBLK
5
1D
330
1F
100
AcDbEntity
8
0
100
AcDbBlockEnd
0
BLOCK
5
4C
330
4B
100
AcDbEntity
8
0
100
AcDbBlockBegin
2
*D8
70
1
10
0
20
0
3
*D8
1

0
LINE
5
7B
100
AcDbEntity
8
DIMENSION
6
CONTINUOUS
62
7
370
0
100
AcDbLine
10
-3.2439945251
20
11.0236220472
11
-3.2439945251
21
2.01687215157e-16
0
SOLID
5
7C
100
AcDbEntity
8
DIMENSION
6
CONTINUOUS
62
7
370
0
100
AcDbTrace
10
-3.2439945251
20
11.0236220472
30
0
11
-3.16073759354
21
10.5236220472
31
0
12
-3.32725145665
22
10.5236220472
32
0
13
-3.32725145665
23
10.5236220472
33
0
0
SOLID
5
7D
100
AcDbEntity
8
DIMENSION
6
CONTINUOUS
62
7
370
0
100
AcDbTrace
10
-3.2439945251
20
2.01687215157e-16
30
0
11
-3.32725145665
21
0.5
31
0
12
-3.16073759354
22
0.5
32
0
13
-3.16073759354
23
0.5
33
0
0
MTEXT
5
7E
100
AcDbEntity
8
DIMENSION
6
CONTINUOUS
62
7
370
0
100
AcDbMText
10
-3.5064945251
20
5.51181102362
30
0
40
0.5
41
2.11111111111
71
5
72
1
1
11.0236
7
standard
210
0
220
0
230
1
50
90
73
2
44
1
0
LINE
5
7F
100
AcDbEntity
8
DIMENSION
6
CONTINUOUS
62
7
370
0
100
AcDbLine
10
-0.0125
20
11.0236220472
11
-3.2689945251
21
11.0236220472
0
LINE
5
80
100
AcDbEntity
8
DIMENSION
6
CONTINUOUS
62
7
370
0
100
AcDbLine
10
-0.0125
20
1.53075794228e-18
11
-3.2689945251
21
2.04748731042e-16
0
ENDBLK
5
4D
330
4B
100
AcDbEntity
8
0
100
AcDbBlockEnd
0
BLOCK
5
4F
330
4E
100
AcDbEntity
8
0
100
AcDbBlockBegin
2
*D14
70
1
10
0
20
0
3
*D14
1

0
LINE
5
81
100
AcDbEntity
8
DIMENSION
6
CONTINUOUS
62
7
370
0
100
AcDbLine
10
33.9413139764
20
9.43307086614
11
33.9413139764
21
12.0236220472
0
SOLID
5
82
100
AcDbEntity
8
DIMENSION
6
CONTINUOUS
62
7
370
0
100
AcDbTrace
10
33.9413139764
20
10.4330708661
30
0
11
34.0245709079
21
9.93307086614
31
0
12
33.8580570448
22
9.93307086614
32
0
13
33.8580570448
23
9.93307086614
33
0
0
SOLID
5
83
100
AcDbEntity
8
DIMENSION
6
CONTINUOUS
62
7
370
0
100
AcDbTrace
10
33.9413139764
20
11.0236220472
30
0
11
33.8580570448
21
11.5236220472
31
0
12
34.0245709079
22
11.5236220472
32
0
13
34.0245709079
23
11.5236220472
33
0
0
MTEXT
5
84
100
AcDbEntity
8
DIMENSION
6
CONTINUOUS
62
7
370
0
100
AcDbMText
10
33.6788139764
20
12.0083442695
30
0
40
0.5
41
1.94444444444
71
5
72
1
1
0.5906
7
standard
210
0
220
0
230
1
50
90
73
2
44
1
0
LINE
5
85
100
AcDbEntity
8
DIMENSION
6
CONTINUOUS
62
7
370
0
100
AcDbLine
10
33.1817913386
20
10.4330708661
11
33.9663139764
21
10.4330708661
0
LINE
5
86
100
AcDbEntity
8
DIMENSION
6
CONTINUOUS
62
7
370
0
100
AcDbLine
10
42.8633858268
20
11.0236220472
11
33.9663139764
21
11.0236220472
0
ENDBLK
5
50
330
4E
100
AcDbEntity
8
0
100
AcDbBlockEnd
0
BLOCK
5
52
330
51
100
AcDbEntity
8
0
100
AcDbBlockBegin
2
*D3
70
1
10
0
20
0
3
*D3
1

0
LINE
5
87
100
AcDbEntity
8
DIMENSION
6
CONTINUOUS
62
7
370
0
100
AcDbLine
10
40.0621309055
20
6.13681102362
11
40.0621309055
21
4.88681102362
0
SOLID
5
88
100
AcDbEntity
8
DIMENSION
6
CONTINUOUS
62
7
370
0
100
AcDbTrace
10
40.0621309055
20
6.13681102362
30
0
11
40.1453878371
21
5.63681102362
31
0
12
39.978873974
22
5.63681102362
32
0
13
39.978873974
23
5.63681102362
33
0
0
SOLID
5
89
100
AcDbEntity
8
DIMENSION
6
CONTINUOUS
62
7
370
0
100
AcDbTrace
10
40.0621309055
20
4.88681102362
30
0
11
39.978873974
21
5.38681102362
31
0
12
40.1453878371
22
5.38681102362
32
0
13
40.1453878371
23
5.38681102362
33
0
0
MTEXT
5
8A
100
AcDbEntity
8
DIMENSION
6
CONTINUOUS
62
7
370
0
100
AcDbMText
10
39.7996309055
20
5.51181102362
30
0
40
0.5
41
1.05555555556
71
5
72
1
1
1.25
7
standard
210
0
220
0
230
1
50
90
73
2
44
1
0
LINE
5
8B
100
AcDbEntity
8
DIMENSION
6
CONTINUOUS
62
7
370
0
100
AcDbLine
10
40.8142716535
20
6.13681102362
11
40.0371309055
21
6.13681102362
0
LINE
5
8C
100
AcDbEntity
8
DIMENSION
6
CONTINUOUS
62
7
370
0
100
AcDbLine
10
40.8142716535
20
4.88681102362
11
40.0371309055
21
4.88681102362
0
ENDBLK
5
53
330
51
100
AcDbEntity
8
0
100
AcDbBlockEnd
0
BLOCK
5
55
330
54
100
AcDbEntity
8
0
100
AcDbBlockBegin
2
*D2
70
1
10
0
20
0
3
*D2
1

0
LINE
5
8D
100
AcDbEntity
8
DIMENSION
6
CONTINUOUS
62
7
370
0
100
AcDbLine
10
20.8316929134
20
8.25448818898
11
22.0816929134
21
8.25448818898
0
SOLID
5
8E
100
AcDbEntity
8
DIMENSION
6
CONTINUOUS
62
7
370
0
100
AcDbTrace
10
20.8316929134
20
8.25448818898
30
0
11
21.3316929134
21
8.33774512053
31
0
12
21.3316929134
22
8.17123125742
32
0
13
21.3316929134
23
8.17123125742
33
0
0
SOLID
5
8F
100
AcDbEntity
8
DIMENSION
6
CONTINUOUS
62
7
370
0
100
AcDbTrace
10
22.0816929134
20
8.25448818898
30
0
11
21.5816929134
21
8.17123125742
31
0
12
21.5816929134
22
8.33774512053
32
0
13
21.5816929134
23
8.33774512053
33
0
0
MTEXT
5
90
100
AcDbEntity
8
DIMENSION
6
CONTINUOUS
62
7
370
0
100
AcDbMText
10
21.4566929134
20
8.51698818898
30
0
40
0.5
41
1.05555555556
71
5
72
1
1
1.25
7
standard
210
0
220
0
230
1
50
0
73
2
44
1
0
LINE
5
91
100
AcDbEntity
8
DIMENSION
6
CONTINUOUS
62
7
370
0
100
AcDbLine
10
20.8316929134
20
8.92450787402
11
20.8316929134
21
8.22948818898
0
LINE
5
92
100
AcDbEntity
8
DIMENSION
6
CONTINUOUS
62
7
370
0
100
AcDbLine
10
22.0816929134
20
8.92450787402
11
22.0816929134
21
8.22948818898
0
ENDBLK
5
56
330
54
100
AcDbEntity
8
0
100
AcDbBlockEnd
0
BLOCK
5
58
330
57
100
AcDbEntity
8
0
100
AcDbBlockBegin
2
*D10
70
1
10
0
20
0
3
*D10
1

0
LINE
5
93
100
AcDbEntity
8
DIMENSION
6
CONTINUOUS
62
7
370
0
100
AcDbLine
10
30.5433070866
20
11.5511811024
11
30.5433070866
21
9.31496062992
0
SOLID
5
94
100
AcDbEntity
8
DIMENSION
6
CONTINUOUS
62
7
370
0
100
AcDbTrace
10
30.5433070866
20
10.5511811024
30
0
11
30.4600501551
21
11.0511811024
31
0
12
30.6265640182
22
11.0511811024
32
0
13
30.6265640182
23
11.0511811024
33
0
0
SOLID
5
95
100
AcDbEntity
8
DIMENSION
6
CONTINUOUS
62
7
370
0
100
AcDbTrace
10
30.5433070866
20
10.3149606299
30
0
11
30.6265640182
21
9.81496062992
31
0
12
30.4600501551
22
9.81496062992
32
0
13
30.4600501551
23
9.81496062992
33
0
0
MTEXT
5
96
100
AcDbEntity
8
DIMENSION
6
CONTINUOUS
62
7
370
0
100
AcDbMText
10
30.2808070866
20
11.5359033246
30
0
40
0.5
41
1.94444444444
71
5
72
1
1
0.2362
7
standard
210
0
220
0
230
1
50
90
73
2
44
1
0
LINE
5
97
100
AcDbEntity
8
DIMENSION
6
CONTINUOUS
62
7
370
0
100
AcDbLine
10
31.1882874016
20
10.5511811024
11
30.5183070866
21
10.5511811024
0
LINE
5
98
100
AcDbEntity
8
DIMENSION
6
CONTINUOUS
62
7
370
0
100
AcDbLine
10
31.1882874016
20
10.3149606299
11
30.5183070866
21
10.3149606299
0
ENDBLK
5
59
330
57
100
AcDbEntity
8
0
100
AcDbBlockEnd
0
BLOCK
5
5B
330
5A
100
AcDbEntity
8
0
100
AcDbBlockBegin
2
*D6
70
1
10
0
20
0
3
*D6
1

0
LINE
5
99
100
AcDbEntity
8
DIMENSION
6
CONTINUOUS
62
7
370
0
100
AcDbLine
10
23.405511811
20
8.93700787402
11
23.405511811
21
11.0236220472
0
SOLID
5
9A
100
AcDbEntity
8
DIMENSION
6
CONTINUOUS
62
7
370
0
100
AcDbTrace
10
23.405511811
20
8.93700787402
30
0
11
23.3222548795
21
9.43700787402
31
0
12
23.4887687426
22
9.43700787402
32
0
13
23.4887687426
23
9.43700787402
33
0
0
SOLID
5
9B
100
AcDbEntity
8
DIMENSION
6
CONTINUOUS
62
7
370
0
100
AcDbTrace
10
23.405511811
20
11.0236220472
30
0
11
23.4887687426
21
10.5236220472
31
0
12
23.3222548795
22
10.5236220472
32
0
13
23.3222548795
23
10.5236220472
33
0
0
MTEXT
5
9C
100
AcDbEntity
8
DIMENSION
6
CONTINUOUS
62
7
370
0
100
AcDbMText
10
23.143011811
20
9.98031496063
30
0
40
0.5
41
1.94444444444
71
5
72
1
1
2.0866
7
standard
210
0
220
0
230
1
50
90
73
2
44
1
0
LINE
5
9D
100
AcDbEntity
8
DIMENSION
6
CONTINUOUS
62
7
370
0
100
AcDbLine
10
22.0941929134
20
8.93700787402
11
23.430511811
21
8.93700787402
0
LINE
5
9E
100
AcDbEntity
8
DIMENSION
6
CONTINUOUS
62
7
370
0
100
AcDbLine
10
42.9258858268
20
11.0236220472
11
23.430511811
21
11.0236220472
0
ENDBLK
5
5C
330
5A
100
AcDbEntity
8
0
100
AcDbBlockEnd
0
BLOCK
5
5E
330
5D
100
AcDbEntity
8
0
100
AcDbBlockBegin
2
*D13
70
1
10
0
20
0
3
*D13
1

0
LINE
5
9F
100
AcDbEntity
8
DIMENSION
6
CONTINUOUS
62
7
370
0
100
AcDbLine
10
9.19291338583
20
9.43307086614
11
9.19291338583
21
12.0236220472
0
SOLID
5
A0
100
AcDbEntity
8
DIMENSION
6
CONTINUOUS
62
7
370
0
100
AcDbTrace
10
9.19291338583
20
10.4330708661
30
0
11
9.27617031738
21
9.93307086614
31
0
12
9.10965645427
22
9.93307086614
32
0
13
9.10965645427
23
9.93307086614
33
0
0
SOLID
5
A1
100
AcDbEntity
8
DIMENSION
6
CONTINUOUS
62
7
370
0
100
AcDbTrace
10
9.19291338583
20
11.0236220472
30
0
11
9.10965645427
21
11.5236220472
31
0
12
9.27617031738
22
11.5236220472
32
0
13
9.27617031738
23
11.5236220472
33
0
0
MTEXT
5
A2
100
AcDbEntity
8
DIMENSION
6
CONTINUOUS
62
7
370
0
100
AcDbMText
10
8.93041338583
20
12.0083442695
30
0
40
0.5
41
1.94444444444
71
5
72
1
1
0.5906
7
standard
210
0
220
0
230
1
50
90
73
2
44
1
0
LINE
5
A3
100
AcDbEntity
8
DIMENSION
6
CONTINUOUS
62
7
370
0
100
AcDbLine
10
9.73159448819
20
10.4330708661
11
9.16791338583
21
10.4330708661
0
LINE
5
A4
100
AcDbEntity
8
DIMENSION
6
CONTINUOUS
62
7
370
0
100
AcDbLine
10
0.05
20
11.0236220472
11
9.16791338583
21
11.0236220472
0
ENDBLK
5
5F
330
5D
100
AcDbEntity
8
0
100
AcDbBlockEnd
0
BLOCK
5
61
330
60
100
AcDbEntity
8
0
100
AcDbBlockBegin
2
*D11
70
1
10
0
20
0
3
*D11
1

0
LINE
5
A5
100
AcDbEntity
8
DIMENSION
6
CONTINUOUS
62
7
370
0
100
AcDbLine
10
-0.527559055118
20
7.19488188976
11
1.70866141732
21
7.19488188976
0
SOLID
5
A6
100
AcDbEntity
8
DIMENSION
6
CONTINUOUS
62
7
370
0
100
AcDbTrace
10
0.472440944882
20
7.19488188976
30
0
11
-0.0275590551181
21
7.11162495821
31
0
12
-0.0275590551181
22
7.27813882132
32
0
13
-0.0275590551181
23
7.27813882132
33
0
0
SOLID
5
A7
100
AcDbEntity
8
DIMENSION
6
CONTINUOUS
62
7
370
0
100
AcDbTrace
10
0.708661417323
20
7.19488188976
30
0
11
1.20866141732
21
7.27813882132
31
0
12
1.20866141732
22
7.11162495821
32
0
13
1.20866141732
23
7.11162495821
33
0
0
MTEXT
5
A8
100
AcDbEntity
8
DIMENSION
6
CONTINUOUS
62
7
370
0
100
AcDbMText
10
1.69338363955
20
7.45738188976
30
0
40
0.5
41
1.94444444444
71
5
72
1
1
0.2362
7
standard
210
0
220
0
230
1
50
0
73
2
44
1
0
LINE
5
A9
100
AcDbEntity
8
DIMENSION
6
CONTINUOUS
62
7
370
0
100
AcDbLine
10
0.472440944882
20
6.50856299213
11
0.472440944882
21
7.21988188976
0
LINE
5
AA
100
AcDbEntity
8
DIMENSION
6
CONTINUOUS
62
7
370
0
100
AcDbLine
10
0.708661417323
20
6.50856299213
11
0.708661417323
21
7.21988188976
0
ENDBLK
5
62
330
60
100
AcDbEntity
8
0
100
AcDbBlockEnd
0
BLOCK
5
64
330
63
100
AcDbEntity
8
0
100
AcDbBlockBegin
2
*D4
70
1
10
0
20
0
3
*D4
1

0
LINE
5
AB
100
AcDbEntity
8
DIMENSION
6
CONTINUOUS
62
7
370
0
100
AcDbLine
10
2.08661417323
20
3.89279343012
11
4.93038065763e-32
21
3.89279343012
0
SOLID
5
AC
100
AcDbEntity
8
DIMENSION
6
CONTINUOUS
62
7
370
0
100
AcDbTrace
10
2.08661417323
20
3.89279343012
30
0
11
1.58661417323
21
3.80953649856
31
0
12
1.58661417323
22
3.97605036167
32
0
13
1.58661417323
23
3.97605036167
33
0
0
SOLID
5
AD
100
AcDbEntity
8
DIMENSION
6
CONTINUOUS
62
7
370
0
100
AcDbTrace
10
4.93038065763e-32
20
3.89279343012
30
0
11
0.5
21
3.97605036167
31
0
12
0.5
22
3.80953649856
32
0
13
0.5
23
3.80953649856
33
0
0
MTEXT
5
AE
100
AcDbEntity
8
DIMENSION
6
CONTINUOUS
62
7
370
0
100
AcDbMText
10
1.04330708661
20
4.15529343012
30
0
40
0.5
41
1.94444444444
71
5
72
1
1
2.0866
7
standard
210
0
220
0
230
1
50
360
73
2
44
1
0
LINE
5
AF
100
AcDbEntity
8
DIMENSION
6
CONTINUOUS
62
7
370
0
100
AcDbLine
10
2.08661417323
20
4.87431102362
11
2.08661417323
21
3.86779343012
0
LINE
5
B0
100
AcDbEntity
8
DIMENSION
6
CONTINUOUS
62
7
370
0
100
AcDbLine
10
-2.29613691342e-18
20
-0.0125
11
-4.59227382683e-18
21
3.86779343012
0
ENDBLK
5
65
330
63
100
AcDbEntity
8
0
100
AcDbBlockEnd
0
BLOCK
5
67
330
66
100
AcDbEntity
8
0
100
AcDbBlockBegin
2
*D15
70
1
10
0
20
0
3
*D15
1

0
LINE
5
B1
100
AcDbEntity
8
DIMENSION
6
CONTINUOUS
62
7
370
0
100
AcDbLine
10
1.5905511811
20
3.03734005906
11
-1
21
3.03734005906
0
SOLID
5
B2
100
AcDbEntity
8
DIMENSION
6
CONTINUOUS
62
7
370
0
100
AcDbTrace
10
0.590551181102
20
3.03734005906
30
0
11
1.0905511811
21
3.12059699061
31
0
12
1.0905511811
22
2.9540831275
32
0
13
1.0905511811
23
2.9540831275
33
0
0
SOLID
5
B3
100
AcDbEntity
8
DIMENSION
6
CONTINUOUS
62
7
370
0
100
AcDbTrace
10
0
20
3.03734005906
30
0
11
-0.5
21
2.9540831275
31
0
12
-0.5
22
3.12059699061
32
0
13
-0.5
23
3.12059699061
33
0
0
MTEXT
5
B4
100
AcDbEntity
8
DIMENSION
6
CONTINUOUS
62
7
370
0
100
AcDbMText
10
1.57527340332
20
3.29984005906
30
0
40
0.5
41
1.94444444444
71
5
72
1
1
0.5906
7
standard
210
0
220
0
230
1
50
360
73
2
44
1
0
LINE
5
B5
100
AcDbEntity
8
DIMENSION
6
CONTINUOUS
62
7
370
0
100
AcDbLine
10
0.590551181102
20
4.51505905512
11
0.590551181102
21
3.01234005906
0
LINE
5
B6
100
AcDbEntity
8
DIMENSION
6
CONTINUOUS
62
7
370
0
100
AcDbLine
10
-2.29613691342e-18
20
0.05
11
-4.59227382683e-18
21
3.01234005906
0
ENDBLK
5
68
330
66
100
AcDbEntity
8
0
100
AcDbBlockEnd
0
BLOCK
5
6A
330
69
100
AcDbEntity
8
0
100
AcDbBlockBegin
2
*D12
70
1
10
0
20
0
3
*D12
1

0
LINE
5
B7
100
AcDbEntity
8
DIMENSION
6
CONTINUOUS
62
7
370
0
100
AcDbLine
10
41.2047244094
20
6.98818897638
11
43.4409448819
21
6.98818897638
0
SOLID
5
B8
100
AcDbEntity
8
DIMENSION
6
CONTINUOUS
62
7
370
0
100
AcDbTrace
10
42.2047244094
20
6.98818897638
30
0
11
41.7047244094
21
6.90493204482
31
0
12
41.7047244094
22
7.07144590793
32
0
13
41.7047244094
23
7.07144590793
33
0
0
SOLID
5
B9
100
AcDbEntity
8
DIMENSION
6
CONTINUOUS
62
7
370
0
100
AcDbTrace
10
42.4409448819
20
6.98818897638
30
0
11
42.9409448819
21
7.07144590793
31
0
12
42.9409448819
22
6.90493204482
32
0
13
42.9409448819
23
6.90493204482
33
0
0
MTEXT
5
BA
100
AcDbEntity
8
DIMENSION
6
CONTINUOUS
62
7
370
0
100
AcDbMText
10
43.4256671041
20
7.25068897638
30
0
40
0.5
41
1.94444444444
71
5
72
1
1
0.2362
7
standard
210
0
220
0
230
1
50
0
73
2
44
1
0
LINE
5
BB
100
AcDbEntity
8
DIMENSION
6
CONTINUOUS
62
7
370
0
100
AcDbLine
10
42.2047244094
20
6.50856299213
11
42.2047244094
21
7.01318897638
0
LINE
5
BC
100
AcDbEntity
8
DIMENSION
6
CONTINUOUS
62
7
370
0
100
AcDbLine
10
42.4409448819
20
6.50856299213
11
42.4409448819
21
7.01318897638
0
ENDBLK
5
6B
330
69
100
AcDbEntity
8
0
100
AcDbBlockEnd
0
BLOCK
5
6D
330
6C
100
AcDbEntity
8
0
100
AcDbBlockBegin
2
*D9
70
1
10
0
20
0
3
*D9
1

0
LINE
5
BD
100
AcDbEntity
8
DIMENSION
6
CONTINUOUS
62
7
370
0
100
AcDbLine
10
12.5543307087
20
11.5511811024
11
12.5543307087
21
9.31496062992
0
SOLID
5
BE
100
AcDbEntity
8
DIMENSION
6
CONTINUOUS
62
7
370
0
100
AcDbTrace
10
12.5543307087
20
10.5511811024
30
0
11
12.4710737771
21
11.0511811024
31
0
12
12.6375876402
22
11.0511811024
32
0
13
12.6375876402
23
11.0511811024
33
0
0
SOLID
5
BF
100
AcDbEntity
8
DIMENSION
6
CONTINUOUS
62
7
370
0
100
AcDbTrace
10
12.5543307087
20
10.3149606299
30
0
11
12.6375876402
21
9.81496062992
31
0
12
12.4710737771
22
9.81496062992
32
0
13
12.4710737771
23
9.81496062992
33
0
0
MTEXT
5
C0
100
AcDbEntity
8
DIMENSION
6
CONTINUOUS
62
7
370
0
100
AcDbMText
10
12.2918307087
20
11.5359033246
30
0
40
0.5
41
1.94444444444
71
5
72
1
1
0.2362
7
standard
210
0
220
0
230
1
50
90
73
2
44
1
0
LINE
5
C1
100
AcDbEntity
8
DIMENSION
6
CONTINUOUS
62
7
370
0
100
AcDbLine
10
11.7250984252
20
10.5511811024
11
12.5793307087
21
10.5511811024
0
LINE
5
C2
100
AcDbEntity
8
DIMENSION
6
CONTINUOUS
62
7
370
0
100
AcDbLine
10
11.7250984252
20
10.3149606299
11
12.5793307087
21
10.3149606299
0
ENDBLK
5
6E
330
6C
100
AcDbEntity
8
0
100
AcDbBlockEnd
0
BLOCK
5
70
330
6F
100
AcDbEntity
8
0
100
AcDbBlockBegin
2
*D5
70
1
10
0
20
0
3
*D5
1

0
LINE
5
C3
100
AcDbEntity
8
DIMENSION
6
CONTINUOUS
62
7
370
0
100
AcDbLine
10
40.8267716535
20
3.51432740219
11
42.9133858268
21
3.51432740219
0
SOLID
5
C4
100
AcDbEntity
8
DIMENSION
6
CONTINUOUS
62
7
370
0
100
AcDbTrace
10
40.8267716535
20
3.51432740219
30
0
11
41.3267716535
21
3.59758433374
31
0
12
41.3267716535
22
3.43107047063
32
0
13
41.3267716535
23
3.43107047063
33
0
0
SOLID
5
C5
100
AcDbEntity
8
DIMENSION
6
CONTINUOUS
62
7
370
0
100
AcDbTrace
10
42.9133858268
20
3.51432740219
30
0
11
42.4133858268
21
3.43107047063
31
0
12
42.4133858268
22
3.59758433374
32
0
13
42.4133858268
23
3.59758433374
33
0
0
MTEXT
5
C6
100
AcDbEntity
8
DIMENSION
6
CONTINUOUS
62
7
370
0
100
AcDbMText
10
41.8700787402
20
3.77682740219
30
0
40
0.5
41
1.94444444444
71
5
72
1
1
2.0866
7
standard
210
0
220
0
230
1
50
0
73
2
44
1
0
LINE
5
C7
100
AcDbEntity
8
DIMENSION
6
CONTINUOUS
62
7
370
0
100
AcDbLine
10
40.8267716535
20
4.87431102362
11
40.8267716535
21
3.48932740219
0
LINE
5
C8
100
AcDbEntity
8
DIMENSION
6
CONTINUOUS
62
7
370
0
100
AcDbLine
10
42.9133858268
20
-0.0125
11
42.9133858268
21
3.48932740219
0
ENDBLK
5
71
330
6F
100
AcDbEntity
8
0
100
AcDbBlockEnd
0
BLOCK
5
73
330
72
100
AcDbEntity
8
0
100
AcDbBlockBegin
2
*D1
70
1
10
0
20
0
3
*D1
1

0
LINE
5
C9
100
AcDbEntity
8
DIMENSION
6
CONTINUOUS
62
7
370
0
100
AcDbLine
10
3.12598425197
20
6.13681102362
11
3.12598425197
21
4.88681102362
0
SOLID
5
CA
100
AcDbEntity
8
DIMENSION
6
CONTINUOUS
62
7
370
0
100
AcDbTrace
10
3.12598425197
20
6.13681102362
30
0
11
3.20924118352
21
5.63681102362
31
0
12
3.04272732041
22
5.63681102362
32
0
13
3.04272732041
23
5.63681102362
33
0
0
SOLID
5
CB
100
AcDbEntity
8
DIMENSION
6
CONTINUOUS
62
7
370
0
100
AcDbTrace
10
3.12598425197
20
4.88681102362
30
0
11
3.04272732041
21
5.38681102362
31
0
12
3.20924118352
22
5.38681102362
32
0
13
3.20924118352
23
5.38681102362
33
0
0
MTEXT
5
CC
100
AcDbEntity
8
DIMENSION
6
CONTINUOUS
62
7
370
0
100
AcDbMText
10
2.86348425197
20
5.51181102362
30
0
40
0.5
41
1.05555555556
71
5
72
1
1
1.25
7
standard
210
0
220
0
230
1
50
90
73
2
44
1
0
LINE
5
CD
100
AcDbEntity
8
DIMENSION
6
CONTINUOUS
62
7
370
0
100
AcDbLine
10
2.09911417323
20
6.13681102362
11
3.15098425197
21
6.13681102362
0
LINE
5
CE
100
AcDbEntity
8
DIMENSION
6
CONTINUOUS
62
7
370
0
100
AcDbLine
10
2.09911417323
20
4.88681102362
11
3.15098425197
21
4.88681102362
0
ENDBLK
5
74
330
72
100
AcDbEntity
8
0
100
AcDbBlockEnd
0
BLOCK
5
76
330
75
100
AcDbEntity
8
0
100
AcDbBlockBegin
2
*D7
70
1
10
0
20
0
3
*D7
1

0
LINE
5
CF
100
AcDbEntity
8
DIMENSION
6
CONTINUOUS
62
7
370
0
100
AcDbLine
10
0
20
-2.25277397576
11
42.9133858268
21
-2.25277397576
0
SOLID
5
D0
100
AcDbEntity
8
DIMENSION
6
CONTINUOUS
62
7
370
0
100
AcDbTrace
10
0
20
-2.25277397576
30
0
11
0.5
21
-2.16951704421
31
0
12
0.5
22
-2.33603090732
32
0
13
0.5
23
-2.33603090732
33
0
0
SOLID
5
D1
100
AcDbEntity
8
DIMENSION
6
CONTINUOUS
62
7
370
0
100
AcDbTrace
10
42.9133858268
20
-2.25277397576
30
0
11
42.4133858268
21
-2.33603090732
31
0
12
42.4133858268
22
-2.16951704421
32
0
13
42.4133858268
23
-2.16951704421
33
0
0
MTEXT
5
D2
100
AcDbEntity
8
DIMENSION
6
CONTINUOUS
62
7
370
0
100
AcDbMText
10
21.4566929134
20
-1.99027397576
30
0
40
0.5
41
2.33333333333
71
5
72
1
1
42.9134
7
standard
210
0
220
0
230
1
50
0
73
2
44
1
0
LINE
5
D3
100
AcDbEntity
8
DIMENSION
6
CONTINUOUS
62
7
370
0
100
AcDbLine
10
-2.29613691342e-18
20
-0.0125
11
-4.59227382683e-18
21
-2.27777397576
0
LINE
5
D4
100
AcDbEntity
8
DIMENSION
6
CONTINUOUS
62
7
370
0
100
AcDbLine
10
42.9133858268
20
-0.0125
11
42.9133858268
21
-2.27777397576
0
ENDBLK
5
77
330
75
100
AcDbEntity
8
0
100
AcDbBlockEnd
0
BLOCK
5
79
330
78
100
AcDbEntity
8
0
100
AcDbBlockBegin
2
*D16
70
1
10
0
20
0
3
*D16
1

0
LINE
5
D5
100
AcDbEntity
8
DIMENSION
6
CONTINUOUS
62
7
370
0
100
AcDbLine
10
41.3228346457
20
2.55118110236
11
43.9133858268
21
2.55118110236
0
SOLID
5
D6
100
AcDbEntity
8
DIMENSION
6
CONTINUOUS
62
7
370
0
100
AcDbTrace
10
42.3228346457
20
2.55118110236
30
0
11
41.8228346457
21
2.46792417081
31
0
12
41.8228346457
22
2.63443803392
32
0
13
41.8228346457
23
2.63443803392
33
0
0
SOLID
5
D7
100
AcDbEntity
8
DIMENSION
6
CONTINUOUS
62
7
370
0
100
AcDbTrace
10
42.9133858268
20
2.55118110236
30
0
11
43.4133858268
21
2.63443803392
31
0
12
43.4133858268
22
2.46792417081
32
0
13
43.4133858268
23
2.46792417081
33
0
0
MTEXT
5
D8
100
AcDbEntity
8
DIMENSION
6
CONTINUOUS
62
7
370
0
100
AcDbMText
10
43.898108049
20
2.81368110236
30
0
40
0.5
41
1.94444444444
71
5
72
1
1
0.5906
7
standard
210
0
220
0
230
1
50
0
73
2
44
1
0
LINE
5
D9
100
AcDbEntity
8
DIMENSION
6
CONTINUOUS
62
7
370
0
100
AcDbLine
10
42.3228346457
20
4.51505905512
11
42.3228346457
21
2.52618110236
0
LINE
5
DA
100
AcDbEntity
8
DIMENSION
6
CONTINUOUS
62
7
370
0
100
AcDbLine
10
42.9133858268
20
0.05
11
42.9133858268
21
2.52618110236
0
ENDBLK
5
7A
330
78
100
AcDbEntity
8
0
100
AcDbBlockEnd
0
ENDSEC
0
SECTION
2
ENTITIES
0
LINE
5
DB
100
AcDbEntity
8
REFERENCE
6
ByLayer
62
256
370
-1
100
AcDbLine
10
0.590551181102
20
4.52755905512
11
0.590551181102
21
6.49606299213
0
LINE
5
DC
100
AcDbEntity
8
REFERENCE
6
ByLayer
62
256
370
-1
100
AcDbLine
10
42.3228346457
20
4.52755905512
11
42.3228346457
21
6.49606299213
0
LINE
5
DD
100
AcDbEntity
8
REFERENCE
6
ByLayer
62
256
370
-1
100
AcDbLine
10
9.74409448819
20
10.4330708661
11
11.7125984252
21
10.4330708661
0
LINE
5
DE
100
AcDbEntity
8
REFERENCE
6
ByLayer
62
256
370
-1
100
AcDbLine
10
33.1692913386
20
10.4330708661
11
31.2007874016
21
10.4330708661
0
LINE
5
DF
100
AcDbEntity
8
ALIGNMENT_POCKET
6
ByLayer
62
256
370
-1
100
AcDbLine
10
0.708661417323
20
6.49606299213
11
0.472440944882
21
6.49606299213
0
LINE
5
E0
100
AcDbEntity
8
ALIGNMENT_POCKET
6
ByLayer
62
256
370
-1
100
AcDbLine
10
0.472440944882
20
6.49606299213
11
0.472440944882
21
4.52755905512
0
LINE
5
E1
100
AcDbEntity
8
ALIGNMENT_POCKET
6
ByLayer
62
256
370
-1
100
AcDbLine
10
0.472440944882
20
4.52755905512
11
0.708661417323
21
4.52755905512
0
LINE
5
E2
100
AcDbEntity
8
ALIGNMENT_POCKET
6
ByLayer
62
256
370
-1
100
AcDbLine
10
0.708661417323
20
4.52755905512
11
0.708661417323
21
6.49606299213
0
LINE
5
E3
100
AcDbEntity
8
ALIGNMENT_POCKET
6
ByLayer
62
256
370
-1
100
AcDbLine
10
9.74409448819
20
10.5511811024
11
11.7125984252
21
10.5511811024
0
LINE
5
E4
100
AcDbEntity
8
ALIGNMENT_POCKET
6
ByLayer
62
256
370
-1
100
AcDbLine
10
11.7125984252
20
10.5511811024
11
11.7125984252
21
10.3149606299
0
LINE
5
E5
100
AcDbEntity
8
ALIGNMENT_POCKET
6
ByLayer
62
256
370
-1
100
AcDbLine
10
11.7125984252
20
10.3149606299
11
9.74409448819
21
10.3149606299
0
LINE
5
E6
100
AcDbEntity
8
ALIGNMENT_POCKET
6
ByLayer
62
256
370
-1
100
AcDbLine
10
9.74409448819
20
10.3149606299
11
9.74409448819
21
10.5511811024
0
LINE
5
E7
100
AcDbEntity
8
ALIGNMENT_POCKET
6
ByLayer
62
256
370
-1
100
AcDbLine
10
31.2007874016
20
10.5511811024
11
33.1692913386
21
10.5511811024
0
LINE
5
E8
100
AcDbEntity
8
ALIGNMENT_POCKET
6
ByLayer
62
256
370
-1
100
AcDbLine
10
33.1692913386
20
10.5511811024
11
33.1692913386
21
10.3149606299
0
LINE
5
E9
100
AcDbEntity
8
ALIGNMENT_POCKET
6
ByLayer
62
256
370
-1
100
AcDbLine
10
33.1692913386
20
10.3149606299
11
31.2007874016
21
10.3149606299
0
LINE
5
EA
100
AcDbEntity
8
ALIGNMENT_POCKET
6
ByLayer
62
256
370
-1
100
AcDbLine
10
31.2007874016
20
10.3149606299
11
31.2007874016
21
10.5511811024
0
LINE
5
EB
100
AcDbEntity
8
ALIGNMENT_POCKET
6
ByLayer
62
256
370
-1
100
AcDbLine
10
42.4409448819
20
6.49606299213
11
42.2047244094
21
6.49606299213
0
LINE
5
EC
100
AcDbEntity
8
ALIGNMENT_POCKET
6
ByLayer
62
256
370
-1
100
AcDbLine
10
42.2047244094
20
6.49606299213
11
42.2047244094
21
4.52755905512
0
LINE
5
ED
100
AcDbEntity
8
ALIGNMENT_POCKET
6
ByLayer
62
256
370
-1
100
AcDbLine
10
42.2047244094
20
4.52755905512
11
42.4409448819
21
4.52755905512
0
LINE
5
EE
100
AcDbEntity
8
ALIGNMENT_POCKET
6
ByLayer
62
256
370
-1
100
AcDbLine
10
42.4409448819
20
4.52755905512
11
42.4409448819
21
6.49606299213
0
LINE
5
EF
100
AcDbEntity
8
REFERENCE
6
ByLayer
62
256
370
-1
100
AcDbLine
10
2.08661417323
20
4.88681102362
11
2.08661417323
21
6.13681102362
0
LINE
5
F0
100
AcDbEntity
8
REFERENCE
6
ByLayer
62
256
370
-1
100
AcDbLine
10
40.8267716535
20
4.88681102362
11
40.8267716535
21
6.13681102362
0
LINE
5
F1
100
AcDbEntity
8
REFERENCE
6
ByLayer
62
256
370
-1
100
AcDbLine
10
20.8316929134
20
8.93700787402
11
22.0816929134
21
8.93700787402
0
CIRCLE
5
F2
100
AcDbEntity
8
6-32_TAP_HOLE
6
ByLayer
62
256
370
-1
100
AcDbCircle
10
2.08661417323
20
6.13681102362
40
0.05325
0
CIRCLE
5
F3
100
AcDbEntity
8
6-32_TAP_HOLE
6
ByLayer
62
256
370
-1
100
AcDbCircle
10
2.08661417323
20
4.88681102362
40
0.05325
0
CIRCLE
5
F4
100
AcDbEntity
8
6-32_TAP_HOLE
6
ByLayer
62
256
370
-1
100
AcDbCircle
10
20.8316929134
20
8.93700787402
40
0.05325
0
CIRCLE
5
F5
100
AcDbEntity
8
6-32_TAP_HOLE
6
ByLayer
62
256
370
-1
100
AcDbCircle
10
22.0816929134
20
8.93700787402
40
0.05325
0
CIRCLE
5
F6
100
AcDbEntity
8
6-32_TAP_HOLE
6
ByLayer
62
256
370
-1
100
AcDbCircle
10
40.8267716535
20
6.13681102362
40
0.05325
0
CIRCLE
5
F7
100
AcDbEntity
8
6-32_TAP_HOLE
6
ByLayer
62
256
370
-1
100
AcDbCircle
10
40.8267716535
20
4.88681102362
40
0.05325
0
DIMENSION
5
F8
100
AcDbEntity
8
DIMENSION
6
ByLayer
62
256
370
-1
100
AcDbDimension
2
*D1
10
3.12598425197
20
4.88681102362
30
0
11
2.86348425197
21
5.51181102362
31
0
70
32
71
5
72
0
3
Standard
53
0
210
0
220
0
230
1
100
AcDbAlignedDimension
13
2.08661417323
23
6.13681102362
33
0
14
2.08661417323
24
4.88681102362
34
0
50
90
100
AcDbRotatedDimension
0
DIMENSION
5
F9
100
AcDbEntity
8
DIMENSION
6
ByLayer
62
256
370
-1
100
AcDbDimension
2
*D2
10
22.0816929134
20
8.25448818898
30
0
11
21.4566929134
21
8.51698818898
31
0
70
32
71
5
72
0
3
Standard
53
0
210
0
220
0
230
1
100
AcDbAlignedDimension
13
20.8316929134
23
8.93700787402
33
0
14
22.0816929134
24
8.93700787402
34
0
100
AcDbRotatedDimension
0
DIMENSION
5
FA
100
AcDbEntity
8
DIMENSION
6
ByLayer
62
256
370
-1
100
AcDbDimension
2
*D3
10
40.0621309055
20
4.88681102362
30
0
11
39.7996309055
21
5.51181102362
31
0
70
32
71
5
72
0
3
Standard
53
0
210
0
220
0
230
1
100
AcDbAlignedDimension
13
40.8267716535
23
6.13681102362
33
0
14
40.8267716535
24
4.88681102362
34
0
50
90
100
AcDbRotatedDimension
0
DIMENSION
5
FB
100
AcDbEntity
8
DIMENSION
6
ByLayer
62
256
370
-1
100
AcDbDimension
2
*D4
10
2.38364850697e-16
20
3.89279343012
30
0
11
1.04330708661
21
4.15529343012
31
0
70
32
71
5
72
0
3
Standard
53
0
210
0
220
0
230
1
100
AcDbAlignedDimension
13
2.08661417323
23
4.88681102362
33
0
14
0
24
0
34
0
100
AcDbRotatedDimension
0
DIMENSION
5
FC
100
AcDbEntity
8
DIMENSION
6
ByLayer
62
256
370
-1
100
AcDbDimension
2
*D5
10
42.9133858268
20
3.51432740219
30
0
11
41.8700787402
21
3.77682740219
31
0
70
32
71
5
72
0
3
Standard
53
0
210
0
220
0
230
1
100
AcDbAlignedDimension
13
40.8267716535
23
4.88681102362
33
0
14
42.9133858268
24
0
34
0
100
AcDbRotatedDimension
0
DIMENSION
5
FD
100
AcDbEntity
8
DIMENSION
6
ByLayer
62
256
370
-1
100
AcDbDimension
2
*D6
10
23.405511811
20
11.0236220472
30
0
11
23.143011811
21
9.98031496063
31
0
70
32
71
5
72
0
3
Standard
53
0
210
0
220
0
230
1
100
AcDbAlignedDimension
13
22.0816929134
23
8.93700787402
33
0
14
42.9133858268
24
11.0236220472
34
0
50
90
100
AcDbRotatedDimension
0
DIMENSION
5
FE
100
AcDbEntity
8
DIMENSION
6
ByLayer
62
256
370
-1
100
AcDbDimension
2
*D7
10
42.9133858268
20
-2.25277397576
30
0
11
21.4566929134
21
-1.99027397576
31
0
70
32
71
5
72
0
3
Standard
53
0
210
0
220
0
230
1
100
AcDbAlignedDimension
13
0
23
0
33
0
14
42.9133858268
24
0
34
0
100
AcDbRotatedDimension
0
DIMENSION
5
FF
100
AcDbEntity
8
DIMENSION
6
ByLayer
62
256
370
-1
100
AcDbDimension
2
*D8
10
-3.2439945251
20
3.97274751161e-16
30
0
11
-3.5064945251
21
5.51181102362
31
0
70
32
71
5
72
0
3
Standard
53
0
210
0
220
0
230
1
100
AcDbAlignedDimension
13
0
23
11.0236220472
33
0
14
0
24
0
34
0
50
90
100
AcDbRotatedDimension
0
DIMENSION
5
100
100
AcDbEntity
8
DIMENSION
6
ByLayer
62
256
370
-1
100
AcDbDimension
2
*D9
10
12.5543307087
20
10.3149606299
30
0
11
12.2918307087
21
10.4330708661
31
0
70
32
71
5
72
0
3
Standard
53
0
210
0
220
0
230
1
100
AcDbAlignedDimension
13
11.7125984252
23
10.5511811024
33
0
14
11.7125984252
24
10.3149606299
34
0
50
90
100
AcDbRotatedDimension
0
DIMENSION
5
101
100
AcDbEntity
8
DIMENSION
6
ByLayer
62
256
370
-1
100
AcDbDimension
2
*D10
10
30.5433070866
20
10.3149606299
30
0
11
30.2808070866
21
10.4330708661
31
0
70
32
71
5
72
0
3
Standard
53
0
210
0
220
0
230
1
100
AcDbAlignedDimension
13
31.2007874016
23
10.5511811024
33
0
14
31.2007874016
24
10.3149606299
34
0
50
90
100
AcDbRotatedDimension
0
DIMENSION
5
102
100
AcDbEntity
8
DIMENSION
6
ByLayer
62
256
370
-1
100
AcDbDimension
2
*D11
10
0.708661417323
20
7.19488188976
30
0
11
0.590551181102
21
7.45738188976
31
0
70
32
71
5
72
0
3
Standard
53
0
210
0
220
0
230
1
100
AcDbAlignedDimension
13
0.472440944882
23
6.49606299213
33
0
14
0.708661417323
24
6.49606299213
34
0
100
AcDbRotatedDimension
0
DIMENSION
5
103
100
AcDbEntity
8
DIMENSION
6
ByLayer
62
256
370
-1
100
AcDbDimension
2
*D12
10
42.4409448819
20
6.98818897638
30
0
11
42.3228346457
21
7.25068897638
31
0
70
32
71
5
72
0
3
Standard
53
0
210
0
220
0
230
1
100
AcDbAlignedDimension
13
42.2047244094
23
6.49606299213
33
0
14
42.4409448819
24
6.49606299213
34
0
100
AcDbRotatedDimension
0
ARC
5
104
100
AcDbEntity
8
OUTER_BOUNDARY
6
ByLayer
62
256
370
-1
100
AcDbCircle
10
0.0625
20
10.9611220472
40
0.0625
100
AcDbArc
50
90
51
180
0
ARC
5
105
100
AcDbEntity
8
OUTER_BOUNDARY
6
ByLayer
62
256
370
-1
100
AcDbCircle
10
42.8508858268
20
0.0625
40
0.0625
100
AcDbArc
50
270
51
0
0
LINE
5
106
100
AcDbEntity
8
OUTER_BOUNDARY
6
ByLayer
62
256
370
-1
100
AcDbLine
10
42.8508858268
20
11.0236220472
11
0.0625
21
11.0236220472
0
LINE
5
107
100
AcDbEntity
8
OUTER_BOUNDARY
6
ByLayer
62
256
370
-1
100
AcDbLine
10
42.9133858268
20
0.0625
11
42.9133858268
21
10.9611220472
0
ARC
5
108
100
AcDbEntity
8
OUTER_BOUNDARY
6
ByLayer
62
256
370
-1
100
AcDbCircle
10
42.8508858268
20
10.9611220472
40
0.0625
100
AcDbArc
50
0
51
90
0
LINE
5
109
100
AcDbEntity
8
OUTER_BOUNDARY
6
ByLayer
62
256
370
-1
100
AcDbLine
10
0.0625
20
0
11
42.8508858268
21
0
0
LINE
5
10A
100
AcDbEntity
8
OUTER_BOUNDARY
6
ByLayer
62
256
370
-1
100
AcDbLine
10
0
20
10.9611220472
11
0
21
0.0625
0
ARC
5
10B
100
AcDbEntity
8
OUTER_BOUNDARY
6
ByLayer
62
256
370
-1
100
AcDbCircle
10
0.0625
20
0.0625
40
0.0625
100
AcDbArc
50
180
51
270
0
DIMENSION
5
10C
100
AcDbEntity
8
DIMENSION
6
ByLayer
62
256
370
-1
100
AcDbDimension
2
*D13
10
9.19291338583
20
11.0236220472
30
0
11
8.93041338583
21
10.7283464567
31
0
70
32
71
5
72
0
3
Standard
53
0
210
0
220
0
230
1
100
AcDbAlignedDimension
13
9.74409448819
23
10.4330708661
33
0
14
0.0625
24
11.0236220472
34
0
50
90
100
AcDbRotatedDimension
0
DIMENSION
5
10D
100
AcDbEntity
8
DIMENSION
6
ByLayer
62
256
370
-1
100
AcDbDimension
2
*D14
10
33.9413139764
20
11.0236220472
30
0
11
33.6788139764
21
10.7283464567
31
0
70
32
71
5
72
0
3
Standard
53
0
210
0
220
0
230
1
100
AcDbAlignedDimension
13
33.1692913386
23
10.4330708661
33
0
14
42.8508858268
24
11.0236220472
34
0
50
90
100
AcDbRotatedDimension
0
DIMENSION
5
10E
100
AcDbEntity
8
DIMENSION
6
ByLayer
62
256
370
-1
100
AcDbDimension
2
*D15
10
1.82156417815e-16
20
3.03734005906
30
0
11
0.295275590551
21
3.29984005906
31
0
70
32
71
5
72
0
3
Standard
53
0
210
0
220
0
230
1
100
AcDbAlignedDimension
13
0.590551181102
23
4.52755905512
33
0
14
0
24
0.0625
34
0
100
AcDbRotatedDimension
0
DIMENSION
5
10F
100
AcDbEntity
8
DIMENSION
6
ByLayer
62
256
370
-1
100
AcDbDimension
2
*D16
10
42.9133858268
20
2.55118110236
30
0
11
42.6181102362
21
2.81368110236
31
0
70
32
71
5
72
0
3
Standard
53
0
210
0
220
0
230
1
100
AcDbAlignedDimension
13
42.3228346457
23
4.52755905512
33
0
14
42.9133858268
24
0.0625
34
0
100
AcDbRotatedDimension
0
ENDSEC
0
SECTION
2
OBJECTS
0
DICTIONARY
5
C
330
0
100
AcDbDictionary
281
1
3
ACAD_GROUP
350
D
0
DICTIONARY
5
D
330
C
100
AcDbDictionary
281
1
0
ENDSEC
0
EOF
