999
dxfrw 0.5.11
0
SECTION
2
HEADER
9
$ACADVER
1
AC1021
9
$HANDSEED
5
20000
9
$DWGCODEPAGE
3
ANSI_1252
9
$INSBASE
10
0
20
0
30
0
9
$EXTMIN
10
-49.2564453125
20
-77.6817601073
30
0
9
$EXTMAX
10
908.942441259
20
358.5875
30
0
9
$LIMMIN
10
0
20
0
9
$LIMMAX
10
420
20
297
9
$ORTHOMODE
70
0
9
$LTSCALE
40
1
9
$TEXTSTYLE
7
STANDARD
9
$CLAYER
8
6-32_TAP_HOLE
9
$DIMASZ
40
1
9
$DIMLFAC
40
1
9
$DIMSCALE
40
0.5
9
$DIMEXO
40
0.025
9
$DIMEXE
40
0.05
9
$DIMTXT
40
1
9
$DIMTSZ
40
0
9
$DIMAUNIT
70
0
9
$DIMADEC
70
2
9
$DIMLUNIT
70
2
9
$DIMSTYLE
2
STANDARD
9
$DIMGAP
40
0.025
9
$DIMTIH
70
0
9
$LUNITS
70
2
9
$LUPREC
70
4
9
$AUNITS
70
0
9
$AUPREC
70
2
9
$SPLINESEGS
70
8
9
$GRIDMODE
70
1
9
$SNAPSTYLE
70
0
9
$GRIDUNIT
10
0
20
0
9
$PINSBASE
10
0
20
0
30
0
9
$PLIMMIN
10
0
20
0
9
$PLIMMAX
10
4.77218e-11
20
6.74923e-11
9
$INSUNITS
70
4
9
$PSVPSCALE
40
1
0
ENDSEC
0
SECTION
2
CLASSES
0
ENDSEC
0
SECTION
2
TABLES
0
TABLE
2
VPORT
5
8
330
0
100
AcDbSymbolTable
70
1
0
VPORT
5
31
330
2
100
AcDbSymbolTableRecord
100
AcDbViewportTableRecord
2
*ACTIVE
70
0
10
0
20
0
11
1
21
1
12
19.3720165017
22
12.0195149493
13
0
23
0
14
10
24
10
15
10
25
10
16
0
26
0
36
1
17
0
27
0
37
0
40
36.4496353559
41
1.27038626609
42
50
43
0
44
0
50
0
51
0
71
0
72
100
73
1
74
3
75
0
76
1
77
0
78
0
281
0
65
1
110
0
120
0
130
0
111
1
121
0
131
0
112
0
122
1
132
0
79
0
146
0
348
10020
60
7
61
5
292
1
282
1
141
0
142
0
63
250
421
3358443
0
ENDTAB
0
TABLE
2
LTYPE
5
5
330
0
100
AcDbSymbolTable
70
4
0
LTYPE
5
14
330
5
100
AcDbSymbolTableRecord
100
AcDbLinetypeTableRecord
2
ByBlock
70
0
3

72
65
73
0
40
0
0
LTYPE
5
15
330
5
100
AcDbSymbolTableRecord
100
AcDbLinetypeTableRecord
2
ByLayer
70
0
3

72
65
73
0
40
0
0
LTYPE
5
16
330
5
100
AcDbSymbolTableRecord
100
AcDbLinetypeTableRecord
2
Continuous
70
0
3
Solid line
72
65
73
0
40
0
0
LTYPE
5
32
330
5
100
AcDbSymbolTableRecord
100
AcDbLinetypeTableRecord
2
DOT
70
0
3
Dot . . . . . . . . . . . . . . . . . . . . . .
72
65
73
2
40
6.35
49
0
74
0
49
-6.35
74
0
0
LTYPE
5
33
330
5
100
AcDbSymbolTableRecord
100
AcDbLinetypeTableRecord
2
DOT2
70
0
3
Dot (.5x) .....................................
72
65
73
2
40
3.175
49
0
74
0
49
-3.175
74
0
0
LTYPE
5
34
330
5
100
AcDbSymbolTableRecord
100
AcDbLinetypeTableRecord
2
DOTX2
70
0
3
Dot (2x) .  .  .  .  .  .  .  .  .  .  .  .  .
72
65
73
2
40
12.7
49
0
74
0
49
-12.7
74
0
0
LTYPE
5
35
330
5
100
AcDbSymbolTableRecord
100
AcDbLinetypeTableRecord
2
DASHED
70
0
3
Dot . . . . . . . . . . . . . . . . . . . . . .
72
65
73
2
40
19.05
49
12.7
74
0
49
-6.35
74
0
0
LTYPE
5
36
330
5
100
AcDbSymbolTableRecord
100
AcDbLinetypeTableRecord
2
DASHED2
70
0
3
Dashed (.5x) _ _ _ _ _ _ _ _ _ _ _ _ _ _ _ _ _
72
65
73
2
40
9.525
49
6.35
74
0
49
-3.175
74
0
0
LTYPE
5
37
330
5
100
AcDbSymbolTableRecord
100
AcDbLinetypeTableRecord
2
DASHEDX2
70
0
3
Dashed (2x) ____  ____  ____  ____  ____  ___
72
65
73
2
40
38.1
49
25.4
74
0
49
-12.7
74
0
0
LTYPE
5
38
330
5
100
AcDbSymbolTableRecord
100
AcDbLinetypeTableRecord
2
DASHDOT
70
0
3
Dash dot __ . __ . __ . __ . __ . __ . __ . __
72
65
73
4
40
25.4
49
12.7
74
0
49
-6.35
74
0
49
0
74
0
49
-6.35
74
0
0
LTYPE
5
39
330
5
100
AcDbSymbolTableRecord
100
AcDbLinetypeTableRecord
2
DASHDOT2
70
0
3
Dash dot (.5x) _._._._._._._._._._._._._._._.
72
65
73
4
40
12.7
49
6.35
74
0
49
-3.175
74
0
49
0
74
0
49
-3.175
74
0
0
LTYPE
5
3A
330
5
100
AcDbSymbolTableRecord
100
AcDbLinetypeTableRecord
2
DASHDOTX2
70
0
3
Dash dot (2x) ____  .  ____  .  ____  .  ___
72
65
73
4
40
50.8
49
25.4
74
0
49
-12.7
74
0
49
0
74
0
49
-12.7
74
0
0
LTYPE
5
3B
330
5
100
AcDbSymbolTableRecord
100
AcDbLinetypeTableRecord
2
DIVIDE
70
0
3
Divide ____ . . ____ . . ____ . . ____ . . ____
72
65
73
6
40
31.75
49
12.7
74
0
49
-6.35
74
0
49
0
74
0
49
-6.35
74
0
49
0
74
0
49
-6.35
74
0
0
LTYPE
5
3C
330
5
100
AcDbSymbolTableRecord
100
AcDbLinetypeTableRecord
2
DIVIDE2
70
0
3
Divide (.5x) __..__..__..__..__..__..__..__.._
72
65
73
6
40
15.875
49
6.35
74
0
49
-3.175
74
0
49
0
74
0
49
-3.175
74
0
49
0
74
0
49
-3.175
74
0
0
LTYPE
5
3D
330
5
100
AcDbSymbolTableRecord
100
AcDbLinetypeTableRecord
2
DIVIDEX2
70
0
3
Divide (2x) ________  .  .  ________  .  .  _
72
65
73
6
40
63.5
49
25.4
74
0
49
-12.7
74
0
49
0
74
0
49
-12.7
74
0
49
0
74
0
49
-12.7
74
0
0
LTYPE
5
3E
330
5
100
AcDbSymbolTableRecord
100
AcDbLinetypeTableRecord
2
BORDER
70
0
3
Border __ __ . __ __ . __ __ . __ __ . __ __ .
72
65
73
6
40
44.45
49
12.7
74
0
49
-6.35
74
0
49
12.7
74
0
49
-6.35
74
0
49
0
74
0
49
-6.35
74
0
0
LTYPE
5
3F
330
5
100
AcDbSymbolTableRecord
100
AcDbLinetypeTableRecord
2
BORDER2
70
0
3
Border (.5x) __.__.__.__.__.__.__.__.__.__.__.
72
65
73
6
40
22.225
49
6.35
74
0
49
-3.175
74
0
49
6.35
74
0
49
-3.175
74
0
49
0
74
0
49
-3.175
74
0
0
LTYPE
5
40
330
5
100
AcDbSymbolTableRecord
100
AcDbLinetypeTableRecord
2
BORDERX2
70
0
3
Border (2x) ____  ____  .  ____  ____  .  ___
72
65
73
6
40
88.9
49
25.4
74
0
49
-12.7
74
0
49
25.4
74
0
49
-12.7
74
0
49
0
74
0
49
-12.7
74
0
0
LTYPE
5
41
330
5
100
AcDbSymbolTableRecord
100
AcDbLinetypeTableRecord
2
CENTER
70
0
3
Center ____ _ ____ _ ____ _ ____ _ ____ _ ____
72
65
73
4
40
50.8
49
31.75
74
0
49
-6.35
74
0
49
6.35
74
0
49
-6.35
74
0
0
LTYPE
5
42
330
5
100
AcDbSymbolTableRecord
100
AcDbLinetypeTableRecord
2
CENTER2
70
0
3
Center (.5x) ___ _ ___ _ ___ _ ___ _ ___ _ ___
72
65
73
4
40
28.575
49
19.05
74
0
49
-3.175
74
0
49
3.175
74
0
49
-3.175
74
0
0
LTYPE
5
43
330
5
100
AcDbSymbolTableRecord
100
AcDbLinetypeTableRecord
2
CENTERX2
70
0
3
Center (2x) ________  __  ________  __  _____
72
65
73
4
40
101.6
49
63.5
74
0
49
-12.7
74
0
49
12.7
74
0
49
-12.7
74
0
0
ENDTAB
0
TABLE
2
LAYER
5
2
330
0
100
AcDbSymbolTable
70
1
0
LAYER
5
10
330
2
100
AcDbSymbolTableRecord
100
AcDbLayerTableRecord
2
0
70
0
62
7
6
CONTINUOUS
370
0
390
F
0
LAYER
5
44
330
2
100
AcDbSymbolTableRecord
100
AcDbLayerTableRecord
2
6-32_TAP_HOLE
70
0
62
2
6
CONTINUOUS
370
0
390
F
0
LAYER
5
45
330
2
100
AcDbSymbolTableRecord
100
AcDbLayerTableRecord
2
ALIGNMENT_POCKET
70
0
62
6
6
CONTINUOUS
370
0
390
F
0
LAYER
5
46
330
2
100
AcDbSymbolTableRecord
100
AcDbLayerTableRecord
2
DIMENSION
70
0
62
7
6
CONTINUOUS
370
0
390
F
0
LAYER
5
47
330
2
100
AcDbSymbolTableRecord
100
AcDbLayerTableRecord
2
OUTER_BOUNDARY
70
0
62
5
6
CONTINUOUS
370
0
390
F
0
LAYER
5
48
330
2
100
AcDbSymbolTableRecord
100
AcDbLayerTableRecord
2
REFERENCE
70
0
62
253
420
10526884
6
CONTINUOUS
370
0
390
F
0
LAYER
5
49
330
2
100
AcDbSymbolTableRecord
100
AcDbLayerTableRecord
2
TMP
70
0
62
16
420
8388608
6
CONTINUOUS
370
0
390
F
0
ENDTAB
0
TABLE
2
STYLE
5
3
330
0
100
AcDbSymbolTable
70
3
0
STYLE
5
4A
330
2
100
AcDbSymbolTableRecord
100
AcDbTextStyleTableRecord
2
Standard
70
0
40
0
41
1
50
0
71
0
42
1
3
txt
4

0
ENDTAB
0
TABLE
2
VIEW
5
6
330
0
100
AcDbSymbolTable
70
0
0
ENDTAB
0
TABLE
2
UCS
5
7
330
0
100
AcDbSymbolTable
70
0
0
ENDTAB
0
TABLE
2
APPID
5
9
330
0
100
AcDbSymbolTable
70
1
0
APPID
5
12
330
9
100
AcDbSymbolTableRecord
100
AcDbRegAppTableRecord
2
ACAD
70
0
0
ENDTAB
0
TABLE
2
DIMSTYLE
5
A
330
0
100
AcDbSymbolTable
70
1
100
AcDbDimStyleTable
71
1
0
DIMSTYLE
105
4B
330
A
100
AcDbSymbolTableRecord
100
AcDbDimStyleTableRecord
2
Standard
70
0
40
1
41
1
42
0.025
43
0.38
44
0.05
45
0
46
0
47
0
48
0
140
1
141
0.09
142
0
143
25.4
144
1
145
0
146
1
147
0.025
148
0
71
0
72
0
73
0
74
1
75
0
76
0
77
0
78
0
79
0
170
0
171
2
172
0
173
0
174
0
175
0
176
0
177
0
178
0
179
0
271
4
272
4
273
2
274
2
275
0
276
0
277
2
278
46
279
0
280
0
281
0
282
0
283
1
284
0
285
0
286
0
288
0
289
3
340
Standard
341

371
-2
372
-2
0
ENDTAB
0
TABLE
2
BLOCK_RECORD
5
1
330
0
100
AcDbSymbolTable
70
2
0
BLOCK_RECORD
5
1F
330
1
100
AcDbSymbolTableRecord
100
AcDbBlockTableRecord
2
*Model_Space
70
0
280
1
281
0
0
BLOCK_RECORD
5
1E
330
1
100
AcDbSymbolTableRecord
100
AcDbBlockTableRecord
2
*Paper_Space
70
0
280
1
281
0
0
BLOCK_RECORD
5
4C
330
1
100
AcDbSymbolTableRecord
100
AcDbBlockTableRecord
2
*D8
70
0
280
1
281
0
0
BLOCK_RECORD
5
4F
330
1
100
AcDbSymbolTableRecord
100
AcDbBlockTableRecord
2
*D3
70
0
280
1
281
0
0
BLOCK_RECORD
5
52
330
1
100
AcDbSymbolTableRecord
100
AcDbBlockTableRecord
2
*D10
70
0
280
1
281
0
0
BLOCK_RECORD
5
55
330
1
100
AcDbSymbolTableRecord
100
AcDbBlockTableRecord
2
*D7
70
0
280
1
281
0
0
BLOCK_RECORD
5
58
330
1
100
AcDbSymbolTableRecord
100
AcDbBlockTableRecord
2
*D15
70
0
280
1
281
0
0
BLOCK_RECORD
5
5B
330
1
100
AcDbSymbolTableRecord
100
AcDbBlockTableRecord
2
*D4
70
0
280
1
281
0
0
BLOCK_RECORD
5
5E
330
1
100
AcDbSymbolTableRecord
100
AcDbBlockTableRecord
2
*D18
70
0
280
1
281
0
0
BLOCK_RECORD
5
61
330
1
100
AcDbSymbolTableRecord
100
AcDbBlockTableRecord
2
*D13
70
0
280
1
281
0
0
BLOCK_RECORD
5
64
330
1
100
AcDbSymbolTableRecord
100
AcDbBlockTableRecord
2
*D12
70
0
280
1
281
0
0
BLOCK_RECORD
5
67
330
1
100
AcDbSymbolTableRecord
100
AcDbBlockTableRecord
2
*D17
70
0
280
1
281
0
0
BLOCK_RECORD
5
6A
330
1
100
AcDbSymbolTableRecord
100
AcDbBlockTableRecord
2
*D1
70
0
280
1
281
0
0
BLOCK_RECORD
5
6D
330
1
100
AcDbSymbolTableRecord
100
AcDbBlockTableRecord
2
*D19
70
0
280
1
281
0
0
BLOCK_RECORD
5
70
330
1
100
AcDbSymbolTableRecord
100
AcDbBlockTableRecord
2
*D2
70
0
280
1
281
0
0
BLOCK_RECORD
5
73
330
1
100
AcDbSymbolTableRecord
100
AcDbBlockTableRecord
2
*D9
70
0
280
1
281
0
0
BLOCK_RECORD
5
76
330
1
100
AcDbSymbolTableRecord
100
AcDbBlockTableRecord
2
*D5
70
0
280
1
281
0
0
BLOCK_RECORD
5
79
330
1
100
AcDbSymbolTableRecord
100
AcDbBlockTableRecord
2
*D11
70
0
280
1
281
0
0
BLOCK_RECORD
5
7C
330
1
100
AcDbSymbolTableRecord
100
AcDbBlockTableRecord
2
*D6
70
0
280
1
281
0
0
BLOCK_RECORD
5
7F
330
1
100
AcDbSymbolTableRecord
100
AcDbBlockTableRecord
2
*D16
70
0
280
1
281
0
0
BLOCK_RECORD
5
82
330
1
100
AcDbSymbolTableRecord
100
AcDbBlockTableRecord
2
*D14
70
0
280
1
281
0
0
ENDTAB
0
ENDSEC
0
SECTION
2
BLOCKS
0
BLOCK
5
20
330
1F
100
AcDbEntity
8
0
100
AcDbBlockBegin
2
*Model_Space
70
0
10
0
20
0
30
0
3
*Model_Space
1

0
ENDBLK
5
21
330
1F
100
AcDbEntity
8
0
100
AcDbBlockEnd
0
BLOCK
5
1C
330
1B
100
AcDbEntity
8
0
100
AcDbBlockBegin
2
*Paper_Space
70
0
10
0
20
0
30
0
3
*Paper_Space
1

0
ENDBLK
5
1D
330
1F
100
AcDbEntity
8
0
100
AcDbBlockEnd
0
BLOCK
5
4D
330
4C
100
AcDbEntity
8
0
100
AcDbBlockBegin
2
*D8
70
1
10
0
20
0
3
*D8
1

0
LINE
5
85
100
AcDbEntity
8
DIMENSION
6
CONTINUOUS
62
7
370
0
100
AcDbLine
10
7.99114173228
20
9.29921259843
11
9.24114173228
21
9.29921259843
0
SOLID
5
86
100
AcDbEntity
8
DIMENSION
6
CONTINUOUS
62
7
370
0
100
AcDbTrace
10
7.99114173228
20
9.29921259843
30
0
11
8.49114173228
21
9.38246952998
31
0
12
8.49114173228
22
9.21595566687
32
0
13
8.49114173228
23
9.21595566687
33
0
0
SOLID
5
87
100
AcDbEntity
8
DIMENSION
6
CONTINUOUS
62
7
370
0
100
AcDbTrace
10
9.24114173228
20
9.29921259843
30
0
11
8.74114173228
21
9.21595566687
31
0
12
8.74114173228
22
9.38246952998
32
0
13
8.74114173228
23
9.38246952998
33
0
0
MTEXT
5
88
100
AcDbEntity
8
DIMENSION
6
CONTINUOUS
62
7
370
0
100
AcDbMText
10
8.61614173228
20
9.56171259843
30
0
40
0.5
41
1.05555555556
71
5
72
1
1
1.25
7
standard
210
0
220
0
230
1
50
0
73
2
44
1
0
LINE
5
89
100
AcDbEntity
8
DIMENSION
6
CONTINUOUS
62
7
370
0
100
AcDbLine
10
7.99114173228
20
10.0662401575
11
7.99114173228
21
9.27421259843
0
LINE
5
8A
100
AcDbEntity
8
DIMENSION
6
CONTINUOUS
62
7
370
0
100
AcDbLine
10
9.24114173228
20
10.0662401575
11
9.24114173228
21
9.27421259843
0
ENDBLK
5
4E
330
4C
100
AcDbEntity
8
0
100
AcDbBlockEnd
0
BLOCK
5
50
330
4F
100
AcDbEntity
8
0
100
AcDbBlockBegin
2
*D3
70
1
10
0
20
0
3
*D3
1

0
LINE
5
8B
100
AcDbEntity
8
DIMENSION
6
CONTINUOUS
62
7
370
0
100
AcDbLine
10
2.33661417323
20
8.97745447835
11
0.25
21
8.97745447835
0
SOLID
5
8C
100
AcDbEntity
8
DIMENSION
6
CONTINUOUS
62
7
370
0
100
AcDbTrace
10
2.33661417323
20
8.97745447835
30
0
11
1.83661417323
21
8.89419754679
31
0
12
1.83661417323
22
9.0607114099
32
0
13
1.83661417323
23
9.0607114099
33
0
0
SOLID
5
8D
100
AcDbEntity
8
DIMENSION
6
CONTINUOUS
62
7
370
0
100
AcDbTrace
10
0.25
20
8.97745447835
30
0
11
0.75
21
9.0607114099
31
0
12
0.75
22
8.89419754679
32
0
13
0.75
23
8.89419754679
33
0
0
MTEXT
5
8E
100
AcDbEntity
8
DIMENSION
6
CONTINUOUS
62
7
370
0
100
AcDbMText
10
1.29330708661
20
9.23995447835
30
0
40
0.5
41
1.94444444444
71
5
72
1
1
2.0866
7
standard
210
0
220
0
230
1
50
360
73
2
44
1
0
LINE
5
8F
100
AcDbEntity
8
DIMENSION
6
CONTINUOUS
62
7
370
0
100
AcDbLine
10
2.33661417323
20
6.72017716535
11
2.33661417323
21
9.00245447835
0
LINE
5
90
100
AcDbEntity
8
DIMENSION
6
CONTINUOUS
62
7
370
0
100
AcDbLine
10
0.25
20
12.1153543307
11
0.25
21
9.00245447835
0
ENDBLK
5
51
330
4F
100
AcDbEntity
8
0
100
AcDbBlockEnd
0
BLOCK
5
53
330
52
100
AcDbEntity
8
0
100
AcDbBlockBegin
2
*D10
70
1
10
0
20
0
3
*D10
1

0
LINE
5
91
100
AcDbEntity
8
DIMENSION
6
CONTINUOUS
62
7
370
0
100
AcDbLine
10
6.81992033713
20
10.5748031496
11
6.81992033713
21
13.1653543307
0
SOLID
5
92
100
AcDbEntity
8
DIMENSION
6
CONTINUOUS
62
7
370
0
100
AcDbTrace
10
6.81992033713
20
11.5748031496
30
0
11
6.90317726868
21
11.0748031496
31
0
12
6.73666340557
22
11.0748031496
32
0
13
6.73666340557
23
11.0748031496
33
0
0
SOLID
5
93
100
AcDbEntity
8
DIMENSION
6
CONTINUOUS
62
7
370
0
100
AcDbTrace
10
6.81992033713
20
12.1653543307
30
0
11
6.73666340557
21
12.6653543307
31
0
12
6.90317726868
22
12.6653543307
32
0
13
6.90317726868
23
12.6653543307
33
0
0
MTEXT
5
94
100
AcDbEntity
8
DIMENSION
6
CONTINUOUS
62
7
370
0
100
AcDbMText
10
6.55742033713
20
13.1500765529
30
0
40
0.5
41
1.94444444444
71
5
72
1
1
0.5906
7
standard
210
0
220
0
230
1
50
90
73
2
44
1
0
LINE
5
95
100
AcDbEntity
8
DIMENSION
6
CONTINUOUS
62
7
370
0
100
AcDbLine
10
7.61938976378
20
11.5748031496
11
6.79492033713
21
11.5748031496
0
LINE
5
96
100
AcDbEntity
8
DIMENSION
6
CONTINUOUS
62
7
370
0
100
AcDbLine
10
0.309842519685
20
12.1653543307
11
6.79492033713
21
12.1653543307
0
ENDBLK
5
54
330
52
100
AcDbEntity
8
0
100
AcDbBlockEnd
0
BLOCK
5
56
330
55
100
AcDbEntity
8
0
100
AcDbBlockBegin
2
*D7
70
1
10
0
20
0
3
*D7
1

0
LINE
5
97
100
AcDbEntity
8
DIMENSION
6
CONTINUOUS
62
7
370
0
100
AcDbLine
10
5.32086614173
20
10.0787401575
11
5.32086614173
21
12.1653543307
0
SOLID
5
98
100
AcDbEntity
8
DIMENSION
6
CONTINUOUS
62
7
370
0
100
AcDbTrace
10
5.32086614173
20
10.0787401575
30
0
11
5.23760921018
21
10.5787401575
31
0
12
5.40412307329
22
10.5787401575
32
0
13
5.40412307329
23
10.5787401575
33
0
0
SOLID
5
99
100
AcDbEntity
8
DIMENSION
6
CONTINUOUS
62
7
370
0
100
AcDbTrace
10
5.32086614173
20
12.1653543307
30
0
11
5.40412307329
21
11.6653543307
31
0
12
5.23760921018
22
11.6653543307
32
0
13
5.23760921018
23
11.6653543307
33
0
0
MTEXT
5
9A
100
AcDbEntity
8
DIMENSION
6
CONTINUOUS
62
7
370
0
100
AcDbMText
10
5.05836614173
20
11.1220472441
30
0
40
0.5
41
1.94444444444
71
5
72
1
1
2.0866
7
standard
210
0
220
0
230
1
50
90
73
2
44
1
0
LINE
5
9B
100
AcDbEntity
8
DIMENSION
6
CONTINUOUS
62
7
370
0
100
AcDbLine
10
7.97864173228
20
10.0787401575
11
5.29586614173
21
10.0787401575
0
LINE
5
9C
100
AcDbEntity
8
DIMENSION
6
CONTINUOUS
62
7
370
0
100
AcDbLine
10
0.3
20
12.1653543307
11
5.29586614173
21
12.1653543307
0
ENDBLK
5
57
330
55
100
AcDbEntity
8
0
100
AcDbBlockEnd
0
BLOCK
5
59
330
58
100
AcDbEntity
8
0
100
AcDbBlockBegin
2
*D15
70
1
10
0
20
0
3
*D15
1

0
LINE
5
9D
100
AcDbEntity
8
DIMENSION
6
CONTINUOUS
62
7
370
0
100
AcDbLine
10
24.7234251969
20
9.19291338583
11
25.9734251969
21
9.19291338583
0
SOLID
5
9E
100
AcDbEntity
8
DIMENSION
6
CONTINUOUS
62
7
370
0
100
AcDbTrace
10
24.7234251969
20
9.19291338583
30
0
11
25.2234251969
21
9.27617031738
31
0
12
25.2234251969
22
9.10965645427
32
0
13
25.2234251969
23
9.10965645427
33
0
0
SOLID
5
9F
100
AcDbEntity
8
DIMENSION
6
CONTINUOUS
62
7
370
0
100
AcDbTrace
10
25.9734251969
20
9.19291338583
30
0
11
25.4734251969
21
9.10965645427
31
0
12
25.4734251969
22
9.27617031738
32
0
13
25.4734251969
23
9.27617031738
33
0
0
MTEXT
5
A0
100
AcDbEntity
8
DIMENSION
6
CONTINUOUS
62
7
370
0
100
AcDbMText
10
25.3484251969
20
9.45541338583
30
0
40
0.5
41
1.05555555556
71
5
72
1
1
1.25
7
standard
210
0
220
0
230
1
50
0
73
2
44
1
0
LINE
5
A1
100
AcDbEntity
8
DIMENSION
6
CONTINUOUS
62
7
370
0
100
AcDbLine
10
24.7234251969
20
10.0662401575
11
24.7234251969
21
9.16791338583
0
LINE
5
A2
100
AcDbEntity
8
DIMENSION
6
CONTINUOUS
62
7
370
0
100
AcDbLine
10
25.9734251969
20
10.0662401575
11
25.9734251969
21
9.16791338583
0
ENDBLK
5
5A
330
58
100
AcDbEntity
8
0
100
AcDbBlockEnd
0
BLOCK
5
5C
330
5B
100
AcDbEntity
8
0
100
AcDbBlockBegin
2
*D4
70
1
10
0
20
0
3
*D4
1

0
LINE
5
A3
100
AcDbEntity
8
DIMENSION
6
CONTINUOUS
62
7
370
0
100
AcDbLine
10
1.6437007874
20
7.06692913386
11
1.6437007874
21
5.09842519685
0
SOLID
5
A4
100
AcDbEntity
8
DIMENSION
6
CONTINUOUS
62
7
370
0
100
AcDbTrace
10
1.6437007874
20
7.06692913386
30
0
11
1.72695771896
21
6.56692913386
31
0
12
1.56044385585
22
6.56692913386
32
0
13
1.56044385585
23
6.56692913386
33
0
0
SOLID
5
A5
100
AcDbEntity
8
DIMENSION
6
CONTINUOUS
62
7
370
0
100
AcDbTrace
10
1.6437007874
20
5.09842519685
30
0
11
1.56044385585
21
5.59842519685
31
0
12
1.72695771896
22
5.59842519685
32
0
13
1.72695771896
23
5.59842519685
33
0
0
MTEXT
5
A6
100
AcDbEntity
8
DIMENSION
6
CONTINUOUS
62
7
370
0
100
AcDbMText
10
1.3812007874
20
6.08267716535
30
0
40
0.5
41
1.83333333333
71
5
72
1
1
1.9685
7
standard
210
0
220
0
230
1
50
90
73
2
44
1
0
LINE
5
A7
100
AcDbEntity
8
DIMENSION
6
CONTINUOUS
62
7
370
0
100
AcDbLine
10
0.971161417323
20
7.06692913386
11
1.6687007874
21
7.06692913386
0
LINE
5
A8
100
AcDbEntity
8
DIMENSION
6
CONTINUOUS
62
7
370
0
100
AcDbLine
10
0.971161417323
20
5.09842519685
11
1.6687007874
21
5.09842519685
0
ENDBLK
5
5D
330
5B
100
AcDbEntity
8
0
100
AcDbBlockEnd
0
BLOCK
5
5F
330
5E
100
AcDbEntity
8
0
100
AcDbBlockBegin
2
*D18
70
1
10
0
20
0
3
*D18
1

0
LINE
5
A9
100
AcDbEntity
8
DIMENSION
6
CONTINUOUS
62
7
370
0
100
AcDbLine
10
32.2185069291
20
3.76448079487
11
33.7145669291
21
3.76448079487
0
SOLID
5
AA
100
AcDbEntity
8
DIMENSION
6
CONTINUOUS
62
7
370
0
100
AcDbTrace
10
32.2185069291
20
3.76448079487
30
0
11
32.7185069291
21
3.84773772642
31
0
12
32.7185069291
22
3.68122386332
32
0
13
32.7185069291
23
3.68122386332
33
0
0
SOLID
5
AB
100
AcDbEntity
8
DIMENSION
6
CONTINUOUS
62
7
370
0
100
AcDbTrace
10
33.7145669291
20
3.76448079487
30
0
11
33.2145669291
21
3.68122386332
31
0
12
33.2145669291
22
3.84773772642
32
0
13
33.2145669291
23
3.84773772642
33
0
0
MTEXT
5
AC
100
AcDbEntity
8
DIMENSION
6
CONTINUOUS
62
7
370
0
100
AcDbMText
10
34.615955818
20
4.02698079487
30
0
40
0.5
41
1.77777777778
71
5
72
1
1
1.4961
7
standard
210
0
220
0
230
1
50
0
73
2
44
1
0
LINE
5
AD
100
AcDbEntity
8
DIMENSION
6
CONTINUOUS
62
7
370
0
100
AcDbLine
10
32.2185069291
20
5.44517716535
11
32.2185069291
21
3.73948079487
0
LINE
5
AE
100
AcDbEntity
8
DIMENSION
6
CONTINUOUS
62
7
370
0
100
AcDbLine
10
33.7145669291
20
0.05
11
33.7145669291
21
3.73948079487
0
ENDBLK
5
60
330
5E
100
AcDbEntity
8
0
100
AcDbBlockEnd
0
BLOCK
5
62
330
61
100
AcDbEntity
8
0
100
AcDbBlockBegin
2
*D13
70
1
10
0
20
0
3
*D13
1

0
LINE
5
AF
100
AcDbEntity
8
DIMENSION
6
CONTINUOUS
62
7
370
0
100
AcDbLine
10
25.3484251969
20
12.9921259843
11
33.7145669291
21
12.9921259843
0
SOLID
5
B0
100
AcDbEntity
8
DIMENSION
6
CONTINUOUS
62
7
370
0
100
AcDbTrace
10
25.3484251969
20
12.9921259843
30
0
11
25.8484251969
21
13.0753829158
31
0
12
25.8484251969
22
12.9088690527
32
0
13
25.8484251969
23
12.9088690527
33
0
0
SOLID
5
B1
100
AcDbEntity
8
DIMENSION
6
CONTINUOUS
62
7
370
0
100
AcDbTrace
10
33.7145669291
20
12.9921259843
30
0
11
33.2145669291
21
12.9088690527
31
0
12
33.2145669291
22
13.0753829158
32
0
13
33.2145669291
23
13.0753829158
33
0
0
MTEXT
5
B2
100
AcDbEntity
8
DIMENSION
6
CONTINUOUS
62
7
370
0
100
AcDbMText
10
29.531496063
20
13.2546259843
30
0
40
0.5
41
1.83333333333
71
5
72
1
1
8.3661
7
standard
210
0
220
0
230
1
50
0
73
2
44
1
0
LINE
5
B3
100
AcDbEntity
8
DIMENSION
6
CONTINUOUS
62
7
370
0
100
AcDbLine
10
25.3484251969
20
11.7054133858
11
25.3484251969
21
13.0171259843
0
LINE
5
B4
100
AcDbEntity
8
DIMENSION
6
CONTINUOUS
62
7
370
0
100
AcDbLine
10
33.7145669291
20
12.1153543307
11
33.7145669291
21
13.0171259843
0
ENDBLK
5
63
330
61
100
AcDbEntity
8
0
100
AcDbBlockEnd
0
BLOCK
5
65
330
64
100
AcDbEntity
8
0
100
AcDbBlockBegin
2
*D12
70
1
10
0
20
0
3
*D12
1

0
LINE
5
B5
100
AcDbEntity
8
DIMENSION
6
CONTINUOUS
62
7
370
0
100
AcDbLine
10
0.25
20
13.6441929134
11
8.61614173228
21
13.6441929134
0
SOLID
5
B6
100
AcDbEntity
8
DIMENSION
6
CONTINUOUS
62
7
370
0
100
AcDbTrace
10
0.25
20
13.6441929134
30
0
11
0.75
21
13.7274498449
31
0
12
0.75
22
13.5609359818
32
0
13
0.75
23
13.5609359818
33
0
0
SOLID
5
B7
100
AcDbEntity
8
DIMENSION
6
CONTINUOUS
62
7
370
0
100
AcDbTrace
10
8.61614173228
20
13.6441929134
30
0
11
8.11614173228
21
13.5609359818
31
0
12
8.11614173228
22
13.7274498449
32
0
13
8.11614173228
23
13.7274498449
33
0
0
MTEXT
5
B8
100
AcDbEntity
8
DIMENSION
6
CONTINUOUS
62
7
370
0
100
AcDbMText
10
4.43307086614
20
13.9066929134
30
0
40
0.5
41
1.83333333333
71
5
72
1
1
8.3661
7
standard
210
0
220
0
230
1
50
0
73
2
44
1
0
LINE
5
B9
100
AcDbEntity
8
DIMENSION
6
CONTINUOUS
62
7
370
0
100
AcDbLine
10
0.25
20
12.1153543307
11
0.25
21
13.6691929134
0
LINE
5
BA
100
AcDbEntity
8
DIMENSION
6
CONTINUOUS
62
7
370
0
100
AcDbLine
10
8.61614173228
20
11.7054133858
11
8.61614173228
21
13.6691929134
0
ENDBLK
5
66
330
64
100
AcDbEntity
8
0
100
AcDbBlockEnd
0
BLOCK
5
68
330
67
100
AcDbEntity
8
0
100
AcDbBlockBegin
2
*D17
70
1
10
0
20
0
3
*D17
1

0
LINE
5
BB
100
AcDbEntity
8
DIMENSION
6
CONTINUOUS
62
7
370
0
100
AcDbLine
10
0.25
20
-2.97966904528
11
33.7145669291
21
-2.97966904528
0
SOLID
5
BC
100
AcDbEntity
8
DIMENSION
6
CONTINUOUS
62
7
370
0
100
AcDbTrace
10
0.25
20
-2.97966904528
30
0
11
0.75
21
-2.89641211372
31
0
12
0.75
22
-3.06292597683
32
0
13
0.75
23
-3.06292597683
33
0
0
SOLID
5
BD
100
AcDbEntity
8
DIMENSION
6
CONTINUOUS
62
7
370
0
100
AcDbTrace
10
33.7145669291
20
-2.97966904528
30
0
11
33.2145669291
21
-3.06292597683
31
0
12
33.2145669291
22
-2.89641211372
32
0
13
33.2145669291
23
-2.89641211372
33
0
0
MTEXT
5
BE
100
AcDbEntity
8
DIMENSION
6
CONTINUOUS
62
7
370
0
100
AcDbMText
10
16.9822834646
20
-2.71716904528
30
0
40
0.5
41
2.44444444444
71
5
72
1
1
33.4646
7
standard
210
0
220
0
230
1
50
0
73
2
44
1
0
LINE
5
BF
100
AcDbEntity
8
DIMENSION
6
CONTINUOUS
62
7
370
0
100
AcDbLine
10
0.25
20
0.05
11
0.25
21
-3.00466904528
0
LINE
5
C0
100
AcDbEntity
8
DIMENSION
6
CONTINUOUS
62
7
370
0
100
AcDbLine
10
33.7145669291
20
0.05
11
33.7145669291
21
-3.00466904528
0
ENDBLK
5
69
330
67
100
AcDbEntity
8
0
100
AcDbBlockEnd
0
BLOCK
5
6B
330
6A
100
AcDbEntity
8
0
100
AcDbBlockBegin
2
*D1
70
1
10
0
20
0
3
*D1
1

0
LINE
5
C1
100
AcDbEntity
8
DIMENSION
6
CONTINUOUS
62
7
370
0
100
AcDbLine
10
-0.277559055118
20
4.3905511811
11
1.95866141732
21
4.3905511811
0
SOLID
5
C2
100
AcDbEntity
8
DIMENSION
6
CONTINUOUS
62
7
370
0
100
AcDbTrace
10
0.722440944882
20
4.3905511811
30
0
11
0.222440944882
21
4.30729424955
31
0
12
0.222440944882
22
4.47380811266
32
0
13
0.222440944882
23
4.47380811266
33
0
0
SOLID
5
C3
100
AcDbEntity
8
DIMENSION
6
CONTINUOUS
62
7
370
0
100
AcDbTrace
10
0.958661417323
20
4.3905511811
30
0
11
1.45866141732
21
4.47380811266
31
0
12
1.45866141732
22
4.30729424955
32
0
13
1.45866141732
23
4.30729424955
33
0
0
MTEXT
5
C4
100
AcDbEntity
8
DIMENSION
6
CONTINUOUS
62
7
370
0
100
AcDbMText
10
1.94338363955
20
4.6530511811
30
0
40
0.5
41
1.94444444444
71
5
72
1
1
0.2362
7
standard
210
0
220
0
230
1
50
0
73
2
44
1
0
LINE
5
C5
100
AcDbEntity
8
DIMENSION
6
CONTINUOUS
62
7
370
0
100
AcDbLine
10
0.722440944882
20
5.08592519685
11
0.722440944882
21
4.3655511811
0
LINE
5
C6
100
AcDbEntity
8
DIMENSION
6
CONTINUOUS
62
7
370
0
100
AcDbLine
10
0.958661417323
20
5.08592519685
11
0.958661417323
21
4.3655511811
0
ENDBLK
5
6C
330
6A
100
AcDbEntity
8
0
100
AcDbBlockEnd
0
BLOCK
5
6E
330
6D
100
AcDbEntity
8
0
100
AcDbBlockBegin
2
*D19
70
1
10
0
20
0
3
*D19
1

0
LINE
5
C7
100
AcDbEntity
8
DIMENSION
6
CONTINUOUS
62
7
370
0
100
AcDbLine
10
30.2508336987
20
6.70767716535
11
30.2508336987
21
5.45767716535
0
SOLID
5
C8
100
AcDbEntity
8
DIMENSION
6
CONTINUOUS
62
7
370
0
100
AcDbTrace
10
30.2508336987
20
6.70767716535
30
0
11
30.3340906302
21
6.20767716535
31
0
12
30.1675767671
22
6.20767716535
32
0
13
30.1675767671
23
6.20767716535
33
0
0
SOLID
5
C9
100
AcDbEntity
8
DIMENSION
6
CONTINUOUS
62
7
370
0
100
AcDbTrace
10
30.2508336987
20
5.45767716535
30
0
11
30.1675767671
21
5.95767716535
31
0
12
30.3340906302
22
5.95767716535
32
0
13
30.3340906302
23
5.95767716535
33
0
0
MTEXT
5
CA
100
AcDbEntity
8
DIMENSION
6
CONTINUOUS
62
7
370
0
100
AcDbMText
10
29.9883336987
20
6.08267716535
30
0
40
0.5
41
1.05555555556
71
5
72
1
1
1.25
7
standard
210
0
220
0
230
1
50
90
73
2
44
1
0
LINE
5
CB
100
AcDbEntity
8
DIMENSION
6
CONTINUOUS
62
7
370
0
100
AcDbLine
10
32.2060069291
20
6.70767716535
11
30.2258336987
21
6.70767716535
0
LINE
5
CC
100
AcDbEntity
8
DIMENSION
6
CONTINUOUS
62
7
370
0
100
AcDbLine
10
32.2060069291
20
5.45767716535
11
30.2258336987
21
5.45767716535
0
ENDBLK
5
6F
330
6D
100
AcDbEntity
8
0
100
AcDbBlockEnd
0
BLOCK
5
71
330
70
100
AcDbEntity
8
0
100
AcDbBlockBegin
2
*D2
70
1
10
0
20
0
3
*D2
1

0
LINE
5
CD
100
AcDbEntity
8
DIMENSION
6
CONTINUOUS
62
7
370
0
100
AcDbLine
10
1.8405511811
20
7.80961644933
11
-0.75
21
7.80961644933
0
SOLID
5
CE
100
AcDbEntity
8
DIMENSION
6
CONTINUOUS
62
7
370
0
100
AcDbTrace
10
0.840551181102
20
7.80961644933
30
0
11
1.3405511811
21
7.89287338089
31
0
12
1.3405511811
22
7.72635951778
32
0
13
1.3405511811
23
7.72635951778
33
0
0
SOLID
5
CF
100
AcDbEntity
8
DIMENSION
6
CONTINUOUS
62
7
370
0
100
AcDbTrace
10
0.25
20
7.80961644933
30
0
11
-0.25
21
7.72635951778
31
0
12
-0.25
22
7.89287338089
32
0
13
-0.25
23
7.89287338089
33
0
0
MTEXT
5
D0
100
AcDbEntity
8
DIMENSION
6
CONTINUOUS
62
7
370
0
100
AcDbMText
10
1.82527340332
20
8.07211644933
30
0
40
0.5
41
1.94444444444
71
5
72
1
1
0.5906
7
standard
210
0
220
0
230
1
50
360
73
2
44
1
0
LINE
5
D1
100
AcDbEntity
8
DIMENSION
6
CONTINUOUS
62
7
370
0
100
AcDbLine
10
0.840551181102
20
7.07942913386
11
0.840551181102
21
7.83461644933
0
LINE
5
D2
100
AcDbEntity
8
DIMENSION
6
CONTINUOUS
62
7
370
0
100
AcDbLine
10
0.25
20
12.1153543307
11
0.25
21
7.83461644933
0
ENDBLK
5
72
330
70
100
AcDbEntity
8
0
100
AcDbBlockEnd
0
BLOCK
5
74
330
73
100
AcDbEntity
8
0
100
AcDbBlockBegin
2
*D9
70
1
10
0
20
0
3
*D9
1

0
LINE
5
D3
100
AcDbEntity
8
DIMENSION
6
CONTINUOUS
62
7
370
0
100
AcDbLine
10
10.5968503937
20
12.6929133858
11
10.5968503937
21
10.4566929134
0
SOLID
5
D4
100
AcDbEntity
8
DIMENSION
6
CONTINUOUS
62
7
370
0
100
AcDbTrace
10
10.5968503937
20
11.6929133858
30
0
11
10.5135934621
21
12.1929133858
31
0
12
10.6801073253
22
12.1929133858
32
0
13
10.6801073253
23
12.1929133858
33
0
0
SOLID
5
D5
100
AcDbEntity
8
DIMENSION
6
CONTINUOUS
62
7
370
0
100
AcDbTrace
10
10.5968503937
20
11.4566929134
30
0
11
10.6801073253
21
10.9566929134
31
0
12
10.5135934621
22
10.9566929134
32
0
13
10.5135934621
23
10.9566929134
33
0
0
MTEXT
5
D6
100
AcDbEntity
8
DIMENSION
6
CONTINUOUS
62
7
370
0
100
AcDbMText
10
10.3343503937
20
12.677635608
30
0
40
0.5
41
1.94444444444
71
5
72
1
1
0.2362
7
standard
210
0
220
0
230
1
50
90
73
2
44
1
0
LINE
5
D7
100
AcDbEntity
8
DIMENSION
6
CONTINUOUS
62
7
370
0
100
AcDbLine
10
9.61289370079
20
11.6929133858
11
10.6218503937
21
11.6929133858
0
LINE
5
D8
100
AcDbEntity
8
DIMENSION
6
CONTINUOUS
62
7
370
0
100
AcDbLine
10
9.61289370079
20
11.4566929134
11
10.6218503937
21
11.4566929134
0
ENDBLK
5
75
330
73
100
AcDbEntity
8
0
100
AcDbBlockEnd
0
BLOCK
5
77
330
76
100
AcDbEntity
8
0
100
AcDbBlockBegin
2
*D5
70
1
10
0
20
0
3
*D5
1

0
LINE
5
D9
100
AcDbEntity
8
DIMENSION
6
CONTINUOUS
62
7
370
0
100
AcDbLine
10
3.52559055118
20
6.70767716535
11
3.52559055118
21
5.45767716535
0
SOLID
5
DA
100
AcDbEntity
8
DIMENSION
6
CONTINUOUS
62
7
370
0
100
AcDbTrace
10
3.52559055118
20
6.70767716535
30
0
11
3.60884748274
21
6.20767716535
31
0
12
3.44233361963
22
6.20767716535
32
0
13
3.44233361963
23
6.20767716535
33
0
0
SOLID
5
DB
100
AcDbEntity
8
DIMENSION
6
CONTINUOUS
62
7
370
0
100
AcDbTrace
10
3.52559055118
20
5.45767716535
30
0
11
3.44233361963
21
5.95767716535
31
0
12
3.60884748274
22
5.95767716535
32
0
13
3.60884748274
23
5.95767716535
33
0
0
MTEXT
5
DC
100
AcDbEntity
8
DIMENSION
6
CONTINUOUS
62
7
370
0
100
AcDbMText
10
3.26309055118
20
6.08267716535
30
0
40
0.5
41
1.05555555556
71
5
72
1
1
1.25
7
standard
210
0
220
0
230
1
50
90
73
2
44
1
0
LINE
5
DD
100
AcDbEntity
8
DIMENSION
6
CONTINUOUS
62
7
370
0
100
AcDbLine
10
2.34911417323
20
6.70767716535
11
3.55059055118
21
6.70767716535
0
LINE
5
DE
100
AcDbEntity
8
DIMENSION
6
CONTINUOUS
62
7
370
0
100
AcDbLine
10
2.34911417323
20
5.45767716535
11
3.55059055118
21
5.45767716535
0
ENDBLK
5
78
330
76
100
AcDbEntity
8
0
100
AcDbBlockEnd
0
BLOCK
5
7A
330
79
100
AcDbEntity
8
0
100
AcDbBlockBegin
2
*D11
70
1
10
0
20
0
3
*D11
1

0
LINE
5
DF
100
AcDbEntity
8
DIMENSION
6
CONTINUOUS
62
7
370
0
100
AcDbLine
10
7.63188976378
20
10.7086614173
11
9.60039370079
21
10.7086614173
0
SOLID
5
E0
100
AcDbEntity
8
DIMENSION
6
CONTINUOUS
62
7
370
0
100
AcDbTrace
10
7.63188976378
20
10.7086614173
30
0
11
8.13188976378
21
10.7919183489
31
0
12
8.13188976378
22
10.6254044858
32
0
13
8.13188976378
23
10.6254044858
33
0
0
SOLID
5
E1
100
AcDbEntity
8
DIMENSION
6
CONTINUOUS
62
7
370
0
100
AcDbTrace
10
9.60039370079
20
10.7086614173
30
0
11
9.10039370079
21
10.6254044858
31
0
12
9.10039370079
22
10.7919183489
32
0
13
9.10039370079
23
10.7919183489
33
0
0
MTEXT
5
E2
100
AcDbEntity
8
DIMENSION
6
CONTINUOUS
62
7
370
0
100
AcDbMText
10
8.61614173228
20
10.9711614173
30
0
40
0.5
41
1.83333333333
71
5
72
1
1
1.9685
7
standard
210
0
220
0
230
1
50
0
73
2
44
1
0
LINE
5
E3
100
AcDbEntity
8
DIMENSION
6
CONTINUOUS
62
7
370
0
100
AcDbLine
10
7.63188976378
20
11.4441929134
11
7.63188976378
21
10.6836614173
0
LINE
5
E4
100
AcDbEntity
8
DIMENSION
6
CONTINUOUS
62
7
370
0
100
AcDbLine
10
9.60039370079
20
11.4441929134
11
9.60039370079
21
10.6836614173
0
ENDBLK
5
7B
330
79
100
AcDbEntity
8
0
100
AcDbBlockEnd
0
BLOCK
5
7D
330
7C
100
AcDbEntity
8
0
100
AcDbBlockBegin
2
*D6
70
1
10
0
20
0
3
*D6
1

0
LINE
5
E5
100
AcDbEntity
8
DIMENSION
6
CONTINUOUS
62
7
370
0
100
AcDbLine
10
-1.21580493356
20
8.881784197e-16
11
-1.21580493356
21
6.08267716535
0
SOLID
5
E6
100
AcDbEntity
8
DIMENSION
6
CONTINUOUS
62
7
370
0
100
AcDbTrace
10
-1.21580493356
20
8.881784197e-16
30
0
11
-1.29906186512
21
0.5
31
0
12
-1.13254800201
22
0.5
32
0
13
-1.13254800201
23
0.5
33
0
0
SOLID
5
E7
100
AcDbEntity
8
DIMENSION
6
CONTINUOUS
62
7
370
0
100
AcDbTrace
10
-1.21580493356
20
6.08267716535
30
0
11
-1.13254800201
21
5.58267716535
31
0
12
-1.29906186512
22
5.58267716535
32
0
13
-1.29906186512
23
5.58267716535
33
0
0
MTEXT
5
E8
100
AcDbEntity
8
DIMENSION
6
CONTINUOUS
62
7
370
0
100
AcDbMText
10
-1.47830493356
20
3.04133858268
30
0
40
0.5
41
1.94444444444
71
5
72
1
1
6.0827
7
standard
210
0
220
0
230
1
50
90
73
2
44
1
0
LINE
5
E9
100
AcDbEntity
8
DIMENSION
6
CONTINUOUS
62
7
370
0
100
AcDbLine
10
0.3
20
7.0818730654e-18
11
-1.24080493356
21
9.02342165831e-16
0
LINE
5
EA
100
AcDbEntity
8
DIMENSION
6
CONTINUOUS
62
7
370
0
100
AcDbLine
10
0.709940944882
20
6.08267716535
11
-1.24080493356
21
6.08267716535
0
ENDBLK
5
7E
330
7C
100
AcDbEntity
8
0
100
AcDbBlockEnd
0
BLOCK
5
80
330
7F
100
AcDbEntity
8
0
100
AcDbBlockBegin
2
*D16
70
1
10
0
20
0
3
*D16
1

0
LINE
5
EB
100
AcDbEntity
8
DIMENSION
6
CONTINUOUS
62
7
370
0
100
AcDbLine
10
35.9564675158
20
1.7763568394e-15
11
35.9564675158
21
12.1653543307
0
SOLID
5
EC
100
AcDbEntity
8
DIMENSION
6
CONTINUOUS
62
7
370
0
100
AcDbTrace
10
35.9564675158
20
1.7763568394e-15
30
0
11
35.8732105843
21
0.5
31
0
12
36.0397244474
22
0.5
32
0
13
36.0397244474
23
0.5
33
0
0
SOLID
5
ED
100
AcDbEntity
8
DIMENSION
6
CONTINUOUS
62
7
370
0
100
AcDbTrace
10
35.9564675158
20
12.1653543307
30
0
11
36.0397244474
21
11.6653543307
31
0
12
35.8732105843
22
11.6653543307
32
0
13
35.8732105843
23
11.6653543307
33
0
0
MTEXT
5
EE
100
AcDbEntity
8
DIMENSION
6
CONTINUOUS
62
7
370
0
100
AcDbMText
10
35.6939675158
20
6.08267716535
30
0
40
0.5
41
2.16666666667
71
5
72
1
1
12.1654
7
standard
210
0
220
0
230
1
50
90
73
2
44
1
0
LINE
5
EF
100
AcDbEntity
8
DIMENSION
6
CONTINUOUS
62
7
370
0
100
AcDbLine
10
33.6645669291
20
9.63584680796e-18
11
35.9814675158
21
1.79562853302e-15
0
LINE
5
F0
100
AcDbEntity
8
DIMENSION
6
CONTINUOUS
62
7
370
0
100
AcDbLine
10
33.6645669291
20
12.1653543307
11
35.9814675158
21
12.1653543307
0
ENDBLK
5
81
330
7F
100
AcDbEntity
8
0
100
AcDbBlockEnd
0
BLOCK
5
83
330
82
100
AcDbEntity
8
0
100
AcDbBlockBegin
2
*D14
70
1
10
0
20
0
3
*D14
1

0
LINE
5
F1
100
AcDbEntity
8
DIMENSION
6
CONTINUOUS
62
7
370
0
100
AcDbLine
10
24.3641732283
20
10.688976378
11
26.3326771654
21
10.688976378
0
SOLID
5
F2
100
AcDbEntity
8
DIMENSION
6
CONTINUOUS
62
7
370
0
100
AcDbTrace
10
24.3641732283
20
10.688976378
30
0
11
24.8641732283
21
10.7722333095
31
0
12
24.8641732283
22
10.6057194464
32
0
13
24.8641732283
23
10.6057194464
33
0
0
SOLID
5
F3
100
AcDbEntity
8
DIMENSION
6
CONTINUOUS
62
7
370
0
100
AcDbTrace
10
26.3326771654
20
10.688976378
30
0
11
25.8326771654
21
10.6057194464
31
0
12
25.8326771654
22
10.7722333095
32
0
13
25.8326771654
23
10.7722333095
33
0
0
MTEXT
5
F4
100
AcDbEntity
8
DIMENSION
6
CONTINUOUS
62
7
370
0
100
AcDbMText
10
25.3484251969
20
10.951476378
30
0
40
0.5
41
1.83333333333
71
5
72
1
1
1.9685
7
standard
210
0
220
0
230
1
50
0
73
2
44
1
0
LINE
5
F5
100
AcDbEntity
8
DIMENSION
6
CONTINUOUS
62
7
370
0
100
AcDbLine
10
24.3641732283
20
11.4441929134
11
24.3641732283
21
10.663976378
0
LINE
5
F6
100
AcDbEntity
8
DIMENSION
6
CONTINUOUS
62
7
370
0
100
AcDbLine
10
26.3326771654
20
11.4441929134
11
26.3326771654
21
10.663976378
0
ENDBLK
5
84
330
82
100
AcDbEntity
8
0
100
AcDbBlockEnd
0
ENDSEC
0
SECTION
2
ENTITIES
0
LINE
5
F7
100
AcDbEntity
8
ALIGNMENT_POCKET
6
ByLayer
62
256
370
-1
100
AcDbLine
10
0.722440944882
20
5.09842519685
11
0.958661417323
21
5.09842519685
0
LINE
5
F8
100
AcDbEntity
8
ALIGNMENT_POCKET
6
ByLayer
62
256
370
-1
100
AcDbLine
10
0.958661417323
20
5.09842519685
11
0.958661417323
21
7.06692913386
0
LINE
5
F9
100
AcDbEntity
8
ALIGNMENT_POCKET
6
ByLayer
62
256
370
-1
100
AcDbLine
10
0.958661417323
20
7.06692913386
11
0.722440944882
21
7.06692913386
0
LINE
5
FA
100
AcDbEntity
8
ALIGNMENT_POCKET
6
ByLayer
62
256
370
-1
100
AcDbLine
10
0.722440944882
20
7.06692913386
11
0.722440944882
21
5.09842519685
0
CIRCLE
5
FB
100
AcDbEntity
8
6-32_TAP_HOLE
6
ByLayer
62
256
370
-1
100
AcDbCircle
10
2.33661417323
20
6.70767716535
40
0.05325
0
CIRCLE
5
FC
100
AcDbEntity
8
6-32_TAP_HOLE
6
ByLayer
62
256
370
-1
100
AcDbCircle
10
2.33661417323
20
5.45767716535
40
0.05325
0
CIRCLE
5
FD
100
AcDbEntity
8
6-32_TAP_HOLE
6
ByLayer
62
256
370
-1
100
AcDbCircle
10
7.99114173228
20
10.0787401575
40
0.05325
0
CIRCLE
5
FE
100
AcDbEntity
8
6-32_TAP_HOLE
6
ByLayer
62
256
370
-1
100
AcDbCircle
10
9.24114173228
20
10.0787401575
40
0.05325
0
CIRCLE
5
FF
100
AcDbEntity
8
6-32_TAP_HOLE
6
ByLayer
62
256
370
-1
100
AcDbCircle
10
24.7234251969
20
10.0787401575
40
0.05325
0
CIRCLE
5
100
100
AcDbEntity
8
6-32_TAP_HOLE
6
ByLayer
62
256
370
-1
100
AcDbCircle
10
25.9734251969
20
10.0787401575
40
0.05325
0
DIMENSION
5
101
100
AcDbEntity
8
DIMENSION
6
ByLayer
62
256
370
-1
100
AcDbDimension
2
*D1
10
0.958661417323
20
4.3905511811
30
0
11
0.840551181102
21
4.6530511811
31
0
70
32
71
5
3
Standard
53
0
210
0
220
0
230
1
100
AcDbAlignedDimension
13
0.722440944882
23
5.09842519685
33
0
14
0.958661417323
24
5.09842519685
34
0
100
AcDbRotatedDimension
0
DIMENSION
5
102
100
AcDbEntity
8
DIMENSION
6
ByLayer
62
256
370
-1
100
AcDbDimension
2
*D2
10
0.25
20
7.80961644933
30
0
11
0.545275590551
21
8.07211644933
31
0
70
32
71
5
3
Standard
53
0
210
0
220
0
230
1
100
AcDbAlignedDimension
13
0.840551181102
23
7.06692913386
33
0
14
0.25
24
12.1028543307
34
0
100
AcDbRotatedDimension
0
DIMENSION
5
103
100
AcDbEntity
8
DIMENSION
6
ByLayer
62
256
370
-1
100
AcDbDimension
2
*D3
10
0.25
20
8.97745447835
30
0
11
1.29330708661
21
9.23995447835
31
0
70
32
71
5
3
Standard
53
0
210
0
220
0
230
1
100
AcDbAlignedDimension
13
2.33661417323
23
6.70767716535
33
0
14
0.25
24
12.1028543307
34
0
100
AcDbRotatedDimension
0
DIMENSION
5
104
100
AcDbEntity
8
DIMENSION
6
ByLayer
62
256
370
-1
100
AcDbDimension
2
*D4
10
1.6437007874
20
5.09842519685
30
0
11
1.3812007874
21
6.08267716535
31
0
70
32
71
5
3
Standard
53
0
210
0
220
0
230
1
100
AcDbAlignedDimension
13
0.958661417323
23
7.06692913386
33
0
14
0.958661417323
24
5.09842519685
34
0
50
90
100
AcDbRotatedDimension
0
DIMENSION
5
105
100
AcDbEntity
8
DIMENSION
6
ByLayer
62
256
370
-1
100
AcDbDimension
2
*D5
10
3.52559055118
20
5.45767716535
30
0
11
3.26309055118
21
6.08267716535
31
0
70
32
71
5
3
Standard
53
0
210
0
220
0
230
1
100
AcDbAlignedDimension
13
2.33661417323
23
6.70767716535
33
0
14
2.33661417323
24
5.45767716535
34
0
50
90
100
AcDbRotatedDimension
0
DIMENSION
5
106
100
AcDbEntity
8
DIMENSION
6
ByLayer
62
256
370
-1
100
AcDbDimension
2
*D6
10
-1.21580493356
20
6.08267716535
30
0
11
-1.47830493356
21
3.04133858268
31
0
70
32
71
5
3
Standard
53
0
210
0
220
0
230
1
100
AcDbAlignedDimension
13
0.3125
23
0
33
0
14
0.722440944882
24
6.08267716535
34
0
50
90
100
AcDbRotatedDimension
0
DIMENSION
5
107
100
AcDbEntity
8
DIMENSION
6
ByLayer
62
256
370
-1
100
AcDbDimension
2
*D7
10
5.32086614173
20
12.1653543307
30
0
11
5.05836614173
21
11.1220472441
31
0
70
32
71
5
3
Standard
53
0
210
0
220
0
230
1
100
AcDbAlignedDimension
13
7.99114173228
23
10.0787401575
33
0
14
0.3125
24
12.1653543307
34
0
50
90
100
AcDbRotatedDimension
0
DIMENSION
5
108
100
AcDbEntity
8
DIMENSION
6
ByLayer
62
256
370
-1
100
AcDbDimension
2
*D8
10
9.24114173228
20
9.29921259843
30
0
11
8.61614173228
21
9.56171259843
31
0
70
32
71
5
3
Standard
53
0
210
0
220
0
230
1
100
AcDbAlignedDimension
13
7.99114173228
23
10.0787401575
33
0
14
9.24114173228
24
10.0787401575
34
0
100
AcDbRotatedDimension
0
LINE
5
109
100
AcDbEntity
8
ALIGNMENT_POCKET
6
ByLayer
62
256
370
-1
100
AcDbLine
10
9.60039370079
20
11.4566929134
11
9.60039370079
21
11.6929133858
0
LINE
5
10A
100
AcDbEntity
8
ALIGNMENT_POCKET
6
ByLayer
62
256
370
-1
100
AcDbLine
10
9.60039370079
20
11.6929133858
11
7.63188976378
21
11.6929133858
0
LINE
5
10B
100
AcDbEntity
8
ALIGNMENT_POCKET
6
ByLayer
62
256
370
-1
100
AcDbLine
10
7.63188976378
20
11.6929133858
11
7.63188976378
21
11.4566929134
0
LINE
5
10C
100
AcDbEntity
8
ALIGNMENT_POCKET
6
ByLayer
62
256
370
-1
100
AcDbLine
10
7.63188976378
20
11.4566929134
11
9.60039370079
21
11.4566929134
0
DIMENSION
5
10D
100
AcDbEntity
8
DIMENSION
6
ByLayer
62
256
370
-1
100
AcDbDimension
2
*D9
10
10.5968503937
20
11.4566929134
30
0
11
10.3343503937
21
11.5748031496
31
0
70
32
71
5
3
Standard
53
0
210
0
220
0
230
1
100
AcDbAlignedDimension
13
9.60039370079
23
11.6929133858
33
0
14
9.60039370079
24
11.4566929134
34
0
50
90
100
AcDbRotatedDimension
0
DIMENSION
5
10E
100
AcDbEntity
8
DIMENSION
6
ByLayer
62
256
370
-1
100
AcDbDimension
2
*D10
10
6.81992033713
20
12.1653543307
30
0
11
6.55742033713
21
11.8700787402
31
0
70
32
71
5
3
Standard
53
0
210
0
220
0
230
1
100
AcDbAlignedDimension
13
7.63188976378
23
11.5748031496
33
0
14
0.322342519685
24
12.1653543307
34
0
50
90
100
AcDbRotatedDimension
0
DIMENSION
5
10F
100
AcDbEntity
8
DIMENSION
6
ByLayer
62
256
370
-1
100
AcDbDimension
2
*D11
10
9.60039370079
20
10.7086614173
30
0
11
8.61614173228
21
10.9711614173
31
0
70
32
71
5
3
Standard
53
0
210
0
220
0
230
1
100
AcDbAlignedDimension
13
7.63188976378
23
11.4566929134
33
0
14
9.60039370079
24
11.4566929134
34
0
100
AcDbRotatedDimension
0
DIMENSION
5
110
100
AcDbEntity
8
DIMENSION
6
ByLayer
62
256
370
-1
100
AcDbDimension
2
*D12
10
8.61614173228
20
13.6441929134
30
0
11
4.43307086614
21
13.9066929134
31
0
70
32
71
5
3
Standard
53
0
210
0
220
0
230
1
100
AcDbAlignedDimension
13
0.25
23
12.1028543307
33
0
14
8.61614173228
24
11.6929133858
34
0
100
AcDbRotatedDimension
0
LINE
5
111
100
AcDbEntity
8
ALIGNMENT_POCKET
6
ByLayer
62
256
370
-1
100
AcDbLine
10
26.3326771654
20
11.4566929134
11
26.3326771654
21
11.6929133858
0
LINE
5
112
100
AcDbEntity
8
ALIGNMENT_POCKET
6
ByLayer
62
256
370
-1
100
AcDbLine
10
26.3326771654
20
11.6929133858
11
24.3641732283
21
11.6929133858
0
LINE
5
113
100
AcDbEntity
8
ALIGNMENT_POCKET
6
ByLayer
62
256
370
-1
100
AcDbLine
10
24.3641732283
20
11.6929133858
11
24.3641732283
21
11.4566929134
0
LINE
5
114
100
AcDbEntity
8
ALIGNMENT_POCKET
6
ByLayer
62
256
370
-1
100
AcDbLine
10
24.3641732283
20
11.4566929134
11
26.3326771654
21
11.4566929134
0
DIMENSION
5
115
100
AcDbEntity
8
DIMENSION
6
ByLayer
62
256
370
-1
100
AcDbDimension
2
*D13
10
33.7145669291
20
12.9921259843
30
0
11
29.531496063
21
13.2546259843
31
0
70
32
71
5
3
Standard
53
0
210
0
220
0
230
1
100
AcDbAlignedDimension
13
25.3484251969
23
11.6929133858
33
0
14
33.7145669291
24
12.1028543307
34
0
100
AcDbRotatedDimension
0
DIMENSION
5
116
100
AcDbEntity
8
DIMENSION
6
ByLayer
62
256
370
-1
100
AcDbDimension
2
*D14
10
26.3326771654
20
10.688976378
30
0
11
25.3484251969
21
10.951476378
31
0
70
32
71
5
3
Standard
53
0
210
0
220
0
230
1
100
AcDbAlignedDimension
13
24.3641732283
23
11.4566929134
33
0
14
26.3326771654
24
11.4566929134
34
0
100
AcDbRotatedDimension
0
DIMENSION
5
117
100
AcDbEntity
8
DIMENSION
6
ByLayer
62
256
370
-1
100
AcDbDimension
2
*D15
10
25.9734251969
20
9.19291338583
30
0
11
25.3484251969
21
9.45541338583
31
0
70
32
71
5
3
Standard
53
0
210
0
220
0
230
1
100
AcDbAlignedDimension
13
24.7234251969
23
10.0787401575
33
0
14
25.9734251969
24
10.0787401575
34
0
100
AcDbRotatedDimension
0
DIMENSION
5
118
100
AcDbEntity
8
DIMENSION
6
ByLayer
62
256
370
-1
100
AcDbDimension
2
*D16
10
35.9564675158
20
12.1653543307
30
0
11
35.6939675158
21
6.08267716535
31
0
70
32
71
5
3
Standard
53
0
210
0
220
0
230
1
100
AcDbAlignedDimension
13
33.6520669291
23
0
33
0
14
33.6520669291
24
12.1653543307
34
0
50
90
100
AcDbRotatedDimension
0
DIMENSION
5
119
100
AcDbEntity
8
DIMENSION
6
ByLayer
62
256
370
-1
100
AcDbDimension
2
*D17
10
33.7145669291
20
-2.97966904528
30
0
11
16.9822834646
21
-2.71716904528
31
0
70
32
71
5
3
Standard
53
0
210
0
220
0
230
1
100
AcDbAlignedDimension
13
0.25
23
0.0625
33
0
14
33.7145669291
24
0.0625
34
0
100
AcDbRotatedDimension
0
LINE
5
11A
100
AcDbEntity
8
REFERENCE
6
ByLayer
62
256
370
-1
100
AcDbLine
10
0.25
20
0
11
33.7145669291
21
0
0
LINE
5
11B
100
AcDbEntity
8
REFERENCE
6
ByLayer
62
256
370
-1
100
AcDbLine
10
33.7145669291
20
0
11
33.7145669291
21
12.1653543307
0
LINE
5
11C
100
AcDbEntity
8
REFERENCE
6
ByLayer
62
256
370
-1
100
AcDbLine
10
33.7145669291
20
12.1653543307
11
0.25
21
12.1653543307
0
LINE
5
11D
100
AcDbEntity
8
REFERENCE
6
ByLayer
62
256
370
-1
100
AcDbLine
10
0.25
20
12.1653543307
11
0.25
21
0
0
ARC
5
11E
100
AcDbEntity
8
OUTER_BOUNDARY
6
ByLayer
62
256
370
-1
100
AcDbCircle
10
0.0625
20
12.1028543307
40
0.0625
100
AcDbArc
50
90
51
180
0
LINE
5
11F
100
AcDbEntity
8
OUTER_BOUNDARY
6
ByLayer
62
256
370
-1
100
AcDbLine
10
2.77555756156e-17
20
12.1028543307
11
2.77555756156e-17
21
0.0625
0
ARC
5
120
100
AcDbEntity
8
OUTER_BOUNDARY
6
ByLayer
62
256
370
-1
100
AcDbCircle
10
0.0625
20
0.0625
40
0.0625
100
AcDbArc
50
180
51
270
0
LINE
5
121
100
AcDbEntity
8
OUTER_BOUNDARY
6
ByLayer
62
256
370
-1
100
AcDbLine
10
0.0625
20
0
11
33.6520669291
21
0
0
ARC
5
122
100
AcDbEntity
8
OUTER_BOUNDARY
6
ByLayer
62
256
370
-1
100
AcDbCircle
10
33.6520669291
20
0.0625
40
0.0625
100
AcDbArc
50
270
51
0
0
LINE
5
123
100
AcDbEntity
8
OUTER_BOUNDARY
6
ByLayer
62
256
370
-1
100
AcDbLine
10
33.6520669291
20
12.1653543307
11
0.0625
21
12.1653543307
0
LINE
5
124
100
AcDbEntity
8
OUTER_BOUNDARY
6
ByLayer
62
256
370
-1
100
AcDbLine
10
33.7145669291
20
0.0625
11
33.7145669291
21
12.1028543307
0
ARC
5
125
100
AcDbEntity
8
OUTER_BOUNDARY
6
ByLayer
62
256
370
-1
100
AcDbCircle
10
33.6520669291
20
12.1028543307
40
0.0625
100
AcDbArc
50
0
51
90
0
LINE
5
126
100
AcDbEntity
8
REFERENCE
6
ByLayer
62
256
370
-1
100
AcDbLine
10
2.33661417323
20
6.70767716535
11
2.33661417323
21
5.45767716535
0
LINE
5
127
100
AcDbEntity
8
REFERENCE
6
ByLayer
62
256
370
-1
100
AcDbLine
10
62.7559055118
20
6.08267716535
11
60.4192913386
21
6.08267716535
0
LINE
5
128
100
AcDbEntity
8
REFERENCE
6
ByLayer
62
256
370
-1
100
AcDbLine
10
33.7145669291
20
6.08267716535
11
32.2185069291
21
6.08267716535
0
CIRCLE
5
129
100
AcDbEntity
8
6-32_TAP_HOLE
6
ByLayer
62
256
370
-1
100
AcDbCircle
10
32.2185069291
20
6.70767716535
40
0.05325
0
CIRCLE
5
12A
100
AcDbEntity
8
6-32_TAP_HOLE
6
ByLayer
62
256
370
-1
100
AcDbCircle
10
32.2185069291
20
5.45767716535
40
0.05325
0
LINE
5
12B
100
AcDbEntity
8
REFERENCE
6
ByLayer
62
256
370
-1
100
AcDbLine
10
32.2185069291
20
6.70767716535
11
32.2185069291
21
5.45767716535
0
DIMENSION
5
12C
100
AcDbEntity
8
DIMENSION
6
ByLayer
62
256
370
-1
100
AcDbDimension
2
*D18
10
33.7145669291
20
3.76448079487
30
0
11
32.9665369291
21
4.02698079487
31
0
70
32
71
5
3
Standard
53
0
210
0
220
0
230
1
100
AcDbAlignedDimension
13
32.2185069291
23
5.45767716535
33
0
14
33.7145669291
24
0.0625
34
0
100
AcDbRotatedDimension
0
DIMENSION
5
12D
100
AcDbEntity
8
DIMENSION
6
ByLayer
62
256
370
-1
100
AcDbDimension
2
*D19
10
30.2508336987
20
5.45767716535
30
0
11
29.9883336987
21
6.08267716535
31
0
70
32
71
5
3
Standard
53
0
210
0
220
0
230
1
100
AcDbAlignedDimension
13
32.2185069291
23
6.70767716535
33
0
14
32.2185069291
24
5.45767716535
34
0
50
90
100
AcDbRotatedDimension
0
ENDSEC
0
SECTION
2
OBJECTS
0
DICTIONARY
5
C
330
0
100
AcDbDictionary
281
1
3
ACAD_GROUP
350
D
0
DICTIONARY
5
D
330
C
100
AcDbDictionary
281
1
0
ENDSEC
0
EOF
