999
dxfrw 0.5.11
0
SECTION
2
HEADER
9
$ACADVER
1
AC1021
9
$HANDSEED
5
20000
9
$DWGCODEPAGE
3
ANSI_1252
9
$INSBASE
10
0
20
0
30
0
9
$EXTMIN
10
-63.29453125
20
-62.2703831542
30
0
9
$EXTMAX
10
1170.45519761
20
252.9625
30
0
9
$LIMMIN
10
0
20
0
9
$LIMMAX
10
420
20
297
9
$ORTHOMODE
70
0
9
$LTSCALE
40
1
9
$TEXTSTYLE
7
STANDARD
9
$CLAYER
8
OUTER_BOUNDARY
9
$DIMASZ
40
1
9
$DIMLFAC
40
1
9
$DIMSCALE
40
0.5
9
$DIMEXO
40
0.025
9
$DIMEXE
40
0.05
9
$DIMTXT
40
1
9
$DIMTSZ
40
0
9
$DIMAUNIT
70
0
9
$DIMADEC
70
2
9
$DIMLUNIT
70
2
9
$DIMSTYLE
2
STANDARD
9
$DIMGAP
40
0.025
9
$DIMTIH
70
0
9
$LUNITS
70
2
9
$LUPREC
70
4
9
$AUNITS
70
0
9
$AUPREC
70
2
9
$SPLINESEGS
70
8
9
$GRIDMODE
70
1
9
$SNAPSTYLE
70
0
9
$GRIDUNIT
10
0
20
0
9
$PINSBASE
10
0
20
0
30
0
9
$PLIMMIN
10
0
20
0
9
$PLIMMAX
10
0.012815
20
0.0181241
9
$INSUNITS
70
4
9
$PSVPSCALE
40
1
0
ENDSEC
0
SECTION
2
CLASSES
0
ENDSEC
0
SECTION
2
TABLES
0
TABLE
2
VPORT
5
8
330
0
100
AcDbSymbolTable
70
1
0
VPORT
5
31
330
2
100
AcDbSymbolTableRecord
100
AcDbViewportTableRecord
2
*ACTIVE
70
0
10
0
20
0
11
1
21
1
12
7.8600223121
22
5.73482606195
13
0
23
0
14
10
24
10
15
10
25
10
16
0
26
0
36
1
17
0
27
0
37
0
40
14.9297706417
41
1.27038626609
42
50
43
0
44
0
50
0
51
0
71
0
72
100
73
1
74
3
75
0
76
1
77
0
78
0
281
0
65
1
110
0
120
0
130
0
111
1
121
0
131
0
112
0
122
1
132
0
79
0
146
0
348
10020
60
7
61
5
292
1
282
1
141
0
142
0
63
250
421
3358443
0
ENDTAB
0
TABLE
2
LTYPE
5
5
330
0
100
AcDbSymbolTable
70
4
0
LTYPE
5
14
330
5
100
AcDbSymbolTableRecord
100
AcDbLinetypeTableRecord
2
ByBlock
70
0
3

72
65
73
0
40
0
0
LTYPE
5
15
330
5
100
AcDbSymbolTableRecord
100
AcDbLinetypeTableRecord
2
ByLayer
70
0
3

72
65
73
0
40
0
0
LTYPE
5
16
330
5
100
AcDbSymbolTableRecord
100
AcDbLinetypeTableRecord
2
Continuous
70
0
3
Solid line
72
65
73
0
40
0
0
LTYPE
5
32
330
5
100
AcDbSymbolTableRecord
100
AcDbLinetypeTableRecord
2
DOT
70
0
3
Dot . . . . . . . . . . . . . . . . . . . . . .
72
65
73
2
40
6.35
49
0
74
0
49
-6.35
74
0
0
LTYPE
5
33
330
5
100
AcDbSymbolTableRecord
100
AcDbLinetypeTableRecord
2
DOT2
70
0
3
Dot (.5x) .....................................
72
65
73
2
40
3.175
49
0
74
0
49
-3.175
74
0
0
LTYPE
5
34
330
5
100
AcDbSymbolTableRecord
100
AcDbLinetypeTableRecord
2
DOTX2
70
0
3
Dot (2x) .  .  .  .  .  .  .  .  .  .  .  .  .
72
65
73
2
40
12.7
49
0
74
0
49
-12.7
74
0
0
LTYPE
5
35
330
5
100
AcDbSymbolTableRecord
100
AcDbLinetypeTableRecord
2
DASHED
70
0
3
Dot . . . . . . . . . . . . . . . . . . . . . .
72
65
73
2
40
19.05
49
12.7
74
0
49
-6.35
74
0
0
LTYPE
5
36
330
5
100
AcDbSymbolTableRecord
100
AcDbLinetypeTableRecord
2
DASHED2
70
0
3
Dashed (.5x) _ _ _ _ _ _ _ _ _ _ _ _ _ _ _ _ _
72
65
73
2
40
9.525
49
6.35
74
0
49
-3.175
74
0
0
LTYPE
5
37
330
5
100
AcDbSymbolTableRecord
100
AcDbLinetypeTableRecord
2
DASHEDX2
70
0
3
Dashed (2x) ____  ____  ____  ____  ____  ___
72
65
73
2
40
38.1
49
25.4
74
0
49
-12.7
74
0
0
LTYPE
5
38
330
5
100
AcDbSymbolTableRecord
100
AcDbLinetypeTableRecord
2
DASHDOT
70
0
3
Dash dot __ . __ . __ . __ . __ . __ . __ . __
72
65
73
4
40
25.4
49
12.7
74
0
49
-6.35
74
0
49
0
74
0
49
-6.35
74
0
0
LTYPE
5
39
330
5
100
AcDbSymbolTableRecord
100
AcDbLinetypeTableRecord
2
DASHDOT2
70
0
3
Dash dot (.5x) _._._._._._._._._._._._._._._.
72
65
73
4
40
12.7
49
6.35
74
0
49
-3.175
74
0
49
0
74
0
49
-3.175
74
0
0
LTYPE
5
3A
330
5
100
AcDbSymbolTableRecord
100
AcDbLinetypeTableRecord
2
DASHDOTX2
70
0
3
Dash dot (2x) ____  .  ____  .  ____  .  ___
72
65
73
4
40
50.8
49
25.4
74
0
49
-12.7
74
0
49
0
74
0
49
-12.7
74
0
0
LTYPE
5
3B
330
5
100
AcDbSymbolTableRecord
100
AcDbLinetypeTableRecord
2
DIVIDE
70
0
3
Divide ____ . . ____ . . ____ . . ____ . . ____
72
65
73
6
40
31.75
49
12.7
74
0
49
-6.35
74
0
49
0
74
0
49
-6.35
74
0
49
0
74
0
49
-6.35
74
0
0
LTYPE
5
3C
330
5
100
AcDbSymbolTableRecord
100
AcDbLinetypeTableRecord
2
DIVIDE2
70
0
3
Divide (.5x) __..__..__..__..__..__..__..__.._
72
65
73
6
40
15.875
49
6.35
74
0
49
-3.175
74
0
49
0
74
0
49
-3.175
74
0
49
0
74
0
49
-3.175
74
0
0
LTYPE
5
3D
330
5
100
AcDbSymbolTableRecord
100
AcDbLinetypeTableRecord
2
DIVIDEX2
70
0
3
Divide (2x) ________  .  .  ________  .  .  _
72
65
73
6
40
63.5
49
25.4
74
0
49
-12.7
74
0
49
0
74
0
49
-12.7
74
0
49
0
74
0
49
-12.7
74
0
0
LTYPE
5
3E
330
5
100
AcDbSymbolTableRecord
100
AcDbLinetypeTableRecord
2
BORDER
70
0
3
Border __ __ . __ __ . __ __ . __ __ . __ __ .
72
65
73
6
40
44.45
49
12.7
74
0
49
-6.35
74
0
49
12.7
74
0
49
-6.35
74
0
49
0
74
0
49
-6.35
74
0
0
LTYPE
5
3F
330
5
100
AcDbSymbolTableRecord
100
AcDbLinetypeTableRecord
2
BORDER2
70
0
3
Border (.5x) __.__.__.__.__.__.__.__.__.__.__.
72
65
73
6
40
22.225
49
6.35
74
0
49
-3.175
74
0
49
6.35
74
0
49
-3.175
74
0
49
0
74
0
49
-3.175
74
0
0
LTYPE
5
40
330
5
100
AcDbSymbolTableRecord
100
AcDbLinetypeTableRecord
2
BORDERX2
70
0
3
Border (2x) ____  ____  .  ____  ____  .  ___
72
65
73
6
40
88.9
49
25.4
74
0
49
-12.7
74
0
49
25.4
74
0
49
-12.7
74
0
49
0
74
0
49
-12.7
74
0
0
LTYPE
5
41
330
5
100
AcDbSymbolTableRecord
100
AcDbLinetypeTableRecord
2
CENTER
70
0
3
Center ____ _ ____ _ ____ _ ____ _ ____ _ ____
72
65
73
4
40
50.8
49
31.75
74
0
49
-6.35
74
0
49
6.35
74
0
49
-6.35
74
0
0
LTYPE
5
42
330
5
100
AcDbSymbolTableRecord
100
AcDbLinetypeTableRecord
2
CENTER2
70
0
3
Center (.5x) ___ _ ___ _ ___ _ ___ _ ___ _ ___
72
65
73
4
40
28.575
49
19.05
74
0
49
-3.175
74
0
49
3.175
74
0
49
-3.175
74
0
0
LTYPE
5
43
330
5
100
AcDbSymbolTableRecord
100
AcDbLinetypeTableRecord
2
CENTERX2
70
0
3
Center (2x) ________  __  ________  __  _____
72
65
73
4
40
101.6
49
63.5
74
0
49
-12.7
74
0
49
12.7
74
0
49
-12.7
74
0
0
ENDTAB
0
TABLE
2
LAYER
5
2
330
0
100
AcDbSymbolTable
70
1
0
LAYER
5
10
330
2
100
AcDbSymbolTableRecord
100
AcDbLayerTableRecord
2
0
70
0
62
7
6
CONTINUOUS
370
0
390
F
0
LAYER
5
44
330
2
100
AcDbSymbolTableRecord
100
AcDbLayerTableRecord
2
6-32_TAP_HOLE
70
0
62
2
6
CONTINUOUS
370
0
390
F
0
LAYER
5
45
330
2
100
AcDbSymbolTableRecord
100
AcDbLayerTableRecord
2
ALIGNMENT_POCKET
70
0
62
6
6
CONTINUOUS
370
0
390
F
0
LAYER
5
46
330
2
100
AcDbSymbolTableRecord
100
AcDbLayerTableRecord
2
DIMENSION
70
0
62
7
6
CONTINUOUS
370
0
390
F
0
LAYER
5
47
330
2
100
AcDbSymbolTableRecord
100
AcDbLayerTableRecord
2
OUTER_BOUNDARY
70
0
62
5
6
CONTINUOUS
370
0
390
F
0
LAYER
5
48
330
2
100
AcDbSymbolTableRecord
100
AcDbLayerTableRecord
2
REFERENCE
70
0
62
253
420
10526884
6
CONTINUOUS
370
0
390
F
0
ENDTAB
0
TABLE
2
STYLE
5
3
330
0
100
AcDbSymbolTable
70
3
0
STYLE
5
49
330
2
100
AcDbSymbolTableRecord
100
AcDbTextStyleTableRecord
2
Standard
70
0
40
0
41
1
50
0
71
0
42
1
3
txt
4

0
ENDTAB
0
TABLE
2
VIEW
5
6
330
0
100
AcDbSymbolTable
70
0
0
ENDTAB
0
TABLE
2
UCS
5
7
330
0
100
AcDbSymbolTable
70
0
0
ENDTAB
0
TABLE
2
APPID
5
9
330
0
100
AcDbSymbolTable
70
1
0
APPID
5
12
330
9
100
AcDbSymbolTableRecord
100
AcDbRegAppTableRecord
2
ACAD
70
0
0
ENDTAB
0
TABLE
2
DIMSTYLE
5
A
330
0
100
AcDbSymbolTable
70
1
100
AcDbDimStyleTable
71
1
0
DIMSTYLE
105
4A
330
A
100
AcDbSymbolTableRecord
100
AcDbDimStyleTableRecord
2
Standard
70
0
40
1
41
1
42
0.025
43
0.38
44
0.05
45
0
46
0
47
0
48
0
140
1
141
0.09
142
0
143
25.4
144
1
145
0
146
1
147
0.025
148
0
71
0
72
0
73
0
74
1
75
0
76
0
77
0
78
0
79
0
170
0
171
2
172
0
173
0
174
0
175
0
176
0
177
0
178
0
179
0
271
4
272
4
273
2
274
2
275
0
276
0
277
2
278
46
279
0
280
0
281
0
282
0
283
1
284
0
285
0
286
0
288
0
289
3
340
Standard
341

371
-2
372
-2
0
ENDTAB
0
TABLE
2
BLOCK_RECORD
5
1
330
0
100
AcDbSymbolTable
70
2
0
BLOCK_RECORD
5
1F
330
1
100
AcDbSymbolTableRecord
100
AcDbBlockTableRecord
2
*Model_Space
70
0
280
1
281
0
0
BLOCK_RECORD
5
1E
330
1
100
AcDbSymbolTableRecord
100
AcDbBlockTableRecord
2
*Paper_Space
70
0
280
1
281
0
0
BLOCK_RECORD
5
4B
330
1
100
AcDbSymbolTableRecord
100
AcDbBlockTableRecord
2
*D23
70
0
280
1
281
0
0
BLOCK_RECORD
5
4E
330
1
100
AcDbSymbolTableRecord
100
AcDbBlockTableRecord
2
*D21
70
0
280
1
281
0
0
BLOCK_RECORD
5
51
330
1
100
AcDbSymbolTableRecord
100
AcDbBlockTableRecord
2
*D42
70
0
280
1
281
0
0
BLOCK_RECORD
5
54
330
1
100
AcDbSymbolTableRecord
100
AcDbBlockTableRecord
2
*D43
70
0
280
1
281
0
0
BLOCK_RECORD
5
57
330
1
100
AcDbSymbolTableRecord
100
AcDbBlockTableRecord
2
*D41
70
0
280
1
281
0
0
BLOCK_RECORD
5
5A
330
1
100
AcDbSymbolTableRecord
100
AcDbBlockTableRecord
2
*D44
70
0
280
1
281
0
0
BLOCK_RECORD
5
5D
330
1
100
AcDbSymbolTableRecord
100
AcDbBlockTableRecord
2
*D36
70
0
280
1
281
0
0
BLOCK_RECORD
5
60
330
1
100
AcDbSymbolTableRecord
100
AcDbBlockTableRecord
2
*D26
70
0
280
1
281
0
0
BLOCK_RECORD
5
63
330
1
100
AcDbSymbolTableRecord
100
AcDbBlockTableRecord
2
*D33
70
0
280
1
281
0
0
BLOCK_RECORD
5
66
330
1
100
AcDbSymbolTableRecord
100
AcDbBlockTableRecord
2
*D12
70
0
280
1
281
0
0
BLOCK_RECORD
5
69
330
1
100
AcDbSymbolTableRecord
100
AcDbBlockTableRecord
2
*D28
70
0
280
1
281
0
0
BLOCK_RECORD
5
6C
330
1
100
AcDbSymbolTableRecord
100
AcDbBlockTableRecord
2
*D31
70
0
280
1
281
0
0
BLOCK_RECORD
5
6F
330
1
100
AcDbSymbolTableRecord
100
AcDbBlockTableRecord
2
*D29
70
0
280
1
281
0
0
BLOCK_RECORD
5
72
330
1
100
AcDbSymbolTableRecord
100
AcDbBlockTableRecord
2
*D32
70
0
280
1
281
0
0
BLOCK_RECORD
5
75
330
1
100
AcDbSymbolTableRecord
100
AcDbBlockTableRecord
2
*D38
70
0
280
1
281
0
0
BLOCK_RECORD
5
78
330
1
100
AcDbSymbolTableRecord
100
AcDbBlockTableRecord
2
*D18
70
0
280
1
281
0
0
BLOCK_RECORD
5
7B
330
1
100
AcDbSymbolTableRecord
100
AcDbBlockTableRecord
2
*D37
70
0
280
1
281
0
0
BLOCK_RECORD
5
7E
330
1
100
AcDbSymbolTableRecord
100
AcDbBlockTableRecord
2
*D35
70
0
280
1
281
0
0
BLOCK_RECORD
5
81
330
1
100
AcDbSymbolTableRecord
100
AcDbBlockTableRecord
2
*D9
70
0
280
1
281
0
0
BLOCK_RECORD
5
84
330
1
100
AcDbSymbolTableRecord
100
AcDbBlockTableRecord
2
*D30
70
0
280
1
281
0
0
BLOCK_RECORD
5
87
330
1
100
AcDbSymbolTableRecord
100
AcDbBlockTableRecord
2
*D13
70
0
280
1
281
0
0
BLOCK_RECORD
5
8A
330
1
100
AcDbSymbolTableRecord
100
AcDbBlockTableRecord
2
*D7
70
0
280
1
281
0
0
BLOCK_RECORD
5
8D
330
1
100
AcDbSymbolTableRecord
100
AcDbBlockTableRecord
2
*D22
70
0
280
1
281
0
0
BLOCK_RECORD
5
90
330
1
100
AcDbSymbolTableRecord
100
AcDbBlockTableRecord
2
*D25
70
0
280
1
281
0
0
BLOCK_RECORD
5
93
330
1
100
AcDbSymbolTableRecord
100
AcDbBlockTableRecord
2
*D1
70
0
280
1
281
0
0
BLOCK_RECORD
5
96
330
1
100
AcDbSymbolTableRecord
100
AcDbBlockTableRecord
2
*D2
70
0
280
1
281
0
0
BLOCK_RECORD
5
99
330
1
100
AcDbSymbolTableRecord
100
AcDbBlockTableRecord
2
*D27
70
0
280
1
281
0
0
BLOCK_RECORD
5
9C
330
1
100
AcDbSymbolTableRecord
100
AcDbBlockTableRecord
2
*D11
70
0
280
1
281
0
0
BLOCK_RECORD
5
9F
330
1
100
AcDbSymbolTableRecord
100
AcDbBlockTableRecord
2
*D19
70
0
280
1
281
0
0
BLOCK_RECORD
5
A2
330
1
100
AcDbSymbolTableRecord
100
AcDbBlockTableRecord
2
*D15
70
0
280
1
281
0
0
BLOCK_RECORD
5
A5
330
1
100
AcDbSymbolTableRecord
100
AcDbBlockTableRecord
2
*D20
70
0
280
1
281
0
0
BLOCK_RECORD
5
A8
330
1
100
AcDbSymbolTableRecord
100
AcDbBlockTableRecord
2
*D4
70
0
280
1
281
0
0
BLOCK_RECORD
5
AB
330
1
100
AcDbSymbolTableRecord
100
AcDbBlockTableRecord
2
*D40
70
0
280
1
281
0
0
BLOCK_RECORD
5
AE
330
1
100
AcDbSymbolTableRecord
100
AcDbBlockTableRecord
2
*D5
70
0
280
1
281
0
0
BLOCK_RECORD
5
B1
330
1
100
AcDbSymbolTableRecord
100
AcDbBlockTableRecord
2
*D39
70
0
280
1
281
0
0
BLOCK_RECORD
5
B4
330
1
100
AcDbSymbolTableRecord
100
AcDbBlockTableRecord
2
*D17
70
0
280
1
281
0
0
BLOCK_RECORD
5
B7
330
1
100
AcDbSymbolTableRecord
100
AcDbBlockTableRecord
2
*D6
70
0
280
1
281
0
0
BLOCK_RECORD
5
BA
330
1
100
AcDbSymbolTableRecord
100
AcDbBlockTableRecord
2
*D8
70
0
280
1
281
0
0
BLOCK_RECORD
5
BD
330
1
100
AcDbSymbolTableRecord
100
AcDbBlockTableRecord
2
*D3
70
0
280
1
281
0
0
BLOCK_RECORD
5
C0
330
1
100
AcDbSymbolTableRecord
100
AcDbBlockTableRecord
2
*D34
70
0
280
1
281
0
0
BLOCK_RECORD
5
C3
330
1
100
AcDbSymbolTableRecord
100
AcDbBlockTableRecord
2
*D14
70
0
280
1
281
0
0
BLOCK_RECORD
5
C6
330
1
100
AcDbSymbolTableRecord
100
AcDbBlockTableRecord
2
*D24
70
0
280
1
281
0
0
BLOCK_RECORD
5
C9
330
1
100
AcDbSymbolTableRecord
100
AcDbBlockTableRecord
2
*D10
70
0
280
1
281
0
0
BLOCK_RECORD
5
CC
330
1
100
AcDbSymbolTableRecord
100
AcDbBlockTableRecord
2
*D16
70
0
280
1
281
0
0
ENDTAB
0
ENDSEC
0
SECTION
2
BLOCKS
0
BLOCK
5
20
330
1F
100
AcDbEntity
8
0
100
AcDbBlockBegin
2
*Model_Space
70
0
10
0
20
0
30
0
3
*Model_Space
1

0
ENDBLK
5
21
330
1F
100
AcDbEntity
8
0
100
AcDbBlockEnd
0
BLOCK
5
1C
330
1B
100
AcDbEntity
8
0
100
AcDbBlockBegin
2
*Paper_Space
70
0
10
0
20
0
30
0
3
*Paper_Space
1

0
ENDBLK
5
1D
330
1F
100
AcDbEntity
8
0
100
AcDbBlockEnd
0
BLOCK
5
4C
330
4B
100
AcDbEntity
8
0
100
AcDbBlockBegin
2
*D23
70
1
10
0
20
0
3
*D23
1

0
LINE
5
CF
100
AcDbEntity
8
DIMENSION
6
CONTINUOUS
62
7
370
0
100
AcDbLine
10
34.7324603224
20
6.28346456693
11
34.7324603224
21
8.87401574803
0
SOLID
5
D0
100
AcDbEntity
8
DIMENSION
6
CONTINUOUS
62
7
370
0
100
AcDbTrace
10
34.7324603224
20
7.28346456693
30
0
11
34.8157172539
21
6.78346456693
31
0
12
34.6492033908
22
6.78346456693
32
0
13
34.6492033908
23
6.78346456693
33
0
0
SOLID
5
D1
100
AcDbEntity
8
DIMENSION
6
CONTINUOUS
62
7
370
0
100
AcDbTrace
10
34.7324603224
20
7.87401574803
30
0
11
34.6492033908
21
8.37401574803
31
0
12
34.8157172539
22
8.37401574803
32
0
13
34.8157172539
23
8.37401574803
33
0
0
MTEXT
5
D2
100
AcDbEntity
8
DIMENSION
6
CONTINUOUS
62
7
370
0
100
AcDbMText
10
34.4699603224
20
8.85873797025
30
0
40
0.5
41
1.94444444444
71
5
72
1
1
0.5906
7
standard
210
0
220
0
230
1
50
90
73
2
44
1
0
LINE
5
D3
100
AcDbEntity
8
DIMENSION
6
CONTINUOUS
62
7
370
0
100
AcDbLine
10
33.4317913386
20
7.28346456693
11
34.7574603224
21
7.28346456693
0
LINE
5
D4
100
AcDbEntity
8
DIMENSION
6
CONTINUOUS
62
7
370
0
100
AcDbLine
10
43.1758858268
20
7.87401574803
11
34.7574603224
21
7.87401574803
0
ENDBLK
5
4D
330
4B
100
AcDbEntity
8
0
100
AcDbBlockEnd
0
BLOCK
5
4F
330
4E
100
AcDbEntity
8
0
100
AcDbBlockBegin
2
*D21
70
1
10
0
20
0
3
*D21
1

0
LINE
5
D5
100
AcDbEntity
8
DIMENSION
6
CONTINUOUS
62
7
370
0
100
AcDbLine
10
31.4507874016
20
6.43992987205
11
33.4192913386
21
6.43992987205
0
SOLID
5
D6
100
AcDbEntity
8
DIMENSION
6
CONTINUOUS
62
7
370
0
100
AcDbTrace
10
31.4507874016
20
6.43992987205
30
0
11
31.9507874016
21
6.5231868036
31
0
12
31.9507874016
22
6.35667294049
32
0
13
31.9507874016
23
6.35667294049
33
0
0
SOLID
5
D7
100
AcDbEntity
8
DIMENSION
6
CONTINUOUS
62
7
370
0
100
AcDbTrace
10
33.4192913386
20
6.43992987205
30
0
11
32.9192913386
21
6.35667294049
31
0
12
32.9192913386
22
6.5231868036
32
0
13
32.9192913386
23
6.5231868036
33
0
0
MTEXT
5
D8
100
AcDbEntity
8
DIMENSION
6
CONTINUOUS
62
7
370
0
100
AcDbMText
10
32.4350393701
20
6.70242987205
30
0
40
0.5
41
1.83333333333
71
5
72
1
1
1.9685
7
standard
210
0
220
0
230
1
50
0
73
2
44
1
0
LINE
5
D9
100
AcDbEntity
8
DIMENSION
6
CONTINUOUS
62
7
370
0
100
AcDbLine
10
31.4507874016
20
7.15285433071
11
31.4507874016
21
6.41492987205
0
LINE
5
DA
100
AcDbEntity
8
DIMENSION
6
CONTINUOUS
62
7
370
0
100
AcDbLine
10
33.4192913386
20
7.15285433071
11
33.4192913386
21
6.41492987205
0
ENDBLK
5
50
330
4E
100
AcDbEntity
8
0
100
AcDbBlockEnd
0
BLOCK
5
52
330
51
100
AcDbEntity
8
0
100
AcDbBlockBegin
2
*D42
70
1
10
0
20
0
3
*D42
1

0
LINE
5
DB
100
AcDbEntity
8
DIMENSION
6
CONTINUOUS
62
7
370
0
100
AcDbLine
10
0.25
20
-0.676673228346
11
10.9783464567
21
-0.676673228346
0
SOLID
5
DC
100
AcDbEntity
8
DIMENSION
6
CONTINUOUS
62
7
370
0
100
AcDbTrace
10
0.25
20
-0.676673228346
30
0
11
0.75
21
-0.593416296792
31
0
12
0.75
22
-0.759930159901
32
0
13
0.75
23
-0.759930159901
33
0
0
SOLID
5
DD
100
AcDbEntity
8
DIMENSION
6
CONTINUOUS
62
7
370
0
100
AcDbTrace
10
10.9783464567
20
-0.676673228346
30
0
11
10.4783464567
21
-0.759930159901
31
0
12
10.4783464567
22
-0.593416296792
32
0
13
10.4783464567
23
-0.593416296792
33
0
0
MTEXT
5
DE
100
AcDbEntity
8
DIMENSION
6
CONTINUOUS
62
7
370
0
100
AcDbMText
10
5.61417322835
20
-0.414173228346
30
0
40
0.5
41
2.22222222222
71
5
72
1
1
10.7283
7
standard
210
0
220
0
230
1
50
0
73
2
44
1
0
LINE
5
DF
100
AcDbEntity
8
DIMENSION
6
CONTINUOUS
62
7
370
0
100
AcDbLine
10
0.25
20
-0.0125
11
0.25
21
-0.701673228346
0
LINE
5
E0
100
AcDbEntity
8
DIMENSION
6
CONTINUOUS
62
7
370
0
100
AcDbLine
10
10.9783464567
20
0.459940944882
11
10.9783464567
21
-0.701673228346
0
ENDBLK
5
53
330
51
100
AcDbEntity
8
0
100
AcDbBlockEnd
0
BLOCK
5
55
330
54
100
AcDbEntity
8
0
100
AcDbBlockBegin
2
*D43
70
1
10
0
20
0
3
*D43
1

0
LINE
5
E1
100
AcDbEntity
8
DIMENSION
6
CONTINUOUS
62
7
370
0
100
AcDbLine
10
32.4350393701
20
-0.841035617618
11
43.1633858268
21
-0.841035617618
0
SOLID
5
E2
100
AcDbEntity
8
DIMENSION
6
CONTINUOUS
62
7
370
0
100
AcDbTrace
10
32.4350393701
20
-0.841035617618
30
0
11
32.9350393701
21
-0.757778686064
31
0
12
32.9350393701
22
-0.924292549173
32
0
13
32.9350393701
23
-0.924292549173
33
0
0
SOLID
5
E3
100
AcDbEntity
8
DIMENSION
6
CONTINUOUS
62
7
370
0
100
AcDbTrace
10
43.1633858268
20
-0.841035617618
30
0
11
42.6633858268
21
-0.924292549173
31
0
12
42.6633858268
22
-0.757778686064
32
0
13
42.6633858268
23
-0.757778686064
33
0
0
MTEXT
5
E4
100
AcDbEntity
8
DIMENSION
6
CONTINUOUS
62
7
370
0
100
AcDbMText
10
37.7992125984
20
-0.578535617618
30
0
40
0.5
41
2.22222222222
71
5
72
1
1
10.7283
7
standard
210
0
220
0
230
1
50
0
73
2
44
1
0
LINE
5
E5
100
AcDbEntity
8
DIMENSION
6
CONTINUOUS
62
7
370
0
100
AcDbLine
10
32.4350393701
20
0.459940944882
11
32.4350393701
21
-0.866035617618
0
LINE
5
E6
100
AcDbEntity
8
DIMENSION
6
CONTINUOUS
62
7
370
0
100
AcDbLine
10
43.1633858268
20
-0.0125
11
43.1633858268
21
-0.866035617618
0
ENDBLK
5
56
330
54
100
AcDbEntity
8
0
100
AcDbBlockEnd
0
BLOCK
5
58
330
57
100
AcDbEntity
8
0
100
AcDbBlockBegin
2
*D41
70
1
10
0
20
0
3
*D41
1

0
LINE
5
E7
100
AcDbEntity
8
DIMENSION
6
CONTINUOUS
62
7
370
0
100
AcDbLine
10
32.4350393701
20
8.64296259843
11
43.1633858268
21
8.64296259843
0
SOLID
5
E8
100
AcDbEntity
8
DIMENSION
6
CONTINUOUS
62
7
370
0
100
AcDbTrace
10
32.4350393701
20
8.64296259843
30
0
11
32.9350393701
21
8.72621952998
31
0
12
32.9350393701
22
8.55970566687
32
0
13
32.9350393701
23
8.55970566687
33
0
0
SOLID
5
E9
100
AcDbEntity
8
DIMENSION
6
CONTINUOUS
62
7
370
0
100
AcDbTrace
10
43.1633858268
20
8.64296259843
30
0
11
42.6633858268
21
8.55970566687
31
0
12
42.6633858268
22
8.72621952998
32
0
13
42.6633858268
23
8.72621952998
33
0
0
MTEXT
5
EA
100
AcDbEntity
8
DIMENSION
6
CONTINUOUS
62
7
370
0
100
AcDbMText
10
37.7992125984
20
8.90546259843
30
0
40
0.5
41
2.22222222222
71
5
72
1
1
10.7283
7
standard
210
0
220
0
230
1
50
0
73
2
44
1
0
LINE
5
EB
100
AcDbEntity
8
DIMENSION
6
CONTINUOUS
62
7
370
0
100
AcDbLine
10
32.4350393701
20
7.41407480315
11
32.4350393701
21
8.66796259843
0
LINE
5
EC
100
AcDbEntity
8
DIMENSION
6
CONTINUOUS
62
7
370
0
100
AcDbLine
10
43.1633858268
20
7.88651574803
11
43.1633858268
21
8.66796259843
0
ENDBLK
5
59
330
57
100
AcDbEntity
8
0
100
AcDbBlockEnd
0
BLOCK
5
5B
330
5A
100
AcDbEntity
8
0
100
AcDbBlockBegin
2
*D44
70
1
10
0
20
0
3
*D44
1

0
LINE
5
ED
100
AcDbEntity
8
DIMENSION
6
CONTINUOUS
62
7
370
0
100
AcDbLine
10
44.2529835138
20
3.93700787402
11
44.2529835138
21
-7.74205721404e-17
0
SOLID
5
EE
100
AcDbEntity
8
DIMENSION
6
CONTINUOUS
62
7
370
0
100
AcDbTrace
10
44.2529835138
20
3.93700787402
30
0
11
44.3362404453
21
3.43700787402
31
0
12
44.1697265822
22
3.43700787402
32
0
13
44.1697265822
23
3.43700787402
33
0
0
SOLID
5
EF
100
AcDbEntity
8
DIMENSION
6
CONTINUOUS
62
7
370
0
100
AcDbTrace
10
44.2529835138
20
-7.74205721404e-17
30
0
11
44.1697265822
21
0.5
31
0
12
44.3362404453
22
0.5
32
0
13
44.3362404453
23
0.5
33
0
0
MTEXT
5
F0
100
AcDbEntity
8
DIMENSION
6
CONTINUOUS
62
7
370
0
100
AcDbMText
10
43.9904835138
20
1.96850393701
30
0
40
0.5
41
1.55555555556
71
5
72
1
1
3.937
7
standard
210
0
220
0
230
1
50
90
73
2
44
1
0
LINE
5
F1
100
AcDbEntity
8
DIMENSION
6
CONTINUOUS
62
7
370
0
100
AcDbLine
10
42.7034448819
20
3.93700787402
11
44.2779835138
21
3.93700787402
0
LINE
5
F2
100
AcDbEntity
8
DIMENSION
6
CONTINUOUS
62
7
370
0
100
AcDbLine
10
43.1758858268
20
-3.06151588456e-18
11
44.2779835138
21
-8.35436039096e-17
0
ENDBLK
5
5C
330
5A
100
AcDbEntity
8
0
100
AcDbBlockEnd
0
BLOCK
5
5E
330
5D
100
AcDbEntity
8
0
100
AcDbBlockBegin
2
*D36
70
1
10
0
20
0
3
*D36
1

0
LINE
5
F3
100
AcDbEntity
8
DIMENSION
6
CONTINUOUS
62
7
370
0
100
AcDbLine
10
44.4798228346
20
6.87401574803
11
44.4798228346
21
9.12401574803
0
SOLID
5
F4
100
AcDbEntity
8
DIMENSION
6
CONTINUOUS
62
7
370
0
100
AcDbTrace
10
44.4798228346
20
7.87401574803
30
0
11
44.5630797662
21
7.37401574803
31
0
12
44.3965659031
22
7.37401574803
32
0
13
44.3965659031
23
7.37401574803
33
0
0
SOLID
5
F5
100
AcDbEntity
8
DIMENSION
6
CONTINUOUS
62
7
370
0
100
AcDbTrace
10
44.4798228346
20
8.12401574803
30
0
11
44.3965659031
21
8.62401574803
31
0
12
44.5630797662
22
8.62401574803
32
0
13
44.5630797662
23
8.62401574803
33
0
0
MTEXT
5
F6
100
AcDbEntity
8
DIMENSION
6
CONTINUOUS
62
7
370
0
100
AcDbMText
10
44.2173228346
20
8.71984908136
30
0
40
0.5
41
1.16666666667
71
5
72
1
1
0.25
7
standard
210
0
220
0
230
1
50
90
73
2
44
1
0
LINE
5
F7
100
AcDbEntity
8
DIMENSION
6
CONTINUOUS
62
7
370
0
100
AcDbLine
10
43.1758858268
20
7.87401574803
11
44.5048228346
21
7.87401574803
0
LINE
5
F8
100
AcDbEntity
8
DIMENSION
6
CONTINUOUS
62
7
370
0
100
AcDbLine
10
43.4258858268
20
8.12401574803
11
44.5048228346
21
8.12401574803
0
ENDBLK
5
5F
330
5D
100
AcDbEntity
8
0
100
AcDbBlockEnd
0
BLOCK
5
61
330
60
100
AcDbEntity
8
0
100
AcDbBlockBegin
2
*D26
70
1
10
0
20
0
3
*D26
1

0
LINE
5
F9
100
AcDbEntity
8
DIMENSION
6
CONTINUOUS
62
7
370
0
100
AcDbLine
10
40.3313545768
20
4.56200787402
11
40.3313545768
21
3.31200787402
0
SOLID
5
FA
100
AcDbEntity
8
DIMENSION
6
CONTINUOUS
62
7
370
0
100
AcDbTrace
10
40.3313545768
20
4.56200787402
30
0
11
40.4146115083
21
4.06200787402
31
0
12
40.2480976452
22
4.06200787402
32
0
13
40.2480976452
23
4.06200787402
33
0
0
SOLID
5
FB
100
AcDbEntity
8
DIMENSION
6
CONTINUOUS
62
7
370
0
100
AcDbTrace
10
40.3313545768
20
3.31200787402
30
0
11
40.2480976452
21
3.81200787402
31
0
12
40.4146115083
22
3.81200787402
32
0
13
40.4146115083
23
3.81200787402
33
0
0
MTEXT
5
FC
100
AcDbEntity
8
DIMENSION
6
CONTINUOUS
62
7
370
0
100
AcDbMText
10
40.0688545768
20
3.93700787402
30
0
40
0.5
41
1.05555555556
71
5
72
1
1
1.25
7
standard
210
0
220
0
230
1
50
90
73
2
44
1
0
LINE
5
FD
100
AcDbEntity
8
DIMENSION
6
CONTINUOUS
62
7
370
0
100
AcDbLine
10
41.0642716535
20
4.56200787402
11
40.3063545768
21
4.56200787402
0
LINE
5
FE
100
AcDbEntity
8
DIMENSION
6
CONTINUOUS
62
7
370
0
100
AcDbLine
10
41.0642716535
20
3.31200787402
11
40.3063545768
21
3.31200787402
0
ENDBLK
5
62
330
60
100
AcDbEntity
8
0
100
AcDbBlockEnd
0
BLOCK
5
64
330
63
100
AcDbEntity
8
0
100
AcDbBlockBegin
2
*D33
70
1
10
0
20
0
3
*D33
1

0
LINE
5
FF
100
AcDbEntity
8
DIMENSION
6
CONTINUOUS
62
7
370
0
100
AcDbLine
10
1.25
20
9.01109590307
11
-1
21
9.01109590307
0
SOLID
5
100
100
AcDbEntity
8
DIMENSION
6
CONTINUOUS
62
7
370
0
100
AcDbTrace
10
0.25
20
9.01109590307
30
0
11
0.75
21
9.09435283463
31
0
12
0.75
22
8.92783897152
32
0
13
0.75
23
8.92783897152
33
0
0
SOLID
5
101
100
AcDbEntity
8
DIMENSION
6
CONTINUOUS
62
7
370
0
100
AcDbTrace
10
2.77555756156e-17
20
9.01109590307
30
0
11
-0.5
21
8.92783897152
31
0
12
-0.5
22
9.09435283463
32
0
13
-0.5
23
9.09435283463
33
0
0
MTEXT
5
102
100
AcDbEntity
8
DIMENSION
6
CONTINUOUS
62
7
370
0
100
AcDbMText
10
0.845833333333
20
9.27359590307
30
0
40
0.5
41
1.16666666667
71
5
72
1
1
0.25
7
standard
210
0
220
0
230
1
50
360
73
2
44
1
0
LINE
5
103
100
AcDbEntity
8
DIMENSION
6
CONTINUOUS
62
7
370
0
100
AcDbLine
10
0.25
20
7.88651574803
11
0.25
21
9.03609590307
0
LINE
5
104
100
AcDbEntity
8
DIMENSION
6
CONTINUOUS
62
7
370
0
100
AcDbLine
10
2.85209545868e-17
20
8.13651574803
11
2.92863335579e-17
21
9.03609590307
0
ENDBLK
5
65
330
63
100
AcDbEntity
8
0
100
AcDbBlockEnd
0
BLOCK
5
67
330
66
100
AcDbEntity
8
0
100
AcDbBlockBegin
2
*D12
70
1
10
0
20
0
3
*D12
1

0
LINE
5
105
100
AcDbEntity
8
DIMENSION
6
CONTINUOUS
62
7
370
0
100
AcDbLine
10
34.9102792815
20
1.5905511811
11
34.9102792815
21
-1
0
SOLID
5
106
100
AcDbEntity
8
DIMENSION
6
CONTINUOUS
62
7
370
0
100
AcDbTrace
10
34.9102792815
20
0.590551181102
30
0
11
34.8270223499
21
1.0905511811
31
0
12
34.9935362131
22
1.0905511811
32
0
13
34.9935362131
23
1.0905511811
33
0
0
SOLID
5
107
100
AcDbEntity
8
DIMENSION
6
CONTINUOUS
62
7
370
0
100
AcDbTrace
10
34.9102792815
20
5.8641849032e-16
30
0
11
34.9935362131
21
-0.5
31
0
12
34.8270223499
22
-0.5
32
0
13
34.8270223499
23
-0.5
33
0
0
MTEXT
5
108
100
AcDbEntity
8
DIMENSION
6
CONTINUOUS
62
7
370
0
100
AcDbMText
10
34.6477792815
20
1.57527340332
30
0
40
0.5
41
1.94444444444
71
5
72
1
1
0.5906
7
standard
210
0
220
0
230
1
50
90
73
2
44
1
0
LINE
5
109
100
AcDbEntity
8
DIMENSION
6
CONTINUOUS
62
7
370
0
100
AcDbLine
10
33.4317913386
20
0.590551181102
11
34.9352792815
21
0.590551181102
0
LINE
5
10A
100
AcDbEntity
8
DIMENSION
6
CONTINUOUS
62
7
370
0
100
AcDbLine
10
43.1758858268
20
-3.06151588456e-18
11
34.9352792815
21
5.80295458551e-16
0
ENDBLK
5
68
330
66
100
AcDbEntity
8
0
100
AcDbBlockEnd
0
BLOCK
5
6A
330
69
100
AcDbEntity
8
0
100
AcDbBlockBegin
2
*D28
70
1
10
0
20
0
3
*D28
1

0
LINE
5
10B
100
AcDbEntity
8
DIMENSION
6
CONTINUOUS
62
7
370
0
100
AcDbLine
10
7.81643700787
20
2.08661417323
11
7.81643700787
21
5.12440046651e-15
0
SOLID
5
10C
100
AcDbEntity
8
DIMENSION
6
CONTINUOUS
62
7
370
0
100
AcDbTrace
10
7.81643700787
20
2.08661417323
30
0
11
7.89969393943
21
1.58661417323
31
0
12
7.73318007632
22
1.58661417323
32
0
13
7.73318007632
23
1.58661417323
33
0
0
SOLID
5
10D
100
AcDbEntity
8
DIMENSION
6
CONTINUOUS
62
7
370
0
100
AcDbTrace
10
7.81643700787
20
5.12440046651e-15
30
0
11
7.73318007632
21
0.5
31
0
12
7.89969393943
22
0.5
32
0
13
7.89969393943
23
0.5
33
0
0
MTEXT
5
10E
100
AcDbEntity
8
DIMENSION
6
CONTINUOUS
62
7
370
0
100
AcDbMText
10
7.55393700787
20
1.04330708661
30
0
40
0.5
41
1.94444444444
71
5
72
1
1
2.0866
7
standard
210
0
220
0
230
1
50
90
73
2
44
1
0
LINE
5
10F
100
AcDbEntity
8
DIMENSION
6
CONTINUOUS
62
7
370
0
100
AcDbLine
10
10.3408464567
20
2.08661417323
11
7.79143700787
21
2.08661417323
0
LINE
5
110
100
AcDbEntity
8
DIMENSION
6
CONTINUOUS
62
7
370
0
100
AcDbLine
10
0.2375
20
5.59635544897e-15
11
7.79143700787
21
5.1274619824e-15
0
ENDBLK
5
6B
330
69
100
AcDbEntity
8
0
100
AcDbBlockEnd
0
BLOCK
5
6D
330
6C
100
AcDbEntity
8
0
100
AcDbBlockBegin
2
*D31
70
1
10
0
20
0
3
*D31
1

0
LINE
5
111
100
AcDbEntity
8
DIMENSION
6
CONTINUOUS
62
7
370
0
100
AcDbLine
10
36.6596333661
20
2.08661417323
11
36.6596333661
21
4.62119406608e-16
0
SOLID
5
112
100
AcDbEntity
8
DIMENSION
6
CONTINUOUS
62
7
370
0
100
AcDbTrace
10
36.6596333661
20
2.08661417323
30
0
11
36.7428902977
21
1.58661417323
31
0
12
36.5763764346
22
1.58661417323
32
0
13
36.5763764346
23
1.58661417323
33
0
0
SOLID
5
113
100
AcDbEntity
8
DIMENSION
6
CONTINUOUS
62
7
370
0
100
AcDbTrace
10
36.6596333661
20
4.62119406608e-16
30
0
11
36.5763764346
21
0.5
31
0
12
36.7428902977
22
0.5
32
0
13
36.7428902977
23
0.5
33
0
0
MTEXT
5
114
100
AcDbEntity
8
DIMENSION
6
CONTINUOUS
62
7
370
0
100
AcDbMText
10
36.3971333661
20
1.04330708661
30
0
40
0.5
41
1.94444444444
71
5
72
1
1
2.0866
7
standard
210
0
220
0
230
1
50
90
73
2
44
1
0
LINE
5
115
100
AcDbEntity
8
DIMENSION
6
CONTINUOUS
62
7
370
0
100
AcDbLine
10
33.0725393701
20
2.08661417323
11
36.6846333661
21
2.08661417323
0
LINE
5
116
100
AcDbEntity
8
DIMENSION
6
CONTINUOUS
62
7
370
0
100
AcDbLine
10
43.1758858268
20
0
11
36.6846333661
21
4.62119406608e-16
0
ENDBLK
5
6E
330
6C
100
AcDbEntity
8
0
100
AcDbBlockEnd
0
BLOCK
5
70
330
6F
100
AcDbEntity
8
0
100
AcDbBlockBegin
2
*D29
70
1
10
0
20
0
3
*D29
1

0
LINE
5
117
100
AcDbEntity
8
DIMENSION
6
CONTINUOUS
62
7
370
0
100
AcDbLine
10
7.81932055858
20
7.87401574803
11
7.81932055858
21
5.7874015748
0
SOLID
5
118
100
AcDbEntity
8
DIMENSION
6
CONTINUOUS
62
7
370
0
100
AcDbTrace
10
7.81932055858
20
7.87401574803
30
0
11
7.90257749014
21
7.37401574803
31
0
12
7.73606362703
22
7.37401574803
32
0
13
7.73606362703
23
7.37401574803
33
0
0
SOLID
5
119
100
AcDbEntity
8
DIMENSION
6
CONTINUOUS
62
7
370
0
100
AcDbTrace
10
7.81932055858
20
5.7874015748
30
0
11
7.73606362703
21
6.2874015748
31
0
12
7.90257749014
22
6.2874015748
32
0
13
7.90257749014
23
6.2874015748
33
0
0
MTEXT
5
11A
100
AcDbEntity
8
DIMENSION
6
CONTINUOUS
62
7
370
0
100
AcDbMText
10
7.55682055858
20
6.83070866142
30
0
40
0.5
41
1.94444444444
71
5
72
1
1
2.0866
7
standard
210
0
220
0
230
1
50
90
73
2
44
1
0
LINE
5
11B
100
AcDbEntity
8
DIMENSION
6
CONTINUOUS
62
7
370
0
100
AcDbLine
10
0.2625
20
7.87401574803
11
7.84432055858
21
7.87401574803
0
LINE
5
11C
100
AcDbEntity
8
DIMENSION
6
CONTINUOUS
62
7
370
0
100
AcDbLine
10
10.3658464567
20
5.7874015748
11
7.84432055858
21
5.7874015748
0
ENDBLK
5
71
330
6F
100
AcDbEntity
8
0
100
AcDbBlockEnd
0
BLOCK
5
73
330
72
100
AcDbEntity
8
0
100
AcDbBlockBegin
2
*D32
70
1
10
0
20
0
3
*D32
1

0
LINE
5
11D
100
AcDbEntity
8
DIMENSION
6
CONTINUOUS
62
7
370
0
100
AcDbLine
10
36.7134596457
20
7.87401574803
11
36.7134596457
21
5.7874015748
0
SOLID
5
11E
100
AcDbEntity
8
DIMENSION
6
CONTINUOUS
62
7
370
0
100
AcDbTrace
10
36.7134596457
20
7.87401574803
30
0
11
36.7967165772
21
7.37401574803
31
0
12
36.6302027141
22
7.37401574803
32
0
13
36.6302027141
23
7.37401574803
33
0
0
SOLID
5
11F
100
AcDbEntity
8
DIMENSION
6
CONTINUOUS
62
7
370
0
100
AcDbTrace
10
36.7134596457
20
5.7874015748
30
0
11
36.6302027141
21
6.2874015748
31
0
12
36.7967165772
22
6.2874015748
32
0
13
36.7967165772
23
6.2874015748
33
0
0
MTEXT
5
120
100
AcDbEntity
8
DIMENSION
6
CONTINUOUS
62
7
370
0
100
AcDbMText
10
36.4509596457
20
6.83070866142
30
0
40
0.5
41
1.94444444444
71
5
72
1
1
2.0866
7
standard
210
0
220
0
230
1
50
90
73
2
44
1
0
LINE
5
121
100
AcDbEntity
8
DIMENSION
6
CONTINUOUS
62
7
370
0
100
AcDbLine
10
43.1508858268
20
7.87401574803
11
36.6884596457
21
7.87401574803
0
LINE
5
122
100
AcDbEntity
8
DIMENSION
6
CONTINUOUS
62
7
370
0
100
AcDbLine
10
33.0475393701
20
5.7874015748
11
36.6884596457
21
5.7874015748
0
ENDBLK
5
74
330
72
100
AcDbEntity
8
0
100
AcDbBlockEnd
0
BLOCK
5
76
330
75
100
AcDbEntity
8
0
100
AcDbBlockBegin
2
*D38
70
1
10
0
20
0
3
*D38
1

0
LINE
5
123
100
AcDbEntity
8
DIMENSION
6
CONTINUOUS
62
7
370
0
100
AcDbLine
10
41.5728346457
20
5.859375
11
44.1633858268
21
5.859375
0
SOLID
5
124
100
AcDbEntity
8
DIMENSION
6
CONTINUOUS
62
7
370
0
100
AcDbTrace
10
42.5728346457
20
5.859375
30
0
11
42.0728346457
21
5.77611806845
31
0
12
42.0728346457
22
5.94263193155
32
0
13
42.0728346457
23
5.94263193155
33
0
0
SOLID
5
125
100
AcDbEntity
8
DIMENSION
6
CONTINUOUS
62
7
370
0
100
AcDbTrace
10
43.1633858268
20
5.859375
30
0
11
43.6633858268
21
5.94263193155
31
0
12
43.6633858268
22
5.77611806845
32
0
13
43.6633858268
23
5.77611806845
33
0
0
MTEXT
5
126
100
AcDbEntity
8
DIMENSION
6
CONTINUOUS
62
7
370
0
100
AcDbMText
10
44.148108049
20
6.121875
30
0
40
0.5
41
1.94444444444
71
5
72
1
1
0.5906
7
standard
210
0
220
0
230
1
50
0
73
2
44
1
0
LINE
5
127
100
AcDbEntity
8
DIMENSION
6
CONTINUOUS
62
7
370
0
100
AcDbLine
10
42.5728346457
20
4.93375984252
11
42.5728346457
21
5.884375
0
LINE
5
128
100
AcDbEntity
8
DIMENSION
6
CONTINUOUS
62
7
370
0
100
AcDbLine
10
43.1633858268
20
7.88651574803
11
43.1633858268
21
5.884375
0
ENDBLK
5
77
330
75
100
AcDbEntity
8
0
100
AcDbBlockEnd
0
BLOCK
5
79
330
78
100
AcDbEntity
8
0
100
AcDbBlockBegin
2
*D18
70
1
10
0
20
0
3
*D18
1

0
LINE
5
129
100
AcDbEntity
8
DIMENSION
6
CONTINUOUS
62
7
370
0
100
AcDbLine
10
10.3533464567
20
5
11
11.6033464567
21
5
0
SOLID
5
12A
100
AcDbEntity
8
DIMENSION
6
CONTINUOUS
62
7
370
0
100
AcDbTrace
10
10.3533464567
20
5
30
0
11
10.8533464567
21
5.08325693155
31
0
12
10.8533464567
22
4.91674306845
32
0
13
10.8533464567
23
4.91674306845
33
0
0
SOLID
5
12B
100
AcDbEntity
8
DIMENSION
6
CONTINUOUS
62
7
370
0
100
AcDbTrace
10
11.6033464567
20
5
30
0
11
11.1033464567
21
4.91674306845
31
0
12
11.1033464567
22
5.08325693155
32
0
13
11.1033464567
23
5.08325693155
33
0
0
MTEXT
5
12C
100
AcDbEntity
8
DIMENSION
6
CONTINUOUS
62
7
370
0
100
AcDbMText
10
10.9783464567
20
5.2625
30
0
40
0.5
41
1.05555555556
71
5
72
1
1
1.25
7
standard
210
0
220
0
230
1
50
0
73
2
44
1
0
LINE
5
12D
100
AcDbEntity
8
DIMENSION
6
CONTINUOUS
62
7
370
0
100
AcDbLine
10
10.3533464567
20
5.7749015748
11
10.3533464567
21
4.975
0
LINE
5
12E
100
AcDbEntity
8
DIMENSION
6
CONTINUOUS
62
7
370
0
100
AcDbLine
10
11.6033464567
20
5.7749015748
11
11.6033464567
21
4.975
0
ENDBLK
5
7A
330
78
100
AcDbEntity
8
0
100
AcDbBlockEnd
0
BLOCK
5
7C
330
7B
100
AcDbEntity
8
0
100
AcDbBlockBegin
2
*D37
70
1
10
0
20
0
3
*D37
1

0
LINE
5
12F
100
AcDbEntity
8
DIMENSION
6
CONTINUOUS
62
7
370
0
100
AcDbLine
10
41.4547244094
20
2.10691437008
11
43.6909448819
21
2.10691437008
0
SOLID
5
130
100
AcDbEntity
8
DIMENSION
6
CONTINUOUS
62
7
370
0
100
AcDbTrace
10
42.4547244094
20
2.10691437008
30
0
11
41.9547244094
21
2.02365743852
31
0
12
41.9547244094
22
2.19017130163
32
0
13
41.9547244094
23
2.19017130163
33
0
0
SOLID
5
131
100
AcDbEntity
8
DIMENSION
6
CONTINUOUS
62
7
370
0
100
AcDbTrace
10
42.6909448819
20
2.10691437008
30
0
11
43.1909448819
21
2.19017130163
31
0
12
43.1909448819
22
2.02365743852
32
0
13
43.1909448819
23
2.02365743852
33
0
0
MTEXT
5
132
100
AcDbEntity
8
DIMENSION
6
CONTINUOUS
62
7
370
0
100
AcDbMText
10
43.6756671041
20
2.36941437008
30
0
40
0.5
41
1.94444444444
71
5
72
1
1
0.2362
7
standard
210
0
220
0
230
1
50
0
73
2
44
1
0
LINE
5
133
100
AcDbEntity
8
DIMENSION
6
CONTINUOUS
62
7
370
0
100
AcDbLine
10
42.4547244094
20
2.94025590551
11
42.4547244094
21
2.08191437008
0
LINE
5
134
100
AcDbEntity
8
DIMENSION
6
CONTINUOUS
62
7
370
0
100
AcDbLine
10
42.6909448819
20
2.94025590551
11
42.6909448819
21
2.08191437008
0
ENDBLK
5
7D
330
7B
100
AcDbEntity
8
0
100
AcDbBlockEnd
0
BLOCK
5
7F
330
7E
100
AcDbEntity
8
0
100
AcDbBlockBegin
2
*D35
70
1
10
0
20
0
3
*D35
1

0
LINE
5
135
100
AcDbEntity
8
DIMENSION
6
CONTINUOUS
62
7
370
0
100
AcDbLine
10
42.1633858268
20
9.48572834646
11
44.4133858268
21
9.48572834646
0
SOLID
5
136
100
AcDbEntity
8
DIMENSION
6
CONTINUOUS
62
7
370
0
100
AcDbTrace
10
43.1633858268
20
9.48572834646
30
0
11
42.6633858268
21
9.4024714149
31
0
12
42.6633858268
22
9.56898527801
32
0
13
42.6633858268
23
9.56898527801
33
0
0
SOLID
5
137
100
AcDbEntity
8
DIMENSION
6
CONTINUOUS
62
7
370
0
100
AcDbTrace
10
43.4133858268
20
9.48572834646
30
0
11
43.9133858268
21
9.56898527801
31
0
12
43.9133858268
22
9.4024714149
32
0
13
43.9133858268
23
9.4024714149
33
0
0
MTEXT
5
138
100
AcDbEntity
8
DIMENSION
6
CONTINUOUS
62
7
370
0
100
AcDbMText
10
44.0092191601
20
9.74822834646
30
0
40
0.5
41
1.16666666667
71
5
72
1
1
0.25
7
standard
210
0
220
0
230
1
50
0
73
2
44
1
0
LINE
5
139
100
AcDbEntity
8
DIMENSION
6
CONTINUOUS
62
7
370
0
100
AcDbLine
10
43.1633858268
20
7.88651574803
11
43.1633858268
21
9.51072834646
0
LINE
5
13A
100
AcDbEntity
8
DIMENSION
6
CONTINUOUS
62
7
370
0
100
AcDbLine
10
43.4133858268
20
8.13651574803
11
43.4133858268
21
9.51072834646
0
ENDBLK
5
80
330
7E
100
AcDbEntity
8
0
100
AcDbBlockEnd
0
BLOCK
5
82
330
81
100
AcDbEntity
8
0
100
AcDbBlockBegin
2
*D9
70
1
10
0
20
0
3
*D9
1

0
LINE
5
13B
100
AcDbEntity
8
DIMENSION
6
CONTINUOUS
62
7
370
0
100
AcDbLine
10
-1.76848548228
20
5.3290705182e-15
11
-1.76848548228
21
3.93700787402
0
SOLID
5
13C
100
AcDbEntity
8
DIMENSION
6
CONTINUOUS
62
7
370
0
100
AcDbTrace
10
-1.76848548228
20
5.3290705182e-15
30
0
11
-1.85174241384
21
0.5
31
0
12
-1.68522855073
22
0.5
32
0
13
-1.68522855073
23
0.5
33
0
0
SOLID
5
13D
100
AcDbEntity
8
DIMENSION
6
CONTINUOUS
62
7
370
0
100
AcDbTrace
10
-1.76848548228
20
3.93700787402
30
0
11
-1.68522855073
21
3.43700787402
31
0
12
-1.85174241384
22
3.43700787402
32
0
13
-1.85174241384
23
3.43700787402
33
0
0
MTEXT
5
13E
100
AcDbEntity
8
DIMENSION
6
CONTINUOUS
62
7
370
0
100
AcDbMText
10
-2.03098548228
20
1.96850393701
30
0
40
0.5
41
1.55555555556
71
5
72
1
1
3.937
7
standard
210
0
220
0
230
1
50
90
73
2
44
1
0
LINE
5
13F
100
AcDbEntity
8
DIMENSION
6
CONTINUOUS
62
7
370
0
100
AcDbLine
10
0.2375
20
5.59635544897e-15
11
-1.79348548228
21
5.33213203409e-15
0
LINE
5
140
100
AcDbEntity
8
DIMENSION
6
CONTINUOUS
62
7
370
0
100
AcDbLine
10
0.709940944882
20
3.93700787402
11
-1.79348548228
21
3.93700787402
0
ENDBLK
5
83
330
81
100
AcDbEntity
8
0
100
AcDbBlockEnd
0
BLOCK
5
85
330
84
100
AcDbEntity
8
0
100
AcDbBlockBegin
2
*D30
70
1
10
0
20
0
3
*D30
1

0
LINE
5
141
100
AcDbEntity
8
DIMENSION
6
CONTINUOUS
62
7
370
0
100
AcDbLine
10
30.8540846457
20
1.70866141732
11
30.8540846457
21
-0.527559055118
0
SOLID
5
142
100
AcDbEntity
8
DIMENSION
6
CONTINUOUS
62
7
370
0
100
AcDbTrace
10
30.8540846457
20
0.708661417323
30
0
11
30.7708277141
21
1.20866141732
31
0
12
30.9373415772
22
1.20866141732
32
0
13
30.9373415772
23
1.20866141732
33
0
0
SOLID
5
143
100
AcDbEntity
8
DIMENSION
6
CONTINUOUS
62
7
370
0
100
AcDbTrace
10
30.8540846457
20
0.472440944882
30
0
11
30.9373415772
21
-0.0275590551181
31
0
12
30.7708277141
22
-0.0275590551181
32
0
13
30.7708277141
23
-0.0275590551181
33
0
0
MTEXT
5
144
100
AcDbEntity
8
DIMENSION
6
CONTINUOUS
62
7
370
0
100
AcDbMText
10
30.5915846457
20
1.69338363955
30
0
40
0.5
41
1.94444444444
71
5
72
1
1
0.2362
7
standard
210
0
220
0
230
1
50
90
73
2
44
1
0
LINE
5
145
100
AcDbEntity
8
DIMENSION
6
CONTINUOUS
62
7
370
0
100
AcDbLine
10
31.4382874016
20
0.708661417323
11
30.8290846457
21
0.708661417323
0
LINE
5
146
100
AcDbEntity
8
DIMENSION
6
CONTINUOUS
62
7
370
0
100
AcDbLine
10
31.4382874016
20
0.472440944882
11
30.8290846457
21
0.472440944882
0
ENDBLK
5
86
330
84
100
AcDbEntity
8
0
100
AcDbBlockEnd
0
BLOCK
5
88
330
87
100
AcDbEntity
8
0
100
AcDbBlockBegin
2
*D13
70
1
10
0
20
0
3
*D13
1

0
LINE
5
147
100
AcDbEntity
8
DIMENSION
6
CONTINUOUS
62
7
370
0
100
AcDbLine
10
1.61488065945
20
4.92125984252
11
1.61488065945
21
2.95275590551
0
SOLID
5
148
100
AcDbEntity
8
DIMENSION
6
CONTINUOUS
62
7
370
0
100
AcDbTrace
10
1.61488065945
20
4.92125984252
30
0
11
1.698137591
21
4.42125984252
31
0
12
1.53162372789
22
4.42125984252
32
0
13
1.53162372789
23
4.42125984252
33
0
0
SOLID
5
149
100
AcDbEntity
8
DIMENSION
6
CONTINUOUS
62
7
370
0
100
AcDbTrace
10
1.61488065945
20
2.95275590551
30
0
11
1.53162372789
21
3.45275590551
31
0
12
1.698137591
22
3.45275590551
32
0
13
1.698137591
23
3.45275590551
33
0
0
MTEXT
5
14A
100
AcDbEntity
8
DIMENSION
6
CONTINUOUS
62
7
370
0
100
AcDbMText
10
1.35238065945
20
3.93700787402
30
0
40
0.5
41
1.83333333333
71
5
72
1
1
1.9685
7
standard
210
0
220
0
230
1
50
90
73
2
44
1
0
LINE
5
14B
100
AcDbEntity
8
DIMENSION
6
CONTINUOUS
62
7
370
0
100
AcDbLine
10
0.971161417323
20
4.92125984252
11
1.63988065945
21
4.92125984252
0
LINE
5
14C
100
AcDbEntity
8
DIMENSION
6
CONTINUOUS
62
7
370
0
100
AcDbLine
10
0.971161417323
20
2.95275590551
11
1.63988065945
21
2.95275590551
0
ENDBLK
5
89
330
87
100
AcDbEntity
8
0
100
AcDbBlockEnd
0
BLOCK
5
8B
330
8A
100
AcDbEntity
8
0
100
AcDbBlockBegin
2
*D7
70
1
10
0
20
0
3
*D7
1

0
LINE
5
14D
100
AcDbEntity
8
DIMENSION
6
CONTINUOUS
62
7
370
0
100
AcDbLine
10
2.33661417323
20
6.24769315945
11
0.25
21
6.24769315945
0
SOLID
5
14E
100
AcDbEntity
8
DIMENSION
6
CONTINUOUS
62
7
370
0
100
AcDbTrace
10
2.33661417323
20
6.24769315945
30
0
11
1.83661417323
21
6.16443622789
31
0
12
1.83661417323
22
6.330950091
32
0
13
1.83661417323
23
6.330950091
33
0
0
SOLID
5
14F
100
AcDbEntity
8
DIMENSION
6
CONTINUOUS
62
7
370
0
100
AcDbTrace
10
0.25
20
6.24769315945
30
0
11
0.75
21
6.330950091
31
0
12
0.75
22
6.16443622789
32
0
13
0.75
23
6.16443622789
33
0
0
MTEXT
5
150
100
AcDbEntity
8
DIMENSION
6
CONTINUOUS
62
7
370
0
100
AcDbMText
10
1.29330708661
20
6.51019315945
30
0
40
0.5
41
1.94444444444
71
5
72
1
1
2.0866
7
standard
210
0
220
0
230
1
50
360
73
2
44
1
0
LINE
5
151
100
AcDbEntity
8
DIMENSION
6
CONTINUOUS
62
7
370
0
100
AcDbLine
10
2.33661417323
20
4.57450787402
11
2.33661417323
21
6.27269315945
0
LINE
5
152
100
AcDbEntity
8
DIMENSION
6
CONTINUOUS
62
7
370
0
100
AcDbLine
10
0.25
20
7.88651574803
11
0.25
21
6.27269315945
0
ENDBLK
5
8C
330
8A
100
AcDbEntity
8
0
100
AcDbBlockEnd
0
BLOCK
5
8E
330
8D
100
AcDbEntity
8
0
100
AcDbBlockBegin
2
*D22
70
1
10
0
20
0
3
*D22
1

0
LINE
5
153
100
AcDbEntity
8
DIMENSION
6
CONTINUOUS
62
7
370
0
100
AcDbLine
10
30.8636964813
20
8.40157480315
11
30.8636964813
21
6.16535433071
0
SOLID
5
154
100
AcDbEntity
8
DIMENSION
6
CONTINUOUS
62
7
370
0
100
AcDbTrace
10
30.8636964813
20
7.40157480315
30
0
11
30.7804395497
21
7.90157480315
31
0
12
30.9469534129
22
7.90157480315
32
0
13
30.9469534129
23
7.90157480315
33
0
0
SOLID
5
155
100
AcDbEntity
8
DIMENSION
6
CONTINUOUS
62
7
370
0
100
AcDbTrace
10
30.8636964813
20
7.16535433071
30
0
11
30.9469534129
21
6.66535433071
31
0
12
30.7804395497
22
6.66535433071
32
0
13
30.7804395497
23
6.66535433071
33
0
0
MTEXT
5
156
100
AcDbEntity
8
DIMENSION
6
CONTINUOUS
62
7
370
0
100
AcDbMText
10
30.6011964813
20
8.38629702537
30
0
40
0.5
41
1.94444444444
71
5
72
1
1
0.2362
7
standard
210
0
220
0
230
1
50
90
73
2
44
1
0
LINE
5
157
100
AcDbEntity
8
DIMENSION
6
CONTINUOUS
62
7
370
0
100
AcDbLine
10
31.4382874016
20
7.40157480315
11
30.8386964813
21
7.40157480315
0
LINE
5
158
100
AcDbEntity
8
DIMENSION
6
CONTINUOUS
62
7
370
0
100
AcDbLine
10
31.4382874016
20
7.16535433071
11
30.8386964813
21
7.16535433071
0
ENDBLK
5
8F
330
8D
100
AcDbEntity
8
0
100
AcDbBlockEnd
0
BLOCK
5
91
330
90
100
AcDbEntity
8
0
100
AcDbBlockBegin
2
*D25
70
1
10
0
20
0
3
*D25
1

0
LINE
5
159
100
AcDbEntity
8
DIMENSION
6
CONTINUOUS
62
7
370
0
100
AcDbLine
10
9.11091097134
20
6.28346456693
11
9.11091097134
21
8.87401574803
0
SOLID
5
15A
100
AcDbEntity
8
DIMENSION
6
CONTINUOUS
62
7
370
0
100
AcDbTrace
10
9.11091097134
20
7.28346456693
30
0
11
9.19416790289
21
6.78346456693
31
0
12
9.02765403978
22
6.78346456693
32
0
13
9.02765403978
23
6.78346456693
33
0
0
SOLID
5
15B
100
AcDbEntity
8
DIMENSION
6
CONTINUOUS
62
7
370
0
100
AcDbTrace
10
9.11091097134
20
7.87401574803
30
0
11
9.02765403978
21
8.37401574803
31
0
12
9.19416790289
22
8.37401574803
32
0
13
9.19416790289
23
8.37401574803
33
0
0
MTEXT
5
15C
100
AcDbEntity
8
DIMENSION
6
CONTINUOUS
62
7
370
0
100
AcDbMText
10
8.84841097134
20
8.85873797025
30
0
40
0.5
41
1.94444444444
71
5
72
1
1
0.5906
7
standard
210
0
220
0
230
1
50
90
73
2
44
1
0
LINE
5
15D
100
AcDbEntity
8
DIMENSION
6
CONTINUOUS
62
7
370
0
100
AcDbLine
10
9.98159448819
20
7.28346456693
11
9.08591097134
21
7.28346456693
0
LINE
5
15E
100
AcDbEntity
8
DIMENSION
6
CONTINUOUS
62
7
370
0
100
AcDbLine
10
0.2375
20
7.87401574803
11
9.08591097134
21
7.87401574803
0
ENDBLK
5
92
330
90
100
AcDbEntity
8
0
100
AcDbBlockEnd
0
BLOCK
5
94
330
93
100
AcDbEntity
8
0
100
AcDbBlockBegin
2
*D1
70
1
10
0
20
0
3
*D1
1

0
LINE
5
15F
100
AcDbEntity
8
DIMENSION
6
CONTINUOUS
62
7
370
0
100
AcDbLine
10
0.25
20
-1.12638698788
11
43.1633858268
21
-1.12638698788
0
SOLID
5
160
100
AcDbEntity
8
DIMENSION
6
CONTINUOUS
62
7
370
0
100
AcDbTrace
10
0.25
20
-1.12638698788
30
0
11
0.75
21
-1.04313005633
31
0
12
0.75
22
-1.20964391944
32
0
13
0.75
23
-1.20964391944
33
0
0
SOLID
5
161
100
AcDbEntity
8
DIMENSION
6
CONTINUOUS
62
7
370
0
100
AcDbTrace
10
43.1633858268
20
-1.12638698788
30
0
11
42.6633858268
21
-1.20964391944
31
0
12
42.6633858268
22
-1.04313005633
32
0
13
42.6633858268
23
-1.04313005633
33
0
0
MTEXT
5
162
100
AcDbEntity
8
DIMENSION
6
CONTINUOUS
62
7
370
0
100
AcDbMText
10
21.7066929134
20
-0.863886987882
30
0
40
0.5
41
2.33333333333
71
5
72
1
1
42.9134
7
standard
210
0
220
0
230
1
50
0
73
2
44
1
0
LINE
5
163
100
AcDbEntity
8
DIMENSION
6
CONTINUOUS
62
7
370
0
100
AcDbLine
10
0.25
20
-0.0125
11
0.25
21
-1.15138698788
0
LINE
5
164
100
AcDbEntity
8
DIMENSION
6
CONTINUOUS
62
7
370
0
100
AcDbLine
10
43.1633858268
20
-0.0125
11
43.1633858268
21
-1.15138698788
0
ENDBLK
5
95
330
93
100
AcDbEntity
8
0
100
AcDbBlockEnd
0
BLOCK
5
97
330
96
100
AcDbEntity
8
0
100
AcDbBlockBegin
2
*D2
70
1
10
0
20
0
3
*D2
1

0
LINE
5
165
100
AcDbEntity
8
DIMENSION
6
CONTINUOUS
62
7
370
0
100
AcDbLine
10
0
20
-2.37292192114
11
43.4133858268
21
-2.37292192114
0
SOLID
5
166
100
AcDbEntity
8
DIMENSION
6
CONTINUOUS
62
7
370
0
100
AcDbTrace
10
0
20
-2.37292192114
30
0
11
0.5
21
-2.28966498958
31
0
12
0.5
22
-2.45617885269
32
0
13
0.5
23
-2.45617885269
33
0
0
SOLID
5
167
100
AcDbEntity
8
DIMENSION
6
CONTINUOUS
62
7
370
0
100
AcDbTrace
10
43.4133858268
20
-2.37292192114
30
0
11
42.9133858268
21
-2.45617885269
31
0
12
42.9133858268
22
-2.28966498958
32
0
13
42.9133858268
23
-2.28966498958
33
0
0
MTEXT
5
168
100
AcDbEntity
8
DIMENSION
6
CONTINUOUS
62
7
370
0
100
AcDbMText
10
21.7066929134
20
-2.11042192114
30
0
40
0.5
41
2.38888888889
71
5
72
1
1
43.4134
7
standard
210
0
220
0
230
1
50
0
73
2
44
1
0
LINE
5
169
100
AcDbEntity
8
DIMENSION
6
CONTINUOUS
62
7
370
0
100
AcDbLine
10
2.54594387022e-17
20
-0.0125
11
-4.59227382683e-18
21
-2.39792192114
0
LINE
5
16A
100
AcDbEntity
8
DIMENSION
6
CONTINUOUS
62
7
370
0
100
AcDbLine
10
43.4133858268
20
-0.0125
11
43.4133858268
21
-2.39792192114
0
ENDBLK
5
98
330
96
100
AcDbEntity
8
0
100
AcDbBlockEnd
0
BLOCK
5
9A
330
99
100
AcDbEntity
8
0
100
AcDbBlockBegin
2
*D27
70
1
10
0
20
0
3
*D27
1

0
LINE
5
16B
100
AcDbEntity
8
DIMENSION
6
CONTINUOUS
62
7
370
0
100
AcDbLine
10
41.7154589075
20
4.92125984252
11
41.7154589075
21
2.95275590551
0
SOLID
5
16C
100
AcDbEntity
8
DIMENSION
6
CONTINUOUS
62
7
370
0
100
AcDbTrace
10
41.7154589075
20
4.92125984252
30
0
11
41.798715839
21
4.42125984252
31
0
12
41.6322019759
22
4.42125984252
32
0
13
41.6322019759
23
4.42125984252
33
0
0
SOLID
5
16D
100
AcDbEntity
8
DIMENSION
6
CONTINUOUS
62
7
370
0
100
AcDbTrace
10
41.7154589075
20
2.95275590551
30
0
11
41.6322019759
21
3.45275590551
31
0
12
41.798715839
22
3.45275590551
32
0
13
41.798715839
23
3.45275590551
33
0
0
MTEXT
5
16E
100
AcDbEntity
8
DIMENSION
6
CONTINUOUS
62
7
370
0
100
AcDbMText
10
41.4529589075
20
3.93700787402
30
0
40
0.5
41
1.83333333333
71
5
72
1
1
1.9685
7
standard
210
0
220
0
230
1
50
90
73
2
44
1
0
LINE
5
16F
100
AcDbEntity
8
DIMENSION
6
CONTINUOUS
62
7
370
0
100
AcDbLine
10
42.4422244094
20
4.92125984252
11
41.6904589075
21
4.92125984252
0
LINE
5
170
100
AcDbEntity
8
DIMENSION
6
CONTINUOUS
62
7
370
0
100
AcDbLine
10
42.4422244094
20
2.95275590551
11
41.6904589075
21
2.95275590551
0
ENDBLK
5
9B
330
99
100
AcDbEntity
8
0
100
AcDbBlockEnd
0
BLOCK
5
9D
330
9C
100
AcDbEntity
8
0
100
AcDbBlockBegin
2
*D11
70
1
10
0
20
0
3
*D11
1

0
LINE
5
171
100
AcDbEntity
8
DIMENSION
6
CONTINUOUS
62
7
370
0
100
AcDbLine
10
9.33318467028
20
1.5905511811
11
9.33318467028
21
-1
0
SOLID
5
172
100
AcDbEntity
8
DIMENSION
6
CONTINUOUS
62
7
370
0
100
AcDbTrace
10
9.33318467028
20
0.590551181102
30
0
11
9.24992773872
21
1.0905511811
31
0
12
9.41644160183
22
1.0905511811
32
0
13
9.41644160183
23
1.0905511811
33
0
0
SOLID
5
173
100
AcDbEntity
8
DIMENSION
6
CONTINUOUS
62
7
370
0
100
AcDbTrace
10
9.33318467028
20
5.11077537465e-15
30
0
11
9.41644160183
21
-0.5
31
0
12
9.24992773872
22
-0.5
32
0
13
9.24992773872
23
-0.5
33
0
0
MTEXT
5
174
100
AcDbEntity
8
DIMENSION
6
CONTINUOUS
62
7
370
0
100
AcDbMText
10
9.07068467028
20
1.57527340332
30
0
40
0.5
41
1.94444444444
71
5
72
1
1
0.5906
7
standard
210
0
220
0
230
1
50
90
73
2
44
1
0
LINE
5
175
100
AcDbEntity
8
DIMENSION
6
CONTINUOUS
62
7
370
0
100
AcDbLine
10
9.98159448819
20
0.590551181102
11
9.30818467028
21
0.590551181102
0
LINE
5
176
100
AcDbEntity
8
DIMENSION
6
CONTINUOUS
62
7
370
0
100
AcDbLine
10
0.2375
20
5.59635544897e-15
11
9.30818467028
21
5.11383689053e-15
0
ENDBLK
5
9E
330
9C
100
AcDbEntity
8
0
100
AcDbBlockEnd
0
BLOCK
5
A0
330
9F
100
AcDbEntity
8
0
100
AcDbBlockBegin
2
*D19
70
1
10
0
20
0
3
*D19
1

0
LINE
5
177
100
AcDbEntity
8
DIMENSION
6
CONTINUOUS
62
7
370
0
100
AcDbLine
10
31.8100393701
20
4.72902312992
11
33.0600393701
21
4.72902312992
0
SOLID
5
178
100
AcDbEntity
8
DIMENSION
6
CONTINUOUS
62
7
370
0
100
AcDbTrace
10
31.8100393701
20
4.72902312992
30
0
11
32.3100393701
21
4.81228006148
31
0
12
32.3100393701
22
4.64576619837
32
0
13
32.3100393701
23
4.64576619837
33
0
0
SOLID
5
179
100
AcDbEntity
8
DIMENSION
6
CONTINUOUS
62
7
370
0
100
AcDbTrace
10
33.0600393701
20
4.72902312992
30
0
11
32.5600393701
21
4.64576619837
31
0
12
32.5600393701
22
4.81228006148
32
0
13
32.5600393701
23
4.81228006148
33
0
0
MTEXT
5
17A
100
AcDbEntity
8
DIMENSION
6
CONTINUOUS
62
7
370
0
100
AcDbMText
10
32.4350393701
20
4.99152312992
30
0
40
0.5
41
1.05555555556
71
5
72
1
1
1.25
7
standard
210
0
220
0
230
1
50
0
73
2
44
1
0
LINE
5
17B
100
AcDbEntity
8
DIMENSION
6
CONTINUOUS
62
7
370
0
100
AcDbLine
10
31.8100393701
20
5.7749015748
11
31.8100393701
21
4.70402312992
0
LINE
5
17C
100
AcDbEntity
8
DIMENSION
6
CONTINUOUS
62
7
370
0
100
AcDbLine
10
33.0600393701
20
5.7749015748
11
33.0600393701
21
4.70402312992
0
ENDBLK
5
A1
330
9F
100
AcDbEntity
8
0
100
AcDbBlockEnd
0
BLOCK
5
A3
330
A2
100
AcDbEntity
8
0
100
AcDbBlockBegin
2
*D15
70
1
10
0
20
0
3
*D15
1

0
LINE
5
17D
100
AcDbEntity
8
DIMENSION
6
CONTINUOUS
62
7
370
0
100
AcDbLine
10
31.4507874016
20
1.00787401575
11
33.4192913386
21
1.00787401575
0
SOLID
5
17E
100
AcDbEntity
8
DIMENSION
6
CONTINUOUS
62
7
370
0
100
AcDbTrace
10
31.4507874016
20
1.00787401575
30
0
11
31.9507874016
21
1.0911309473
31
0
12
31.9507874016
22
0.924617084193
32
0
13
31.9507874016
23
0.924617084193
33
0
0
SOLID
5
17F
100
AcDbEntity
8
DIMENSION
6
CONTINUOUS
62
7
370
0
100
AcDbTrace
10
33.4192913386
20
1.00787401575
30
0
11
32.9192913386
21
0.924617084193
31
0
12
32.9192913386
22
1.0911309473
32
0
13
32.9192913386
23
1.0911309473
33
0
0
MTEXT
5
180
100
AcDbEntity
8
DIMENSION
6
CONTINUOUS
62
7
370
0
100
AcDbMText
10
32.4350393701
20
1.27037401575
30
0
40
0.5
41
1.83333333333
71
5
72
1
1
1.9685
7
standard
210
0
220
0
230
1
50
0
73
2
44
1
0
LINE
5
181
100
AcDbEntity
8
DIMENSION
6
CONTINUOUS
62
7
370
0
100
AcDbLine
10
31.4507874016
20
0.721161417323
11
31.4507874016
21
1.03287401575
0
LINE
5
182
100
AcDbEntity
8
DIMENSION
6
CONTINUOUS
62
7
370
0
100
AcDbLine
10
33.4192913386
20
0.721161417323
11
33.4192913386
21
1.03287401575
0
ENDBLK
5
A4
330
A2
100
AcDbEntity
8
0
100
AcDbBlockEnd
0
BLOCK
5
A6
330
A5
100
AcDbEntity
8
0
100
AcDbBlockBegin
2
*D20
70
1
10
0
20
0
3
*D20
1

0
LINE
5
183
100
AcDbEntity
8
DIMENSION
6
CONTINUOUS
62
7
370
0
100
AcDbLine
10
9.99409448819
20
6.42070620079
11
11.9625984252
21
6.42070620079
0
SOLID
5
184
100
AcDbEntity
8
DIMENSION
6
CONTINUOUS
62
7
370
0
100
AcDbTrace
10
9.99409448819
20
6.42070620079
30
0
11
10.4940944882
21
6.50396313234
31
0
12
10.4940944882
22
6.33744926923
32
0
13
10.4940944882
23
6.33744926923
33
0
0
SOLID
5
185
100
AcDbEntity
8
DIMENSION
6
CONTINUOUS
62
7
370
0
100
AcDbTrace
10
11.9625984252
20
6.42070620079
30
0
11
11.4625984252
21
6.33744926923
31
0
12
11.4625984252
22
6.50396313234
32
0
13
11.4625984252
23
6.50396313234
33
0
0
MTEXT
5
186
100
AcDbEntity
8
DIMENSION
6
CONTINUOUS
62
7
370
0
100
AcDbMText
10
10.9783464567
20
6.68320620079
30
0
40
0.5
41
1.83333333333
71
5
72
1
1
1.9685
7
standard
210
0
220
0
230
1
50
0
73
2
44
1
0
LINE
5
187
100
AcDbEntity
8
DIMENSION
6
CONTINUOUS
62
7
370
0
100
AcDbLine
10
9.99409448819
20
7.15285433071
11
9.99409448819
21
6.39570620079
0
LINE
5
188
100
AcDbEntity
8
DIMENSION
6
CONTINUOUS
62
7
370
0
100
AcDbLine
10
11.9625984252
20
7.15285433071
11
11.9625984252
21
6.39570620079
0
ENDBLK
5
A7
330
A5
100
AcDbEntity
8
0
100
AcDbBlockEnd
0
BLOCK
5
A9
330
A8
100
AcDbEntity
8
0
100
AcDbBlockBegin
2
*D4
70
1
10
0
20
0
3
*D4
1

0
LINE
5
189
100
AcDbEntity
8
DIMENSION
6
CONTINUOUS
62
7
370
0
100
AcDbLine
10
46.2522453248
20
0
11
46.2522453248
21
8.12401574803
0
SOLID
5
18A
100
AcDbEntity
8
DIMENSION
6
CONTINUOUS
62
7
370
0
100
AcDbTrace
10
46.2522453248
20
0
30
0
11
46.1689883932
21
0.5
31
0
12
46.3355022564
22
0.5
32
0
13
46.3355022564
23
0.5
33
0
0
SOLID
5
18B
100
AcDbEntity
8
DIMENSION
6
CONTINUOUS
62
7
370
0
100
AcDbTrace
10
46.2522453248
20
8.12401574803
30
0
11
46.3355022564
21
7.62401574803
31
0
12
46.1689883932
22
7.62401574803
32
0
13
46.1689883932
23
7.62401574803
33
0
0
MTEXT
5
18C
100
AcDbEntity
8
DIMENSION
6
CONTINUOUS
62
7
370
0
100
AcDbMText
10
45.9897453248
20
4.06200787402
30
0
40
0.5
41
1.5
71
5
72
1
1
8.124
7
standard
210
0
220
0
230
1
50
90
73
2
44
1
0
LINE
5
18D
100
AcDbEntity
8
DIMENSION
6
CONTINUOUS
62
7
370
0
100
AcDbLine
10
43.4258858268
20
0
11
46.2772453248
21
0
0
LINE
5
18E
100
AcDbEntity
8
DIMENSION
6
CONTINUOUS
62
7
370
0
100
AcDbLine
10
43.4258858268
20
8.12401574803
11
46.2772453248
21
8.12401574803
0
ENDBLK
5
AA
330
A8
100
AcDbEntity
8
0
100
AcDbBlockEnd
0
BLOCK
5
AC
330
AB
100
AcDbEntity
8
0
100
AcDbBlockBegin
2
*D40
70
1
10
0
20
0
3
*D40
1

0
LINE
5
18F
100
AcDbEntity
8
DIMENSION
6
CONTINUOUS
62
7
370
0
100
AcDbLine
10
0.25
20
8.57375738189
11
10.9783464567
21
8.57375738189
0
SOLID
5
190
100
AcDbEntity
8
DIMENSION
6
CONTINUOUS
62
7
370
0
100
AcDbTrace
10
0.25
20
8.57375738189
30
0
11
0.75
21
8.65701431344
31
0
12
0.75
22
8.49050045034
32
0
13
0.75
23
8.49050045034
33
0
0
SOLID
5
191
100
AcDbEntity
8
DIMENSION
6
CONTINUOUS
62
7
370
0
100
AcDbTrace
10
10.9783464567
20
8.57375738189
30
0
11
10.4783464567
21
8.49050045034
31
0
12
10.4783464567
22
8.65701431344
32
0
13
10.4783464567
23
8.65701431344
33
0
0
MTEXT
5
192
100
AcDbEntity
8
DIMENSION
6
CONTINUOUS
62
7
370
0
100
AcDbMText
10
5.61417322835
20
8.83625738189
30
0
40
0.5
41
2.22222222222
71
5
72
1
1
10.7283
7
standard
210
0
220
0
230
1
50
0
73
2
44
1
0
LINE
5
193
100
AcDbEntity
8
DIMENSION
6
CONTINUOUS
62
7
370
0
100
AcDbLine
10
0.25
20
7.88651574803
11
0.25
21
8.59875738189
0
LINE
5
194
100
AcDbEntity
8
DIMENSION
6
CONTINUOUS
62
7
370
0
100
AcDbLine
10
10.9783464567
20
7.41407480315
11
10.9783464567
21
8.59875738189
0
ENDBLK
5
AD
330
AB
100
AcDbEntity
8
0
100
AcDbBlockEnd
0
BLOCK
5
AF
330
AE
100
AcDbEntity
8
0
100
AcDbBlockBegin
2
*D5
70
1
10
0
20
0
3
*D5
1

0
LINE
5
195
100
AcDbEntity
8
DIMENSION
6
CONTINUOUS
62
7
370
0
100
AcDbLine
10
-0.277559055118
20
2.33267716535
11
1.95866141732
21
2.33267716535
0
SOLID
5
196
100
AcDbEntity
8
DIMENSION
6
CONTINUOUS
62
7
370
0
100
AcDbTrace
10
0.722440944882
20
2.33267716535
30
0
11
0.222440944882
21
2.2494202338
31
0
12
0.222440944882
22
2.41593409691
32
0
13
0.222440944882
23
2.41593409691
33
0
0
SOLID
5
197
100
AcDbEntity
8
DIMENSION
6
CONTINUOUS
62
7
370
0
100
AcDbTrace
10
0.958661417323
20
2.33267716535
30
0
11
1.45866141732
21
2.41593409691
31
0
12
1.45866141732
22
2.2494202338
32
0
13
1.45866141732
23
2.2494202338
33
0
0
MTEXT
5
198
100
AcDbEntity
8
DIMENSION
6
CONTINUOUS
62
7
370
0
100
AcDbMText
10
1.94338363955
20
2.59517716535
30
0
40
0.5
41
1.94444444444
71
5
72
1
1
0.2362
7
standard
210
0
220
0
230
1
50
0
73
2
44
1
0
LINE
5
199
100
AcDbEntity
8
DIMENSION
6
CONTINUOUS
62
7
370
0
100
AcDbLine
10
0.722440944882
20
2.94025590551
11
0.722440944882
21
2.30767716535
0
LINE
5
19A
100
AcDbEntity
8
DIMENSION
6
CONTINUOUS
62
7
370
0
100
AcDbLine
10
0.958661417323
20
2.94025590551
11
0.958661417323
21
2.30767716535
0
ENDBLK
5
B0
330
AE
100
AcDbEntity
8
0
100
AcDbBlockEnd
0
BLOCK
5
B2
330
B1
100
AcDbEntity
8
0
100
AcDbBlockBegin
2
*D39
70
1
10
0
20
0
3
*D39
1

0
LINE
5
19B
100
AcDbEntity
8
DIMENSION
6
CONTINUOUS
62
7
370
0
100
AcDbLine
10
41.0767716535
20
6.78211122047
11
43.1633858268
21
6.78211122047
0
SOLID
5
19C
100
AcDbEntity
8
DIMENSION
6
CONTINUOUS
62
7
370
0
100
AcDbTrace
10
41.0767716535
20
6.78211122047
30
0
11
41.5767716535
21
6.86536815203
31
0
12
41.5767716535
22
6.69885428892
32
0
13
41.5767716535
23
6.69885428892
33
0
0
SOLID
5
19D
100
AcDbEntity
8
DIMENSION
6
CONTINUOUS
62
7
370
0
100
AcDbTrace
10
43.1633858268
20
6.78211122047
30
0
11
42.6633858268
21
6.69885428892
31
0
12
42.6633858268
22
6.86536815203
32
0
13
42.6633858268
23
6.86536815203
33
0
0
MTEXT
5
19E
100
AcDbEntity
8
DIMENSION
6
CONTINUOUS
62
7
370
0
100
AcDbMText
10
42.1200787402
20
7.04461122047
30
0
40
0.5
41
1.94444444444
71
5
72
1
1
2.0866
7
standard
210
0
220
0
230
1
50
0
73
2
44
1
0
LINE
5
19F
100
AcDbEntity
8
DIMENSION
6
CONTINUOUS
62
7
370
0
100
AcDbLine
10
41.0767716535
20
4.57450787402
11
41.0767716535
21
6.80711122047
0
LINE
5
1A0
100
AcDbEntity
8
DIMENSION
6
CONTINUOUS
62
7
370
0
100
AcDbLine
10
43.1633858268
20
7.88651574803
11
43.1633858268
21
6.80711122047
0
ENDBLK
5
B3
330
B1
100
AcDbEntity
8
0
100
AcDbBlockEnd
0
BLOCK
5
B5
330
B4
100
AcDbEntity
8
0
100
AcDbBlockBegin
2
*D17
70
1
10
0
20
0
3
*D17
1

0
LINE
5
1A1
100
AcDbEntity
8
DIMENSION
6
CONTINUOUS
62
7
370
0
100
AcDbLine
10
31.8100393701
20
2.69131397638
11
33.0600393701
21
2.69131397638
0
SOLID
5
1A2
100
AcDbEntity
8
DIMENSION
6
CONTINUOUS
62
7
370
0
100
AcDbTrace
10
31.8100393701
20
2.69131397638
30
0
11
32.3100393701
21
2.77457090793
31
0
12
32.3100393701
22
2.60805704482
32
0
13
32.3100393701
23
2.60805704482
33
0
0
SOLID
5
1A3
100
AcDbEntity
8
DIMENSION
6
CONTINUOUS
62
7
370
0
100
AcDbTrace
10
33.0600393701
20
2.69131397638
30
0
11
32.5600393701
21
2.60805704482
31
0
12
32.5600393701
22
2.77457090793
32
0
13
32.5600393701
23
2.77457090793
33
0
0
MTEXT
5
1A4
100
AcDbEntity
8
DIMENSION
6
CONTINUOUS
62
7
370
0
100
AcDbMText
10
32.4350393701
20
2.95381397638
30
0
40
0.5
41
1.05555555556
71
5
72
1
1
1.25
7
standard
210
0
220
0
230
1
50
0
73
2
44
1
0
LINE
5
1A5
100
AcDbEntity
8
DIMENSION
6
CONTINUOUS
62
7
370
0
100
AcDbLine
10
31.8100393701
20
2.09911417323
11
31.8100393701
21
2.71631397638
0
LINE
5
1A6
100
AcDbEntity
8
DIMENSION
6
CONTINUOUS
62
7
370
0
100
AcDbLine
10
33.0600393701
20
2.09911417323
11
33.0600393701
21
2.71631397638
0
ENDBLK
5
B6
330
B4
100
AcDbEntity
8
0
100
AcDbBlockEnd
0
BLOCK
5
B8
330
B7
100
AcDbEntity
8
0
100
AcDbBlockBegin
2
*D6
70
1
10
0
20
0
3
*D6
1

0
LINE
5
1A7
100
AcDbEntity
8
DIMENSION
6
CONTINUOUS
62
7
370
0
100
AcDbLine
10
-0.75
20
5.38262795276
11
1.8405511811
21
5.38262795276
0
SOLID
5
1A8
100
AcDbEntity
8
DIMENSION
6
CONTINUOUS
62
7
370
0
100
AcDbTrace
10
0.25
20
5.38262795276
30
0
11
-0.25
21
5.2993710212
31
0
12
-0.25
22
5.46588488431
32
0
13
-0.25
23
5.46588488431
33
0
0
SOLID
5
1A9
100
AcDbEntity
8
DIMENSION
6
CONTINUOUS
62
7
370
0
100
AcDbTrace
10
0.840551181102
20
5.38262795276
30
0
11
1.3405511811
21
5.46588488431
31
0
12
1.3405511811
22
5.2993710212
32
0
13
1.3405511811
23
5.2993710212
33
0
0
MTEXT
5
1AA
100
AcDbEntity
8
DIMENSION
6
CONTINUOUS
62
7
370
0
100
AcDbMText
10
1.82527340332
20
5.64512795276
30
0
40
0.5
41
1.94444444444
71
5
72
1
1
0.5906
7
standard
210
0
220
0
230
1
50
0
73
2
44
1
0
LINE
5
1AB
100
AcDbEntity
8
DIMENSION
6
CONTINUOUS
62
7
370
0
100
AcDbLine
10
0.25
20
7.86151574803
11
0.25
21
5.35762795276
0
LINE
5
1AC
100
AcDbEntity
8
DIMENSION
6
CONTINUOUS
62
7
370
0
100
AcDbLine
10
0.840551181102
20
4.90875984252
11
0.840551181102
21
5.35762795276
0
ENDBLK
5
B9
330
B7
100
AcDbEntity
8
0
100
AcDbBlockEnd
0
BLOCK
5
BB
330
BA
100
AcDbEntity
8
0
100
AcDbBlockBegin
2
*D8
70
1
10
0
20
0
3
*D8
1

0
LINE
5
1AD
100
AcDbEntity
8
DIMENSION
6
CONTINUOUS
62
7
370
0
100
AcDbLine
10
3.55647145669
20
4.56200787402
11
3.55647145669
21
3.31200787402
0
SOLID
5
1AE
100
AcDbEntity
8
DIMENSION
6
CONTINUOUS
62
7
370
0
100
AcDbTrace
10
3.55647145669
20
4.56200787402
30
0
11
3.63972838825
21
4.06200787402
31
0
12
3.47321452514
22
4.06200787402
32
0
13
3.47321452514
23
4.06200787402
33
0
0
SOLID
5
1AF
100
AcDbEntity
8
DIMENSION
6
CONTINUOUS
62
7
370
0
100
AcDbTrace
10
3.55647145669
20
3.31200787402
30
0
11
3.47321452514
21
3.81200787402
31
0
12
3.63972838825
22
3.81200787402
32
0
13
3.63972838825
23
3.81200787402
33
0
0
MTEXT
5
1B0
100
AcDbEntity
8
DIMENSION
6
CONTINUOUS
62
7
370
0
100
AcDbMText
10
3.29397145669
20
3.93700787402
30
0
40
0.5
41
1.05555555556
71
5
72
1
1
1.25
7
standard
210
0
220
0
230
1
50
90
73
2
44
1
0
LINE
5
1B1
100
AcDbEntity
8
DIMENSION
6
CONTINUOUS
62
7
370
0
100
AcDbLine
10
2.34911417323
20
4.56200787402
11
3.58147145669
21
4.56200787402
0
LINE
5
1B2
100
AcDbEntity
8
DIMENSION
6
CONTINUOUS
62
7
370
0
100
AcDbLine
10
2.34911417323
20
3.31200787402
11
3.58147145669
21
3.31200787402
0
ENDBLK
5
BC
330
BA
100
AcDbEntity
8
0
100
AcDbBlockEnd
0
BLOCK
5
BE
330
BD
100
AcDbEntity
8
0
100
AcDbBlockBegin
2
*D3
70
1
10
0
20
0
3
*D3
1

0
LINE
5
1B3
100
AcDbEntity
8
DIMENSION
6
CONTINUOUS
62
7
370
0
100
AcDbLine
10
45.0027066929
20
7.87401574803
11
45.0027066929
21
-1.30691608017e-16
0
SOLID
5
1B4
100
AcDbEntity
8
DIMENSION
6
CONTINUOUS
62
7
370
0
100
AcDbTrace
10
45.0027066929
20
7.87401574803
30
0
11
45.0859636245
21
7.37401574803
31
0
12
44.9194497614
22
7.37401574803
32
0
13
44.9194497614
23
7.37401574803
33
0
0
SOLID
5
1B5
100
AcDbEntity
8
DIMENSION
6
CONTINUOUS
62
7
370
0
100
AcDbTrace
10
45.0027066929
20
-1.30691608017e-16
30
0
11
44.9194497614
21
0.5
31
0
12
45.0859636245
22
0.5
32
0
13
45.0859636245
23
0.5
33
0
0
MTEXT
5
1B6
100
AcDbEntity
8
DIMENSION
6
CONTINUOUS
62
7
370
0
100
AcDbMText
10
44.7402066929
20
3.93700787402
30
0
40
0.5
41
1.61111111111
71
5
72
1
1
7.874
7
standard
210
0
220
0
230
1
50
90
73
2
44
1
0
LINE
5
1B7
100
AcDbEntity
8
DIMENSION
6
CONTINUOUS
62
7
370
0
100
AcDbLine
10
43.1758858268
20
7.87401574803
11
45.0277066929
21
7.87401574803
0
LINE
5
1B8
100
AcDbEntity
8
DIMENSION
6
CONTINUOUS
62
7
370
0
100
AcDbLine
10
43.1758858268
20
-1.41637461308e-17
11
45.0277066929
21
-1.59019100279e-16
0
ENDBLK
5
BF
330
BD
100
AcDbEntity
8
0
100
AcDbBlockEnd
0
BLOCK
5
C1
330
C0
100
AcDbEntity
8
0
100
AcDbBlockBegin
2
*D34
70
1
10
0
20
0
3
*D34
1

0
LINE
5
1B9
100
AcDbEntity
8
DIMENSION
6
CONTINUOUS
62
7
370
0
100
AcDbLine
10
-1.32480314961
20
9.12401574803
11
-1.32480314961
21
6.87401574803
0
SOLID
5
1BA
100
AcDbEntity
8
DIMENSION
6
CONTINUOUS
62
7
370
0
100
AcDbTrace
10
-1.32480314961
20
8.12401574803
30
0
11
-1.40806008116
21
8.62401574803
31
0
12
-1.24154621805
22
8.62401574803
32
0
13
-1.24154621805
23
8.62401574803
33
0
0
SOLID
5
1BB
100
AcDbEntity
8
DIMENSION
6
CONTINUOUS
62
7
370
0
100
AcDbTrace
10
-1.32480314961
20
7.87401574803
30
0
11
-1.24154621805
21
7.37401574803
31
0
12
-1.40806008116
22
7.37401574803
32
0
13
-1.40806008116
23
7.37401574803
33
0
0
MTEXT
5
1BC
100
AcDbEntity
8
DIMENSION
6
CONTINUOUS
62
7
370
0
100
AcDbMText
10
-1.58730314961
20
8.71984908136
30
0
40
0.5
41
1.16666666667
71
5
72
1
1
0.25
7
standard
210
0
220
0
230
1
50
90
73
2
44
1
0
LINE
5
1BD
100
AcDbEntity
8
DIMENSION
6
CONTINUOUS
62
7
370
0
100
AcDbLine
10
-0.0125
20
8.12401574803
11
-1.34980314961
21
8.12401574803
0
LINE
5
1BE
100
AcDbEntity
8
DIMENSION
6
CONTINUOUS
62
7
370
0
100
AcDbLine
10
0.2375
20
7.87401574803
11
-1.34980314961
21
7.87401574803
0
ENDBLK
5
C2
330
C0
100
AcDbEntity
8
0
100
AcDbBlockEnd
0
BLOCK
5
C4
330
C3
100
AcDbEntity
8
0
100
AcDbBlockBegin
2
*D14
70
1
10
0
20
0
3
*D14
1

0
LINE
5
1BF
100
AcDbEntity
8
DIMENSION
6
CONTINUOUS
62
7
370
0
100
AcDbLine
10
9.99409448819
20
1.24953863189
11
11.9625984252
21
1.24953863189
0
SOLID
5
1C0
100
AcDbEntity
8
DIMENSION
6
CONTINUOUS
62
7
370
0
100
AcDbTrace
10
9.99409448819
20
1.24953863189
30
0
11
10.4940944882
21
1.33279556344
31
0
12
10.4940944882
22
1.16628170034
32
0
13
10.4940944882
23
1.16628170034
33
0
0
SOLID
5
1C1
100
AcDbEntity
8
DIMENSION
6
CONTINUOUS
62
7
370
0
100
AcDbTrace
10
11.9625984252
20
1.24953863189
30
0
11
11.4625984252
21
1.16628170034
31
0
12
11.4625984252
22
1.33279556344
32
0
13
11.4625984252
23
1.33279556344
33
0
0
MTEXT
5
1C2
100
AcDbEntity
8
DIMENSION
6
CONTINUOUS
62
7
370
0
100
AcDbMText
10
10.9783464567
20
1.51203863189
30
0
40
0.5
41
1.83333333333
71
5
72
1
1
1.9685
7
standard
210
0
220
0
230
1
50
0
73
2
44
1
0
LINE
5
1C3
100
AcDbEntity
8
DIMENSION
6
CONTINUOUS
62
7
370
0
100
AcDbLine
10
9.99409448819
20
0.721161417323
11
9.99409448819
21
1.27453863189
0
LINE
5
1C4
100
AcDbEntity
8
DIMENSION
6
CONTINUOUS
62
7
370
0
100
AcDbLine
10
11.9625984252
20
0.721161417323
11
11.9625984252
21
1.27453863189
0
ENDBLK
5
C5
330
C3
100
AcDbEntity
8
0
100
AcDbBlockEnd
0
BLOCK
5
C7
330
C6
100
AcDbEntity
8
0
100
AcDbBlockBegin
2
*D24
70
1
10
0
20
0
3
*D24
1

0
LINE
5
1C5
100
AcDbEntity
8
DIMENSION
6
CONTINUOUS
62
7
370
0
100
AcDbLine
10
13.3220964567
20
8.40157480315
11
13.3220964567
21
6.16535433071
0
SOLID
5
1C6
100
AcDbEntity
8
DIMENSION
6
CONTINUOUS
62
7
370
0
100
AcDbTrace
10
13.3220964567
20
7.40157480315
30
0
11
13.2388395251
21
7.90157480315
31
0
12
13.4053533882
22
7.90157480315
32
0
13
13.4053533882
23
7.90157480315
33
0
0
SOLID
5
1C7
100
AcDbEntity
8
DIMENSION
6
CONTINUOUS
62
7
370
0
100
AcDbTrace
10
13.3220964567
20
7.16535433071
30
0
11
13.4053533882
21
6.66535433071
31
0
12
13.2388395251
22
6.66535433071
32
0
13
13.2388395251
23
6.66535433071
33
0
0
MTEXT
5
1C8
100
AcDbEntity
8
DIMENSION
6
CONTINUOUS
62
7
370
0
100
AcDbMText
10
13.0595964567
20
8.38629702537
30
0
40
0.5
41
1.94444444444
71
5
72
1
1
0.2362
7
standard
210
0
220
0
230
1
50
90
73
2
44
1
0
LINE
5
1C9
100
AcDbEntity
8
DIMENSION
6
CONTINUOUS
62
7
370
0
100
AcDbLine
10
11.9750984252
20
7.40157480315
11
13.3470964567
21
7.40157480315
0
LINE
5
1CA
100
AcDbEntity
8
DIMENSION
6
CONTINUOUS
62
7
370
0
100
AcDbLine
10
11.9750984252
20
7.16535433071
11
13.3470964567
21
7.16535433071
0
ENDBLK
5
C8
330
C6
100
AcDbEntity
8
0
100
AcDbBlockEnd
0
BLOCK
5
CA
330
C9
100
AcDbEntity
8
0
100
AcDbBlockBegin
2
*D10
70
1
10
0
20
0
3
*D10
1

0
LINE
5
1CB
100
AcDbEntity
8
DIMENSION
6
CONTINUOUS
62
7
370
0
100
AcDbLine
10
12.7677952756
20
1.70866141732
11
12.7677952756
21
-0.527559055118
0
SOLID
5
1CC
100
AcDbEntity
8
DIMENSION
6
CONTINUOUS
62
7
370
0
100
AcDbTrace
10
12.7677952756
20
0.708661417323
30
0
11
12.684538344
21
1.20866141732
31
0
12
12.8510522071
22
1.20866141732
32
0
13
12.8510522071
23
1.20866141732
33
0
0
SOLID
5
1CD
100
AcDbEntity
8
DIMENSION
6
CONTINUOUS
62
7
370
0
100
AcDbTrace
10
12.7677952756
20
0.472440944882
30
0
11
12.8510522071
21
-0.0275590551181
31
0
12
12.684538344
22
-0.0275590551181
32
0
13
12.684538344
23
-0.0275590551181
33
0
0
MTEXT
5
1CE
100
AcDbEntity
8
DIMENSION
6
CONTINUOUS
62
7
370
0
100
AcDbMText
10
12.5052952756
20
1.69338363955
30
0
40
0.5
41
1.94444444444
71
5
72
1
1
0.2362
7
standard
210
0
220
0
230
1
50
90
73
2
44
1
0
LINE
5
1CF
100
AcDbEntity
8
DIMENSION
6
CONTINUOUS
62
7
370
0
100
AcDbLine
10
11.9750984252
20
0.708661417323
11
12.7927952756
21
0.708661417323
0
LINE
5
1D0
100
AcDbEntity
8
DIMENSION
6
CONTINUOUS
62
7
370
0
100
AcDbLine
10
11.9750984252
20
0.472440944882
11
12.7927952756
21
0.472440944882
0
ENDBLK
5
CB
330
C9
100
AcDbEntity
8
0
100
AcDbBlockEnd
0
BLOCK
5
CD
330
CC
100
AcDbEntity
8
0
100
AcDbBlockBegin
2
*D16
70
1
10
0
20
0
3
*D16
1

0
LINE
5
1D1
100
AcDbEntity
8
DIMENSION
6
CONTINUOUS
62
7
370
0
100
AcDbLine
10
10.3533464567
20
2.64325479823
11
11.6033464567
21
2.64325479823
0
SOLID
5
1D2
100
AcDbEntity
8
DIMENSION
6
CONTINUOUS
62
7
370
0
100
AcDbTrace
10
10.3533464567
20
2.64325479823
30
0
11
10.8533464567
21
2.72651172978
31
0
12
10.8533464567
22
2.55999786667
32
0
13
10.8533464567
23
2.55999786667
33
0
0
SOLID
5
1D3
100
AcDbEntity
8
DIMENSION
6
CONTINUOUS
62
7
370
0
100
AcDbTrace
10
11.6033464567
20
2.64325479823
30
0
11
11.1033464567
21
2.55999786667
31
0
12
11.1033464567
22
2.72651172978
32
0
13
11.1033464567
23
2.72651172978
33
0
0
MTEXT
5
1D4
100
AcDbEntity
8
DIMENSION
6
CONTINUOUS
62
7
370
0
100
AcDbMText
10
10.9783464567
20
2.90575479823
30
0
40
0.5
41
1.05555555556
71
5
72
1
1
1.25
7
standard
210
0
220
0
230
1
50
0
73
2
44
1
0
LINE
5
1D5
100
AcDbEntity
8
DIMENSION
6
CONTINUOUS
62
7
370
0
100
AcDbLine
10
10.3533464567
20
2.09911417323
11
10.3533464567
21
2.66825479823
0
LINE
5
1D6
100
AcDbEntity
8
DIMENSION
6
CONTINUOUS
62
7
370
0
100
AcDbLine
10
11.6033464567
20
2.09911417323
11
11.6033464567
21
2.66825479823
0
ENDBLK
5
CE
330
CC
100
AcDbEntity
8
0
100
AcDbBlockEnd
0
ENDSEC
0
SECTION
2
ENTITIES
0
LINE
5
1D7
100
AcDbEntity
8
REFERENCE
6
ByLayer
62
256
370
-1
100
AcDbLine
10
43.1633858268
20
7.87401574803
11
0.25
21
7.87401574803
0
LINE
5
1D8
100
AcDbEntity
8
REFERENCE
6
ByLayer
62
256
370
-1
100
AcDbLine
10
0.25
20
7.87401574803
11
0.25
21
5.59482469102e-15
0
LINE
5
1D9
100
AcDbEntity
8
REFERENCE
6
ByLayer
62
256
370
-1
100
AcDbLine
10
0.25
20
5.59482469102e-15
11
43.1633858268
21
0
0
LINE
5
1DA
100
AcDbEntity
8
REFERENCE
6
ByLayer
62
256
370
-1
100
AcDbLine
10
43.1633858268
20
0
11
43.1633858268
21
7.87401574803
0
LINE
5
1DB
100
AcDbEntity
8
ALIGNMENT_POCKET
6
ByLayer
62
256
370
-1
100
AcDbLine
10
0.722440944882
20
2.95275590551
11
0.958661417323
21
2.95275590551
0
LINE
5
1DC
100
AcDbEntity
8
ALIGNMENT_POCKET
6
ByLayer
62
256
370
-1
100
AcDbLine
10
0.958661417323
20
2.95275590551
11
0.958661417323
21
4.92125984252
0
LINE
5
1DD
100
AcDbEntity
8
ALIGNMENT_POCKET
6
ByLayer
62
256
370
-1
100
AcDbLine
10
0.958661417323
20
4.92125984252
11
0.722440944882
21
4.92125984252
0
LINE
5
1DE
100
AcDbEntity
8
ALIGNMENT_POCKET
6
ByLayer
62
256
370
-1
100
AcDbLine
10
0.722440944882
20
4.92125984252
11
0.722440944882
21
2.95275590551
0
LINE
5
1DF
100
AcDbEntity
8
ALIGNMENT_POCKET
6
ByLayer
62
256
370
-1
100
AcDbLine
10
42.4547244094
20
2.95275590551
11
42.6909448819
21
2.95275590551
0
LINE
5
1E0
100
AcDbEntity
8
ALIGNMENT_POCKET
6
ByLayer
62
256
370
-1
100
AcDbLine
10
42.6909448819
20
2.95275590551
11
42.6909448819
21
4.92125984252
0
LINE
5
1E1
100
AcDbEntity
8
ALIGNMENT_POCKET
6
ByLayer
62
256
370
-1
100
AcDbLine
10
42.6909448819
20
4.92125984252
11
42.4547244094
21
4.92125984252
0
LINE
5
1E2
100
AcDbEntity
8
ALIGNMENT_POCKET
6
ByLayer
62
256
370
-1
100
AcDbLine
10
42.4547244094
20
4.92125984252
11
42.4547244094
21
2.95275590551
0
LINE
5
1E3
100
AcDbEntity
8
ALIGNMENT_POCKET
6
ByLayer
62
256
370
-1
100
AcDbLine
10
9.99409448819
20
7.16535433071
11
11.9625984252
21
7.16535433071
0
LINE
5
1E4
100
AcDbEntity
8
ALIGNMENT_POCKET
6
ByLayer
62
256
370
-1
100
AcDbLine
10
31.4507874016
20
7.16535433071
11
33.4192913386
21
7.16535433071
0
LINE
5
1E5
100
AcDbEntity
8
ALIGNMENT_POCKET
6
ByLayer
62
256
370
-1
100
AcDbLine
10
9.99409448819
20
0.472440944882
11
11.9625984252
21
0.472440944882
0
LINE
5
1E6
100
AcDbEntity
8
ALIGNMENT_POCKET
6
ByLayer
62
256
370
-1
100
AcDbLine
10
31.4507874016
20
0.472440944882
11
33.4192913386
21
0.472440944882
0
CIRCLE
5
1E7
100
AcDbEntity
8
6-32_TAP_HOLE
6
ByLayer
62
256
370
-1
100
AcDbCircle
10
2.33661417323
20
4.56200787402
40
0.05325
0
CIRCLE
5
1E8
100
AcDbEntity
8
6-32_TAP_HOLE
6
ByLayer
62
256
370
-1
100
AcDbCircle
10
2.33661417323
20
3.31200787402
40
0.05325
0
CIRCLE
5
1E9
100
AcDbEntity
8
6-32_TAP_HOLE
6
ByLayer
62
256
370
-1
100
AcDbCircle
10
41.0767716535
20
4.56200787402
40
0.05325
0
CIRCLE
5
1EA
100
AcDbEntity
8
6-32_TAP_HOLE
6
ByLayer
62
256
370
-1
100
AcDbCircle
10
41.0767716535
20
3.31200787402
40
0.05325
0
CIRCLE
5
1EB
100
AcDbEntity
8
6-32_TAP_HOLE
6
ByLayer
62
256
370
-1
100
AcDbCircle
10
10.3533464567
20
5.7874015748
40
0.05325
0
CIRCLE
5
1EC
100
AcDbEntity
8
6-32_TAP_HOLE
6
ByLayer
62
256
370
-1
100
AcDbCircle
10
11.6033464567
20
5.7874015748
40
0.05325
0
CIRCLE
5
1ED
100
AcDbEntity
8
6-32_TAP_HOLE
6
ByLayer
62
256
370
-1
100
AcDbCircle
10
31.8100393701
20
5.7874015748
40
0.05325
0
CIRCLE
5
1EE
100
AcDbEntity
8
6-32_TAP_HOLE
6
ByLayer
62
256
370
-1
100
AcDbCircle
10
33.0600393701
20
5.7874015748
40
0.05325
0
CIRCLE
5
1EF
100
AcDbEntity
8
6-32_TAP_HOLE
6
ByLayer
62
256
370
-1
100
AcDbCircle
10
10.3533464567
20
2.08661417323
40
0.05325
0
CIRCLE
5
1F0
100
AcDbEntity
8
6-32_TAP_HOLE
6
ByLayer
62
256
370
-1
100
AcDbCircle
10
11.6033464567
20
2.08661417323
40
0.05325
0
CIRCLE
5
1F1
100
AcDbEntity
8
6-32_TAP_HOLE
6
ByLayer
62
256
370
-1
100
AcDbCircle
10
31.8100393701
20
2.08661417323
40
0.05325
0
CIRCLE
5
1F2
100
AcDbEntity
8
6-32_TAP_HOLE
6
ByLayer
62
256
370
-1
100
AcDbCircle
10
33.0600393701
20
2.08661417323
40
0.05325
0
DIMENSION
5
1F3
100
AcDbEntity
8
DIMENSION
6
ByLayer
62
256
370
-1
100
AcDbDimension
2
*D1
10
43.1633858268
20
-1.12638698788
30
0
11
21.7066929134
21
-0.863886987882
31
0
70
32
71
5
3
Standard
53
0
210
0
220
0
230
1
100
AcDbAlignedDimension
13
0.25
23
5.59482469102e-15
33
0
14
43.1633858268
24
0
34
0
100
AcDbRotatedDimension
0
DIMENSION
5
1F4
100
AcDbEntity
8
DIMENSION
6
ByLayer
62
256
370
-1
100
AcDbDimension
2
*D2
10
43.4133858268
20
-2.37292192114
30
0
11
21.7066929134
21
-2.11042192114
31
0
70
32
71
5
3
Standard
53
0
210
0
220
0
230
1
100
AcDbAlignedDimension
13
2.77555756156e-17
23
5.59482469102e-15
33
0
14
43.4133858268
24
0
34
0
100
AcDbRotatedDimension
0
DIMENSION
5
1F5
100
AcDbEntity
8
DIMENSION
6
ByLayer
62
256
370
-1
100
AcDbDimension
2
*D3
10
45.0027066929
20
-2.25251841133e-16
30
0
11
44.7402066929
21
3.93700787402
31
0
70
32
71
5
3
Standard
53
0
210
0
220
0
230
1
100
AcDbAlignedDimension
13
43.1633858268
23
7.87401574803
33
0
14
43.1633858268
24
0
34
0
50
90
100
AcDbRotatedDimension
0
DIMENSION
5
1F6
100
AcDbEntity
8
DIMENSION
6
ByLayer
62
256
370
-1
100
AcDbDimension
2
*D4
10
46.2522453248
20
8.12401574803
30
0
11
45.9897453248
21
4.06200787402
31
0
70
32
71
5
3
Standard
53
0
210
0
220
0
230
1
100
AcDbAlignedDimension
13
43.4133858268
23
0
33
0
14
43.4133858268
24
8.12401574803
34
0
50
90
100
AcDbRotatedDimension
0
DIMENSION
5
1F7
100
AcDbEntity
8
DIMENSION
6
ByLayer
62
256
370
-1
100
AcDbDimension
2
*D5
10
0.958661417323
20
2.33267716535
30
0
11
0.840551181102
21
2.59517716535
31
0
70
32
71
5
3
Standard
53
0
210
0
220
0
230
1
100
AcDbAlignedDimension
13
0.722440944882
23
2.95275590551
33
0
14
0.958661417323
24
2.95275590551
34
0
100
AcDbRotatedDimension
0
DIMENSION
5
1F8
100
AcDbEntity
8
DIMENSION
6
ByLayer
62
256
370
-1
100
AcDbDimension
2
*D6
10
0.840551181102
20
5.38262795276
30
0
11
0.545275590551
21
5.64512795276
31
0
70
32
71
5
3
Standard
53
0
210
0
220
0
230
1
100
AcDbAlignedDimension
13
0.25
23
7.87401574803
33
0
14
0.840551181102
24
4.92125984252
34
0
100
AcDbRotatedDimension
0
DIMENSION
5
1F9
100
AcDbEntity
8
DIMENSION
6
ByLayer
62
256
370
-1
100
AcDbDimension
2
*D7
10
0.25
20
6.24769315945
30
0
11
1.29330708661
21
6.51019315945
31
0
70
32
71
5
3
Standard
53
0
210
0
220
0
230
1
100
AcDbAlignedDimension
13
2.33661417323
23
4.56200787402
33
0
14
0.25
24
7.87401574803
34
0
100
AcDbRotatedDimension
0
DIMENSION
5
1FA
100
AcDbEntity
8
DIMENSION
6
ByLayer
62
256
370
-1
100
AcDbDimension
2
*D8
10
3.55647145669
20
3.31200787402
30
0
11
3.29397145669
21
3.93700787402
31
0
70
32
71
5
3
Standard
53
0
210
0
220
0
230
1
100
AcDbAlignedDimension
13
2.33661417323
23
4.56200787402
33
0
14
2.33661417323
24
3.31200787402
34
0
50
90
100
AcDbRotatedDimension
0
DIMENSION
5
1FB
100
AcDbEntity
8
DIMENSION
6
ByLayer
62
256
370
-1
100
AcDbDimension
2
*D9
10
-1.76848548228
20
3.93700787402
30
0
11
-2.03098548228
21
1.96850393701
31
0
70
32
71
5
3
Standard
53
0
210
0
220
0
230
1
100
AcDbAlignedDimension
13
0.25
23
5.59482469102e-15
33
0
14
0.722440944882
24
3.93700787402
34
0
50
90
100
AcDbRotatedDimension
0
LINE
5
1FC
100
AcDbEntity
8
ALIGNMENT_POCKET
6
ByLayer
62
256
370
-1
100
AcDbLine
10
11.9625984252
20
0.708661417323
11
9.99409448819
21
0.708661417323
0
LINE
5
1FD
100
AcDbEntity
8
ALIGNMENT_POCKET
6
ByLayer
62
256
370
-1
100
AcDbLine
10
9.99409448819
20
0.708661417323
11
9.99409448819
21
0.472440944882
0
LINE
5
1FE
100
AcDbEntity
8
ALIGNMENT_POCKET
6
ByLayer
62
256
370
-1
100
AcDbLine
10
11.9625984252
20
0.472440944882
11
11.9625984252
21
0.708661417323
0
DIMENSION
5
1FF
100
AcDbEntity
8
DIMENSION
6
ByLayer
62
256
370
-1
100
AcDbDimension
2
*D10
10
12.7677952756
20
0.472440944882
30
0
11
12.5052952756
21
0.590551181102
31
0
70
32
71
5
3
Standard
53
0
210
0
220
0
230
1
100
AcDbAlignedDimension
13
11.9625984252
23
0.708661417323
33
0
14
11.9625984252
24
0.472440944882
34
0
50
90
100
AcDbRotatedDimension
0
DIMENSION
5
200
100
AcDbEntity
8
DIMENSION
6
ByLayer
62
256
370
-1
100
AcDbDimension
2
*D11
10
9.33318467028
20
4.48245538776e-15
30
0
11
9.07068467028
21
0.295275590551
31
0
70
32
71
5
3
Standard
53
0
210
0
220
0
230
1
100
AcDbAlignedDimension
13
9.99409448819
23
0.590551181102
33
0
14
0.25
24
5.59482469102e-15
34
0
50
90
100
AcDbRotatedDimension
0
LINE
5
201
100
AcDbEntity
8
ALIGNMENT_POCKET
6
ByLayer
62
256
370
-1
100
AcDbLine
10
33.4192913386
20
0.708661417323
11
31.4507874016
21
0.708661417323
0
LINE
5
202
100
AcDbEntity
8
ALIGNMENT_POCKET
6
ByLayer
62
256
370
-1
100
AcDbLine
10
31.4507874016
20
0.708661417323
11
31.4507874016
21
0.472440944882
0
LINE
5
203
100
AcDbEntity
8
ALIGNMENT_POCKET
6
ByLayer
62
256
370
-1
100
AcDbLine
10
33.4192913386
20
0.472440944882
11
33.4192913386
21
0.708661417323
0
LINE
5
204
100
AcDbEntity
8
ALIGNMENT_POCKET
6
ByLayer
62
256
370
-1
100
AcDbLine
10
33.4192913386
20
7.40157480315
11
31.4507874016
21
7.40157480315
0
LINE
5
205
100
AcDbEntity
8
ALIGNMENT_POCKET
6
ByLayer
62
256
370
-1
100
AcDbLine
10
31.4507874016
20
7.40157480315
11
31.4507874016
21
7.16535433071
0
LINE
5
206
100
AcDbEntity
8
ALIGNMENT_POCKET
6
ByLayer
62
256
370
-1
100
AcDbLine
10
33.4192913386
20
7.16535433071
11
33.4192913386
21
7.40157480315
0
LINE
5
207
100
AcDbEntity
8
ALIGNMENT_POCKET
6
ByLayer
62
256
370
-1
100
AcDbLine
10
11.9625984252
20
7.40157480315
11
9.99409448819
21
7.40157480315
0
LINE
5
208
100
AcDbEntity
8
ALIGNMENT_POCKET
6
ByLayer
62
256
370
-1
100
AcDbLine
10
11.9625984252
20
7.16535433071
11
11.9625984252
21
7.40157480315
0
LINE
5
209
100
AcDbEntity
8
ALIGNMENT_POCKET
6
ByLayer
62
256
370
-1
100
AcDbLine
10
9.99409448819
20
7.40157480315
11
9.99409448819
21
7.16535433071
0
DIMENSION
5
20A
100
AcDbEntity
8
DIMENSION
6
ByLayer
62
256
370
-1
100
AcDbDimension
2
*D12
10
34.9102792815
20
1.01071405137e-15
30
0
11
34.6477792815
21
0.295275590551
31
0
70
32
71
5
3
Standard
53
0
210
0
220
0
230
1
100
AcDbAlignedDimension
13
33.4192913386
23
0.590551181102
33
0
14
43.1633858268
24
0
34
0
50
90
100
AcDbRotatedDimension
0
DIMENSION
5
20B
100
AcDbEntity
8
DIMENSION
6
ByLayer
62
256
370
-1
100
AcDbDimension
2
*D13
10
1.61488065945
20
2.95275590551
30
0
11
1.35238065945
21
3.93700787402
31
0
70
32
71
5
3
Standard
53
0
210
0
220
0
230
1
100
AcDbAlignedDimension
13
0.958661417323
23
4.92125984252
33
0
14
0.958661417323
24
2.95275590551
34
0
50
90
100
AcDbRotatedDimension
0
DIMENSION
5
20C
100
AcDbEntity
8
DIMENSION
6
ByLayer
62
256
370
-1
100
AcDbDimension
2
*D14
10
11.9625984252
20
1.24953863189
30
0
11
10.9783464567
21
1.51203863189
31
0
70
32
71
5
3
Standard
53
0
210
0
220
0
230
1
100
AcDbAlignedDimension
13
9.99409448819
23
0.708661417323
33
0
14
11.9625984252
24
0.708661417323
34
0
100
AcDbRotatedDimension
0
DIMENSION
5
20D
100
AcDbEntity
8
DIMENSION
6
ByLayer
62
256
370
-1
100
AcDbDimension
2
*D15
10
33.4192913386
20
1.00787401575
30
0
11
32.4350393701
21
1.27037401575
31
0
70
32
71
5
3
Standard
53
0
210
0
220
0
230
1
100
AcDbAlignedDimension
13
31.4507874016
23
0.708661417323
33
0
14
33.4192913386
24
0.708661417323
34
0
100
AcDbRotatedDimension
0
DIMENSION
5
20E
100
AcDbEntity
8
DIMENSION
6
ByLayer
62
256
370
-1
100
AcDbDimension
2
*D16
10
11.6033464567
20
2.64325479823
30
0
11
10.9783464567
21
2.90575479823
31
0
70
32
71
5
3
Standard
53
0
210
0
220
0
230
1
100
AcDbAlignedDimension
13
10.3533464567
23
2.08661417323
33
0
14
11.6033464567
24
2.08661417323
34
0
100
AcDbRotatedDimension
0
DIMENSION
5
20F
100
AcDbEntity
8
DIMENSION
6
ByLayer
62
256
370
-1
100
AcDbDimension
2
*D17
10
33.0600393701
20
2.69131397638
30
0
11
32.4350393701
21
2.95381397638
31
0
70
32
71
5
3
Standard
53
0
210
0
220
0
230
1
100
AcDbAlignedDimension
13
31.8100393701
23
2.08661417323
33
0
14
33.0600393701
24
2.08661417323
34
0
100
AcDbRotatedDimension
0
DIMENSION
5
210
100
AcDbEntity
8
DIMENSION
6
ByLayer
62
256
370
-1
100
AcDbDimension
2
*D18
10
11.6033464567
20
5
30
0
11
10.9783464567
21
5.2625
31
0
70
32
71
5
3
Standard
53
0
210
0
220
0
230
1
100
AcDbAlignedDimension
13
10.3533464567
23
5.7874015748
33
0
14
11.6033464567
24
5.7874015748
34
0
100
AcDbRotatedDimension
0
DIMENSION
5
211
100
AcDbEntity
8
DIMENSION
6
ByLayer
62
256
370
-1
100
AcDbDimension
2
*D19
10
33.0600393701
20
4.72902312992
30
0
11
32.4350393701
21
4.99152312992
31
0
70
32
71
5
3
Standard
53
0
210
0
220
0
230
1
100
AcDbAlignedDimension
13
31.8100393701
23
5.7874015748
33
0
14
33.0600393701
24
5.7874015748
34
0
100
AcDbRotatedDimension
0
DIMENSION
5
212
100
AcDbEntity
8
DIMENSION
6
ByLayer
62
256
370
-1
100
AcDbDimension
2
*D20
10
11.9625984252
20
6.42070620079
30
0
11
10.9783464567
21
6.68320620079
31
0
70
32
71
5
3
Standard
53
0
210
0
220
0
230
1
100
AcDbAlignedDimension
13
9.99409448819
23
7.16535433071
33
0
14
11.9625984252
24
7.16535433071
34
0
100
AcDbRotatedDimension
0
DIMENSION
5
213
100
AcDbEntity
8
DIMENSION
6
ByLayer
62
256
370
-1
100
AcDbDimension
2
*D21
10
33.4192913386
20
6.43992987205
30
0
11
32.4350393701
21
6.70242987205
31
0
70
32
71
5
3
Standard
53
0
210
0
220
0
230
1
100
AcDbAlignedDimension
13
31.4507874016
23
7.16535433071
33
0
14
33.4192913386
24
7.16535433071
34
0
100
AcDbRotatedDimension
0
DIMENSION
5
214
100
AcDbEntity
8
DIMENSION
6
ByLayer
62
256
370
-1
100
AcDbDimension
2
*D22
10
30.8636964813
20
7.16535433071
30
0
11
30.6011964813
21
7.28346456693
31
0
70
32
71
5
3
Standard
53
0
210
0
220
0
230
1
100
AcDbAlignedDimension
13
31.4507874016
23
7.40157480315
33
0
14
31.4507874016
24
7.16535433071
34
0
50
90
100
AcDbRotatedDimension
0
DIMENSION
5
215
100
AcDbEntity
8
DIMENSION
6
ByLayer
62
256
370
-1
100
AcDbDimension
2
*D23
10
34.7324603224
20
7.87401574803
30
0
11
34.4699603224
21
7.57874015748
31
0
70
32
71
5
3
Standard
53
0
210
0
220
0
230
1
100
AcDbAlignedDimension
13
33.4192913386
23
7.28346456693
33
0
14
43.1633858268
24
7.87401574803
34
0
50
90
100
AcDbRotatedDimension
0
DIMENSION
5
216
100
AcDbEntity
8
DIMENSION
6
ByLayer
62
256
370
-1
100
AcDbDimension
2
*D24
10
13.3220964567
20
7.16535433071
30
0
11
13.0595964567
21
7.28346456693
31
0
70
32
71
5
3
Standard
53
0
210
0
220
0
230
1
100
AcDbAlignedDimension
13
11.9625984252
23
7.40157480315
33
0
14
11.9625984252
24
7.16535433071
34
0
50
90
100
AcDbRotatedDimension
0
DIMENSION
5
217
100
AcDbEntity
8
DIMENSION
6
ByLayer
62
256
370
-1
100
AcDbDimension
2
*D25
10
9.11091097134
20
7.87401574803
30
0
11
8.84841097134
21
7.57874015748
31
0
70
32
71
5
3
Standard
53
0
210
0
220
0
230
1
100
AcDbAlignedDimension
13
9.99409448819
23
7.28346456693
33
0
14
0.25
24
7.87401574803
34
0
50
90
100
AcDbRotatedDimension
0
DIMENSION
5
218
100
AcDbEntity
8
DIMENSION
6
ByLayer
62
256
370
-1
100
AcDbDimension
2
*D26
10
40.3313545768
20
3.31200787402
30
0
11
40.0688545768
21
3.93700787402
31
0
70
32
71
5
3
Standard
53
0
210
0
220
0
230
1
100
AcDbAlignedDimension
13
41.0767716535
23
4.56200787402
33
0
14
41.0767716535
24
3.31200787402
34
0
50
90
100
AcDbRotatedDimension
0
DIMENSION
5
219
100
AcDbEntity
8
DIMENSION
6
ByLayer
62
256
370
-1
100
AcDbDimension
2
*D27
10
41.7154589075
20
2.95275590551
30
0
11
41.4529589075
21
3.93700787402
31
0
70
32
71
5
3
Standard
53
0
210
0
220
0
230
1
100
AcDbAlignedDimension
13
42.4547244094
23
4.92125984252
33
0
14
42.4547244094
24
2.95275590551
34
0
50
90
100
AcDbRotatedDimension
0
DIMENSION
5
21A
100
AcDbEntity
8
DIMENSION
6
ByLayer
62
256
370
-1
100
AcDbDimension
2
*D28
10
7.81643700787
20
4.66820340476e-15
30
0
11
7.55393700787
21
1.04330708661
31
0
70
32
71
5
3
Standard
53
0
210
0
220
0
230
1
100
AcDbAlignedDimension
13
10.3533464567
23
2.08661417323
33
0
14
0.25
24
5.59482469102e-15
34
0
50
90
100
AcDbRotatedDimension
0
DIMENSION
5
21B
100
AcDbEntity
8
DIMENSION
6
ByLayer
62
256
370
-1
100
AcDbDimension
2
*D29
10
7.81932055858
20
5.7874015748
30
0
11
7.55682055858
21
6.83070866142
31
0
70
32
71
5
3
Standard
53
0
210
0
220
0
230
1
100
AcDbAlignedDimension
13
0.25
23
7.87401574803
33
0
14
10.3533464567
24
5.7874015748
34
0
50
90
100
AcDbRotatedDimension
0
DIMENSION
5
21C
100
AcDbEntity
8
DIMENSION
6
ByLayer
62
256
370
-1
100
AcDbDimension
2
*D30
10
30.8540846457
20
0.472440944882
30
0
11
30.5915846457
21
0.590551181102
31
0
70
32
71
5
3
Standard
53
0
210
0
220
0
230
1
100
AcDbAlignedDimension
13
31.4507874016
23
0.708661417323
33
0
14
31.4507874016
24
0.472440944882
34
0
50
90
100
AcDbRotatedDimension
0
DIMENSION
5
21D
100
AcDbEntity
8
DIMENSION
6
ByLayer
62
256
370
-1
100
AcDbDimension
2
*D31
10
36.6596333661
20
7.96479963335e-16
30
0
11
36.3971333661
21
1.04330708661
31
0
70
32
71
5
3
Standard
53
0
210
0
220
0
230
1
100
AcDbAlignedDimension
13
33.0600393701
23
2.08661417323
33
0
14
43.1633858268
24
0
34
0
50
90
100
AcDbRotatedDimension
0
DIMENSION
5
21E
100
AcDbEntity
8
DIMENSION
6
ByLayer
62
256
370
-1
100
AcDbDimension
2
*D32
10
36.7134596457
20
5.7874015748
30
0
11
36.4509596457
21
6.83070866142
31
0
70
32
71
5
3
Standard
53
0
210
0
220
0
230
1
100
AcDbAlignedDimension
13
43.1633858268
23
7.87401574803
33
0
14
33.0600393701
24
5.7874015748
34
0
50
90
100
AcDbRotatedDimension
0
DIMENSION
5
21F
100
AcDbEntity
8
DIMENSION
6
ByLayer
62
256
370
-1
100
AcDbDimension
2
*D33
10
2.77555756156e-17
20
9.01109590307
30
0
11
0.125
21
9.27359590307
31
0
70
32
71
5
3
Standard
53
0
210
0
220
0
230
1
100
AcDbAlignedDimension
13
0.25
23
7.87401574803
33
0
14
2.77555756156e-17
24
8.12401574803
34
0
100
AcDbRotatedDimension
0
DIMENSION
5
220
100
AcDbEntity
8
DIMENSION
6
ByLayer
62
256
370
-1
100
AcDbDimension
2
*D34
10
-1.32480314961
20
7.87401574803
30
0
11
-1.58730314961
21
7.99901574803
31
0
70
32
71
5
3
Standard
53
0
210
0
220
0
230
1
100
AcDbAlignedDimension
13
2.77555756156e-17
23
8.12401574803
33
0
14
0.25
24
7.87401574803
34
0
50
90
100
AcDbRotatedDimension
0
DIMENSION
5
221
100
AcDbEntity
8
DIMENSION
6
ByLayer
62
256
370
-1
100
AcDbDimension
2
*D35
10
43.4133858268
20
9.48572834646
30
0
11
43.2883858268
21
9.74822834646
31
0
70
32
71
5
3
Standard
53
0
210
0
220
0
230
1
100
AcDbAlignedDimension
13
43.1633858268
23
7.87401574803
33
0
14
43.4133858268
24
8.12401574803
34
0
100
AcDbRotatedDimension
0
DIMENSION
5
222
100
AcDbEntity
8
DIMENSION
6
ByLayer
62
256
370
-1
100
AcDbDimension
2
*D36
10
44.4798228346
20
8.12401574803
30
0
11
44.2173228346
21
7.99901574803
31
0
70
32
71
5
3
Standard
53
0
210
0
220
0
230
1
100
AcDbAlignedDimension
13
43.1633858268
23
7.87401574803
33
0
14
43.4133858268
24
8.12401574803
34
0
50
90
100
AcDbRotatedDimension
0
DIMENSION
5
223
100
AcDbEntity
8
DIMENSION
6
ByLayer
62
256
370
-1
100
AcDbDimension
2
*D37
10
42.6909448819
20
2.10691437008
30
0
11
42.5728346457
21
2.36941437008
31
0
70
32
71
5
3
Standard
53
0
210
0
220
0
230
1
100
AcDbAlignedDimension
13
42.4547244094
23
2.95275590551
33
0
14
42.6909448819
24
2.95275590551
34
0
100
AcDbRotatedDimension
0
DIMENSION
5
224
100
AcDbEntity
8
DIMENSION
6
ByLayer
62
256
370
-1
100
AcDbDimension
2
*D38
10
43.1633858268
20
5.859375
30
0
11
42.8681102362
21
6.121875
31
0
70
32
71
5
3
Standard
53
0
210
0
220
0
230
1
100
AcDbAlignedDimension
13
42.5728346457
23
4.92125984252
33
0
14
43.1633858268
24
7.87401574803
34
0
100
AcDbRotatedDimension
0
DIMENSION
5
225
100
AcDbEntity
8
DIMENSION
6
ByLayer
62
256
370
-1
100
AcDbDimension
2
*D39
10
43.1633858268
20
6.78211122047
30
0
11
42.1200787402
21
7.04461122047
31
0
70
32
71
5
3
Standard
53
0
210
0
220
0
230
1
100
AcDbAlignedDimension
13
41.0767716535
23
4.56200787402
33
0
14
43.1633858268
24
7.87401574803
34
0
100
AcDbRotatedDimension
0
DIMENSION
5
226
100
AcDbEntity
8
DIMENSION
6
ByLayer
62
256
370
-1
100
AcDbDimension
2
*D40
10
10.9783464567
20
8.57375738189
30
0
11
5.61417322835
21
8.83625738189
31
0
70
32
71
5
3
Standard
53
0
210
0
220
0
230
1
100
AcDbAlignedDimension
13
0.25
23
7.87401574803
33
0
14
10.9783464567
24
7.40157480315
34
0
100
AcDbRotatedDimension
0
DIMENSION
5
227
100
AcDbEntity
8
DIMENSION
6
ByLayer
62
256
370
-1
100
AcDbDimension
2
*D41
10
43.1633858268
20
8.64296259843
30
0
11
37.7992125984
21
8.90546259843
31
0
70
32
71
5
3
Standard
53
0
210
0
220
0
230
1
100
AcDbAlignedDimension
13
32.4350393701
23
7.40157480315
33
0
14
43.1633858268
24
7.87401574803
34
0
100
AcDbRotatedDimension
0
DIMENSION
5
228
100
AcDbEntity
8
DIMENSION
6
ByLayer
62
256
370
-1
100
AcDbDimension
2
*D42
10
10.9783464567
20
-0.676673228346
30
0
11
5.61417322835
21
-0.414173228346
31
0
70
32
71
5
3
Standard
53
0
210
0
220
0
230
1
100
AcDbAlignedDimension
13
0.25
23
5.59482469102e-15
33
0
14
10.9783464567
24
0.472440944882
34
0
100
AcDbRotatedDimension
0
DIMENSION
5
229
100
AcDbEntity
8
DIMENSION
6
ByLayer
62
256
370
-1
100
AcDbDimension
2
*D43
10
43.1633858268
20
-0.841035617618
30
0
11
37.7992125984
21
-0.578535617618
31
0
70
32
71
5
3
Standard
53
0
210
0
220
0
230
1
100
AcDbAlignedDimension
13
32.4350393701
23
0.472440944882
33
0
14
43.1633858268
24
0
34
0
100
AcDbRotatedDimension
0
DIMENSION
5
22A
100
AcDbEntity
8
DIMENSION
6
ByLayer
62
256
370
-1
100
AcDbDimension
2
*D44
10
44.2529835138
20
-1.33437231976e-16
30
0
11
43.9904835138
21
1.96850393701
31
0
70
32
71
5
3
Standard
53
0
210
0
220
0
230
1
100
AcDbAlignedDimension
13
42.6909448819
23
3.93700787402
33
0
14
43.1633858268
24
0
34
0
50
90
100
AcDbRotatedDimension
0
ARC
5
22B
100
AcDbEntity
8
OUTER_BOUNDARY
6
ByLayer
62
256
370
-1
100
AcDbCircle
10
0.0625
20
8.06151574803
40
0.0625
100
AcDbArc
50
90
51
180
0
LINE
5
22C
100
AcDbEntity
8
OUTER_BOUNDARY
6
ByLayer
62
256
370
-1
100
AcDbLine
10
0.0625
20
8.12401574803
11
43.3508858268
21
8.12401574803
0
ARC
5
22D
100
AcDbEntity
8
OUTER_BOUNDARY
6
ByLayer
62
256
370
-1
100
AcDbCircle
10
43.3508858268
20
8.06151574803
40
0.0625
100
AcDbArc
50
0
51
90
0
LINE
5
22E
100
AcDbEntity
8
OUTER_BOUNDARY
6
ByLayer
62
256
370
-1
100
AcDbLine
10
43.4133858268
20
8.06151574803
11
43.4133858268
21
0.0625
0
ARC
5
22F
100
AcDbEntity
8
OUTER_BOUNDARY
6
ByLayer
62
256
370
-1
100
AcDbCircle
10
43.3508858268
20
0.0625
40
0.0625
100
AcDbArc
50
270
51
1.22133299768e-12
0
LINE
5
230
100
AcDbEntity
8
OUTER_BOUNDARY
6
ByLayer
62
256
370
-1
100
AcDbLine
10
43.3508858268
20
8.05457893988e-18
11
0.0625
21
5.58677011209e-15
0
LINE
5
231
100
AcDbEntity
8
OUTER_BOUNDARY
6
ByLayer
62
256
370
-1
100
AcDbLine
10
2.77555756156e-17
20
0.0625
11
2.77555756156e-17
21
8.06151574803
0
ARC
5
232
100
AcDbEntity
8
OUTER_BOUNDARY
6
ByLayer
62
256
370
-1
100
AcDbCircle
10
0.0625
20
0.0625
40
0.0625
100
AcDbArc
50
180
51
270
0
ENDSEC
0
SECTION
2
OBJECTS
0
DICTIONARY
5
C
330
0
100
AcDbDictionary
281
1
3
ACAD_GROUP
350
D
0
DICTIONARY
5
D
330
C
100
AcDbDictionary
281
1
0
ENDSEC
0
EOF
