999
dxfrw 0.5.11
0
SECTION
2
HEADER
9
$ACADVER
1
AC1021
9
$HANDSEED
5
20000
9
$DWGCODEPAGE
3
ANSI_1252
9
$INSBASE
10
0
20
0
30
0
9
$EXTMIN
10
-47.025
20
-30.35
30
0
9
$EXTMAX
10
1120.33416636
20
444.754721069
30
0
9
$LIMMIN
10
0
20
0
9
$LIMMAX
10
420
20
297
9
$ORTHOMODE
70
0
9
$LTSCALE
40
1
9
$TEXTSTYLE
7
STANDARD
9
$CLAYER
8
REFERENCE
9
$DIMASZ
40
1
9
$DIMLFAC
40
1
9
$DIMSCALE
40
0.5
9
$DIMEXO
40
0.025
9
$DIMEXE
40
0.05
9
$DIMTXT
40
1
9
$DIMTSZ
40
0
9
$DIMAUNIT
70
0
9
$DIMADEC
70
2
9
$DIMLUNIT
70
2
9
$DIMSTYLE
2
STANDARD
9
$DIMGAP
40
0.025
9
$DIMTIH
70
0
9
$LUNITS
70
2
9
$LUPREC
70
4
9
$AUNITS
70
0
9
$AUPREC
70
2
9
$SPLINESEGS
70
8
9
$GRIDMODE
70
1
9
$SNAPSTYLE
70
0
9
$GRIDUNIT
10
0
20
0
9
$PINSBASE
10
0
20
0
30
0
9
$PLIMMIN
10
0
20
0
9
$PLIMMAX
10
0.325501
20
0.46035214
9
$INSUNITS
70
1
9
$PSVPSCALE
40
1
0
ENDSEC
0
SECTION
2
CLASSES
0
ENDSEC
0
SECTION
2
TABLES
0
TABLE
2
VPORT
5
8
330
0
100
AcDbSymbolTable
70
1
0
VPORT
5
31
330
2
100
AcDbSymbolTableRecord
100
AcDbViewportTableRecord
2
*ACTIVE
70
0
10
0
20
0
11
1
21
1
12
2.50238599403
22
1.61093926559
13
0
23
0
14
10
24
10
15
10
25
10
16
0
26
0
36
1
17
0
27
0
37
0
40
6.32610419467
41
1.53505007153
42
50
43
0
44
0
50
0
51
0
71
0
72
100
73
1
74
3
75
0
76
1
77
0
78
0
281
0
65
1
110
0
120
0
130
0
111
1
121
0
131
0
112
0
122
1
132
0
79
0
146
0
348
10020
60
7
61
5
292
1
282
1
141
0
142
0
63
250
421
3358443
0
ENDTAB
0
TABLE
2
LTYPE
5
5
330
0
100
AcDbSymbolTable
70
4
0
LTYPE
5
14
330
5
100
AcDbSymbolTableRecord
100
AcDbLinetypeTableRecord
2
ByBlock
70
0
3

72
65
73
0
40
0
0
LTYPE
5
15
330
5
100
AcDbSymbolTableRecord
100
AcDbLinetypeTableRecord
2
ByLayer
70
0
3

72
65
73
0
40
0
0
LTYPE
5
16
330
5
100
AcDbSymbolTableRecord
100
AcDbLinetypeTableRecord
2
Continuous
70
0
3
Solid line
72
65
73
0
40
0
0
LTYPE
5
32
330
5
100
AcDbSymbolTableRecord
100
AcDbLinetypeTableRecord
2
DOT
70
0
3
Dot . . . . . . . . . . . . . . . . . . . . . .
72
65
73
2
40
6.35
49
0
74
0
49
-6.35
74
0
0
LTYPE
5
33
330
5
100
AcDbSymbolTableRecord
100
AcDbLinetypeTableRecord
2
DOT2
70
0
3
Dot (.5x) .....................................
72
65
73
2
40
3.175
49
0
74
0
49
-3.175
74
0
0
LTYPE
5
34
330
5
100
AcDbSymbolTableRecord
100
AcDbLinetypeTableRecord
2
DOTX2
70
0
3
Dot (2x) .  .  .  .  .  .  .  .  .  .  .  .  .
72
65
73
2
40
12.7
49
0
74
0
49
-12.7
74
0
0
LTYPE
5
35
330
5
100
AcDbSymbolTableRecord
100
AcDbLinetypeTableRecord
2
DASHED
70
0
3
Dot . . . . . . . . . . . . . . . . . . . . . .
72
65
73
2
40
19.05
49
12.7
74
0
49
-6.35
74
0
0
LTYPE
5
36
330
5
100
AcDbSymbolTableRecord
100
AcDbLinetypeTableRecord
2
DASHED2
70
0
3
Dashed (.5x) _ _ _ _ _ _ _ _ _ _ _ _ _ _ _ _ _
72
65
73
2
40
9.525
49
6.35
74
0
49
-3.175
74
0
0
LTYPE
5
37
330
5
100
AcDbSymbolTableRecord
100
AcDbLinetypeTableRecord
2
DASHEDX2
70
0
3
Dashed (2x) ____  ____  ____  ____  ____  ___
72
65
73
2
40
38.1
49
25.4
74
0
49
-12.7
74
0
0
LTYPE
5
38
330
5
100
AcDbSymbolTableRecord
100
AcDbLinetypeTableRecord
2
DASHDOT
70
0
3
Dash dot __ . __ . __ . __ . __ . __ . __ . __
72
65
73
4
40
25.4
49
12.7
74
0
49
-6.35
74
0
49
0
74
0
49
-6.35
74
0
0
LTYPE
5
39
330
5
100
AcDbSymbolTableRecord
100
AcDbLinetypeTableRecord
2
DASHDOT2
70
0
3
Dash dot (.5x) _._._._._._._._._._._._._._._.
72
65
73
4
40
12.7
49
6.35
74
0
49
-3.175
74
0
49
0
74
0
49
-3.175
74
0
0
LTYPE
5
3A
330
5
100
AcDbSymbolTableRecord
100
AcDbLinetypeTableRecord
2
DASHDOTX2
70
0
3
Dash dot (2x) ____  .  ____  .  ____  .  ___
72
65
73
4
40
50.8
49
25.4
74
0
49
-12.7
74
0
49
0
74
0
49
-12.7
74
0
0
LTYPE
5
3B
330
5
100
AcDbSymbolTableRecord
100
AcDbLinetypeTableRecord
2
DIVIDE
70
0
3
Divide ____ . . ____ . . ____ . . ____ . . ____
72
65
73
6
40
31.75
49
12.7
74
0
49
-6.35
74
0
49
0
74
0
49
-6.35
74
0
49
0
74
0
49
-6.35
74
0
0
LTYPE
5
3C
330
5
100
AcDbSymbolTableRecord
100
AcDbLinetypeTableRecord
2
DIVIDE2
70
0
3
Divide (.5x) __..__..__..__..__..__..__..__.._
72
65
73
6
40
15.875
49
6.35
74
0
49
-3.175
74
0
49
0
74
0
49
-3.175
74
0
49
0
74
0
49
-3.175
74
0
0
LTYPE
5
3D
330
5
100
AcDbSymbolTableRecord
100
AcDbLinetypeTableRecord
2
DIVIDEX2
70
0
3
Divide (2x) ________  .  .  ________  .  .  _
72
65
73
6
40
63.5
49
25.4
74
0
49
-12.7
74
0
49
0
74
0
49
-12.7
74
0
49
0
74
0
49
-12.7
74
0
0
LTYPE
5
3E
330
5
100
AcDbSymbolTableRecord
100
AcDbLinetypeTableRecord
2
BORDER
70
0
3
Border __ __ . __ __ . __ __ . __ __ . __ __ .
72
65
73
6
40
44.45
49
12.7
74
0
49
-6.35
74
0
49
12.7
74
0
49
-6.35
74
0
49
0
74
0
49
-6.35
74
0
0
LTYPE
5
3F
330
5
100
AcDbSymbolTableRecord
100
AcDbLinetypeTableRecord
2
BORDER2
70
0
3
Border (.5x) __.__.__.__.__.__.__.__.__.__.__.
72
65
73
6
40
22.225
49
6.35
74
0
49
-3.175
74
0
49
6.35
74
0
49
-3.175
74
0
49
0
74
0
49
-3.175
74
0
0
LTYPE
5
40
330
5
100
AcDbSymbolTableRecord
100
AcDbLinetypeTableRecord
2
BORDERX2
70
0
3
Border (2x) ____  ____  .  ____  ____  .  ___
72
65
73
6
40
88.9
49
25.4
74
0
49
-12.7
74
0
49
25.4
74
0
49
-12.7
74
0
49
0
74
0
49
-12.7
74
0
0
LTYPE
5
41
330
5
100
AcDbSymbolTableRecord
100
AcDbLinetypeTableRecord
2
CENTER
70
0
3
Center ____ _ ____ _ ____ _ ____ _ ____ _ ____
72
65
73
4
40
50.8
49
31.75
74
0
49
-6.35
74
0
49
6.35
74
0
49
-6.35
74
0
0
LTYPE
5
42
330
5
100
AcDbSymbolTableRecord
100
AcDbLinetypeTableRecord
2
CENTER2
70
0
3
Center (.5x) ___ _ ___ _ ___ _ ___ _ ___ _ ___
72
65
73
4
40
28.575
49
19.05
74
0
49
-3.175
74
0
49
3.175
74
0
49
-3.175
74
0
0
LTYPE
5
43
330
5
100
AcDbSymbolTableRecord
100
AcDbLinetypeTableRecord
2
CENTERX2
70
0
3
Center (2x) ________  __  ________  __  _____
72
65
73
4
40
101.6
49
63.5
74
0
49
-12.7
74
0
49
12.7
74
0
49
-12.7
74
0
0
ENDTAB
0
TABLE
2
LAYER
5
2
330
0
100
AcDbSymbolTable
70
1
0
LAYER
5
10
330
2
100
AcDbSymbolTableRecord
100
AcDbLayerTableRecord
2
0
70
0
62
7
6
CONTINUOUS
370
0
390
F
0
LAYER
5
44
330
2
100
AcDbSymbolTableRecord
100
AcDbLayerTableRecord
2
6-32_TAP_HOLE
70
0
62
2
6
CONTINUOUS
370
0
390
F
0
LAYER
5
45
330
2
100
AcDbSymbolTableRecord
100
AcDbLayerTableRecord
2
ALIGNMENT_POCKET
70
0
62
6
6
CONTINUOUS
370
0
390
F
0
LAYER
5
46
330
2
100
AcDbSymbolTableRecord
100
AcDbLayerTableRecord
2
DIMENSION
70
0
62
7
6
CONTINUOUS
370
0
390
F
0
LAYER
5
47
330
2
100
AcDbSymbolTableRecord
100
AcDbLayerTableRecord
2
OUTER_BOUNDARY
70
0
62
5
6
CONTINUOUS
370
0
390
F
0
LAYER
5
48
330
2
100
AcDbSymbolTableRecord
100
AcDbLayerTableRecord
2
REFERENCE
70
0
62
253
420
10526884
6
CONTINUOUS
370
0
390
F
0
LAYER
5
49
330
2
100
AcDbSymbolTableRecord
100
AcDbLayerTableRecord
2
TMP
70
0
62
96
420
32768
6
CONTINUOUS
370
0
390
F
0
ENDTAB
0
TABLE
2
STYLE
5
3
330
0
100
AcDbSymbolTable
70
3
0
STYLE
5
4A
330
2
100
AcDbSymbolTableRecord
100
AcDbTextStyleTableRecord
2
Standard
70
0
40
0
41
1
50
0
71
0
42
1
3
txt
4

0
ENDTAB
0
TABLE
2
VIEW
5
6
330
0
100
AcDbSymbolTable
70
0
0
ENDTAB
0
TABLE
2
UCS
5
7
330
0
100
AcDbSymbolTable
70
0
0
ENDTAB
0
TABLE
2
APPID
5
9
330
0
100
AcDbSymbolTable
70
1
0
APPID
5
12
330
9
100
AcDbSymbolTableRecord
100
AcDbRegAppTableRecord
2
ACAD
70
0
0
ENDTAB
0
TABLE
2
DIMSTYLE
5
A
330
0
100
AcDbSymbolTable
70
1
100
AcDbDimStyleTable
71
1
0
DIMSTYLE
105
4B
330
A
100
AcDbSymbolTableRecord
100
AcDbDimStyleTableRecord
2
Standard
70
0
40
1
41
1
42
0.025
43
0.38
44
0.05
45
0
46
0
47
0
48
0
140
1
141
0.09
142
0
143
25.4
144
1
145
0
146
1
147
0.025
148
0
71
0
72
0
73
0
74
1
75
0
76
0
77
0
78
0
79
0
170
0
171
2
172
0
173
0
174
0
175
0
176
0
177
0
178
0
179
0
271
4
272
4
273
2
274
2
275
0
276
0
277
2
278
46
279
0
280
0
281
0
282
0
283
1
284
0
285
0
286
0
288
0
289
3
340
Standard
341

371
-2
372
-2
0
ENDTAB
0
TABLE
2
BLOCK_RECORD
5
1
330
0
100
AcDbSymbolTable
70
2
0
BLOCK_RECORD
5
1F
330
1
100
AcDbSymbolTableRecord
100
AcDbBlockTableRecord
2
*Model_Space
70
0
280
1
281
0
0
BLOCK_RECORD
5
1E
330
1
100
AcDbSymbolTableRecord
100
AcDbBlockTableRecord
2
*Paper_Space
70
0
280
1
281
0
0
BLOCK_RECORD
5
4C
330
1
100
AcDbSymbolTableRecord
100
AcDbBlockTableRecord
2
*D1
70
0
280
1
281
0
0
BLOCK_RECORD
5
4F
330
1
100
AcDbSymbolTableRecord
100
AcDbBlockTableRecord
2
*D2
70
0
280
1
281
0
0
BLOCK_RECORD
5
52
330
1
100
AcDbSymbolTableRecord
100
AcDbBlockTableRecord
2
*D6
70
0
280
1
281
0
0
BLOCK_RECORD
5
55
330
1
100
AcDbSymbolTableRecord
100
AcDbBlockTableRecord
2
*D21
70
0
280
1
281
0
0
BLOCK_RECORD
5
58
330
1
100
AcDbSymbolTableRecord
100
AcDbBlockTableRecord
2
*D10
70
0
280
1
281
0
0
BLOCK_RECORD
5
5B
330
1
100
AcDbSymbolTableRecord
100
AcDbBlockTableRecord
2
*D9
70
0
280
1
281
0
0
BLOCK_RECORD
5
5E
330
1
100
AcDbSymbolTableRecord
100
AcDbBlockTableRecord
2
*D20
70
0
280
1
281
0
0
BLOCK_RECORD
5
61
330
1
100
AcDbSymbolTableRecord
100
AcDbBlockTableRecord
2
*D4
70
0
280
1
281
0
0
BLOCK_RECORD
5
64
330
1
100
AcDbSymbolTableRecord
100
AcDbBlockTableRecord
2
*D5
70
0
280
1
281
0
0
BLOCK_RECORD
5
67
330
1
100
AcDbSymbolTableRecord
100
AcDbBlockTableRecord
2
*D17
70
0
280
1
281
0
0
BLOCK_RECORD
5
6A
330
1
100
AcDbSymbolTableRecord
100
AcDbBlockTableRecord
2
*D8
70
0
280
1
281
0
0
BLOCK_RECORD
5
6D
330
1
100
AcDbSymbolTableRecord
100
AcDbBlockTableRecord
2
*D7
70
0
280
1
281
0
0
BLOCK_RECORD
5
70
330
1
100
AcDbSymbolTableRecord
100
AcDbBlockTableRecord
2
*D19
70
0
280
1
281
0
0
BLOCK_RECORD
5
73
330
1
100
AcDbSymbolTableRecord
100
AcDbBlockTableRecord
2
*D24
70
0
280
1
281
0
0
BLOCK_RECORD
5
76
330
1
100
AcDbSymbolTableRecord
100
AcDbBlockTableRecord
2
*D25
70
0
280
1
281
0
0
BLOCK_RECORD
5
79
330
1
100
AcDbSymbolTableRecord
100
AcDbBlockTableRecord
2
*D18
70
0
280
1
281
0
0
BLOCK_RECORD
5
7C
330
1
100
AcDbSymbolTableRecord
100
AcDbBlockTableRecord
2
*D23
70
0
280
1
281
0
0
BLOCK_RECORD
5
7F
330
1
100
AcDbSymbolTableRecord
100
AcDbBlockTableRecord
2
*D3
70
0
280
1
281
0
0
BLOCK_RECORD
5
82
330
1
100
AcDbSymbolTableRecord
100
AcDbBlockTableRecord
2
*D15
70
0
280
1
281
0
0
BLOCK_RECORD
5
85
330
1
100
AcDbSymbolTableRecord
100
AcDbBlockTableRecord
2
*D22
70
0
280
1
281
0
0
BLOCK_RECORD
5
88
330
1
100
AcDbSymbolTableRecord
100
AcDbBlockTableRecord
2
*D11
70
0
280
1
281
0
0
BLOCK_RECORD
5
8B
330
1
100
AcDbSymbolTableRecord
100
AcDbBlockTableRecord
2
*D12
70
0
280
1
281
0
0
BLOCK_RECORD
5
8E
330
1
100
AcDbSymbolTableRecord
100
AcDbBlockTableRecord
2
*D16
70
0
280
1
281
0
0
BLOCK_RECORD
5
91
330
1
100
AcDbSymbolTableRecord
100
AcDbBlockTableRecord
2
*D13
70
0
280
1
281
0
0
BLOCK_RECORD
5
94
330
1
100
AcDbSymbolTableRecord
100
AcDbBlockTableRecord
2
*D14
70
0
280
1
281
0
0
ENDTAB
0
ENDSEC
0
SECTION
2
BLOCKS
0
BLOCK
5
20
330
1F
100
AcDbEntity
8
0
100
AcDbBlockBegin
2
*Model_Space
70
0
10
0
20
0
30
0
3
*Model_Space
1

0
ENDBLK
5
21
330
1F
100
AcDbEntity
8
0
100
AcDbBlockEnd
0
BLOCK
5
1C
330
1B
100
AcDbEntity
8
0
100
AcDbBlockBegin
2
*Paper_Space
70
0
10
0
20
0
30
0
3
*Paper_Space
1

0
ENDBLK
5
1D
330
1F
100
AcDbEntity
8
0
100
AcDbBlockEnd
0
BLOCK
5
4D
330
4C
100
AcDbEntity
8
0
100
AcDbBlockBegin
2
*D1
70
1
10
0
20
0
3
*D1
1

0
LINE
5
97
100
AcDbEntity
8
DIMENSION
6
CONTINUOUS
62
7
370
0
100
AcDbLine
10
0
20
17.2866031917
11
43.4133858268
21
17.2866031917
0
SOLID
5
98
100
AcDbEntity
8
DIMENSION
6
CONTINUOUS
62
7
370
0
100
AcDbTrace
10
0
20
17.2866031917
30
0
11
0.5
21
17.3698601232
31
0
12
0.5
22
17.2033462601
32
0
13
0.5
23
17.2033462601
33
0
0
SOLID
5
99
100
AcDbEntity
8
DIMENSION
6
CONTINUOUS
62
7
370
0
100
AcDbTrace
10
43.4133858268
20
17.2866031917
30
0
11
42.9133858268
21
17.2033462601
31
0
12
42.9133858268
22
17.3698601232
32
0
13
42.9133858268
23
17.3698601232
33
0
0
MTEXT
5
9A
100
AcDbEntity
8
DIMENSION
6
CONTINUOUS
62
7
370
0
100
AcDbMText
10
21.7066929134
20
17.5491031917
30
0
40
0.5
41
2.38888888889
71
5
72
1
1
43.4134
7
standard
210
0
220
0
230
1
50
0
73
2
44
1
0
LINE
5
9B
100
AcDbEntity
8
DIMENSION
6
CONTINUOUS
62
7
370
0
100
AcDbLine
10
2.85209545868e-17
20
16.2211614173
11
1.53075794228e-18
21
17.3116031917
0
LINE
5
9C
100
AcDbEntity
8
DIMENSION
6
CONTINUOUS
62
7
370
0
100
AcDbLine
10
43.4133858268
20
16.2211614173
11
43.4133858268
21
17.3116031917
0
ENDBLK
5
4E
330
4C
100
AcDbEntity
8
0
100
AcDbBlockEnd
0
BLOCK
5
50
330
4F
100
AcDbEntity
8
0
100
AcDbBlockBegin
2
*D2
70
1
10
0
20
0
3
*D2
1

0
LINE
5
9D
100
AcDbEntity
8
DIMENSION
6
CONTINUOUS
62
7
370
0
100
AcDbLine
10
0.25
20
16.5420613927
11
43.1633858268
21
16.5420613927
0
SOLID
5
9E
100
AcDbEntity
8
DIMENSION
6
CONTINUOUS
62
7
370
0
100
AcDbTrace
10
0.25
20
16.5420613927
30
0
11
0.75
21
16.6253183243
31
0
12
0.75
22
16.4588044612
32
0
13
0.75
23
16.4588044612
33
0
0
SOLID
5
9F
100
AcDbEntity
8
DIMENSION
6
CONTINUOUS
62
7
370
0
100
AcDbTrace
10
43.1633858268
20
16.5420613927
30
0
11
42.6633858268
21
16.4588044612
31
0
12
42.6633858268
22
16.6253183243
32
0
13
42.6633858268
23
16.6253183243
33
0
0
MTEXT
5
A0
100
AcDbEntity
8
DIMENSION
6
CONTINUOUS
62
7
370
0
100
AcDbMText
10
21.7066929134
20
16.8045613927
30
0
40
0.5
41
2.33333333333
71
5
72
1
1
42.9134
7
standard
210
0
220
0
230
1
50
0
73
2
44
1
0
LINE
5
A1
100
AcDbEntity
8
DIMENSION
6
CONTINUOUS
62
7
370
0
100
AcDbLine
10
0.25
20
15.9711614173
11
0.25
21
16.5670613927
0
LINE
5
A2
100
AcDbEntity
8
DIMENSION
6
CONTINUOUS
62
7
370
0
100
AcDbLine
10
43.1633858268
20
15.9711614173
11
43.1633858268
21
16.5670613927
0
ENDBLK
5
51
330
4F
100
AcDbEntity
8
0
100
AcDbBlockEnd
0
BLOCK
5
53
330
52
100
AcDbEntity
8
0
100
AcDbBlockBegin
2
*D6
70
1
10
0
20
0
3
*D6
1

0
LINE
5
A3
100
AcDbEntity
8
DIMENSION
6
CONTINUOUS
62
7
370
0
100
AcDbLine
10
3.1719980315
20
9.72933070866
11
3.1719980315
21
6.47933070866
0
SOLID
5
A4
100
AcDbEntity
8
DIMENSION
6
CONTINUOUS
62
7
370
0
100
AcDbTrace
10
3.1719980315
20
8.72933070866
30
0
11
3.08874109994
21
9.22933070866
31
0
12
3.25525496305
22
9.22933070866
32
0
13
3.25525496305
23
9.22933070866
33
0
0
SOLID
5
A5
100
AcDbEntity
8
DIMENSION
6
CONTINUOUS
62
7
370
0
100
AcDbTrace
10
3.1719980315
20
7.47933070866
30
0
11
3.25525496305
21
6.97933070866
31
0
12
3.08874109994
22
6.97933070866
32
0
13
3.08874109994
23
6.97933070866
33
0
0
MTEXT
5
A6
100
AcDbEntity
8
DIMENSION
6
CONTINUOUS
62
7
370
0
100
AcDbMText
10
2.9094980315
20
8.10433070866
30
0
40
0.5
41
1.05555555556
71
5
72
1
1
1.25
7
standard
210
0
220
0
230
1
50
90
73
2
44
1
0
LINE
5
A7
100
AcDbEntity
8
DIMENSION
6
CONTINUOUS
62
7
370
0
100
AcDbLine
10
2.34911417323
20
8.72933070866
11
3.1969980315
21
8.72933070866
0
LINE
5
A8
100
AcDbEntity
8
DIMENSION
6
CONTINUOUS
62
7
370
0
100
AcDbLine
10
2.34911417323
20
7.47933070866
11
3.1969980315
21
7.47933070866
0
ENDBLK
5
54
330
52
100
AcDbEntity
8
0
100
AcDbBlockEnd
0
BLOCK
5
56
330
55
100
AcDbEntity
8
0
100
AcDbBlockBegin
2
*D21
70
1
10
0
20
0
3
*D21
1

0
LINE
5
A9
100
AcDbEntity
8
DIMENSION
6
CONTINUOUS
62
7
370
0
100
AcDbLine
10
41.5133099894
20
8.10433070866
11
41.5133099894
21
0.25
0
SOLID
5
AA
100
AcDbEntity
8
DIMENSION
6
CONTINUOUS
62
7
370
0
100
AcDbTrace
10
41.5133099894
20
8.10433070866
30
0
11
41.5965669209
21
7.60433070866
31
0
12
41.4300530578
22
7.60433070866
32
0
13
41.4300530578
23
7.60433070866
33
0
0
SOLID
5
AB
100
AcDbEntity
8
DIMENSION
6
CONTINUOUS
62
7
370
0
100
AcDbTrace
10
41.5133099894
20
0.25
30
0
11
41.4300530578
21
0.75
31
0
12
41.5965669209
22
0.75
32
0
13
41.5965669209
23
0.75
33
0
0
MTEXT
5
AC
100
AcDbEntity
8
DIMENSION
6
CONTINUOUS
62
7
370
0
100
AcDbMText
10
41.2508099894
20
4.17716535433
30
0
40
0.5
41
2
71
5
72
1
1
7.8543
7
standard
210
0
220
0
230
1
50
90
73
2
44
1
0
LINE
5
AD
100
AcDbEntity
8
DIMENSION
6
CONTINUOUS
62
7
370
0
100
AcDbLine
10
42.4422244094
20
8.10433070866
11
41.4883099894
21
8.10433070866
0
LINE
5
AE
100
AcDbEntity
8
DIMENSION
6
CONTINUOUS
62
7
370
0
100
AcDbLine
10
43.1508858268
20
0.25
11
41.4883099894
21
0.25
0
ENDBLK
5
57
330
55
100
AcDbEntity
8
0
100
AcDbBlockEnd
0
BLOCK
5
59
330
58
100
AcDbEntity
8
0
100
AcDbBlockBegin
2
*D10
70
1
10
0
20
0
3
*D10
1

0
LINE
5
AF
100
AcDbEntity
8
DIMENSION
6
CONTINUOUS
62
7
370
0
100
AcDbLine
10
1.8405511811
20
6.05708661417
11
-0.75
21
6.05708661417
0
SOLID
5
B0
100
AcDbEntity
8
DIMENSION
6
CONTINUOUS
62
7
370
0
100
AcDbTrace
10
0.840551181102
20
6.05708661417
30
0
11
1.3405511811
21
6.14034354573
31
0
12
1.3405511811
22
5.97382968262
32
0
13
1.3405511811
23
5.97382968262
33
0
0
SOLID
5
B1
100
AcDbEntity
8
DIMENSION
6
CONTINUOUS
62
7
370
0
100
AcDbTrace
10
0.25
20
6.05708661417
30
0
11
-0.25
21
5.97382968262
31
0
12
-0.25
22
6.14034354573
32
0
13
-0.25
23
6.14034354573
33
0
0
MTEXT
5
B2
100
AcDbEntity
8
DIMENSION
6
CONTINUOUS
62
7
370
0
100
AcDbMText
10
1.82527340332
20
6.31958661417
30
0
40
0.5
41
1.94444444444
71
5
72
1
1
0.5906
7
standard
210
0
220
0
230
1
50
360
73
2
44
1
0
LINE
5
B3
100
AcDbEntity
8
DIMENSION
6
CONTINUOUS
62
7
370
0
100
AcDbLine
10
0.840551181102
20
7.10757874016
11
0.840551181102
21
6.03208661417
0
LINE
5
B4
100
AcDbEntity
8
DIMENSION
6
CONTINUOUS
62
7
370
0
100
AcDbLine
10
0.25
20
0.2375
11
0.25
21
6.03208661417
0
ENDBLK
5
5A
330
58
100
AcDbEntity
8
0
100
AcDbBlockEnd
0
BLOCK
5
5C
330
5B
100
AcDbEntity
8
0
100
AcDbBlockBegin
2
*D9
70
1
10
0
20
0
3
*D9
1

0
LINE
5
B5
100
AcDbEntity
8
DIMENSION
6
CONTINUOUS
62
7
370
0
100
AcDbLine
10
39.7486370417
20
9.72933070866
11
39.7486370417
21
6.47933070866
0
SOLID
5
B6
100
AcDbEntity
8
DIMENSION
6
CONTINUOUS
62
7
370
0
100
AcDbTrace
10
39.7486370417
20
8.72933070866
30
0
11
39.6653801102
21
9.22933070866
31
0
12
39.8318939733
22
9.22933070866
32
0
13
39.8318939733
23
9.22933070866
33
0
0
SOLID
5
B7
100
AcDbEntity
8
DIMENSION
6
CONTINUOUS
62
7
370
0
100
AcDbTrace
10
39.7486370417
20
7.47933070866
30
0
11
39.8318939733
21
6.97933070866
31
0
12
39.6653801102
22
6.97933070866
32
0
13
39.6653801102
23
6.97933070866
33
0
0
MTEXT
5
B8
100
AcDbEntity
8
DIMENSION
6
CONTINUOUS
62
7
370
0
100
AcDbMText
10
39.4861370417
20
8.10433070866
30
0
40
0.5
41
1.05555555556
71
5
72
1
1
1.25
7
standard
210
0
220
0
230
1
50
90
73
2
44
1
0
LINE
5
B9
100
AcDbEntity
8
DIMENSION
6
CONTINUOUS
62
7
370
0
100
AcDbLine
10
41.0642716535
20
8.72933070866
11
39.7236370417
21
8.72933070866
0
LINE
5
BA
100
AcDbEntity
8
DIMENSION
6
CONTINUOUS
62
7
370
0
100
AcDbLine
10
41.0642716535
20
7.47933070866
11
39.7236370417
21
7.47933070866
0
ENDBLK
5
5D
330
5B
100
AcDbEntity
8
0
100
AcDbBlockEnd
0
BLOCK
5
5F
330
5E
100
AcDbEntity
8
0
100
AcDbBlockBegin
2
*D20
70
1
10
0
20
0
3
*D20
1

0
LINE
5
BB
100
AcDbEntity
8
DIMENSION
6
CONTINUOUS
62
7
370
0
100
AcDbLine
10
41.5728346457
20
6.31747124138
11
44.1633858268
21
6.31747124138
0
SOLID
5
BC
100
AcDbEntity
8
DIMENSION
6
CONTINUOUS
62
7
370
0
100
AcDbTrace
10
42.5728346457
20
6.31747124138
30
0
11
42.0728346457
21
6.23421430982
31
0
12
42.0728346457
22
6.40072817293
32
0
13
42.0728346457
23
6.40072817293
33
0
0
SOLID
5
BD
100
AcDbEntity
8
DIMENSION
6
CONTINUOUS
62
7
370
0
100
AcDbTrace
10
43.1633858268
20
6.31747124138
30
0
11
43.6633858268
21
6.40072817293
31
0
12
43.6633858268
22
6.23421430982
32
0
13
43.6633858268
23
6.23421430982
33
0
0
MTEXT
5
BE
100
AcDbEntity
8
DIMENSION
6
CONTINUOUS
62
7
370
0
100
AcDbMText
10
44.148108049
20
6.57997124138
30
0
40
0.5
41
1.94444444444
71
5
72
1
1
0.5906
7
standard
210
0
220
0
230
1
50
0
73
2
44
1
0
LINE
5
BF
100
AcDbEntity
8
DIMENSION
6
CONTINUOUS
62
7
370
0
100
AcDbLine
10
42.5728346457
20
7.10757874016
11
42.5728346457
21
6.29247124138
0
LINE
5
C0
100
AcDbEntity
8
DIMENSION
6
CONTINUOUS
62
7
370
0
100
AcDbLine
10
43.1633858268
20
0.2375
11
43.1633858268
21
6.29247124138
0
ENDBLK
5
60
330
5E
100
AcDbEntity
8
0
100
AcDbBlockEnd
0
BLOCK
5
62
330
61
100
AcDbEntity
8
0
100
AcDbBlockBegin
2
*D4
70
1
10
0
20
0
3
*D4
1

0
LINE
5
C1
100
AcDbEntity
8
DIMENSION
6
CONTINUOUS
62
7
370
0
100
AcDbLine
10
-0.537401574803
20
15.9586614173
11
-0.537401574803
21
0.25
0
SOLID
5
C2
100
AcDbEntity
8
DIMENSION
6
CONTINUOUS
62
7
370
0
100
AcDbTrace
10
-0.537401574803
20
15.9586614173
30
0
11
-0.454144643249
21
15.4586614173
31
0
12
-0.620658506358
22
15.4586614173
32
0
13
-0.620658506358
23
15.4586614173
33
0
0
SOLID
5
C3
100
AcDbEntity
8
DIMENSION
6
CONTINUOUS
62
7
370
0
100
AcDbTrace
10
-0.537401574803
20
0.25
30
0
11
-0.620658506358
21
0.75
31
0
12
-0.454144643249
22
0.75
32
0
13
-0.454144643249
23
0.75
33
0
0
MTEXT
5
C4
100
AcDbEntity
8
DIMENSION
6
CONTINUOUS
62
7
370
0
100
AcDbMText
10
-0.799901574803
20
8.10433070866
30
0
40
0.5
41
2.22222222222
71
5
72
1
1
15.7087
7
standard
210
0
220
0
230
1
50
90
73
2
44
1
0
LINE
5
C5
100
AcDbEntity
8
DIMENSION
6
CONTINUOUS
62
7
370
0
100
AcDbLine
10
0.2375
20
15.9586614173
11
-0.562401574803
21
15.9586614173
0
LINE
5
C6
100
AcDbEntity
8
DIMENSION
6
CONTINUOUS
62
7
370
0
100
AcDbLine
10
0.2375
20
0.25
11
-0.562401574803
21
0.25
0
ENDBLK
5
63
330
61
100
AcDbEntity
8
0
100
AcDbBlockEnd
0
BLOCK
5
65
330
64
100
AcDbEntity
8
0
100
AcDbBlockBegin
2
*D5
70
1
10
0
20
0
3
*D5
1

0
LINE
5
C7
100
AcDbEntity
8
DIMENSION
6
CONTINUOUS
62
7
370
0
100
AcDbLine
10
1.60334645669
20
9.08858267717
11
1.60334645669
21
7.12007874016
0
SOLID
5
C8
100
AcDbEntity
8
DIMENSION
6
CONTINUOUS
62
7
370
0
100
AcDbTrace
10
1.60334645669
20
9.08858267717
30
0
11
1.68660338825
21
8.58858267717
31
0
12
1.52008952514
22
8.58858267717
32
0
13
1.52008952514
23
8.58858267717
33
0
0
SOLID
5
C9
100
AcDbEntity
8
DIMENSION
6
CONTINUOUS
62
7
370
0
100
AcDbTrace
10
1.60334645669
20
7.12007874016
30
0
11
1.52008952514
21
7.62007874016
31
0
12
1.68660338825
22
7.62007874016
32
0
13
1.68660338825
23
7.62007874016
33
0
0
MTEXT
5
CA
100
AcDbEntity
8
DIMENSION
6
CONTINUOUS
62
7
370
0
100
AcDbMText
10
1.34084645669
20
8.10433070866
30
0
40
0.5
41
1.83333333333
71
5
72
1
1
1.9685
7
standard
210
0
220
0
230
1
50
90
73
2
44
1
0
LINE
5
CB
100
AcDbEntity
8
DIMENSION
6
CONTINUOUS
62
7
370
0
100
AcDbLine
10
0.971161417323
20
9.08858267717
11
1.62834645669
21
9.08858267717
0
LINE
5
CC
100
AcDbEntity
8
DIMENSION
6
CONTINUOUS
62
7
370
0
100
AcDbLine
10
0.971161417323
20
7.12007874016
11
1.62834645669
21
7.12007874016
0
ENDBLK
5
66
330
64
100
AcDbEntity
8
0
100
AcDbBlockEnd
0
BLOCK
5
68
330
67
100
AcDbEntity
8
0
100
AcDbBlockBegin
2
*D17
70
1
10
0
20
0
3
*D17
1

0
LINE
5
CD
100
AcDbEntity
8
DIMENSION
6
CONTINUOUS
62
7
370
0
100
AcDbLine
10
30.7741141732
20
1.95866141732
11
30.7741141732
21
-0.277559055118
0
SOLID
5
CE
100
AcDbEntity
8
DIMENSION
6
CONTINUOUS
62
7
370
0
100
AcDbTrace
10
30.7741141732
20
0.958661417323
30
0
11
30.6908572417
21
1.45866141732
31
0
12
30.8573711048
22
1.45866141732
32
0
13
30.8573711048
23
1.45866141732
33
0
0
SOLID
5
CF
100
AcDbEntity
8
DIMENSION
6
CONTINUOUS
62
7
370
0
100
AcDbTrace
10
30.7741141732
20
0.722440944882
30
0
11
30.8573711048
21
0.222440944882
31
0
12
30.6908572417
22
0.222440944882
32
0
13
30.6908572417
23
0.222440944882
33
0
0
MTEXT
5
D0
100
AcDbEntity
8
DIMENSION
6
CONTINUOUS
62
7
370
0
100
AcDbMText
10
30.5116141732
20
1.94338363955
30
0
40
0.5
41
1.94444444444
71
5
72
1
1
0.2362
7
standard
210
0
220
0
230
1
50
90
73
2
44
1
0
LINE
5
D1
100
AcDbEntity
8
DIMENSION
6
CONTINUOUS
62
7
370
0
100
AcDbLine
10
31.4382874016
20
0.958661417323
11
30.7491141732
21
0.958661417323
0
LINE
5
D2
100
AcDbEntity
8
DIMENSION
6
CONTINUOUS
62
7
370
0
100
AcDbLine
10
31.4382874016
20
0.722440944882
11
30.7491141732
21
0.722440944882
0
ENDBLK
5
69
330
67
100
AcDbEntity
8
0
100
AcDbBlockEnd
0
BLOCK
5
6B
330
6A
100
AcDbEntity
8
0
100
AcDbBlockBegin
2
*D8
70
1
10
0
20
0
3
*D8
1

0
LINE
5
D3
100
AcDbEntity
8
DIMENSION
6
CONTINUOUS
62
7
370
0
100
AcDbLine
10
21.0816929134
20
3.38730314961
11
22.3316929134
21
3.38730314961
0
SOLID
5
D4
100
AcDbEntity
8
DIMENSION
6
CONTINUOUS
62
7
370
0
100
AcDbTrace
10
21.0816929134
20
3.38730314961
30
0
11
21.5816929134
21
3.47056008116
31
0
12
21.5816929134
22
3.30404621805
32
0
13
21.5816929134
23
3.30404621805
33
0
0
SOLID
5
D5
100
AcDbEntity
8
DIMENSION
6
CONTINUOUS
62
7
370
0
100
AcDbTrace
10
22.3316929134
20
3.38730314961
30
0
11
21.8316929134
21
3.30404621805
31
0
12
21.8316929134
22
3.47056008116
32
0
13
21.8316929134
23
3.47056008116
33
0
0
MTEXT
5
D6
100
AcDbEntity
8
DIMENSION
6
CONTINUOUS
62
7
370
0
100
AcDbMText
10
21.7066929134
20
3.64980314961
30
0
40
0.5
41
1.05555555556
71
5
72
1
1
1.25
7
standard
210
0
220
0
230
1
50
0
73
2
44
1
0
LINE
5
D7
100
AcDbEntity
8
DIMENSION
6
CONTINUOUS
62
7
370
0
100
AcDbLine
10
21.0816929134
20
2.34911417323
11
21.0816929134
21
3.41230314961
0
LINE
5
D8
100
AcDbEntity
8
DIMENSION
6
CONTINUOUS
62
7
370
0
100
AcDbLine
10
22.3316929134
20
2.34911417323
11
22.3316929134
21
3.41230314961
0
ENDBLK
5
6C
330
6A
100
AcDbEntity
8
0
100
AcDbBlockEnd
0
BLOCK
5
6E
330
6D
100
AcDbEntity
8
0
100
AcDbBlockBegin
2
*D7
70
1
10
0
20
0
3
*D7
1

0
LINE
5
D9
100
AcDbEntity
8
DIMENSION
6
CONTINUOUS
62
7
370
0
100
AcDbLine
10
21.0816929134
20
12.7069389764
11
22.3316929134
21
12.7069389764
0
SOLID
5
DA
100
AcDbEntity
8
DIMENSION
6
CONTINUOUS
62
7
370
0
100
AcDbTrace
10
21.0816929134
20
12.7069389764
30
0
11
21.5816929134
21
12.7901959079
31
0
12
21.5816929134
22
12.6236820448
32
0
13
21.5816929134
23
12.6236820448
33
0
0
SOLID
5
DB
100
AcDbEntity
8
DIMENSION
6
CONTINUOUS
62
7
370
0
100
AcDbTrace
10
22.3316929134
20
12.7069389764
30
0
11
21.8316929134
21
12.6236820448
31
0
12
21.8316929134
22
12.7901959079
32
0
13
21.8316929134
23
12.7901959079
33
0
0
MTEXT
5
DC
100
AcDbEntity
8
DIMENSION
6
CONTINUOUS
62
7
370
0
100
AcDbMText
10
21.7066929134
20
12.9694389764
30
0
40
0.5
41
1.05555555556
71
5
72
1
1
1.25
7
standard
210
0
220
0
230
1
50
0
73
2
44
1
0
LINE
5
DD
100
AcDbEntity
8
DIMENSION
6
CONTINUOUS
62
7
370
0
100
AcDbLine
10
21.0816929134
20
13.8595472441
11
21.0816929134
21
12.6819389764
0
LINE
5
DE
100
AcDbEntity
8
DIMENSION
6
CONTINUOUS
62
7
370
0
100
AcDbLine
10
22.3316929134
20
13.8595472441
11
22.3316929134
21
12.6819389764
0
ENDBLK
5
6F
330
6D
100
AcDbEntity
8
0
100
AcDbBlockEnd
0
BLOCK
5
71
330
70
100
AcDbEntity
8
0
100
AcDbBlockBegin
2
*D19
70
1
10
0
20
0
3
*D19
1

0
LINE
5
DF
100
AcDbEntity
8
DIMENSION
6
CONTINUOUS
62
7
370
0
100
AcDbLine
10
41.4547244094
20
9.9195066437
11
43.6909448819
21
9.9195066437
0
SOLID
5
E0
100
AcDbEntity
8
DIMENSION
6
CONTINUOUS
62
7
370
0
100
AcDbTrace
10
42.4547244094
20
9.9195066437
30
0
11
41.9547244094
21
9.83624971215
31
0
12
41.9547244094
22
10.0027635753
32
0
13
41.9547244094
23
10.0027635753
33
0
0
SOLID
5
E1
100
AcDbEntity
8
DIMENSION
6
CONTINUOUS
62
7
370
0
100
AcDbTrace
10
42.6909448819
20
9.9195066437
30
0
11
43.1909448819
21
10.0027635753
31
0
12
43.1909448819
22
9.83624971215
32
0
13
43.1909448819
23
9.83624971215
33
0
0
MTEXT
5
E2
100
AcDbEntity
8
DIMENSION
6
CONTINUOUS
62
7
370
0
100
AcDbMText
10
43.6756671041
20
10.1820066437
30
0
40
0.5
41
1.94444444444
71
5
72
1
1
0.2362
7
standard
210
0
220
0
230
1
50
0
73
2
44
1
0
LINE
5
E3
100
AcDbEntity
8
DIMENSION
6
CONTINUOUS
62
7
370
0
100
AcDbLine
10
42.4547244094
20
9.10108267717
11
42.4547244094
21
9.9445066437
0
LINE
5
E4
100
AcDbEntity
8
DIMENSION
6
CONTINUOUS
62
7
370
0
100
AcDbLine
10
42.6909448819
20
9.10108267717
11
42.6909448819
21
9.9445066437
0
ENDBLK
5
72
330
70
100
AcDbEntity
8
0
100
AcDbBlockEnd
0
BLOCK
5
74
330
73
100
AcDbEntity
8
0
100
AcDbBlockBegin
2
*D24
70
1
10
0
20
0
3
*D24
1

0
LINE
5
E5
100
AcDbEntity
8
DIMENSION
6
CONTINUOUS
62
7
370
0
100
AcDbLine
10
41.0767716535
20
11.0275590551
11
43.1633858268
21
11.0275590551
0
SOLID
5
E6
100
AcDbEntity
8
DIMENSION
6
CONTINUOUS
62
7
370
0
100
AcDbTrace
10
41.0767716535
20
11.0275590551
30
0
11
41.5767716535
21
11.1108159867
31
0
12
41.5767716535
22
10.9443021236
32
0
13
41.5767716535
23
10.9443021236
33
0
0
SOLID
5
E7
100
AcDbEntity
8
DIMENSION
6
CONTINUOUS
62
7
370
0
100
AcDbTrace
10
43.1633858268
20
11.0275590551
30
0
11
42.6633858268
21
10.9443021236
31
0
12
42.6633858268
22
11.1108159867
32
0
13
42.6633858268
23
11.1108159867
33
0
0
MTEXT
5
E8
100
AcDbEntity
8
DIMENSION
6
CONTINUOUS
62
7
370
0
100
AcDbMText
10
42.1200787402
20
11.2900590551
30
0
40
0.5
41
1.94444444444
71
5
72
1
1
2.0866
7
standard
210
0
220
0
230
1
50
0
73
2
44
1
0
LINE
5
E9
100
AcDbEntity
8
DIMENSION
6
CONTINUOUS
62
7
370
0
100
AcDbLine
10
41.0767716535
20
8.74183070866
11
41.0767716535
21
11.0525590551
0
LINE
5
EA
100
AcDbEntity
8
DIMENSION
6
CONTINUOUS
62
7
370
0
100
AcDbLine
10
43.1633858268
20
15.9711614173
11
43.1633858268
21
11.0525590551
0
ENDBLK
5
75
330
73
100
AcDbEntity
8
0
100
AcDbBlockEnd
0
BLOCK
5
77
330
76
100
AcDbEntity
8
0
100
AcDbBlockBegin
2
*D25
70
1
10
0
20
0
3
*D25
1

0
LINE
5
EB
100
AcDbEntity
8
DIMENSION
6
CONTINUOUS
62
7
370
0
100
AcDbLine
10
44.278976378
20
1.25
11
44.278976378
21
-1
0
SOLID
5
EC
100
AcDbEntity
8
DIMENSION
6
CONTINUOUS
62
7
370
0
100
AcDbTrace
10
44.278976378
20
0.25
30
0
11
44.1957194464
21
0.75
31
0
12
44.3622333095
22
0.75
32
0
13
44.3622333095
23
0.75
33
0
0
SOLID
5
ED
100
AcDbEntity
8
DIMENSION
6
CONTINUOUS
62
7
370
0
100
AcDbTrace
10
44.278976378
20
-3.81892243113e-17
30
0
11
44.3622333095
21
-0.5
31
0
12
44.1957194464
22
-0.5
32
0
13
44.1957194464
23
-0.5
33
0
0
MTEXT
5
EE
100
AcDbEntity
8
DIMENSION
6
CONTINUOUS
62
7
370
0
100
AcDbMText
10
44.016476378
20
0.845833333333
30
0
40
0.5
41
1.16666666667
71
5
72
1
1
0.25
7
standard
210
0
220
0
230
1
50
90
73
2
44
1
0
LINE
5
EF
100
AcDbEntity
8
DIMENSION
6
CONTINUOUS
62
7
370
0
100
AcDbLine
10
43.1758858268
20
0.25
11
44.303976378
21
0.25
0
LINE
5
F0
100
AcDbEntity
8
DIMENSION
6
CONTINUOUS
62
7
370
0
100
AcDbLine
10
43.3633858268
20
2.46940597311e-17
11
44.303976378
21
-4.43122560804e-17
0
ENDBLK
5
78
330
76
100
AcDbEntity
8
0
100
AcDbBlockEnd
0
BLOCK
5
7A
330
79
100
AcDbEntity
8
0
100
AcDbBlockBegin
2
*D18
70
1
10
0
20
0
3
*D18
1

0
LINE
5
F1
100
AcDbEntity
8
DIMENSION
6
CONTINUOUS
62
7
370
0
100
AcDbLine
10
8.84251968504
20
-0.75
11
8.84251968504
21
1.8405511811
0
SOLID
5
F2
100
AcDbEntity
8
DIMENSION
6
CONTINUOUS
62
7
370
0
100
AcDbTrace
10
8.84251968504
20
0.25
30
0
11
8.92577661659
21
-0.25
31
0
12
8.75926275348
22
-0.25
32
0
13
8.75926275348
23
-0.25
33
0
0
SOLID
5
F3
100
AcDbEntity
8
DIMENSION
6
CONTINUOUS
62
7
370
0
100
AcDbTrace
10
8.84251968504
20
0.840551181102
30
0
11
8.75926275348
21
1.3405511811
31
0
12
8.92577661659
22
1.3405511811
32
0
13
8.92577661659
23
1.3405511811
33
0
0
MTEXT
5
F4
100
AcDbEntity
8
DIMENSION
6
CONTINUOUS
62
7
370
0
100
AcDbMText
10
8.58001968504
20
1.82527340332
30
0
40
0.5
41
1.94444444444
71
5
72
1
1
0.5906
7
standard
210
0
220
0
230
1
50
90
73
2
44
1
0
LINE
5
F5
100
AcDbEntity
8
DIMENSION
6
CONTINUOUS
62
7
370
0
100
AcDbLine
10
0.2625
20
0.25
11
8.86751968504
21
0.25
0
LINE
5
F6
100
AcDbEntity
8
DIMENSION
6
CONTINUOUS
62
7
370
0
100
AcDbLine
10
10.0065944882
20
0.840551181102
11
8.86751968504
21
0.840551181102
0
ENDBLK
5
7B
330
79
100
AcDbEntity
8
0
100
AcDbBlockEnd
0
BLOCK
5
7D
330
7C
100
AcDbEntity
8
0
100
AcDbBlockBegin
2
*D23
70
1
10
0
20
0
3
*D23
1

0
LINE
5
F7
100
AcDbEntity
8
DIMENSION
6
CONTINUOUS
62
7
370
0
100
AcDbLine
10
21.6964082493
20
2.33661417323
11
21.6964082493
21
0.25
0
SOLID
5
F8
100
AcDbEntity
8
DIMENSION
6
CONTINUOUS
62
7
370
0
100
AcDbTrace
10
21.6964082493
20
2.33661417323
30
0
11
21.7796651808
21
1.83661417323
31
0
12
21.6131513177
22
1.83661417323
32
0
13
21.6131513177
23
1.83661417323
33
0
0
SOLID
5
F9
100
AcDbEntity
8
DIMENSION
6
CONTINUOUS
62
7
370
0
100
AcDbTrace
10
21.6964082493
20
0.25
30
0
11
21.6131513177
21
0.75
31
0
12
21.7796651808
22
0.75
32
0
13
21.7796651808
23
0.75
33
0
0
MTEXT
5
FA
100
AcDbEntity
8
DIMENSION
6
CONTINUOUS
62
7
370
0
100
AcDbMText
10
21.4339082493
20
1.29330708661
30
0
40
0.5
41
1.94444444444
71
5
72
1
1
2.0866
7
standard
210
0
220
0
230
1
50
90
73
2
44
1
0
LINE
5
FB
100
AcDbEntity
8
DIMENSION
6
CONTINUOUS
62
7
370
0
100
AcDbLine
10
22.3191929134
20
2.33661417323
11
21.6714082493
21
2.33661417323
0
LINE
5
FC
100
AcDbEntity
8
DIMENSION
6
CONTINUOUS
62
7
370
0
100
AcDbLine
10
43.1508858268
20
0.25
11
21.6714082493
21
0.25
0
ENDBLK
5
7E
330
7C
100
AcDbEntity
8
0
100
AcDbBlockEnd
0
BLOCK
5
80
330
7F
100
AcDbEntity
8
0
100
AcDbBlockBegin
2
*D3
70
1
10
0
20
0
3
*D3
1

0
LINE
5
FD
100
AcDbEntity
8
DIMENSION
6
CONTINUOUS
62
7
370
0
100
AcDbLine
10
-1.12795275591
20
16.2086614173
11
-1.12795275591
21
9.78832063522e-17
0
SOLID
5
FE
100
AcDbEntity
8
DIMENSION
6
CONTINUOUS
62
7
370
0
100
AcDbTrace
10
-1.12795275591
20
16.2086614173
30
0
11
-1.04469582435
21
15.7086614173
31
0
12
-1.21120968746
22
15.7086614173
32
0
13
-1.21120968746
23
15.7086614173
33
0
0
SOLID
5
FF
100
AcDbEntity
8
DIMENSION
6
CONTINUOUS
62
7
370
0
100
AcDbTrace
10
-1.12795275591
20
9.78832063522e-17
30
0
11
-1.21120968746
21
0.5
31
0
12
-1.04469582435
22
0.5
32
0
13
-1.04469582435
23
0.5
33
0
0
MTEXT
5
100
100
AcDbEntity
8
DIMENSION
6
CONTINUOUS
62
7
370
0
100
AcDbMText
10
-1.39045275591
20
8.10433070866
30
0
40
0.5
41
2.22222222222
71
5
72
1
1
16.2087
7
standard
210
0
220
0
230
1
50
90
73
2
44
1
0
LINE
5
101
100
AcDbEntity
8
DIMENSION
6
CONTINUOUS
62
7
370
0
100
AcDbLine
10
-0.0125
20
16.2086614173
11
-1.15295275591
21
16.2086614173
0
LINE
5
102
100
AcDbEntity
8
DIMENSION
6
CONTINUOUS
62
7
370
0
100
AcDbLine
10
-0.0125
20
2.92863335579e-17
11
-1.15295275591
21
1.00944722237e-16
0
ENDBLK
5
81
330
7F
100
AcDbEntity
8
0
100
AcDbBlockEnd
0
BLOCK
5
83
330
82
100
AcDbEntity
8
0
100
AcDbBlockBegin
2
*D15
70
1
10
0
20
0
3
*D15
1

0
LINE
5
103
100
AcDbEntity
8
DIMENSION
6
CONTINUOUS
62
7
370
0
100
AcDbLine
10
31.4507874016
20
2.35383858268
11
33.4192913386
21
2.35383858268
0
SOLID
5
104
100
AcDbEntity
8
DIMENSION
6
CONTINUOUS
62
7
370
0
100
AcDbTrace
10
31.4507874016
20
2.35383858268
30
0
11
31.9507874016
21
2.43709551423
31
0
12
31.9507874016
22
2.27058165112
32
0
13
31.9507874016
23
2.27058165112
33
0
0
SOLID
5
105
100
AcDbEntity
8
DIMENSION
6
CONTINUOUS
62
7
370
0
100
AcDbTrace
10
33.4192913386
20
2.35383858268
30
0
11
32.9192913386
21
2.27058165112
31
0
12
32.9192913386
22
2.43709551423
32
0
13
32.9192913386
23
2.43709551423
33
0
0
MTEXT
5
106
100
AcDbEntity
8
DIMENSION
6
CONTINUOUS
62
7
370
0
100
AcDbMText
10
32.4350393701
20
2.61633858268
30
0
40
0.5
41
1.83333333333
71
5
72
1
1
1.9685
7
standard
210
0
220
0
230
1
50
0
73
2
44
1
0
LINE
5
107
100
AcDbEntity
8
DIMENSION
6
CONTINUOUS
62
7
370
0
100
AcDbLine
10
31.4507874016
20
0.971161417323
11
31.4507874016
21
2.37883858268
0
LINE
5
108
100
AcDbEntity
8
DIMENSION
6
CONTINUOUS
62
7
370
0
100
AcDbLine
10
33.4192913386
20
0.971161417323
11
33.4192913386
21
2.37883858268
0
ENDBLK
5
84
330
82
100
AcDbEntity
8
0
100
AcDbBlockEnd
0
BLOCK
5
86
330
85
100
AcDbEntity
8
0
100
AcDbBlockBegin
2
*D22
70
1
10
0
20
0
3
*D22
1

0
LINE
5
109
100
AcDbEntity
8
DIMENSION
6
CONTINUOUS
62
7
370
0
100
AcDbLine
10
21.6267224409
20
13.8720472441
11
21.6267224409
21
15.9586614173
0
SOLID
5
10A
100
AcDbEntity
8
DIMENSION
6
CONTINUOUS
62
7
370
0
100
AcDbTrace
10
21.6267224409
20
13.8720472441
30
0
11
21.5434655094
21
14.3720472441
31
0
12
21.7099793725
22
14.3720472441
32
0
13
21.7099793725
23
14.3720472441
33
0
0
SOLID
5
10B
100
AcDbEntity
8
DIMENSION
6
CONTINUOUS
62
7
370
0
100
AcDbTrace
10
21.6267224409
20
15.9586614173
30
0
11
21.7099793725
21
15.4586614173
31
0
12
21.5434655094
22
15.4586614173
32
0
13
21.5434655094
23
15.4586614173
33
0
0
MTEXT
5
10C
100
AcDbEntity
8
DIMENSION
6
CONTINUOUS
62
7
370
0
100
AcDbMText
10
21.3642224409
20
14.9153543307
30
0
40
0.5
41
1.94444444444
71
5
72
1
1
2.0866
7
standard
210
0
220
0
230
1
50
90
73
2
44
1
0
LINE
5
10D
100
AcDbEntity
8
DIMENSION
6
CONTINUOUS
62
7
370
0
100
AcDbLine
10
22.3191929134
20
13.8720472441
11
21.6017224409
21
13.8720472441
0
LINE
5
10E
100
AcDbEntity
8
DIMENSION
6
CONTINUOUS
62
7
370
0
100
AcDbLine
10
43.1508858268
20
15.9586614173
11
21.6017224409
21
15.9586614173
0
ENDBLK
5
87
330
85
100
AcDbEntity
8
0
100
AcDbBlockEnd
0
BLOCK
5
89
330
88
100
AcDbEntity
8
0
100
AcDbBlockBegin
2
*D11
70
1
10
0
20
0
3
*D11
1

0
LINE
5
10F
100
AcDbEntity
8
DIMENSION
6
CONTINUOUS
62
7
370
0
100
AcDbLine
10
-0.277559055118
20
9.69266732283
11
1.95866141732
21
9.69266732283
0
SOLID
5
110
100
AcDbEntity
8
DIMENSION
6
CONTINUOUS
62
7
370
0
100
AcDbTrace
10
0.722440944882
20
9.69266732283
30
0
11
0.222440944882
21
9.60941039128
31
0
12
0.222440944882
22
9.77592425439
32
0
13
0.222440944882
23
9.77592425439
33
0
0
SOLID
5
111
100
AcDbEntity
8
DIMENSION
6
CONTINUOUS
62
7
370
0
100
AcDbTrace
10
0.958661417323
20
9.69266732283
30
0
11
1.45866141732
21
9.77592425439
31
0
12
1.45866141732
22
9.60941039128
32
0
13
1.45866141732
23
9.60941039128
33
0
0
MTEXT
5
112
100
AcDbEntity
8
DIMENSION
6
CONTINUOUS
62
7
370
0
100
AcDbMText
10
1.94338363955
20
9.95516732283
30
0
40
0.5
41
1.94444444444
71
5
72
1
1
0.2362
7
standard
210
0
220
0
230
1
50
0
73
2
44
1
0
LINE
5
113
100
AcDbEntity
8
DIMENSION
6
CONTINUOUS
62
7
370
0
100
AcDbLine
10
0.722440944882
20
9.10108267717
11
0.722440944882
21
9.71766732283
0
LINE
5
114
100
AcDbEntity
8
DIMENSION
6
CONTINUOUS
62
7
370
0
100
AcDbLine
10
0.958661417323
20
9.10108267717
11
0.958661417323
21
9.71766732283
0
ENDBLK
5
8A
330
88
100
AcDbEntity
8
0
100
AcDbBlockEnd
0
BLOCK
5
8C
330
8B
100
AcDbEntity
8
0
100
AcDbBlockBegin
2
*D12
70
1
10
0
20
0
3
*D12
1

0
LINE
5
115
100
AcDbEntity
8
DIMENSION
6
CONTINUOUS
62
7
370
0
100
AcDbLine
10
2.33661417323
20
4.6594488189
11
0.25
21
4.6594488189
0
SOLID
5
116
100
AcDbEntity
8
DIMENSION
6
CONTINUOUS
62
7
370
0
100
AcDbTrace
10
2.33661417323
20
4.6594488189
30
0
11
1.83661417323
21
4.57619188734
31
0
12
1.83661417323
22
4.74270575045
32
0
13
1.83661417323
23
4.74270575045
33
0
0
SOLID
5
117
100
AcDbEntity
8
DIMENSION
6
CONTINUOUS
62
7
370
0
100
AcDbTrace
10
0.25
20
4.6594488189
30
0
11
0.75
21
4.74270575045
31
0
12
0.75
22
4.57619188734
32
0
13
0.75
23
4.57619188734
33
0
0
MTEXT
5
118
100
AcDbEntity
8
DIMENSION
6
CONTINUOUS
62
7
370
0
100
AcDbMText
10
1.29330708661
20
4.9219488189
30
0
40
0.5
41
1.94444444444
71
5
72
1
1
2.0866
7
standard
210
0
220
0
230
1
50
360
73
2
44
1
0
LINE
5
119
100
AcDbEntity
8
DIMENSION
6
CONTINUOUS
62
7
370
0
100
AcDbLine
10
2.33661417323
20
7.46683070866
11
2.33661417323
21
4.6344488189
0
LINE
5
11A
100
AcDbEntity
8
DIMENSION
6
CONTINUOUS
62
7
370
0
100
AcDbLine
10
0.25
20
0.2375
11
0.25
21
4.6344488189
0
ENDBLK
5
8D
330
8B
100
AcDbEntity
8
0
100
AcDbBlockEnd
0
BLOCK
5
8F
330
8E
100
AcDbEntity
8
0
100
AcDbBlockBegin
2
*D16
70
1
10
0
20
0
3
*D16
1

0
LINE
5
11B
100
AcDbEntity
8
DIMENSION
6
CONTINUOUS
62
7
370
0
100
AcDbLine
10
12.7350393701
20
1.95866141732
11
12.7350393701
21
-0.277559055118
0
SOLID
5
11C
100
AcDbEntity
8
DIMENSION
6
CONTINUOUS
62
7
370
0
100
AcDbTrace
10
12.7350393701
20
0.958661417323
30
0
11
12.6517824385
21
1.45866141732
31
0
12
12.8182963016
22
1.45866141732
32
0
13
12.8182963016
23
1.45866141732
33
0
0
SOLID
5
11D
100
AcDbEntity
8
DIMENSION
6
CONTINUOUS
62
7
370
0
100
AcDbTrace
10
12.7350393701
20
0.722440944882
30
0
11
12.8182963016
21
0.222440944882
31
0
12
12.6517824385
22
0.222440944882
32
0
13
12.6517824385
23
0.222440944882
33
0
0
MTEXT
5
11E
100
AcDbEntity
8
DIMENSION
6
CONTINUOUS
62
7
370
0
100
AcDbMText
10
12.4725393701
20
1.94338363955
30
0
40
0.5
41
1.94444444444
71
5
72
1
1
0.2362
7
standard
210
0
220
0
230
1
50
90
73
2
44
1
0
LINE
5
11F
100
AcDbEntity
8
DIMENSION
6
CONTINUOUS
62
7
370
0
100
AcDbLine
10
11.9750984252
20
0.958661417323
11
12.7600393701
21
0.958661417323
0
LINE
5
120
100
AcDbEntity
8
DIMENSION
6
CONTINUOUS
62
7
370
0
100
AcDbLine
10
11.9750984252
20
0.722440944882
11
12.7600393701
21
0.722440944882
0
ENDBLK
5
90
330
8E
100
AcDbEntity
8
0
100
AcDbBlockEnd
0
BLOCK
5
92
330
91
100
AcDbEntity
8
0
100
AcDbBlockBegin
2
*D13
70
1
10
0
20
0
3
*D13
1

0
LINE
5
121
100
AcDbEntity
8
DIMENSION
6
CONTINUOUS
62
7
370
0
100
AcDbLine
10
4.37155511811
20
8.10433070866
11
4.37155511811
21
0.25
0
SOLID
5
122
100
AcDbEntity
8
DIMENSION
6
CONTINUOUS
62
7
370
0
100
AcDbTrace
10
4.37155511811
20
8.10433070866
30
0
11
4.45481204966
21
7.60433070866
31
0
12
4.28829818656
22
7.60433070866
32
0
13
4.28829818656
23
7.60433070866
33
0
0
SOLID
5
123
100
AcDbEntity
8
DIMENSION
6
CONTINUOUS
62
7
370
0
100
AcDbTrace
10
4.37155511811
20
0.25
30
0
11
4.28829818656
21
0.75
31
0
12
4.45481204966
22
0.75
32
0
13
4.45481204966
23
0.75
33
0
0
MTEXT
5
124
100
AcDbEntity
8
DIMENSION
6
CONTINUOUS
62
7
370
0
100
AcDbMText
10
4.10905511811
20
4.17716535433
30
0
40
0.5
41
2
71
5
72
1
1
7.8543
7
standard
210
0
220
0
230
1
50
90
73
2
44
1
0
LINE
5
125
100
AcDbEntity
8
DIMENSION
6
CONTINUOUS
62
7
370
0
100
AcDbLine
10
0.971161417323
20
8.10433070866
11
4.39655511811
21
8.10433070866
0
LINE
5
126
100
AcDbEntity
8
DIMENSION
6
CONTINUOUS
62
7
370
0
100
AcDbLine
10
0.2625
20
0.25
11
4.39655511811
21
0.25
0
ENDBLK
5
93
330
91
100
AcDbEntity
8
0
100
AcDbBlockEnd
0
BLOCK
5
95
330
94
100
AcDbEntity
8
0
100
AcDbBlockBegin
2
*D14
70
1
10
0
20
0
3
*D14
1

0
LINE
5
127
100
AcDbEntity
8
DIMENSION
6
CONTINUOUS
62
7
370
0
100
AcDbLine
10
9.99409448819
20
1.78789370079
11
11.9625984252
21
1.78789370079
0
SOLID
5
128
100
AcDbEntity
8
DIMENSION
6
CONTINUOUS
62
7
370
0
100
AcDbTrace
10
9.99409448819
20
1.78789370079
30
0
11
10.4940944882
21
1.87115063234
31
0
12
10.4940944882
22
1.70463676923
32
0
13
10.4940944882
23
1.70463676923
33
0
0
SOLID
5
129
100
AcDbEntity
8
DIMENSION
6
CONTINUOUS
62
7
370
0
100
AcDbTrace
10
11.9625984252
20
1.78789370079
30
0
11
11.4625984252
21
1.70463676923
31
0
12
11.4625984252
22
1.87115063234
32
0
13
11.4625984252
23
1.87115063234
33
0
0
MTEXT
5
12A
100
AcDbEntity
8
DIMENSION
6
CONTINUOUS
62
7
370
0
100
AcDbMText
10
10.9783464567
20
2.05039370079
30
0
40
0.5
41
1.83333333333
71
5
72
1
1
1.9685
7
standard
210
0
220
0
230
1
50
0
73
2
44
1
0
LINE
5
12B
100
AcDbEntity
8
DIMENSION
6
CONTINUOUS
62
7
370
0
100
AcDbLine
10
9.99409448819
20
0.971161417323
11
9.99409448819
21
1.81289370079
0
LINE
5
12C
100
AcDbEntity
8
DIMENSION
6
CONTINUOUS
62
7
370
0
100
AcDbLine
10
11.9625984252
20
0.971161417323
11
11.9625984252
21
1.81289370079
0
ENDBLK
5
96
330
94
100
AcDbEntity
8
0
100
AcDbBlockEnd
0
ENDSEC
0
SECTION
2
ENTITIES
0
LINE
5
12D
100
AcDbEntity
8
REFERENCE
6
ByLayer
62
256
370
-1
100
AcDbLine
10
0.25
20
0.25
11
43.1633858268
21
0.25
0
LINE
5
12E
100
AcDbEntity
8
REFERENCE
6
ByLayer
62
256
370
-1
100
AcDbLine
10
43.1633858268
20
0.25
11
43.1633858268
21
15.9586614173
0
LINE
5
12F
100
AcDbEntity
8
REFERENCE
6
ByLayer
62
256
370
-1
100
AcDbLine
10
43.1633858268
20
15.9586614173
11
0.25
21
15.9586614173
0
LINE
5
130
100
AcDbEntity
8
REFERENCE
6
ByLayer
62
256
370
-1
100
AcDbLine
10
0.25
20
15.9586614173
11
0.25
21
0.25
0
LINE
5
131
100
AcDbEntity
8
ALIGNMENT_POCKET
6
ByLayer
62
256
370
-1
100
AcDbLine
10
0.722440944882
20
7.12007874016
11
0.958661417323
21
7.12007874016
0
LINE
5
132
100
AcDbEntity
8
ALIGNMENT_POCKET
6
ByLayer
62
256
370
-1
100
AcDbLine
10
0.958661417323
20
7.12007874016
11
0.958661417323
21
9.08858267717
0
LINE
5
133
100
AcDbEntity
8
ALIGNMENT_POCKET
6
ByLayer
62
256
370
-1
100
AcDbLine
10
0.958661417323
20
9.08858267717
11
0.722440944882
21
9.08858267717
0
LINE
5
134
100
AcDbEntity
8
ALIGNMENT_POCKET
6
ByLayer
62
256
370
-1
100
AcDbLine
10
0.722440944882
20
9.08858267717
11
0.722440944882
21
7.12007874016
0
LINE
5
135
100
AcDbEntity
8
ALIGNMENT_POCKET
6
ByLayer
62
256
370
-1
100
AcDbLine
10
42.4547244094
20
7.12007874016
11
42.6909448819
21
7.12007874016
0
LINE
5
136
100
AcDbEntity
8
ALIGNMENT_POCKET
6
ByLayer
62
256
370
-1
100
AcDbLine
10
42.6909448819
20
7.12007874016
11
42.6909448819
21
9.08858267717
0
LINE
5
137
100
AcDbEntity
8
ALIGNMENT_POCKET
6
ByLayer
62
256
370
-1
100
AcDbLine
10
42.6909448819
20
9.08858267717
11
42.4547244094
21
9.08858267717
0
LINE
5
138
100
AcDbEntity
8
ALIGNMENT_POCKET
6
ByLayer
62
256
370
-1
100
AcDbLine
10
42.4547244094
20
9.08858267717
11
42.4547244094
21
7.12007874016
0
LINE
5
139
100
AcDbEntity
8
ALIGNMENT_POCKET
6
ByLayer
62
256
370
-1
100
AcDbLine
10
11.9625984252
20
0.722440944882
11
11.9625984252
21
0.958661417323
0
LINE
5
13A
100
AcDbEntity
8
ALIGNMENT_POCKET
6
ByLayer
62
256
370
-1
100
AcDbLine
10
11.9625984252
20
0.958661417323
11
9.99409448819
21
0.958661417323
0
LINE
5
13B
100
AcDbEntity
8
ALIGNMENT_POCKET
6
ByLayer
62
256
370
-1
100
AcDbLine
10
9.99409448819
20
0.958661417323
11
9.99409448819
21
0.722440944882
0
LINE
5
13C
100
AcDbEntity
8
ALIGNMENT_POCKET
6
ByLayer
62
256
370
-1
100
AcDbLine
10
9.99409448819
20
0.722440944882
11
11.9625984252
21
0.722440944882
0
LINE
5
13D
100
AcDbEntity
8
ALIGNMENT_POCKET
6
ByLayer
62
256
370
-1
100
AcDbLine
10
33.4192913386
20
0.722440944882
11
33.4192913386
21
0.958661417323
0
LINE
5
13E
100
AcDbEntity
8
ALIGNMENT_POCKET
6
ByLayer
62
256
370
-1
100
AcDbLine
10
33.4192913386
20
0.958661417323
11
31.4507874016
21
0.958661417323
0
LINE
5
13F
100
AcDbEntity
8
ALIGNMENT_POCKET
6
ByLayer
62
256
370
-1
100
AcDbLine
10
31.4507874016
20
0.958661417323
11
31.4507874016
21
0.722440944882
0
LINE
5
140
100
AcDbEntity
8
ALIGNMENT_POCKET
6
ByLayer
62
256
370
-1
100
AcDbLine
10
31.4507874016
20
0.722440944882
11
33.4192913386
21
0.722440944882
0
DIMENSION
5
141
100
AcDbEntity
8
DIMENSION
6
ByLayer
62
256
370
-1
100
AcDbDimension
2
*D1
10
43.4133858268
20
17.2866031917
30
0
11
21.7066929134
21
17.5491031917
31
0
70
32
71
5
72
0
3
Standard
53
0
210
0
220
0
230
1
100
AcDbAlignedDimension
13
2.77555756156e-17
23
16.2086614173
33
0
14
43.4133858268
24
16.2086614173
34
0
100
AcDbRotatedDimension
0
DIMENSION
5
142
100
AcDbEntity
8
DIMENSION
6
ByLayer
62
256
370
-1
100
AcDbDimension
2
*D2
10
43.1633858268
20
16.5420613927
30
0
11
21.7066929134
21
16.8045613927
31
0
70
32
71
5
72
0
3
Standard
53
0
210
0
220
0
230
1
100
AcDbAlignedDimension
13
0.25
23
15.9586614173
33
0
14
43.1633858268
24
15.9586614173
34
0
100
AcDbRotatedDimension
0
DIMENSION
5
143
100
AcDbEntity
8
DIMENSION
6
ByLayer
62
256
370
-1
100
AcDbDimension
2
*D3
10
-1.12795275591
20
2.77555756156e-17
30
0
11
-1.39045275591
21
8.10433070866
31
0
70
32
71
5
72
0
3
Standard
53
0
210
0
220
0
230
1
100
AcDbAlignedDimension
13
2.77555756156e-17
23
16.2086614173
33
0
14
2.77555756156e-17
24
2.77555756156e-17
34
0
50
90
100
AcDbRotatedDimension
0
DIMENSION
5
144
100
AcDbEntity
8
DIMENSION
6
ByLayer
62
256
370
-1
100
AcDbDimension
2
*D4
10
-0.537401574803
20
0.25
30
0
11
-0.799901574803
21
8.10433070866
31
0
70
32
71
5
72
0
3
Standard
53
0
210
0
220
0
230
1
100
AcDbAlignedDimension
13
0.25
23
15.9586614173
33
0
14
0.25
24
0.25
34
0
50
90
100
AcDbRotatedDimension
0
DIMENSION
5
145
100
AcDbEntity
8
DIMENSION
6
ByLayer
62
256
370
-1
100
AcDbDimension
2
*D5
10
1.60334645669
20
7.12007874016
30
0
11
1.34084645669
21
8.10433070866
31
0
70
32
71
5
72
0
3
Standard
53
0
210
0
220
0
230
1
100
AcDbAlignedDimension
13
0.958661417323
23
9.08858267717
33
0
14
0.958661417323
24
7.12007874016
34
0
50
90
100
AcDbRotatedDimension
0
CIRCLE
5
146
100
AcDbEntity
8
6-32_TAP_HOLE
6
ByLayer
62
256
370
-1
100
AcDbCircle
10
2.33661417323
20
7.47933070866
40
0.05325
0
CIRCLE
5
147
100
AcDbEntity
8
6-32_TAP_HOLE
6
ByLayer
62
256
370
-1
100
AcDbCircle
10
2.33661417323
20
8.72933070866
40
0.05325
0
CIRCLE
5
148
100
AcDbEntity
8
6-32_TAP_HOLE
6
ByLayer
62
256
370
-1
100
AcDbCircle
10
41.0767716535
20
8.72933070866
40
0.05325
0
CIRCLE
5
149
100
AcDbEntity
8
6-32_TAP_HOLE
6
ByLayer
62
256
370
-1
100
AcDbCircle
10
41.0767716535
20
7.47933070866
40
0.05325
0
CIRCLE
5
14A
100
AcDbEntity
8
6-32_TAP_HOLE
6
ByLayer
62
256
370
-1
100
AcDbCircle
10
21.0816929134
20
13.8720472441
40
0.05325
0
CIRCLE
5
14B
100
AcDbEntity
8
6-32_TAP_HOLE
6
ByLayer
62
256
370
-1
100
AcDbCircle
10
22.3316929134
20
13.8720472441
40
0.05325
0
CIRCLE
5
14C
100
AcDbEntity
8
6-32_TAP_HOLE
6
ByLayer
62
256
370
-1
100
AcDbCircle
10
22.3316929134
20
2.33661417323
40
0.05325
0
CIRCLE
5
14D
100
AcDbEntity
8
6-32_TAP_HOLE
6
ByLayer
62
256
370
-1
100
AcDbCircle
10
21.0816929134
20
2.33661417323
40
0.05325
0
DIMENSION
5
14E
100
AcDbEntity
8
DIMENSION
6
ByLayer
62
256
370
-1
100
AcDbDimension
2
*D6
10
3.1719980315
20
7.47933070866
30
0
11
2.9094980315
21
8.10433070866
31
0
70
32
71
5
72
0
3
Standard
53
0
210
0
220
0
230
1
100
AcDbAlignedDimension
13
2.33661417323
23
8.72933070866
33
0
14
2.33661417323
24
7.47933070866
34
0
50
90
100
AcDbRotatedDimension
0
DIMENSION
5
14F
100
AcDbEntity
8
DIMENSION
6
ByLayer
62
256
370
-1
100
AcDbDimension
2
*D7
10
22.3316929134
20
12.7069389764
30
0
11
21.7066929134
21
12.9694389764
31
0
70
32
71
5
72
0
3
Standard
53
0
210
0
220
0
230
1
100
AcDbAlignedDimension
13
21.0816929134
23
13.8720472441
33
0
14
22.3316929134
24
13.8720472441
34
0
100
AcDbRotatedDimension
0
DIMENSION
5
150
100
AcDbEntity
8
DIMENSION
6
ByLayer
62
256
370
-1
100
AcDbDimension
2
*D8
10
22.3316929134
20
3.38730314961
30
0
11
21.7066929134
21
3.64980314961
31
0
70
32
71
5
72
0
3
Standard
53
0
210
0
220
0
230
1
100
AcDbAlignedDimension
13
21.0816929134
23
2.33661417323
33
0
14
22.3316929134
24
2.33661417323
34
0
100
AcDbRotatedDimension
0
DIMENSION
5
151
100
AcDbEntity
8
DIMENSION
6
ByLayer
62
256
370
-1
100
AcDbDimension
2
*D9
10
39.7486370417
20
7.47933070866
30
0
11
39.4861370417
21
8.10433070866
31
0
70
32
71
5
72
0
3
Standard
53
0
210
0
220
0
230
1
100
AcDbAlignedDimension
13
41.0767716535
23
8.72933070866
33
0
14
41.0767716535
24
7.47933070866
34
0
50
90
100
AcDbRotatedDimension
0
DIMENSION
5
152
100
AcDbEntity
8
DIMENSION
6
ByLayer
62
256
370
-1
100
AcDbDimension
2
*D10
10
0.25
20
6.05708661417
30
0
11
0.545275590551
21
6.31958661417
31
0
70
32
71
5
72
0
3
Standard
53
0
210
0
220
0
230
1
100
AcDbAlignedDimension
13
0.840551181102
23
7.12007874016
33
0
14
0.25
24
0.25
34
0
100
AcDbRotatedDimension
0
DIMENSION
5
153
100
AcDbEntity
8
DIMENSION
6
ByLayer
62
256
370
-1
100
AcDbDimension
2
*D11
10
0.958661417323
20
9.69266732283
30
0
11
0.840551181102
21
9.95516732283
31
0
70
32
71
5
72
0
3
Standard
53
0
210
0
220
0
230
1
100
AcDbAlignedDimension
13
0.722440944882
23
9.08858267717
33
0
14
0.958661417323
24
9.08858267717
34
0
100
AcDbRotatedDimension
0
DIMENSION
5
154
100
AcDbEntity
8
DIMENSION
6
ByLayer
62
256
370
-1
100
AcDbDimension
2
*D12
10
0.25
20
4.6594488189
30
0
11
1.29330708661
21
4.9219488189
31
0
70
32
71
5
72
0
3
Standard
53
0
210
0
220
0
230
1
100
AcDbAlignedDimension
13
2.33661417323
23
7.47933070866
33
0
14
0.25
24
0.25
34
0
100
AcDbRotatedDimension
0
DIMENSION
5
155
100
AcDbEntity
8
DIMENSION
6
ByLayer
62
256
370
-1
100
AcDbDimension
2
*D13
10
4.37155511811
20
0.25
30
0
11
4.10905511811
21
4.17716535433
31
0
70
32
71
5
72
0
3
Standard
53
0
210
0
220
0
230
1
100
AcDbAlignedDimension
13
0.958661417323
23
8.10433070866
33
0
14
0.25
24
0.25
34
0
50
90
100
AcDbRotatedDimension
0
ARC
5
156
100
AcDbEntity
8
OUTER_BOUNDARY
6
ByLayer
62
256
370
-1
100
AcDbCircle
10
43.3508858268
20
0.0625
40
0.0625
100
AcDbArc
50
270
51
3.81666561776e-13
0
LINE
5
157
100
AcDbEntity
8
OUTER_BOUNDARY
6
ByLayer
62
256
370
-1
100
AcDbLine
10
43.3508858268
20
2.77555756156e-17
11
0.0625
21
2.77555756156e-17
0
ARC
5
158
100
AcDbEntity
8
OUTER_BOUNDARY
6
ByLayer
62
256
370
-1
100
AcDbCircle
10
0.0625
20
0.0625
40
0.0625
100
AcDbArc
50
180
51
270
0
DIMENSION
5
159
100
AcDbEntity
8
DIMENSION
6
ByLayer
62
256
370
-1
100
AcDbDimension
2
*D14
10
11.9625984252
20
1.78789370079
30
0
11
10.9783464567
21
2.05039370079
31
0
70
32
71
5
72
0
3
Standard
53
0
210
0
220
0
230
1
100
AcDbAlignedDimension
13
9.99409448819
23
0.958661417323
33
0
14
11.9625984252
24
0.958661417323
34
0
100
AcDbRotatedDimension
0
DIMENSION
5
15A
100
AcDbEntity
8
DIMENSION
6
ByLayer
62
256
370
-1
100
AcDbDimension
2
*D15
10
33.4192913386
20
2.35383858268
30
0
11
32.4350393701
21
2.61633858268
31
0
70
32
71
5
72
0
3
Standard
53
0
210
0
220
0
230
1
100
AcDbAlignedDimension
13
31.4507874016
23
0.958661417323
33
0
14
33.4192913386
24
0.958661417323
34
0
100
AcDbRotatedDimension
0
DIMENSION
5
15B
100
AcDbEntity
8
DIMENSION
6
ByLayer
62
256
370
-1
100
AcDbDimension
2
*D16
10
12.7350393701
20
0.722440944882
30
0
11
12.4725393701
21
0.840551181102
31
0
70
32
71
5
72
0
3
Standard
53
0
210
0
220
0
230
1
100
AcDbAlignedDimension
13
11.9625984252
23
0.958661417323
33
0
14
11.9625984252
24
0.722440944882
34
0
50
90
100
AcDbRotatedDimension
0
DIMENSION
5
15C
100
AcDbEntity
8
DIMENSION
6
ByLayer
62
256
370
-1
100
AcDbDimension
2
*D17
10
30.7741141732
20
0.722440944882
30
0
11
30.5116141732
21
0.840551181102
31
0
70
32
71
5
72
0
3
Standard
53
0
210
0
220
0
230
1
100
AcDbAlignedDimension
13
31.4507874016
23
0.958661417323
33
0
14
31.4507874016
24
0.722440944882
34
0
50
90
100
AcDbRotatedDimension
0
DIMENSION
5
15D
100
AcDbEntity
8
DIMENSION
6
ByLayer
62
256
370
-1
100
AcDbDimension
2
*D18
10
8.84251968504
20
0.840551181102
30
0
11
8.58001968504
21
0.545275590551
31
0
70
32
71
5
72
0
3
Standard
53
0
210
0
220
0
230
1
100
AcDbAlignedDimension
13
0.25
23
0.25
33
0
14
9.99409448819
24
0.840551181102
34
0
50
90
100
AcDbRotatedDimension
0
DIMENSION
5
15E
100
AcDbEntity
8
DIMENSION
6
ByLayer
62
256
370
-1
100
AcDbDimension
2
*D19
10
42.6909448819
20
9.9195066437
30
0
11
42.5728346457
21
10.1820066437
31
0
70
32
71
5
72
0
3
Standard
53
0
210
0
220
0
230
1
100
AcDbAlignedDimension
13
42.4547244094
23
9.08858267717
33
0
14
42.6909448819
24
9.08858267717
34
0
100
AcDbRotatedDimension
0
DIMENSION
5
15F
100
AcDbEntity
8
DIMENSION
6
ByLayer
62
256
370
-1
100
AcDbDimension
2
*D20
10
43.1633858268
20
6.31747124138
30
0
11
42.8681102362
21
6.57997124138
31
0
70
32
71
5
72
0
3
Standard
53
0
210
0
220
0
230
1
100
AcDbAlignedDimension
13
42.5728346457
23
7.12007874016
33
0
14
43.1633858268
24
0.25
34
0
100
AcDbRotatedDimension
0
DIMENSION
5
160
100
AcDbEntity
8
DIMENSION
6
ByLayer
62
256
370
-1
100
AcDbDimension
2
*D21
10
41.5133099894
20
0.25
30
0
11
41.2508099894
21
4.17716535433
31
0
70
32
71
5
72
0
3
Standard
53
0
210
0
220
0
230
1
100
AcDbAlignedDimension
13
42.4547244094
23
8.10433070866
33
0
14
43.1633858268
24
0.25
34
0
50
90
100
AcDbRotatedDimension
0
DIMENSION
5
161
100
AcDbEntity
8
DIMENSION
6
ByLayer
62
256
370
-1
100
AcDbDimension
2
*D22
10
21.6267224409
20
15.9586614173
30
0
11
21.3642224409
21
14.9153543307
31
0
70
32
71
5
72
0
3
Standard
53
0
210
0
220
0
230
1
100
AcDbAlignedDimension
13
22.3316929134
23
13.8720472441
33
0
14
43.1633858268
24
15.9586614173
34
0
50
90
100
AcDbRotatedDimension
0
DIMENSION
5
162
100
AcDbEntity
8
DIMENSION
6
ByLayer
62
256
370
-1
100
AcDbDimension
2
*D23
10
21.6964082493
20
0.25
30
0
11
21.4339082493
21
1.29330708661
31
0
70
32
71
5
72
0
3
Standard
53
0
210
0
220
0
230
1
100
AcDbAlignedDimension
13
22.3316929134
23
2.33661417323
33
0
14
43.1633858268
24
0.25
34
0
50
90
100
AcDbRotatedDimension
0
DIMENSION
5
163
100
AcDbEntity
8
DIMENSION
6
ByLayer
62
256
370
-1
100
AcDbDimension
2
*D24
10
43.1633858268
20
11.0275590551
30
0
11
42.1200787402
21
11.2900590551
31
0
70
32
71
5
72
0
3
Standard
53
0
210
0
220
0
230
1
100
AcDbAlignedDimension
13
41.0767716535
23
8.72933070866
33
0
14
43.1633858268
24
15.9586614173
34
0
100
AcDbRotatedDimension
0
LINE
5
164
100
AcDbEntity
8
OUTER_BOUNDARY
6
ByLayer
62
256
370
-1
100
AcDbLine
10
43.4133858268
20
15.8961614173
11
43.4133858268
21
0.0625
0
ARC
5
165
100
AcDbEntity
8
OUTER_BOUNDARY
6
ByLayer
62
256
370
-1
100
AcDbCircle
10
43.3508858268
20
15.8961614173
40
0.0625
100
AcDbArc
50
0
51
90
0
LINE
5
166
100
AcDbEntity
8
OUTER_BOUNDARY
6
ByLayer
62
256
370
-1
100
AcDbLine
10
0.0625
20
15.9586614173
11
43.3508858268
21
15.9586614173
0
LINE
5
167
100
AcDbEntity
8
OUTER_BOUNDARY
6
ByLayer
62
256
370
-1
100
AcDbLine
10
2.77555756156e-17
20
0.0625
11
2.77555756156e-17
21
15.8961614173
0
ARC
5
168
100
AcDbEntity
8
OUTER_BOUNDARY
6
ByLayer
62
256
370
-1
100
AcDbCircle
10
0.0625
20
15.8961614173
40
0.0625
100
AcDbArc
50
90
51
180
0
DIMENSION
5
169
100
AcDbEntity
8
DIMENSION
6
ByLayer
62
256
370
-1
100
AcDbDimension
2
*D25
10
44.278976378
20
2.77555756156e-17
30
0
11
44.016476378
21
0.125
31
0
70
32
71
5
72
0
3
Standard
53
0
210
0
220
0
230
1
100
AcDbAlignedDimension
13
43.1633858268
23
0.25
33
0
14
43.3508858268
24
2.77555756156e-17
34
0
50
90
100
AcDbRotatedDimension
0
ENDSEC
0
SECTION
2
OBJECTS
0
DICTIONARY
5
C
330
0
100
AcDbDictionary
281
1
3
ACAD_GROUP
350
D
0
DICTIONARY
5
D
330
C
100
AcDbDictionary
281
1
0
ENDSEC
0
EOF
