999
dxfrw 0.5.11
0
SECTION
2
HEADER
9
$ACADVER
1
AC1021
9
$HANDSEED
5
20000
9
$DWGCODEPAGE
3
ANSI_1252
9
$INSBASE
10
0
20
0
30
0
9
$EXTMIN
10
-40
20
-3.59908731734
30
0
9
$EXTMAX
10
100
20
28.25
30
0
9
$LIMMIN
10
0
20
0
9
$LIMMAX
10
420
20
297
9
$ORTHOMODE
70
0
9
$LTSCALE
40
1
9
$TEXTSTYLE
7
STANDARD
9
$CLAYER
8
REFERENCE
9
$DIMASZ
40
0.1
9
$DIMLFAC
40
1
9
$DIMSCALE
40
1
9
$DIMEXO
40
0.025
9
$DIMEXE
40
0.05
9
$DIMTXT
40
0.1
9
$DIMTSZ
40
0
9
$DIMAUNIT
70
0
9
$DIMADEC
70
2
9
$DIMLUNIT
70
2
9
$DIMSTYLE
2
STANDARD
9
$DIMGAP
40
0.025
9
$DIMTIH
70
0
9
$LUNITS
70
2
9
$LUPREC
70
4
9
$AUNITS
70
0
9
$AUPREC
70
2
9
$SPLINESEGS
70
8
9
$GRIDMODE
70
1
9
$SNAPSTYLE
70
0
9
$GRIDUNIT
10
0
20
0
9
$PINSBASE
10
0
20
0
30
0
9
$PLIMMIN
10
0
20
0
9
$PLIMMAX
10
0.00050452782
20
0.00071354442
9
$INSUNITS
70
1
9
$PSVPSCALE
40
1
0
ENDSEC
0
SECTION
2
CLASSES
0
ENDSEC
0
SECTION
2
TABLES
0
TABLE
2
VPORT
5
8
330
0
100
AcDbSymbolTable
70
1
0
VPORT
5
31
330
2
100
AcDbSymbolTableRecord
100
AcDbViewportTableRecord
2
*ACTIVE
70
0
10
0
20
0
11
1
21
1
12
2.24878811858
22
1.29520364862
13
0
23
0
14
10
24
10
15
10
25
10
16
0
26
0
36
1
17
0
27
0
37
0
40
3.38669948349
41
1.40638606676
42
50
43
0
44
0
50
0
51
0
71
0
72
100
73
1
74
3
75
0
76
1
77
0
78
0
281
0
65
1
110
0
120
0
130
0
111
1
121
0
131
0
112
0
122
1
132
0
79
0
146
0
348
10020
60
7
61
5
292
1
282
1
141
0
142
0
63
250
421
3358443
0
ENDTAB
0
TABLE
2
LTYPE
5
5
330
0
100
AcDbSymbolTable
70
4
0
LTYPE
5
14
330
5
100
AcDbSymbolTableRecord
100
AcDbLinetypeTableRecord
2
ByBlock
70
0
3

72
65
73
0
40
0
0
LTYPE
5
15
330
5
100
AcDbSymbolTableRecord
100
AcDbLinetypeTableRecord
2
ByLayer
70
0
3

72
65
73
0
40
0
0
LTYPE
5
16
330
5
100
AcDbSymbolTableRecord
100
AcDbLinetypeTableRecord
2
Continuous
70
0
3
Solid line
72
65
73
0
40
0
0
LTYPE
5
32
330
5
100
AcDbSymbolTableRecord
100
AcDbLinetypeTableRecord
2
DOT
70
0
3
Dot . . . . . . . . . . . . . . . . . . . . . .
72
65
73
2
40
6.35
49
0
74
0
49
-6.35
74
0
0
LTYPE
5
33
330
5
100
AcDbSymbolTableRecord
100
AcDbLinetypeTableRecord
2
DOT2
70
0
3
Dot (.5x) .....................................
72
65
73
2
40
3.175
49
0
74
0
49
-3.175
74
0
0
LTYPE
5
34
330
5
100
AcDbSymbolTableRecord
100
AcDbLinetypeTableRecord
2
DOTX2
70
0
3
Dot (2x) .  .  .  .  .  .  .  .  .  .  .  .  .
72
65
73
2
40
12.7
49
0
74
0
49
-12.7
74
0
0
LTYPE
5
35
330
5
100
AcDbSymbolTableRecord
100
AcDbLinetypeTableRecord
2
DASHED
70
0
3
Dot . . . . . . . . . . . . . . . . . . . . . .
72
65
73
2
40
19.05
49
12.7
74
0
49
-6.35
74
0
0
LTYPE
5
36
330
5
100
AcDbSymbolTableRecord
100
AcDbLinetypeTableRecord
2
DASHED2
70
0
3
Dashed (.5x) _ _ _ _ _ _ _ _ _ _ _ _ _ _ _ _ _
72
65
73
2
40
9.525
49
6.35
74
0
49
-3.175
74
0
0
LTYPE
5
37
330
5
100
AcDbSymbolTableRecord
100
AcDbLinetypeTableRecord
2
DASHEDX2
70
0
3
Dashed (2x) ____  ____  ____  ____  ____  ___
72
65
73
2
40
38.1
49
25.4
74
0
49
-12.7
74
0
0
LTYPE
5
38
330
5
100
AcDbSymbolTableRecord
100
AcDbLinetypeTableRecord
2
DASHDOT
70
0
3
Dash dot __ . __ . __ . __ . __ . __ . __ . __
72
65
73
4
40
25.4
49
12.7
74
0
49
-6.35
74
0
49
0
74
0
49
-6.35
74
0
0
LTYPE
5
39
330
5
100
AcDbSymbolTableRecord
100
AcDbLinetypeTableRecord
2
DASHDOT2
70
0
3
Dash dot (.5x) _._._._._._._._._._._._._._._.
72
65
73
4
40
12.7
49
6.35
74
0
49
-3.175
74
0
49
0
74
0
49
-3.175
74
0
0
LTYPE
5
3A
330
5
100
AcDbSymbolTableRecord
100
AcDbLinetypeTableRecord
2
DASHDOTX2
70
0
3
Dash dot (2x) ____  .  ____  .  ____  .  ___
72
65
73
4
40
50.8
49
25.4
74
0
49
-12.7
74
0
49
0
74
0
49
-12.7
74
0
0
LTYPE
5
3B
330
5
100
AcDbSymbolTableRecord
100
AcDbLinetypeTableRecord
2
DIVIDE
70
0
3
Divide ____ . . ____ . . ____ . . ____ . . ____
72
65
73
6
40
31.75
49
12.7
74
0
49
-6.35
74
0
49
0
74
0
49
-6.35
74
0
49
0
74
0
49
-6.35
74
0
0
LTYPE
5
3C
330
5
100
AcDbSymbolTableRecord
100
AcDbLinetypeTableRecord
2
DIVIDE2
70
0
3
Divide (.5x) __..__..__..__..__..__..__..__.._
72
65
73
6
40
15.875
49
6.35
74
0
49
-3.175
74
0
49
0
74
0
49
-3.175
74
0
49
0
74
0
49
-3.175
74
0
0
LTYPE
5
3D
330
5
100
AcDbSymbolTableRecord
100
AcDbLinetypeTableRecord
2
DIVIDEX2
70
0
3
Divide (2x) ________  .  .  ________  .  .  _
72
65
73
6
40
63.5
49
25.4
74
0
49
-12.7
74
0
49
0
74
0
49
-12.7
74
0
49
0
74
0
49
-12.7
74
0
0
LTYPE
5
3E
330
5
100
AcDbSymbolTableRecord
100
AcDbLinetypeTableRecord
2
BORDER
70
0
3
Border __ __ . __ __ . __ __ . __ __ . __ __ .
72
65
73
6
40
44.45
49
12.7
74
0
49
-6.35
74
0
49
12.7
74
0
49
-6.35
74
0
49
0
74
0
49
-6.35
74
0
0
LTYPE
5
3F
330
5
100
AcDbSymbolTableRecord
100
AcDbLinetypeTableRecord
2
BORDER2
70
0
3
Border (.5x) __.__.__.__.__.__.__.__.__.__.__.
72
65
73
6
40
22.225
49
6.35
74
0
49
-3.175
74
0
49
6.35
74
0
49
-3.175
74
0
49
0
74
0
49
-3.175
74
0
0
LTYPE
5
40
330
5
100
AcDbSymbolTableRecord
100
AcDbLinetypeTableRecord
2
BORDERX2
70
0
3
Border (2x) ____  ____  .  ____  ____  .  ___
72
65
73
6
40
88.9
49
25.4
74
0
49
-12.7
74
0
49
25.4
74
0
49
-12.7
74
0
49
0
74
0
49
-12.7
74
0
0
LTYPE
5
41
330
5
100
AcDbSymbolTableRecord
100
AcDbLinetypeTableRecord
2
CENTER
70
0
3
Center ____ _ ____ _ ____ _ ____ _ ____ _ ____
72
65
73
4
40
50.8
49
31.75
74
0
49
-6.35
74
0
49
6.35
74
0
49
-6.35
74
0
0
LTYPE
5
42
330
5
100
AcDbSymbolTableRecord
100
AcDbLinetypeTableRecord
2
CENTER2
70
0
3
Center (.5x) ___ _ ___ _ ___ _ ___ _ ___ _ ___
72
65
73
4
40
28.575
49
19.05
74
0
49
-3.175
74
0
49
3.175
74
0
49
-3.175
74
0
0
LTYPE
5
43
330
5
100
AcDbSymbolTableRecord
100
AcDbLinetypeTableRecord
2
CENTERX2
70
0
3
Center (2x) ________  __  ________  __  _____
72
65
73
4
40
101.6
49
63.5
74
0
49
-12.7
74
0
49
12.7
74
0
49
-12.7
74
0
0
ENDTAB
0
TABLE
2
LAYER
5
2
330
0
100
AcDbSymbolTable
70
1
0
LAYER
5
44
330
2
100
AcDbSymbolTableRecord
100
AcDbLayerTableRecord
2

70
0
62
251
420
5658198
6
CONTINUOUS
370
0
390
F
0
LAYER
5
10
330
2
100
AcDbSymbolTableRecord
100
AcDbLayerTableRecord
2
0
70
0
62
7
6
CONTINUOUS
370
0
390
F
0
LAYER
5
45
330
2
100
AcDbSymbolTableRecord
100
AcDbLayerTableRecord
2
8-32_INSERT_HOLE
70
0
62
6
6
CONTINUOUS
370
0
390
F
0
LAYER
5
46
330
2
100
AcDbSymbolTableRecord
100
AcDbLayerTableRecord
2
M6_COUNTER_SINK
70
0
62
21
420
16754776
6
CONTINUOUS
370
0
390
F
0
LAYER
5
47
330
2
100
AcDbSymbolTableRecord
100
AcDbLayerTableRecord
2
M6_THROUGH_HOLE
70
0
62
2
6
CONTINUOUS
370
0
390
F
0
LAYER
5
48
330
2
100
AcDbSymbolTableRecord
100
AcDbLayerTableRecord
2
OUTER_BOUNDARY
70
0
62
5
6
CONTINUOUS
370
0
390
F
0
LAYER
5
49
330
2
100
AcDbSymbolTableRecord
100
AcDbLayerTableRecord
2
REFERENCE
70
0
62
9
6
CONTINUOUS
370
0
390
F
0
ENDTAB
0
TABLE
2
STYLE
5
3
330
0
100
AcDbSymbolTable
70
3
0
STYLE
5
4A
330
2
100
AcDbSymbolTableRecord
100
AcDbTextStyleTableRecord
2
Standard
70
0
40
0
41
1
50
0
71
0
42
1
3
txt
4

0
ENDTAB
0
TABLE
2
VIEW
5
6
330
0
100
AcDbSymbolTable
70
0
0
ENDTAB
0
TABLE
2
UCS
5
7
330
0
100
AcDbSymbolTable
70
0
0
ENDTAB
0
TABLE
2
APPID
5
9
330
0
100
AcDbSymbolTable
70
1
0
APPID
5
12
330
9
100
AcDbSymbolTableRecord
100
AcDbRegAppTableRecord
2
ACAD
70
0
0
ENDTAB
0
TABLE
2
DIMSTYLE
5
A
330
0
100
AcDbSymbolTable
70
1
100
AcDbDimStyleTable
71
1
0
DIMSTYLE
105
4B
330
A
100
AcDbSymbolTableRecord
100
AcDbDimStyleTableRecord
2
Standard
70
0
40
1
41
0.1
42
0.025
43
0.38
44
0.05
45
0
46
0
47
0
48
0
140
0.1
141
0.09
142
0
143
25.4
144
1
145
0
146
1
147
0.025
148
0
71
0
72
0
73
0
74
1
75
0
76
0
77
0
78
0
79
0
170
0
171
2
172
0
173
0
174
0
175
0
176
0
177
0
178
0
179
0
271
4
272
4
273
2
274
2
275
0
276
0
277
2
278
46
279
0
280
0
281
0
282
0
283
1
284
0
285
0
286
0
288
0
289
3
340
Standard
341

371
-2
372
-2
0
ENDTAB
0
TABLE
2
BLOCK_RECORD
5
1
330
0
100
AcDbSymbolTable
70
2
0
BLOCK_RECORD
5
1F
330
1
100
AcDbSymbolTableRecord
100
AcDbBlockTableRecord
2
*Model_Space
70
0
280
1
281
0
0
BLOCK_RECORD
5
1E
330
1
100
AcDbSymbolTableRecord
100
AcDbBlockTableRecord
2
*Paper_Space
70
0
280
1
281
0
0
BLOCK_RECORD
5
4C
330
1
100
AcDbSymbolTableRecord
100
AcDbBlockTableRecord
2
*D4
70
0
280
1
281
0
0
BLOCK_RECORD
5
4F
330
1
100
AcDbSymbolTableRecord
100
AcDbBlockTableRecord
2
*D3
70
0
280
1
281
0
0
BLOCK_RECORD
5
52
330
1
100
AcDbSymbolTableRecord
100
AcDbBlockTableRecord
2
*D1
70
0
280
1
281
0
0
BLOCK_RECORD
5
55
330
1
100
AcDbSymbolTableRecord
100
AcDbBlockTableRecord
2
*D2
70
0
280
1
281
0
0
ENDTAB
0
ENDSEC
0
SECTION
2
BLOCKS
0
BLOCK
5
20
330
1F
100
AcDbEntity
8
0
100
AcDbBlockBegin
2
*Model_Space
70
0
10
0
20
0
30
0
3
*Model_Space
1

0
ENDBLK
5
21
330
1F
100
AcDbEntity
8
0
100
AcDbBlockEnd
0
BLOCK
5
1C
330
1B
100
AcDbEntity
8
0
100
AcDbBlockBegin
2
*Paper_Space
70
0
10
0
20
0
30
0
3
*Paper_Space
1

0
ENDBLK
5
1D
330
1F
100
AcDbEntity
8
0
100
AcDbBlockEnd
0
BLOCK
5
4D
330
4C
100
AcDbEntity
8
0
100
AcDbBlockBegin
2
*D4
70
1
10
0
20
0
3
*D4
1

0
LINE
5
58
100
AcDbEntity
8
REFERENCE
6
CONTINUOUS
62
7
370
0
100
AcDbLine
10
0.492125984252
20
1.66662234198
11
3.44488188976
21
1.66662234198
0
SOLID
5
59
100
AcDbEntity
8
REFERENCE
6
CONTINUOUS
62
7
370
0
100
AcDbTrace
10
0.492125984252
20
1.66662234198
30
0
11
0.592125984252
21
1.68327372829
31
0
12
0.592125984252
22
1.64997095567
32
0
13
0.592125984252
23
1.64997095567
33
0
0
SOLID
5
5A
100
AcDbEntity
8
REFERENCE
6
CONTINUOUS
62
7
370
0
100
AcDbTrace
10
3.44488188976
20
1.66662234198
30
0
11
3.34488188976
21
1.64997095567
31
0
12
3.34488188976
22
1.68327372829
32
0
13
3.34488188976
23
1.68327372829
33
0
0
MTEXT
5
5B
100
AcDbEntity
8
REFERENCE
6
CONTINUOUS
62
7
370
0
100
AcDbMText
10
1.96850393701
20
1.74162234198
30
0
40
0.1
41
0.388888888889
71
5
72
1
1
2.9528
7
standard
210
0
220
0
230
1
50
0
73
2
44
1
0
LINE
5
5C
100
AcDbEntity
8
REFERENCE
6
CONTINUOUS
62
7
370
0
100
AcDbLine
10
0.492125984252
20
0.615551181102
11
0.492125984252
21
1.71662234198
0
LINE
5
5D
100
AcDbEntity
8
REFERENCE
6
CONTINUOUS
62
7
370
0
100
AcDbLine
10
3.44488188976
20
0.615551181102
11
3.44488188976
21
1.71662234198
0
ENDBLK
5
4E
330
4C
100
AcDbEntity
8
0
100
AcDbBlockEnd
0
BLOCK
5
50
330
4F
100
AcDbEntity
8
0
100
AcDbBlockBegin
2
*D3
70
1
10
0
20
0
3
*D3
1

0
LINE
5
5E
100
AcDbEntity
8
REFERENCE
6
CONTINUOUS
62
7
370
0
100
AcDbLine
10
1.46850393701
20
1.32715364375
11
2.46850393701
21
1.32715364375
0
SOLID
5
5F
100
AcDbEntity
8
REFERENCE
6
CONTINUOUS
62
7
370
0
100
AcDbTrace
10
1.46850393701
20
1.32715364375
30
0
11
1.56850393701
21
1.34380503006
31
0
12
1.56850393701
22
1.31050225744
32
0
13
1.56850393701
23
1.31050225744
33
0
0
SOLID
5
60
100
AcDbEntity
8
REFERENCE
6
CONTINUOUS
62
7
370
0
100
AcDbTrace
10
2.46850393701
20
1.32715364375
30
0
11
2.36850393701
21
1.31050225744
31
0
12
2.36850393701
22
1.34380503006
32
0
13
2.36850393701
23
1.34380503006
33
0
0
MTEXT
5
61
100
AcDbEntity
8
REFERENCE
6
CONTINUOUS
62
7
370
0
100
AcDbMText
10
1.96850393701
20
1.40215364375
30
0
40
0.1
41
0.0222222222222
71
5
72
1
1
1
7
standard
210
0
220
0
230
1
50
0
73
2
44
1
0
LINE
5
62
100
AcDbEntity
8
REFERENCE
6
CONTINUOUS
62
7
370
0
100
AcDbLine
10
1.46850393701
20
0.743503937008
11
1.46850393701
21
1.37715364375
0
LINE
5
63
100
AcDbEntity
8
REFERENCE
6
CONTINUOUS
62
7
370
0
100
AcDbLine
10
2.46850393701
20
0.743503937008
11
2.46850393701
21
1.37715364375
0
ENDBLK
5
51
330
4F
100
AcDbEntity
8
0
100
AcDbBlockEnd
0
BLOCK
5
53
330
52
100
AcDbEntity
8
0
100
AcDbBlockBegin
2
*D1
70
1
10
0
20
0
3
*D1
1

0
LINE
5
64
100
AcDbEntity
8
REFERENCE
6
CONTINUOUS
62
7
370
0
100
AcDbLine
10
4.4408920985e-16
20
-0.268810055158
11
3.93700787402
21
-0.268810055158
0
SOLID
5
65
100
AcDbEntity
8
REFERENCE
6
CONTINUOUS
62
7
370
0
100
AcDbTrace
10
4.4408920985e-16
20
-0.268810055158
30
0
11
0.1
21
-0.252158668847
31
0
12
0.1
22
-0.285461441469
32
0
13
0.1
23
-0.285461441469
33
0
0
SOLID
5
66
100
AcDbEntity
8
REFERENCE
6
CONTINUOUS
62
7
370
0
100
AcDbTrace
10
3.93700787402
20
-0.268810055158
30
0
11
3.83700787402
21
-0.285461441469
31
0
12
3.83700787402
22
-0.252158668847
32
0
13
3.83700787402
23
-0.252158668847
33
0
0
MTEXT
5
67
100
AcDbEntity
8
REFERENCE
6
CONTINUOUS
62
7
370
0
100
AcDbMText
10
1.96850393701
20
-0.193810055158
30
0
40
0.1
41
0.311111111111
71
5
72
1
1
3.937
7
standard
210
0
220
0
230
1
50
0
73
2
44
1
0
LINE
5
68
100
AcDbEntity
8
REFERENCE
6
CONTINUOUS
62
7
370
0
100
AcDbLine
10
1.76121866657e-17
20
0.1
11
4.79313583181e-16
21
-0.318810055158
0
LINE
5
69
100
AcDbEntity
8
REFERENCE
6
CONTINUOUS
62
7
370
0
100
AcDbLine
10
3.93700787402
20
0.1
11
3.93700787402
21
-0.318810055158
0
ENDBLK
5
54
330
52
100
AcDbEntity
8
0
100
AcDbBlockEnd
0
BLOCK
5
56
330
55
100
AcDbEntity
8
0
100
AcDbBlockBegin
2
*D2
70
1
10
0
20
0
3
*D2
1

0
LINE
5
6A
100
AcDbEntity
8
REFERENCE
6
CONTINUOUS
62
7
370
0
100
AcDbLine
10
4.19036474554
20
1.06299212598
11
4.19036474554
21
-2.35233885765e-17
0
SOLID
5
6B
100
AcDbEntity
8
REFERENCE
6
CONTINUOUS
62
7
370
0
100
AcDbTrace
10
4.19036474554
20
1.06299212598
30
0
11
4.20701613185
21
0.962992125984
31
0
12
4.17371335923
22
0.962992125984
32
0
13
4.17371335923
23
0.962992125984
33
0
0
SOLID
5
6C
100
AcDbEntity
8
REFERENCE
6
CONTINUOUS
62
7
370
0
100
AcDbTrace
10
4.19036474554
20
-2.35233885765e-17
30
0
11
4.17371335923
21
0.1
31
0
12
4.20701613185
22
0.1
32
0
13
4.20701613185
23
0.1
33
0
0
MTEXT
5
6D
100
AcDbEntity
8
REFERENCE
6
CONTINUOUS
62
7
370
0
100
AcDbMText
10
4.11536474554
20
0.531496062992
30
0
40
0.1
41
0.288888888889
71
5
72
1
1
1.063
7
standard
210
0
220
0
230
1
50
90
73
2
44
1
0
LINE
5
6E
100
AcDbEntity
8
REFERENCE
6
CONTINUOUS
62
7
370
0
100
AcDbLine
10
3.83700787402
20
1.06299212598
11
4.24036474554
21
1.06299212598
0
LINE
5
6F
100
AcDbEntity
8
REFERENCE
6
CONTINUOUS
62
7
370
0
100
AcDbLine
10
3.83700787402
20
0
11
4.24036474554
21
-2.35233885765e-17
0
ENDBLK
5
57
330
55
100
AcDbEntity
8
0
100
AcDbBlockEnd
0
ENDSEC
0
SECTION
2
ENTITIES
0
CIRCLE
5
70
100
AcDbEntity
8
8-32_INSERT_HOLE
6
ByLayer
62
256
370
-1
100
AcDbCircle
10
1.46850393701
20
0.718503937008
40
0.117187401575
0
CIRCLE
5
71
100
AcDbEntity
8
8-32_INSERT_HOLE
6
ByLayer
62
256
370
-1
100
AcDbCircle
10
2.46850393701
20
0.718503937008
40
0.117187401575
0
LINE
5
72
100
AcDbEntity
8

6
ByLayer
62
256
370
-1
100
AcDbLine
10
0.968503937008
20
0.324803149606
11
2.96850393701
21
0.324803149606
0
LINE
5
73
100
AcDbEntity
8

6
ByLayer
62
256
370
-1
100
AcDbLine
10
2.96850393701
20
0.324803149606
11
2.96850393701
21
1.11220472441
0
LINE
5
74
100
AcDbEntity
8

6
ByLayer
62
256
370
-1
100
AcDbLine
10
2.96850393701
20
1.11220472441
11
0.968503937008
21
1.11220472441
0
LINE
5
75
100
AcDbEntity
8

6
ByLayer
62
256
370
-1
100
AcDbLine
10
0.968503937008
20
1.11220472441
11
0.968503937008
21
0.324803149606
0
ARC
5
76
100
AcDbEntity
8
OUTER_BOUNDARY
6
ByLayer
62
256
370
-1
100
AcDbCircle
10
0.125
20
0.125
40
0.125
100
AcDbArc
50
180
51
270
0
LINE
5
77
100
AcDbEntity
8
OUTER_BOUNDARY
6
ByLayer
62
256
370
-1
100
AcDbLine
10
0.125
20
0
11
3.81200787402
21
0
0
ARC
5
78
100
AcDbEntity
8
OUTER_BOUNDARY
6
ByLayer
62
256
370
-1
100
AcDbCircle
10
3.81200787402
20
0.125
40
0.125
100
AcDbArc
50
270
51
0
0
LINE
5
79
100
AcDbEntity
8
OUTER_BOUNDARY
6
ByLayer
62
256
370
-1
100
AcDbLine
10
0
20
0.937992125984
11
0
21
0.125
0
ARC
5
7A
100
AcDbEntity
8
OUTER_BOUNDARY
6
ByLayer
62
256
370
-1
100
AcDbCircle
10
0.125
20
0.937992125984
40
0.125
100
AcDbArc
50
90
51
180
0
LINE
5
7B
100
AcDbEntity
8
OUTER_BOUNDARY
6
ByLayer
62
256
370
-1
100
AcDbLine
10
3.93700787402
20
0.125
11
3.93700787402
21
0.937992125984
0
LINE
5
7C
100
AcDbEntity
8
OUTER_BOUNDARY
6
ByLayer
62
256
370
-1
100
AcDbLine
10
3.81200787402
20
1.06299212598
11
0.125
21
1.06299212598
0
ARC
5
7D
100
AcDbEntity
8
OUTER_BOUNDARY
6
ByLayer
62
256
370
-1
100
AcDbCircle
10
3.81200787402
20
0.937992125984
40
0.125
100
AcDbArc
50
360
51
90
0
LINE
5
7E
100
AcDbEntity
8
REFERENCE
6
ByLayer
62
256
370
-1
100
AcDbLine
10
0.125
20
0
11
0
21
0
0
LINE
5
7F
100
AcDbEntity
8
REFERENCE
6
ByLayer
62
256
370
-1
100
AcDbLine
10
0
20
0.125
11
0
21
0
0
CIRCLE
5
80
100
AcDbEntity
8
M6_THROUGH_HOLE
6
ByLayer
62
256
370
-1
100
AcDbCircle
10
0.492125984252
20
0.590551181102
40
0.129921259843
0
CIRCLE
5
81
100
AcDbEntity
8
M6_COUNTER_SINK
6
ByLayer
62
256
370
-1
100
AcDbCircle
10
0.492125984252
20
0.590551181102
40
0.255905511811
0
CIRCLE
5
82
100
AcDbEntity
8
M6_THROUGH_HOLE
6
ByLayer
62
256
370
-1
100
AcDbCircle
10
3.44488188976
20
0.590551181102
40
0.129921259843
0
CIRCLE
5
83
100
AcDbEntity
8
M6_COUNTER_SINK
6
ByLayer
62
256
370
-1
100
AcDbCircle
10
3.44488188976
20
0.590551181102
40
0.255905511811
0
DIMENSION
5
84
100
AcDbEntity
8
REFERENCE
6
ByLayer
62
256
370
-1
100
AcDbDimension
2
*D1
10
3.93700787402
20
-0.268810055158
30
0
11
1.96850393701
21
-0.193810055158
31
0
70
32
71
5
3
Standard
53
0
210
0
220
0
230
1
100
AcDbAlignedDimension
13
0
23
0.125
33
0
14
3.93700787402
24
0.125
34
0
100
AcDbRotatedDimension
0
DIMENSION
5
85
100
AcDbEntity
8
REFERENCE
6
ByLayer
62
256
370
-1
100
AcDbDimension
2
*D2
10
4.19036474554
20
-4.63338228884e-17
30
0
11
4.11536474554
21
0.531496062992
31
0
70
32
71
5
3
Standard
53
0
210
0
220
0
230
1
100
AcDbAlignedDimension
13
3.81200787402
23
1.06299212598
33
0
14
3.81200787402
24
0
34
0
50
90
100
AcDbRotatedDimension
0
DIMENSION
5
86
100
AcDbEntity
8
REFERENCE
6
ByLayer
62
256
370
-1
100
AcDbDimension
2
*D3
10
2.46850393701
20
1.32715364375
30
0
11
1.96850393701
21
1.40215364375
31
0
70
32
71
5
3
Standard
53
0
210
0
220
0
230
1
100
AcDbAlignedDimension
13
1.46850393701
23
0.718503937008
33
0
14
2.46850393701
24
0.718503937008
34
0
100
AcDbRotatedDimension
0
DIMENSION
5
87
100
AcDbEntity
8
REFERENCE
6
ByLayer
62
256
370
-1
100
AcDbDimension
2
*D4
10
3.44488188976
20
1.66662234198
30
0
11
1.96850393701
21
1.74162234198
31
0
70
32
71
5
3
Standard
53
0
210
0
220
0
230
1
100
AcDbAlignedDimension
13
0.492125984252
23
0.590551181102
33
0
14
3.44488188976
24
0.590551181102
34
0
100
AcDbRotatedDimension
0
ENDSEC
0
SECTION
2
OBJECTS
0
DICTIONARY
5
C
330
0
100
AcDbDictionary
281
1
3
ACAD_GROUP
350
D
0
DICTIONARY
5
D
330
C
100
AcDbDictionary
281
1
0
ENDSEC
0
EOF
