999
dxfrw 0.5.10
0
SECTION
2
HEADER
9
$ACADVER
1
AC1021
9
$HANDSEED
5
20000
9
$DWGCODEPAGE
3
ANSI_1252
9
$INSBASE
10
0
20
0
30
0
9
$EXTMIN
10
-1.7598030976
20
-2.043503872
30
0
9
$EXTMAX
10
14.693524736
20
14.6983920768
30
0
9
$LIMMIN
10
0
20
0
9
$LIMMAX
10
420
20
297
9
$ORTHOMODE
70
0
9
$LTSCALE
40
1
9
$TEXTSTYLE
7
STANDARD
9
$CLAYER
8
dimension
9
$DIMASZ
40
0.5
9
$DIMLFAC
40
1
9
$DIMSCALE
40
1
9
$DIMEXO
40
0.025
9
$DIMEXE
40
0.5
9
$DIMTXT
40
0.5
9
$DIMTSZ
40
0
9
$DIMAUNIT
70
0
9
$DIMADEC
70
2
9
$DIMLUNIT
70
2
9
$DIMSTYLE
2
STANDARD
9
$DIMGAP
40
0.025
9
$DIMTIH
70
0
9
$LUNITS
70
2
9
$LUPREC
70
4
9
$AUNITS
70
0
9
$AUPREC
70
2
9
$SPLINESEGS
70
8
9
$GRIDMODE
70
1
9
$SNAPSTYLE
70
0
9
$GRIDUNIT
10
0
20
0
9
$PINSBASE
10
0
20
0
30
0
9
$PLIMMIN
10
0
20
0
9
$PLIMMAX
10
1.9863308e-05
20
2.80924e-05
9
$INSUNITS
70
1
9
$PSVPSCALE
40
1
0
ENDSEC
0
SECTION
2
CLASSES
0
ENDSEC
0
SECTION
2
TABLES
0
TABLE
2
VPORT
5
8
330
0
100
AcDbSymbolTable
70
1
0
VPORT
5
31
330
2
100
AcDbSymbolTableRecord
100
AcDbViewportTableRecord
2
*ACTIVE
70
0
10
0
20
0
11
1
21
1
12
14.495514624
22
7.98595481601
13
0
23
0
14
10
24
10
15
10
25
10
16
0
26
0
36
1
17
0
27
0
37
0
40
21.072183296
41
1.59363057325
42
50
43
0
44
0
50
0
51
0
71
0
72
100
73
1
74
3
75
0
76
1
77
0
78
0
281
0
65
1
110
0
120
0
130
0
111
1
121
0
131
0
112
0
122
1
132
0
79
0
146
0
348
10020
60
7
61
5
292
1
282
1
141
0
142
0
63
250
421
3358443
0
ENDTAB
0
TABLE
2
LTYPE
5
5
330
0
100
AcDbSymbolTable
70
4
0
LTYPE
5
14
330
5
100
AcDbSymbolTableRecord
100
AcDbLinetypeTableRecord
2
ByBlock
70
0
3

72
65
73
0
40
0
0
LTYPE
5
15
330
5
100
AcDbSymbolTableRecord
100
AcDbLinetypeTableRecord
2
ByLayer
70
0
3

72
65
73
0
40
0
0
LTYPE
5
16
330
5
100
AcDbSymbolTableRecord
100
AcDbLinetypeTableRecord
2
Continuous
70
0
3
Solid line
72
65
73
0
40
0
0
LTYPE
5
32
330
5
100
AcDbSymbolTableRecord
100
AcDbLinetypeTableRecord
2
DOT
70
0
3
Dot . . . . . . . . . . . . . . . . . . . . . .
72
65
73
2
40
6.35
49
0
74
0
49
-6.35
74
0
0
LTYPE
5
33
330
5
100
AcDbSymbolTableRecord
100
AcDbLinetypeTableRecord
2
DOT2
70
0
3
Dot (.5x) .....................................
72
65
73
2
40
3.175
49
0
74
0
49
-3.175
74
0
0
LTYPE
5
34
330
5
100
AcDbSymbolTableRecord
100
AcDbLinetypeTableRecord
2
DOTX2
70
0
3
Dot (2x) .  .  .  .  .  .  .  .  .  .  .  .  .
72
65
73
2
40
12.7
49
0
74
0
49
-12.7
74
0
0
LTYPE
5
35
330
5
100
AcDbSymbolTableRecord
100
AcDbLinetypeTableRecord
2
DASHED
70
0
3
Dot . . . . . . . . . . . . . . . . . . . . . .
72
65
73
2
40
19.05
49
12.7
74
0
49
-6.35
74
0
0
LTYPE
5
36
330
5
100
AcDbSymbolTableRecord
100
AcDbLinetypeTableRecord
2
DASHED2
70
0
3
Dashed (.5x) _ _ _ _ _ _ _ _ _ _ _ _ _ _ _ _ _
72
65
73
2
40
9.525
49
6.35
74
0
49
-3.175
74
0
0
LTYPE
5
37
330
5
100
AcDbSymbolTableRecord
100
AcDbLinetypeTableRecord
2
DASHEDX2
70
0
3
Dashed (2x) ____  ____  ____  ____  ____  ___
72
65
73
2
40
38.1
49
25.4
74
0
49
-12.7
74
0
0
LTYPE
5
38
330
5
100
AcDbSymbolTableRecord
100
AcDbLinetypeTableRecord
2
DASHDOT
70
0
3
Dash dot __ . __ . __ . __ . __ . __ . __ . __
72
65
73
4
40
25.4
49
12.7
74
0
49
-6.35
74
0
49
0
74
0
49
-6.35
74
0
0
LTYPE
5
39
330
5
100
AcDbSymbolTableRecord
100
AcDbLinetypeTableRecord
2
DASHDOT2
70
0
3
Dash dot (.5x) _._._._._._._._._._._._._._._.
72
65
73
4
40
12.7
49
6.35
74
0
49
-3.175
74
0
49
0
74
0
49
-3.175
74
0
0
LTYPE
5
3A
330
5
100
AcDbSymbolTableRecord
100
AcDbLinetypeTableRecord
2
DASHDOTX2
70
0
3
Dash dot (2x) ____  .  ____  .  ____  .  ___
72
65
73
4
40
50.8
49
25.4
74
0
49
-12.7
74
0
49
0
74
0
49
-12.7
74
0
0
LTYPE
5
3B
330
5
100
AcDbSymbolTableRecord
100
AcDbLinetypeTableRecord
2
DIVIDE
70
0
3
Divide ____ . . ____ . . ____ . . ____ . . ____
72
65
73
6
40
31.75
49
12.7
74
0
49
-6.35
74
0
49
0
74
0
49
-6.35
74
0
49
0
74
0
49
-6.35
74
0
0
LTYPE
5
3C
330
5
100
AcDbSymbolTableRecord
100
AcDbLinetypeTableRecord
2
DIVIDE2
70
0
3
Divide (.5x) __..__..__..__..__..__..__..__.._
72
65
73
6
40
15.875
49
6.35
74
0
49
-3.175
74
0
49
0
74
0
49
-3.175
74
0
49
0
74
0
49
-3.175
74
0
0
LTYPE
5
3D
330
5
100
AcDbSymbolTableRecord
100
AcDbLinetypeTableRecord
2
DIVIDEX2
70
0
3
Divide (2x) ________  .  .  ________  .  .  _
72
65
73
6
40
63.5
49
25.4
74
0
49
-12.7
74
0
49
0
74
0
49
-12.7
74
0
49
0
74
0
49
-12.7
74
0
0
LTYPE
5
3E
330
5
100
AcDbSymbolTableRecord
100
AcDbLinetypeTableRecord
2
BORDER
70
0
3
Border __ __ . __ __ . __ __ . __ __ . __ __ .
72
65
73
6
40
44.45
49
12.7
74
0
49
-6.35
74
0
49
12.7
74
0
49
-6.35
74
0
49
0
74
0
49
-6.35
74
0
0
LTYPE
5
3F
330
5
100
AcDbSymbolTableRecord
100
AcDbLinetypeTableRecord
2
BORDER2
70
0
3
Border (.5x) __.__.__.__.__.__.__.__.__.__.__.
72
65
73
6
40
22.225
49
6.35
74
0
49
-3.175
74
0
49
6.35
74
0
49
-3.175
74
0
49
0
74
0
49
-3.175
74
0
0
LTYPE
5
40
330
5
100
AcDbSymbolTableRecord
100
AcDbLinetypeTableRecord
2
BORDERX2
70
0
3
Border (2x) ____  ____  .  ____  ____  .  ___
72
65
73
6
40
88.9
49
25.4
74
0
49
-12.7
74
0
49
25.4
74
0
49
-12.7
74
0
49
0
74
0
49
-12.7
74
0
0
LTYPE
5
41
330
5
100
AcDbSymbolTableRecord
100
AcDbLinetypeTableRecord
2
CENTER
70
0
3
Center ____ _ ____ _ ____ _ ____ _ ____ _ ____
72
65
73
4
40
50.8
49
31.75
74
0
49
-6.35
74
0
49
6.35
74
0
49
-6.35
74
0
0
LTYPE
5
42
330
5
100
AcDbSymbolTableRecord
100
AcDbLinetypeTableRecord
2
CENTER2
70
0
3
Center (.5x) ___ _ ___ _ ___ _ ___ _ ___ _ ___
72
65
73
4
40
28.575
49
19.05
74
0
49
-3.175
74
0
49
3.175
74
0
49
-3.175
74
0
0
LTYPE
5
43
330
5
100
AcDbSymbolTableRecord
100
AcDbLinetypeTableRecord
2
CENTERX2
70
0
3
Center (2x) ________  __  ________  __  _____
72
65
73
4
40
101.6
49
63.5
74
0
49
-12.7
74
0
49
12.7
74
0
49
-12.7
74
0
0
ENDTAB
0
TABLE
2
LAYER
5
2
330
0
100
AcDbSymbolTable
70
1
0
LAYER
5
10
330
2
100
AcDbSymbolTableRecord
100
AcDbLayerTableRecord
2
0
70
0
62
7
6
CONTINUOUS
370
0
390
F
0
LAYER
5
44
330
2
100
AcDbSymbolTableRecord
100
AcDbLayerTableRecord
2
outer_boundary
70
0
62
5
6
CONTINUOUS
370
0
390
F
0
LAYER
5
45
330
2
100
AcDbSymbolTableRecord
100
AcDbLayerTableRecord
2
visualization
70
1
62
253
420
10526884
6
CONTINUOUS
370
0
390
F
0
LAYER
5
46
330
2
100
AcDbSymbolTableRecord
100
AcDbLayerTableRecord
2
scratch
70
0
62
56
420
8421376
6
CONTINUOUS
370
0
390
F
0
LAYER
5
47
330
2
100
AcDbSymbolTableRecord
100
AcDbLayerTableRecord
2
dowel_hole
70
0
62
6
6
CONTINUOUS
370
0
390
F
0
LAYER
5
48
330
2
100
AcDbSymbolTableRecord
100
AcDbLayerTableRecord
2
dimension
70
0
62
7
6
CONTINUOUS
370
0
390
F
0
ENDTAB
0
TABLE
2
STYLE
5
3
330
0
100
AcDbSymbolTable
70
3
0
STYLE
5
49
330
2
100
AcDbSymbolTableRecord
100
AcDbTextStyleTableRecord
2
Standard
70
0
40
0
41
1
50
0
71
0
42
1
3
txt
4

0
ENDTAB
0
TABLE
2
VIEW
5
6
330
0
100
AcDbSymbolTable
70
0
0
ENDTAB
0
TABLE
2
UCS
5
7
330
0
100
AcDbSymbolTable
70
0
0
ENDTAB
0
TABLE
2
APPID
5
9
330
0
100
AcDbSymbolTable
70
1
0
APPID
5
12
330
9
100
AcDbSymbolTableRecord
100
AcDbRegAppTableRecord
2
ACAD
70
0
0
ENDTAB
0
TABLE
2
DIMSTYLE
5
A
330
0
100
AcDbSymbolTable
70
1
100
AcDbDimStyleTable
71
1
0
DIMSTYLE
105
4A
330
A
100
AcDbSymbolTableRecord
100
AcDbDimStyleTableRecord
2
Standard
70
0
40
1
41
0.5
42
0.025
43
0.38
44
0.5
45
0
46
0
47
0
48
0
140
0.5
141
0.09
142
0
143
25.4
144
1
145
0
146
1
147
0.025
148
0
71
0
72
0
73
0
74
1
75
0
76
0
77
0
78
0
79
0
170
0
171
2
172
0
173
0
174
0
175
0
176
0
177
0
178
0
179
0
271
4
272
4
273
2
274
2
275
0
276
0
277
2
278
46
279
0
280
0
281
0
282
0
283
1
284
0
285
0
286
0
288
0
289
3
340
Standard
341

371
-2
372
-2
0
ENDTAB
0
TABLE
2
BLOCK_RECORD
5
1
330
0
100
AcDbSymbolTable
70
2
0
BLOCK_RECORD
5
1F
330
1
100
AcDbSymbolTableRecord
100
AcDbBlockTableRecord
2
*Model_Space
70
0
280
1
281
0
0
BLOCK_RECORD
5
1E
330
1
100
AcDbSymbolTableRecord
100
AcDbBlockTableRecord
2
*Paper_Space
70
0
280
1
281
0
0
BLOCK_RECORD
5
4B
330
1
100
AcDbSymbolTableRecord
100
AcDbBlockTableRecord
2
*D1
70
0
280
1
281
0
0
BLOCK_RECORD
5
4E
330
1
100
AcDbSymbolTableRecord
100
AcDbBlockTableRecord
2
*D4
70
0
280
1
281
0
0
BLOCK_RECORD
5
51
330
1
100
AcDbSymbolTableRecord
100
AcDbBlockTableRecord
2
*D3
70
0
280
1
281
0
0
BLOCK_RECORD
5
54
330
1
100
AcDbSymbolTableRecord
100
AcDbBlockTableRecord
2
*D2
70
0
280
1
281
0
0
ENDTAB
0
ENDSEC
0
SECTION
2
BLOCKS
0
BLOCK
5
20
330
1F
100
AcDbEntity
8
0
100
AcDbBlockBegin
2
*Model_Space
70
0
10
0
20
0
30
0
3
*Model_Space
1

0
ENDBLK
5
21
330
1F
100
AcDbEntity
8
0
100
AcDbBlockEnd
0
BLOCK
5
1C
330
1B
100
AcDbEntity
8
0
100
AcDbBlockBegin
2
*Paper_Space
70
0
10
0
20
0
30
0
3
*Paper_Space
1

0
ENDBLK
5
1D
330
1F
100
AcDbEntity
8
0
100
AcDbBlockEnd
0
BLOCK
5
4C
330
4B
100
AcDbEntity
8
0
100
AcDbBlockBegin
2
*D1
70
1
10
0
20
0
3
*D1
1

0
LINE
5
57
100
AcDbEntity
8
dimension
6
CONTINUOUS
62
7
370
0
100
AcDbLine
10
14.193524736
20
13.065
11
14.193524736
21
-6.01398789968e-17
0
SOLID
5
58
100
AcDbEntity
8
dimension
6
CONTINUOUS
62
7
370
0
100
AcDbTrace
10
14.193524736
20
13.065
30
0
11
14.2767816676
21
12.565
31
0
12
14.1102678044
22
12.565
32
0
13
14.1102678044
23
12.565
33
0
0
SOLID
5
59
100
AcDbEntity
8
dimension
6
CONTINUOUS
62
7
370
0
100
AcDbTrace
10
14.193524736
20
-6.01398789968e-17
30
0
11
14.1102678044
21
0.5
31
0
12
14.2767816676
22
0.5
32
0
13
14.2767816676
23
0.5
33
0
0
MTEXT
5
5A
100
AcDbEntity
8
dimension
6
CONTINUOUS
62
7
370
0
100
AcDbMText
10
13.918524736
20
6.5325
30
0
40
0.5
41
1.83333333333
71
5
72
1
1
13.065
7
standard
210
0
220
0
230
1
50
90
73
2
44
1
0
LINE
5
5B
100
AcDbEntity
8
dimension
6
CONTINUOUS
62
7
370
0
100
AcDbLine
10
13.09
20
13.065
11
14.693524736
21
13.065
0
LINE
5
5C
100
AcDbEntity
8
dimension
6
CONTINUOUS
62
7
370
0
100
AcDbLine
10
13.09
20
0
11
14.693524736
21
-6.01398789968e-17
0
ENDBLK
5
4D
330
4B
100
AcDbEntity
8
0
100
AcDbBlockEnd
0
BLOCK
5
4F
330
4E
100
AcDbEntity
8
0
100
AcDbBlockBegin
2
*D4
70
1
10
0
20
0
3
*D4
1

0
LINE
5
5D
100
AcDbEntity
8
dimension
6
CONTINUOUS
62
7
370
0
100
AcDbLine
10
-1.2348030976
20
9.79875
11
-1.2348030976
21
3.26625
0
SOLID
5
5E
100
AcDbEntity
8
dimension
6
CONTINUOUS
62
7
370
0
100
AcDbTrace
10
-1.2348030976
20
9.79875
30
0
11
-1.15154616605
21
9.29875
31
0
12
-1.31806002916
22
9.29875
32
0
13
-1.31806002916
23
9.29875
33
0
0
SOLID
5
5F
100
AcDbEntity
8
dimension
6
CONTINUOUS
62
7
370
0
100
AcDbTrace
10
-1.2348030976
20
3.26625
30
0
11
-1.31806002916
21
3.76625
31
0
12
-1.15154616605
22
3.76625
32
0
13
-1.15154616605
23
3.76625
33
0
0
MTEXT
5
60
100
AcDbEntity
8
dimension
6
CONTINUOUS
62
7
370
0
100
AcDbMText
10
-1.5098030976
20
6.5325
30
0
40
0.5
41
1.94444444444
71
5
72
1
1
6.5325
7
standard
210
0
220
0
230
1
50
90
73
2
44
1
0
LINE
5
61
100
AcDbEntity
8
dimension
6
CONTINUOUS
62
7
370
0
100
AcDbLine
10
0.21
20
9.79875
11
-1.7348030976
21
9.79875
0
LINE
5
62
100
AcDbEntity
8
dimension
6
CONTINUOUS
62
7
370
0
100
AcDbLine
10
0.21
20
3.26625
11
-1.7348030976
21
3.26625
0
ENDBLK
5
50
330
4E
100
AcDbEntity
8
0
100
AcDbBlockEnd
0
BLOCK
5
52
330
51
100
AcDbEntity
8
0
100
AcDbBlockBegin
2
*D3
70
1
10
0
20
0
3
*D3
1

0
LINE
5
63
100
AcDbEntity
8
dimension
6
CONTINUOUS
62
7
370
0
100
AcDbLine
10
3.26625
20
14.1733920768
11
9.79875
21
14.1733920768
0
SOLID
5
64
100
AcDbEntity
8
dimension
6
CONTINUOUS
62
7
370
0
100
AcDbTrace
10
3.26625
20
14.1733920768
30
0
11
3.76625
21
14.2566490084
31
0
12
3.76625
22
14.0901351453
32
0
13
3.76625
23
14.0901351453
33
0
0
SOLID
5
65
100
AcDbEntity
8
dimension
6
CONTINUOUS
62
7
370
0
100
AcDbTrace
10
9.79875
20
14.1733920768
30
0
11
9.29875
21
14.0901351453
31
0
12
9.29875
22
14.2566490084
32
0
13
9.29875
23
14.2566490084
33
0
0
MTEXT
5
66
100
AcDbEntity
8
dimension
6
CONTINUOUS
62
7
370
0
100
AcDbMText
10
6.5325
20
14.4483920768
30
0
40
0.5
41
1.94444444444
71
5
72
1
1
6.5325
7
standard
210
0
220
0
230
1
50
0
73
2
44
1
0
LINE
5
67
100
AcDbEntity
8
dimension
6
CONTINUOUS
62
7
370
0
100
AcDbLine
10
3.26625
20
12.855
11
3.26625
21
14.6733920768
0
LINE
5
68
100
AcDbEntity
8
dimension
6
CONTINUOUS
62
7
370
0
100
AcDbLine
10
9.79875
20
12.855
11
9.79875
21
14.6733920768
0
ENDBLK
5
53
330
51
100
AcDbEntity
8
0
100
AcDbBlockEnd
0
BLOCK
5
55
330
54
100
AcDbEntity
8
0
100
AcDbBlockBegin
2
*D2
70
1
10
0
20
0
3
*D2
1

0
LINE
5
69
100
AcDbEntity
8
dimension
6
CONTINUOUS
62
7
370
0
100
AcDbLine
10
0
20
-1.543503872
11
13.065
21
-1.543503872
0
SOLID
5
6A
100
AcDbEntity
8
dimension
6
CONTINUOUS
62
7
370
0
100
AcDbTrace
10
0
20
-1.543503872
30
0
11
0.5
21
-1.46024694045
31
0
12
0.5
22
-1.62676080355
32
0
13
0.5
23
-1.62676080355
33
0
0
SOLID
5
6B
100
AcDbEntity
8
dimension
6
CONTINUOUS
62
7
370
0
100
AcDbTrace
10
13.065
20
-1.543503872
30
0
11
12.565
21
-1.62676080355
31
0
12
12.565
22
-1.46024694045
32
0
13
12.565
23
-1.46024694045
33
0
0
MTEXT
5
6C
100
AcDbEntity
8
dimension
6
CONTINUOUS
62
7
370
0
100
AcDbMText
10
6.5325
20
-1.268503872
30
0
40
0.5
41
1.83333333333
71
5
72
1
1
13.065
7
standard
210
0
220
0
230
1
50
0
73
2
44
1
0
LINE
5
6D
100
AcDbEntity
8
dimension
6
CONTINUOUS
62
7
370
0
100
AcDbLine
10
-4.5924254968e-18
20
-0.025
11
-9.18485099361e-17
21
-2.043503872
0
LINE
5
6E
100
AcDbEntity
8
dimension
6
CONTINUOUS
62
7
370
0
100
AcDbLine
10
13.065
20
-0.025
11
13.065
21
-2.043503872
0
ENDBLK
5
56
330
54
100
AcDbEntity
8
0
100
AcDbBlockEnd
0
ENDSEC
0
SECTION
2
ENTITIES
0
LINE
5
6F
100
AcDbEntity
8
outer_boundary
6
ByLayer
62
256
370
-1
100
AcDbLine
10
0
20
0
11
13.065
21
0
0
LINE
5
70
100
AcDbEntity
8
outer_boundary
6
ByLayer
62
256
370
-1
100
AcDbLine
10
13.065
20
0
11
13.065
21
13.065
0
LINE
5
71
100
AcDbEntity
8
outer_boundary
6
ByLayer
62
256
370
-1
100
AcDbLine
10
13.065
20
13.065
11
0
21
13.065
0
LINE
5
72
100
AcDbEntity
8
outer_boundary
6
ByLayer
62
256
370
-1
100
AcDbLine
10
0
20
13.065
11
0
21
0
0
LINE
5
73
100
AcDbEntity
8
visualization
6
ByLayer
62
256
370
-1
100
AcDbLine
10
0
20
0
11
13.065
21
0
0
LINE
5
74
100
AcDbEntity
8
visualization
6
ByLayer
62
256
370
-1
100
AcDbLine
10
13.065
20
0
11
13.065
21
0.47
0
LINE
5
75
100
AcDbEntity
8
visualization
6
ByLayer
62
256
370
-1
100
AcDbLine
10
13.065
20
0.47
11
0
21
0.47
0
LINE
5
76
100
AcDbEntity
8
visualization
6
ByLayer
62
256
370
-1
100
AcDbLine
10
0
20
0.47
11
0
21
0
0
LINE
5
77
100
AcDbEntity
8
visualization
6
ByLayer
62
256
370
-1
100
AcDbLine
10
0
20
13.065
11
13.065
21
13.065
0
LINE
5
78
100
AcDbEntity
8
visualization
6
ByLayer
62
256
370
-1
100
AcDbLine
10
13.065
20
13.065
11
13.065
21
12.595
0
LINE
5
79
100
AcDbEntity
8
visualization
6
ByLayer
62
256
370
-1
100
AcDbLine
10
13.065
20
12.595
11
0
21
12.595
0
LINE
5
7A
100
AcDbEntity
8
visualization
6
ByLayer
62
256
370
-1
100
AcDbLine
10
0
20
12.595
11
0
21
13.065
0
LINE
5
7B
100
AcDbEntity
8
visualization
6
ByLayer
62
256
370
-1
100
AcDbLine
10
0
20
12.595
11
0.47
21
12.595
0
LINE
5
7C
100
AcDbEntity
8
visualization
6
ByLayer
62
256
370
-1
100
AcDbLine
10
0.47
20
12.595
11
0.47
21
0.47
0
LINE
5
7D
100
AcDbEntity
8
visualization
6
ByLayer
62
256
370
-1
100
AcDbLine
10
0.47
20
0.47
11
0
21
0.47
0
LINE
5
7E
100
AcDbEntity
8
visualization
6
ByLayer
62
256
370
-1
100
AcDbLine
10
0
20
0.47
11
0
21
12.595
0
LINE
5
7F
100
AcDbEntity
8
visualization
6
ByLayer
62
256
370
-1
100
AcDbLine
10
13.065
20
12.595
11
12.595
21
12.595
0
LINE
5
80
100
AcDbEntity
8
visualization
6
ByLayer
62
256
370
-1
100
AcDbLine
10
12.595
20
12.595
11
12.595
21
0.47
0
LINE
5
81
100
AcDbEntity
8
visualization
6
ByLayer
62
256
370
-1
100
AcDbLine
10
12.595
20
0.47
11
13.065
21
0.47
0
LINE
5
82
100
AcDbEntity
8
visualization
6
ByLayer
62
256
370
-1
100
AcDbLine
10
13.065
20
0.47
11
13.065
21
12.595
0
CIRCLE
5
83
100
AcDbEntity
8
dowel_hole
6
ByLayer
62
256
370
-1
100
AcDbCircle
10
3.26625
20
12.83
40
0.125
0
CIRCLE
5
84
100
AcDbEntity
8
dowel_hole
6
ByLayer
62
256
370
-1
100
AcDbCircle
10
9.79875
20
12.83
40
0.125
0
CIRCLE
5
85
100
AcDbEntity
8
dowel_hole
6
ByLayer
62
256
370
-1
100
AcDbCircle
10
0.235
20
9.79875
40
0.125
0
CIRCLE
5
86
100
AcDbEntity
8
dowel_hole
6
ByLayer
62
256
370
-1
100
AcDbCircle
10
0.235
20
3.26625
40
0.125
0
CIRCLE
5
87
100
AcDbEntity
8
dowel_hole
6
ByLayer
62
256
370
-1
100
AcDbCircle
10
3.26625
20
0.235
40
0.125
0
CIRCLE
5
88
100
AcDbEntity
8
dowel_hole
6
ByLayer
62
256
370
-1
100
AcDbCircle
10
9.79875
20
0.235
40
0.125
0
CIRCLE
5
89
100
AcDbEntity
8
dowel_hole
6
ByLayer
62
256
370
-1
100
AcDbCircle
10
12.83
20
3.26625
40
0.125
0
CIRCLE
5
8A
100
AcDbEntity
8
dowel_hole
6
ByLayer
62
256
370
-1
100
AcDbCircle
10
12.83
20
9.79875
40
0.125
0
LINE
5
8B
100
AcDbEntity
8
visualization
6
ByLayer
62
256
370
-1
100
AcDbLine
10
4.8825
20
12.595
11
4.4125
21
12.595
0
LINE
5
8C
100
AcDbEntity
8
visualization
6
ByLayer
62
256
370
-1
100
AcDbLine
10
4.4125
20
12.595
11
4.4125
21
0.47
0
LINE
5
8D
100
AcDbEntity
8
visualization
6
ByLayer
62
256
370
-1
100
AcDbLine
10
4.4125
20
0.47
11
4.8825
21
0.47
0
LINE
5
8E
100
AcDbEntity
8
visualization
6
ByLayer
62
256
370
-1
100
AcDbLine
10
4.8825
20
0.47
11
4.8825
21
12.595
0
LINE
5
8F
100
AcDbEntity
8
visualization
6
ByLayer
62
256
370
-1
100
AcDbLine
10
8.1825
20
12.595
11
8.6525
21
12.595
0
LINE
5
90
100
AcDbEntity
8
visualization
6
ByLayer
62
256
370
-1
100
AcDbLine
10
8.6525
20
12.595
11
8.6525
21
0.47
0
LINE
5
91
100
AcDbEntity
8
visualization
6
ByLayer
62
256
370
-1
100
AcDbLine
10
8.6525
20
0.47
11
8.1825
21
0.47
0
LINE
5
92
100
AcDbEntity
8
visualization
6
ByLayer
62
256
370
-1
100
AcDbLine
10
8.1825
20
0.47
11
8.1825
21
12.595
0
CIRCLE
5
93
100
AcDbEntity
8
dowel_hole
6
ByLayer
62
256
370
-1
100
AcDbCircle
10
4.6475
20
9.79875
40
0.125
0
CIRCLE
5
94
100
AcDbEntity
8
dowel_hole
6
ByLayer
62
256
370
-1
100
AcDbCircle
10
8.4175
20
9.79875
40
0.125
0
CIRCLE
5
95
100
AcDbEntity
8
dowel_hole
6
ByLayer
62
256
370
-1
100
AcDbCircle
10
4.6475
20
3.26625
40
0.125
0
CIRCLE
5
96
100
AcDbEntity
8
dowel_hole
6
ByLayer
62
256
370
-1
100
AcDbCircle
10
8.4175
20
3.26625
40
0.125
0
DIMENSION
5
97
100
AcDbEntity
8
dimension
6
ByLayer
62
256
370
-1
100
AcDbDimension
2
*D1
10
14.193524736
20
-1.38204420572e-16
30
0
11
13.918524736
21
6.5325
31
0
70
32
71
5
72
0
3
Standard
53
0
210
0
220
0
230
1
100
AcDbAlignedDimension
13
13.065
23
13.065
33
0
14
13.065
24
0
34
0
50
90
100
AcDbRotatedDimension
0
DIMENSION
5
98
100
AcDbEntity
8
dimension
6
ByLayer
62
256
370
-1
100
AcDbDimension
2
*D2
10
13.065
20
-1.543503872
30
0
11
6.5325
21
-1.268503872
31
0
70
32
71
5
72
0
3
Standard
53
0
210
0
220
0
230
1
100
AcDbAlignedDimension
13
0
23
0
33
0
14
13.065
24
0
34
0
100
AcDbRotatedDimension
0
DIMENSION
5
99
100
AcDbEntity
8
dimension
6
ByLayer
62
256
370
-1
100
AcDbDimension
2
*D3
10
9.79875
20
14.1733920768
30
0
11
6.5325
21
14.4483920768
31
0
70
32
71
5
3
Standard
53
0
210
0
220
0
230
1
100
AcDbAlignedDimension
13
3.26625
23
12.83
33
0
14
9.79875
24
12.83
34
0
100
AcDbRotatedDimension
0
DIMENSION
5
9A
100
AcDbEntity
8
dimension
6
ByLayer
62
256
370
-1
100
AcDbDimension
2
*D4
10
-1.2348030976
20
3.26625
30
0
11
-1.5098030976
21
6.5325
31
0
70
32
71
5
3
Standard
53
0
210
0
220
0
230
1
100
AcDbAlignedDimension
13
0.235
23
9.79875
33
0
14
0.235
24
3.26625
34
0
50
90
100
AcDbRotatedDimension
0
ENDSEC
0
SECTION
2
OBJECTS
0
DICTIONARY
5
C
330
0
100
AcDbDictionary
281
1
3
ACAD_GROUP
350
D
0
DICTIONARY
5
D
330
C
100
AcDbDictionary
281
1
0
ENDSEC
0
EOF
