999
dxfrw 0.5.10
0
SECTION
2
HEADER
9
$ACADVER
1
AC1021
9
$HANDSEED
5
20000
9
$DWGCODEPAGE
3
ANSI_1252
9
$INSBASE
10
0
20
0
30
0
9
$EXTMIN
10
-50.9349121095
20
-41.6710179199
30
0
9
$EXTMAX
10
1114
20
333
30
0
9
$LIMMIN
10
0
20
0
9
$LIMMAX
10
420
20
297
9
$ORTHOMODE
70
0
9
$LTSCALE
40
1
9
$TEXTSTYLE
7
STANDARD
9
$CLAYER
8
DIMENSION
9
$DIMASZ
40
12
9
$DIMLFAC
40
1
9
$DIMSCALE
40
1
9
$DIMEXO
40
0.025
9
$DIMEXE
40
0.05
9
$DIMTXT
40
12
9
$DIMTSZ
40
0
9
$DIMAUNIT
70
0
9
$DIMADEC
70
2
9
$DIMLUNIT
70
2
9
$DIMSTYLE
2
STANDARD
9
$DIMGAP
40
0.025
9
$DIMTIH
70
0
9
$LUNITS
70
2
9
$LUPREC
70
4
9
$AUNITS
70
0
9
$AUPREC
70
2
9
$SPLINESEGS
70
8
9
$GRIDMODE
70
1
9
$SNAPSTYLE
70
0
9
$GRIDUNIT
10
0
20
0
9
$PINSBASE
10
0
20
0
30
0
9
$PLIMMIN
10
0
20
0
9
$PLIMMAX
10
3.07881e-08
20
4.35433e-08
9
$INSUNITS
70
4
9
$PSVPSCALE
40
1
0
ENDSEC
0
SECTION
2
CLASSES
0
ENDSEC
0
SECTION
2
TABLES
0
TABLE
2
VPORT
5
8
330
0
100
AcDbSymbolTable
70
1
0
VPORT
5
31
330
2
100
AcDbSymbolTableRecord
100
AcDbViewportTableRecord
2
*ACTIVE
70
0
10
0
20
0
11
1
21
1
12
498.962402345
22
221.633911133
13
0
23
0
14
10
24
10
15
10
25
10
16
0
26
0
36
1
17
0
27
0
37
0
40
581.359863283
41
1.81102362205
42
50
43
0
44
0
50
0
51
0
71
0
72
100
73
1
74
3
75
0
76
1
77
0
78
0
281
0
65
1
110
0
120
0
130
0
111
1
121
0
131
0
112
0
122
1
132
0
79
0
146
0
348
10020
60
7
61
5
292
1
282
1
141
0
142
0
63
250
421
3358443
0
ENDTAB
0
TABLE
2
LTYPE
5
5
330
0
100
AcDbSymbolTable
70
4
0
LTYPE
5
14
330
5
100
AcDbSymbolTableRecord
100
AcDbLinetypeTableRecord
2
ByBlock
70
0
3

72
65
73
0
40
0
0
LTYPE
5
15
330
5
100
AcDbSymbolTableRecord
100
AcDbLinetypeTableRecord
2
ByLayer
70
0
3

72
65
73
0
40
0
0
LTYPE
5
16
330
5
100
AcDbSymbolTableRecord
100
AcDbLinetypeTableRecord
2
Continuous
70
0
3
Solid line
72
65
73
0
40
0
0
LTYPE
5
32
330
5
100
AcDbSymbolTableRecord
100
AcDbLinetypeTableRecord
2
DOT
70
0
3
Dot . . . . . . . . . . . . . . . . . . . . . .
72
65
73
2
40
6.35
49
0
74
0
49
-6.35
74
0
0
LTYPE
5
33
330
5
100
AcDbSymbolTableRecord
100
AcDbLinetypeTableRecord
2
DOT2
70
0
3
Dot (.5x) .....................................
72
65
73
2
40
3.175
49
0
74
0
49
-3.175
74
0
0
LTYPE
5
34
330
5
100
AcDbSymbolTableRecord
100
AcDbLinetypeTableRecord
2
DOTX2
70
0
3
Dot (2x) .  .  .  .  .  .  .  .  .  .  .  .  .
72
65
73
2
40
12.7
49
0
74
0
49
-12.7
74
0
0
LTYPE
5
35
330
5
100
AcDbSymbolTableRecord
100
AcDbLinetypeTableRecord
2
DASHED
70
0
3
Dot . . . . . . . . . . . . . . . . . . . . . .
72
65
73
2
40
19.05
49
12.7
74
0
49
-6.35
74
0
0
LTYPE
5
36
330
5
100
AcDbSymbolTableRecord
100
AcDbLinetypeTableRecord
2
DASHED2
70
0
3
Dashed (.5x) _ _ _ _ _ _ _ _ _ _ _ _ _ _ _ _ _
72
65
73
2
40
9.525
49
6.35
74
0
49
-3.175
74
0
0
LTYPE
5
37
330
5
100
AcDbSymbolTableRecord
100
AcDbLinetypeTableRecord
2
DASHEDX2
70
0
3
Dashed (2x) ____  ____  ____  ____  ____  ___
72
65
73
2
40
38.1
49
25.4
74
0
49
-12.7
74
0
0
LTYPE
5
38
330
5
100
AcDbSymbolTableRecord
100
AcDbLinetypeTableRecord
2
DASHDOT
70
0
3
Dash dot __ . __ . __ . __ . __ . __ . __ . __
72
65
73
4
40
25.4
49
12.7
74
0
49
-6.35
74
0
49
0
74
0
49
-6.35
74
0
0
LTYPE
5
39
330
5
100
AcDbSymbolTableRecord
100
AcDbLinetypeTableRecord
2
DASHDOT2
70
0
3
Dash dot (.5x) _._._._._._._._._._._._._._._.
72
65
73
4
40
12.7
49
6.35
74
0
49
-3.175
74
0
49
0
74
0
49
-3.175
74
0
0
LTYPE
5
3A
330
5
100
AcDbSymbolTableRecord
100
AcDbLinetypeTableRecord
2
DASHDOTX2
70
0
3
Dash dot (2x) ____  .  ____  .  ____  .  ___
72
65
73
4
40
50.8
49
25.4
74
0
49
-12.7
74
0
49
0
74
0
49
-12.7
74
0
0
LTYPE
5
3B
330
5
100
AcDbSymbolTableRecord
100
AcDbLinetypeTableRecord
2
DIVIDE
70
0
3
Divide ____ . . ____ . . ____ . . ____ . . ____
72
65
73
6
40
31.75
49
12.7
74
0
49
-6.35
74
0
49
0
74
0
49
-6.35
74
0
49
0
74
0
49
-6.35
74
0
0
LTYPE
5
3C
330
5
100
AcDbSymbolTableRecord
100
AcDbLinetypeTableRecord
2
DIVIDE2
70
0
3
Divide (.5x) __..__..__..__..__..__..__..__.._
72
65
73
6
40
15.875
49
6.35
74
0
49
-3.175
74
0
49
0
74
0
49
-3.175
74
0
49
0
74
0
49
-3.175
74
0
0
LTYPE
5
3D
330
5
100
AcDbSymbolTableRecord
100
AcDbLinetypeTableRecord
2
DIVIDEX2
70
0
3
Divide (2x) ________  .  .  ________  .  .  _
72
65
73
6
40
63.5
49
25.4
74
0
49
-12.7
74
0
49
0
74
0
49
-12.7
74
0
49
0
74
0
49
-12.7
74
0
0
LTYPE
5
3E
330
5
100
AcDbSymbolTableRecord
100
AcDbLinetypeTableRecord
2
BORDER
70
0
3
Border __ __ . __ __ . __ __ . __ __ . __ __ .
72
65
73
6
40
44.45
49
12.7
74
0
49
-6.35
74
0
49
12.7
74
0
49
-6.35
74
0
49
0
74
0
49
-6.35
74
0
0
LTYPE
5
3F
330
5
100
AcDbSymbolTableRecord
100
AcDbLinetypeTableRecord
2
BORDER2
70
0
3
Border (.5x) __.__.__.__.__.__.__.__.__.__.__.
72
65
73
6
40
22.225
49
6.35
74
0
49
-3.175
74
0
49
6.35
74
0
49
-3.175
74
0
49
0
74
0
49
-3.175
74
0
0
LTYPE
5
40
330
5
100
AcDbSymbolTableRecord
100
AcDbLinetypeTableRecord
2
BORDERX2
70
0
3
Border (2x) ____  ____  .  ____  ____  .  ___
72
65
73
6
40
88.9
49
25.4
74
0
49
-12.7
74
0
49
25.4
74
0
49
-12.7
74
0
49
0
74
0
49
-12.7
74
0
0
LTYPE
5
41
330
5
100
AcDbSymbolTableRecord
100
AcDbLinetypeTableRecord
2
CENTER
70
0
3
Center ____ _ ____ _ ____ _ ____ _ ____ _ ____
72
65
73
4
40
50.8
49
31.75
74
0
49
-6.35
74
0
49
6.35
74
0
49
-6.35
74
0
0
LTYPE
5
42
330
5
100
AcDbSymbolTableRecord
100
AcDbLinetypeTableRecord
2
CENTER2
70
0
3
Center (.5x) ___ _ ___ _ ___ _ ___ _ ___ _ ___
72
65
73
4
40
28.575
49
19.05
74
0
49
-3.175
74
0
49
3.175
74
0
49
-3.175
74
0
0
LTYPE
5
43
330
5
100
AcDbSymbolTableRecord
100
AcDbLinetypeTableRecord
2
CENTERX2
70
0
3
Center (2x) ________  __  ________  __  _____
72
65
73
4
40
101.6
49
63.5
74
0
49
-12.7
74
0
49
12.7
74
0
49
-12.7
74
0
0
ENDTAB
0
TABLE
2
LAYER
5
2
330
0
100
AcDbSymbolTable
70
1
0
LAYER
5
10
330
2
100
AcDbSymbolTableRecord
100
AcDbLayerTableRecord
2
0
70
0
62
7
6
CONTINUOUS
370
0
390
F
0
LAYER
5
44
330
2
100
AcDbSymbolTableRecord
100
AcDbLayerTableRecord
2
OUTER_BOUNDARY
70
0
62
5
6
CONTINUOUS
370
0
390
F
0
LAYER
5
45
330
2
100
AcDbSymbolTableRecord
100
AcDbLayerTableRecord
2
REFERENCE
70
0
62
253
420
10526884
6
CONTINUOUS
370
0
390
F
0
LAYER
5
46
330
2
100
AcDbSymbolTableRecord
100
AcDbLayerTableRecord
2
ALIGNMENT_POCKET
70
0
62
6
6
CONTINUOUS
370
0
390
F
0
LAYER
5
47
330
2
100
AcDbSymbolTableRecord
100
AcDbLayerTableRecord
2
DIMENSION
70
0
62
7
6
CONTINUOUS
370
0
390
F
0
LAYER
5
48
330
2
100
AcDbSymbolTableRecord
100
AcDbLayerTableRecord
2
6-32_TAP_HOLE
70
0
62
2
6
CONTINUOUS
370
0
390
F
0
ENDTAB
0
TABLE
2
STYLE
5
3
330
0
100
AcDbSymbolTable
70
3
0
STYLE
5
49
330
2
100
AcDbSymbolTableRecord
100
AcDbTextStyleTableRecord
2
Standard
70
0
40
0
41
1
50
0
71
0
42
1
3
txt
4

0
ENDTAB
0
TABLE
2
VIEW
5
6
330
0
100
AcDbSymbolTable
70
0
0
ENDTAB
0
TABLE
2
UCS
5
7
330
0
100
AcDbSymbolTable
70
0
0
ENDTAB
0
TABLE
2
APPID
5
9
330
0
100
AcDbSymbolTable
70
1
0
APPID
5
12
330
9
100
AcDbSymbolTableRecord
100
AcDbRegAppTableRecord
2
ACAD
70
0
0
ENDTAB
0
TABLE
2
DIMSTYLE
5
A
330
0
100
AcDbSymbolTable
70
1
100
AcDbDimStyleTable
71
1
0
DIMSTYLE
105
4A
330
A
100
AcDbSymbolTableRecord
100
AcDbDimStyleTableRecord
2
Standard
70
0
40
1
41
12
42
0.025
43
0.38
44
0.05
45
0
46
0
47
0
48
0
140
12
141
0.09
142
0
143
25.4
144
1
145
0
146
1
147
0.025
148
0
71
0
72
0
73
0
74
1
75
0
76
0
77
0
78
0
79
0
170
0
171
2
172
0
173
0
174
0
175
0
176
0
177
0
178
0
179
0
271
4
272
4
273
2
274
2
275
0
276
0
277
2
278
46
279
0
280
0
281
0
282
0
283
1
284
0
285
0
286
0
288
0
289
3
340
Standard
341

371
-2
372
-2
0
ENDTAB
0
TABLE
2
BLOCK_RECORD
5
1
330
0
100
AcDbSymbolTable
70
2
0
BLOCK_RECORD
5
1F
330
1
100
AcDbSymbolTableRecord
100
AcDbBlockTableRecord
2
*Model_Space
70
0
280
1
281
0
0
BLOCK_RECORD
5
1E
330
1
100
AcDbSymbolTableRecord
100
AcDbBlockTableRecord
2
*Paper_Space
70
0
280
1
281
0
0
BLOCK_RECORD
5
4B
330
1
100
AcDbSymbolTableRecord
100
AcDbBlockTableRecord
2
*D2
70
0
280
1
281
0
0
BLOCK_RECORD
5
4E
330
1
100
AcDbSymbolTableRecord
100
AcDbBlockTableRecord
2
*D12
70
0
280
1
281
0
0
BLOCK_RECORD
5
51
330
1
100
AcDbSymbolTableRecord
100
AcDbBlockTableRecord
2
*D15
70
0
280
1
281
0
0
BLOCK_RECORD
5
54
330
1
100
AcDbSymbolTableRecord
100
AcDbBlockTableRecord
2
*D11
70
0
280
1
281
0
0
BLOCK_RECORD
5
57
330
1
100
AcDbSymbolTableRecord
100
AcDbBlockTableRecord
2
*D20
70
0
280
1
281
0
0
BLOCK_RECORD
5
5A
330
1
100
AcDbSymbolTableRecord
100
AcDbBlockTableRecord
2
*D10
70
0
280
1
281
0
0
BLOCK_RECORD
5
5D
330
1
100
AcDbSymbolTableRecord
100
AcDbBlockTableRecord
2
*D18
70
0
280
1
281
0
0
BLOCK_RECORD
5
60
330
1
100
AcDbSymbolTableRecord
100
AcDbBlockTableRecord
2
*D14
70
0
280
1
281
0
0
BLOCK_RECORD
5
63
330
1
100
AcDbSymbolTableRecord
100
AcDbBlockTableRecord
2
*D5
70
0
280
1
281
0
0
BLOCK_RECORD
5
66
330
1
100
AcDbSymbolTableRecord
100
AcDbBlockTableRecord
2
*D19
70
0
280
1
281
0
0
BLOCK_RECORD
5
69
330
1
100
AcDbSymbolTableRecord
100
AcDbBlockTableRecord
2
*D6
70
0
280
1
281
0
0
BLOCK_RECORD
5
6C
330
1
100
AcDbSymbolTableRecord
100
AcDbBlockTableRecord
2
*D4
70
0
280
1
281
0
0
BLOCK_RECORD
5
6F
330
1
100
AcDbSymbolTableRecord
100
AcDbBlockTableRecord
2
*D1
70
0
280
1
281
0
0
BLOCK_RECORD
5
72
330
1
100
AcDbSymbolTableRecord
100
AcDbBlockTableRecord
2
*D17
70
0
280
1
281
0
0
BLOCK_RECORD
5
75
330
1
100
AcDbSymbolTableRecord
100
AcDbBlockTableRecord
2
*D7
70
0
280
1
281
0
0
BLOCK_RECORD
5
78
330
1
100
AcDbSymbolTableRecord
100
AcDbBlockTableRecord
2
*D13
70
0
280
1
281
0
0
BLOCK_RECORD
5
7B
330
1
100
AcDbSymbolTableRecord
100
AcDbBlockTableRecord
2
*D16
70
0
280
1
281
0
0
BLOCK_RECORD
5
7E
330
1
100
AcDbSymbolTableRecord
100
AcDbBlockTableRecord
2
*D9
70
0
280
1
281
0
0
BLOCK_RECORD
5
81
330
1
100
AcDbSymbolTableRecord
100
AcDbBlockTableRecord
2
*D8
70
0
280
1
281
0
0
BLOCK_RECORD
5
84
330
1
100
AcDbSymbolTableRecord
100
AcDbBlockTableRecord
2
*D3
70
0
280
1
281
0
0
ENDTAB
0
ENDSEC
0
SECTION
2
BLOCKS
0
BLOCK
5
20
330
1F
100
AcDbEntity
8
0
100
AcDbBlockBegin
2
*Model_Space
70
0
10
0
20
0
30
0
3
*Model_Space
1

0
ENDBLK
5
21
330
1F
100
AcDbEntity
8
0
100
AcDbBlockEnd
0
BLOCK
5
1C
330
1B
100
AcDbEntity
8
0
100
AcDbBlockBegin
2
*Paper_Space
70
0
10
0
20
0
30
0
3
*Paper_Space
1

0
ENDBLK
5
1D
330
1F
100
AcDbEntity
8
0
100
AcDbBlockEnd
0
BLOCK
5
4C
330
4B
100
AcDbEntity
8
0
100
AcDbBlockBegin
2
*D2
70
1
10
0
20
0
3
*D2
1

0
LINE
5
87
100
AcDbEntity
8
DIMENSION
6
CONTINUOUS
62
7
370
0
100
AcDbLine
10
-38.9099121095
20
309
11
-38.9099121095
21
2.87751419915e-15
0
SOLID
5
88
100
AcDbEntity
8
DIMENSION
6
CONTINUOUS
62
7
370
0
100
AcDbTrace
10
-38.9099121095
20
309
30
0
11
-36.9117457522
21
297
31
0
12
-40.9080784668
22
297
32
0
13
-40.9080784668
23
297
33
0
0
SOLID
5
89
100
AcDbEntity
8
DIMENSION
6
CONTINUOUS
62
7
370
0
100
AcDbTrace
10
-38.9099121095
20
2.87751419915e-15
30
0
11
-40.9080784668
21
12
31
0
12
-36.9117457522
22
12
32
0
13
-36.9117457522
23
12
33
0
0
MTEXT
5
8A
100
AcDbEntity
8
DIMENSION
6
CONTINUOUS
62
7
370
0
100
AcDbMText
10
-44.9349121095
20
154.5
30
0
40
12
41
24
71
5
72
1
1
309
7
standard
210
0
220
0
230
1
50
90
73
2
44
1
0
LINE
5
8B
100
AcDbEntity
8
DIMENSION
6
CONTINUOUS
62
7
370
0
100
AcDbLine
10
1.5625
20
309
11
-38.9599121095
21
309
0
LINE
5
8C
100
AcDbEntity
8
DIMENSION
6
CONTINUOUS
62
7
370
0
100
AcDbLine
10
1.5625
20
3.06161699787e-18
11
-38.9599121095
21
2.88363743314e-15
0
ENDBLK
5
4D
330
4B
100
AcDbEntity
8
0
100
AcDbBlockEnd
0
BLOCK
5
4F
330
4E
100
AcDbEntity
8
0
100
AcDbBlockBegin
2
*D12
70
1
10
0
20
0
3
*D12
1

0
LINE
5
8D
100
AcDbEntity
8
DIMENSION
6
CONTINUOUS
62
7
370
0
100
AcDbLine
10
774.400000002
20
321
11
774.400000002
21
267
0
SOLID
5
8E
100
AcDbEntity
8
DIMENSION
6
CONTINUOUS
62
7
370
0
100
AcDbTrace
10
774.400000002
20
297
30
0
11
772.401833644
21
309
31
0
12
776.398166359
22
309
32
0
13
776.398166359
23
309
33
0
0
SOLID
5
8F
100
AcDbEntity
8
DIMENSION
6
CONTINUOUS
62
7
370
0
100
AcDbTrace
10
774.400000002
20
291
30
0
11
776.398166359
21
279
31
0
12
772.401833644
22
279
32
0
13
772.401833644
23
279
33
0
0
MTEXT
5
90
100
AcDbEntity
8
DIMENSION
6
CONTINUOUS
62
7
370
0
100
AcDbMText
10
768.375000002
20
294
30
0
40
12
41
5.33333333333
71
5
72
1
1
6
7
standard
210
0
220
0
230
1
50
90
73
2
44
1
0
LINE
5
91
100
AcDbEntity
8
DIMENSION
6
CONTINUOUS
62
7
370
0
100
AcDbLine
10
792.475
20
297
11
774.350000002
21
297
0
LINE
5
92
100
AcDbEntity
8
DIMENSION
6
CONTINUOUS
62
7
370
0
100
AcDbLine
10
792.475
20
291
11
774.350000002
21
291
0
ENDBLK
5
50
330
4E
100
AcDbEntity
8
0
100
AcDbBlockEnd
0
BLOCK
5
52
330
51
100
AcDbEntity
8
0
100
AcDbBlockBegin
2
*D15
70
1
10
0
20
0
3
*D15
1

0
LINE
5
93
100
AcDbEntity
8
DIMENSION
6
CONTINUOUS
62
7
370
0
100
AcDbLine
10
1058.8
20
179.5
11
1058.8
21
129.5
0
SOLID
5
94
100
AcDbEntity
8
DIMENSION
6
CONTINUOUS
62
7
370
0
100
AcDbTrace
10
1058.8
20
179.5
30
0
11
1060.79816636
21
167.5
31
0
12
1056.80183365
22
167.5
32
0
13
1056.80183365
23
167.5
33
0
0
SOLID
5
95
100
AcDbEntity
8
DIMENSION
6
CONTINUOUS
62
7
370
0
100
AcDbTrace
10
1058.8
20
129.5
30
0
11
1056.80183365
21
141.5
31
0
12
1060.79816636
22
141.5
32
0
13
1060.79816636
23
141.5
33
0
0
MTEXT
5
96
100
AcDbEntity
8
DIMENSION
6
CONTINUOUS
62
7
370
0
100
AcDbMText
10
1052.775
20
154.5
30
0
40
12
41
14.6666666667
71
5
72
1
1
50
7
standard
210
0
220
0
230
1
50
90
73
2
44
1
0
LINE
5
97
100
AcDbEntity
8
DIMENSION
6
CONTINUOUS
62
7
370
0
100
AcDbLine
10
1074.975
20
179.5
11
1058.75
21
179.5
0
LINE
5
98
100
AcDbEntity
8
DIMENSION
6
CONTINUOUS
62
7
370
0
100
AcDbLine
10
1074.975
20
129.5
11
1058.75
21
129.5
0
ENDBLK
5
53
330
51
100
AcDbEntity
8
0
100
AcDbBlockEnd
0
BLOCK
5
55
330
54
100
AcDbEntity
8
0
100
AcDbBlockBegin
2
*D11
70
1
10
0
20
0
3
*D11
1

0
LINE
5
99
100
AcDbEntity
8
DIMENSION
6
CONTINUOUS
62
7
370
0
100
AcDbLine
10
322.812500001
20
321
11
322.812500001
21
267
0
SOLID
5
9A
100
AcDbEntity
8
DIMENSION
6
CONTINUOUS
62
7
370
0
100
AcDbTrace
10
322.812500001
20
297
30
0
11
320.814333643
21
309
31
0
12
324.810666358
22
309
32
0
13
324.810666358
23
309
33
0
0
SOLID
5
9B
100
AcDbEntity
8
DIMENSION
6
CONTINUOUS
62
7
370
0
100
AcDbTrace
10
322.812500001
20
291
30
0
11
324.810666358
21
279
31
0
12
320.814333643
22
279
32
0
13
320.814333643
23
279
33
0
0
MTEXT
5
9C
100
AcDbEntity
8
DIMENSION
6
CONTINUOUS
62
7
370
0
100
AcDbMText
10
316.787500001
20
294
30
0
40
12
41
5.33333333333
71
5
72
1
1
6
7
standard
210
0
220
0
230
1
50
90
73
2
44
1
0
LINE
5
9D
100
AcDbEntity
8
DIMENSION
6
CONTINUOUS
62
7
370
0
100
AcDbLine
10
297.525
20
297
11
322.862500001
21
297
0
LINE
5
9E
100
AcDbEntity
8
DIMENSION
6
CONTINUOUS
62
7
370
0
100
AcDbLine
10
297.525
20
291
11
322.862500001
21
291
0
ENDBLK
5
56
330
54
100
AcDbEntity
8
0
100
AcDbBlockEnd
0
BLOCK
5
58
330
57
100
AcDbEntity
8
0
100
AcDbBlockBegin
2
*D20
70
1
10
0
20
0
3
*D20
1

0
LINE
5
9F
100
AcDbEntity
8
DIMENSION
6
CONTINUOUS
62
7
370
0
100
AcDbLine
10
1037
20
81.2000000002
11
1090
21
81.2000000002
0
SOLID
5
A0
100
AcDbEntity
8
DIMENSION
6
CONTINUOUS
62
7
370
0
100
AcDbTrace
10
1037
20
81.2000000002
30
0
11
1049
21
83.1981663575
31
0
12
1049
22
79.2018336429
32
0
13
1049
23
79.2018336429
33
0
0
SOLID
5
A1
100
AcDbEntity
8
DIMENSION
6
CONTINUOUS
62
7
370
0
100
AcDbTrace
10
1090
20
81.2000000002
30
0
11
1078
21
79.2018336429
31
0
12
1078
22
83.1981663575
32
0
13
1078
23
83.1981663575
33
0
0
MTEXT
5
A2
100
AcDbEntity
8
DIMENSION
6
CONTINUOUS
62
7
370
0
100
AcDbMText
10
1063.5
20
87.2250000002
30
0
40
12
41
14.6666666667
71
5
72
1
1
53
7
standard
210
0
220
0
230
1
50
0
73
2
44
1
0
LINE
5
A3
100
AcDbEntity
8
DIMENSION
6
CONTINUOUS
62
7
370
0
100
AcDbLine
10
1037
20
138.6
11
1037
21
81.1500000002
0
LINE
5
A4
100
AcDbEntity
8
DIMENSION
6
CONTINUOUS
62
7
370
0
100
AcDbLine
10
1090
20
1.5625
11
1090
21
81.1500000002
0
ENDBLK
5
59
330
57
100
AcDbEntity
8
0
100
AcDbBlockEnd
0
BLOCK
5
5B
330
5A
100
AcDbEntity
8
0
100
AcDbBlockBegin
2
*D10
70
1
10
0
20
0
3
*D10
1

0
LINE
5
A5
100
AcDbEntity
8
DIMENSION
6
CONTINUOUS
62
7
370
0
100
AcDbLine
10
792.5
20
267.520000001
11
842.5
21
267.520000001
0
SOLID
5
A6
100
AcDbEntity
8
DIMENSION
6
CONTINUOUS
62
7
370
0
100
AcDbTrace
10
792.5
20
267.520000001
30
0
11
804.5
21
269.518166358
31
0
12
804.5
22
265.521833643
32
0
13
804.5
23
265.521833643
33
0
0
SOLID
5
A7
100
AcDbEntity
8
DIMENSION
6
CONTINUOUS
62
7
370
0
100
AcDbTrace
10
842.5
20
267.520000001
30
0
11
830.5
21
265.521833643
31
0
12
830.5
22
269.518166358
32
0
13
830.5
23
269.518166358
33
0
0
MTEXT
5
A8
100
AcDbEntity
8
DIMENSION
6
CONTINUOUS
62
7
370
0
100
AcDbMText
10
817.5
20
273.545000001
30
0
40
12
41
14.6666666667
71
5
72
1
1
50
7
standard
210
0
220
0
230
1
50
0
73
2
44
1
0
LINE
5
A9
100
AcDbEntity
8
DIMENSION
6
CONTINUOUS
62
7
370
0
100
AcDbLine
10
792.5
20
293.975
11
792.5
21
267.470000001
0
LINE
5
AA
100
AcDbEntity
8
DIMENSION
6
CONTINUOUS
62
7
370
0
100
AcDbLine
10
842.5
20
293.975
11
842.5
21
267.470000001
0
ENDBLK
5
5C
330
5A
100
AcDbEntity
8
0
100
AcDbBlockEnd
0
BLOCK
5
5E
330
5D
100
AcDbEntity
8
0
100
AcDbBlockBegin
2
*D18
70
1
10
0
20
0
3
*D18
1

0
LINE
5
AB
100
AcDbEntity
8
DIMENSION
6
CONTINUOUS
62
7
370
0
100
AcDbLine
10
589.599609376
20
256
11
589.599609376
21
309
0
SOLID
5
AC
100
AcDbEntity
8
DIMENSION
6
CONTINUOUS
62
7
370
0
100
AcDbTrace
10
589.599609376
20
256
30
0
11
587.601443019
21
268
31
0
12
591.597775734
22
268
32
0
13
591.597775734
23
268
33
0
0
SOLID
5
AD
100
AcDbEntity
8
DIMENSION
6
CONTINUOUS
62
7
370
0
100
AcDbTrace
10
589.599609376
20
309
30
0
11
591.597775734
21
297
31
0
12
587.601443019
22
297
32
0
13
587.601443019
23
297
33
0
0
MTEXT
5
AE
100
AcDbEntity
8
DIMENSION
6
CONTINUOUS
62
7
370
0
100
AcDbMText
10
583.574609376
20
282.5
30
0
40
12
41
14.6666666667
71
5
72
1
1
53
7
standard
210
0
220
0
230
1
50
90
73
2
44
1
0
LINE
5
AF
100
AcDbEntity
8
DIMENSION
6
CONTINUOUS
62
7
370
0
100
AcDbLine
10
560.9
20
256
11
589.649609376
21
256
0
LINE
5
B0
100
AcDbEntity
8
DIMENSION
6
CONTINUOUS
62
7
370
0
100
AcDbLine
10
1088.4375
20
309
11
589.649609376
21
309
0
ENDBLK
5
5F
330
5D
100
AcDbEntity
8
0
100
AcDbBlockEnd
0
BLOCK
5
61
330
60
100
AcDbEntity
8
0
100
AcDbBlockBegin
2
*D14
70
1
10
0
20
0
3
*D14
1

0
LINE
5
B1
100
AcDbEntity
8
DIMENSION
6
CONTINUOUS
62
7
370
0
100
AcDbLine
10
1020
20
170.375
11
1020
21
138.625
0
SOLID
5
B2
100
AcDbEntity
8
DIMENSION
6
CONTINUOUS
62
7
370
0
100
AcDbTrace
10
1020
20
170.375
30
0
11
1021.99816636
21
158.375
31
0
12
1018.00183364
22
158.375
32
0
13
1018.00183364
23
158.375
33
0
0
SOLID
5
B3
100
AcDbEntity
8
DIMENSION
6
CONTINUOUS
62
7
370
0
100
AcDbTrace
10
1020
20
138.625
30
0
11
1018.00183364
21
150.625
31
0
12
1021.99816636
22
150.625
32
0
13
1021.99816636
23
150.625
33
0
0
MTEXT
5
B4
100
AcDbEntity
8
DIMENSION
6
CONTINUOUS
62
7
370
0
100
AcDbMText
10
1013.975
20
187.733333333
30
0
40
12
41
34.6666666667
71
5
72
1
1
31.75
7
standard
210
0
220
0
230
1
50
90
73
2
44
1
0
LINE
5
B5
100
AcDbEntity
8
DIMENSION
6
CONTINUOUS
62
7
370
0
100
AcDbLine
10
1036.975
20
170.375
11
1019.95
21
170.375
0
LINE
5
B6
100
AcDbEntity
8
DIMENSION
6
CONTINUOUS
62
7
370
0
100
AcDbLine
10
1036.975
20
138.625
11
1019.95
21
138.625
0
ENDBLK
5
62
330
60
100
AcDbEntity
8
0
100
AcDbBlockEnd
0
BLOCK
5
64
330
63
100
AcDbEntity
8
0
100
AcDbBlockBegin
2
*D5
70
1
10
0
20
0
3
*D5
1

0
LINE
5
B7
100
AcDbEntity
8
DIMENSION
6
CONTINUOUS
62
7
370
0
100
AcDbLine
10
36.9600000001
20
179.5
11
36.9600000001
21
129.5
0
SOLID
5
B8
100
AcDbEntity
8
DIMENSION
6
CONTINUOUS
62
7
370
0
100
AcDbTrace
10
36.9600000001
20
179.5
30
0
11
38.9581663574
21
167.5
31
0
12
34.9618336428
22
167.5
32
0
13
34.9618336428
23
167.5
33
0
0
SOLID
5
B9
100
AcDbEntity
8
DIMENSION
6
CONTINUOUS
62
7
370
0
100
AcDbTrace
10
36.9600000001
20
129.5
30
0
11
34.9618336428
21
141.5
31
0
12
38.9581663574
22
141.5
32
0
13
38.9581663574
23
141.5
33
0
0
MTEXT
5
BA
100
AcDbEntity
8
DIMENSION
6
CONTINUOUS
62
7
370
0
100
AcDbMText
10
30.9350000001
20
154.5
30
0
40
12
41
14.6666666667
71
5
72
1
1
50
7
standard
210
0
220
0
230
1
50
90
73
2
44
1
0
LINE
5
BB
100
AcDbEntity
8
DIMENSION
6
CONTINUOUS
62
7
370
0
100
AcDbLine
10
15.025
20
179.5
11
37.0100000001
21
179.5
0
LINE
5
BC
100
AcDbEntity
8
DIMENSION
6
CONTINUOUS
62
7
370
0
100
AcDbLine
10
15.025
20
129.5
11
37.0100000001
21
129.5
0
ENDBLK
5
65
330
63
100
AcDbEntity
8
0
100
AcDbBlockEnd
0
BLOCK
5
67
330
66
100
AcDbEntity
8
0
100
AcDbBlockBegin
2
*D19
70
1
10
0
20
0
3
*D19
1

0
LINE
5
BD
100
AcDbEntity
8
DIMENSION
6
CONTINUOUS
62
7
370
0
100
AcDbLine
10
53
20
206.909179688
11
0
21
206.909179688
0
SOLID
5
BE
100
AcDbEntity
8
DIMENSION
6
CONTINUOUS
62
7
370
0
100
AcDbTrace
10
53
20
206.909179688
30
0
11
41
21
204.911013331
31
0
12
41
22
208.907346045
32
0
13
41
23
208.907346045
33
0
0
SOLID
5
BF
100
AcDbEntity
8
DIMENSION
6
CONTINUOUS
62
7
370
0
100
AcDbTrace
10
0
20
206.909179688
30
0
11
12
21
208.907346045
31
0
12
12
22
204.911013331
32
0
13
12
23
204.911013331
33
0
0
MTEXT
5
C0
100
AcDbEntity
8
DIMENSION
6
CONTINUOUS
62
7
370
0
100
AcDbMText
10
26.5
20
212.934179688
30
0
40
12
41
14.6666666667
71
5
72
1
1
53
7
standard
210
0
220
0
230
1
50
360
73
2
44
1
0
LINE
5
C1
100
AcDbEntity
8
DIMENSION
6
CONTINUOUS
62
7
370
0
100
AcDbLine
10
53
20
170.4
11
53
21
206.959179688
0
LINE
5
C2
100
AcDbEntity
8
DIMENSION
6
CONTINUOUS
62
7
370
0
100
AcDbLine
10
7.08192362206e-18
20
307.4375
11
1.41638472441e-17
21
206.959179688
0
ENDBLK
5
68
330
66
100
AcDbEntity
8
0
100
AcDbBlockEnd
0
BLOCK
5
6A
330
69
100
AcDbEntity
8
0
100
AcDbBlockBegin
2
*D6
70
1
10
0
20
0
3
*D6
1

0
LINE
5
C3
100
AcDbEntity
8
DIMENSION
6
CONTINUOUS
62
7
370
0
100
AcDbLine
10
-12
20
188.66176
11
42
21
188.66176
0
SOLID
5
C4
100
AcDbEntity
8
DIMENSION
6
CONTINUOUS
62
7
370
0
100
AcDbTrace
10
12
20
188.66176
30
0
11
0
21
186.663593643
31
0
12
0
22
190.659926358
32
0
13
0
23
190.659926358
33
0
0
SOLID
5
C5
100
AcDbEntity
8
DIMENSION
6
CONTINUOUS
62
7
370
0
100
AcDbTrace
10
18
20
188.66176
30
0
11
30
21
190.659926358
31
0
12
30
22
186.663593643
32
0
13
30
23
186.663593643
33
0
0
MTEXT
5
C6
100
AcDbEntity
8
DIMENSION
6
CONTINUOUS
62
7
370
0
100
AcDbMText
10
15
20
194.68676
30
0
40
12
41
5.33333333333
71
5
72
1
1
6
7
standard
210
0
220
0
230
1
50
0
73
2
44
1
0
LINE
5
C7
100
AcDbEntity
8
DIMENSION
6
CONTINUOUS
62
7
370
0
100
AcDbLine
10
12
20
179.525
11
12
21
188.71176
0
LINE
5
C8
100
AcDbEntity
8
DIMENSION
6
CONTINUOUS
62
7
370
0
100
AcDbLine
10
18
20
179.525
11
18
21
188.71176
0
ENDBLK
5
6B
330
69
100
AcDbEntity
8
0
100
AcDbBlockEnd
0
BLOCK
5
6D
330
6C
100
AcDbEntity
8
0
100
AcDbBlockBegin
2
*D4
70
1
10
0
20
0
3
*D4
1

0
LINE
5
C9
100
AcDbEntity
8
DIMENSION
6
CONTINUOUS
62
7
370
0
100
AcDbLine
10
247.5
20
263.800000001
11
297.5
21
263.800000001
0
SOLID
5
CA
100
AcDbEntity
8
DIMENSION
6
CONTINUOUS
62
7
370
0
100
AcDbTrace
10
247.5
20
263.800000001
30
0
11
259.5
21
265.798166358
31
0
12
259.5
22
261.801833643
32
0
13
259.5
23
261.801833643
33
0
0
SOLID
5
CB
100
AcDbEntity
8
DIMENSION
6
CONTINUOUS
62
7
370
0
100
AcDbTrace
10
297.5
20
263.800000001
30
0
11
285.5
21
261.801833643
31
0
12
285.5
22
265.798166358
32
0
13
285.5
23
265.798166358
33
0
0
MTEXT
5
CC
100
AcDbEntity
8
DIMENSION
6
CONTINUOUS
62
7
370
0
100
AcDbMText
10
272.5
20
269.825000001
30
0
40
12
41
14.6666666667
71
5
72
1
1
50
7
standard
210
0
220
0
230
1
50
0
73
2
44
1
0
LINE
5
CD
100
AcDbEntity
8
DIMENSION
6
CONTINUOUS
62
7
370
0
100
AcDbLine
10
247.5
20
293.975
11
247.5
21
263.750000001
0
LINE
5
CE
100
AcDbEntity
8
DIMENSION
6
CONTINUOUS
62
7
370
0
100
AcDbLine
10
297.5
20
293.975
11
297.5
21
263.750000001
0
ENDBLK
5
6E
330
6C
100
AcDbEntity
8
0
100
AcDbBlockEnd
0
BLOCK
5
70
330
6F
100
AcDbEntity
8
0
100
AcDbBlockBegin
2
*D1
70
1
10
0
20
0
3
*D1
1

0
LINE
5
CF
100
AcDbEntity
8
DIMENSION
6
CONTINUOUS
62
7
370
0
100
AcDbLine
10
0
20
-39.6728515626
11
1090
21
-39.6728515626
0
SOLID
5
D0
100
AcDbEntity
8
DIMENSION
6
CONTINUOUS
62
7
370
0
100
AcDbTrace
10
0
20
-39.6728515626
30
0
11
12
21
-37.6746852053
31
0
12
12
22
-41.6710179199
32
0
13
12
23
-41.6710179199
33
0
0
SOLID
5
D1
100
AcDbEntity
8
DIMENSION
6
CONTINUOUS
62
7
370
0
100
AcDbTrace
10
1090
20
-39.6728515626
30
0
11
1078
21
-41.6710179199
31
0
12
1078
22
-37.6746852053
32
0
13
1078
23
-37.6746852053
33
0
0
MTEXT
5
D2
100
AcDbEntity
8
DIMENSION
6
CONTINUOUS
62
7
370
0
100
AcDbMText
10
545
20
-33.6478515626
30
0
40
12
41
30.6666666667
71
5
72
1
1
1090
7
standard
210
0
220
0
230
1
50
0
73
2
44
1
0
LINE
5
D3
100
AcDbEntity
8
DIMENSION
6
CONTINUOUS
62
7
370
0
100
AcDbLine
10
-4.5924254968e-18
20
1.5625
11
-9.18485099361e-18
21
-39.7228515626
0
LINE
5
D4
100
AcDbEntity
8
DIMENSION
6
CONTINUOUS
62
7
370
0
100
AcDbLine
10
1090
20
1.5625
11
1090
21
-39.7228515626
0
ENDBLK
5
71
330
6F
100
AcDbEntity
8
0
100
AcDbBlockEnd
0
BLOCK
5
73
330
72
100
AcDbEntity
8
0
100
AcDbBlockBegin
2
*D17
70
1
10
0
20
0
3
*D17
1

0
LINE
5
D5
100
AcDbEntity
8
DIMENSION
6
CONTINUOUS
62
7
370
0
100
AcDbLine
10
1051
20
195.9375
11
1114
21
195.9375
0
SOLID
5
D6
100
AcDbEntity
8
DIMENSION
6
CONTINUOUS
62
7
370
0
100
AcDbTrace
10
1075
20
195.9375
30
0
11
1063
21
193.939333643
31
0
12
1063
22
197.935666358
32
0
13
1063
23
197.935666358
33
0
0
SOLID
5
D7
100
AcDbEntity
8
DIMENSION
6
CONTINUOUS
62
7
370
0
100
AcDbTrace
10
1090
20
195.9375
30
0
11
1102
21
197.935666358
31
0
12
1102
22
193.939333643
32
0
13
1102
23
193.939333643
33
0
0
MTEXT
5
D8
100
AcDbEntity
8
DIMENSION
6
CONTINUOUS
62
7
370
0
100
AcDbMText
10
1082.5
20
201.9625
30
0
40
12
41
12
71
5
72
1
1
15
7
standard
210
0
220
0
230
1
50
0
73
2
44
1
0
LINE
5
D9
100
AcDbEntity
8
DIMENSION
6
CONTINUOUS
62
7
370
0
100
AcDbLine
10
1075
20
179.525
11
1075
21
195.9875
0
LINE
5
DA
100
AcDbEntity
8
DIMENSION
6
CONTINUOUS
62
7
370
0
100
AcDbLine
10
1090
20
307.4375
11
1090
21
195.9875
0
ENDBLK
5
74
330
72
100
AcDbEntity
8
0
100
AcDbBlockEnd
0
BLOCK
5
76
330
75
100
AcDbEntity
8
0
100
AcDbBlockBegin
2
*D7
70
1
10
0
20
0
3
*D7
1

0
LINE
5
DB
100
AcDbEntity
8
DIMENSION
6
CONTINUOUS
62
7
370
0
100
AcDbLine
10
-24
20
105.6
11
39
21
105.6
0
SOLID
5
DC
100
AcDbEntity
8
DIMENSION
6
CONTINUOUS
62
7
370
0
100
AcDbTrace
10
1.7763568394e-15
20
105.6
30
0
11
-12
21
103.601833643
31
0
12
-12
22
107.598166358
32
0
13
-12
23
107.598166358
33
0
0
SOLID
5
DD
100
AcDbEntity
8
DIMENSION
6
CONTINUOUS
62
7
370
0
100
AcDbTrace
10
15
20
105.6
30
0
11
27
21
107.598166358
31
0
12
27
22
103.601833643
32
0
13
27
23
103.601833643
33
0
0
MTEXT
5
DE
100
AcDbEntity
8
DIMENSION
6
CONTINUOUS
62
7
370
0
100
AcDbMText
10
7.5
20
111.625
30
0
40
12
41
12
71
5
72
1
1
15
7
standard
210
0
220
0
230
1
50
0
73
2
44
1
0
LINE
5
DF
100
AcDbEntity
8
DIMENSION
6
CONTINUOUS
62
7
370
0
100
AcDbLine
10
1.53080849893e-18
20
1.6125
11
1.7794184564e-15
21
105.65
0
LINE
5
E0
100
AcDbEntity
8
DIMENSION
6
CONTINUOUS
62
7
370
0
100
AcDbLine
10
15
20
129.525
11
15
21
105.65
0
ENDBLK
5
77
330
75
100
AcDbEntity
8
0
100
AcDbBlockEnd
0
BLOCK
5
79
330
78
100
AcDbEntity
8
0
100
AcDbBlockBegin
2
*D13
70
1
10
0
20
0
3
*D13
1

0
LINE
5
E1
100
AcDbEntity
8
DIMENSION
6
CONTINUOUS
62
7
370
0
100
AcDbLine
10
869.687500002
20
270
11
869.687500002
21
333
0
SOLID
5
E2
100
AcDbEntity
8
DIMENSION
6
CONTINUOUS
62
7
370
0
100
AcDbTrace
10
869.687500002
20
294
30
0
11
871.685666359
21
282
31
0
12
867.689333645
22
282
32
0
13
867.689333645
23
282
33
0
0
SOLID
5
E3
100
AcDbEntity
8
DIMENSION
6
CONTINUOUS
62
7
370
0
100
AcDbTrace
10
869.687500002
20
309
30
0
11
867.689333645
21
321
31
0
12
871.685666359
22
321
32
0
13
871.685666359
23
321
33
0
0
MTEXT
5
E4
100
AcDbEntity
8
DIMENSION
6
CONTINUOUS
62
7
370
0
100
AcDbMText
10
863.662500002
20
301.5
30
0
40
12
41
12
71
5
72
1
1
15
7
standard
210
0
220
0
230
1
50
90
73
2
44
1
0
LINE
5
E5
100
AcDbEntity
8
DIMENSION
6
CONTINUOUS
62
7
370
0
100
AcDbLine
10
842.525
20
294
11
869.737500002
21
294
0
LINE
5
E6
100
AcDbEntity
8
DIMENSION
6
CONTINUOUS
62
7
370
0
100
AcDbLine
10
1088.4375
20
309
11
869.737500002
21
309
0
ENDBLK
5
7A
330
78
100
AcDbEntity
8
0
100
AcDbBlockEnd
0
BLOCK
5
7C
330
7B
100
AcDbEntity
8
0
100
AcDbBlockBegin
2
*D16
70
1
10
0
20
0
3
*D16
1

0
LINE
5
E7
100
AcDbEntity
8
DIMENSION
6
CONTINUOUS
62
7
370
0
100
AcDbLine
10
1048
20
107.75
11
1102
21
107.75
0
SOLID
5
E8
100
AcDbEntity
8
DIMENSION
6
CONTINUOUS
62
7
370
0
100
AcDbTrace
10
1072
20
107.75
30
0
11
1060
21
105.751833643
31
0
12
1060
22
109.748166358
32
0
13
1060
23
109.748166358
33
0
0
SOLID
5
E9
100
AcDbEntity
8
DIMENSION
6
CONTINUOUS
62
7
370
0
100
AcDbTrace
10
1078
20
107.75
30
0
11
1090
21
109.748166358
31
0
12
1090
22
105.751833643
32
0
13
1090
23
105.751833643
33
0
0
MTEXT
5
EA
100
AcDbEntity
8
DIMENSION
6
CONTINUOUS
62
7
370
0
100
AcDbMText
10
1075
20
113.775
30
0
40
12
41
5.33333333333
71
5
72
1
1
6
7
standard
210
0
220
0
230
1
50
0
73
2
44
1
0
LINE
5
EB
100
AcDbEntity
8
DIMENSION
6
CONTINUOUS
62
7
370
0
100
AcDbLine
10
1072
20
129.475
11
1072
21
107.7
0
LINE
5
EC
100
AcDbEntity
8
DIMENSION
6
CONTINUOUS
62
7
370
0
100
AcDbLine
10
1078
20
129.475
11
1078
21
107.7
0
ENDBLK
5
7D
330
7B
100
AcDbEntity
8
0
100
AcDbBlockEnd
0
BLOCK
5
7F
330
7E
100
AcDbEntity
8
0
100
AcDbBlockBegin
2
*D9
70
1
10
0
20
0
3
*D9
1

0
LINE
5
ED
100
AcDbEntity
8
DIMENSION
6
CONTINUOUS
62
7
370
0
100
AcDbLine
10
529.125
20
230.000000001
11
560.875
21
230.000000001
0
SOLID
5
EE
100
AcDbEntity
8
DIMENSION
6
CONTINUOUS
62
7
370
0
100
AcDbTrace
10
529.125
20
230.000000001
30
0
11
541.125
21
231.998166358
31
0
12
541.125
22
228.001833643
32
0
13
541.125
23
228.001833643
33
0
0
SOLID
5
EF
100
AcDbEntity
8
DIMENSION
6
CONTINUOUS
62
7
370
0
100
AcDbTrace
10
560.875
20
230.000000001
30
0
11
548.875
21
228.001833643
31
0
12
548.875
22
231.998166358
32
0
13
548.875
23
231.998166358
33
0
0
MTEXT
5
F0
100
AcDbEntity
8
DIMENSION
6
CONTINUOUS
62
7
370
0
100
AcDbMText
10
578.233333333
20
236.025000001
30
0
40
12
41
34.6666666667
71
5
72
1
1
31.75
7
standard
210
0
220
0
230
1
50
0
73
2
44
1
0
LINE
5
F1
100
AcDbEntity
8
DIMENSION
6
CONTINUOUS
62
7
370
0
100
AcDbLine
10
529.125
20
255.975
11
529.125
21
229.950000001
0
LINE
5
F2
100
AcDbEntity
8
DIMENSION
6
CONTINUOUS
62
7
370
0
100
AcDbLine
10
560.875
20
255.975
11
560.875
21
229.950000001
0
ENDBLK
5
80
330
7E
100
AcDbEntity
8
0
100
AcDbBlockEnd
0
BLOCK
5
82
330
81
100
AcDbEntity
8
0
100
AcDbBlockBegin
2
*D8
70
1
10
0
20
0
3
*D8
1

0
LINE
5
F3
100
AcDbEntity
8
DIMENSION
6
CONTINUOUS
62
7
370
0
100
AcDbLine
10
199.21875
20
270
11
199.21875
21
333
0
SOLID
5
F4
100
AcDbEntity
8
DIMENSION
6
CONTINUOUS
62
7
370
0
100
AcDbTrace
10
199.21875
20
294
30
0
11
201.216916358
21
282
31
0
12
197.220583643
22
282
32
0
13
197.220583643
23
282
33
0
0
SOLID
5
F5
100
AcDbEntity
8
DIMENSION
6
CONTINUOUS
62
7
370
0
100
AcDbTrace
10
199.21875
20
309
30
0
11
197.220583643
21
321
31
0
12
201.216916358
22
321
32
0
13
201.216916358
23
321
33
0
0
MTEXT
5
F6
100
AcDbEntity
8
DIMENSION
6
CONTINUOUS
62
7
370
0
100
AcDbMText
10
193.19375
20
301.5
30
0
40
12
41
12
71
5
72
1
1
15
7
standard
210
0
220
0
230
1
50
90
73
2
44
1
0
LINE
5
F7
100
AcDbEntity
8
DIMENSION
6
CONTINUOUS
62
7
370
0
100
AcDbLine
10
247.475
20
294
11
199.16875
21
294
0
LINE
5
F8
100
AcDbEntity
8
DIMENSION
6
CONTINUOUS
62
7
370
0
100
AcDbLine
10
1.5625
20
309
11
199.16875
21
309
0
ENDBLK
5
83
330
81
100
AcDbEntity
8
0
100
AcDbBlockEnd
0
BLOCK
5
85
330
84
100
AcDbEntity
8
0
100
AcDbBlockBegin
2
*D3
70
1
10
0
20
0
3
*D3
1

0
LINE
5
F9
100
AcDbEntity
8
DIMENSION
6
CONTINUOUS
62
7
370
0
100
AcDbLine
10
92.4000000002
20
170.375
11
92.4000000002
21
138.625
0
SOLID
5
FA
100
AcDbEntity
8
DIMENSION
6
CONTINUOUS
62
7
370
0
100
AcDbTrace
10
92.4000000002
20
170.375
30
0
11
94.3981663575
21
158.375
31
0
12
90.4018336429
22
158.375
32
0
13
90.4018336429
23
158.375
33
0
0
SOLID
5
FB
100
AcDbEntity
8
DIMENSION
6
CONTINUOUS
62
7
370
0
100
AcDbTrace
10
92.4000000002
20
138.625
30
0
11
90.4018336429
21
150.625
31
0
12
94.3981663575
22
150.625
32
0
13
94.3981663575
23
150.625
33
0
0
MTEXT
5
FC
100
AcDbEntity
8
DIMENSION
6
CONTINUOUS
62
7
370
0
100
AcDbMText
10
86.3750000002
20
187.733333333
30
0
40
12
41
34.6666666667
71
5
72
1
1
31.75
7
standard
210
0
220
0
230
1
50
90
73
2
44
1
0
LINE
5
FD
100
AcDbEntity
8
DIMENSION
6
CONTINUOUS
62
7
370
0
100
AcDbLine
10
53.025
20
170.375
11
92.4500000002
21
170.375
0
LINE
5
FE
100
AcDbEntity
8
DIMENSION
6
CONTINUOUS
62
7
370
0
100
AcDbLine
10
53.025
20
138.625
11
92.4500000002
21
138.625
0
ENDBLK
5
86
330
84
100
AcDbEntity
8
0
100
AcDbBlockEnd
0
ENDSEC
0
SECTION
2
ENTITIES
0
ARC
5
FF
100
AcDbEntity
8
OUTER_BOUNDARY
6
ByLayer
62
256
370
-1
100
AcDbCircle
10
1088.4125
20
1.5875
40
1.5875
100
AcDbArc
50
270
51
0
0
LINE
5
100
100
AcDbEntity
8
OUTER_BOUNDARY
6
ByLayer
62
256
370
-1
100
AcDbLine
10
1.5875
20
0
11
1088.4125
21
0
0
ARC
5
101
100
AcDbEntity
8
OUTER_BOUNDARY
6
ByLayer
62
256
370
-1
100
AcDbCircle
10
1.5875
20
1.5875
40
1.5875
100
AcDbArc
50
180
51
270
0
LINE
5
102
100
AcDbEntity
8
REFERENCE
6
ByLayer
62
256
370
-1
100
AcDbLine
10
247.5
20
294
11
297.5
21
294
0
LINE
5
103
100
AcDbEntity
8
REFERENCE
6
ByLayer
62
256
370
-1
100
AcDbLine
10
842.5
20
294
11
792.5
21
294
0
LINE
5
104
100
AcDbEntity
8
ALIGNMENT_POCKET
6
ByLayer
62
256
370
-1
100
AcDbLine
10
247.5
20
297
11
297.5
21
297
0
LINE
5
105
100
AcDbEntity
8
ALIGNMENT_POCKET
6
ByLayer
62
256
370
-1
100
AcDbLine
10
297.5
20
297
11
297.5
21
291
0
LINE
5
106
100
AcDbEntity
8
ALIGNMENT_POCKET
6
ByLayer
62
256
370
-1
100
AcDbLine
10
297.5
20
291
11
247.5
21
291
0
LINE
5
107
100
AcDbEntity
8
ALIGNMENT_POCKET
6
ByLayer
62
256
370
-1
100
AcDbLine
10
247.5
20
291
11
247.5
21
297
0
LINE
5
108
100
AcDbEntity
8
ALIGNMENT_POCKET
6
ByLayer
62
256
370
-1
100
AcDbLine
10
792.5
20
297
11
842.5
21
297
0
LINE
5
109
100
AcDbEntity
8
ALIGNMENT_POCKET
6
ByLayer
62
256
370
-1
100
AcDbLine
10
842.5
20
297
11
842.5
21
291
0
LINE
5
10A
100
AcDbEntity
8
ALIGNMENT_POCKET
6
ByLayer
62
256
370
-1
100
AcDbLine
10
842.5
20
291
11
792.5
21
291
0
LINE
5
10B
100
AcDbEntity
8
ALIGNMENT_POCKET
6
ByLayer
62
256
370
-1
100
AcDbLine
10
792.5
20
291
11
792.5
21
297
0
LINE
5
10C
100
AcDbEntity
8
REFERENCE
6
ByLayer
62
256
370
-1
100
AcDbLine
10
529.125
20
256
11
560.875
21
256
0
CIRCLE
5
10D
100
AcDbEntity
8
6-32_TAP_HOLE
6
ByLayer
62
256
370
-1
100
AcDbCircle
10
529.125
20
256
40
1.35255
0
CIRCLE
5
10E
100
AcDbEntity
8
6-32_TAP_HOLE
6
ByLayer
62
256
370
-1
100
AcDbCircle
10
560.875
20
256
40
1.35255
0
ARC
5
10F
100
AcDbEntity
8
OUTER_BOUNDARY
6
ByLayer
62
256
370
-1
100
AcDbCircle
10
1.5875
20
307.4125
40
1.5875
100
AcDbArc
50
90
51
180
0
LINE
5
110
100
AcDbEntity
8
OUTER_BOUNDARY
6
ByLayer
62
256
370
-1
100
AcDbLine
10
1088.4125
20
309
11
1.5875
21
309
0
ARC
5
111
100
AcDbEntity
8
OUTER_BOUNDARY
6
ByLayer
62
256
370
-1
100
AcDbCircle
10
1088.4125
20
307.4125
40
1.5875
100
AcDbArc
50
0
51
90
0
LINE
5
112
100
AcDbEntity
8
REFERENCE
6
ByLayer
62
256
370
-1
100
AcDbLine
10
15
20
129.5
11
15
21
179.5
0
LINE
5
113
100
AcDbEntity
8
REFERENCE
6
ByLayer
62
256
370
-1
100
AcDbLine
10
1075
20
129.5
11
1075
21
179.5
0
LINE
5
114
100
AcDbEntity
8
ALIGNMENT_POCKET
6
ByLayer
62
256
370
-1
100
AcDbLine
10
18
20
179.5
11
12
21
179.5
0
LINE
5
115
100
AcDbEntity
8
ALIGNMENT_POCKET
6
ByLayer
62
256
370
-1
100
AcDbLine
10
12
20
179.5
11
12
21
129.5
0
LINE
5
116
100
AcDbEntity
8
ALIGNMENT_POCKET
6
ByLayer
62
256
370
-1
100
AcDbLine
10
12
20
129.5
11
18
21
129.5
0
LINE
5
117
100
AcDbEntity
8
ALIGNMENT_POCKET
6
ByLayer
62
256
370
-1
100
AcDbLine
10
18
20
129.5
11
18
21
179.5
0
LINE
5
118
100
AcDbEntity
8
ALIGNMENT_POCKET
6
ByLayer
62
256
370
-1
100
AcDbLine
10
1078
20
179.5
11
1072
21
179.5
0
LINE
5
119
100
AcDbEntity
8
ALIGNMENT_POCKET
6
ByLayer
62
256
370
-1
100
AcDbLine
10
1072
20
179.5
11
1072
21
129.5
0
LINE
5
11A
100
AcDbEntity
8
ALIGNMENT_POCKET
6
ByLayer
62
256
370
-1
100
AcDbLine
10
1072
20
129.5
11
1078
21
129.5
0
LINE
5
11B
100
AcDbEntity
8
ALIGNMENT_POCKET
6
ByLayer
62
256
370
-1
100
AcDbLine
10
1078
20
129.5
11
1078
21
179.5
0
LINE
5
11C
100
AcDbEntity
8
REFERENCE
6
ByLayer
62
256
370
-1
100
AcDbLine
10
53
20
138.625
11
53
21
170.375
0
LINE
5
11D
100
AcDbEntity
8
REFERENCE
6
ByLayer
62
256
370
-1
100
AcDbLine
10
1037
20
138.625
11
1037
21
170.375
0
CIRCLE
5
11E
100
AcDbEntity
8
6-32_TAP_HOLE
6
ByLayer
62
256
370
-1
100
AcDbCircle
10
53
20
170.375
40
1.35255
0
CIRCLE
5
11F
100
AcDbEntity
8
6-32_TAP_HOLE
6
ByLayer
62
256
370
-1
100
AcDbCircle
10
53
20
138.625
40
1.35255
0
CIRCLE
5
120
100
AcDbEntity
8
6-32_TAP_HOLE
6
ByLayer
62
256
370
-1
100
AcDbCircle
10
1037
20
170.375
40
1.35255
0
CIRCLE
5
121
100
AcDbEntity
8
6-32_TAP_HOLE
6
ByLayer
62
256
370
-1
100
AcDbCircle
10
1037
20
138.625
40
1.35255
0
LINE
5
122
100
AcDbEntity
8
OUTER_BOUNDARY
6
ByLayer
62
256
370
-1
100
AcDbLine
10
0
20
1.5875
11
0
21
307.4125
0
LINE
5
123
100
AcDbEntity
8
OUTER_BOUNDARY
6
ByLayer
62
256
370
-1
100
AcDbLine
10
1090
20
307.4125
11
1090
21
1.5875
0
DIMENSION
5
124
100
AcDbEntity
8
DIMENSION
6
ByLayer
62
256
370
-1
100
AcDbDimension
2
*D1
10
1090
20
-39.6728515626
30
0
11
545
21
-33.6478515626
31
0
70
32
71
5
3
Standard
53
0
210
0
220
0
230
1
100
AcDbAlignedDimension
13
0
23
1.5875
33
0
14
1090
24
1.5875
34
0
100
AcDbRotatedDimension
0
DIMENSION
5
125
100
AcDbEntity
8
DIMENSION
6
ByLayer
62
256
370
-1
100
AcDbDimension
2
*D2
10
-38.9099121095
20
4.95950261136e-15
30
0
11
-44.9349121095
21
154.5
31
0
70
32
71
5
3
Standard
53
0
210
0
220
0
230
1
100
AcDbAlignedDimension
13
1.5875
23
309
33
0
14
1.5875
24
0
34
0
50
90
100
AcDbRotatedDimension
0
DIMENSION
5
126
100
AcDbEntity
8
DIMENSION
6
ByLayer
62
256
370
-1
100
AcDbDimension
2
*D3
10
92.4000000002
20
138.625
30
0
11
86.3750000002
21
154.5
31
0
70
32
71
5
3
Standard
53
0
210
0
220
0
230
1
100
AcDbAlignedDimension
13
53
23
170.375
33
0
14
53
24
138.625
34
0
50
90
100
AcDbRotatedDimension
0
DIMENSION
5
127
100
AcDbEntity
8
DIMENSION
6
ByLayer
62
256
370
-1
100
AcDbDimension
2
*D4
10
297.5
20
263.800000001
30
0
11
272.5
21
269.825000001
31
0
70
32
71
5
3
Standard
53
0
210
0
220
0
230
1
100
AcDbAlignedDimension
13
247.5
23
294
33
0
14
297.5
24
294
34
0
100
AcDbRotatedDimension
0
DIMENSION
5
128
100
AcDbEntity
8
DIMENSION
6
ByLayer
62
256
370
-1
100
AcDbDimension
2
*D5
10
36.9600000001
20
129.5
30
0
11
30.9350000001
21
154.5
31
0
70
32
71
5
3
Standard
53
0
210
0
220
0
230
1
100
AcDbAlignedDimension
13
15
23
179.5
33
0
14
15
24
129.5
34
0
50
90
100
AcDbRotatedDimension
0
DIMENSION
5
129
100
AcDbEntity
8
DIMENSION
6
ByLayer
62
256
370
-1
100
AcDbDimension
2
*D6
10
18
20
188.66176
30
0
11
15
21
194.68676
31
0
70
32
71
5
3
Standard
53
0
210
0
220
0
230
1
100
AcDbAlignedDimension
13
12
23
179.5
33
0
14
18
24
179.5
34
0
100
AcDbRotatedDimension
0
DIMENSION
5
12A
100
AcDbEntity
8
DIMENSION
6
ByLayer
62
256
370
-1
100
AcDbDimension
2
*D7
10
15
20
105.6
30
0
11
7.5
21
111.625
31
0
70
32
71
5
3
Standard
53
0
210
0
220
0
230
1
100
AcDbAlignedDimension
13
0
23
1.5875
33
0
14
15
24
129.5
34
0
100
AcDbRotatedDimension
0
DIMENSION
5
12B
100
AcDbEntity
8
DIMENSION
6
ByLayer
62
256
370
-1
100
AcDbDimension
2
*D8
10
199.21875
20
309
30
0
11
193.19375
21
301.5
31
0
70
32
71
5
3
Standard
53
0
210
0
220
0
230
1
100
AcDbAlignedDimension
13
247.5
23
294
33
0
14
1.5875
24
309
34
0
50
90
100
AcDbRotatedDimension
0
DIMENSION
5
12C
100
AcDbEntity
8
DIMENSION
6
ByLayer
62
256
370
-1
100
AcDbDimension
2
*D9
10
560.875
20
230.000000001
30
0
11
545
21
236.025000001
31
0
70
32
71
5
3
Standard
53
0
210
0
220
0
230
1
100
AcDbAlignedDimension
13
529.125
23
256
33
0
14
560.875
24
256
34
0
100
AcDbRotatedDimension
0
DIMENSION
5
12D
100
AcDbEntity
8
DIMENSION
6
ByLayer
62
256
370
-1
100
AcDbDimension
2
*D10
10
842.5
20
267.520000001
30
0
11
817.5
21
273.545000001
31
0
70
32
71
5
3
Standard
53
0
210
0
220
0
230
1
100
AcDbAlignedDimension
13
792.5
23
294
33
0
14
842.5
24
294
34
0
100
AcDbRotatedDimension
0
DIMENSION
5
12E
100
AcDbEntity
8
DIMENSION
6
ByLayer
62
256
370
-1
100
AcDbDimension
2
*D11
10
322.812500001
20
291
30
0
11
316.787500001
21
294
31
0
70
32
71
5
3
Standard
53
0
210
0
220
0
230
1
100
AcDbAlignedDimension
13
297.5
23
297
33
0
14
297.5
24
291
34
0
50
90
100
AcDbRotatedDimension
0
DIMENSION
5
12F
100
AcDbEntity
8
DIMENSION
6
ByLayer
62
256
370
-1
100
AcDbDimension
2
*D12
10
774.400000002
20
291
30
0
11
768.375000002
21
294
31
0
70
32
71
5
3
Standard
53
0
210
0
220
0
230
1
100
AcDbAlignedDimension
13
792.5
23
297
33
0
14
792.5
24
291
34
0
50
90
100
AcDbRotatedDimension
0
DIMENSION
5
130
100
AcDbEntity
8
DIMENSION
6
ByLayer
62
256
370
-1
100
AcDbDimension
2
*D13
10
869.687500002
20
309
30
0
11
863.662500002
21
301.5
31
0
70
32
71
5
3
Standard
53
0
210
0
220
0
230
1
100
AcDbAlignedDimension
13
842.5
23
294
33
0
14
1088.4125
24
309
34
0
50
90
100
AcDbRotatedDimension
0
DIMENSION
5
131
100
AcDbEntity
8
DIMENSION
6
ByLayer
62
256
370
-1
100
AcDbDimension
2
*D14
10
1020
20
138.625
30
0
11
1013.975
21
154.5
31
0
70
32
71
5
3
Standard
53
0
210
0
220
0
230
1
100
AcDbAlignedDimension
13
1037
23
170.375
33
0
14
1037
24
138.625
34
0
50
90
100
AcDbRotatedDimension
0
DIMENSION
5
132
100
AcDbEntity
8
DIMENSION
6
ByLayer
62
256
370
-1
100
AcDbDimension
2
*D15
10
1058.8
20
129.5
30
0
11
1052.775
21
154.5
31
0
70
32
71
5
3
Standard
53
0
210
0
220
0
230
1
100
AcDbAlignedDimension
13
1075
23
179.5
33
0
14
1075
24
129.5
34
0
50
90
100
AcDbRotatedDimension
0
DIMENSION
5
133
100
AcDbEntity
8
DIMENSION
6
ByLayer
62
256
370
-1
100
AcDbDimension
2
*D16
10
1078
20
107.75
30
0
11
1075
21
113.775
31
0
70
32
71
5
3
Standard
53
0
210
0
220
0
230
1
100
AcDbAlignedDimension
13
1072
23
129.5
33
0
14
1078
24
129.5
34
0
100
AcDbRotatedDimension
0
DIMENSION
5
134
100
AcDbEntity
8
DIMENSION
6
ByLayer
62
256
370
-1
100
AcDbDimension
2
*D17
10
1090
20
195.9375
30
0
11
1082.5
21
201.9625
31
0
70
32
71
5
3
Standard
53
0
210
0
220
0
230
1
100
AcDbAlignedDimension
13
1075
23
179.5
33
0
14
1090
24
307.4125
34
0
100
AcDbRotatedDimension
0
DIMENSION
5
135
100
AcDbEntity
8
DIMENSION
6
ByLayer
62
256
370
-1
100
AcDbDimension
2
*D18
10
589.599609376
20
309
30
0
11
583.574609376
21
282.5
31
0
70
32
71
5
3
Standard
53
0
210
0
220
0
230
1
100
AcDbAlignedDimension
13
560.875
23
256
33
0
14
1088.4125
24
309
34
0
50
90
100
AcDbRotatedDimension
0
DIMENSION
5
136
100
AcDbEntity
8
DIMENSION
6
ByLayer
62
256
370
-1
100
AcDbDimension
2
*D19
10
-6.15405347619e-15
20
206.909179688
30
0
11
26.5
21
212.934179688
31
0
70
32
71
5
3
Standard
53
0
210
0
220
0
230
1
100
AcDbAlignedDimension
13
53
23
170.375
33
0
14
0
24
307.4125
34
0
100
AcDbRotatedDimension
0
DIMENSION
5
137
100
AcDbEntity
8
DIMENSION
6
ByLayer
62
256
370
-1
100
AcDbDimension
2
*D20
10
1090
20
81.2000000002
30
0
11
1063.5
21
87.2250000002
31
0
70
32
71
5
3
Standard
53
0
210
0
220
0
230
1
100
AcDbAlignedDimension
13
1037
23
138.625
33
0
14
1090
24
1.5875
34
0
100
AcDbRotatedDimension
0
ENDSEC
0
SECTION
2
OBJECTS
0
DICTIONARY
5
C
330
0
100
AcDbDictionary
281
1
3
ACAD_GROUP
350
D
0
DICTIONARY
5
D
330
C
100
AcDbDictionary
281
1
0
ENDSEC
0
EOF
