999
dxfrw 0.5.11
0
SECTION
2
HEADER
9
$ACADVER
1
AC1021
9
$HANDSEED
5
20000
9
$DWGCODEPAGE
3
ANSI_1252
9
$INSBASE
10
0
20
0
30
0
9
$EXTMIN
10
-136.46618157
20
-227.32244967
30
0
9
$EXTMAX
10
1151.66513863
20
385
30
0
9
$LIMMIN
10
0
20
0
9
$LIMMAX
10
420
20
297
9
$ORTHOMODE
70
0
9
$LTSCALE
40
1
9
$TEXTSTYLE
7
STANDARD
9
$CLAYER
8
1/4-20_INSERT_HOLE
9
$DIMASZ
40
10
9
$DIMLFAC
40
1
9
$DIMSCALE
40
0.0393700787402
9
$DIMEXO
40
0.025
9
$DIMEXE
40
0.05
9
$DIMTXT
40
10
9
$DIMTSZ
40
0
9
$DIMAUNIT
70
0
9
$DIMADEC
70
2
9
$DIMLUNIT
70
2
9
$DIMSTYLE
2
STANDARD
9
$DIMGAP
40
0.025
9
$DIMTIH
70
0
9
$LUNITS
70
2
9
$LUPREC
70
4
9
$AUNITS
70
0
9
$AUPREC
70
2
9
$SPLINESEGS
70
8
9
$GRIDMODE
70
1
9
$SNAPSTYLE
70
0
9
$GRIDUNIT
10
0
20
0
9
$PINSBASE
10
0
20
0
30
0
9
$PLIMMIN
10
0
20
0
9
$PLIMMAX
10
0.012815
20
0.0181241
9
$INSUNITS
70
4
9
$PSVPSCALE
40
1
0
ENDSEC
0
SECTION
2
CLASSES
0
ENDSEC
0
SECTION
2
TABLES
0
TABLE
2
VPORT
5
8
330
0
100
AcDbSymbolTable
70
1
0
VPORT
5
31
330
2
100
AcDbSymbolTableRecord
100
AcDbViewportTableRecord
2
*ACTIVE
70
0
10
0
20
0
11
1
21
1
12
22.3230966775
22
16.9530650292
13
0
23
0
14
10
24
10
15
10
25
10
16
0
26
0
36
1
17
0
27
0
37
0
40
43.6471176995
41
1.27038626609
42
50
43
0
44
0
50
0
51
0
71
0
72
100
73
1
74
3
75
0
76
1
77
0
78
0
281
0
65
1
110
0
120
0
130
0
111
1
121
0
131
0
112
0
122
1
132
0
79
0
146
0
348
10020
60
7
61
5
292
1
282
1
141
0
142
0
63
250
421
3358443
0
ENDTAB
0
TABLE
2
LTYPE
5
5
330
0
100
AcDbSymbolTable
70
4
0
LTYPE
5
14
330
5
100
AcDbSymbolTableRecord
100
AcDbLinetypeTableRecord
2
ByBlock
70
0
3

72
65
73
0
40
0
0
LTYPE
5
15
330
5
100
AcDbSymbolTableRecord
100
AcDbLinetypeTableRecord
2
ByLayer
70
0
3

72
65
73
0
40
0
0
LTYPE
5
16
330
5
100
AcDbSymbolTableRecord
100
AcDbLinetypeTableRecord
2
Continuous
70
0
3
Solid line
72
65
73
0
40
0
0
LTYPE
5
32
330
5
100
AcDbSymbolTableRecord
100
AcDbLinetypeTableRecord
2
DOT
70
0
3
Dot . . . . . . . . . . . . . . . . . . . . . .
72
65
73
2
40
6.35
49
0
74
0
49
-6.35
74
0
0
LTYPE
5
33
330
5
100
AcDbSymbolTableRecord
100
AcDbLinetypeTableRecord
2
DOT2
70
0
3
Dot (.5x) .....................................
72
65
73
2
40
3.175
49
0
74
0
49
-3.175
74
0
0
LTYPE
5
34
330
5
100
AcDbSymbolTableRecord
100
AcDbLinetypeTableRecord
2
DOTX2
70
0
3
Dot (2x) .  .  .  .  .  .  .  .  .  .  .  .  .
72
65
73
2
40
12.7
49
0
74
0
49
-12.7
74
0
0
LTYPE
5
35
330
5
100
AcDbSymbolTableRecord
100
AcDbLinetypeTableRecord
2
DASHED
70
0
3
Dot . . . . . . . . . . . . . . . . . . . . . .
72
65
73
2
40
19.05
49
12.7
74
0
49
-6.35
74
0
0
LTYPE
5
36
330
5
100
AcDbSymbolTableRecord
100
AcDbLinetypeTableRecord
2
DASHED2
70
0
3
Dashed (.5x) _ _ _ _ _ _ _ _ _ _ _ _ _ _ _ _ _
72
65
73
2
40
9.525
49
6.35
74
0
49
-3.175
74
0
0
LTYPE
5
37
330
5
100
AcDbSymbolTableRecord
100
AcDbLinetypeTableRecord
2
DASHEDX2
70
0
3
Dashed (2x) ____  ____  ____  ____  ____  ___
72
65
73
2
40
38.1
49
25.4
74
0
49
-12.7
74
0
0
LTYPE
5
38
330
5
100
AcDbSymbolTableRecord
100
AcDbLinetypeTableRecord
2
DASHDOT
70
0
3
Dash dot __ . __ . __ . __ . __ . __ . __ . __
72
65
73
4
40
25.4
49
12.7
74
0
49
-6.35
74
0
49
0
74
0
49
-6.35
74
0
0
LTYPE
5
39
330
5
100
AcDbSymbolTableRecord
100
AcDbLinetypeTableRecord
2
DASHDOT2
70
0
3
Dash dot (.5x) _._._._._._._._._._._._._._._.
72
65
73
4
40
12.7
49
6.35
74
0
49
-3.175
74
0
49
0
74
0
49
-3.175
74
0
0
LTYPE
5
3A
330
5
100
AcDbSymbolTableRecord
100
AcDbLinetypeTableRecord
2
DASHDOTX2
70
0
3
Dash dot (2x) ____  .  ____  .  ____  .  ___
72
65
73
4
40
50.8
49
25.4
74
0
49
-12.7
74
0
49
0
74
0
49
-12.7
74
0
0
LTYPE
5
3B
330
5
100
AcDbSymbolTableRecord
100
AcDbLinetypeTableRecord
2
DIVIDE
70
0
3
Divide ____ . . ____ . . ____ . . ____ . . ____
72
65
73
6
40
31.75
49
12.7
74
0
49
-6.35
74
0
49
0
74
0
49
-6.35
74
0
49
0
74
0
49
-6.35
74
0
0
LTYPE
5
3C
330
5
100
AcDbSymbolTableRecord
100
AcDbLinetypeTableRecord
2
DIVIDE2
70
0
3
Divide (.5x) __..__..__..__..__..__..__..__.._
72
65
73
6
40
15.875
49
6.35
74
0
49
-3.175
74
0
49
0
74
0
49
-3.175
74
0
49
0
74
0
49
-3.175
74
0
0
LTYPE
5
3D
330
5
100
AcDbSymbolTableRecord
100
AcDbLinetypeTableRecord
2
DIVIDEX2
70
0
3
Divide (2x) ________  .  .  ________  .  .  _
72
65
73
6
40
63.5
49
25.4
74
0
49
-12.7
74
0
49
0
74
0
49
-12.7
74
0
49
0
74
0
49
-12.7
74
0
0
LTYPE
5
3E
330
5
100
AcDbSymbolTableRecord
100
AcDbLinetypeTableRecord
2
BORDER
70
0
3
Border __ __ . __ __ . __ __ . __ __ . __ __ .
72
65
73
6
40
44.45
49
12.7
74
0
49
-6.35
74
0
49
12.7
74
0
49
-6.35
74
0
49
0
74
0
49
-6.35
74
0
0
LTYPE
5
3F
330
5
100
AcDbSymbolTableRecord
100
AcDbLinetypeTableRecord
2
BORDER2
70
0
3
Border (.5x) __.__.__.__.__.__.__.__.__.__.__.
72
65
73
6
40
22.225
49
6.35
74
0
49
-3.175
74
0
49
6.35
74
0
49
-3.175
74
0
49
0
74
0
49
-3.175
74
0
0
LTYPE
5
40
330
5
100
AcDbSymbolTableRecord
100
AcDbLinetypeTableRecord
2
BORDERX2
70
0
3
Border (2x) ____  ____  .  ____  ____  .  ___
72
65
73
6
40
88.9
49
25.4
74
0
49
-12.7
74
0
49
25.4
74
0
49
-12.7
74
0
49
0
74
0
49
-12.7
74
0
0
LTYPE
5
41
330
5
100
AcDbSymbolTableRecord
100
AcDbLinetypeTableRecord
2
CENTER
70
0
3
Center ____ _ ____ _ ____ _ ____ _ ____ _ ____
72
65
73
4
40
50.8
49
31.75
74
0
49
-6.35
74
0
49
6.35
74
0
49
-6.35
74
0
0
LTYPE
5
42
330
5
100
AcDbSymbolTableRecord
100
AcDbLinetypeTableRecord
2
CENTER2
70
0
3
Center (.5x) ___ _ ___ _ ___ _ ___ _ ___ _ ___
72
65
73
4
40
28.575
49
19.05
74
0
49
-3.175
74
0
49
3.175
74
0
49
-3.175
74
0
0
LTYPE
5
43
330
5
100
AcDbSymbolTableRecord
100
AcDbLinetypeTableRecord
2
CENTERX2
70
0
3
Center (2x) ________  __  ________  __  _____
72
65
73
4
40
101.6
49
63.5
74
0
49
-12.7
74
0
49
12.7
74
0
49
-12.7
74
0
0
ENDTAB
0
TABLE
2
LAYER
5
2
330
0
100
AcDbSymbolTable
70
1
0
LAYER
5
10
330
2
100
AcDbSymbolTableRecord
100
AcDbLayerTableRecord
2
0
70
0
62
7
6
CONTINUOUS
370
0
390
F
0
LAYER
5
44
330
2
100
AcDbSymbolTableRecord
100
AcDbLayerTableRecord
2
1/4-20_INSERT_HOLE
70
0
62
4
6
CONTINUOUS
370
0
390
F
0
LAYER
5
45
330
2
100
AcDbSymbolTableRecord
100
AcDbLayerTableRecord
2
8-32_INSERT_HOLE
70
0
62
6
6
CONTINUOUS
290
0
370
0
390
F
0
LAYER
5
46
330
2
100
AcDbSymbolTableRecord
100
AcDbLayerTableRecord
2
CABLE_HOLE
70
0
62
30
420
16744448
6
CONTINUOUS
370
0
390
F
0
LAYER
5
47
330
2
100
AcDbSymbolTableRecord
100
AcDbLayerTableRecord
2
DIMENSION
70
0
62
9
6
CONTINUOUS
370
0
390
F
0
LAYER
5
48
330
2
100
AcDbSymbolTableRecord
100
AcDbLayerTableRecord
2
M6_COUNTER_SINK
70
0
62
3
6
CONTINUOUS
370
0
390
F
0
LAYER
5
49
330
2
100
AcDbSymbolTableRecord
100
AcDbLayerTableRecord
2
M6_THROUGH_HOLE
70
0
62
2
6
CONTINUOUS
370
0
390
F
0
LAYER
5
4A
330
2
100
AcDbSymbolTableRecord
100
AcDbLayerTableRecord
2
OUTER_BOUNDARY
70
0
62
5
6
CONTINUOUS
370
0
390
F
0
LAYER
5
4B
330
2
100
AcDbSymbolTableRecord
100
AcDbLayerTableRecord
2
REFERENCE
70
0
62
253
420
10526884
6
CONTINUOUS
370
0
390
F
0
ENDTAB
0
TABLE
2
STYLE
5
3
330
0
100
AcDbSymbolTable
70
3
0
STYLE
5
4C
330
2
100
AcDbSymbolTableRecord
100
AcDbTextStyleTableRecord
2
Standard
70
0
40
0
41
1
50
0
71
0
42
1
3
txt
4

0
ENDTAB
0
TABLE
2
VIEW
5
6
330
0
100
AcDbSymbolTable
70
0
0
ENDTAB
0
TABLE
2
UCS
5
7
330
0
100
AcDbSymbolTable
70
0
0
ENDTAB
0
TABLE
2
APPID
5
9
330
0
100
AcDbSymbolTable
70
1
0
APPID
5
12
330
9
100
AcDbSymbolTableRecord
100
AcDbRegAppTableRecord
2
ACAD
70
0
0
ENDTAB
0
TABLE
2
DIMSTYLE
5
A
330
0
100
AcDbSymbolTable
70
1
100
AcDbDimStyleTable
71
1
0
DIMSTYLE
105
4D
330
A
100
AcDbSymbolTableRecord
100
AcDbDimStyleTableRecord
2
Standard
70
0
40
1
41
10
42
0.025
43
0.38
44
0.05
45
0
46
0
47
0
48
0
140
10
141
0.09
142
0
143
25.4
144
1
145
0
146
1
147
0.025
148
0
71
0
72
0
73
0
74
1
75
0
76
0
77
0
78
0
79
0
170
0
171
2
172
0
173
0
174
0
175
0
176
0
177
0
178
0
179
0
271
4
272
4
273
2
274
2
275
0
276
0
277
2
278
46
279
0
280
0
281
0
282
0
283
1
284
0
285
0
286
0
288
0
289
3
340
Standard
341

371
-2
372
-2
0
ENDTAB
0
TABLE
2
BLOCK_RECORD
5
1
330
0
100
AcDbSymbolTable
70
2
0
BLOCK_RECORD
5
1F
330
1
100
AcDbSymbolTableRecord
100
AcDbBlockTableRecord
2
*Model_Space
70
0
280
1
281
0
0
BLOCK_RECORD
5
1E
330
1
100
AcDbSymbolTableRecord
100
AcDbBlockTableRecord
2
*Paper_Space
70
0
280
1
281
0
0
BLOCK_RECORD
5
4E
330
1
100
AcDbSymbolTableRecord
100
AcDbBlockTableRecord
2
*D7
70
0
280
1
281
0
0
BLOCK_RECORD
5
51
330
1
100
AcDbSymbolTableRecord
100
AcDbBlockTableRecord
2
*D8
70
0
280
1
281
0
0
BLOCK_RECORD
5
54
330
1
100
AcDbSymbolTableRecord
100
AcDbBlockTableRecord
2
*D5
70
0
280
1
281
0
0
BLOCK_RECORD
5
57
330
1
100
AcDbSymbolTableRecord
100
AcDbBlockTableRecord
2
*D9
70
0
280
1
281
0
0
BLOCK_RECORD
5
5A
330
1
100
AcDbSymbolTableRecord
100
AcDbBlockTableRecord
2
*D11
70
0
280
1
281
0
0
BLOCK_RECORD
5
5D
330
1
100
AcDbSymbolTableRecord
100
AcDbBlockTableRecord
2
*D6
70
0
280
1
281
0
0
BLOCK_RECORD
5
60
330
1
100
AcDbSymbolTableRecord
100
AcDbBlockTableRecord
2
*D14
70
0
280
1
281
0
0
BLOCK_RECORD
5
63
330
1
100
AcDbSymbolTableRecord
100
AcDbBlockTableRecord
2
*D15
70
0
280
1
281
0
0
BLOCK_RECORD
5
66
330
1
100
AcDbSymbolTableRecord
100
AcDbBlockTableRecord
2
*D16
70
0
280
1
281
0
0
BLOCK_RECORD
5
69
330
1
100
AcDbSymbolTableRecord
100
AcDbBlockTableRecord
2
*D3
70
0
280
1
281
0
0
BLOCK_RECORD
5
6C
330
1
100
AcDbSymbolTableRecord
100
AcDbBlockTableRecord
2
*D2
70
0
280
1
281
0
0
BLOCK_RECORD
5
6F
330
1
100
AcDbSymbolTableRecord
100
AcDbBlockTableRecord
2
*D10
70
0
280
1
281
0
0
BLOCK_RECORD
5
72
330
1
100
AcDbSymbolTableRecord
100
AcDbBlockTableRecord
2
*D4
70
0
280
1
281
0
0
BLOCK_RECORD
5
75
330
1
100
AcDbSymbolTableRecord
100
AcDbBlockTableRecord
2
*D13
70
0
280
1
281
0
0
BLOCK_RECORD
5
78
330
1
100
AcDbSymbolTableRecord
100
AcDbBlockTableRecord
2
*D1
70
0
280
1
281
0
0
BLOCK_RECORD
5
7B
330
1
100
AcDbSymbolTableRecord
100
AcDbBlockTableRecord
2
*D12
70
0
280
1
281
0
0
ENDTAB
0
ENDSEC
0
SECTION
2
BLOCKS
0
BLOCK
5
20
330
1F
100
AcDbEntity
8
0
100
AcDbBlockBegin
2
*Model_Space
70
0
10
0
20
0
30
0
3
*Model_Space
1

0
ENDBLK
5
21
330
1F
100
AcDbEntity
8
0
100
AcDbBlockEnd
0
BLOCK
5
1C
330
1B
100
AcDbEntity
8
0
100
AcDbBlockBegin
2
*Paper_Space
70
0
10
0
20
0
30
0
3
*Paper_Space
1

0
ENDBLK
5
1D
330
1F
100
AcDbEntity
8
0
100
AcDbBlockEnd
0
BLOCK
5
4F
330
4E
100
AcDbEntity
8
0
100
AcDbBlockBegin
2
*D7
70
1
10
0
20
0
3
*D7
1

0
LINE
5
7E
100
AcDbEntity
8
DIMENSION
6
CONTINUOUS
62
7
370
0
100
AcDbLine
10
-4.97799927441
20
0
11
-4.97799927441
21
13.9763779528
0
SOLID
5
7F
100
AcDbEntity
8
DIMENSION
6
CONTINUOUS
62
7
370
0
100
AcDbTrace
10
-4.97799927441
20
0
30
0
11
-5.04355591343
21
0.393700787402
31
0
12
-4.91244263539
22
0.393700787402
32
0
13
-4.91244263539
23
0.393700787402
33
0
0
SOLID
5
80
100
AcDbEntity
8
DIMENSION
6
CONTINUOUS
62
7
370
0
100
AcDbTrace
10
-4.97799927441
20
13.9763779528
30
0
11
-4.91244263539
21
13.5826771654
31
0
12
-5.04355591343
22
13.5826771654
32
0
13
-5.04355591343
23
13.5826771654
33
0
0
MTEXT
5
81
100
AcDbEntity
8
DIMENSION
6
CONTINUOUS
62
7
370
0
100
AcDbMText
10
-5.17583392008
20
6.98818897638
30
0
40
0.393700787402
41
1.79352580927
71
5
72
1
1
13.9764
7
standard
210
0
220
0
230
1
50
90
73
2
44
1
0
LINE
5
82
100
AcDbEntity
8
DIMENSION
6
CONTINUOUS
62
7
370
0
100
AcDbLine
10
-0.000984251968504
20
1.20532121439e-19
11
-4.97996777835
21
2.41064242878e-19
0
LINE
5
83
100
AcDbEntity
8
DIMENSION
6
CONTINUOUS
62
7
370
0
100
AcDbLine
10
-0.000984251968504
20
13.9763779528
11
-4.97996777835
21
13.9763779528
0
ENDBLK
5
50
330
4E
100
AcDbEntity
8
0
100
AcDbBlockEnd
0
BLOCK
5
52
330
51
100
AcDbEntity
8
0
100
AcDbBlockBegin
2
*D8
70
1
10
0
20
0
3
*D8
1

0
LINE
5
84
100
AcDbEntity
8
DIMENSION
6
CONTINUOUS
62
7
370
0
100
AcDbLine
10
12.5984251969
20
-6.47427651295
11
0
21
-6.47427651295
0
SOLID
5
85
100
AcDbEntity
8
DIMENSION
6
CONTINUOUS
62
7
370
0
100
AcDbTrace
10
12.5984251969
20
-6.47427651295
30
0
11
12.2047244094
21
-6.53983315197
31
0
12
12.2047244094
22
-6.40871987393
32
0
13
12.2047244094
23
-6.40871987393
33
0
0
SOLID
5
86
100
AcDbEntity
8
DIMENSION
6
CONTINUOUS
62
7
370
0
100
AcDbTrace
10
0
20
-6.47427651295
30
0
11
0.393700787402
21
-6.40871987393
31
0
12
0.393700787402
22
-6.53983315197
32
0
13
0.393700787402
23
-6.53983315197
33
0
0
MTEXT
5
87
100
AcDbEntity
8
DIMENSION
6
CONTINUOUS
62
7
370
0
100
AcDbMText
10
6.29921259843
20
-6.27644186728
30
0
40
0.393700787402
41
1.79352580927
71
5
72
1
1
12.5984
7
standard
210
0
220
0
230
1
50
360
73
2
44
1
0
LINE
5
88
100
AcDbEntity
8
DIMENSION
6
CONTINUOUS
62
7
370
0
100
AcDbLine
10
12.5984251969
20
5.0187007874
11
12.5984251969
21
-6.47624501689
0
LINE
5
89
100
AcDbEntity
8
DIMENSION
6
CONTINUOUS
62
7
370
0
100
AcDbLine
10
-1.80798182159e-19
20
2.36122047244
11
-3.61596364318e-19
21
-6.47624501689
0
ENDBLK
5
53
330
51
100
AcDbEntity
8
0
100
AcDbBlockEnd
0
BLOCK
5
55
330
54
100
AcDbEntity
8
0
100
AcDbBlockBegin
2
*D5
70
1
10
0
20
0
3
*D5
1

0
LINE
5
8A
100
AcDbEntity
8
DIMENSION
6
CONTINUOUS
62
7
370
0
100
AcDbLine
10
7.08661417323
20
-4.55222567315
11
-4.93038065763e-32
21
-4.55222567315
0
SOLID
5
8B
100
AcDbEntity
8
DIMENSION
6
CONTINUOUS
62
7
370
0
100
AcDbTrace
10
7.08661417323
20
-4.55222567315
30
0
11
6.69291338583
21
-4.61778231217
31
0
12
6.69291338583
22
-4.48666903413
32
0
13
6.69291338583
23
-4.48666903413
33
0
0
SOLID
5
8C
100
AcDbEntity
8
DIMENSION
6
CONTINUOUS
62
7
370
0
100
AcDbTrace
10
-4.93038065763e-32
20
-4.55222567315
30
0
11
0.393700787402
21
-4.48666903413
31
0
12
0.393700787402
22
-4.61778231217
32
0
13
0.393700787402
23
-4.61778231217
33
0
0
MTEXT
5
8D
100
AcDbEntity
8
DIMENSION
6
CONTINUOUS
62
7
370
0
100
AcDbMText
10
3.54330708661
20
-4.35439102748
30
0
40
0.393700787402
41
1.53105861767
71
5
72
1
1
7.0866
7
standard
210
0
220
0
230
1
50
360
73
2
44
1
0
LINE
5
8E
100
AcDbEntity
8
DIMENSION
6
CONTINUOUS
62
7
370
0
100
AcDbLine
10
7.08661417323
20
5.51082677165
11
7.08661417323
21
-4.55419417709
0
LINE
5
8F
100
AcDbEntity
8
DIMENSION
6
CONTINUOUS
62
7
370
0
100
AcDbLine
10
-1.80798182159e-19
20
2.36122047244
11
-3.61596364318e-19
21
-4.55419417709
0
ENDBLK
5
56
330
54
100
AcDbEntity
8
0
100
AcDbBlockEnd
0
BLOCK
5
58
330
57
100
AcDbEntity
8
0
100
AcDbBlockBegin
2
*D9
70
1
10
0
20
0
3
*D9
1

0
LINE
5
90
100
AcDbEntity
8
DIMENSION
6
CONTINUOUS
62
7
370
0
100
AcDbLine
10
11.2556879778
20
8.95669291339
11
11.2556879778
21
5.01968503937
0
SOLID
5
91
100
AcDbEntity
8
DIMENSION
6
CONTINUOUS
62
7
370
0
100
AcDbTrace
10
11.2556879778
20
8.95669291339
30
0
11
11.3212446169
21
8.56299212598
31
0
12
11.1901313388
22
8.56299212598
32
0
13
11.1901313388
23
8.56299212598
33
0
0
SOLID
5
92
100
AcDbEntity
8
DIMENSION
6
CONTINUOUS
62
7
370
0
100
AcDbTrace
10
11.2556879778
20
5.01968503937
30
0
11
11.1901313388
21
5.41338582677
31
0
12
11.3212446169
22
5.41338582677
32
0
13
11.3212446169
23
5.41338582677
33
0
0
MTEXT
5
93
100
AcDbEntity
8
DIMENSION
6
CONTINUOUS
62
7
370
0
100
AcDbMText
10
11.0578533322
20
6.98818897638
30
0
40
0.393700787402
41
1.22484689414
71
5
72
1
1
3.937
7
standard
210
0
220
0
230
1
50
90
73
2
44
1
0
LINE
5
94
100
AcDbEntity
8
DIMENSION
6
CONTINUOUS
62
7
370
0
100
AcDbLine
10
12.5974409449
20
8.95669291339
11
11.2537194739
21
8.95669291339
0
LINE
5
95
100
AcDbEntity
8
DIMENSION
6
CONTINUOUS
62
7
370
0
100
AcDbLine
10
12.5974409449
20
5.01968503937
11
11.2537194739
21
5.01968503937
0
ENDBLK
5
59
330
57
100
AcDbEntity
8
0
100
AcDbBlockEnd
0
BLOCK
5
5B
330
5A
100
AcDbEntity
8
0
100
AcDbBlockBegin
2
*D11
70
1
10
0
20
0
3
*D11
1

0
LINE
5
96
100
AcDbEntity
8
DIMENSION
6
CONTINUOUS
62
7
370
0
100
AcDbLine
10
11.8551196593
20
6.98818897638
11
11.8551196593
21
5.01968503937
0
SOLID
5
97
100
AcDbEntity
8
DIMENSION
6
CONTINUOUS
62
7
370
0
100
AcDbTrace
10
11.8551196593
20
6.98818897638
30
0
11
11.9206762983
21
6.59448818898
31
0
12
11.7895630202
22
6.59448818898
32
0
13
11.7895630202
23
6.59448818898
33
0
0
SOLID
5
98
100
AcDbEntity
8
DIMENSION
6
CONTINUOUS
62
7
370
0
100
AcDbTrace
10
11.8551196593
20
5.01968503937
30
0
11
11.7895630202
21
5.41338582677
31
0
12
11.9206762983
22
5.41338582677
32
0
13
11.9206762983
23
5.41338582677
33
0
0
MTEXT
5
99
100
AcDbEntity
8
DIMENSION
6
CONTINUOUS
62
7
370
0
100
AcDbMText
10
11.6572850136
20
6.00393700787
30
0
40
0.393700787402
41
1.44356955381
71
5
72
1
1
1.9685
7
standard
210
0
220
0
230
1
50
90
73
2
44
1
0
LINE
5
9A
100
AcDbEntity
8
DIMENSION
6
CONTINUOUS
62
7
370
0
100
AcDbLine
10
12.5974409449
20
6.98818897638
11
11.8531511553
21
6.98818897638
0
LINE
5
9B
100
AcDbEntity
8
DIMENSION
6
CONTINUOUS
62
7
370
0
100
AcDbLine
10
12.5974409449
20
5.01968503937
11
11.8531511553
21
5.01968503937
0
ENDBLK
5
5C
330
5A
100
AcDbEntity
8
0
100
AcDbBlockEnd
0
BLOCK
5
5E
330
5D
100
AcDbEntity
8
0
100
AcDbBlockBegin
2
*D6
70
1
10
0
20
0
3
*D6
1

0
LINE
5
9C
100
AcDbEntity
8
DIMENSION
6
CONTINUOUS
62
7
370
0
100
AcDbLine
10
-2.41661362896
20
0
11
-2.41661362896
21
5.51181102362
0
SOLID
5
9D
100
AcDbEntity
8
DIMENSION
6
CONTINUOUS
62
7
370
0
100
AcDbTrace
10
-2.41661362896
20
0
30
0
11
-2.48217026798
21
0.393700787402
31
0
12
-2.35105698995
22
0.393700787402
32
0
13
-2.35105698995
23
0.393700787402
33
0
0
SOLID
5
9E
100
AcDbEntity
8
DIMENSION
6
CONTINUOUS
62
7
370
0
100
AcDbTrace
10
-2.41661362896
20
5.51181102362
30
0
11
-2.35105698995
21
5.11811023622
31
0
12
-2.48217026798
22
5.11811023622
32
0
13
-2.48217026798
23
5.11811023622
33
0
0
MTEXT
5
9F
100
AcDbEntity
8
DIMENSION
6
CONTINUOUS
62
7
370
0
100
AcDbMText
10
-2.61444827463
20
2.75590551181
30
0
40
0.393700787402
41
1.35608048994
71
5
72
1
1
5.5118
7
standard
210
0
220
0
230
1
50
90
73
2
44
1
0
LINE
5
A0
100
AcDbEntity
8
DIMENSION
6
CONTINUOUS
62
7
370
0
100
AcDbLine
10
2.36122047244
20
1.20532121439e-19
11
-2.4185821329
21
2.41064242878e-19
0
LINE
5
A1
100
AcDbEntity
8
DIMENSION
6
CONTINUOUS
62
7
370
0
100
AcDbLine
10
7.08562992126
20
5.51181102362
11
-2.4185821329
21
5.51181102362
0
ENDBLK
5
5F
330
5D
100
AcDbEntity
8
0
100
AcDbBlockEnd
0
BLOCK
5
61
330
60
100
AcDbEntity
8
0
100
AcDbBlockBegin
2
*D14
70
1
10
0
20
0
3
*D14
1

0
LINE
5
A2
100
AcDbEntity
8
DIMENSION
6
CONTINUOUS
62
7
370
0
100
AcDbLine
10
15.221743446
20
10.531496063
11
15.221743446
21
3.44488188976
0
SOLID
5
A3
100
AcDbEntity
8
DIMENSION
6
CONTINUOUS
62
7
370
0
100
AcDbTrace
10
15.221743446
20
10.531496063
30
0
11
15.287300085
21
10.1377952756
31
0
12
15.156186807
22
10.1377952756
32
0
13
15.156186807
23
10.1377952756
33
0
0
SOLID
5
A4
100
AcDbEntity
8
DIMENSION
6
CONTINUOUS
62
7
370
0
100
AcDbTrace
10
15.221743446
20
3.44488188976
30
0
11
15.156186807
21
3.83858267717
31
0
12
15.287300085
22
3.83858267717
32
0
13
15.287300085
23
3.83858267717
33
0
0
MTEXT
5
A5
100
AcDbEntity
8
DIMENSION
6
CONTINUOUS
62
7
370
0
100
AcDbMText
10
15.0239088003
20
6.98818897638
30
0
40
0.393700787402
41
1.53105861767
71
5
72
1
1
7.0866
7
standard
210
0
220
0
230
1
50
90
73
2
44
1
0
LINE
5
A6
100
AcDbEntity
8
DIMENSION
6
CONTINUOUS
62
7
370
0
100
AcDbLine
10
15.8454724409
20
10.531496063
11
15.219774942
21
10.531496063
0
LINE
5
A7
100
AcDbEntity
8
DIMENSION
6
CONTINUOUS
62
7
370
0
100
AcDbLine
10
15.8454724409
20
3.44488188976
11
15.219774942
21
3.44488188976
0
ENDBLK
5
62
330
60
100
AcDbEntity
8
0
100
AcDbBlockEnd
0
BLOCK
5
64
330
63
100
AcDbEntity
8
0
100
AcDbBlockBegin
2
*D15
70
1
10
0
20
0
3
*D15
1

0
LINE
5
A8
100
AcDbEntity
8
DIMENSION
6
CONTINUOUS
62
7
370
0
100
AcDbLine
10
27.8051181102
20
11.3026480635
11
35.187007874
21
11.3026480635
0
SOLID
5
A9
100
AcDbEntity
8
DIMENSION
6
CONTINUOUS
62
7
370
0
100
AcDbTrace
10
27.8051181102
20
11.3026480635
30
0
11
28.1988188976
21
11.3682047025
31
0
12
28.1988188976
22
11.2370914245
32
0
13
28.1988188976
23
11.2370914245
33
0
0
SOLID
5
AA
100
AcDbEntity
8
DIMENSION
6
CONTINUOUS
62
7
370
0
100
AcDbTrace
10
35.187007874
20
11.3026480635
30
0
11
34.7933070866
21
11.2370914245
31
0
12
34.7933070866
22
11.3682047025
32
0
13
34.7933070866
23
11.3682047025
33
0
0
MTEXT
5
AB
100
AcDbEntity
8
DIMENSION
6
CONTINUOUS
62
7
370
0
100
AcDbMText
10
31.4960629921
20
11.5004827092
30
0
40
0.393700787402
41
1.44356955381
71
5
72
1
1
7.3819
7
standard
210
0
220
0
230
1
50
0
73
2
44
1
0
LINE
5
AC
100
AcDbEntity
8
DIMENSION
6
CONTINUOUS
62
7
370
0
100
AcDbLine
10
27.8051181102
20
10.3946850394
11
27.8051181102
21
11.3046165674
0
LINE
5
AD
100
AcDbEntity
8
DIMENSION
6
CONTINUOUS
62
7
370
0
100
AcDbLine
10
35.187007874
20
10.3946850394
11
35.187007874
21
11.3046165674
0
ENDBLK
5
65
330
63
100
AcDbEntity
8
0
100
AcDbBlockEnd
0
BLOCK
5
67
330
66
100
AcDbEntity
8
0
100
AcDbBlockBegin
2
*D16
70
1
10
0
20
0
3
*D16
1

0
LINE
5
AE
100
AcDbEntity
8
DIMENSION
6
CONTINUOUS
62
7
370
0
100
AcDbLine
10
35.8876340753
20
10.3937007874
11
35.8876340753
21
3.58267716535
0
SOLID
5
AF
100
AcDbEntity
8
DIMENSION
6
CONTINUOUS
62
7
370
0
100
AcDbTrace
10
35.8876340753
20
10.3937007874
30
0
11
35.9531907143
21
10
31
0
12
35.8220774363
22
10
32
0
13
35.8220774363
23
10
33
0
0
SOLID
5
B0
100
AcDbEntity
8
DIMENSION
6
CONTINUOUS
62
7
370
0
100
AcDbTrace
10
35.8876340753
20
3.58267716535
30
0
11
35.8220774363
21
3.97637795276
31
0
12
35.9531907143
22
3.97637795276
32
0
13
35.9531907143
23
3.97637795276
33
0
0
MTEXT
5
B1
100
AcDbEntity
8
DIMENSION
6
CONTINUOUS
62
7
370
0
100
AcDbMText
10
35.6897994296
20
6.98818897638
30
0
40
0.393700787402
41
1.0498687664
71
5
72
1
1
6.811
7
standard
210
0
220
0
230
1
50
90
73
2
44
1
0
LINE
5
B2
100
AcDbEntity
8
DIMENSION
6
CONTINUOUS
62
7
370
0
100
AcDbLine
10
35.187992126
20
10.3937007874
11
35.8896025793
21
10.3937007874
0
LINE
5
B3
100
AcDbEntity
8
DIMENSION
6
CONTINUOUS
62
7
370
0
100
AcDbLine
10
35.187992126
20
3.58267716535
11
35.8896025793
21
3.58267716535
0
ENDBLK
5
68
330
66
100
AcDbEntity
8
0
100
AcDbBlockEnd
0
BLOCK
5
6A
330
69
100
AcDbEntity
8
0
100
AcDbBlockBegin
2
*D3
70
1
10
0
20
0
3
*D3
1

0
LINE
5
B4
100
AcDbEntity
8
DIMENSION
6
CONTINUOUS
62
7
370
0
100
AcDbLine
10
5.11811023622
20
8.60934903409
11
9.05511811024
21
8.60934903409
0
SOLID
5
B5
100
AcDbEntity
8
DIMENSION
6
CONTINUOUS
62
7
370
0
100
AcDbTrace
10
5.11811023622
20
8.60934903409
30
0
11
5.51181102362
21
8.67490567311
31
0
12
5.51181102362
22
8.54379239508
32
0
13
5.51181102362
23
8.54379239508
33
0
0
SOLID
5
B6
100
AcDbEntity
8
DIMENSION
6
CONTINUOUS
62
7
370
0
100
AcDbTrace
10
9.05511811024
20
8.60934903409
30
0
11
8.66141732283
21
8.54379239508
31
0
12
8.66141732283
22
8.67490567311
32
0
13
8.66141732283
23
8.67490567311
33
0
0
MTEXT
5
B7
100
AcDbEntity
8
DIMENSION
6
CONTINUOUS
62
7
370
0
100
AcDbMText
10
7.08661417323
20
8.80718367976
30
0
40
0.393700787402
41
1.22484689414
71
5
72
1
1
3.937
7
standard
210
0
220
0
230
1
50
0
73
2
44
1
0
LINE
5
B8
100
AcDbEntity
8
DIMENSION
6
CONTINUOUS
62
7
370
0
100
AcDbLine
10
5.11811023622
20
7.4812992126
11
5.11811023622
21
8.61131753803
0
LINE
5
B9
100
AcDbEntity
8
DIMENSION
6
CONTINUOUS
62
7
370
0
100
AcDbLine
10
9.05511811024
20
7.4812992126
11
9.05511811024
21
8.61131753803
0
ENDBLK
5
6B
330
69
100
AcDbEntity
8
0
100
AcDbBlockEnd
0
BLOCK
5
6D
330
6C
100
AcDbEntity
8
0
100
AcDbBlockBegin
2
*D2
70
1
10
0
20
0
3
*D2
1

0
LINE
5
BA
100
AcDbEntity
8
DIMENSION
6
CONTINUOUS
62
7
370
0
100
AcDbLine
10
0
20
-1.57480314961
11
42.9133858268
21
-1.57480314961
0
SOLID
5
BB
100
AcDbEntity
8
DIMENSION
6
CONTINUOUS
62
7
370
0
100
AcDbTrace
10
0
20
-1.57480314961
30
0
11
0.393700787402
21
-1.50924651059
31
0
12
0.393700787402
22
-1.64035978863
32
0
13
0.393700787402
23
-1.64035978863
33
0
0
SOLID
5
BC
100
AcDbEntity
8
DIMENSION
6
CONTINUOUS
62
7
370
0
100
AcDbTrace
10
42.9133858268
20
-1.57480314961
30
0
11
42.5196850394
21
-1.64035978863
31
0
12
42.5196850394
22
-1.50924651059
32
0
13
42.5196850394
23
-1.50924651059
33
0
0
MTEXT
5
BD
100
AcDbEntity
8
DIMENSION
6
CONTINUOUS
62
7
370
0
100
AcDbMText
10
21.4566929134
20
-1.37696850394
30
0
40
0.393700787402
41
1.83727034121
71
5
72
1
1
42.9134
7
standard
210
0
220
0
230
1
50
0
73
2
44
1
0
LINE
5
BE
100
AcDbEntity
8
DIMENSION
6
CONTINUOUS
62
7
370
0
100
AcDbLine
10
-1.80798182159e-19
20
2.36122047244
11
-3.61596364318e-19
21
-1.57677165354
0
LINE
5
BF
100
AcDbEntity
8
DIMENSION
6
CONTINUOUS
62
7
370
0
100
AcDbLine
10
42.9133858268
20
2.36122047244
11
42.9133858268
21
-1.57677165354
0
ENDBLK
5
6E
330
6C
100
AcDbEntity
8
0
100
AcDbBlockEnd
0
BLOCK
5
70
330
6F
100
AcDbEntity
8
0
100
AcDbBlockBegin
2
*D10
70
1
10
0
20
0
3
*D10
1

0
LINE
5
C0
100
AcDbEntity
8
DIMENSION
6
CONTINUOUS
62
7
370
0
100
AcDbLine
10
14.2793765313
20
6.98818897638
11
14.2793765313
21
-6.35074489366e-16
0
SOLID
5
C1
100
AcDbEntity
8
DIMENSION
6
CONTINUOUS
62
7
370
0
100
AcDbTrace
10
14.2793765313
20
6.98818897638
30
0
11
14.3449331704
21
6.59448818898
31
0
12
14.2138198923
22
6.59448818898
32
0
13
14.2138198923
23
6.59448818898
33
0
0
SOLID
5
C2
100
AcDbEntity
8
DIMENSION
6
CONTINUOUS
62
7
370
0
100
AcDbTrace
10
14.2793765313
20
-6.35074489366e-16
30
0
11
14.2138198923
21
0.393700787402
31
0
12
14.3449331704
22
0.393700787402
32
0
13
14.3449331704
23
0.393700787402
33
0
0
MTEXT
5
C3
100
AcDbEntity
8
DIMENSION
6
CONTINUOUS
62
7
370
0
100
AcDbMText
10
14.0815418857
20
3.49409448819
30
0
40
0.393700787402
41
1.53105861767
71
5
72
1
1
6.9882
7
standard
210
0
220
0
230
1
50
90
73
2
44
1
0
LINE
5
C4
100
AcDbEntity
8
DIMENSION
6
CONTINUOUS
62
7
370
0
100
AcDbLine
10
12.5994094488
20
6.98818897638
11
14.2813450353
21
6.98818897638
0
LINE
5
C5
100
AcDbEntity
8
DIMENSION
6
CONTINUOUS
62
7
370
0
100
AcDbLine
10
2.36318897638
20
0
11
14.2813450353
21
-6.35074489366e-16
0
ENDBLK
5
71
330
6F
100
AcDbEntity
8
0
100
AcDbBlockEnd
0
BLOCK
5
73
330
72
100
AcDbEntity
8
0
100
AcDbBlockBegin
2
*D4
70
1
10
0
20
0
3
*D4
1

0
LINE
5
C6
100
AcDbEntity
8
DIMENSION
6
CONTINUOUS
62
7
370
0
100
AcDbLine
10
4.30467451705
20
7.48031496063
11
4.30467451705
21
3.54330708661
0
SOLID
5
C7
100
AcDbEntity
8
DIMENSION
6
CONTINUOUS
62
7
370
0
100
AcDbTrace
10
4.30467451705
20
7.48031496063
30
0
11
4.37023115607
21
7.08661417323
31
0
12
4.23911787803
22
7.08661417323
32
0
13
4.23911787803
23
7.08661417323
33
0
0
SOLID
5
C8
100
AcDbEntity
8
DIMENSION
6
CONTINUOUS
62
7
370
0
100
AcDbTrace
10
4.30467451705
20
3.54330708661
30
0
11
4.23911787803
21
3.93700787402
31
0
12
4.37023115607
22
3.93700787402
32
0
13
4.37023115607
23
3.93700787402
33
0
0
MTEXT
5
C9
100
AcDbEntity
8
DIMENSION
6
CONTINUOUS
62
7
370
0
100
AcDbMText
10
4.10683987138
20
5.51181102362
30
0
40
0.393700787402
41
1.22484689414
71
5
72
1
1
3.937
7
standard
210
0
220
0
230
1
50
90
73
2
44
1
0
LINE
5
CA
100
AcDbEntity
8
DIMENSION
6
CONTINUOUS
62
7
370
0
100
AcDbLine
10
5.11712598425
20
7.48031496063
11
4.30270601311
21
7.48031496063
0
LINE
5
CB
100
AcDbEntity
8
DIMENSION
6
CONTINUOUS
62
7
370
0
100
AcDbLine
10
5.11712598425
20
3.54330708661
11
4.30270601311
21
3.54330708661
0
ENDBLK
5
74
330
72
100
AcDbEntity
8
0
100
AcDbBlockEnd
0
BLOCK
5
76
330
75
100
AcDbEntity
8
0
100
AcDbBlockBegin
2
*D13
70
1
10
0
20
0
3
*D13
1

0
LINE
5
CC
100
AcDbEntity
8
DIMENSION
6
CONTINUOUS
62
7
370
0
100
AcDbLine
10
15.8464566929
20
11.2508538514
11
21.9488188976
21
11.2508538514
0
SOLID
5
CD
100
AcDbEntity
8
DIMENSION
6
CONTINUOUS
62
7
370
0
100
AcDbTrace
10
15.8464566929
20
11.2508538514
30
0
11
16.2401574803
21
11.3164104904
31
0
12
16.2401574803
22
11.1852972124
32
0
13
16.2401574803
23
11.1852972124
33
0
0
SOLID
5
CE
100
AcDbEntity
8
DIMENSION
6
CONTINUOUS
62
7
370
0
100
AcDbTrace
10
21.9488188976
20
11.2508538514
30
0
11
21.5551181102
21
11.1852972124
31
0
12
21.5551181102
22
11.3164104904
32
0
13
21.5551181102
23
11.3164104904
33
0
0
MTEXT
5
CF
100
AcDbEntity
8
DIMENSION
6
CONTINUOUS
62
7
370
0
100
AcDbMText
10
18.8976377953
20
11.448688497
30
0
40
0.393700787402
41
1.48731408574
71
5
72
1
1
6.1024
7
standard
210
0
220
0
230
1
50
0
73
2
44
1
0
LINE
5
D0
100
AcDbEntity
8
DIMENSION
6
CONTINUOUS
62
7
370
0
100
AcDbLine
10
15.8464566929
20
10.532480315
11
15.8464566929
21
11.2528223553
0
LINE
5
D1
100
AcDbEntity
8
DIMENSION
6
CONTINUOUS
62
7
370
0
100
AcDbLine
10
21.9488188976
20
10.532480315
11
21.9488188976
21
11.2528223553
0
ENDBLK
5
77
330
75
100
AcDbEntity
8
0
100
AcDbBlockEnd
0
BLOCK
5
79
330
78
100
AcDbEntity
8
0
100
AcDbBlockBegin
2
*D1
70
1
10
0
20
0
3
*D1
1

0
LINE
5
D2
100
AcDbEntity
8
DIMENSION
6
CONTINUOUS
62
7
370
0
100
AcDbLine
10
45.2755905512
20
15.157480315
11
45.2755905512
21
-3.35689481461e-16
0
SOLID
5
D3
100
AcDbEntity
8
DIMENSION
6
CONTINUOUS
62
7
370
0
100
AcDbTrace
10
45.2755905512
20
15.157480315
30
0
11
45.3411471902
21
14.7637795276
31
0
12
45.2100339122
22
14.7637795276
32
0
13
45.2100339122
23
14.7637795276
33
0
0
SOLID
5
D4
100
AcDbEntity
8
DIMENSION
6
CONTINUOUS
62
7
370
0
100
AcDbTrace
10
45.2755905512
20
-3.35689481461e-16
30
0
11
45.2100339122
21
0.393700787402
31
0
12
45.3411471902
22
0.393700787402
32
0
13
45.3411471902
23
0.393700787402
33
0
0
MTEXT
5
D5
100
AcDbEntity
8
DIMENSION
6
CONTINUOUS
62
7
370
0
100
AcDbMText
10
45.0777559055
20
7.57874015748
30
0
40
0.393700787402
41
1.66229221347
71
5
72
1
1
15.1575
7
standard
210
0
220
0
230
1
50
90
73
2
44
1
0
LINE
5
D6
100
AcDbEntity
8
DIMENSION
6
CONTINUOUS
62
7
370
0
100
AcDbLine
10
42.9143700787
20
15.157480315
11
45.2775590551
21
15.157480315
0
LINE
5
D7
100
AcDbEntity
8
DIMENSION
6
CONTINUOUS
62
7
370
0
100
AcDbLine
10
40.5521653543
20
0
11
45.2775590551
21
-3.35689481461e-16
0
ENDBLK
5
7A
330
78
100
AcDbEntity
8
0
100
AcDbBlockEnd
0
BLOCK
5
7C
330
7B
100
AcDbEntity
8
0
100
AcDbBlockBegin
2
*D12
70
1
10
0
20
0
3
*D12
1

0
LINE
5
D8
100
AcDbEntity
8
DIMENSION
6
CONTINUOUS
62
7
370
0
100
AcDbLine
10
18.8976377953
20
-8.8841461039
11
0
21
-8.8841461039
0
SOLID
5
D9
100
AcDbEntity
8
DIMENSION
6
CONTINUOUS
62
7
370
0
100
AcDbTrace
10
18.8976377953
20
-8.8841461039
30
0
11
18.5039370079
21
-8.94970274292
31
0
12
18.5039370079
22
-8.81858946488
32
0
13
18.5039370079
23
-8.81858946488
33
0
0
SOLID
5
DA
100
AcDbEntity
8
DIMENSION
6
CONTINUOUS
62
7
370
0
100
AcDbTrace
10
0
20
-8.8841461039
30
0
11
0.393700787402
21
-8.81858946488
31
0
12
0.393700787402
22
-8.94970274292
32
0
13
0.393700787402
23
-8.94970274292
33
0
0
MTEXT
5
DB
100
AcDbEntity
8
DIMENSION
6
CONTINUOUS
62
7
370
0
100
AcDbMText
10
9.44881889764
20
-8.68631145823
30
0
40
0.393700787402
41
1.74978127734
71
5
72
1
1
18.8976
7
standard
210
0
220
0
230
1
50
360
73
2
44
1
0
LINE
5
DC
100
AcDbEntity
8
DIMENSION
6
CONTINUOUS
62
7
370
0
100
AcDbLine
10
18.8976377953
20
6.98720472441
11
18.8976377953
21
-8.88611460783
0
LINE
5
DD
100
AcDbEntity
8
DIMENSION
6
CONTINUOUS
62
7
370
0
100
AcDbLine
10
-1.80798182159e-19
20
2.36122047244
11
-3.61596364318e-19
21
-8.88611460783
0
ENDBLK
5
7D
330
7B
100
AcDbEntity
8
0
100
AcDbBlockEnd
0
ENDSEC
0
SECTION
2
ENTITIES
0
CIRCLE
5
DE
100
AcDbEntity
8
M6_THROUGH_HOLE
6
ByLayer
62
256
370
-1
100
AcDbCircle
10
0.590551181102
20
13.188976378
40
0.129921259843
0
CIRCLE
5
DF
100
AcDbEntity
8
M6_THROUGH_HOLE
6
ByLayer
62
256
370
-1
100
AcDbCircle
10
0.590551181102
20
4.33070866142
40
0.129921259843
0
CIRCLE
5
E0
100
AcDbEntity
8
M6_THROUGH_HOLE
6
ByLayer
62
256
370
-1
100
AcDbCircle
10
4.33070866142
20
0.590551181102
40
0.129921259843
0
CIRCLE
5
E1
100
AcDbEntity
8
M6_THROUGH_HOLE
6
ByLayer
62
256
370
-1
100
AcDbCircle
10
38.5826771654
20
0.590551181102
40
0.129921259843
0
CIRCLE
5
E2
100
AcDbEntity
8
M6_THROUGH_HOLE
6
ByLayer
62
256
370
-1
100
AcDbCircle
10
42.3228346457
20
4.33070866142
40
0.129921259843
0
CIRCLE
5
E3
100
AcDbEntity
8
M6_THROUGH_HOLE
6
ByLayer
62
256
370
-1
100
AcDbCircle
10
42.3228346457
20
13.188976378
40
0.129921259843
0
CIRCLE
5
E4
100
AcDbEntity
8
M6_COUNTER_SINK
6
ByLayer
62
256
370
-1
100
AcDbCircle
10
0.590551181102
20
13.188976378
40
0.255905511811
0
CIRCLE
5
E5
100
AcDbEntity
8
M6_COUNTER_SINK
6
ByLayer
62
256
370
-1
100
AcDbCircle
10
0.590551181102
20
4.33070866142
40
0.255905511811
0
CIRCLE
5
E6
100
AcDbEntity
8
M6_COUNTER_SINK
6
ByLayer
62
256
370
-1
100
AcDbCircle
10
4.33070866142
20
0.590551181102
40
0.255905511811
0
CIRCLE
5
E7
100
AcDbEntity
8
M6_COUNTER_SINK
6
ByLayer
62
256
370
-1
100
AcDbCircle
10
38.5826771654
20
0.590551181102
40
0.255905511811
0
CIRCLE
5
E8
100
AcDbEntity
8
M6_COUNTER_SINK
6
ByLayer
62
256
370
-1
100
AcDbCircle
10
42.3228346457
20
4.33070866142
40
0.255905511811
0
CIRCLE
5
E9
100
AcDbEntity
8
M6_COUNTER_SINK
6
ByLayer
62
256
370
-1
100
AcDbCircle
10
42.3228346457
20
13.188976378
40
0.255905511811
0
LINE
5
EA
100
AcDbEntity
8
OUTER_BOUNDARY
6
ByLayer
62
256
370
-1
100
AcDbLine
10
0
20
2.36220472441
11
1.1811023622
21
2.36220472441
0
LINE
5
EB
100
AcDbEntity
8
OUTER_BOUNDARY
6
ByLayer
62
256
370
-1
100
AcDbLine
10
2.36220472441
20
0
11
2.36220472441
21
1.1811023622
0
LINE
5
EC
100
AcDbEntity
8
OUTER_BOUNDARY
6
ByLayer
62
256
370
-1
100
AcDbLine
10
1.1811023622
20
2.36220472441
11
2.36220472441
21
1.1811023622
0
LINE
5
ED
100
AcDbEntity
8
OUTER_BOUNDARY
6
ByLayer
62
256
370
-1
100
AcDbLine
10
0
20
15.157480315
11
0
21
2.36220472441
0
LINE
5
EE
100
AcDbEntity
8
OUTER_BOUNDARY
6
ByLayer
62
256
370
-1
100
AcDbLine
10
42.9133858268
20
2.36220472441
11
41.7322834646
21
2.36220472441
0
LINE
5
EF
100
AcDbEntity
8
OUTER_BOUNDARY
6
ByLayer
62
256
370
-1
100
AcDbLine
10
40.5511811024
20
0
11
40.5511811024
21
1.1811023622
0
LINE
5
F0
100
AcDbEntity
8
OUTER_BOUNDARY
6
ByLayer
62
256
370
-1
100
AcDbLine
10
40.5511811024
20
1.1811023622
11
41.7322834646
21
2.36220472441
0
LINE
5
F1
100
AcDbEntity
8
OUTER_BOUNDARY
6
ByLayer
62
256
370
-1
100
AcDbLine
10
2.36220472441
20
0
11
40.5511811024
21
0
0
LINE
5
F2
100
AcDbEntity
8
OUTER_BOUNDARY
6
ByLayer
62
256
370
-1
100
AcDbLine
10
42.9133858268
20
2.36220472441
11
42.9133858268
21
15.157480315
0
LINE
5
F3
100
AcDbEntity
8
OUTER_BOUNDARY
6
ByLayer
62
256
370
-1
100
AcDbLine
10
1.1811023622
20
15.157480315
11
1.1811023622
21
14.5078740157
0
LINE
5
F4
100
AcDbEntity
8
OUTER_BOUNDARY
6
ByLayer
62
256
370
-1
100
AcDbLine
10
7.08661417323
20
15.157480315
11
7.08661417323
21
14.5078740157
0
LINE
5
F5
100
AcDbEntity
8
OUTER_BOUNDARY
6
ByLayer
62
256
370
-1
100
AcDbLine
10
1.1811023622
20
14.5078740157
11
7.08661417323
21
14.5078740157
0
LINE
5
F6
100
AcDbEntity
8
OUTER_BOUNDARY
6
ByLayer
62
256
370
-1
100
AcDbLine
10
26.3779527559
20
15.157480315
11
26.3779527559
21
14.5078740157
0
LINE
5
F7
100
AcDbEntity
8
OUTER_BOUNDARY
6
ByLayer
62
256
370
-1
100
AcDbLine
10
32.2834645669
20
15.157480315
11
32.2834645669
21
14.5078740157
0
LINE
5
F8
100
AcDbEntity
8
OUTER_BOUNDARY
6
ByLayer
62
256
370
-1
100
AcDbLine
10
26.3779527559
20
14.5078740157
11
32.2834645669
21
14.5078740157
0
LINE
5
F9
100
AcDbEntity
8
OUTER_BOUNDARY
6
ByLayer
62
256
370
-1
100
AcDbLine
10
1.1811023622
20
15.157480315
11
0
21
15.157480315
0
LINE
5
FA
100
AcDbEntity
8
OUTER_BOUNDARY
6
ByLayer
62
256
370
-1
100
AcDbLine
10
26.3779527559
20
15.157480315
11
7.08661417323
21
15.157480315
0
LINE
5
FB
100
AcDbEntity
8
OUTER_BOUNDARY
6
ByLayer
62
256
370
-1
100
AcDbLine
10
42.9133858268
20
15.157480315
11
32.2834645669
21
15.157480315
0
DIMENSION
5
FC
100
AcDbEntity
8
DIMENSION
6
ByLayer
62
256
370
-1
100
AcDbDimension
2
*D1
10
45.2755905512
20
-5.78573290937e-16
30
0
11
45.0777559055
21
7.57874015748
31
0
70
32
71
5
72
0
3
Standard
53
0
210
0
220
0
230
1
100
AcDbAlignedDimension
13
42.9133858268
23
15.157480315
33
0
14
40.5511811024
24
0
34
0
50
90
100
AcDbRotatedDimension
0
DIMENSION
5
FD
100
AcDbEntity
8
DIMENSION
6
ByLayer
62
256
370
-1
100
AcDbDimension
2
*D2
10
42.9133858268
20
-1.57480314961
30
0
11
21.4566929134
21
-1.37696850394
31
0
70
32
71
5
3
Standard
53
0
210
0
220
0
230
1
100
AcDbAlignedDimension
13
0
23
2.36220472441
33
0
14
42.9133858268
24
2.36220472441
34
0
100
AcDbRotatedDimension
0
LINE
5
FE
100
AcDbEntity
8
REFERENCE
6
ByLayer
62
256
370
-1
100
AcDbLine
10
-7.23216613669e-17
20
13.9763779528
11
42.9133858268
21
13.9763779528
0
CIRCLE
5
FF
100
AcDbEntity
8
8-32_INSERT_HOLE
6
ByLayer
62
256
370
-1
100
AcDbCircle
10
5.11811023622
20
7.48031496063
40
0.117187401575
0
CIRCLE
5
100
100
AcDbEntity
8
8-32_INSERT_HOLE
6
ByLayer
62
256
370
-1
100
AcDbCircle
10
9.05511811024
20
7.48031496063
40
0.117187401575
0
CIRCLE
5
101
100
AcDbEntity
8
8-32_INSERT_HOLE
6
ByLayer
62
256
370
-1
100
AcDbCircle
10
9.05511811024
20
3.54330708661
40
0.117187401575
0
CIRCLE
5
102
100
AcDbEntity
8
8-32_INSERT_HOLE
6
ByLayer
62
256
370
-1
100
AcDbCircle
10
5.11811023622
20
3.54330708661
40
0.117187401575
0
DIMENSION
5
103
100
AcDbEntity
8
DIMENSION
6
ByLayer
62
256
370
-1
100
AcDbDimension
2
*D3
10
9.05511811024
20
8.60934903409
30
0
11
7.08661417323
21
8.80718367976
31
0
70
32
71
5
72
0
3
Standard
53
0
210
0
220
0
230
1
100
AcDbAlignedDimension
13
5.11811023622
23
7.48031496063
33
0
14
9.05511811024
24
7.48031496063
34
0
100
AcDbRotatedDimension
0
DIMENSION
5
104
100
AcDbEntity
8
DIMENSION
6
ByLayer
62
256
370
-1
100
AcDbDimension
2
*D4
10
4.30467451705
20
3.54330708661
30
0
11
4.10683987138
21
5.51181102362
31
0
70
32
71
5
72
0
3
Standard
53
0
210
0
220
0
230
1
100
AcDbAlignedDimension
13
5.11811023622
23
7.48031496063
33
0
14
5.11811023622
24
3.54330708661
34
0
50
90
100
AcDbRotatedDimension
0
DIMENSION
5
105
100
AcDbEntity
8
DIMENSION
6
ByLayer
62
256
370
-1
100
AcDbDimension
2
*D5
10
-4.23386752717e-16
20
-4.55222567315
30
0
11
3.54330708661
21
-4.35439102748
31
0
70
32
71
5
72
0
3
Standard
53
0
210
0
220
0
230
1
100
AcDbAlignedDimension
13
7.08661417323
23
5.51181102362
33
0
14
0
24
2.36220472441
34
0
100
AcDbRotatedDimension
0
DIMENSION
5
106
100
AcDbEntity
8
DIMENSION
6
ByLayer
62
256
370
-1
100
AcDbDimension
2
*D6
10
-2.41661362896
20
5.51181102362
30
0
11
-2.61444827463
21
2.75590551181
31
0
70
32
71
5
72
0
3
Standard
53
0
210
0
220
0
230
1
100
AcDbAlignedDimension
13
2.36220472441
23
0
33
0
14
7.08661417323
24
5.51181102362
34
0
50
90
100
AcDbRotatedDimension
0
DIMENSION
5
107
100
AcDbEntity
8
DIMENSION
6
ByLayer
62
256
370
-1
100
AcDbDimension
2
*D7
10
-4.97799927441
20
13.9763779528
30
0
11
-5.17583392008
21
6.98818897638
31
0
70
32
71
5
72
0
3
Standard
53
0
210
0
220
0
230
1
100
AcDbAlignedDimension
13
0
23
0
33
0
14
-7.23216613669e-17
24
13.9763779528
34
0
50
90
100
AcDbRotatedDimension
0
CIRCLE
5
108
100
AcDbEntity
8
8-32_INSERT_HOLE
6
ByLayer
62
256
370
-1
100
AcDbCircle
10
12.5984251969
20
8.95669291339
40
0.117187401575
0
CIRCLE
5
109
100
AcDbEntity
8
8-32_INSERT_HOLE
6
ByLayer
62
256
370
-1
100
AcDbCircle
10
12.5984251969
20
6.98818897638
40
0.117187401575
0
CIRCLE
5
10A
100
AcDbEntity
8
8-32_INSERT_HOLE
6
ByLayer
62
256
370
-1
100
AcDbCircle
10
12.5984251969
20
5.01968503937
40
0.117187401575
0
DIMENSION
5
10B
100
AcDbEntity
8
DIMENSION
6
ByLayer
62
256
370
-1
100
AcDbDimension
2
*D8
10
-5.41078423154e-16
20
-6.47427651295
30
0
11
6.29921259843
21
-6.27644186728
31
0
70
32
71
5
72
0
3
Standard
53
0
210
0
220
0
230
1
100
AcDbAlignedDimension
13
12.5984251969
23
5.01968503937
33
0
14
0
24
2.36220472441
34
0
100
AcDbRotatedDimension
0
DIMENSION
5
10C
100
AcDbEntity
8
DIMENSION
6
ByLayer
62
256
370
-1
100
AcDbDimension
2
*D9
10
11.2556879778
20
5.01968503937
30
0
11
11.0578533322
21
6.98818897638
31
0
70
32
71
5
72
0
3
Standard
53
0
210
0
220
0
230
1
100
AcDbAlignedDimension
13
12.5984251969
23
8.95669291339
33
0
14
12.5984251969
24
5.01968503937
34
0
50
90
100
AcDbRotatedDimension
0
DIMENSION
5
10D
100
AcDbEntity
8
DIMENSION
6
ByLayer
62
256
370
-1
100
AcDbDimension
2
*D10
10
14.2793765313
20
-1.45943263082e-15
30
0
11
14.0815418857
21
3.49409448819
31
0
70
32
71
5
72
0
3
Standard
53
0
210
0
220
0
230
1
100
AcDbAlignedDimension
13
12.5984251969
23
6.98818897638
33
0
14
2.36220472441
24
0
34
0
50
90
100
AcDbRotatedDimension
0
DIMENSION
5
10E
100
AcDbEntity
8
DIMENSION
6
ByLayer
62
256
370
-1
100
AcDbDimension
2
*D11
10
11.8551196593
20
5.01968503937
30
0
11
11.6572850136
21
6.00393700787
31
0
70
32
71
5
72
0
3
Standard
53
0
210
0
220
0
230
1
100
AcDbAlignedDimension
13
12.5984251969
23
6.98818897638
33
0
14
12.5984251969
24
5.01968503937
34
0
50
90
100
AcDbRotatedDimension
0
CIRCLE
5
10F
100
AcDbEntity
8
8-32_INSERT_HOLE
6
ByLayer
62
256
370
-1
100
AcDbCircle
10
15.8464566929
20
10.531496063
40
0.117187401575
0
CIRCLE
5
110
100
AcDbEntity
8
8-32_INSERT_HOLE
6
ByLayer
62
256
370
-1
100
AcDbCircle
10
21.9488188976
20
10.531496063
40
0.117187401575
0
CIRCLE
5
111
100
AcDbEntity
8
8-32_INSERT_HOLE
6
ByLayer
62
256
370
-1
100
AcDbCircle
10
21.9488188976
20
3.44488188976
40
0.117187401575
0
CIRCLE
5
112
100
AcDbEntity
8
8-32_INSERT_HOLE
6
ByLayer
62
256
370
-1
100
AcDbCircle
10
15.8464566929
20
3.44488188976
40
0.117187401575
0
DIMENSION
5
113
100
AcDbEntity
8
DIMENSION
6
ByLayer
62
256
370
-1
100
AcDbDimension
2
*D12
10
-6.88640377197e-16
20
-8.8841461039
30
0
11
9.44881889764
21
-8.68631145823
31
0
70
32
71
5
72
0
3
Standard
53
0
210
0
220
0
230
1
100
AcDbAlignedDimension
13
18.8976377953
23
6.98818897638
33
0
14
0
24
2.36220472441
34
0
100
AcDbRotatedDimension
0
DIMENSION
5
114
100
AcDbEntity
8
DIMENSION
6
ByLayer
62
256
370
-1
100
AcDbDimension
2
*D13
10
21.9488188976
20
11.2508538514
30
0
11
18.8976377953
21
11.448688497
31
0
70
32
71
5
72
0
3
Standard
53
0
210
0
220
0
230
1
100
AcDbAlignedDimension
13
15.8464566929
23
10.531496063
33
0
14
21.9488188976
24
10.531496063
34
0
100
AcDbRotatedDimension
0
DIMENSION
5
115
100
AcDbEntity
8
DIMENSION
6
ByLayer
62
256
370
-1
100
AcDbDimension
2
*D14
10
15.221743446
20
3.44488188976
30
0
11
15.0239088003
21
6.98818897638
31
0
70
32
71
5
72
0
3
Standard
53
0
210
0
220
0
230
1
100
AcDbAlignedDimension
13
15.8464566929
23
10.531496063
33
0
14
15.8464566929
24
3.44488188976
34
0
50
90
100
AcDbRotatedDimension
0
CIRCLE
5
116
100
AcDbEntity
8
8-32_INSERT_HOLE
6
ByLayer
62
256
370
-1
100
AcDbCircle
10
27.8051181102
20
10.3937007874
40
0.117187401575
0
CIRCLE
5
117
100
AcDbEntity
8
8-32_INSERT_HOLE
6
ByLayer
62
256
370
-1
100
AcDbCircle
10
35.187007874
20
10.3937007874
40
0.117187401575
0
CIRCLE
5
118
100
AcDbEntity
8
8-32_INSERT_HOLE
6
ByLayer
62
256
370
-1
100
AcDbCircle
10
35.187007874
20
3.58267716535
40
0.117187401575
0
CIRCLE
5
119
100
AcDbEntity
8
8-32_INSERT_HOLE
6
ByLayer
62
256
370
-1
100
AcDbCircle
10
27.8051181102
20
3.58267716535
40
0.117187401575
0
DIMENSION
5
11A
100
AcDbEntity
8
DIMENSION
6
ByLayer
62
256
370
-1
100
AcDbDimension
2
*D15
10
35.187007874
20
11.3026480635
30
0
11
31.4960629921
21
11.5004827092
31
0
70
32
71
5
72
0
3
Standard
53
0
210
0
220
0
230
1
100
AcDbAlignedDimension
13
27.8051181102
23
10.3937007874
33
0
14
35.187007874
24
10.3937007874
34
0
100
AcDbRotatedDimension
0
DIMENSION
5
11B
100
AcDbEntity
8
DIMENSION
6
ByLayer
62
256
370
-1
100
AcDbDimension
2
*D16
10
35.8876340753
20
3.58267716535
30
0
11
35.6897994296
21
6.98818897638
31
0
70
32
71
5
72
0
3
Standard
53
0
210
0
220
0
230
1
100
AcDbAlignedDimension
13
35.187007874
23
10.3937007874
33
0
14
35.187007874
24
3.58267716535
34
0
50
90
100
AcDbRotatedDimension
0
CIRCLE
5
11C
100
AcDbEntity
8
1/4-20_INSERT_HOLE
6
ByLayer
62
256
370
-1
100
AcDbCircle
10
3.93700787402
20
12.7952755906
40
0.179687401575
0
CIRCLE
5
11D
100
AcDbEntity
8
1/4-20_INSERT_HOLE
6
ByLayer
62
256
370
-1
100
AcDbCircle
10
11.811023622
20
12.7952755906
40
0.179687401575
0
CIRCLE
5
11E
100
AcDbEntity
8
1/4-20_INSERT_HOLE
6
ByLayer
62
256
370
-1
100
AcDbCircle
10
19.6850393701
20
12.7952755906
40
0.179687401575
0
CIRCLE
5
11F
100
AcDbEntity
8
1/4-20_INSERT_HOLE
6
ByLayer
62
256
370
-1
100
AcDbCircle
10
27.5590551181
20
12.7952755906
40
0.179687401575
0
CIRCLE
5
120
100
AcDbEntity
8
1/4-20_INSERT_HOLE
6
ByLayer
62
256
370
-1
100
AcDbCircle
10
35.4330708661
20
12.7952755906
40
0.179687401575
0
CIRCLE
5
121
100
AcDbEntity
8
CABLE_HOLE
6
ByLayer
62
256
370
-1
100
AcDbCircle
10
2.36220472441
20
12.7952755906
40
0.590551181102
0
CIRCLE
5
122
100
AcDbEntity
8
1/4-20_INSERT_HOLE
6
ByLayer
62
256
370
-1
100
AcDbCircle
10
2.36220472441
20
11.2204724409
40
0.179687401575
0
CIRCLE
5
123
100
AcDbEntity
8
CABLE_HOLE
6
ByLayer
62
256
370
-1
100
AcDbCircle
10
40.5511811024
20
12.7952755906
40
0.787401574803
0
CIRCLE
5
124
100
AcDbEntity
8
1/4-20_INSERT_HOLE
6
ByLayer
62
256
370
-1
100
AcDbCircle
10
38.9763779528
20
12.7952755906
40
0.179687401575
0
CIRCLE
5
125
100
AcDbEntity
8
1/4-20_INSERT_HOLE
6
ByLayer
62
256
370
-1
100
AcDbCircle
10
40.5511811024
20
11.2204724409
40
0.179687401575
0
CIRCLE
5
126
100
AcDbEntity
8
1/4-20_INSERT_HOLE
6
ByLayer
62
256
370
-1
100
AcDbCircle
10
40.5511811024
20
7.87401574803
40
0.179687401575
0
CIRCLE
5
127
100
AcDbEntity
8
1/4-20_INSERT_HOLE
6
ByLayer
62
256
370
-1
100
AcDbCircle
10
39.3700787402
20
3.93700787402
40
0.179687401575
0
CIRCLE
5
128
100
AcDbEntity
8
1/4-20_INSERT_HOLE
6
ByLayer
62
256
370
-1
100
AcDbCircle
10
35.4330708661
20
1.96850393701
40
0.179687401575
0
CIRCLE
5
129
100
AcDbEntity
8
1/4-20_INSERT_HOLE
6
ByLayer
62
256
370
-1
100
AcDbCircle
10
27.5590551181
20
1.96850393701
40
0.179687401575
0
CIRCLE
5
12A
100
AcDbEntity
8
1/4-20_INSERT_HOLE
6
ByLayer
62
256
370
-1
100
AcDbCircle
10
23.2283464567
20
1.96850393701
40
0.179687401575
0
CIRCLE
5
12B
100
AcDbEntity
8
1/4-20_INSERT_HOLE
6
ByLayer
62
256
370
-1
100
AcDbCircle
10
24.4094488189
20
10.3937007874
40
0.179687401575
0
CIRCLE
5
12C
100
AcDbEntity
8
1/4-20_INSERT_HOLE
6
ByLayer
62
256
370
-1
100
AcDbCircle
10
24.4094488189
20
3.58267716535
40
0.179687401575
0
ENDSEC
0
SECTION
2
OBJECTS
0
DICTIONARY
5
C
330
0
100
AcDbDictionary
281
1
3
ACAD_GROUP
350
D
0
DICTIONARY
5
D
330
C
100
AcDbDictionary
281
1
0
ENDSEC
0
EOF
