999
dxfrw 0.5.11
0
SECTION
2
HEADER
9
$ACADVER
1
AC1021
9
$HANDSEED
5
20000
9
$DWGCODEPAGE
3
ANSI_1252
9
$INSBASE
10
0
20
0
30
0
9
$EXTMIN
10
-84.105
20
-26.8421405842
30
0
9
$EXTMAX
10
382.524513631
20
330
30
0
9
$LIMMIN
10
0
20
0
9
$LIMMAX
10
420
20
297
9
$ORTHOMODE
70
0
9
$LTSCALE
40
1
9
$TEXTSTYLE
7
STANDARD
9
$CLAYER
8
REFERENCE
9
$DIMASZ
40
1
9
$DIMLFAC
40
1
9
$DIMSCALE
40
1
9
$DIMEXO
40
0.025
9
$DIMEXE
40
0.05
9
$DIMTXT
40
1
9
$DIMTSZ
40
0
9
$DIMAUNIT
70
0
9
$DIMADEC
70
2
9
$DIMLUNIT
70
2
9
$DIMSTYLE
2
STANDARD
9
$DIMGAP
40
0.025
9
$DIMTIH
70
0
9
$LUNITS
70
2
9
$LUPREC
70
4
9
$AUNITS
70
0
9
$AUPREC
70
2
9
$SPLINESEGS
70
8
9
$GRIDMODE
70
1
9
$SNAPSTYLE
70
0
9
$GRIDUNIT
10
0
20
0
9
$PINSBASE
10
0
20
0
30
0
9
$PLIMMIN
10
0
20
0
9
$PLIMMAX
10
0.0128150112
20
0.0181240938
9
$INSUNITS
70
1
9
$PSVPSCALE
40
1
0
ENDSEC
0
SECTION
2
CLASSES
0
ENDSEC
0
SECTION
2
TABLES
0
TABLE
2
VPORT
5
8
330
0
100
AcDbSymbolTable
70
1
0
VPORT
5
31
330
2
100
AcDbSymbolTableRecord
100
AcDbViewportTableRecord
2
*ACTIVE
70
0
10
0
20
0
11
1
21
1
12
5.95029822093
22
8.62586634457
13
0
23
0
14
10
24
10
15
10
25
10
16
0
26
0
36
1
17
0
27
0
37
0
40
14.4418696404
41
1.31330472103
42
50
43
0
44
0
50
0
51
0
71
0
72
100
73
1
74
3
75
0
76
1
77
0
78
0
281
0
65
1
110
0
120
0
130
0
111
1
121
0
131
0
112
0
122
1
132
0
79
0
146
0
348
10020
60
7
61
5
292
1
282
1
141
0
142
0
63
250
421
3358443
0
ENDTAB
0
TABLE
2
LTYPE
5
5
330
0
100
AcDbSymbolTable
70
4
0
LTYPE
5
14
330
5
100
AcDbSymbolTableRecord
100
AcDbLinetypeTableRecord
2
ByBlock
70
0
3

72
65
73
0
40
0
0
LTYPE
5
15
330
5
100
AcDbSymbolTableRecord
100
AcDbLinetypeTableRecord
2
ByLayer
70
0
3

72
65
73
0
40
0
0
LTYPE
5
16
330
5
100
AcDbSymbolTableRecord
100
AcDbLinetypeTableRecord
2
Continuous
70
0
3
Solid line
72
65
73
0
40
0
0
LTYPE
5
32
330
5
100
AcDbSymbolTableRecord
100
AcDbLinetypeTableRecord
2
DOT
70
0
3
Dot . . . . . . . . . . . . . . . . . . . . . .
72
65
73
2
40
6.35
49
0
74
0
49
-6.35
74
0
0
LTYPE
5
33
330
5
100
AcDbSymbolTableRecord
100
AcDbLinetypeTableRecord
2
DOT2
70
0
3
Dot (.5x) .....................................
72
65
73
2
40
3.175
49
0
74
0
49
-3.175
74
0
0
LTYPE
5
34
330
5
100
AcDbSymbolTableRecord
100
AcDbLinetypeTableRecord
2
DOTX2
70
0
3
Dot (2x) .  .  .  .  .  .  .  .  .  .  .  .  .
72
65
73
2
40
12.7
49
0
74
0
49
-12.7
74
0
0
LTYPE
5
35
330
5
100
AcDbSymbolTableRecord
100
AcDbLinetypeTableRecord
2
DASHED
70
0
3
Dot . . . . . . . . . . . . . . . . . . . . . .
72
65
73
2
40
19.05
49
12.7
74
0
49
-6.35
74
0
0
LTYPE
5
36
330
5
100
AcDbSymbolTableRecord
100
AcDbLinetypeTableRecord
2
DASHED2
70
0
3
Dashed (.5x) _ _ _ _ _ _ _ _ _ _ _ _ _ _ _ _ _
72
65
73
2
40
9.525
49
6.35
74
0
49
-3.175
74
0
0
LTYPE
5
37
330
5
100
AcDbSymbolTableRecord
100
AcDbLinetypeTableRecord
2
DASHEDX2
70
0
3
Dashed (2x) ____  ____  ____  ____  ____  ___
72
65
73
2
40
38.1
49
25.4
74
0
49
-12.7
74
0
0
LTYPE
5
38
330
5
100
AcDbSymbolTableRecord
100
AcDbLinetypeTableRecord
2
DASHDOT
70
0
3
Dash dot __ . __ . __ . __ . __ . __ . __ . __
72
65
73
4
40
25.4
49
12.7
74
0
49
-6.35
74
0
49
0
74
0
49
-6.35
74
0
0
LTYPE
5
39
330
5
100
AcDbSymbolTableRecord
100
AcDbLinetypeTableRecord
2
DASHDOT2
70
0
3
Dash dot (.5x) _._._._._._._._._._._._._._._.
72
65
73
4
40
12.7
49
6.35
74
0
49
-3.175
74
0
49
0
74
0
49
-3.175
74
0
0
LTYPE
5
3A
330
5
100
AcDbSymbolTableRecord
100
AcDbLinetypeTableRecord
2
DASHDOTX2
70
0
3
Dash dot (2x) ____  .  ____  .  ____  .  ___
72
65
73
4
40
50.8
49
25.4
74
0
49
-12.7
74
0
49
0
74
0
49
-12.7
74
0
0
LTYPE
5
3B
330
5
100
AcDbSymbolTableRecord
100
AcDbLinetypeTableRecord
2
DIVIDE
70
0
3
Divide ____ . . ____ . . ____ . . ____ . . ____
72
65
73
6
40
31.75
49
12.7
74
0
49
-6.35
74
0
49
0
74
0
49
-6.35
74
0
49
0
74
0
49
-6.35
74
0
0
LTYPE
5
3C
330
5
100
AcDbSymbolTableRecord
100
AcDbLinetypeTableRecord
2
DIVIDE2
70
0
3
Divide (.5x) __..__..__..__..__..__..__..__.._
72
65
73
6
40
15.875
49
6.35
74
0
49
-3.175
74
0
49
0
74
0
49
-3.175
74
0
49
0
74
0
49
-3.175
74
0
0
LTYPE
5
3D
330
5
100
AcDbSymbolTableRecord
100
AcDbLinetypeTableRecord
2
DIVIDEX2
70
0
3
Divide (2x) ________  .  .  ________  .  .  _
72
65
73
6
40
63.5
49
25.4
74
0
49
-12.7
74
0
49
0
74
0
49
-12.7
74
0
49
0
74
0
49
-12.7
74
0
0
LTYPE
5
3E
330
5
100
AcDbSymbolTableRecord
100
AcDbLinetypeTableRecord
2
BORDER
70
0
3
Border __ __ . __ __ . __ __ . __ __ . __ __ .
72
65
73
6
40
44.45
49
12.7
74
0
49
-6.35
74
0
49
12.7
74
0
49
-6.35
74
0
49
0
74
0
49
-6.35
74
0
0
LTYPE
5
3F
330
5
100
AcDbSymbolTableRecord
100
AcDbLinetypeTableRecord
2
BORDER2
70
0
3
Border (.5x) __.__.__.__.__.__.__.__.__.__.__.
72
65
73
6
40
22.225
49
6.35
74
0
49
-3.175
74
0
49
6.35
74
0
49
-3.175
74
0
49
0
74
0
49
-3.175
74
0
0
LTYPE
5
40
330
5
100
AcDbSymbolTableRecord
100
AcDbLinetypeTableRecord
2
BORDERX2
70
0
3
Border (2x) ____  ____  .  ____  ____  .  ___
72
65
73
6
40
88.9
49
25.4
74
0
49
-12.7
74
0
49
25.4
74
0
49
-12.7
74
0
49
0
74
0
49
-12.7
74
0
0
LTYPE
5
41
330
5
100
AcDbSymbolTableRecord
100
AcDbLinetypeTableRecord
2
CENTER
70
0
3
Center ____ _ ____ _ ____ _ ____ _ ____ _ ____
72
65
73
4
40
50.8
49
31.75
74
0
49
-6.35
74
0
49
6.35
74
0
49
-6.35
74
0
0
LTYPE
5
42
330
5
100
AcDbSymbolTableRecord
100
AcDbLinetypeTableRecord
2
CENTER2
70
0
3
Center (.5x) ___ _ ___ _ ___ _ ___ _ ___ _ ___
72
65
73
4
40
28.575
49
19.05
74
0
49
-3.175
74
0
49
3.175
74
0
49
-3.175
74
0
0
LTYPE
5
43
330
5
100
AcDbSymbolTableRecord
100
AcDbLinetypeTableRecord
2
CENTERX2
70
0
3
Center (2x) ________  __  ________  __  _____
72
65
73
4
40
101.6
49
63.5
74
0
49
-12.7
74
0
49
12.7
74
0
49
-12.7
74
0
0
ENDTAB
0
TABLE
2
LAYER
5
2
330
0
100
AcDbSymbolTable
70
1
0
LAYER
5
10
330
2
100
AcDbSymbolTableRecord
100
AcDbLayerTableRecord
2
0
70
0
62
7
6
CONTINUOUS
370
0
390
F
0
LAYER
5
44
330
2
100
AcDbSymbolTableRecord
100
AcDbLayerTableRecord
2
BOUNDARY
70
0
62
5
6
CONTINUOUS
370
0
390
F
0
LAYER
5
45
330
2
100
AcDbSymbolTableRecord
100
AcDbLayerTableRecord
2
DIMENSION
70
0
62
7
6
CONTINUOUS
370
0
390
F
0
LAYER
5
46
330
2
100
AcDbSymbolTableRecord
100
AcDbLayerTableRecord
2
DUCT_CUTOUT
70
0
62
2
6
CONTINUOUS
370
0
390
F
0
LAYER
5
47
330
2
100
AcDbSymbolTableRecord
100
AcDbLayerTableRecord
2
INSERT_HOLE_5/16
70
0
62
3
6
CONTINUOUS
370
0
390
F
0
LAYER
5
48
330
2
100
AcDbSymbolTableRecord
100
AcDbLayerTableRecord
2
REFERENCE
70
0
62
253
420
10526884
6
CONTINUOUS
370
0
390
F
0
ENDTAB
0
TABLE
2
STYLE
5
3
330
0
100
AcDbSymbolTable
70
3
0
STYLE
5
49
330
2
100
AcDbSymbolTableRecord
100
AcDbTextStyleTableRecord
2
Standard
70
0
40
0
41
1
50
0
71
0
42
1
3
txt
4

0
ENDTAB
0
TABLE
2
VIEW
5
6
330
0
100
AcDbSymbolTable
70
0
0
ENDTAB
0
TABLE
2
UCS
5
7
330
0
100
AcDbSymbolTable
70
0
0
ENDTAB
0
TABLE
2
APPID
5
9
330
0
100
AcDbSymbolTable
70
1
0
APPID
5
12
330
9
100
AcDbSymbolTableRecord
100
AcDbRegAppTableRecord
2
ACAD
70
0
0
ENDTAB
0
TABLE
2
DIMSTYLE
5
A
330
0
100
AcDbSymbolTable
70
1
100
AcDbDimStyleTable
71
1
0
DIMSTYLE
105
4A
330
A
100
AcDbSymbolTableRecord
100
AcDbDimStyleTableRecord
2
Standard
70
0
40
1
41
1
42
0.025
43
0.38
44
0.05
45
0
46
0
47
0
48
0
140
1
141
0.09
142
0
143
25.4
144
1
145
0
146
1
147
0.025
148
0
71
0
72
0
73
0
74
1
75
0
76
0
77
0
78
0
79
0
170
0
171
2
172
0
173
0
174
0
175
0
176
0
177
0
178
0
179
0
271
4
272
4
273
2
274
2
275
0
276
0
277
2
278
46
279
0
280
0
281
0
282
0
283
1
284
0
285
0
286
0
288
0
289
3
340
Standard
341

371
-2
372
-2
0
ENDTAB
0
TABLE
2
BLOCK_RECORD
5
1
330
0
100
AcDbSymbolTable
70
2
0
BLOCK_RECORD
5
1F
330
1
100
AcDbSymbolTableRecord
100
AcDbBlockTableRecord
2
*Model_Space
70
0
280
1
281
0
0
BLOCK_RECORD
5
1E
330
1
100
AcDbSymbolTableRecord
100
AcDbBlockTableRecord
2
*Paper_Space
70
0
280
1
281
0
0
BLOCK_RECORD
5
4B
330
1
100
AcDbSymbolTableRecord
100
AcDbBlockTableRecord
2
*D2
70
0
280
1
281
0
0
BLOCK_RECORD
5
4E
330
1
100
AcDbSymbolTableRecord
100
AcDbBlockTableRecord
2
*D5
70
0
280
1
281
0
0
BLOCK_RECORD
5
51
330
1
100
AcDbSymbolTableRecord
100
AcDbBlockTableRecord
2
*D1
70
0
280
1
281
0
0
BLOCK_RECORD
5
54
330
1
100
AcDbSymbolTableRecord
100
AcDbBlockTableRecord
2
*D6
70
0
280
1
281
0
0
BLOCK_RECORD
5
57
330
1
100
AcDbSymbolTableRecord
100
AcDbBlockTableRecord
2
*D3
70
0
280
1
281
0
0
BLOCK_RECORD
5
5A
330
1
100
AcDbSymbolTableRecord
100
AcDbBlockTableRecord
2
*D4
70
0
280
1
281
0
0
ENDTAB
0
ENDSEC
0
SECTION
2
BLOCKS
0
BLOCK
5
20
330
1F
100
AcDbEntity
8
0
100
AcDbBlockBegin
2
*Model_Space
70
0
10
0
20
0
30
0
3
*Model_Space
1

0
ENDBLK
5
21
330
1F
100
AcDbEntity
8
0
100
AcDbBlockEnd
0
BLOCK
5
1C
330
1B
100
AcDbEntity
8
0
100
AcDbBlockBegin
2
*Paper_Space
70
0
10
0
20
0
30
0
3
*Paper_Space
1

0
ENDBLK
5
1D
330
1F
100
AcDbEntity
8
0
100
AcDbBlockEnd
0
BLOCK
5
4C
330
4B
100
AcDbEntity
8
0
100
AcDbBlockBegin
2
*D2
70
1
10
0
20
0
3
*D2
1

0
LINE
5
5D
100
AcDbEntity
8
DIMENSION
6
CONTINUOUS
62
7
370
0
100
AcDbLine
10
-1.34645669291
20
4.234375
11
-1.34645669291
21
-1.265625
0
SOLID
5
5E
100
AcDbEntity
8
DIMENSION
6
CONTINUOUS
62
7
370
0
100
AcDbTrace
10
-1.34645669291
20
2.234375
30
0
11
-1.51297055602
21
3.234375
31
0
12
-1.1799428298
22
3.234375
32
0
13
-1.1799428298
23
3.234375
33
0
0
SOLID
5
5F
100
AcDbEntity
8
DIMENSION
6
CONTINUOUS
62
7
370
0
100
AcDbTrace
10
-1.34645669291
20
0.734375
30
0
11
-1.1799428298
21
-0.265625
31
0
12
-1.51297055602
22
-0.265625
32
0
13
-1.51297055602
23
-0.265625
33
0
0
MTEXT
5
60
100
AcDbEntity
8
DIMENSION
6
CONTINUOUS
62
7
370
0
100
AcDbMText
10
-1.87145669291
20
1.484375
30
0
40
1
41
1.33333333333
71
5
72
1
1
1.5
7
standard
210
0
220
0
230
1
50
90
73
2
44
1
0
LINE
5
61
100
AcDbEntity
8
DIMENSION
6
CONTINUOUS
62
7
370
0
100
AcDbLine
10
1.1561023622
20
2.234375
11
-1.39645669291
21
2.234375
0
LINE
5
62
100
AcDbEntity
8
DIMENSION
6
CONTINUOUS
62
7
370
0
100
AcDbLine
10
1.1561023622
20
0.734375
11
-1.39645669291
21
0.734375
0
ENDBLK
5
4D
330
4B
100
AcDbEntity
8
0
100
AcDbBlockEnd
0
BLOCK
5
4F
330
4E
100
AcDbEntity
8
0
100
AcDbBlockBegin
2
*D5
70
1
10
0
20
0
3
*D5
1

0
LINE
5
63
100
AcDbEntity
8
DIMENSION
6
CONTINUOUS
62
7
370
0
100
AcDbLine
10
1.74214520793
20
11.437007874
11
1.74214520793
21
4.11417322835
0
SOLID
5
64
100
AcDbEntity
8
DIMENSION
6
CONTINUOUS
62
7
370
0
100
AcDbTrace
10
1.74214520793
20
11.437007874
30
0
11
1.90865907103
21
10.437007874
31
0
12
1.57563134482
22
10.437007874
32
0
13
1.57563134482
23
10.437007874
33
0
0
SOLID
5
65
100
AcDbEntity
8
DIMENSION
6
CONTINUOUS
62
7
370
0
100
AcDbTrace
10
1.74214520793
20
4.11417322835
30
0
11
1.57563134482
21
5.11417322835
31
0
12
1.90865907103
22
5.11417322835
32
0
13
1.90865907103
23
5.11417322835
33
0
0
MTEXT
5
66
100
AcDbEntity
8
DIMENSION
6
CONTINUOUS
62
7
370
0
100
AcDbMText
10
1.21714520793
20
7.77559055118
30
0
40
1
41
3.88888888889
71
5
72
1
1
7.3228
7
standard
210
0
220
0
230
1
50
90
73
2
44
1
0
LINE
5
67
100
AcDbEntity
8
DIMENSION
6
CONTINUOUS
62
7
370
0
100
AcDbLine
10
6.47106299213
20
11.437007874
11
1.69214520793
21
11.437007874
0
LINE
5
68
100
AcDbEntity
8
DIMENSION
6
CONTINUOUS
62
7
370
0
100
AcDbLine
10
6.47106299213
20
4.11417322835
11
1.69214520793
21
4.11417322835
0
ENDBLK
5
50
330
4E
100
AcDbEntity
8
0
100
AcDbBlockEnd
0
BLOCK
5
52
330
51
100
AcDbEntity
8
0
100
AcDbBlockBegin
2
*D1
70
1
10
0
20
0
3
*D1
1

0
LINE
5
69
100
AcDbEntity
8
DIMENSION
6
CONTINUOUS
62
7
370
0
100
AcDbLine
10
1.1811023622
20
-0.991220549335
11
11.811023622
21
-0.991220549335
0
SOLID
5
6A
100
AcDbEntity
8
DIMENSION
6
CONTINUOUS
62
7
370
0
100
AcDbTrace
10
1.1811023622
20
-0.991220549335
30
0
11
2.1811023622
21
-0.824706686226
31
0
12
2.1811023622
22
-1.15773441244
32
0
13
2.1811023622
23
-1.15773441244
33
0
0
SOLID
5
6B
100
AcDbEntity
8
DIMENSION
6
CONTINUOUS
62
7
370
0
100
AcDbTrace
10
11.811023622
20
-0.991220549335
30
0
11
10.811023622
21
-1.15773441244
31
0
12
10.811023622
22
-0.824706686226
32
0
13
10.811023622
23
-0.824706686226
33
0
0
MTEXT
5
6C
100
AcDbEntity
8
DIMENSION
6
CONTINUOUS
62
7
370
0
100
AcDbMText
10
6.49606299213
20
-0.466220549335
30
0
40
1
41
4.44444444444
71
5
72
1
1
10.6299
7
standard
210
0
220
0
230
1
50
0
73
2
44
1
0
LINE
5
6D
100
AcDbEntity
8
DIMENSION
6
CONTINUOUS
62
7
370
0
100
AcDbLine
10
1.1811023622
20
0.709375
11
1.1811023622
21
-1.04122054933
0
LINE
5
6E
100
AcDbEntity
8
DIMENSION
6
CONTINUOUS
62
7
370
0
100
AcDbLine
10
11.811023622
20
0.709375
11
11.811023622
21
-1.04122054933
0
ENDBLK
5
53
330
51
100
AcDbEntity
8
0
100
AcDbBlockEnd
0
BLOCK
5
55
330
54
100
AcDbEntity
8
0
100
AcDbBlockBegin
2
*D6
70
1
10
0
20
0
3
*D6
1

0
LINE
5
6F
100
AcDbEntity
8
DIMENSION
6
CONTINUOUS
62
7
370
0
100
AcDbLine
10
8.49785163728
20
10.3334315978
11
4.49427434697
21
5.21774950461
0
SOLID
5
70
100
AcDbEntity
8
DIMENSION
6
CONTINUOUS
62
7
370
0
100
AcDbTrace
10
8.49785163728
20
10.3334315978
30
0
11
8.01267387556
21
9.44330272723
31
0
12
7.75041287569
22
9.64855046627
32
0
13
7.75041287569
23
9.64855046627
33
0
0
SOLID
5
71
100
AcDbEntity
8
DIMENSION
6
CONTINUOUS
62
7
370
0
100
AcDbTrace
10
4.49427434697
20
5.21774950461
30
0
11
4.97945210869
21
6.10787837513
31
0
12
5.24171310856
22
5.9026306361
32
0
13
5.24171310856
23
5.9026306361
33
0
0
MTEXT
5
72
100
AcDbEntity
8
DIMENSION
6
CONTINUOUS
62
7
370
0
100
AcDbMText
10
6.0826228666
20
8.09915238855
30
0
40
1
41
3.77777777778
71
5
72
1
1
6.4961
7
standard
210
0
220
0
230
1
50
51.952957468
73
2
44
1
0
ENDBLK
5
56
330
54
100
AcDbEntity
8
0
100
AcDbBlockEnd
0
BLOCK
5
58
330
57
100
AcDbEntity
8
0
100
AcDbBlockBegin
2
*D3
70
1
10
0
20
0
3
*D3
1

0
LINE
5
73
100
AcDbEntity
8
DIMENSION
6
CONTINUOUS
62
7
370
0
100
AcDbLine
10
-2.91653543307
20
2.734375
11
-2.91653543307
21
-2
0
SOLID
5
74
100
AcDbEntity
8
DIMENSION
6
CONTINUOUS
62
7
370
0
100
AcDbTrace
10
-2.91653543307
20
0.734375
30
0
11
-3.08304929618
21
1.734375
31
0
12
-2.75002156996
22
1.734375
32
0
13
-2.75002156996
23
1.734375
33
0
0
SOLID
5
75
100
AcDbEntity
8
DIMENSION
6
CONTINUOUS
62
7
370
0
100
AcDbTrace
10
-2.91653543307
20
1.96871390581e-16
30
0
11
-2.75002156996
21
-1
31
0
12
-3.08304929618
22
-1
32
0
13
-3.08304929618
23
-1
33
0
0
MTEXT
5
76
100
AcDbEntity
8
DIMENSION
6
CONTINUOUS
62
7
370
0
100
AcDbMText
10
-3.44153543307
20
2.81493055556
30
0
40
1
41
4.11111111111
71
5
72
1
1
0.7344
7
standard
210
0
220
0
230
1
50
90
73
2
44
1
0
LINE
5
77
100
AcDbEntity
8
DIMENSION
6
CONTINUOUS
62
7
370
0
100
AcDbLine
10
1.1561023622
20
0.734375
11
-2.96653543307
21
0.734375
0
LINE
5
78
100
AcDbEntity
8
DIMENSION
6
CONTINUOUS
62
7
370
0
100
AcDbLine
10
0.225
20
3.06151588456e-18
11
-2.96653543307
21
2.0299442235e-16
0
ENDBLK
5
59
330
57
100
AcDbEntity
8
0
100
AcDbBlockEnd
0
BLOCK
5
5B
330
5A
100
AcDbEntity
8
0
100
AcDbBlockBegin
2
*D4
70
1
10
0
20
0
3
*D4
1

0
LINE
5
79
100
AcDbEntity
8
DIMENSION
6
CONTINUOUS
62
7
370
0
100
AcDbLine
10
14.9944635827
20
7.77559055118
11
14.9944635827
21
-1.20028658928e-16
0
SOLID
5
7A
100
AcDbEntity
8
DIMENSION
6
CONTINUOUS
62
7
370
0
100
AcDbTrace
10
14.9944635827
20
7.77559055118
30
0
11
15.1609774458
21
6.77559055118
31
0
12
14.8279497196
22
6.77559055118
32
0
13
14.8279497196
23
6.77559055118
33
0
0
SOLID
5
7B
100
AcDbEntity
8
DIMENSION
6
CONTINUOUS
62
7
370
0
100
AcDbTrace
10
14.9944635827
20
-1.20028658928e-16
30
0
11
14.8279497196
21
1
31
0
12
15.1609774458
22
1
32
0
13
15.1609774458
23
1
33
0
0
MTEXT
5
7C
100
AcDbEntity
8
DIMENSION
6
CONTINUOUS
62
7
370
0
100
AcDbMText
10
14.4694635827
20
3.88779527559
30
0
40
1
41
3.88888888889
71
5
72
1
1
7.7756
7
standard
210
0
220
0
230
1
50
90
73
2
44
1
0
LINE
5
7D
100
AcDbEntity
8
DIMENSION
6
CONTINUOUS
62
7
370
0
100
AcDbLine
10
6.52106299213
20
7.77559055118
11
15.0444635827
21
7.77559055118
0
LINE
5
7E
100
AcDbEntity
8
DIMENSION
6
CONTINUOUS
62
7
370
0
100
AcDbLine
10
12.7671259843
20
-6.12303176911e-18
11
15.0444635827
21
-1.32274722466e-16
0
ENDBLK
5
5C
330
5A
100
AcDbEntity
8
0
100
AcDbBlockEnd
0
ENDSEC
0
SECTION
2
ENTITIES
0
CIRCLE
5
7F
100
AcDbEntity
8
INSERT_HOLE_5/16
6
ByLayer
62
256
370
-1
100
AcDbCircle
10
6.49606299213
20
11.437007874
40
0.21874996063
0
CIRCLE
5
80
100
AcDbEntity
8
INSERT_HOLE_5/16
6
ByLayer
62
256
370
-1
100
AcDbCircle
10
3.32518257669
20
9.6062992126
40
0.21874996063
0
CIRCLE
5
81
100
AcDbEntity
8
INSERT_HOLE_5/16
6
ByLayer
62
256
370
-1
100
AcDbCircle
10
3.32518257669
20
5.94488188976
40
0.21874996063
0
CIRCLE
5
82
100
AcDbEntity
8
INSERT_HOLE_5/16
6
ByLayer
62
256
370
-1
100
AcDbCircle
10
6.49606299213
20
4.11417322835
40
0.21874996063
0
CIRCLE
5
83
100
AcDbEntity
8
INSERT_HOLE_5/16
6
ByLayer
62
256
370
-1
100
AcDbCircle
10
9.66694340756
20
5.94488188976
40
0.21874996063
0
CIRCLE
5
84
100
AcDbEntity
8
INSERT_HOLE_5/16
6
ByLayer
62
256
370
-1
100
AcDbCircle
10
9.66694340756
20
9.6062992126
40
0.21874996063
0
CIRCLE
5
85
100
AcDbEntity
8
INSERT_HOLE_5/16
6
ByLayer
62
256
370
-1
100
AcDbCircle
10
1.1811023622
20
0.734375
40
0.21874996063
0
CIRCLE
5
86
100
AcDbEntity
8
INSERT_HOLE_5/16
6
ByLayer
62
256
370
-1
100
AcDbCircle
10
1.1811023622
20
2.234375
40
0.21874996063
0
CIRCLE
5
87
100
AcDbEntity
8
INSERT_HOLE_5/16
6
ByLayer
62
256
370
-1
100
AcDbCircle
10
11.811023622
20
2.234375
40
0.21874996063
0
CIRCLE
5
88
100
AcDbEntity
8
INSERT_HOLE_5/16
6
ByLayer
62
256
370
-1
100
AcDbCircle
10
11.811023622
20
0.734375
40
0.21874996063
0
ARC
5
89
100
AcDbEntity
8
BOUNDARY
6
ByLayer
62
256
370
-1
100
AcDbCircle
10
0.25
20
12.7421259843
40
0.25
100
AcDbArc
50
90
51
180
0
LINE
5
8A
100
AcDbEntity
8
BOUNDARY
6
ByLayer
62
256
370
-1
100
AcDbLine
10
12.7421259843
20
12.9921259843
11
0.25
21
12.9921259843
0
ARC
5
8B
100
AcDbEntity
8
BOUNDARY
6
ByLayer
62
256
370
-1
100
AcDbCircle
10
12.7421259843
20
12.7421259843
40
0.25
100
AcDbArc
50
360
51
90
0
LINE
5
8C
100
AcDbEntity
8
BOUNDARY
6
ByLayer
62
256
370
-1
100
AcDbLine
10
0
20
12.7421259843
11
0
21
0.25
0
ARC
5
8D
100
AcDbEntity
8
BOUNDARY
6
ByLayer
62
256
370
-1
100
AcDbCircle
10
0.25
20
0.25
40
0.25
100
AcDbArc
50
180
51
270
0
LINE
5
8E
100
AcDbEntity
8
BOUNDARY
6
ByLayer
62
256
370
-1
100
AcDbLine
10
0.25
20
0
11
12.7421259843
21
0
0
LINE
5
8F
100
AcDbEntity
8
BOUNDARY
6
ByLayer
62
256
370
-1
100
AcDbLine
10
12.9921259843
20
0.25
11
12.9921259843
21
12.7421259843
0
ARC
5
90
100
AcDbEntity
8
BOUNDARY
6
ByLayer
62
256
370
-1
100
AcDbCircle
10
12.7421259843
20
0.25
40
0.25
100
AcDbArc
50
270
51
0
0
DIMENSION
5
91
100
AcDbEntity
8
DIMENSION
6
ByLayer
62
256
370
-1
100
AcDbDimension
2
*D1
10
11.811023622
20
-0.991220549335
30
0
11
6.49606299213
21
-0.466220549335
31
0
70
32
71
5
72
0
3
Standard
53
0
210
0
220
0
230
1
100
AcDbAlignedDimension
13
1.1811023622
23
0.734375
33
0
14
11.811023622
24
0.734375
34
0
100
AcDbRotatedDimension
0
DIMENSION
5
92
100
AcDbEntity
8
DIMENSION
6
ByLayer
62
256
370
-1
100
AcDbDimension
2
*D2
10
-1.34645669291
20
0.734375
30
0
11
-1.87145669291
21
1.484375
31
0
70
32
71
5
72
0
3
Standard
53
0
210
0
220
0
230
1
100
AcDbAlignedDimension
13
1.1811023622
23
2.234375
33
0
14
1.1811023622
24
0.734375
34
0
50
90
100
AcDbRotatedDimension
0
DIMENSION
5
93
100
AcDbEntity
8
DIMENSION
6
ByLayer
62
256
370
-1
100
AcDbDimension
2
*D3
10
-2.91653543307
20
3.8778874825e-16
30
0
11
-3.44153543307
21
0.3671875
31
0
70
32
71
5
72
0
3
Standard
53
0
210
0
220
0
230
1
100
AcDbAlignedDimension
13
1.1811023622
23
0.734375
33
0
14
0.25
24
0
34
0
50
90
100
AcDbRotatedDimension
0
DIMENSION
5
94
100
AcDbEntity
8
DIMENSION
6
ByLayer
62
256
370
-1
100
AcDbDimension
2
*D4
10
14.9944635827
20
-2.75831803051e-16
30
0
11
14.4694635827
21
3.88779527559
31
0
70
32
71
5
72
0
3
Standard
53
0
210
0
220
0
230
1
100
AcDbAlignedDimension
13
6.49606299213
23
7.77559055118
33
0
14
12.7421259843
24
0
34
0
50
90
100
AcDbRotatedDimension
0
DIMENSION
5
95
100
AcDbEntity
8
DIMENSION
6
ByLayer
62
256
370
-1
100
AcDbDimension
2
*D5
10
1.74214520793
20
4.11417322835
30
0
11
1.21714520793
21
7.77559055118
31
0
70
32
71
5
72
0
3
Standard
53
0
210
0
220
0
230
1
100
AcDbAlignedDimension
13
6.49606299213
23
11.437007874
33
0
14
6.49606299213
24
4.11417322835
34
0
50
90
100
AcDbRotatedDimension
0
CIRCLE
5
96
100
AcDbEntity
8
DUCT_CUTOUT
6
ByLayer
62
256
370
-1
100
AcDbCircle
10
6.49606299213
20
7.77559055118
40
3.24803149606
0
DIMENSION
5
97
100
AcDbEntity
8
DIMENSION
6
ByLayer
62
256
370
-1
100
AcDbDimension
2
*D6
10
8.49785163728
20
10.3334315978
30
0
11
6.0826228666
21
8.09915238855
31
0
70
35
71
5
72
0
3
Standard
53
0
210
0
220
0
230
1
100
AcDbDiametricDimension
15
4.49427434697
25
5.21774950461
35
0
40
0
0
CIRCLE
5
98
100
AcDbEntity
8
REFERENCE
6
ByLayer
62
256
370
-1
100
AcDbCircle
10
6.49606299213
20
11.437007874
40
0.28
0
CIRCLE
5
99
100
AcDbEntity
8
REFERENCE
6
ByLayer
62
256
370
-1
100
AcDbCircle
10
9.66694340756
20
9.6062992126
40
0.28
0
CIRCLE
5
9A
100
AcDbEntity
8
REFERENCE
6
ByLayer
62
256
370
-1
100
AcDbCircle
10
9.66694340756
20
5.94488188976
40
0.28
0
CIRCLE
5
9B
100
AcDbEntity
8
REFERENCE
6
ByLayer
62
256
370
-1
100
AcDbCircle
10
3.32518257669
20
9.6062992126
40
0.28
0
CIRCLE
5
9C
100
AcDbEntity
8
REFERENCE
6
ByLayer
62
256
370
-1
100
AcDbCircle
10
3.32518257669
20
5.94488188976
40
0.28
0
CIRCLE
5
9D
100
AcDbEntity
8
REFERENCE
6
ByLayer
62
256
370
-1
100
AcDbCircle
10
6.49606299213
20
4.11417322835
40
0.28
0
ENDSEC
0
SECTION
2
OBJECTS
0
DICTIONARY
5
C
330
0
100
AcDbDictionary
281
1
3
ACAD_GROUP
350
D
0
DICTIONARY
5
D
330
C
100
AcDbDictionary
281
1
0
ENDSEC
0
EOF
