999
dxfrw 0.5.10
0
SECTION
2
HEADER
9
$ACADVER
1
AC1021
9
$HANDSEED
5
20000
9
$DWGCODEPAGE
3
ANSI_1252
9
$INSBASE
10
0
20
0
30
0
9
$EXTMIN
10
-24
20
0
30
0
9
$EXTMAX
10
1114
20
304
30
0
9
$LIMMIN
10
0
20
0
9
$LIMMAX
10
420
20
297
9
$ORTHOMODE
70
0
9
$LTSCALE
40
1
9
$TEXTSTYLE
7
STANDARD
9
$CLAYER
8
DIMENSION
9
$DIMASZ
40
12
9
$DIMLFAC
40
1
9
$DIMSCALE
40
1
9
$DIMEXO
40
0.025
9
$DIMEXE
40
0.05
9
$DIMTXT
40
12
9
$DIMTSZ
40
0
9
$DIMAUNIT
70
0
9
$DIMADEC
70
2
9
$DIMLUNIT
70
2
9
$DIMSTYLE
2
STANDARD
9
$DIMGAP
40
0.025
9
$DIMTIH
70
0
9
$LUNITS
70
2
9
$LUPREC
70
4
9
$AUNITS
70
0
9
$AUPREC
70
2
9
$SPLINESEGS
70
8
9
$GRIDMODE
70
1
9
$SNAPSTYLE
70
0
9
$GRIDUNIT
10
0
20
0
9
$PINSBASE
10
0
20
0
30
0
9
$PLIMMIN
10
0
20
0
9
$PLIMMAX
10
3.07881e-08
20
4.35433e-08
9
$INSUNITS
70
4
9
$PSVPSCALE
40
1
0
ENDSEC
0
SECTION
2
CLASSES
0
ENDSEC
0
SECTION
2
TABLES
0
TABLE
2
VPORT
5
8
330
0
100
AcDbSymbolTable
70
1
0
VPORT
5
31
330
2
100
AcDbSymbolTableRecord
100
AcDbViewportTableRecord
2
*ACTIVE
70
0
10
0
20
0
11
1
21
1
12
556.945800781
22
272.750854492
13
0
23
0
14
10
24
10
15
10
25
10
16
0
26
0
36
1
17
0
27
0
37
0
40
726.699829102
41
1.81102362205
42
50
43
0
44
0
50
0
51
0
71
0
72
100
73
1
74
3
75
0
76
1
77
0
78
0
281
0
65
1
110
0
120
0
130
0
111
1
121
0
131
0
112
0
122
1
132
0
79
0
146
0
348
10020
60
7
61
5
292
1
282
1
141
0
142
0
63
250
421
3358443
0
ENDTAB
0
TABLE
2
LTYPE
5
5
330
0
100
AcDbSymbolTable
70
4
0
LTYPE
5
14
330
5
100
AcDbSymbolTableRecord
100
AcDbLinetypeTableRecord
2
ByBlock
70
0
3

72
65
73
0
40
0
0
LTYPE
5
15
330
5
100
AcDbSymbolTableRecord
100
AcDbLinetypeTableRecord
2
ByLayer
70
0
3

72
65
73
0
40
0
0
LTYPE
5
16
330
5
100
AcDbSymbolTableRecord
100
AcDbLinetypeTableRecord
2
Continuous
70
0
3
Solid line
72
65
73
0
40
0
0
LTYPE
5
32
330
5
100
AcDbSymbolTableRecord
100
AcDbLinetypeTableRecord
2
DOT
70
0
3
Dot . . . . . . . . . . . . . . . . . . . . . .
72
65
73
2
40
6.35
49
0
74
0
49
-6.35
74
0
0
LTYPE
5
33
330
5
100
AcDbSymbolTableRecord
100
AcDbLinetypeTableRecord
2
DOT2
70
0
3
Dot (.5x) .....................................
72
65
73
2
40
3.175
49
0
74
0
49
-3.175
74
0
0
LTYPE
5
34
330
5
100
AcDbSymbolTableRecord
100
AcDbLinetypeTableRecord
2
DOTX2
70
0
3
Dot (2x) .  .  .  .  .  .  .  .  .  .  .  .  .
72
65
73
2
40
12.7
49
0
74
0
49
-12.7
74
0
0
LTYPE
5
35
330
5
100
AcDbSymbolTableRecord
100
AcDbLinetypeTableRecord
2
DASHED
70
0
3
Dot . . . . . . . . . . . . . . . . . . . . . .
72
65
73
2
40
19.05
49
12.7
74
0
49
-6.35
74
0
0
LTYPE
5
36
330
5
100
AcDbSymbolTableRecord
100
AcDbLinetypeTableRecord
2
DASHED2
70
0
3
Dashed (.5x) _ _ _ _ _ _ _ _ _ _ _ _ _ _ _ _ _
72
65
73
2
40
9.525
49
6.35
74
0
49
-3.175
74
0
0
LTYPE
5
37
330
5
100
AcDbSymbolTableRecord
100
AcDbLinetypeTableRecord
2
DASHEDX2
70
0
3
Dashed (2x) ____  ____  ____  ____  ____  ___
72
65
73
2
40
38.1
49
25.4
74
0
49
-12.7
74
0
0
LTYPE
5
38
330
5
100
AcDbSymbolTableRecord
100
AcDbLinetypeTableRecord
2
DASHDOT
70
0
3
Dash dot __ . __ . __ . __ . __ . __ . __ . __
72
65
73
4
40
25.4
49
12.7
74
0
49
-6.35
74
0
49
0
74
0
49
-6.35
74
0
0
LTYPE
5
39
330
5
100
AcDbSymbolTableRecord
100
AcDbLinetypeTableRecord
2
DASHDOT2
70
0
3
Dash dot (.5x) _._._._._._._._._._._._._._._.
72
65
73
4
40
12.7
49
6.35
74
0
49
-3.175
74
0
49
0
74
0
49
-3.175
74
0
0
LTYPE
5
3A
330
5
100
AcDbSymbolTableRecord
100
AcDbLinetypeTableRecord
2
DASHDOTX2
70
0
3
Dash dot (2x) ____  .  ____  .  ____  .  ___
72
65
73
4
40
50.8
49
25.4
74
0
49
-12.7
74
0
49
0
74
0
49
-12.7
74
0
0
LTYPE
5
3B
330
5
100
AcDbSymbolTableRecord
100
AcDbLinetypeTableRecord
2
DIVIDE
70
0
3
Divide ____ . . ____ . . ____ . . ____ . . ____
72
65
73
6
40
31.75
49
12.7
74
0
49
-6.35
74
0
49
0
74
0
49
-6.35
74
0
49
0
74
0
49
-6.35
74
0
0
LTYPE
5
3C
330
5
100
AcDbSymbolTableRecord
100
AcDbLinetypeTableRecord
2
DIVIDE2
70
0
3
Divide (.5x) __..__..__..__..__..__..__..__.._
72
65
73
6
40
15.875
49
6.35
74
0
49
-3.175
74
0
49
0
74
0
49
-3.175
74
0
49
0
74
0
49
-3.175
74
0
0
LTYPE
5
3D
330
5
100
AcDbSymbolTableRecord
100
AcDbLinetypeTableRecord
2
DIVIDEX2
70
0
3
Divide (2x) ________  .  .  ________  .  .  _
72
65
73
6
40
63.5
49
25.4
74
0
49
-12.7
74
0
49
0
74
0
49
-12.7
74
0
49
0
74
0
49
-12.7
74
0
0
LTYPE
5
3E
330
5
100
AcDbSymbolTableRecord
100
AcDbLinetypeTableRecord
2
BORDER
70
0
3
Border __ __ . __ __ . __ __ . __ __ . __ __ .
72
65
73
6
40
44.45
49
12.7
74
0
49
-6.35
74
0
49
12.7
74
0
49
-6.35
74
0
49
0
74
0
49
-6.35
74
0
0
LTYPE
5
3F
330
5
100
AcDbSymbolTableRecord
100
AcDbLinetypeTableRecord
2
BORDER2
70
0
3
Border (.5x) __.__.__.__.__.__.__.__.__.__.__.
72
65
73
6
40
22.225
49
6.35
74
0
49
-3.175
74
0
49
6.35
74
0
49
-3.175
74
0
49
0
74
0
49
-3.175
74
0
0
LTYPE
5
40
330
5
100
AcDbSymbolTableRecord
100
AcDbLinetypeTableRecord
2
BORDERX2
70
0
3
Border (2x) ____  ____  .  ____  ____  .  ___
72
65
73
6
40
88.9
49
25.4
74
0
49
-12.7
74
0
49
25.4
74
0
49
-12.7
74
0
49
0
74
0
49
-12.7
74
0
0
LTYPE
5
41
330
5
100
AcDbSymbolTableRecord
100
AcDbLinetypeTableRecord
2
CENTER
70
0
3
Center ____ _ ____ _ ____ _ ____ _ ____ _ ____
72
65
73
4
40
50.8
49
31.75
74
0
49
-6.35
74
0
49
6.35
74
0
49
-6.35
74
0
0
LTYPE
5
42
330
5
100
AcDbSymbolTableRecord
100
AcDbLinetypeTableRecord
2
CENTER2
70
0
3
Center (.5x) ___ _ ___ _ ___ _ ___ _ ___ _ ___
72
65
73
4
40
28.575
49
19.05
74
0
49
-3.175
74
0
49
3.175
74
0
49
-3.175
74
0
0
LTYPE
5
43
330
5
100
AcDbSymbolTableRecord
100
AcDbLinetypeTableRecord
2
CENTERX2
70
0
3
Center (2x) ________  __  ________  __  _____
72
65
73
4
40
101.6
49
63.5
74
0
49
-12.7
74
0
49
12.7
74
0
49
-12.7
74
0
0
ENDTAB
0
TABLE
2
LAYER
5
2
330
0
100
AcDbSymbolTable
70
1
0
LAYER
5
10
330
2
100
AcDbSymbolTableRecord
100
AcDbLayerTableRecord
2
0
70
0
62
7
6
CONTINUOUS
370
0
390
F
0
LAYER
5
44
330
2
100
AcDbSymbolTableRecord
100
AcDbLayerTableRecord
2
OUTER_BOUNDARY
70
0
62
5
6
CONTINUOUS
370
0
390
F
0
LAYER
5
45
330
2
100
AcDbSymbolTableRecord
100
AcDbLayerTableRecord
2
REFERENCE
70
0
62
253
420
10526884
6
CONTINUOUS
370
0
390
F
0
LAYER
5
46
330
2
100
AcDbSymbolTableRecord
100
AcDbLayerTableRecord
2
ALIGNMENT_POCKET
70
0
62
6
6
CONTINUOUS
370
0
390
F
0
LAYER
5
47
330
2
100
AcDbSymbolTableRecord
100
AcDbLayerTableRecord
2
DIMENSION
70
0
62
7
6
CONTINUOUS
370
0
390
F
0
LAYER
5
48
330
2
100
AcDbSymbolTableRecord
100
AcDbLayerTableRecord
2
6-32_TAP_HOLE
70
0
62
2
6
CONTINUOUS
370
0
390
F
0
ENDTAB
0
TABLE
2
STYLE
5
3
330
0
100
AcDbSymbolTable
70
3
0
STYLE
5
49
330
2
100
AcDbSymbolTableRecord
100
AcDbTextStyleTableRecord
2
Standard
70
0
40
0
41
1
50
0
71
0
42
1
3
txt
4

0
ENDTAB
0
TABLE
2
VIEW
5
6
330
0
100
AcDbSymbolTable
70
0
0
ENDTAB
0
TABLE
2
UCS
5
7
330
0
100
AcDbSymbolTable
70
0
0
ENDTAB
0
TABLE
2
APPID
5
9
330
0
100
AcDbSymbolTable
70
1
0
APPID
5
12
330
9
100
AcDbSymbolTableRecord
100
AcDbRegAppTableRecord
2
ACAD
70
0
0
ENDTAB
0
TABLE
2
DIMSTYLE
5
A
330
0
100
AcDbSymbolTable
70
1
100
AcDbDimStyleTable
71
1
0
DIMSTYLE
105
4A
330
A
100
AcDbSymbolTableRecord
100
AcDbDimStyleTableRecord
2
Standard
70
0
40
1
41
12
42
0.025
43
0.38
44
0.05
45
0
46
0
47
0
48
0
140
12
141
0.09
142
0
143
25.4
144
1
145
0
146
1
147
0.025
148
0
71
0
72
0
73
0
74
1
75
0
76
0
77
0
78
0
79
0
170
0
171
2
172
0
173
0
174
0
175
0
176
0
177
0
178
0
179
0
271
4
272
4
273
2
274
2
275
0
276
0
277
2
278
46
279
0
280
0
281
0
282
0
283
1
284
0
285
0
286
0
288
0
289
3
340
Standard
341

371
-2
372
-2
0
ENDTAB
0
TABLE
2
BLOCK_RECORD
5
1
330
0
100
AcDbSymbolTable
70
2
0
BLOCK_RECORD
5
1F
330
1
100
AcDbSymbolTableRecord
100
AcDbBlockTableRecord
2
*Model_Space
70
0
280
1
281
0
0
BLOCK_RECORD
5
1E
330
1
100
AcDbSymbolTableRecord
100
AcDbBlockTableRecord
2
*Paper_Space
70
0
280
1
281
0
0
BLOCK_RECORD
5
4B
330
1
100
AcDbSymbolTableRecord
100
AcDbBlockTableRecord
2
*D1
70
0
280
1
281
0
0
BLOCK_RECORD
5
4E
330
1
100
AcDbSymbolTableRecord
100
AcDbBlockTableRecord
2
*D5
70
0
280
1
281
0
0
BLOCK_RECORD
5
51
330
1
100
AcDbSymbolTableRecord
100
AcDbBlockTableRecord
2
*D3
70
0
280
1
281
0
0
BLOCK_RECORD
5
54
330
1
100
AcDbSymbolTableRecord
100
AcDbBlockTableRecord
2
*D13
70
0
280
1
281
0
0
BLOCK_RECORD
5
57
330
1
100
AcDbSymbolTableRecord
100
AcDbBlockTableRecord
2
*D11
70
0
280
1
281
0
0
BLOCK_RECORD
5
5A
330
1
100
AcDbSymbolTableRecord
100
AcDbBlockTableRecord
2
*D2
70
0
280
1
281
0
0
BLOCK_RECORD
5
5D
330
1
100
AcDbSymbolTableRecord
100
AcDbBlockTableRecord
2
*D16
70
0
280
1
281
0
0
BLOCK_RECORD
5
60
330
1
100
AcDbSymbolTableRecord
100
AcDbBlockTableRecord
2
*D12
70
0
280
1
281
0
0
BLOCK_RECORD
5
63
330
1
100
AcDbSymbolTableRecord
100
AcDbBlockTableRecord
2
*D4
70
0
280
1
281
0
0
BLOCK_RECORD
5
66
330
1
100
AcDbSymbolTableRecord
100
AcDbBlockTableRecord
2
*D7
70
0
280
1
281
0
0
BLOCK_RECORD
5
69
330
1
100
AcDbSymbolTableRecord
100
AcDbBlockTableRecord
2
*D8
70
0
280
1
281
0
0
BLOCK_RECORD
5
6C
330
1
100
AcDbSymbolTableRecord
100
AcDbBlockTableRecord
2
*D14
70
0
280
1
281
0
0
BLOCK_RECORD
5
6F
330
1
100
AcDbSymbolTableRecord
100
AcDbBlockTableRecord
2
*D9
70
0
280
1
281
0
0
BLOCK_RECORD
5
72
330
1
100
AcDbSymbolTableRecord
100
AcDbBlockTableRecord
2
*D10
70
0
280
1
281
0
0
BLOCK_RECORD
5
75
330
1
100
AcDbSymbolTableRecord
100
AcDbBlockTableRecord
2
*D15
70
0
280
1
281
0
0
BLOCK_RECORD
5
78
330
1
100
AcDbSymbolTableRecord
100
AcDbBlockTableRecord
2
*D6
70
0
280
1
281
0
0
ENDTAB
0
ENDSEC
0
SECTION
2
BLOCKS
0
BLOCK
5
20
330
1F
100
AcDbEntity
8
0
100
AcDbBlockBegin
2
*Model_Space
70
0
10
0
20
0
30
0
3
*Model_Space
1

0
ENDBLK
5
21
330
1F
100
AcDbEntity
8
0
100
AcDbBlockEnd
0
BLOCK
5
1C
330
1B
100
AcDbEntity
8
0
100
AcDbBlockBegin
2
*Paper_Space
70
0
10
0
20
0
30
0
3
*Paper_Space
1

0
ENDBLK
5
1D
330
1F
100
AcDbEntity
8
0
100
AcDbBlockEnd
0
BLOCK
5
4C
330
4B
100
AcDbEntity
8
0
100
AcDbBlockBegin
2
*D1
70
1
10
0
20
0
3
*D1
1

0
LINE
5
7B
100
AcDbEntity
8
DIMENSION
6
CONTINUOUS
62
7
370
0
100
AcDbLine
10
79.4
20
155.875
11
79.4
21
124.125
0
SOLID
5
7C
100
AcDbEntity
8
DIMENSION
6
CONTINUOUS
62
7
370
0
100
AcDbTrace
10
79.4
20
155.875
30
0
11
81.3981663573
21
143.875
31
0
12
77.4018336427
22
143.875
32
0
13
77.4018336427
23
143.875
33
0
0
SOLID
5
7D
100
AcDbEntity
8
DIMENSION
6
CONTINUOUS
62
7
370
0
100
AcDbTrace
10
79.4
20
124.125
30
0
11
77.4018336427
21
136.125
31
0
12
81.3981663573
22
136.125
32
0
13
81.3981663573
23
136.125
33
0
0
MTEXT
5
7E
100
AcDbEntity
8
DIMENSION
6
CONTINUOUS
62
7
370
0
100
AcDbMText
10
73.375
20
173.233333333
30
0
40
12
41
34.6666666667
71
5
72
1
1
31.75
7
standard
210
0
220
0
230
1
50
90
73
2
44
1
0
LINE
5
7F
100
AcDbEntity
8
DIMENSION
6
CONTINUOUS
62
7
370
0
100
AcDbLine
10
53.025
20
155.875
11
79.45
21
155.875
0
LINE
5
80
100
AcDbEntity
8
DIMENSION
6
CONTINUOUS
62
7
370
0
100
AcDbLine
10
53.025
20
124.125
11
79.45
21
124.125
0
ENDBLK
5
4D
330
4B
100
AcDbEntity
8
0
100
AcDbBlockEnd
0
BLOCK
5
4F
330
4E
100
AcDbEntity
8
0
100
AcDbBlockBegin
2
*D5
70
1
10
0
20
0
3
*D5
1

0
LINE
5
81
100
AcDbEntity
8
DIMENSION
6
CONTINUOUS
62
7
370
0
100
AcDbLine
10
1037
20
89.2639160156
11
1090
21
89.2639160156
0
SOLID
5
82
100
AcDbEntity
8
DIMENSION
6
CONTINUOUS
62
7
370
0
100
AcDbTrace
10
1037
20
89.2639160156
30
0
11
1049
21
91.2620823729
31
0
12
1049
22
87.2657496583
32
0
13
1049
23
87.2657496583
33
0
0
SOLID
5
83
100
AcDbEntity
8
DIMENSION
6
CONTINUOUS
62
7
370
0
100
AcDbTrace
10
1090
20
89.2639160156
30
0
11
1078
21
87.2657496583
31
0
12
1078
22
91.2620823729
32
0
13
1078
23
91.2620823729
33
0
0
MTEXT
5
84
100
AcDbEntity
8
DIMENSION
6
CONTINUOUS
62
7
370
0
100
AcDbMText
10
1063.5
20
95.2889160156
30
0
40
12
41
14.6666666667
71
5
72
1
1
53
7
standard
210
0
220
0
230
1
50
0
73
2
44
1
0
LINE
5
85
100
AcDbEntity
8
DIMENSION
6
CONTINUOUS
62
7
370
0
100
AcDbLine
10
1037
20
124.1
11
1037
21
89.2139160156
0
LINE
5
86
100
AcDbEntity
8
DIMENSION
6
CONTINUOUS
62
7
370
0
100
AcDbLine
10
1090
20
-0.025
11
1090
21
89.2139160156
0
ENDBLK
5
50
330
4E
100
AcDbEntity
8
0
100
AcDbBlockEnd
0
BLOCK
5
52
330
51
100
AcDbEntity
8
0
100
AcDbBlockBegin
2
*D3
70
1
10
0
20
0
3
*D3
1

0
LINE
5
87
100
AcDbEntity
8
DIMENSION
6
CONTINUOUS
62
7
370
0
100
AcDbLine
10
1017.578125
20
155.875
11
1017.578125
21
124.125
0
SOLID
5
88
100
AcDbEntity
8
DIMENSION
6
CONTINUOUS
62
7
370
0
100
AcDbTrace
10
1017.578125
20
155.875
30
0
11
1019.57629136
21
143.875
31
0
12
1015.57995864
22
143.875
32
0
13
1015.57995864
23
143.875
33
0
0
SOLID
5
89
100
AcDbEntity
8
DIMENSION
6
CONTINUOUS
62
7
370
0
100
AcDbTrace
10
1017.578125
20
124.125
30
0
11
1015.57995864
21
136.125
31
0
12
1019.57629136
22
136.125
32
0
13
1019.57629136
23
136.125
33
0
0
MTEXT
5
8A
100
AcDbEntity
8
DIMENSION
6
CONTINUOUS
62
7
370
0
100
AcDbMText
10
1011.553125
20
173.233333333
30
0
40
12
41
34.6666666667
71
5
72
1
1
31.75
7
standard
210
0
220
0
230
1
50
90
73
2
44
1
0
LINE
5
8B
100
AcDbEntity
8
DIMENSION
6
CONTINUOUS
62
7
370
0
100
AcDbLine
10
1036.975
20
155.875
11
1017.528125
21
155.875
0
LINE
5
8C
100
AcDbEntity
8
DIMENSION
6
CONTINUOUS
62
7
370
0
100
AcDbLine
10
1036.975
20
124.125
11
1017.528125
21
124.125
0
ENDBLK
5
53
330
51
100
AcDbEntity
8
0
100
AcDbBlockEnd
0
BLOCK
5
55
330
54
100
AcDbEntity
8
0
100
AcDbBlockBegin
2
*D13
70
1
10
0
20
0
3
*D13
1

0
LINE
5
8D
100
AcDbEntity
8
DIMENSION
6
CONTINUOUS
62
7
370
0
100
AcDbLine
10
233.5
20
241
11
233.5
21
304
0
SOLID
5
8E
100
AcDbEntity
8
DIMENSION
6
CONTINUOUS
62
7
370
0
100
AcDbTrace
10
233.5
20
265
30
0
11
235.498166357
21
253
31
0
12
231.501833643
22
253
32
0
13
231.501833643
23
253
33
0
0
SOLID
5
8F
100
AcDbEntity
8
DIMENSION
6
CONTINUOUS
62
7
370
0
100
AcDbTrace
10
233.5
20
280
30
0
11
231.501833643
21
292
31
0
12
235.498166357
22
292
32
0
13
235.498166357
23
292
33
0
0
MTEXT
5
90
100
AcDbEntity
8
DIMENSION
6
CONTINUOUS
62
7
370
0
100
AcDbMText
10
227.475
20
272.5
30
0
40
12
41
12
71
5
72
1
1
15
7
standard
210
0
220
0
230
1
50
90
73
2
44
1
0
LINE
5
91
100
AcDbEntity
8
DIMENSION
6
CONTINUOUS
62
7
370
0
100
AcDbLine
10
247.475
20
265
11
233.45
21
265
0
LINE
5
92
100
AcDbEntity
8
DIMENSION
6
CONTINUOUS
62
7
370
0
100
AcDbLine
10
1.5625
20
280
11
233.45
21
280
0
ENDBLK
5
56
330
54
100
AcDbEntity
8
0
100
AcDbBlockEnd
0
BLOCK
5
58
330
57
100
AcDbEntity
8
0
100
AcDbBlockBegin
2
*D11
70
1
10
0
20
0
3
*D11
1

0
LINE
5
93
100
AcDbEntity
8
DIMENSION
6
CONTINUOUS
62
7
370
0
100
AcDbLine
10
-12
20
182.75
11
42
21
182.75
0
SOLID
5
94
100
AcDbEntity
8
DIMENSION
6
CONTINUOUS
62
7
370
0
100
AcDbTrace
10
12
20
182.75
30
0
11
0
21
180.751833643
31
0
12
0
22
184.748166357
32
0
13
0
23
184.748166357
33
0
0
SOLID
5
95
100
AcDbEntity
8
DIMENSION
6
CONTINUOUS
62
7
370
0
100
AcDbTrace
10
18
20
182.75
30
0
11
30
21
184.748166357
31
0
12
30
22
180.751833643
32
0
13
30
23
180.751833643
33
0
0
MTEXT
5
96
100
AcDbEntity
8
DIMENSION
6
CONTINUOUS
62
7
370
0
100
AcDbMText
10
15
20
188.775
30
0
40
12
41
5.33333333333
71
5
72
1
1
6
7
standard
210
0
220
0
230
1
50
0
73
2
44
1
0
LINE
5
97
100
AcDbEntity
8
DIMENSION
6
CONTINUOUS
62
7
370
0
100
AcDbLine
10
12
20
165.025
11
12
21
182.8
0
LINE
5
98
100
AcDbEntity
8
DIMENSION
6
CONTINUOUS
62
7
370
0
100
AcDbLine
10
18
20
165.025
11
18
21
182.8
0
ENDBLK
5
59
330
57
100
AcDbEntity
8
0
100
AcDbBlockEnd
0
BLOCK
5
5B
330
5A
100
AcDbEntity
8
0
100
AcDbBlockBegin
2
*D2
70
1
10
0
20
0
3
*D2
1

0
LINE
5
99
100
AcDbEntity
8
DIMENSION
6
CONTINUOUS
62
7
370
0
100
AcDbLine
10
529.125
20
209.664
11
560.875
21
209.664
0
SOLID
5
9A
100
AcDbEntity
8
DIMENSION
6
CONTINUOUS
62
7
370
0
100
AcDbTrace
10
529.125
20
209.664
30
0
11
541.125
21
211.662166357
31
0
12
541.125
22
207.665833643
32
0
13
541.125
23
207.665833643
33
0
0
SOLID
5
9B
100
AcDbEntity
8
DIMENSION
6
CONTINUOUS
62
7
370
0
100
AcDbTrace
10
560.875
20
209.664
30
0
11
548.875
21
207.665833643
31
0
12
548.875
22
211.662166357
32
0
13
548.875
23
211.662166357
33
0
0
MTEXT
5
9C
100
AcDbEntity
8
DIMENSION
6
CONTINUOUS
62
7
370
0
100
AcDbMText
10
578.233333333
20
215.689
30
0
40
12
41
34.6666666667
71
5
72
1
1
31.75
7
standard
210
0
220
0
230
1
50
0
73
2
44
1
0
LINE
5
9D
100
AcDbEntity
8
DIMENSION
6
CONTINUOUS
62
7
370
0
100
AcDbLine
10
529.125
20
226.975
11
529.125
21
209.614
0
LINE
5
9E
100
AcDbEntity
8
DIMENSION
6
CONTINUOUS
62
7
370
0
100
AcDbLine
10
560.875
20
226.975
11
560.875
21
209.614
0
ENDBLK
5
5C
330
5A
100
AcDbEntity
8
0
100
AcDbBlockEnd
0
BLOCK
5
5E
330
5D
100
AcDbEntity
8
0
100
AcDbBlockBegin
2
*D16
70
1
10
0
20
0
3
*D16
1

0
LINE
5
9F
100
AcDbEntity
8
DIMENSION
6
CONTINUOUS
62
7
370
0
100
AcDbLine
10
1051
20
64.8
11
1114
21
64.8
0
SOLID
5
A0
100
AcDbEntity
8
DIMENSION
6
CONTINUOUS
62
7
370
0
100
AcDbTrace
10
1075
20
64.8
30
0
11
1063
21
62.8018336427
31
0
12
1063
22
66.7981663573
32
0
13
1063
23
66.7981663573
33
0
0
SOLID
5
A1
100
AcDbEntity
8
DIMENSION
6
CONTINUOUS
62
7
370
0
100
AcDbTrace
10
1090
20
64.8
30
0
11
1102
21
66.7981663573
31
0
12
1102
22
62.8018336427
32
0
13
1102
23
62.8018336427
33
0
0
MTEXT
5
A2
100
AcDbEntity
8
DIMENSION
6
CONTINUOUS
62
7
370
0
100
AcDbMText
10
1082.5
20
70.825
30
0
40
12
41
12
71
5
72
1
1
15
7
standard
210
0
220
0
230
1
50
0
73
2
44
1
0
LINE
5
A3
100
AcDbEntity
8
DIMENSION
6
CONTINUOUS
62
7
370
0
100
AcDbLine
10
1075
20
114.975
11
1075
21
64.75
0
LINE
5
A4
100
AcDbEntity
8
DIMENSION
6
CONTINUOUS
62
7
370
0
100
AcDbLine
10
1090
20
1.5625
11
1090
21
64.75
0
ENDBLK
5
5F
330
5D
100
AcDbEntity
8
0
100
AcDbBlockEnd
0
BLOCK
5
61
330
60
100
AcDbEntity
8
0
100
AcDbBlockBegin
2
*D12
70
1
10
0
20
0
3
*D12
1

0
LINE
5
A5
100
AcDbEntity
8
DIMENSION
6
CONTINUOUS
62
7
370
0
100
AcDbLine
10
1048
20
177.5
11
1102
21
177.5
0
SOLID
5
A6
100
AcDbEntity
8
DIMENSION
6
CONTINUOUS
62
7
370
0
100
AcDbTrace
10
1072
20
177.5
30
0
11
1060
21
175.501833643
31
0
12
1060
22
179.498166357
32
0
13
1060
23
179.498166357
33
0
0
SOLID
5
A7
100
AcDbEntity
8
DIMENSION
6
CONTINUOUS
62
7
370
0
100
AcDbTrace
10
1078
20
177.5
30
0
11
1090
21
179.498166357
31
0
12
1090
22
175.501833643
32
0
13
1090
23
175.501833643
33
0
0
MTEXT
5
A8
100
AcDbEntity
8
DIMENSION
6
CONTINUOUS
62
7
370
0
100
AcDbMText
10
1075
20
183.525
30
0
40
12
41
5.33333333333
71
5
72
1
1
6
7
standard
210
0
220
0
230
1
50
0
73
2
44
1
0
LINE
5
A9
100
AcDbEntity
8
DIMENSION
6
CONTINUOUS
62
7
370
0
100
AcDbLine
10
1072
20
165.025
11
1072
21
177.55
0
LINE
5
AA
100
AcDbEntity
8
DIMENSION
6
CONTINUOUS
62
7
370
0
100
AcDbLine
10
1078
20
165.025
11
1078
21
177.55
0
ENDBLK
5
62
330
60
100
AcDbEntity
8
0
100
AcDbBlockEnd
0
BLOCK
5
64
330
63
100
AcDbEntity
8
0
100
AcDbBlockBegin
2
*D4
70
1
10
0
20
0
3
*D4
1

0
LINE
5
AB
100
AcDbEntity
8
DIMENSION
6
CONTINUOUS
62
7
370
0
100
AcDbLine
10
53
20
98.876953125
11
0
21
98.876953125
0
SOLID
5
AC
100
AcDbEntity
8
DIMENSION
6
CONTINUOUS
62
7
370
0
100
AcDbTrace
10
53
20
98.876953125
30
0
11
41
21
96.8787867677
31
0
12
41
22
100.875119482
32
0
13
41
23
100.875119482
33
0
0
SOLID
5
AD
100
AcDbEntity
8
DIMENSION
6
CONTINUOUS
62
7
370
0
100
AcDbTrace
10
0
20
98.876953125
30
0
11
12
21
100.875119482
31
0
12
12
22
96.8787867677
32
0
13
12
23
96.8787867677
33
0
0
MTEXT
5
AE
100
AcDbEntity
8
DIMENSION
6
CONTINUOUS
62
7
370
0
100
AcDbMText
10
26.5
20
104.901953125
30
0
40
12
41
14.6666666667
71
5
72
1
1
53
7
standard
210
0
220
0
230
1
50
360
73
2
44
1
0
LINE
5
AF
100
AcDbEntity
8
DIMENSION
6
CONTINUOUS
62
7
370
0
100
AcDbLine
10
53
20
124.1
11
53
21
98.826953125
0
LINE
5
B0
100
AcDbEntity
8
DIMENSION
6
CONTINUOUS
62
7
370
0
100
AcDbLine
10
-4.5924254968e-18
20
-0.025
11
-9.18485099361e-18
21
98.826953125
0
ENDBLK
5
65
330
63
100
AcDbEntity
8
0
100
AcDbBlockEnd
0
BLOCK
5
67
330
66
100
AcDbEntity
8
0
100
AcDbBlockBegin
2
*D7
70
1
10
0
20
0
3
*D7
1

0
LINE
5
B1
100
AcDbEntity
8
DIMENSION
6
CONTINUOUS
62
7
370
0
100
AcDbLine
10
0
20
-57.2204589844
11
1090
21
-57.2204589844
0
SOLID
5
B2
100
AcDbEntity
8
DIMENSION
6
CONTINUOUS
62
7
370
0
100
AcDbTrace
10
0
20
-57.2204589844
30
0
11
12
21
-55.2222926271
31
0
12
12
22
-59.2186253417
32
0
13
12
23
-59.2186253417
33
0
0
SOLID
5
B3
100
AcDbEntity
8
DIMENSION
6
CONTINUOUS
62
7
370
0
100
AcDbTrace
10
1090
20
-57.2204589844
30
0
11
1078
21
-59.2186253417
31
0
12
1078
22
-55.2222926271
32
0
13
1078
23
-55.2222926271
33
0
0
MTEXT
5
B4
100
AcDbEntity
8
DIMENSION
6
CONTINUOUS
62
7
370
0
100
AcDbMText
10
545
20
-51.1954589844
30
0
40
12
41
30.6666666667
71
5
72
1
1
1090
7
standard
210
0
220
0
230
1
50
0
73
2
44
1
0
LINE
5
B5
100
AcDbEntity
8
DIMENSION
6
CONTINUOUS
62
7
370
0
100
AcDbLine
10
-4.5924254968e-18
20
-0.025
11
-9.18485099361e-18
21
-57.2704589844
0
LINE
5
B6
100
AcDbEntity
8
DIMENSION
6
CONTINUOUS
62
7
370
0
100
AcDbLine
10
1090
20
-0.025
11
1090
21
-57.2704589844
0
ENDBLK
5
68
330
66
100
AcDbEntity
8
0
100
AcDbBlockEnd
0
BLOCK
5
6A
330
69
100
AcDbEntity
8
0
100
AcDbBlockBegin
2
*D8
70
1
10
0
20
0
3
*D8
1

0
LINE
5
B7
100
AcDbEntity
8
DIMENSION
6
CONTINUOUS
62
7
370
0
100
AcDbLine
10
-82.3974609375
20
280
11
-82.3974609375
21
0
0
SOLID
5
B8
100
AcDbEntity
8
DIMENSION
6
CONTINUOUS
62
7
370
0
100
AcDbTrace
10
-82.3974609375
20
280
30
0
11
-80.3992945802
21
268
31
0
12
-84.3956272948
22
268
32
0
13
-84.3956272948
23
268
33
0
0
SOLID
5
B9
100
AcDbEntity
8
DIMENSION
6
CONTINUOUS
62
7
370
0
100
AcDbTrace
10
-82.3974609375
20
0
30
0
11
-84.3956272948
21
12
31
0
12
-80.3992945802
22
12
32
0
13
-80.3992945802
23
12
33
0
0
MTEXT
5
BA
100
AcDbEntity
8
DIMENSION
6
CONTINUOUS
62
7
370
0
100
AcDbMText
10
-88.4224609375
20
140
30
0
40
12
41
24
71
5
72
1
1
280
7
standard
210
0
220
0
230
1
50
90
73
2
44
1
0
LINE
5
BB
100
AcDbEntity
8
DIMENSION
6
CONTINUOUS
62
7
370
0
100
AcDbLine
10
-0.025
20
280
11
-82.4474609375
21
280
0
LINE
5
BC
100
AcDbEntity
8
DIMENSION
6
CONTINUOUS
62
7
370
0
100
AcDbLine
10
-0.025
20
3.06161699787e-18
11
-82.4474609375
21
6.12323399574e-18
0
ENDBLK
5
6B
330
69
100
AcDbEntity
8
0
100
AcDbBlockEnd
0
BLOCK
5
6D
330
6C
100
AcDbEntity
8
0
100
AcDbBlockBegin
2
*D14
70
1
10
0
20
0
3
*D14
1

0
LINE
5
BD
100
AcDbEntity
8
DIMENSION
6
CONTINUOUS
62
7
370
0
100
AcDbLine
10
862.109375
20
241
11
862.109375
21
304
0
SOLID
5
BE
100
AcDbEntity
8
DIMENSION
6
CONTINUOUS
62
7
370
0
100
AcDbTrace
10
862.109375
20
265
30
0
11
864.107541357
21
253
31
0
12
860.111208643
22
253
32
0
13
860.111208643
23
253
33
0
0
SOLID
5
BF
100
AcDbEntity
8
DIMENSION
6
CONTINUOUS
62
7
370
0
100
AcDbTrace
10
862.109375
20
280
30
0
11
860.111208643
21
292
31
0
12
864.107541357
22
292
32
0
13
864.107541357
23
292
33
0
0
MTEXT
5
C0
100
AcDbEntity
8
DIMENSION
6
CONTINUOUS
62
7
370
0
100
AcDbMText
10
856.084375
20
272.5
30
0
40
12
41
12
71
5
72
1
1
15
7
standard
210
0
220
0
230
1
50
90
73
2
44
1
0
LINE
5
C1
100
AcDbEntity
8
DIMENSION
6
CONTINUOUS
62
7
370
0
100
AcDbLine
10
842.525
20
265
11
862.159375
21
265
0
LINE
5
C2
100
AcDbEntity
8
DIMENSION
6
CONTINUOUS
62
7
370
0
100
AcDbLine
10
1088.4375
20
280
11
862.159375
21
280
0
ENDBLK
5
6E
330
6C
100
AcDbEntity
8
0
100
AcDbBlockEnd
0
BLOCK
5
70
330
6F
100
AcDbEntity
8
0
100
AcDbBlockBegin
2
*D9
70
1
10
0
20
0
3
*D9
1

0
LINE
5
C3
100
AcDbEntity
8
DIMENSION
6
CONTINUOUS
62
7
370
0
100
AcDbLine
10
318.88
20
292
11
318.88
21
238
0
SOLID
5
C4
100
AcDbEntity
8
DIMENSION
6
CONTINUOUS
62
7
370
0
100
AcDbTrace
10
318.88
20
268
30
0
11
316.881833643
21
280
31
0
12
320.878166357
22
280
32
0
13
320.878166357
23
280
33
0
0
SOLID
5
C5
100
AcDbEntity
8
DIMENSION
6
CONTINUOUS
62
7
370
0
100
AcDbTrace
10
318.88
20
262
30
0
11
320.878166357
21
250
31
0
12
316.881833643
22
250
32
0
13
316.881833643
23
250
33
0
0
MTEXT
5
C6
100
AcDbEntity
8
DIMENSION
6
CONTINUOUS
62
7
370
0
100
AcDbMText
10
312.855
20
265
30
0
40
12
41
5.33333333333
71
5
72
1
1
6
7
standard
210
0
220
0
230
1
50
90
73
2
44
1
0
LINE
5
C7
100
AcDbEntity
8
DIMENSION
6
CONTINUOUS
62
7
370
0
100
AcDbLine
10
297.525
20
268
11
318.93
21
268
0
LINE
5
C8
100
AcDbEntity
8
DIMENSION
6
CONTINUOUS
62
7
370
0
100
AcDbLine
10
297.525
20
262
11
318.93
21
262
0
ENDBLK
5
71
330
6F
100
AcDbEntity
8
0
100
AcDbBlockEnd
0
BLOCK
5
73
330
72
100
AcDbEntity
8
0
100
AcDbBlockBegin
2
*D10
70
1
10
0
20
0
3
*D10
1

0
LINE
5
C9
100
AcDbEntity
8
DIMENSION
6
CONTINUOUS
62
7
370
0
100
AcDbLine
10
775.8
20
292
11
775.8
21
238
0
SOLID
5
CA
100
AcDbEntity
8
DIMENSION
6
CONTINUOUS
62
7
370
0
100
AcDbTrace
10
775.8
20
268
30
0
11
773.801833643
21
280
31
0
12
777.798166357
22
280
32
0
13
777.798166357
23
280
33
0
0
SOLID
5
CB
100
AcDbEntity
8
DIMENSION
6
CONTINUOUS
62
7
370
0
100
AcDbTrace
10
775.8
20
262
30
0
11
777.798166357
21
250
31
0
12
773.801833643
22
250
32
0
13
773.801833643
23
250
33
0
0
MTEXT
5
CC
100
AcDbEntity
8
DIMENSION
6
CONTINUOUS
62
7
370
0
100
AcDbMText
10
769.775
20
265
30
0
40
12
41
5.33333333333
71
5
72
1
1
6
7
standard
210
0
220
0
230
1
50
90
73
2
44
1
0
LINE
5
CD
100
AcDbEntity
8
DIMENSION
6
CONTINUOUS
62
7
370
0
100
AcDbLine
10
792.475
20
268
11
775.75
21
268
0
LINE
5
CE
100
AcDbEntity
8
DIMENSION
6
CONTINUOUS
62
7
370
0
100
AcDbLine
10
792.475
20
262
11
775.75
21
262
0
ENDBLK
5
74
330
72
100
AcDbEntity
8
0
100
AcDbBlockEnd
0
BLOCK
5
76
330
75
100
AcDbEntity
8
0
100
AcDbBlockBegin
2
*D15
70
1
10
0
20
0
3
*D15
1

0
LINE
5
CF
100
AcDbEntity
8
DIMENSION
6
CONTINUOUS
62
7
370
0
100
AcDbLine
10
39
20
77.1484375
11
-24
21
77.1484375
0
SOLID
5
D0
100
AcDbEntity
8
DIMENSION
6
CONTINUOUS
62
7
370
0
100
AcDbTrace
10
15
20
77.1484375
30
0
11
27
21
79.1466038573
31
0
12
27
22
75.1502711427
32
0
13
27
23
75.1502711427
33
0
0
SOLID
5
D1
100
AcDbEntity
8
DIMENSION
6
CONTINUOUS
62
7
370
0
100
AcDbTrace
10
0
20
77.1484375
30
0
11
-12
21
75.1502711427
31
0
12
-12
22
79.1466038573
32
0
13
-12
23
79.1466038573
33
0
0
MTEXT
5
D2
100
AcDbEntity
8
DIMENSION
6
CONTINUOUS
62
7
370
0
100
AcDbMText
10
7.5
20
83.1734375
30
0
40
12
41
12
71
5
72
1
1
15
7
standard
210
0
220
0
230
1
50
360
73
2
44
1
0
LINE
5
D3
100
AcDbEntity
8
DIMENSION
6
CONTINUOUS
62
7
370
0
100
AcDbLine
10
15
20
114.975
11
15
21
77.0984375
0
LINE
5
D4
100
AcDbEntity
8
DIMENSION
6
CONTINUOUS
62
7
370
0
100
AcDbLine
10
-4.5924254968e-18
20
1.5625
11
-9.18485099361e-18
21
77.0984375
0
ENDBLK
5
77
330
75
100
AcDbEntity
8
0
100
AcDbBlockEnd
0
BLOCK
5
79
330
78
100
AcDbEntity
8
0
100
AcDbBlockBegin
2
*D6
70
1
10
0
20
0
3
*D6
1

0
LINE
5
D5
100
AcDbEntity
8
DIMENSION
6
CONTINUOUS
62
7
370
0
100
AcDbLine
10
594.5
20
227
11
594.5
21
280
0
SOLID
5
D6
100
AcDbEntity
8
DIMENSION
6
CONTINUOUS
62
7
370
0
100
AcDbTrace
10
594.5
20
227
30
0
11
592.501833643
21
239
31
0
12
596.498166357
22
239
32
0
13
596.498166357
23
239
33
0
0
SOLID
5
D7
100
AcDbEntity
8
DIMENSION
6
CONTINUOUS
62
7
370
0
100
AcDbTrace
10
594.5
20
280
30
0
11
596.498166357
21
268
31
0
12
592.501833643
22
268
32
0
13
592.501833643
23
268
33
0
0
MTEXT
5
D8
100
AcDbEntity
8
DIMENSION
6
CONTINUOUS
62
7
370
0
100
AcDbMText
10
588.475
20
253.5
30
0
40
12
41
14.6666666667
71
5
72
1
1
53
7
standard
210
0
220
0
230
1
50
90
73
2
44
1
0
LINE
5
D9
100
AcDbEntity
8
DIMENSION
6
CONTINUOUS
62
7
370
0
100
AcDbLine
10
560.9
20
227
11
594.55
21
227
0
LINE
5
DA
100
AcDbEntity
8
DIMENSION
6
CONTINUOUS
62
7
370
0
100
AcDbLine
10
1090.025
20
280
11
594.55
21
280
0
ENDBLK
5
7A
330
78
100
AcDbEntity
8
0
100
AcDbBlockEnd
0
ENDSEC
0
SECTION
2
ENTITIES
0
LINE
5
DB
100
AcDbEntity
8
REFERENCE
6
ByLayer
62
256
370
-1
100
AcDbLine
10
15
20
115
11
15
21
165
0
LINE
5
DC
100
AcDbEntity
8
REFERENCE
6
ByLayer
62
256
370
-1
100
AcDbLine
10
1075
20
115
11
1075
21
165
0
LINE
5
DD
100
AcDbEntity
8
REFERENCE
6
ByLayer
62
256
370
-1
100
AcDbLine
10
247.5
20
265
11
297.5
21
265
0
LINE
5
DE
100
AcDbEntity
8
REFERENCE
6
ByLayer
62
256
370
-1
100
AcDbLine
10
842.5
20
265
11
792.5
21
265
0
LINE
5
DF
100
AcDbEntity
8
ALIGNMENT_POCKET
6
ByLayer
62
256
370
-1
100
AcDbLine
10
18
20
165
11
12
21
165
0
LINE
5
E0
100
AcDbEntity
8
ALIGNMENT_POCKET
6
ByLayer
62
256
370
-1
100
AcDbLine
10
12
20
165
11
12
21
115
0
LINE
5
E1
100
AcDbEntity
8
ALIGNMENT_POCKET
6
ByLayer
62
256
370
-1
100
AcDbLine
10
12
20
115
11
18
21
115
0
LINE
5
E2
100
AcDbEntity
8
ALIGNMENT_POCKET
6
ByLayer
62
256
370
-1
100
AcDbLine
10
18
20
115
11
18
21
165
0
LINE
5
E3
100
AcDbEntity
8
ALIGNMENT_POCKET
6
ByLayer
62
256
370
-1
100
AcDbLine
10
247.5
20
268
11
297.5
21
268
0
LINE
5
E4
100
AcDbEntity
8
ALIGNMENT_POCKET
6
ByLayer
62
256
370
-1
100
AcDbLine
10
297.5
20
268
11
297.5
21
262
0
LINE
5
E5
100
AcDbEntity
8
ALIGNMENT_POCKET
6
ByLayer
62
256
370
-1
100
AcDbLine
10
297.5
20
262
11
247.5
21
262
0
LINE
5
E6
100
AcDbEntity
8
ALIGNMENT_POCKET
6
ByLayer
62
256
370
-1
100
AcDbLine
10
247.5
20
262
11
247.5
21
268
0
LINE
5
E7
100
AcDbEntity
8
ALIGNMENT_POCKET
6
ByLayer
62
256
370
-1
100
AcDbLine
10
792.5
20
268
11
842.5
21
268
0
LINE
5
E8
100
AcDbEntity
8
ALIGNMENT_POCKET
6
ByLayer
62
256
370
-1
100
AcDbLine
10
842.5
20
268
11
842.5
21
262
0
LINE
5
E9
100
AcDbEntity
8
ALIGNMENT_POCKET
6
ByLayer
62
256
370
-1
100
AcDbLine
10
842.5
20
262
11
792.5
21
262
0
LINE
5
EA
100
AcDbEntity
8
ALIGNMENT_POCKET
6
ByLayer
62
256
370
-1
100
AcDbLine
10
792.5
20
262
11
792.5
21
268
0
LINE
5
EB
100
AcDbEntity
8
ALIGNMENT_POCKET
6
ByLayer
62
256
370
-1
100
AcDbLine
10
1078
20
165
11
1072
21
165
0
LINE
5
EC
100
AcDbEntity
8
ALIGNMENT_POCKET
6
ByLayer
62
256
370
-1
100
AcDbLine
10
1072
20
165
11
1072
21
115
0
LINE
5
ED
100
AcDbEntity
8
ALIGNMENT_POCKET
6
ByLayer
62
256
370
-1
100
AcDbLine
10
1072
20
115
11
1078
21
115
0
LINE
5
EE
100
AcDbEntity
8
ALIGNMENT_POCKET
6
ByLayer
62
256
370
-1
100
AcDbLine
10
1078
20
115
11
1078
21
165
0
LINE
5
EF
100
AcDbEntity
8
REFERENCE
6
ByLayer
62
256
370
-1
100
AcDbLine
10
53
20
124.125
11
53
21
155.875
0
LINE
5
F0
100
AcDbEntity
8
REFERENCE
6
ByLayer
62
256
370
-1
100
AcDbLine
10
1037
20
124.125
11
1037
21
155.875
0
LINE
5
F1
100
AcDbEntity
8
REFERENCE
6
ByLayer
62
256
370
-1
100
AcDbLine
10
529.125
20
227
11
560.875
21
227
0
CIRCLE
5
F2
100
AcDbEntity
8
6-32_TAP_HOLE
6
ByLayer
62
256
370
-1
100
AcDbCircle
10
53
20
155.875
40
1.35255
0
CIRCLE
5
F3
100
AcDbEntity
8
6-32_TAP_HOLE
6
ByLayer
62
256
370
-1
100
AcDbCircle
10
53
20
124.125
40
1.35255
0
CIRCLE
5
F4
100
AcDbEntity
8
6-32_TAP_HOLE
6
ByLayer
62
256
370
-1
100
AcDbCircle
10
529.125
20
227
40
1.35255
0
CIRCLE
5
F5
100
AcDbEntity
8
6-32_TAP_HOLE
6
ByLayer
62
256
370
-1
100
AcDbCircle
10
560.875
20
227
40
1.35255
0
CIRCLE
5
F6
100
AcDbEntity
8
6-32_TAP_HOLE
6
ByLayer
62
256
370
-1
100
AcDbCircle
10
1037
20
155.875
40
1.35255
0
CIRCLE
5
F7
100
AcDbEntity
8
6-32_TAP_HOLE
6
ByLayer
62
256
370
-1
100
AcDbCircle
10
1037
20
124.125
40
1.35255
0
DIMENSION
5
F8
100
AcDbEntity
8
DIMENSION
6
ByLayer
62
256
370
-1
100
AcDbDimension
2
*D1
10
79.4
20
124.125
30
0
11
73.375
21
140
31
0
70
32
71
5
3
Standard
53
0
210
0
220
0
230
1
100
AcDbAlignedDimension
13
53
23
155.875
33
0
14
53
24
124.125
34
0
50
90
100
AcDbRotatedDimension
0
DIMENSION
5
F9
100
AcDbEntity
8
DIMENSION
6
ByLayer
62
256
370
-1
100
AcDbDimension
2
*D2
10
560.875
20
209.664
30
0
11
545
21
215.689
31
0
70
32
71
5
3
Standard
53
0
210
0
220
0
230
1
100
AcDbAlignedDimension
13
529.125
23
227
33
0
14
560.875
24
227
34
0
100
AcDbRotatedDimension
0
DIMENSION
5
FA
100
AcDbEntity
8
DIMENSION
6
ByLayer
62
256
370
-1
100
AcDbDimension
2
*D3
10
1017.578125
20
124.125
30
0
11
1011.553125
21
140
31
0
70
32
71
5
3
Standard
53
0
210
0
220
0
230
1
100
AcDbAlignedDimension
13
1037
23
155.875
33
0
14
1037
24
124.125
34
0
50
90
100
AcDbRotatedDimension
0
DIMENSION
5
FB
100
AcDbEntity
8
DIMENSION
6
ByLayer
62
256
370
-1
100
AcDbDimension
2
*D4
10
6.0544672077e-15
20
98.876953125
30
0
11
26.5
21
104.901953125
31
0
70
32
71
5
3
Standard
53
0
210
0
220
0
230
1
100
AcDbAlignedDimension
13
53
23
124.125
33
0
14
0
24
0
34
0
100
AcDbRotatedDimension
0
DIMENSION
5
FC
100
AcDbEntity
8
DIMENSION
6
ByLayer
62
256
370
-1
100
AcDbDimension
2
*D5
10
1090
20
89.2639160156
30
0
11
1063.5
21
95.2889160156
31
0
70
32
71
5
3
Standard
53
0
210
0
220
0
230
1
100
AcDbAlignedDimension
13
1037
23
124.125
33
0
14
1090
24
0
34
0
100
AcDbRotatedDimension
0
DIMENSION
5
FD
100
AcDbEntity
8
DIMENSION
6
ByLayer
62
256
370
-1
100
AcDbDimension
2
*D6
10
594.5
20
280
30
0
11
588.475
21
253.5
31
0
70
32
71
5
3
Standard
53
0
210
0
220
0
230
1
100
AcDbAlignedDimension
13
560.875
23
227
33
0
14
1090
24
280
34
0
50
90
100
AcDbRotatedDimension
0
DIMENSION
5
FE
100
AcDbEntity
8
DIMENSION
6
ByLayer
62
256
370
-1
100
AcDbDimension
2
*D7
10
1090
20
-57.2204589844
30
0
11
545
21
-51.1954589844
31
0
70
32
71
5
3
Standard
53
0
210
0
220
0
230
1
100
AcDbAlignedDimension
13
0
23
0
33
0
14
1090
24
0
34
0
100
AcDbRotatedDimension
0
DIMENSION
5
FF
100
AcDbEntity
8
DIMENSION
6
ByLayer
62
256
370
-1
100
AcDbDimension
2
*D8
10
-82.3974609375
20
1.00907786795e-14
30
0
11
-88.4224609375
21
140
31
0
70
32
71
5
3
Standard
53
0
210
0
220
0
230
1
100
AcDbAlignedDimension
13
0
23
280
33
0
14
0
24
0
34
0
50
90
100
AcDbRotatedDimension
0
DIMENSION
5
100
100
AcDbEntity
8
DIMENSION
6
ByLayer
62
256
370
-1
100
AcDbDimension
2
*D9
10
318.88
20
262
30
0
11
312.855
21
265
31
0
70
32
71
5
3
Standard
53
0
210
0
220
0
230
1
100
AcDbAlignedDimension
13
297.5
23
268
33
0
14
297.5
24
262
34
0
50
90
100
AcDbRotatedDimension
0
DIMENSION
5
101
100
AcDbEntity
8
DIMENSION
6
ByLayer
62
256
370
-1
100
AcDbDimension
2
*D10
10
775.8
20
262
30
0
11
769.775
21
265
31
0
70
32
71
5
3
Standard
53
0
210
0
220
0
230
1
100
AcDbAlignedDimension
13
792.5
23
268
33
0
14
792.5
24
262
34
0
50
90
100
AcDbRotatedDimension
0
DIMENSION
5
102
100
AcDbEntity
8
DIMENSION
6
ByLayer
62
256
370
-1
100
AcDbDimension
2
*D11
10
18
20
182.75
30
0
11
15
21
188.775
31
0
70
32
71
5
3
Standard
53
0
210
0
220
0
230
1
100
AcDbAlignedDimension
13
12
23
165
33
0
14
18
24
165
34
0
100
AcDbRotatedDimension
0
DIMENSION
5
103
100
AcDbEntity
8
DIMENSION
6
ByLayer
62
256
370
-1
100
AcDbDimension
2
*D12
10
1078
20
177.5
30
0
11
1075
21
183.525
31
0
70
32
71
5
3
Standard
53
0
210
0
220
0
230
1
100
AcDbAlignedDimension
13
1072
23
165
33
0
14
1078
24
165
34
0
100
AcDbRotatedDimension
0
ARC
5
104
100
AcDbEntity
8
OUTER_BOUNDARY
6
ByLayer
62
256
370
-1
100
AcDbCircle
10
1.5875
20
278.4125
40
1.5875
100
AcDbArc
50
90
51
180
0
ARC
5
105
100
AcDbEntity
8
OUTER_BOUNDARY
6
ByLayer
62
256
370
-1
100
AcDbCircle
10
1088.4125
20
1.5875
40
1.5875
100
AcDbArc
50
270
51
0
0
LINE
5
106
100
AcDbEntity
8
OUTER_BOUNDARY
6
ByLayer
62
256
370
-1
100
AcDbLine
10
1088.4125
20
280
11
1.5875
21
280
0
LINE
5
107
100
AcDbEntity
8
OUTER_BOUNDARY
6
ByLayer
62
256
370
-1
100
AcDbLine
10
1090
20
1.5875
11
1090
21
278.4125
0
ARC
5
108
100
AcDbEntity
8
OUTER_BOUNDARY
6
ByLayer
62
256
370
-1
100
AcDbCircle
10
1088.4125
20
278.4125
40
1.5875
100
AcDbArc
50
0
51
90
0
LINE
5
109
100
AcDbEntity
8
OUTER_BOUNDARY
6
ByLayer
62
256
370
-1
100
AcDbLine
10
1.5875
20
0
11
1088.4125
21
0
0
LINE
5
10A
100
AcDbEntity
8
OUTER_BOUNDARY
6
ByLayer
62
256
370
-1
100
AcDbLine
10
0
20
278.4125
11
0
21
1.5875
0
ARC
5
10B
100
AcDbEntity
8
OUTER_BOUNDARY
6
ByLayer
62
256
370
-1
100
AcDbCircle
10
1.5875
20
1.5875
40
1.5875
100
AcDbArc
50
180
51
270
0
DIMENSION
5
10C
100
AcDbEntity
8
DIMENSION
6
ByLayer
62
256
370
-1
100
AcDbDimension
2
*D13
10
233.5
20
280
30
0
11
227.475
21
272.5
31
0
70
32
71
5
3
Standard
53
0
210
0
220
0
230
1
100
AcDbAlignedDimension
13
247.5
23
265
33
0
14
1.5875
24
280
34
0
50
90
100
AcDbRotatedDimension
0
DIMENSION
5
10D
100
AcDbEntity
8
DIMENSION
6
ByLayer
62
256
370
-1
100
AcDbDimension
2
*D14
10
862.109375
20
280
30
0
11
856.084375
21
272.5
31
0
70
32
71
5
3
Standard
53
0
210
0
220
0
230
1
100
AcDbAlignedDimension
13
842.5
23
265
33
0
14
1088.4125
24
280
34
0
50
90
100
AcDbRotatedDimension
0
DIMENSION
5
10E
100
AcDbEntity
8
DIMENSION
6
ByLayer
62
256
370
-1
100
AcDbDimension
2
*D15
10
4.6267730125e-15
20
77.1484375
30
0
11
7.5
21
83.1734375
31
0
70
32
71
5
3
Standard
53
0
210
0
220
0
230
1
100
AcDbAlignedDimension
13
15
23
115
33
0
14
0
24
1.5875
34
0
100
AcDbRotatedDimension
0
DIMENSION
5
10F
100
AcDbEntity
8
DIMENSION
6
ByLayer
62
256
370
-1
100
AcDbDimension
2
*D16
10
1090
20
64.8
30
0
11
1082.5
21
70.825
31
0
70
32
71
5
3
Standard
53
0
210
0
220
0
230
1
100
AcDbAlignedDimension
13
1075
23
115
33
0
14
1090
24
1.5875
34
0
100
AcDbRotatedDimension
0
ENDSEC
0
SECTION
2
OBJECTS
0
DICTIONARY
5
C
330
0
100
AcDbDictionary
281
1
3
ACAD_GROUP
350
D
0
DICTIONARY
5
D
330
C
100
AcDbDictionary
281
1
0
ENDSEC
0
EOF
