999
dxfrw 0.5.11
0
SECTION
2
HEADER
9
$ACADVER
1
AC1021
9
$HANDSEED
5
20000
9
$DWGCODEPAGE
3
ANSI_1252
9
$INSBASE
10
0
20
0
30
0
9
$EXTMIN
10
-12.3820423228
20
-1.45106299213
30
0
9
$EXTMAX
10
12.2740677209
20
12.3820423228
30
0
9
$LIMMIN
10
0
20
0
9
$LIMMAX
10
420
20
297
9
$ORTHOMODE
70
0
9
$LTSCALE
40
1
9
$TEXTSTYLE
7
STANDARD
9
$CLAYER
8
REFERENCE
9
$DIMASZ
40
1
9
$DIMLFAC
40
1
9
$DIMSCALE
40
0.2
9
$DIMEXO
40
0.025
9
$DIMEXE
40
0.05
9
$DIMTXT
40
1
9
$DIMTSZ
40
0
9
$DIMAUNIT
70
0
9
$DIMADEC
70
2
9
$DIMLUNIT
70
2
9
$DIMSTYLE
2
STANDARD
9
$DIMGAP
40
0.025
9
$DIMTIH
70
0
9
$LUNITS
70
2
9
$LUPREC
70
4
9
$AUNITS
70
0
9
$AUPREC
70
2
9
$SPLINESEGS
70
8
9
$GRIDMODE
70
1
9
$SNAPSTYLE
70
0
9
$GRIDUNIT
10
0
20
0
9
$PINSBASE
10
0
20
0
30
0
9
$PLIMMIN
10
0
20
0
9
$PLIMMAX
10
210
20
297
9
$INSUNITS
70
4
9
$PSVPSCALE
40
1
0
ENDSEC
0
SECTION
2
CLASSES
0
ENDSEC
0
SECTION
2
TABLES
0
TABLE
2
VPORT
5
8
330
0
100
AcDbSymbolTable
70
1
0
VPORT
5
31
330
2
100
AcDbSymbolTableRecord
100
AcDbViewportTableRecord
2
*ACTIVE
70
0
10
0
20
0
11
1
21
1
12
7.30911370177
22
5.43543521958
13
0
23
0
14
10
24
10
15
10
25
10
16
0
26
0
36
1
17
0
27
0
37
0
40
12.3556722552
41
1.31330472103
42
50
43
0
44
0
50
0
51
0
71
0
72
100
73
1
74
3
75
0
76
1
77
0
78
0
281
0
65
1
110
0
120
0
130
0
111
1
121
0
131
0
112
0
122
1
132
0
79
0
146
0
348
10020
60
7
61
5
292
1
282
1
141
0
142
0
63
250
421
3358443
0
ENDTAB
0
TABLE
2
LTYPE
5
5
330
0
100
AcDbSymbolTable
70
4
0
LTYPE
5
14
330
5
100
AcDbSymbolTableRecord
100
AcDbLinetypeTableRecord
2
ByBlock
70
0
3

72
65
73
0
40
0
0
LTYPE
5
15
330
5
100
AcDbSymbolTableRecord
100
AcDbLinetypeTableRecord
2
ByLayer
70
0
3

72
65
73
0
40
0
0
LTYPE
5
16
330
5
100
AcDbSymbolTableRecord
100
AcDbLinetypeTableRecord
2
Continuous
70
0
3
Solid line
72
65
73
0
40
0
0
LTYPE
5
32
330
5
100
AcDbSymbolTableRecord
100
AcDbLinetypeTableRecord
2
DOT
70
0
3
Dot . . . . . . . . . . . . . . . . . . . . . .
72
65
73
2
40
6.35
49
0
74
0
49
-6.35
74
0
0
LTYPE
5
33
330
5
100
AcDbSymbolTableRecord
100
AcDbLinetypeTableRecord
2
DOT2
70
0
3
Dot (.5x) .....................................
72
65
73
2
40
3.175
49
0
74
0
49
-3.175
74
0
0
LTYPE
5
34
330
5
100
AcDbSymbolTableRecord
100
AcDbLinetypeTableRecord
2
DOTX2
70
0
3
Dot (2x) .  .  .  .  .  .  .  .  .  .  .  .  .
72
65
73
2
40
12.7
49
0
74
0
49
-12.7
74
0
0
LTYPE
5
35
330
5
100
AcDbSymbolTableRecord
100
AcDbLinetypeTableRecord
2
DASHED
70
0
3
Dot . . . . . . . . . . . . . . . . . . . . . .
72
65
73
2
40
19.05
49
12.7
74
0
49
-6.35
74
0
0
LTYPE
5
36
330
5
100
AcDbSymbolTableRecord
100
AcDbLinetypeTableRecord
2
DASHED2
70
0
3
Dashed (.5x) _ _ _ _ _ _ _ _ _ _ _ _ _ _ _ _ _
72
65
73
2
40
9.525
49
6.35
74
0
49
-3.175
74
0
0
LTYPE
5
37
330
5
100
AcDbSymbolTableRecord
100
AcDbLinetypeTableRecord
2
DASHEDX2
70
0
3
Dashed (2x) ____  ____  ____  ____  ____  ___
72
65
73
2
40
38.1
49
25.4
74
0
49
-12.7
74
0
0
LTYPE
5
38
330
5
100
AcDbSymbolTableRecord
100
AcDbLinetypeTableRecord
2
DASHDOT
70
0
3
Dash dot __ . __ . __ . __ . __ . __ . __ . __
72
65
73
4
40
25.4
49
12.7
74
0
49
-6.35
74
0
49
0
74
0
49
-6.35
74
0
0
LTYPE
5
39
330
5
100
AcDbSymbolTableRecord
100
AcDbLinetypeTableRecord
2
DASHDOT2
70
0
3
Dash dot (.5x) _._._._._._._._._._._._._._._.
72
65
73
4
40
12.7
49
6.35
74
0
49
-3.175
74
0
49
0
74
0
49
-3.175
74
0
0
LTYPE
5
3A
330
5
100
AcDbSymbolTableRecord
100
AcDbLinetypeTableRecord
2
DASHDOTX2
70
0
3
Dash dot (2x) ____  .  ____  .  ____  .  ___
72
65
73
4
40
50.8
49
25.4
74
0
49
-12.7
74
0
49
0
74
0
49
-12.7
74
0
0
LTYPE
5
3B
330
5
100
AcDbSymbolTableRecord
100
AcDbLinetypeTableRecord
2
DIVIDE
70
0
3
Divide ____ . . ____ . . ____ . . ____ . . ____
72
65
73
6
40
31.75
49
12.7
74
0
49
-6.35
74
0
49
0
74
0
49
-6.35
74
0
49
0
74
0
49
-6.35
74
0
0
LTYPE
5
3C
330
5
100
AcDbSymbolTableRecord
100
AcDbLinetypeTableRecord
2
DIVIDE2
70
0
3
Divide (.5x) __..__..__..__..__..__..__..__.._
72
65
73
6
40
15.875
49
6.35
74
0
49
-3.175
74
0
49
0
74
0
49
-3.175
74
0
49
0
74
0
49
-3.175
74
0
0
LTYPE
5
3D
330
5
100
AcDbSymbolTableRecord
100
AcDbLinetypeTableRecord
2
DIVIDEX2
70
0
3
Divide (2x) ________  .  .  ________  .  .  _
72
65
73
6
40
63.5
49
25.4
74
0
49
-12.7
74
0
49
0
74
0
49
-12.7
74
0
49
0
74
0
49
-12.7
74
0
0
LTYPE
5
3E
330
5
100
AcDbSymbolTableRecord
100
AcDbLinetypeTableRecord
2
BORDER
70
0
3
Border __ __ . __ __ . __ __ . __ __ . __ __ .
72
65
73
6
40
44.45
49
12.7
74
0
49
-6.35
74
0
49
12.7
74
0
49
-6.35
74
0
49
0
74
0
49
-6.35
74
0
0
LTYPE
5
3F
330
5
100
AcDbSymbolTableRecord
100
AcDbLinetypeTableRecord
2
BORDER2
70
0
3
Border (.5x) __.__.__.__.__.__.__.__.__.__.__.
72
65
73
6
40
22.225
49
6.35
74
0
49
-3.175
74
0
49
6.35
74
0
49
-3.175
74
0
49
0
74
0
49
-3.175
74
0
0
LTYPE
5
40
330
5
100
AcDbSymbolTableRecord
100
AcDbLinetypeTableRecord
2
BORDERX2
70
0
3
Border (2x) ____  ____  .  ____  ____  .  ___
72
65
73
6
40
88.9
49
25.4
74
0
49
-12.7
74
0
49
25.4
74
0
49
-12.7
74
0
49
0
74
0
49
-12.7
74
0
0
LTYPE
5
41
330
5
100
AcDbSymbolTableRecord
100
AcDbLinetypeTableRecord
2
CENTER
70
0
3
Center ____ _ ____ _ ____ _ ____ _ ____ _ ____
72
65
73
4
40
50.8
49
31.75
74
0
49
-6.35
74
0
49
6.35
74
0
49
-6.35
74
0
0
LTYPE
5
42
330
5
100
AcDbSymbolTableRecord
100
AcDbLinetypeTableRecord
2
CENTER2
70
0
3
Center (.5x) ___ _ ___ _ ___ _ ___ _ ___ _ ___
72
65
73
4
40
28.575
49
19.05
74
0
49
-3.175
74
0
49
3.175
74
0
49
-3.175
74
0
0
LTYPE
5
43
330
5
100
AcDbSymbolTableRecord
100
AcDbLinetypeTableRecord
2
CENTERX2
70
0
3
Center (2x) ________  __  ________  __  _____
72
65
73
4
40
101.6
49
63.5
74
0
49
-12.7
74
0
49
12.7
74
0
49
-12.7
74
0
0
ENDTAB
0
TABLE
2
LAYER
5
2
330
0
100
AcDbSymbolTable
70
1
0
LAYER
5
10
330
2
100
AcDbSymbolTableRecord
100
AcDbLayerTableRecord
2
0
70
0
62
7
6
CONTINUOUS
370
0
390
F
0
LAYER
5
44
330
2
100
AcDbSymbolTableRecord
100
AcDbLayerTableRecord
2
6-32_TAP_HOLE
70
0
62
2
6
CONTINUOUS
370
0
390
F
0
LAYER
5
45
330
2
100
AcDbSymbolTableRecord
100
AcDbLayerTableRecord
2
ALIGNMENT_POCKET
70
0
62
6
6
CONTINUOUS
370
0
390
F
0
LAYER
5
46
330
2
100
AcDbSymbolTableRecord
100
AcDbLayerTableRecord
2
DIMENSION
70
0
62
7
6
CONTINUOUS
370
0
390
F
0
LAYER
5
47
330
2
100
AcDbSymbolTableRecord
100
AcDbLayerTableRecord
2
NOTES
70
0
62
1
6
CONTINUOUS
370
0
390
F
0
LAYER
5
48
330
2
100
AcDbSymbolTableRecord
100
AcDbLayerTableRecord
2
OUTER_BOUNDARY
70
0
62
5
6
CONTINUOUS
370
0
390
F
0
LAYER
5
49
330
2
100
AcDbSymbolTableRecord
100
AcDbLayerTableRecord
2
REFERENCE
70
0
62
253
420
10526884
6
CONTINUOUS
370
0
390
F
0
ENDTAB
0
TABLE
2
STYLE
5
3
330
0
100
AcDbSymbolTable
70
3
0
STYLE
5
4A
330
2
100
AcDbSymbolTableRecord
100
AcDbTextStyleTableRecord
2
Standard
70
0
40
0
41
1
50
0
71
0
42
1
3
txt
4

0
ENDTAB
0
TABLE
2
VIEW
5
6
330
0
100
AcDbSymbolTable
70
0
0
ENDTAB
0
TABLE
2
UCS
5
7
330
0
100
AcDbSymbolTable
70
0
0
ENDTAB
0
TABLE
2
APPID
5
9
330
0
100
AcDbSymbolTable
70
1
0
APPID
5
12
330
9
100
AcDbSymbolTableRecord
100
AcDbRegAppTableRecord
2
ACAD
70
0
0
ENDTAB
0
TABLE
2
DIMSTYLE
5
A
330
0
100
AcDbSymbolTable
70
1
100
AcDbDimStyleTable
71
1
0
DIMSTYLE
105
4B
330
A
100
AcDbSymbolTableRecord
100
AcDbDimStyleTableRecord
2
Standard
70
0
40
1
41
1
42
0.025
43
0.38
44
0.05
45
0
46
0
47
0
48
0
140
1
141
0.09
142
0
143
25.4
144
1
145
0
146
1
147
0.025
148
0
71
0
72
0
73
0
74
1
75
0
76
0
77
0
78
0
79
0
170
0
171
2
172
0
173
0
174
0
175
0
176
0
177
0
178
0
179
0
271
4
272
4
273
2
274
2
275
0
276
0
277
2
278
46
279
0
280
0
281
0
282
0
283
1
284
0
285
0
286
0
288
0
289
3
340
Standard
341

371
-2
372
-2
0
ENDTAB
0
TABLE
2
BLOCK_RECORD
5
1
330
0
100
AcDbSymbolTable
70
2
0
BLOCK_RECORD
5
1F
330
1
100
AcDbSymbolTableRecord
100
AcDbBlockTableRecord
2
*Model_Space
70
0
280
1
281
0
0
BLOCK_RECORD
5
1E
330
1
100
AcDbSymbolTableRecord
100
AcDbBlockTableRecord
2
*Paper_Space
70
0
280
1
281
0
0
BLOCK_RECORD
5
4C
330
1
100
AcDbSymbolTableRecord
100
AcDbBlockTableRecord
2
*D12
70
0
280
1
281
0
0
BLOCK_RECORD
5
4F
330
1
100
AcDbSymbolTableRecord
100
AcDbBlockTableRecord
2
*D9
70
0
280
1
281
0
0
BLOCK_RECORD
5
52
330
1
100
AcDbSymbolTableRecord
100
AcDbBlockTableRecord
2
*D7
70
0
280
1
281
0
0
BLOCK_RECORD
5
55
330
1
100
AcDbSymbolTableRecord
100
AcDbBlockTableRecord
2
*D1
70
0
280
1
281
0
0
BLOCK_RECORD
5
58
330
1
100
AcDbSymbolTableRecord
100
AcDbBlockTableRecord
2
*D18
70
0
280
1
281
0
0
BLOCK_RECORD
5
5B
330
1
100
AcDbSymbolTableRecord
100
AcDbBlockTableRecord
2
*D13
70
0
280
1
281
0
0
BLOCK_RECORD
5
5E
330
1
100
AcDbSymbolTableRecord
100
AcDbBlockTableRecord
2
*D11
70
0
280
1
281
0
0
BLOCK_RECORD
5
61
330
1
100
AcDbSymbolTableRecord
100
AcDbBlockTableRecord
2
*D17
70
0
280
1
281
0
0
BLOCK_RECORD
5
64
330
1
100
AcDbSymbolTableRecord
100
AcDbBlockTableRecord
2
*D3
70
0
280
1
281
0
0
BLOCK_RECORD
5
67
330
1
100
AcDbSymbolTableRecord
100
AcDbBlockTableRecord
2
*D8
70
0
280
1
281
0
0
BLOCK_RECORD
5
6A
330
1
100
AcDbSymbolTableRecord
100
AcDbBlockTableRecord
2
*D2
70
0
280
1
281
0
0
BLOCK_RECORD
5
6D
330
1
100
AcDbSymbolTableRecord
100
AcDbBlockTableRecord
2
*D4
70
0
280
1
281
0
0
BLOCK_RECORD
5
70
330
1
100
AcDbSymbolTableRecord
100
AcDbBlockTableRecord
2
*D16
70
0
280
1
281
0
0
BLOCK_RECORD
5
73
330
1
100
AcDbSymbolTableRecord
100
AcDbBlockTableRecord
2
*D5
70
0
280
1
281
0
0
BLOCK_RECORD
5
76
330
1
100
AcDbSymbolTableRecord
100
AcDbBlockTableRecord
2
*D15
70
0
280
1
281
0
0
BLOCK_RECORD
5
79
330
1
100
AcDbSymbolTableRecord
100
AcDbBlockTableRecord
2
*D6
70
0
280
1
281
0
0
BLOCK_RECORD
5
7C
330
1
100
AcDbSymbolTableRecord
100
AcDbBlockTableRecord
2
*D10
70
0
280
1
281
0
0
BLOCK_RECORD
5
7F
330
1
100
AcDbSymbolTableRecord
100
AcDbBlockTableRecord
2
*D14
70
0
280
1
281
0
0
ENDTAB
0
ENDSEC
0
SECTION
2
BLOCKS
0
BLOCK
5
20
330
1F
100
AcDbEntity
8
0
100
AcDbBlockBegin
2
*Model_Space
70
0
10
0
20
0
30
0
3
*Model_Space
1

0
ENDBLK
5
21
330
1F
100
AcDbEntity
8
0
100
AcDbBlockEnd
0
BLOCK
5
1C
330
1B
100
AcDbEntity
8
0
100
AcDbBlockBegin
2
*Paper_Space
70
0
10
0
20
0
30
0
3
*Paper_Space
1

0
ENDBLK
5
1D
330
1F
100
AcDbEntity
8
0
100
AcDbBlockEnd
0
BLOCK
5
4D
330
4C
100
AcDbEntity
8
0
100
AcDbBlockBegin
2
*D12
70
1
10
0
20
0
3
*D12
1

0
LINE
5
82
100
AcDbEntity
8
DIMENSION
6
CONTINUOUS
62
7
370
0
100
AcDbLine
10
9.55708661413
20
3.18307086614
11
9.55708661413
21
5.15157480315
0
SOLID
5
83
100
AcDbEntity
8
DIMENSION
6
CONTINUOUS
62
7
370
0
100
AcDbTrace
10
9.55708661413
20
3.18307086614
30
0
11
9.52378384151
21
3.38307086614
31
0
12
9.59038938675
22
3.38307086614
32
0
13
9.59038938675
23
3.38307086614
33
0
0
SOLID
5
84
100
AcDbEntity
8
DIMENSION
6
CONTINUOUS
62
7
370
0
100
AcDbTrace
10
9.55708661413
20
5.15157480315
30
0
11
9.59038938675
21
4.95157480315
31
0
12
9.52378384151
22
4.95157480315
32
0
13
9.52378384151
23
4.95157480315
33
0
0
MTEXT
5
85
100
AcDbEntity
8
DIMENSION
6
CONTINUOUS
62
7
370
0
100
AcDbMText
10
9.45208661413
20
4.16732283465
30
0
40
0.2
41
0.733333333333
71
5
72
1
1
1.9685
7
standard
210
0
220
0
230
1
50
90
73
2
44
1
0
LINE
5
86
100
AcDbEntity
8
DIMENSION
6
CONTINUOUS
62
7
370
0
100
AcDbLine
10
10.3099606299
20
3.18307086614
11
9.54708661413
21
3.18307086614
0
LINE
5
87
100
AcDbEntity
8
DIMENSION
6
CONTINUOUS
62
7
370
0
100
AcDbLine
10
10.3099606299
20
5.15157480315
11
9.54708661413
21
5.15157480315
0
ENDBLK
5
4E
330
4C
100
AcDbEntity
8
0
100
AcDbBlockEnd
0
BLOCK
5
50
330
4F
100
AcDbEntity
8
0
100
AcDbBlockBegin
2
*D9
70
1
10
0
20
0
3
*D9
1

0
LINE
5
88
100
AcDbEntity
8
DIMENSION
6
CONTINUOUS
62
7
370
0
100
AcDbLine
10
5.51181102358
20
-1.24606299213
11
-3.65411987634e-16
21
-1.24606299213
0
SOLID
5
89
100
AcDbEntity
8
DIMENSION
6
CONTINUOUS
62
7
370
0
100
AcDbTrace
10
5.51181102358
20
-1.24606299213
30
0
11
5.31181102358
21
-1.27936576475
31
0
12
5.31181102358
22
-1.21276021951
32
0
13
5.31181102358
23
-1.21276021951
33
0
0
SOLID
5
8A
100
AcDbEntity
8
DIMENSION
6
CONTINUOUS
62
7
370
0
100
AcDbTrace
10
-3.65411987634e-16
20
-1.24606299213
30
0
11
0.2
21
-1.21276021951
31
0
12
0.2
22
-1.27936576475
32
0
13
0.2
23
-1.27936576475
33
0
0
MTEXT
5
8B
100
AcDbEntity
8
DIMENSION
6
CONTINUOUS
62
7
370
0
100
AcDbMText
10
2.75590551177
20
-1.35106299213
30
0
40
0.2
41
0.688888888889
71
5
72
1
1
5.5118
7
standard
210
0
220
0
230
1
50
360
73
2
44
1
0
LINE
5
8C
100
AcDbEntity
8
DIMENSION
6
CONTINUOUS
62
7
370
0
100
AcDbLine
10
5.51181102358
20
0.717440944882
11
5.51181102358
21
-1.25606299213
0
LINE
5
8D
100
AcDbEntity
8
DIMENSION
6
CONTINUOUS
62
7
370
0
100
AcDbLine
10
-9.18454765367e-19
20
0.245
11
-3.67248897164e-16
21
-1.25606299213
0
ENDBLK
5
51
330
4F
100
AcDbEntity
8
0
100
AcDbBlockEnd
0
BLOCK
5
53
330
52
100
AcDbEntity
8
0
100
AcDbBlockBegin
2
*D7
70
1
10
0
20
0
3
*D7
1

0
LINE
5
8E
100
AcDbEntity
8
DIMENSION
6
CONTINUOUS
62
7
370
0
100
AcDbLine
10
3.66633858263
20
7.49409448819
11
3.66633858263
21
8.08464566929
0
SOLID
5
8F
100
AcDbEntity
8
DIMENSION
6
CONTINUOUS
62
7
370
0
100
AcDbTrace
10
3.66633858263
20
7.49409448819
30
0
11
3.63303581001
21
7.69409448819
31
0
12
3.69964135525
22
7.69409448819
32
0
13
3.69964135525
23
7.69409448819
33
0
0
SOLID
5
90
100
AcDbEntity
8
DIMENSION
6
CONTINUOUS
62
7
370
0
100
AcDbTrace
10
3.66633858263
20
8.08464566929
30
0
11
3.69964135525
21
7.88464566929
31
0
12
3.63303581001
22
7.88464566929
32
0
13
3.63303581001
23
7.88464566929
33
0
0
MTEXT
5
91
100
AcDbEntity
8
DIMENSION
6
CONTINUOUS
62
7
370
0
100
AcDbMText
10
3.56133858263
20
8.47853455818
30
0
40
0.2
41
0.777777777778
71
5
72
1
1
0.5906
7
standard
210
0
220
0
230
1
50
90
73
2
44
1
0
LINE
5
92
100
AcDbEntity
8
DIMENSION
6
CONTINUOUS
62
7
370
0
100
AcDbLine
10
4.52255905507
20
7.49409448819
11
3.65633858263
21
7.49409448819
0
LINE
5
93
100
AcDbEntity
8
DIMENSION
6
CONTINUOUS
62
7
370
0
100
AcDbLine
10
0.0575
20
8.08464566929
11
3.65633858263
21
8.08464566929
0
ENDBLK
5
54
330
52
100
AcDbEntity
8
0
100
AcDbBlockEnd
0
BLOCK
5
56
330
55
100
AcDbEntity
8
0
100
AcDbBlockBegin
2
*D1
70
1
10
0
20
0
3
*D1
1

0
LINE
5
94
100
AcDbEntity
8
DIMENSION
6
CONTINUOUS
62
7
370
0
100
AcDbLine
10
7.14566929129
20
0.322440944882
11
7.14566929129
21
1.35866141732
0
SOLID
5
95
100
AcDbEntity
8
DIMENSION
6
CONTINUOUS
62
7
370
0
100
AcDbTrace
10
7.14566929129
20
0.722440944882
30
0
11
7.17897206391
21
0.522440944882
31
0
12
7.11236651867
22
0.522440944882
32
0
13
7.11236651867
23
0.522440944882
33
0
0
SOLID
5
96
100
AcDbEntity
8
DIMENSION
6
CONTINUOUS
62
7
370
0
100
AcDbTrace
10
7.14566929129
20
0.958661417323
30
0
11
7.11236651867
21
1.15866141732
31
0
12
7.17897206391
22
1.15866141732
32
0
13
7.17897206391
23
1.15866141732
33
0
0
MTEXT
5
97
100
AcDbEntity
8
DIMENSION
6
CONTINUOUS
62
7
370
0
100
AcDbMText
10
7.04066929129
20
1.35255030621
30
0
40
0.2
41
0.777777777778
71
5
72
1
1
0.2362
7
standard
210
0
220
0
230
1
50
90
73
2
44
1
0
LINE
5
98
100
AcDbEntity
8
DIMENSION
6
CONTINUOUS
62
7
370
0
100
AcDbLine
10
6.50106299208
20
0.722440944882
11
7.15566929129
21
0.722440944882
0
LINE
5
99
100
AcDbEntity
8
DIMENSION
6
CONTINUOUS
62
7
370
0
100
AcDbLine
10
6.50106299208
20
0.958661417323
11
7.15566929129
21
0.958661417323
0
ENDBLK
5
57
330
55
100
AcDbEntity
8
0
100
AcDbBlockEnd
0
BLOCK
5
59
330
58
100
AcDbEntity
8
0
100
AcDbBlockBegin
2
*D18
70
1
10
0
20
0
3
*D18
1

0
LINE
5
9A
100
AcDbEntity
8
DIMENSION
6
CONTINUOUS
62
7
370
0
100
AcDbLine
10
-1.1534202756
20
0.25
11
-1.1534202756
21
8.08464566929
0
SOLID
5
9B
100
AcDbEntity
8
DIMENSION
6
CONTINUOUS
62
7
370
0
100
AcDbTrace
10
-1.1534202756
20
0.25
30
0
11
-1.18672304822
21
0.45
31
0
12
-1.12011750298
22
0.45
32
0
13
-1.12011750298
23
0.45
33
0
0
SOLID
5
9C
100
AcDbEntity
8
DIMENSION
6
CONTINUOUS
62
7
370
0
100
AcDbTrace
10
-1.1534202756
20
8.08464566929
30
0
11
-1.12011750298
21
7.88464566929
31
0
12
-1.18672304822
22
7.88464566929
32
0
13
-1.18672304822
23
7.88464566929
33
0
0
MTEXT
5
9D
100
AcDbEntity
8
DIMENSION
6
CONTINUOUS
62
7
370
0
100
AcDbMText
10
-1.2584202756
20
4.16732283465
30
0
40
0.2
41
0.8
71
5
72
1
1
7.8346
7
standard
210
0
220
0
230
1
50
90
73
2
44
1
0
LINE
5
9E
100
AcDbEntity
8
DIMENSION
6
CONTINUOUS
62
7
370
0
100
AcDbLine
10
-0.005
20
0.25
11
-1.1634202756
21
0.25
0
LINE
5
9F
100
AcDbEntity
8
DIMENSION
6
CONTINUOUS
62
7
370
0
100
AcDbLine
10
0.0575
20
8.08464566929
11
-1.1634202756
21
8.08464566929
0
ENDBLK
5
5A
330
58
100
AcDbEntity
8
0
100
AcDbBlockEnd
0
BLOCK
5
5C
330
5B
100
AcDbEntity
8
0
100
AcDbBlockBegin
2
*D13
70
1
10
0
20
0
3
*D13
1

0
LINE
5
A0
100
AcDbEntity
8
DIMENSION
6
CONTINUOUS
62
7
370
0
100
AcDbLine
10
4.52755905507
20
1.59104330709
11
6.49606299208
21
1.59104330709
0
SOLID
5
A1
100
AcDbEntity
8
DIMENSION
6
CONTINUOUS
62
7
370
0
100
AcDbTrace
10
4.52755905507
20
1.59104330709
30
0
11
4.72755905507
21
1.62434607971
31
0
12
4.72755905507
22
1.55774053447
32
0
13
4.72755905507
23
1.55774053447
33
0
0
SOLID
5
A2
100
AcDbEntity
8
DIMENSION
6
CONTINUOUS
62
7
370
0
100
AcDbTrace
10
6.49606299208
20
1.59104330709
30
0
11
6.29606299208
21
1.55774053447
31
0
12
6.29606299208
22
1.62434607971
32
0
13
6.29606299208
23
1.62434607971
33
0
0
MTEXT
5
A3
100
AcDbEntity
8
DIMENSION
6
CONTINUOUS
62
7
370
0
100
AcDbMText
10
5.51181102358
20
1.48604330709
30
0
40
0.2
41
0.733333333333
71
5
72
1
1
1.9685
7
standard
210
0
220
0
230
1
50
360
73
2
44
1
0
LINE
5
A4
100
AcDbEntity
8
DIMENSION
6
CONTINUOUS
62
7
370
0
100
AcDbLine
10
4.52755905507
20
0.963661417323
11
4.52755905507
21
1.60104330709
0
LINE
5
A5
100
AcDbEntity
8
DIMENSION
6
CONTINUOUS
62
7
370
0
100
AcDbLine
10
6.49606299208
20
0.963661417323
11
6.49606299208
21
1.60104330709
0
ENDBLK
5
5D
330
5B
100
AcDbEntity
8
0
100
AcDbBlockEnd
0
BLOCK
5
5F
330
5E
100
AcDbEntity
8
0
100
AcDbBlockBegin
2
*D11
70
1
10
0
20
0
3
*D11
1

0
LINE
5
A6
100
AcDbEntity
8
DIMENSION
6
CONTINUOUS
62
7
370
0
100
AcDbLine
10
11.7952755905
20
8.08464566929
11
11.7952755905
21
4.16732283465
0
SOLID
5
A7
100
AcDbEntity
8
DIMENSION
6
CONTINUOUS
62
7
370
0
100
AcDbTrace
10
11.7952755905
20
8.08464566929
30
0
11
11.8285783631
21
7.88464566929
31
0
12
11.7619728179
22
7.88464566929
32
0
13
11.7619728179
23
7.88464566929
33
0
0
SOLID
5
A8
100
AcDbEntity
8
DIMENSION
6
CONTINUOUS
62
7
370
0
100
AcDbTrace
10
11.7952755905
20
4.16732283465
30
0
11
11.7619728179
21
4.36732283465
31
0
12
11.8285783631
22
4.36732283465
32
0
13
11.8285783631
23
4.36732283465
33
0
0
MTEXT
5
A9
100
AcDbEntity
8
DIMENSION
6
CONTINUOUS
62
7
370
0
100
AcDbMText
10
11.6902755905
20
6.12598425197
30
0
40
0.2
41
0.733333333333
71
5
72
1
1
3.9173
7
standard
210
0
220
0
230
1
50
90
73
2
44
1
0
LINE
5
AA
100
AcDbEntity
8
DIMENSION
6
CONTINUOUS
62
7
370
0
100
AcDbLine
10
10.9661220472
20
8.08464566929
11
11.8052755905
21
8.08464566929
0
LINE
5
AB
100
AcDbEntity
8
DIMENSION
6
CONTINUOUS
62
7
370
0
100
AcDbLine
10
10.5561811023
20
4.16732283465
11
11.8052755905
21
4.16732283465
0
ENDBLK
5
60
330
5E
100
AcDbEntity
8
0
100
AcDbBlockEnd
0
BLOCK
5
62
330
61
100
AcDbEntity
8
0
100
AcDbBlockBegin
2
*D17
70
1
10
0
20
0
3
*D17
1

0
LINE
5
AC
100
AcDbEntity
8
DIMENSION
6
CONTINUOUS
62
7
370
0
100
AcDbLine
10
11.0236220472
20
12.2407649483
11
1.04912824927e-15
21
12.2407649483
0
SOLID
5
AD
100
AcDbEntity
8
DIMENSION
6
CONTINUOUS
62
7
370
0
100
AcDbTrace
10
11.0236220472
20
12.2407649483
30
0
11
10.8236220472
21
12.2074621757
31
0
12
10.8236220472
22
12.2740677209
32
0
13
10.8236220472
23
12.2740677209
33
0
0
SOLID
5
AE
100
AcDbEntity
8
DIMENSION
6
CONTINUOUS
62
7
370
0
100
AcDbTrace
10
1.04912824927e-15
20
12.2407649483
30
0
11
0.2
21
12.2740677209
31
0
12
0.2
22
12.2074621757
32
0
13
0.2
23
12.2074621757
33
0
0
MTEXT
5
AF
100
AcDbEntity
8
DIMENSION
6
CONTINUOUS
62
7
370
0
100
AcDbMText
10
5.51181102358
20
12.1357649483
30
0
40
0.2
41
0.844444444444
71
5
72
1
1
11.0236
7
standard
210
0
220
0
230
1
50
360
73
2
44
1
0
LINE
5
B0
100
AcDbEntity
8
DIMENSION
6
CONTINUOUS
62
7
370
0
100
AcDbLine
10
11.0236220472
20
8.02714566929
11
11.0236220472
21
12.2507649483
0
LINE
5
B1
100
AcDbEntity
8
DIMENSION
6
CONTINUOUS
62
7
370
0
100
AcDbLine
10
2.52659763771e-18
20
8.02714566929
11
1.05418144455e-15
21
12.2507649483
0
ENDBLK
5
63
330
61
100
AcDbEntity
8
0
100
AcDbBlockEnd
0
BLOCK
5
65
330
64
100
AcDbEntity
8
0
100
AcDbBlockBegin
2
*D3
70
1
10
0
20
0
3
*D3
1

0
LINE
5
B2
100
AcDbEntity
8
DIMENSION
6
CONTINUOUS
62
7
370
0
100
AcDbLine
10
9.91496062988
20
6.33251968504
11
10.9511811023
21
6.33251968504
0
SOLID
5
B3
100
AcDbEntity
8
DIMENSION
6
CONTINUOUS
62
7
370
0
100
AcDbTrace
10
10.3149606299
20
6.33251968504
30
0
11
10.1149606299
21
6.29921691242
31
0
12
10.1149606299
22
6.36582245766
32
0
13
10.1149606299
23
6.36582245766
33
0
0
SOLID
5
B4
100
AcDbEntity
8
DIMENSION
6
CONTINUOUS
62
7
370
0
100
AcDbTrace
10
10.5511811023
20
6.33251968504
30
0
11
10.7511811023
21
6.36582245766
31
0
12
10.7511811023
22
6.29921691242
32
0
13
10.7511811023
23
6.29921691242
33
0
0
MTEXT
5
B5
100
AcDbEntity
8
DIMENSION
6
CONTINUOUS
62
7
370
0
100
AcDbMText
10
10.9450699912
20
6.22751968504
30
0
40
0.2
41
0.777777777778
71
5
72
1
1
0.2362
7
standard
210
0
220
0
230
1
50
0
73
2
44
1
0
LINE
5
B6
100
AcDbEntity
8
DIMENSION
6
CONTINUOUS
62
7
370
0
100
AcDbLine
10
10.3149606299
20
5.15657480315
11
10.3149606299
21
6.34251968504
0
LINE
5
B7
100
AcDbEntity
8
DIMENSION
6
CONTINUOUS
62
7
370
0
100
AcDbLine
10
10.5511811023
20
5.15657480315
11
10.5511811023
21
6.34251968504
0
ENDBLK
5
66
330
64
100
AcDbEntity
8
0
100
AcDbBlockEnd
0
BLOCK
5
68
330
67
100
AcDbEntity
8
0
100
AcDbBlockBegin
2
*D8
70
1
10
0
20
0
3
*D8
1

0
LINE
5
B8
100
AcDbEntity
8
DIMENSION
6
CONTINUOUS
62
7
370
0
100
AcDbLine
10
2.8297244094
20
5.99803149606
11
2.8297244094
21
8.08464566929
0
SOLID
5
B9
100
AcDbEntity
8
DIMENSION
6
CONTINUOUS
62
7
370
0
100
AcDbTrace
10
2.8297244094
20
5.99803149606
30
0
11
2.79642163678
21
6.19803149606
31
0
12
2.86302718202
22
6.19803149606
32
0
13
2.86302718202
23
6.19803149606
33
0
0
SOLID
5
BA
100
AcDbEntity
8
DIMENSION
6
CONTINUOUS
62
7
370
0
100
AcDbTrace
10
2.8297244094
20
8.08464566929
30
0
11
2.86302718202
21
7.88464566929
31
0
12
2.79642163678
22
7.88464566929
32
0
13
2.79642163678
23
7.88464566929
33
0
0
MTEXT
5
BB
100
AcDbEntity
8
DIMENSION
6
CONTINUOUS
62
7
370
0
100
AcDbMText
10
2.7247244094
20
7.04133858268
30
0
40
0.2
41
0.777777777778
71
5
72
1
1
2.0866
7
standard
210
0
220
0
230
1
50
90
73
2
44
1
0
LINE
5
BC
100
AcDbEntity
8
DIMENSION
6
CONTINUOUS
62
7
370
0
100
AcDbLine
10
4.88181102358
20
5.99803149606
11
2.8197244094
21
5.99803149606
0
LINE
5
BD
100
AcDbEntity
8
DIMENSION
6
CONTINUOUS
62
7
370
0
100
AcDbLine
10
0.0575
20
8.08464566929
11
2.8197244094
21
8.08464566929
0
ENDBLK
5
69
330
67
100
AcDbEntity
8
0
100
AcDbBlockEnd
0
BLOCK
5
6B
330
6A
100
AcDbEntity
8
0
100
AcDbBlockBegin
2
*D2
70
1
10
0
20
0
3
*D2
1

0
LINE
5
BE
100
AcDbEntity
8
DIMENSION
6
CONTINUOUS
62
7
370
0
100
AcDbLine
10
7.12598425192
20
6.97598425197
11
7.12598425192
21
8.01220472441
0
SOLID
5
BF
100
AcDbEntity
8
DIMENSION
6
CONTINUOUS
62
7
370
0
100
AcDbTrace
10
7.12598425192
20
7.37598425197
30
0
11
7.15928702454
21
7.17598425197
31
0
12
7.0926814793
22
7.17598425197
32
0
13
7.0926814793
23
7.17598425197
33
0
0
SOLID
5
C0
100
AcDbEntity
8
DIMENSION
6
CONTINUOUS
62
7
370
0
100
AcDbTrace
10
7.12598425192
20
7.61220472441
30
0
11
7.0926814793
21
7.81220472441
31
0
12
7.15928702454
22
7.81220472441
32
0
13
7.15928702454
23
7.81220472441
33
0
0
MTEXT
5
C1
100
AcDbEntity
8
DIMENSION
6
CONTINUOUS
62
7
370
0
100
AcDbMText
10
7.02098425192
20
8.0060936133
30
0
40
0.2
41
0.777777777778
71
5
72
1
1
0.2362
7
standard
210
0
220
0
230
1
50
90
73
2
44
1
0
LINE
5
C2
100
AcDbEntity
8
DIMENSION
6
CONTINUOUS
62
7
370
0
100
AcDbLine
10
6.50106299208
20
7.37598425197
11
7.13598425192
21
7.37598425197
0
LINE
5
C3
100
AcDbEntity
8
DIMENSION
6
CONTINUOUS
62
7
370
0
100
AcDbLine
10
6.50106299208
20
7.61220472441
11
7.13598425192
21
7.61220472441
0
ENDBLK
5
6C
330
6A
100
AcDbEntity
8
0
100
AcDbBlockEnd
0
BLOCK
5
6E
330
6D
100
AcDbEntity
8
0
100
AcDbBlockBegin
2
*D4
70
1
10
0
20
0
3
*D4
1

0
LINE
5
C4
100
AcDbEntity
8
DIMENSION
6
CONTINUOUS
62
7
370
0
100
AcDbLine
10
10.4330708661
20
2.68502362205
11
11.0236220472
21
2.68502362205
0
SOLID
5
C5
100
AcDbEntity
8
DIMENSION
6
CONTINUOUS
62
7
370
0
100
AcDbTrace
10
10.4330708661
20
2.68502362205
30
0
11
10.6330708661
21
2.71832639467
31
0
12
10.6330708661
22
2.65172084943
32
0
13
10.6330708661
23
2.65172084943
33
0
0
SOLID
5
C6
100
AcDbEntity
8
DIMENSION
6
CONTINUOUS
62
7
370
0
100
AcDbTrace
10
11.0236220472
20
2.68502362205
30
0
11
10.8236220472
21
2.65172084943
31
0
12
10.8236220472
22
2.71832639467
32
0
13
10.8236220472
23
2.71832639467
33
0
0
MTEXT
5
C7
100
AcDbEntity
8
DIMENSION
6
CONTINUOUS
62
7
370
0
100
AcDbMText
10
11.4175109361
20
2.58002362205
30
0
40
0.2
41
0.777777777778
71
5
72
1
1
0.5906
7
standard
210
0
220
0
230
1
50
0
73
2
44
1
0
LINE
5
C8
100
AcDbEntity
8
DIMENSION
6
CONTINUOUS
62
7
370
0
100
AcDbLine
10
10.4330708661
20
3.17807086614
11
10.4330708661
21
2.67502362205
0
LINE
5
C9
100
AcDbEntity
8
DIMENSION
6
CONTINUOUS
62
7
370
0
100
AcDbLine
10
11.0236220472
20
0.245
11
11.0236220472
21
2.67502362205
0
ENDBLK
5
6F
330
6D
100
AcDbEntity
8
0
100
AcDbBlockEnd
0
BLOCK
5
71
330
70
100
AcDbEntity
8
0
100
AcDbBlockBegin
2
*D16
70
1
10
0
20
0
3
*D16
1

0
LINE
5
CA
100
AcDbEntity
8
DIMENSION
6
CONTINUOUS
62
7
370
0
100
AcDbLine
10
6.49606299208
20
6.52460629921
11
4.52755905507
21
6.52460629921
0
SOLID
5
CB
100
AcDbEntity
8
DIMENSION
6
CONTINUOUS
62
7
370
0
100
AcDbTrace
10
6.49606299208
20
6.52460629921
30
0
11
6.29606299208
21
6.49130352659
31
0
12
6.29606299208
22
6.55790907183
32
0
13
6.29606299208
23
6.55790907183
33
0
0
SOLID
5
CC
100
AcDbEntity
8
DIMENSION
6
CONTINUOUS
62
7
370
0
100
AcDbTrace
10
4.52755905507
20
6.52460629921
30
0
11
4.72755905507
21
6.55790907183
31
0
12
4.72755905507
22
6.49130352659
32
0
13
4.72755905507
23
6.49130352659
33
0
0
MTEXT
5
CD
100
AcDbEntity
8
DIMENSION
6
CONTINUOUS
62
7
370
0
100
AcDbMText
10
5.51181102358
20
6.41960629921
30
0
40
0.2
41
0.733333333333
71
5
72
1
1
1.9685
7
standard
210
0
220
0
230
1
50
360
73
2
44
1
0
LINE
5
CE
100
AcDbEntity
8
DIMENSION
6
CONTINUOUS
62
7
370
0
100
AcDbLine
10
6.49606299208
20
7.37098425197
11
6.49606299208
21
6.51460629921
0
LINE
5
CF
100
AcDbEntity
8
DIMENSION
6
CONTINUOUS
62
7
370
0
100
AcDbLine
10
4.52755905507
20
7.37098425197
11
4.52755905507
21
6.51460629921
0
ENDBLK
5
72
330
70
100
AcDbEntity
8
0
100
AcDbBlockEnd
0
BLOCK
5
74
330
73
100
AcDbEntity
8
0
100
AcDbBlockBegin
2
*D5
70
1
10
0
20
0
3
*D5
1

0
LINE
5
D0
100
AcDbEntity
8
DIMENSION
6
CONTINUOUS
62
7
370
0
100
AcDbLine
10
3.86318897633
20
0.840551181102
11
3.86318897633
21
0.25
0
SOLID
5
D1
100
AcDbEntity
8
DIMENSION
6
CONTINUOUS
62
7
370
0
100
AcDbTrace
10
3.86318897633
20
0.840551181102
30
0
11
3.89649174895
21
0.640551181102
31
0
12
3.82988620371
22
0.640551181102
32
0
13
3.82988620371
23
0.640551181102
33
0
0
SOLID
5
D2
100
AcDbEntity
8
DIMENSION
6
CONTINUOUS
62
7
370
0
100
AcDbTrace
10
3.86318897633
20
0.25
30
0
11
3.82988620371
21
0.45
31
0
12
3.89649174895
22
0.45
32
0
13
3.89649174895
23
0.45
33
0
0
MTEXT
5
D3
100
AcDbEntity
8
DIMENSION
6
CONTINUOUS
62
7
370
0
100
AcDbMText
10
3.75818897633
20
1.23444006999
30
0
40
0.2
41
0.777777777778
71
5
72
1
1
0.5906
7
standard
210
0
220
0
230
1
50
90
73
2
44
1
0
LINE
5
D4
100
AcDbEntity
8
DIMENSION
6
CONTINUOUS
62
7
370
0
100
AcDbLine
10
4.52255905507
20
0.840551181102
11
3.85318897633
21
0.840551181102
0
LINE
5
D5
100
AcDbEntity
8
DIMENSION
6
CONTINUOUS
62
7
370
0
100
AcDbLine
10
-0.005
20
0.25
11
3.85318897633
21
0.25
0
ENDBLK
5
75
330
73
100
AcDbEntity
8
0
100
AcDbBlockEnd
0
BLOCK
5
77
330
76
100
AcDbEntity
8
0
100
AcDbBlockBegin
2
*D15
70
1
10
0
20
0
3
*D15
1

0
LINE
5
D6
100
AcDbEntity
8
DIMENSION
6
CONTINUOUS
62
7
370
0
100
AcDbLine
10
6.13681102358
20
5.38041338583
11
4.88681102358
21
5.38041338583
0
SOLID
5
D7
100
AcDbEntity
8
DIMENSION
6
CONTINUOUS
62
7
370
0
100
AcDbTrace
10
6.13681102358
20
5.38041338583
30
0
11
5.93681102358
21
5.34711061321
31
0
12
5.93681102358
22
5.41371615845
32
0
13
5.93681102358
23
5.41371615845
33
0
0
SOLID
5
D8
100
AcDbEntity
8
DIMENSION
6
CONTINUOUS
62
7
370
0
100
AcDbTrace
10
4.88681102358
20
5.38041338583
30
0
11
5.08681102358
21
5.41371615845
31
0
12
5.08681102358
22
5.34711061321
32
0
13
5.08681102358
23
5.34711061321
33
0
0
MTEXT
5
D9
100
AcDbEntity
8
DIMENSION
6
CONTINUOUS
62
7
370
0
100
AcDbMText
10
5.51181102358
20
5.27541338583
30
0
40
0.2
41
0.422222222222
71
5
72
1
1
1.25
7
standard
210
0
220
0
230
1
50
360
73
2
44
1
0
LINE
5
DA
100
AcDbEntity
8
DIMENSION
6
CONTINUOUS
62
7
370
0
100
AcDbLine
10
6.13681102358
20
5.99303149606
11
6.13681102358
21
5.37041338583
0
LINE
5
DB
100
AcDbEntity
8
DIMENSION
6
CONTINUOUS
62
7
370
0
100
AcDbLine
10
4.88681102358
20
5.99303149606
11
4.88681102358
21
5.37041338583
0
ENDBLK
5
78
330
76
100
AcDbEntity
8
0
100
AcDbBlockEnd
0
BLOCK
5
7A
330
79
100
AcDbEntity
8
0
100
AcDbBlockBegin
2
*D6
70
1
10
0
20
0
3
*D6
1

0
LINE
5
DC
100
AcDbEntity
8
DIMENSION
6
CONTINUOUS
62
7
370
0
100
AcDbLine
10
3.07578740153
20
2.33661417323
11
3.07578740153
21
0.25
0
SOLID
5
DD
100
AcDbEntity
8
DIMENSION
6
CONTINUOUS
62
7
370
0
100
AcDbTrace
10
3.07578740153
20
2.33661417323
30
0
11
3.10909017415
21
2.13661417323
31
0
12
3.04248462891
22
2.13661417323
32
0
13
3.04248462891
23
2.13661417323
33
0
0
SOLID
5
DE
100
AcDbEntity
8
DIMENSION
6
CONTINUOUS
62
7
370
0
100
AcDbTrace
10
3.07578740153
20
0.25
30
0
11
3.04248462891
21
0.45
31
0
12
3.10909017415
22
0.45
32
0
13
3.10909017415
23
0.45
33
0
0
MTEXT
5
DF
100
AcDbEntity
8
DIMENSION
6
CONTINUOUS
62
7
370
0
100
AcDbMText
10
2.97078740153
20
1.29330708661
30
0
40
0.2
41
0.777777777778
71
5
72
1
1
2.0866
7
standard
210
0
220
0
230
1
50
90
73
2
44
1
0
LINE
5
E0
100
AcDbEntity
8
DIMENSION
6
CONTINUOUS
62
7
370
0
100
AcDbLine
10
4.88181102358
20
2.33661417323
11
3.06578740153
21
2.33661417323
0
LINE
5
E1
100
AcDbEntity
8
DIMENSION
6
CONTINUOUS
62
7
370
0
100
AcDbLine
10
-0.005
20
0.25
11
3.06578740153
21
0.25
0
ENDBLK
5
7B
330
79
100
AcDbEntity
8
0
100
AcDbBlockEnd
0
BLOCK
5
7D
330
7C
100
AcDbEntity
8
0
100
AcDbBlockBegin
2
*D10
70
1
10
0
20
0
3
*D10
1

0
LINE
5
E2
100
AcDbEntity
8
DIMENSION
6
CONTINUOUS
62
7
370
0
100
AcDbLine
10
5.51181102358
20
9.87106299213
11
4.44264048123e-16
21
9.87106299213
0
SOLID
5
E3
100
AcDbEntity
8
DIMENSION
6
CONTINUOUS
62
7
370
0
100
AcDbTrace
10
5.51181102358
20
9.87106299213
30
0
11
5.31181102358
21
9.83776021951
31
0
12
5.31181102358
22
9.90436576475
32
0
13
5.31181102358
23
9.90436576475
33
0
0
SOLID
5
E4
100
AcDbEntity
8
DIMENSION
6
CONTINUOUS
62
7
370
0
100
AcDbTrace
10
4.44264048123e-16
20
9.87106299213
30
0
11
0.2
21
9.90436576475
31
0
12
0.2
22
9.83776021951
32
0
13
0.2
23
9.83776021951
33
0
0
MTEXT
5
E5
100
AcDbEntity
8
DIMENSION
6
CONTINUOUS
62
7
370
0
100
AcDbMText
10
2.75590551177
20
9.76606299213
30
0
40
0.2
41
0.688888888889
71
5
72
1
1
5.5118
7
standard
210
0
220
0
230
1
50
360
73
2
44
1
0
LINE
5
E6
100
AcDbEntity
8
DIMENSION
6
CONTINUOUS
62
7
370
0
100
AcDbLine
10
5.51181102358
20
7.61720472441
11
5.51181102358
21
9.88106299213
0
LINE
5
E7
100
AcDbEntity
8
DIMENSION
6
CONTINUOUS
62
7
370
0
100
AcDbLine
10
3.06151588456e-19
20
8.08964566929
11
4.448763513e-16
21
9.88106299213
0
ENDBLK
5
7E
330
7C
100
AcDbEntity
8
0
100
AcDbBlockEnd
0
BLOCK
5
80
330
7F
100
AcDbEntity
8
0
100
AcDbBlockBegin
2
*D14
70
1
10
0
20
0
3
*D14
1

0
LINE
5
E8
100
AcDbEntity
8
DIMENSION
6
CONTINUOUS
62
7
370
0
100
AcDbLine
10
6.13681102358
20
2.9936023622
11
4.88681102358
21
2.9936023622
0
SOLID
5
E9
100
AcDbEntity
8
DIMENSION
6
CONTINUOUS
62
7
370
0
100
AcDbTrace
10
6.13681102358
20
2.9936023622
30
0
11
5.93681102358
21
2.96029958958
31
0
12
5.93681102358
22
3.02690513482
32
0
13
5.93681102358
23
3.02690513482
33
0
0
SOLID
5
EA
100
AcDbEntity
8
DIMENSION
6
CONTINUOUS
62
7
370
0
100
AcDbTrace
10
4.88681102358
20
2.9936023622
30
0
11
5.08681102358
21
3.02690513482
31
0
12
5.08681102358
22
2.96029958958
32
0
13
5.08681102358
23
2.96029958958
33
0
0
MTEXT
5
EB
100
AcDbEntity
8
DIMENSION
6
CONTINUOUS
62
7
370
0
100
AcDbMText
10
5.51181102358
20
2.8886023622
30
0
40
0.2
41
0.422222222222
71
5
72
1
1
1.25
7
standard
210
0
220
0
230
1
50
360
73
2
44
1
0
LINE
5
EC
100
AcDbEntity
8
DIMENSION
6
CONTINUOUS
62
7
370
0
100
AcDbLine
10
6.13681102358
20
2.34161417323
11
6.13681102358
21
3.0036023622
0
LINE
5
ED
100
AcDbEntity
8
DIMENSION
6
CONTINUOUS
62
7
370
0
100
AcDbLine
10
4.88681102358
20
2.34161417323
11
4.88681102358
21
3.0036023622
0
ENDBLK
5
81
330
7F
100
AcDbEntity
8
0
100
AcDbBlockEnd
0
ENDSEC
0
SECTION
2
ENTITIES
0
LINE
5
EE
100
AcDbEntity
8
REFERENCE
6
ByLayer
62
256
370
-1
100
AcDbLine
10
5.51181102358
20
0.25
11
5.51181102358
21
8.08464566929
0
LINE
5
EF
100
AcDbEntity
8
REFERENCE
6
ByLayer
62
256
370
-1
100
AcDbLine
10
0
20
0.25
11
0
21
8.08464566929
0
LINE
5
F0
100
AcDbEntity
8
REFERENCE
6
ByLayer
62
256
370
-1
100
AcDbLine
10
0
20
8.08464566929
11
11.0236220472
21
8.08464566929
0
LINE
5
F1
100
AcDbEntity
8
REFERENCE
6
ByLayer
62
256
370
-1
100
AcDbLine
10
11.0236220472
20
8.08464566929
11
11.0236220472
21
0.25
0
LINE
5
F2
100
AcDbEntity
8
REFERENCE
6
ByLayer
62
256
370
-1
100
AcDbLine
10
11.0236220472
20
0.25
11
0
21
0.25
0
LINE
5
F3
100
AcDbEntity
8
ALIGNMENT_POCKET
6
ByLayer
62
256
370
-1
100
AcDbLine
10
4.52755905507
20
0.722440944882
11
4.52755905507
21
0.958661417323
0
LINE
5
F4
100
AcDbEntity
8
ALIGNMENT_POCKET
6
ByLayer
62
256
370
-1
100
AcDbLine
10
4.52755905507
20
0.958661417323
11
6.49606299208
21
0.958661417323
0
LINE
5
F5
100
AcDbEntity
8
ALIGNMENT_POCKET
6
ByLayer
62
256
370
-1
100
AcDbLine
10
6.49606299208
20
0.958661417323
11
6.49606299208
21
0.722440944882
0
LINE
5
F6
100
AcDbEntity
8
ALIGNMENT_POCKET
6
ByLayer
62
256
370
-1
100
AcDbLine
10
6.49606299208
20
0.722440944882
11
4.52755905507
21
0.722440944882
0
LINE
5
F7
100
AcDbEntity
8
ALIGNMENT_POCKET
6
ByLayer
62
256
370
-1
100
AcDbLine
10
4.52755905507
20
7.37598425197
11
4.52755905507
21
7.61220472441
0
LINE
5
F8
100
AcDbEntity
8
ALIGNMENT_POCKET
6
ByLayer
62
256
370
-1
100
AcDbLine
10
4.52755905507
20
7.61220472441
11
6.49606299208
21
7.61220472441
0
LINE
5
F9
100
AcDbEntity
8
ALIGNMENT_POCKET
6
ByLayer
62
256
370
-1
100
AcDbLine
10
6.49606299208
20
7.61220472441
11
6.49606299208
21
7.37598425197
0
LINE
5
FA
100
AcDbEntity
8
ALIGNMENT_POCKET
6
ByLayer
62
256
370
-1
100
AcDbLine
10
6.49606299208
20
7.37598425197
11
4.52755905507
21
7.37598425197
0
LINE
5
FB
100
AcDbEntity
8
ALIGNMENT_POCKET
6
ByLayer
62
256
370
-1
100
AcDbLine
10
10.3149606299
20
5.15157480315
11
10.5511811023
21
5.15157480315
0
LINE
5
FC
100
AcDbEntity
8
ALIGNMENT_POCKET
6
ByLayer
62
256
370
-1
100
AcDbLine
10
10.5511811023
20
5.15157480315
11
10.5511811023
21
3.18307086614
0
LINE
5
FD
100
AcDbEntity
8
ALIGNMENT_POCKET
6
ByLayer
62
256
370
-1
100
AcDbLine
10
10.5511811023
20
3.18307086614
11
10.3149606299
21
3.18307086614
0
LINE
5
FE
100
AcDbEntity
8
ALIGNMENT_POCKET
6
ByLayer
62
256
370
-1
100
AcDbLine
10
10.3149606299
20
3.18307086614
11
10.3149606299
21
5.15157480315
0
CIRCLE
5
FF
100
AcDbEntity
8
6-32_TAP_HOLE
6
ByLayer
62
256
370
-1
100
AcDbCircle
10
4.88681102358
20
2.33661417323
40
0.05325
0
CIRCLE
5
100
100
AcDbEntity
8
6-32_TAP_HOLE
6
ByLayer
62
256
370
-1
100
AcDbCircle
10
6.13681102358
20
2.33661417323
40
0.05325
0
CIRCLE
5
101
100
AcDbEntity
8
6-32_TAP_HOLE
6
ByLayer
62
256
370
-1
100
AcDbCircle
10
4.88681102358
20
5.99803149606
40
0.05325
0
CIRCLE
5
102
100
AcDbEntity
8
6-32_TAP_HOLE
6
ByLayer
62
256
370
-1
100
AcDbCircle
10
6.13681102358
20
5.99803149606
40
0.05325
0
ARC
5
103
100
AcDbEntity
8
OUTER_BOUNDARY
6
ByLayer
62
256
370
-1
100
AcDbCircle
10
10.9611220472
20
0.0625
40
0.0625
100
AcDbArc
50
270
51
360
0
LINE
5
104
100
AcDbEntity
8
OUTER_BOUNDARY
6
ByLayer
62
256
370
-1
100
AcDbLine
10
11.0236220472
20
8.02214566929
11
11.0236220472
21
0.0625
0
ARC
5
105
100
AcDbEntity
8
OUTER_BOUNDARY
6
ByLayer
62
256
370
-1
100
AcDbCircle
10
10.9611220472
20
8.02214566929
40
0.0625
100
AcDbArc
50
360
51
90
0
LINE
5
106
100
AcDbEntity
8
OUTER_BOUNDARY
6
ByLayer
62
256
370
-1
100
AcDbLine
10
0.0625
20
8.08464566929
11
10.9611220472
21
8.08464566929
0
ARC
5
107
100
AcDbEntity
8
OUTER_BOUNDARY
6
ByLayer
62
256
370
-1
100
AcDbCircle
10
0.0625
20
8.02214566929
40
0.0625
100
AcDbArc
50
90
51
180
0
LINE
5
108
100
AcDbEntity
8
OUTER_BOUNDARY
6
ByLayer
62
256
370
-1
100
AcDbLine
10
0
20
0.0625
11
0
21
8.02214566929
0
LINE
5
109
100
AcDbEntity
8
OUTER_BOUNDARY
6
ByLayer
62
256
370
-1
100
AcDbLine
10
10.9611220472
20
-6.62306919919e-16
11
0.0625
21
5.01917042609e-18
0
ARC
5
10A
100
AcDbEntity
8
OUTER_BOUNDARY
6
ByLayer
62
256
370
-1
100
AcDbCircle
10
0.0625
20
0.0625
40
0.0625
100
AcDbArc
50
180
51
270
0
DIMENSION
5
10B
100
AcDbEntity
8
DIMENSION
6
ByLayer
62
256
370
-1
100
AcDbDimension
2
*D1
10
7.14566929129
20
0.958661417323
30
0
11
7.04066929129
21
0.840551181102
31
0
70
32
71
5
72
0
3
Standard
53
0
210
0
220
0
230
1
100
AcDbAlignedDimension
13
6.49606299208
23
0.722440944882
33
0
14
6.49606299208
24
0.958661417323
34
0
50
90
100
AcDbRotatedDimension
0
DIMENSION
5
10C
100
AcDbEntity
8
DIMENSION
6
ByLayer
62
256
370
-1
100
AcDbDimension
2
*D2
10
7.12598425192
20
7.61220472441
30
0
11
7.02098425192
21
7.49409448819
31
0
70
32
71
5
72
0
3
Standard
53
0
210
0
220
0
230
1
100
AcDbAlignedDimension
13
6.49606299208
23
7.37598425197
33
0
14
6.49606299208
24
7.61220472441
34
0
50
90
100
AcDbRotatedDimension
0
DIMENSION
5
10D
100
AcDbEntity
8
DIMENSION
6
ByLayer
62
256
370
-1
100
AcDbDimension
2
*D3
10
10.5511811023
20
6.33251968504
30
0
11
10.4330708661
21
6.22751968504
31
0
70
32
71
5
72
0
3
Standard
53
0
210
0
220
0
230
1
100
AcDbAlignedDimension
13
10.3149606299
23
5.15157480315
33
0
14
10.5511811023
24
5.15157480315
34
0
50
360
100
AcDbRotatedDimension
0
DIMENSION
5
10E
100
AcDbEntity
8
DIMENSION
6
ByLayer
62
256
370
-1
100
AcDbDimension
2
*D4
10
11.0236220472
20
2.68502362205
30
0
11
10.7283464566
21
2.58002362205
31
0
70
32
71
5
72
0
3
Standard
53
0
210
0
220
0
230
1
100
AcDbAlignedDimension
13
10.4330708661
23
3.18307086614
33
0
14
11.0236220472
24
0.25
34
0
50
360
100
AcDbRotatedDimension
0
DIMENSION
5
10F
100
AcDbEntity
8
DIMENSION
6
ByLayer
62
256
370
-1
100
AcDbDimension
2
*D5
10
3.86318897633
20
0.25
30
0
11
3.75818897633
21
0.545275590551
31
0
70
32
71
5
72
0
3
Standard
53
0
210
0
220
0
230
1
100
AcDbAlignedDimension
13
4.52755905507
23
0.840551181102
33
0
14
0
24
0.25
34
0
50
90
100
AcDbRotatedDimension
0
DIMENSION
5
110
100
AcDbEntity
8
DIMENSION
6
ByLayer
62
256
370
-1
100
AcDbDimension
2
*D6
10
3.07578740153
20
0.25
30
0
11
2.97078740153
21
1.29330708661
31
0
70
32
71
5
72
0
3
Standard
53
0
210
0
220
0
230
1
100
AcDbAlignedDimension
13
4.88681102358
23
2.33661417323
33
0
14
0
24
0.25
34
0
50
90
100
AcDbRotatedDimension
0
DIMENSION
5
111
100
AcDbEntity
8
DIMENSION
6
ByLayer
62
256
370
-1
100
AcDbDimension
2
*D7
10
3.66633858263
20
8.08464566929
30
0
11
3.56133858263
21
7.78937007874
31
0
70
32
71
5
72
0
3
Standard
53
0
210
0
220
0
230
1
100
AcDbAlignedDimension
13
4.52755905507
23
7.49409448819
33
0
14
0.0625
24
8.08464566929
34
0
50
90
100
AcDbRotatedDimension
0
DIMENSION
5
112
100
AcDbEntity
8
DIMENSION
6
ByLayer
62
256
370
-1
100
AcDbDimension
2
*D8
10
2.8297244094
20
8.08464566929
30
0
11
2.7247244094
21
7.04133858268
31
0
70
32
71
5
72
0
3
Standard
53
0
210
0
220
0
230
1
100
AcDbAlignedDimension
13
4.88681102358
23
5.99803149606
33
0
14
0.0625
24
8.08464566929
34
0
50
90
100
AcDbRotatedDimension
0
DIMENSION
5
113
100
AcDbEntity
8
DIMENSION
6
ByLayer
62
256
370
-1
100
AcDbDimension
2
*D9
10
0
20
-1.24606299213
30
0
11
2.75590551177
21
-1.35106299213
31
0
70
32
71
5
72
0
3
Standard
53
0
210
0
220
0
230
1
100
AcDbAlignedDimension
13
5.51181102358
23
0.722440944882
33
0
14
0
24
0.25
34
0
50
360
100
AcDbRotatedDimension
0
DIMENSION
5
114
100
AcDbEntity
8
DIMENSION
6
ByLayer
62
256
370
-1
100
AcDbDimension
2
*D10
10
0
20
9.87106299213
30
0
11
2.75590551177
21
9.76606299213
31
0
70
32
71
5
72
0
3
Standard
53
0
210
0
220
0
230
1
100
AcDbAlignedDimension
13
5.51181102358
23
7.61220472441
33
0
14
0
24
8.08464566929
34
0
50
360
100
AcDbRotatedDimension
0
DIMENSION
5
115
100
AcDbEntity
8
DIMENSION
6
ByLayer
62
256
370
-1
100
AcDbDimension
2
*D11
10
11.7952755905
20
4.16732283465
30
0
11
11.6902755905
21
6.12598425197
31
0
70
32
71
5
72
0
3
Standard
53
0
210
0
220
0
230
1
100
AcDbAlignedDimension
13
10.9611220472
23
8.08464566929
33
0
14
10.5511811023
24
4.16732283465
34
0
50
90
100
AcDbRotatedDimension
0
DIMENSION
5
116
100
AcDbEntity
8
DIMENSION
6
ByLayer
62
256
370
-1
100
AcDbDimension
2
*D12
10
9.55708661413
20
5.15157480315
30
0
11
9.45208661413
21
4.16732283465
31
0
70
32
71
5
72
0
3
Standard
53
0
210
0
220
0
230
1
100
AcDbAlignedDimension
13
10.3149606299
23
3.18307086614
33
0
14
10.3149606299
24
5.15157480315
34
0
50
90
100
AcDbRotatedDimension
0
DIMENSION
5
117
100
AcDbEntity
8
DIMENSION
6
ByLayer
62
256
370
-1
100
AcDbDimension
2
*D13
10
6.49606299208
20
1.59104330709
30
0
11
5.51181102358
21
1.48604330709
31
0
70
32
71
5
72
0
3
Standard
53
0
210
0
220
0
230
1
100
AcDbAlignedDimension
13
4.52755905507
23
0.958661417323
33
0
14
6.49606299208
24
0.958661417323
34
0
50
360
100
AcDbRotatedDimension
0
DIMENSION
5
118
100
AcDbEntity
8
DIMENSION
6
ByLayer
62
256
370
-1
100
AcDbDimension
2
*D14
10
4.88681102358
20
2.9936023622
30
0
11
5.51181102358
21
2.8886023622
31
0
70
32
71
5
72
0
3
Standard
53
0
210
0
220
0
230
1
100
AcDbAlignedDimension
13
6.13681102358
23
2.33661417323
33
0
14
4.88681102358
24
2.33661417323
34
0
50
360
100
AcDbRotatedDimension
0
DIMENSION
5
119
100
AcDbEntity
8
DIMENSION
6
ByLayer
62
256
370
-1
100
AcDbDimension
2
*D15
10
4.88681102358
20
5.38041338583
30
0
11
5.51181102358
21
5.27541338583
31
0
70
32
71
5
72
0
3
Standard
53
0
210
0
220
0
230
1
100
AcDbAlignedDimension
13
6.13681102358
23
5.99803149606
33
0
14
4.88681102358
24
5.99803149606
34
0
50
360
100
AcDbRotatedDimension
0
DIMENSION
5
11A
100
AcDbEntity
8
DIMENSION
6
ByLayer
62
256
370
-1
100
AcDbDimension
2
*D16
10
4.52755905507
20
6.52460629921
30
0
11
5.51181102358
21
6.41960629921
31
0
70
32
71
5
72
0
3
Standard
53
0
210
0
220
0
230
1
100
AcDbAlignedDimension
13
6.49606299208
23
7.37598425197
33
0
14
4.52755905507
24
7.37598425197
34
0
50
360
100
AcDbRotatedDimension
0
DIMENSION
5
11B
100
AcDbEntity
8
DIMENSION
6
ByLayer
62
256
370
-1
100
AcDbDimension
2
*D17
10
0
20
12.2407649483
30
0
11
5.51181102358
21
12.1357649483
31
0
70
32
71
5
72
0
3
Standard
53
0
210
0
220
0
230
1
100
AcDbAlignedDimension
13
11.0236220472
23
8.02214566929
33
0
14
0
24
8.02214566929
34
0
50
360
100
AcDbRotatedDimension
0
DIMENSION
5
11C
100
AcDbEntity
8
DIMENSION
6
ByLayer
62
256
370
-1
100
AcDbDimension
2
*D18
10
-1.1534202756
20
8.08464566929
30
0
11
-1.2584202756
21
4.16732283465
31
0
70
32
71
5
72
0
3
Standard
53
0
210
0
220
0
230
1
100
AcDbAlignedDimension
13
0
23
0.25
33
0
14
0.0625
24
8.08464566929
34
0
50
90
100
AcDbRotatedDimension
0
ENDSEC
0
SECTION
2
OBJECTS
0
DICTIONARY
5
C
330
0
100
AcDbDictionary
281
1
3
ACAD_GROUP
350
D
0
DICTIONARY
5
D
330
C
100
AcDbDictionary
281
1
0
ENDSEC
0
EOF
