999
dxfrw 0.5.11
0
SECTION
2
HEADER
9
$ACADVER
1
AC1021
9
$HANDSEED
5
20000
9
$DWGCODEPAGE
3
ANSI_1252
9
$INSBASE
10
0
20
0
30
0
9
$EXTMIN
10
-96.6635955811
20
-54.4502537596
30
0
9
$EXTMAX
10
1205.61144761
20
289.525
30
0
9
$LIMMIN
10
0
20
0
9
$LIMMAX
10
420
20
297
9
$ORTHOMODE
70
0
9
$LTSCALE
40
1
9
$TEXTSTYLE
7
STANDARD
9
$CLAYER
8
DIMENSION
9
$DIMASZ
40
1
9
$DIMLFAC
40
1
9
$DIMSCALE
40
0.5
9
$DIMEXO
40
0.025
9
$DIMEXE
40
0.05
9
$DIMTXT
40
1
9
$DIMTSZ
40
0
9
$DIMAUNIT
70
0
9
$DIMADEC
70
2
9
$DIMLUNIT
70
2
9
$DIMSTYLE
2
STANDARD
9
$DIMGAP
40
0.025
9
$DIMTIH
70
0
9
$LUNITS
70
2
9
$LUPREC
70
4
9
$AUNITS
70
0
9
$AUPREC
70
2
9
$SPLINESEGS
70
8
9
$GRIDMODE
70
1
9
$SNAPSTYLE
70
0
9
$GRIDUNIT
10
0
20
0
9
$PINSBASE
10
0
20
0
30
0
9
$PLIMMIN
10
0
20
0
9
$PLIMMAX
10
0.000504528
20
0.000713547
9
$INSUNITS
70
4
9
$PSVPSCALE
40
1
0
ENDSEC
0
SECTION
2
CLASSES
0
ENDSEC
0
SECTION
2
TABLES
0
TABLE
2
VPORT
5
8
330
0
100
AcDbSymbolTable
70
1
0
VPORT
5
31
330
2
100
AcDbSymbolTableRecord
100
AcDbViewportTableRecord
2
*ACTIVE
70
0
10
0
20
0
11
1
21
1
12
26.0727005406
22
15.1954957838
13
0
23
0
14
10
24
10
15
10
25
10
16
0
26
0
36
1
17
0
27
0
37
0
40
56.9525552433
41
1.27038626609
42
50
43
0
44
0
50
0
51
0
71
0
72
100
73
1
74
3
75
0
76
1
77
0
78
0
281
0
65
1
110
0
120
0
130
0
111
1
121
0
131
0
112
0
122
1
132
0
79
0
146
0
348
10020
60
7
61
5
292
1
282
1
141
0
142
0
63
250
421
3358443
0
ENDTAB
0
TABLE
2
LTYPE
5
5
330
0
100
AcDbSymbolTable
70
4
0
LTYPE
5
14
330
5
100
AcDbSymbolTableRecord
100
AcDbLinetypeTableRecord
2
ByBlock
70
0
3

72
65
73
0
40
0
0
LTYPE
5
15
330
5
100
AcDbSymbolTableRecord
100
AcDbLinetypeTableRecord
2
ByLayer
70
0
3

72
65
73
0
40
0
0
LTYPE
5
16
330
5
100
AcDbSymbolTableRecord
100
AcDbLinetypeTableRecord
2
Continuous
70
0
3
Solid line
72
65
73
0
40
0
0
LTYPE
5
32
330
5
100
AcDbSymbolTableRecord
100
AcDbLinetypeTableRecord
2
DOT
70
0
3
Dot . . . . . . . . . . . . . . . . . . . . . .
72
65
73
2
40
6.35
49
0
74
0
49
-6.35
74
0
0
LTYPE
5
33
330
5
100
AcDbSymbolTableRecord
100
AcDbLinetypeTableRecord
2
DOT2
70
0
3
Dot (.5x) .....................................
72
65
73
2
40
3.175
49
0
74
0
49
-3.175
74
0
0
LTYPE
5
34
330
5
100
AcDbSymbolTableRecord
100
AcDbLinetypeTableRecord
2
DOTX2
70
0
3
Dot (2x) .  .  .  .  .  .  .  .  .  .  .  .  .
72
65
73
2
40
12.7
49
0
74
0
49
-12.7
74
0
0
LTYPE
5
35
330
5
100
AcDbSymbolTableRecord
100
AcDbLinetypeTableRecord
2
DASHED
70
0
3
Dot . . . . . . . . . . . . . . . . . . . . . .
72
65
73
2
40
19.05
49
12.7
74
0
49
-6.35
74
0
0
LTYPE
5
36
330
5
100
AcDbSymbolTableRecord
100
AcDbLinetypeTableRecord
2
DASHED2
70
0
3
Dashed (.5x) _ _ _ _ _ _ _ _ _ _ _ _ _ _ _ _ _
72
65
73
2
40
9.525
49
6.35
74
0
49
-3.175
74
0
0
LTYPE
5
37
330
5
100
AcDbSymbolTableRecord
100
AcDbLinetypeTableRecord
2
DASHEDX2
70
0
3
Dashed (2x) ____  ____  ____  ____  ____  ___
72
65
73
2
40
38.1
49
25.4
74
0
49
-12.7
74
0
0
LTYPE
5
38
330
5
100
AcDbSymbolTableRecord
100
AcDbLinetypeTableRecord
2
DASHDOT
70
0
3
Dash dot __ . __ . __ . __ . __ . __ . __ . __
72
65
73
4
40
25.4
49
12.7
74
0
49
-6.35
74
0
49
0
74
0
49
-6.35
74
0
0
LTYPE
5
39
330
5
100
AcDbSymbolTableRecord
100
AcDbLinetypeTableRecord
2
DASHDOT2
70
0
3
Dash dot (.5x) _._._._._._._._._._._._._._._.
72
65
73
4
40
12.7
49
6.35
74
0
49
-3.175
74
0
49
0
74
0
49
-3.175
74
0
0
LTYPE
5
3A
330
5
100
AcDbSymbolTableRecord
100
AcDbLinetypeTableRecord
2
DASHDOTX2
70
0
3
Dash dot (2x) ____  .  ____  .  ____  .  ___
72
65
73
4
40
50.8
49
25.4
74
0
49
-12.7
74
0
49
0
74
0
49
-12.7
74
0
0
LTYPE
5
3B
330
5
100
AcDbSymbolTableRecord
100
AcDbLinetypeTableRecord
2
DIVIDE
70
0
3
Divide ____ . . ____ . . ____ . . ____ . . ____
72
65
73
6
40
31.75
49
12.7
74
0
49
-6.35
74
0
49
0
74
0
49
-6.35
74
0
49
0
74
0
49
-6.35
74
0
0
LTYPE
5
3C
330
5
100
AcDbSymbolTableRecord
100
AcDbLinetypeTableRecord
2
DIVIDE2
70
0
3
Divide (.5x) __..__..__..__..__..__..__..__.._
72
65
73
6
40
15.875
49
6.35
74
0
49
-3.175
74
0
49
0
74
0
49
-3.175
74
0
49
0
74
0
49
-3.175
74
0
0
LTYPE
5
3D
330
5
100
AcDbSymbolTableRecord
100
AcDbLinetypeTableRecord
2
DIVIDEX2
70
0
3
Divide (2x) ________  .  .  ________  .  .  _
72
65
73
6
40
63.5
49
25.4
74
0
49
-12.7
74
0
49
0
74
0
49
-12.7
74
0
49
0
74
0
49
-12.7
74
0
0
LTYPE
5
3E
330
5
100
AcDbSymbolTableRecord
100
AcDbLinetypeTableRecord
2
BORDER
70
0
3
Border __ __ . __ __ . __ __ . __ __ . __ __ .
72
65
73
6
40
44.45
49
12.7
74
0
49
-6.35
74
0
49
12.7
74
0
49
-6.35
74
0
49
0
74
0
49
-6.35
74
0
0
LTYPE
5
3F
330
5
100
AcDbSymbolTableRecord
100
AcDbLinetypeTableRecord
2
BORDER2
70
0
3
Border (.5x) __.__.__.__.__.__.__.__.__.__.__.
72
65
73
6
40
22.225
49
6.35
74
0
49
-3.175
74
0
49
6.35
74
0
49
-3.175
74
0
49
0
74
0
49
-3.175
74
0
0
LTYPE
5
40
330
5
100
AcDbSymbolTableRecord
100
AcDbLinetypeTableRecord
2
BORDERX2
70
0
3
Border (2x) ____  ____  .  ____  ____  .  ___
72
65
73
6
40
88.9
49
25.4
74
0
49
-12.7
74
0
49
25.4
74
0
49
-12.7
74
0
49
0
74
0
49
-12.7
74
0
0
LTYPE
5
41
330
5
100
AcDbSymbolTableRecord
100
AcDbLinetypeTableRecord
2
CENTER
70
0
3
Center ____ _ ____ _ ____ _ ____ _ ____ _ ____
72
65
73
4
40
50.8
49
31.75
74
0
49
-6.35
74
0
49
6.35
74
0
49
-6.35
74
0
0
LTYPE
5
42
330
5
100
AcDbSymbolTableRecord
100
AcDbLinetypeTableRecord
2
CENTER2
70
0
3
Center (.5x) ___ _ ___ _ ___ _ ___ _ ___ _ ___
72
65
73
4
40
28.575
49
19.05
74
0
49
-3.175
74
0
49
3.175
74
0
49
-3.175
74
0
0
LTYPE
5
43
330
5
100
AcDbSymbolTableRecord
100
AcDbLinetypeTableRecord
2
CENTERX2
70
0
3
Center (2x) ________  __  ________  __  _____
72
65
73
4
40
101.6
49
63.5
74
0
49
-12.7
74
0
49
12.7
74
0
49
-12.7
74
0
0
ENDTAB
0
TABLE
2
LAYER
5
2
330
0
100
AcDbSymbolTable
70
1
0
LAYER
5
10
330
2
100
AcDbSymbolTableRecord
100
AcDbLayerTableRecord
2
0
70
0
62
7
6
CONTINUOUS
370
0
390
F
0
LAYER
5
44
330
2
100
AcDbSymbolTableRecord
100
AcDbLayerTableRecord
2
6-32_TAP_HOLE
70
0
62
2
6
CONTINUOUS
370
0
390
F
0
LAYER
5
45
330
2
100
AcDbSymbolTableRecord
100
AcDbLayerTableRecord
2
ALIGNMENT_POCKET
70
0
62
6
6
CONTINUOUS
370
0
390
F
0
LAYER
5
46
330
2
100
AcDbSymbolTableRecord
100
AcDbLayerTableRecord
2
DIMENSION
70
0
62
7
6
CONTINUOUS
370
0
390
F
0
LAYER
5
47
330
2
100
AcDbSymbolTableRecord
100
AcDbLayerTableRecord
2
OUTER_BOUNDARY
70
0
62
5
6
CONTINUOUS
370
0
390
F
0
LAYER
5
48
330
2
100
AcDbSymbolTableRecord
100
AcDbLayerTableRecord
2
REFERENCE
70
0
62
253
420
10526884
6
CONTINUOUS
370
0
390
F
0
ENDTAB
0
TABLE
2
STYLE
5
3
330
0
100
AcDbSymbolTable
70
3
0
STYLE
5
49
330
2
100
AcDbSymbolTableRecord
100
AcDbTextStyleTableRecord
2
Standard
70
0
40
0
41
1
50
0
71
0
42
1
3
txt
4

0
ENDTAB
0
TABLE
2
VIEW
5
6
330
0
100
AcDbSymbolTable
70
0
0
ENDTAB
0
TABLE
2
UCS
5
7
330
0
100
AcDbSymbolTable
70
0
0
ENDTAB
0
TABLE
2
APPID
5
9
330
0
100
AcDbSymbolTable
70
1
0
APPID
5
12
330
9
100
AcDbSymbolTableRecord
100
AcDbRegAppTableRecord
2
ACAD
70
0
0
ENDTAB
0
TABLE
2
DIMSTYLE
5
A
330
0
100
AcDbSymbolTable
70
1
100
AcDbDimStyleTable
71
1
0
DIMSTYLE
105
4A
330
A
100
AcDbSymbolTableRecord
100
AcDbDimStyleTableRecord
2
Standard
70
0
40
1
41
1
42
0.025
43
0.38
44
0.05
45
0
46
0
47
0
48
0
140
1
141
0.09
142
0
143
25.4
144
1
145
0
146
1
147
0.025
148
0
71
0
72
0
73
0
74
1
75
0
76
0
77
0
78
0
79
0
170
0
171
2
172
0
173
0
174
0
175
0
176
0
177
0
178
0
179
0
271
4
272
4
273
2
274
2
275
0
276
0
277
2
278
46
279
0
280
0
281
0
282
0
283
1
284
0
285
0
286
0
288
0
289
3
340
Standard
341

371
-2
372
-2
0
ENDTAB
0
TABLE
2
BLOCK_RECORD
5
1
330
0
100
AcDbSymbolTable
70
2
0
BLOCK_RECORD
5
1F
330
1
100
AcDbSymbolTableRecord
100
AcDbBlockTableRecord
2
*Model_Space
70
0
280
1
281
0
0
BLOCK_RECORD
5
1E
330
1
100
AcDbSymbolTableRecord
100
AcDbBlockTableRecord
2
*Paper_Space
70
0
280
1
281
0
0
BLOCK_RECORD
5
4B
330
1
100
AcDbSymbolTableRecord
100
AcDbBlockTableRecord
2
*D15
70
0
280
1
281
0
0
BLOCK_RECORD
5
4E
330
1
100
AcDbSymbolTableRecord
100
AcDbBlockTableRecord
2
*D32
70
0
280
1
281
0
0
BLOCK_RECORD
5
51
330
1
100
AcDbSymbolTableRecord
100
AcDbBlockTableRecord
2
*D9
70
0
280
1
281
0
0
BLOCK_RECORD
5
54
330
1
100
AcDbSymbolTableRecord
100
AcDbBlockTableRecord
2
*D11
70
0
280
1
281
0
0
BLOCK_RECORD
5
57
330
1
100
AcDbSymbolTableRecord
100
AcDbBlockTableRecord
2
*D34
70
0
280
1
281
0
0
BLOCK_RECORD
5
5A
330
1
100
AcDbSymbolTableRecord
100
AcDbBlockTableRecord
2
*D21
70
0
280
1
281
0
0
BLOCK_RECORD
5
5D
330
1
100
AcDbSymbolTableRecord
100
AcDbBlockTableRecord
2
*D6
70
0
280
1
281
0
0
BLOCK_RECORD
5
60
330
1
100
AcDbSymbolTableRecord
100
AcDbBlockTableRecord
2
*D1
70
0
280
1
281
0
0
BLOCK_RECORD
5
63
330
1
100
AcDbSymbolTableRecord
100
AcDbBlockTableRecord
2
*D24
70
0
280
1
281
0
0
BLOCK_RECORD
5
66
330
1
100
AcDbSymbolTableRecord
100
AcDbBlockTableRecord
2
*D27
70
0
280
1
281
0
0
BLOCK_RECORD
5
69
330
1
100
AcDbSymbolTableRecord
100
AcDbBlockTableRecord
2
*D3
70
0
280
1
281
0
0
BLOCK_RECORD
5
6C
330
1
100
AcDbSymbolTableRecord
100
AcDbBlockTableRecord
2
*D17
70
0
280
1
281
0
0
BLOCK_RECORD
5
6F
330
1
100
AcDbSymbolTableRecord
100
AcDbBlockTableRecord
2
*D19
70
0
280
1
281
0
0
BLOCK_RECORD
5
72
330
1
100
AcDbSymbolTableRecord
100
AcDbBlockTableRecord
2
*D8
70
0
280
1
281
0
0
BLOCK_RECORD
5
75
330
1
100
AcDbSymbolTableRecord
100
AcDbBlockTableRecord
2
*D20
70
0
280
1
281
0
0
BLOCK_RECORD
5
78
330
1
100
AcDbSymbolTableRecord
100
AcDbBlockTableRecord
2
*D22
70
0
280
1
281
0
0
BLOCK_RECORD
5
7B
330
1
100
AcDbSymbolTableRecord
100
AcDbBlockTableRecord
2
*D7
70
0
280
1
281
0
0
BLOCK_RECORD
5
7E
330
1
100
AcDbSymbolTableRecord
100
AcDbBlockTableRecord
2
*D29
70
0
280
1
281
0
0
BLOCK_RECORD
5
81
330
1
100
AcDbSymbolTableRecord
100
AcDbBlockTableRecord
2
*D2
70
0
280
1
281
0
0
BLOCK_RECORD
5
84
330
1
100
AcDbSymbolTableRecord
100
AcDbBlockTableRecord
2
*D13
70
0
280
1
281
0
0
BLOCK_RECORD
5
87
330
1
100
AcDbSymbolTableRecord
100
AcDbBlockTableRecord
2
*D23
70
0
280
1
281
0
0
BLOCK_RECORD
5
8A
330
1
100
AcDbSymbolTableRecord
100
AcDbBlockTableRecord
2
*D10
70
0
280
1
281
0
0
BLOCK_RECORD
5
8D
330
1
100
AcDbSymbolTableRecord
100
AcDbBlockTableRecord
2
*D18
70
0
280
1
281
0
0
BLOCK_RECORD
5
90
330
1
100
AcDbSymbolTableRecord
100
AcDbBlockTableRecord
2
*D16
70
0
280
1
281
0
0
BLOCK_RECORD
5
93
330
1
100
AcDbSymbolTableRecord
100
AcDbBlockTableRecord
2
*D12
70
0
280
1
281
0
0
BLOCK_RECORD
5
96
330
1
100
AcDbSymbolTableRecord
100
AcDbBlockTableRecord
2
*D5
70
0
280
1
281
0
0
BLOCK_RECORD
5
99
330
1
100
AcDbSymbolTableRecord
100
AcDbBlockTableRecord
2
*D4
70
0
280
1
281
0
0
BLOCK_RECORD
5
9C
330
1
100
AcDbSymbolTableRecord
100
AcDbBlockTableRecord
2
*D26
70
0
280
1
281
0
0
BLOCK_RECORD
5
9F
330
1
100
AcDbSymbolTableRecord
100
AcDbBlockTableRecord
2
*D33
70
0
280
1
281
0
0
BLOCK_RECORD
5
A2
330
1
100
AcDbSymbolTableRecord
100
AcDbBlockTableRecord
2
*D30
70
0
280
1
281
0
0
BLOCK_RECORD
5
A5
330
1
100
AcDbSymbolTableRecord
100
AcDbBlockTableRecord
2
*D28
70
0
280
1
281
0
0
BLOCK_RECORD
5
A8
330
1
100
AcDbSymbolTableRecord
100
AcDbBlockTableRecord
2
*D25
70
0
280
1
281
0
0
BLOCK_RECORD
5
AB
330
1
100
AcDbSymbolTableRecord
100
AcDbBlockTableRecord
2
*D14
70
0
280
1
281
0
0
BLOCK_RECORD
5
AE
330
1
100
AcDbSymbolTableRecord
100
AcDbBlockTableRecord
2
*D31
70
0
280
1
281
0
0
ENDTAB
0
ENDSEC
0
SECTION
2
BLOCKS
0
BLOCK
5
20
330
1F
100
AcDbEntity
8
0
100
AcDbBlockBegin
2
*Model_Space
70
0
10
0
20
0
30
0
3
*Model_Space
1

0
ENDBLK
5
21
330
1F
100
AcDbEntity
8
0
100
AcDbBlockEnd
0
BLOCK
5
1C
330
1B
100
AcDbEntity
8
0
100
AcDbBlockBegin
2
*Paper_Space
70
0
10
0
20
0
30
0
3
*Paper_Space
1

0
ENDBLK
5
1D
330
1F
100
AcDbEntity
8
0
100
AcDbBlockEnd
0
BLOCK
5
4C
330
4B
100
AcDbEntity
8
0
100
AcDbBlockBegin
2
*D15
70
1
10
0
20
0
3
*D15
1

0
LINE
5
B1
100
AcDbEntity
8
DIMENSION
6
CONTINUOUS
62
7
370
0
100
AcDbLine
10
35.1102362205
20
7.32086614173
11
35.1102362205
21
9.91141732283
0
SOLID
5
B2
100
AcDbEntity
8
DIMENSION
6
CONTINUOUS
62
7
370
0
100
AcDbTrace
10
35.1102362205
20
8.32086614173
30
0
11
35.193493152
21
7.82086614173
31
0
12
35.0269792889
22
7.82086614173
32
0
13
35.0269792889
23
7.82086614173
33
0
0
SOLID
5
B3
100
AcDbEntity
8
DIMENSION
6
CONTINUOUS
62
7
370
0
100
AcDbTrace
10
35.1102362205
20
8.91141732283
30
0
11
35.0269792889
21
9.41141732283
31
0
12
35.193493152
22
9.41141732283
32
0
13
35.193493152
23
9.41141732283
33
0
0
MTEXT
5
B4
100
AcDbEntity
8
DIMENSION
6
CONTINUOUS
62
7
370
0
100
AcDbMText
10
34.8477362205
20
9.89613954506
30
0
40
0.5
41
1.94444444444
71
5
72
1
1
0.5906
7
standard
210
0
220
0
230
1
50
90
73
2
44
1
0
LINE
5
B5
100
AcDbEntity
8
DIMENSION
6
CONTINUOUS
62
7
370
0
100
AcDbLine
10
33.4770669291
20
8.32086614173
11
35.1352362205
21
8.32086614173
0
LINE
5
B6
100
AcDbEntity
8
DIMENSION
6
CONTINUOUS
62
7
370
0
100
AcDbLine
10
39.0346456693
20
8.91141732283
11
35.1352362205
21
8.91141732283
0
ENDBLK
5
4D
330
4B
100
AcDbEntity
8
0
100
AcDbBlockEnd
0
BLOCK
5
4F
330
4E
100
AcDbEntity
8
0
100
AcDbBlockBegin
2
*D32
70
1
10
0
20
0
3
*D32
1

0
LINE
5
B7
100
AcDbEntity
8
DIMENSION
6
CONTINUOUS
62
7
370
0
100
AcDbLine
10
32.4803149606
20
-1.05720964567
11
43.3070866142
21
-1.05720964567
0
SOLID
5
B8
100
AcDbEntity
8
DIMENSION
6
CONTINUOUS
62
7
370
0
100
AcDbTrace
10
32.4803149606
20
-1.05720964567
30
0
11
32.9803149606
21
-0.973952714115
31
0
12
32.9803149606
22
-1.14046657722
32
0
13
32.9803149606
23
-1.14046657722
33
0
0
SOLID
5
B9
100
AcDbEntity
8
DIMENSION
6
CONTINUOUS
62
7
370
0
100
AcDbTrace
10
43.3070866142
20
-1.05720964567
30
0
11
42.8070866142
21
-1.14046657722
31
0
12
42.8070866142
22
-0.973952714115
32
0
13
42.8070866142
23
-0.973952714115
33
0
0
MTEXT
5
BA
100
AcDbEntity
8
DIMENSION
6
CONTINUOUS
62
7
370
0
100
AcDbMText
10
37.8937007874
20
-0.794709645669
30
0
40
0.5
41
2.22222222222
71
5
72
1
1
10.8268
7
standard
210
0
220
0
230
1
50
0
73
2
44
1
0
LINE
5
BB
100
AcDbEntity
8
DIMENSION
6
CONTINUOUS
62
7
370
0
100
AcDbLine
10
32.4803149606
20
0.709940944882
11
32.4803149606
21
-1.08220964567
0
LINE
5
BC
100
AcDbEntity
8
DIMENSION
6
CONTINUOUS
62
7
370
0
100
AcDbLine
10
43.3070866142
20
0.2375
11
43.3070866142
21
-1.08220964567
0
ENDBLK
5
50
330
4E
100
AcDbEntity
8
0
100
AcDbBlockEnd
0
BLOCK
5
52
330
51
100
AcDbEntity
8
0
100
AcDbBlockBegin
2
*D9
70
1
10
0
20
0
3
*D9
1

0
LINE
5
BD
100
AcDbEntity
8
DIMENSION
6
CONTINUOUS
62
7
370
0
100
AcDbLine
10
12.906003937
20
9.43897637795
11
12.906003937
21
7.20275590551
0
SOLID
5
BE
100
AcDbEntity
8
DIMENSION
6
CONTINUOUS
62
7
370
0
100
AcDbTrace
10
12.906003937
20
8.43897637795
30
0
11
12.8227470055
21
8.93897637795
31
0
12
12.9892608686
22
8.93897637795
32
0
13
12.9892608686
23
8.93897637795
33
0
0
SOLID
5
BF
100
AcDbEntity
8
DIMENSION
6
CONTINUOUS
62
7
370
0
100
AcDbTrace
10
12.906003937
20
8.20275590551
30
0
11
12.9892608686
21
7.70275590551
31
0
12
12.8227470055
22
7.70275590551
32
0
13
12.8227470055
23
7.70275590551
33
0
0
MTEXT
5
C0
100
AcDbEntity
8
DIMENSION
6
CONTINUOUS
62
7
370
0
100
AcDbMText
10
12.643503937
20
9.42369860018
30
0
40
0.5
41
1.94444444444
71
5
72
1
1
0.2362
7
standard
210
0
220
0
230
1
50
90
73
2
44
1
0
LINE
5
C1
100
AcDbEntity
8
DIMENSION
6
CONTINUOUS
62
7
370
0
100
AcDbLine
10
11.823523622
20
8.43897637795
11
12.931003937
21
8.43897637795
0
LINE
5
C2
100
AcDbEntity
8
DIMENSION
6
CONTINUOUS
62
7
370
0
100
AcDbLine
10
11.823523622
20
8.20275590551
11
12.931003937
21
8.20275590551
0
ENDBLK
5
53
330
51
100
AcDbEntity
8
0
100
AcDbBlockEnd
0
BLOCK
5
55
330
54
100
AcDbEntity
8
0
100
AcDbBlockBegin
2
*D11
70
1
10
0
20
0
3
*D11
1

0
LINE
5
C3
100
AcDbEntity
8
DIMENSION
6
CONTINUOUS
62
7
370
0
100
AcDbLine
10
30.3734005906
20
1.95866141732
11
30.3734005906
21
-0.277559055118
0
SOLID
5
C4
100
AcDbEntity
8
DIMENSION
6
CONTINUOUS
62
7
370
0
100
AcDbTrace
10
30.3734005906
20
0.958661417323
30
0
11
30.290143659
21
1.45866141732
31
0
12
30.4566575221
22
1.45866141732
32
0
13
30.4566575221
23
1.45866141732
33
0
0
SOLID
5
C5
100
AcDbEntity
8
DIMENSION
6
CONTINUOUS
62
7
370
0
100
AcDbTrace
10
30.3734005906
20
0.722440944882
30
0
11
30.4566575221
21
0.222440944882
31
0
12
30.290143659
22
0.222440944882
32
0
13
30.290143659
23
0.222440944882
33
0
0
MTEXT
5
C6
100
AcDbEntity
8
DIMENSION
6
CONTINUOUS
62
7
370
0
100
AcDbMText
10
30.1109005906
20
1.94338363955
30
0
40
0.5
41
1.94444444444
71
5
72
1
1
0.2362
7
standard
210
0
220
0
230
1
50
90
73
2
44
1
0
LINE
5
C7
100
AcDbEntity
8
DIMENSION
6
CONTINUOUS
62
7
370
0
100
AcDbLine
10
31.4835629921
20
0.958661417323
11
30.3484005906
21
0.958661417323
0
LINE
5
C8
100
AcDbEntity
8
DIMENSION
6
CONTINUOUS
62
7
370
0
100
AcDbLine
10
31.4835629921
20
0.722440944882
11
30.3484005906
21
0.722440944882
0
ENDBLK
5
56
330
54
100
AcDbEntity
8
0
100
AcDbBlockEnd
0
BLOCK
5
58
330
57
100
AcDbEntity
8
0
100
AcDbBlockBegin
2
*D34
70
1
10
0
20
0
3
*D34
1

0
LINE
5
C9
100
AcDbEntity
8
DIMENSION
6
CONTINUOUS
62
7
370
0
100
AcDbLine
10
10.8267716535
20
11.1751968504
11
0
21
11.1751968504
0
SOLID
5
CA
100
AcDbEntity
8
DIMENSION
6
CONTINUOUS
62
7
370
0
100
AcDbTrace
10
10.8267716535
20
11.1751968504
30
0
11
10.3267716535
21
11.0919399188
31
0
12
10.3267716535
22
11.2584537819
32
0
13
10.3267716535
23
11.2584537819
33
0
0
SOLID
5
CB
100
AcDbEntity
8
DIMENSION
6
CONTINUOUS
62
7
370
0
100
AcDbTrace
10
0
20
11.1751968504
30
0
11
0.5
21
11.2584537819
31
0
12
0.5
22
11.0919399188
32
0
13
0.5
23
11.0919399188
33
0
0
MTEXT
5
CC
100
AcDbEntity
8
DIMENSION
6
CONTINUOUS
62
7
370
0
100
AcDbMText
10
5.41338582677
20
11.4376968504
30
0
40
0.5
41
2.22222222222
71
5
72
1
1
10.8268
7
standard
210
0
220
0
230
1
50
360
73
2
44
1
0
LINE
5
CD
100
AcDbEntity
8
DIMENSION
6
CONTINUOUS
62
7
370
0
100
AcDbLine
10
10.8267716535
20
8.45147637795
11
10.8267716535
21
11.2001968504
0
LINE
5
CE
100
AcDbEntity
8
DIMENSION
6
CONTINUOUS
62
7
370
0
100
AcDbLine
10
7.65378971139e-19
20
8.86141732283
11
1.53075794228e-18
21
11.2001968504
0
ENDBLK
5
59
330
57
100
AcDbEntity
8
0
100
AcDbBlockEnd
0
BLOCK
5
5B
330
5A
100
AcDbEntity
8
0
100
AcDbBlockBegin
2
*D21
70
1
10
0
20
0
3
*D21
1

0
LINE
5
CF
100
AcDbEntity
8
DIMENSION
6
CONTINUOUS
62
7
370
0
100
AcDbLine
10
47.3863496555
20
8.91141732283
11
47.3863496555
21
0.25
0
SOLID
5
D0
100
AcDbEntity
8
DIMENSION
6
CONTINUOUS
62
7
370
0
100
AcDbTrace
10
47.3863496555
20
8.91141732283
30
0
11
47.4696065871
21
8.41141732283
31
0
12
47.303092724
22
8.41141732283
32
0
13
47.303092724
23
8.41141732283
33
0
0
SOLID
5
D1
100
AcDbEntity
8
DIMENSION
6
CONTINUOUS
62
7
370
0
100
AcDbTrace
10
47.3863496555
20
0.25
30
0
11
47.303092724
21
0.75
31
0
12
47.4696065871
22
0.75
32
0
13
47.4696065871
23
0.75
33
0
0
MTEXT
5
D2
100
AcDbEntity
8
DIMENSION
6
CONTINUOUS
62
7
370
0
100
AcDbMText
10
47.1238496555
20
4.58070866142
30
0
40
0.5
41
1.88888888889
71
5
72
1
1
8.6614
7
standard
210
0
220
0
230
1
50
90
73
2
44
1
0
LINE
5
D3
100
AcDbEntity
8
DIMENSION
6
CONTINUOUS
62
7
370
0
100
AcDbLine
10
43.2570866142
20
8.91141732283
11
47.4113496555
21
8.91141732283
0
LINE
5
D4
100
AcDbEntity
8
DIMENSION
6
CONTINUOUS
62
7
370
0
100
AcDbLine
10
43.3195866142
20
0.25
11
47.4113496555
21
0.25
0
ENDBLK
5
5C
330
5A
100
AcDbEntity
8
0
100
AcDbBlockEnd
0
BLOCK
5
5E
330
5D
100
AcDbEntity
8
0
100
AcDbBlockBegin
2
*D6
70
1
10
0
20
0
3
*D6
1

0
LINE
5
D5
100
AcDbEntity
8
DIMENSION
6
CONTINUOUS
62
7
370
0
100
AcDbLine
10
31.4960629921
20
1.58796751969
11
33.4645669291
21
1.58796751969
0
SOLID
5
D6
100
AcDbEntity
8
DIMENSION
6
CONTINUOUS
62
7
370
0
100
AcDbTrace
10
31.4960629921
20
1.58796751969
30
0
11
31.9960629921
21
1.67122445124
31
0
12
31.9960629921
22
1.50471058813
32
0
13
31.9960629921
23
1.50471058813
33
0
0
SOLID
5
D7
100
AcDbEntity
8
DIMENSION
6
CONTINUOUS
62
7
370
0
100
AcDbTrace
10
33.4645669291
20
1.58796751969
30
0
11
32.9645669291
21
1.50471058813
31
0
12
32.9645669291
22
1.67122445124
32
0
13
32.9645669291
23
1.67122445124
33
0
0
MTEXT
5
D8
100
AcDbEntity
8
DIMENSION
6
CONTINUOUS
62
7
370
0
100
AcDbMText
10
32.4803149606
20
1.85046751969
30
0
40
0.5
41
1.83333333333
71
5
72
1
1
1.9685
7
standard
210
0
220
0
230
1
50
0
73
2
44
1
0
LINE
5
D9
100
AcDbEntity
8
DIMENSION
6
CONTINUOUS
62
7
370
0
100
AcDbLine
10
31.4960629921
20
0.971161417323
11
31.4960629921
21
1.61296751969
0
LINE
5
DA
100
AcDbEntity
8
DIMENSION
6
CONTINUOUS
62
7
370
0
100
AcDbLine
10
33.4645669291
20
0.971161417323
11
33.4645669291
21
1.61296751969
0
ENDBLK
5
5F
330
5D
100
AcDbEntity
8
0
100
AcDbBlockEnd
0
BLOCK
5
61
330
60
100
AcDbEntity
8
0
100
AcDbBlockBegin
2
*D1
70
1
10
0
20
0
3
*D1
1

0
LINE
5
DB
100
AcDbEntity
8
DIMENSION
6
CONTINUOUS
62
7
370
0
100
AcDbLine
10
10.2017716535
20
5.88484251969
11
11.4517716535
21
5.88484251969
0
SOLID
5
DC
100
AcDbEntity
8
DIMENSION
6
CONTINUOUS
62
7
370
0
100
AcDbTrace
10
10.2017716535
20
5.88484251969
30
0
11
10.7017716535
21
5.96809945124
31
0
12
10.7017716535
22
5.80158558813
32
0
13
10.7017716535
23
5.80158558813
33
0
0
SOLID
5
DD
100
AcDbEntity
8
DIMENSION
6
CONTINUOUS
62
7
370
0
100
AcDbTrace
10
11.4517716535
20
5.88484251969
30
0
11
10.9517716535
21
5.80158558813
31
0
12
10.9517716535
22
5.96809945124
32
0
13
10.9517716535
23
5.96809945124
33
0
0
MTEXT
5
DE
100
AcDbEntity
8
DIMENSION
6
CONTINUOUS
62
7
370
0
100
AcDbMText
10
10.8267716535
20
6.14734251969
30
0
40
0.5
41
1.05555555556
71
5
72
1
1
1.25
7
standard
210
0
220
0
230
1
50
0
73
2
44
1
0
LINE
5
DF
100
AcDbEntity
8
DIMENSION
6
CONTINUOUS
62
7
370
0
100
AcDbLine
10
10.2017716535
20
6.81230314961
11
10.2017716535
21
5.85984251969
0
LINE
5
E0
100
AcDbEntity
8
DIMENSION
6
CONTINUOUS
62
7
370
0
100
AcDbLine
10
11.4517716535
20
6.81230314961
11
11.4517716535
21
5.85984251969
0
ENDBLK
5
62
330
60
100
AcDbEntity
8
0
100
AcDbBlockEnd
0
BLOCK
5
64
330
63
100
AcDbEntity
8
0
100
AcDbBlockBegin
2
*D24
70
1
10
0
20
0
3
*D24
1

0
LINE
5
E1
100
AcDbEntity
8
DIMENSION
6
CONTINUOUS
62
7
370
0
100
AcDbLine
10
-3.33222817248
20
0
11
-3.33222817248
21
8.91141732283
0
SOLID
5
E2
100
AcDbEntity
8
DIMENSION
6
CONTINUOUS
62
7
370
0
100
AcDbTrace
10
-3.33222817248
20
0
30
0
11
-3.41548510404
21
0.5
31
0
12
-3.24897124093
22
0.5
32
0
13
-3.24897124093
23
0.5
33
0
0
SOLID
5
E3
100
AcDbEntity
8
DIMENSION
6
CONTINUOUS
62
7
370
0
100
AcDbTrace
10
-3.33222817248
20
8.91141732283
30
0
11
-3.24897124093
21
8.41141732283
31
0
12
-3.41548510404
22
8.41141732283
32
0
13
-3.41548510404
23
8.41141732283
33
0
0
MTEXT
5
E4
100
AcDbEntity
8
DIMENSION
6
CONTINUOUS
62
7
370
0
100
AcDbMText
10
-3.59472817248
20
4.45570866142
30
0
40
0.5
41
1.77777777778
71
5
72
1
1
8.9114
7
standard
210
0
220
0
230
1
50
90
73
2
44
1
0
LINE
5
E5
100
AcDbEntity
8
DIMENSION
6
CONTINUOUS
62
7
370
0
100
AcDbLine
10
0.05
20
2.92863335579e-17
11
-3.35722817248
21
3.06151588456e-18
0
LINE
5
E6
100
AcDbEntity
8
DIMENSION
6
CONTINUOUS
62
7
370
0
100
AcDbLine
10
0.05
20
8.91141732283
11
-3.35722817248
21
8.91141732283
0
ENDBLK
5
65
330
63
100
AcDbEntity
8
0
100
AcDbBlockEnd
0
BLOCK
5
67
330
66
100
AcDbEntity
8
0
100
AcDbBlockBegin
2
*D27
70
1
10
0
20
0
3
*D27
1

0
LINE
5
E7
100
AcDbEntity
8
DIMENSION
6
CONTINUOUS
62
7
370
0
100
AcDbLine
10
3.23818897638
20
9.76968503937
11
8.74191357972e-18
21
9.76968503937
0
SOLID
5
E8
100
AcDbEntity
8
DIMENSION
6
CONTINUOUS
62
7
370
0
100
AcDbTrace
10
3.23818897638
20
9.76968503937
30
0
11
2.73818897638
21
9.68642810782
31
0
12
2.73818897638
22
9.85294197092
32
0
13
2.73818897638
23
9.85294197092
33
0
0
SOLID
5
E9
100
AcDbEntity
8
DIMENSION
6
CONTINUOUS
62
7
370
0
100
AcDbTrace
10
8.74191357972e-18
20
9.76968503937
30
0
11
0.5
21
9.85294197092
31
0
12
0.5
22
9.68642810782
32
0
13
0.5
23
9.68642810782
33
0
0
MTEXT
5
EA
100
AcDbEntity
8
DIMENSION
6
CONTINUOUS
62
7
370
0
100
AcDbMText
10
1.61909448819
20
10.0321850394
30
0
40
0.5
41
1.94444444444
71
5
72
1
1
3.2382
7
standard
210
0
220
0
230
1
50
360
73
2
44
1
0
LINE
5
EB
100
AcDbEntity
8
DIMENSION
6
CONTINUOUS
62
7
370
0
100
AcDbLine
10
3.23818897638
20
7.78218503937
11
3.23818897638
21
9.79468503937
0
LINE
5
EC
100
AcDbEntity
8
DIMENSION
6
CONTINUOUS
62
7
370
0
100
AcDbLine
10
9.50729255086e-18
20
8.86141732283
11
1.0272671522e-17
21
9.79468503937
0
ENDBLK
5
68
330
66
100
AcDbEntity
8
0
100
AcDbBlockEnd
0
BLOCK
5
6A
330
69
100
AcDbEntity
8
0
100
AcDbBlockBegin
2
*D3
70
1
10
0
20
0
3
*D3
1

0
LINE
5
ED
100
AcDbEntity
8
DIMENSION
6
CONTINUOUS
62
7
370
0
100
AcDbLine
10
30.8553149606
20
6.15551181102
11
34.1053149606
21
6.15551181102
0
SOLID
5
EE
100
AcDbEntity
8
DIMENSION
6
CONTINUOUS
62
7
370
0
100
AcDbTrace
10
31.8553149606
20
6.15551181102
30
0
11
31.3553149606
21
6.07225487947
31
0
12
31.3553149606
22
6.23876874258
32
0
13
31.3553149606
23
6.23876874258
33
0
0
SOLID
5
EF
100
AcDbEntity
8
DIMENSION
6
CONTINUOUS
62
7
370
0
100
AcDbTrace
10
33.1053149606
20
6.15551181102
30
0
11
33.6053149606
21
6.23876874258
31
0
12
33.6053149606
22
6.07225487947
32
0
13
33.6053149606
23
6.07225487947
33
0
0
MTEXT
5
F0
100
AcDbEntity
8
DIMENSION
6
CONTINUOUS
62
7
370
0
100
AcDbMText
10
32.4803149606
20
6.41801181102
30
0
40
0.5
41
1.05555555556
71
5
72
1
1
1.25
7
standard
210
0
220
0
230
1
50
0
73
2
44
1
0
LINE
5
F1
100
AcDbEntity
8
DIMENSION
6
CONTINUOUS
62
7
370
0
100
AcDbLine
10
31.8553149606
20
6.81230314961
11
31.8553149606
21
6.13051181102
0
LINE
5
F2
100
AcDbEntity
8
DIMENSION
6
CONTINUOUS
62
7
370
0
100
AcDbLine
10
33.1053149606
20
6.81230314961
11
33.1053149606
21
6.13051181102
0
ENDBLK
5
6B
330
69
100
AcDbEntity
8
0
100
AcDbBlockEnd
0
BLOCK
5
6D
330
6C
100
AcDbEntity
8
0
100
AcDbBlockBegin
2
*D17
70
1
10
0
20
0
3
*D17
1

0
LINE
5
F3
100
AcDbEntity
8
DIMENSION
6
CONTINUOUS
62
7
370
0
100
AcDbLine
10
8.74076302594
20
1.8405511811
11
8.74076302594
21
-0.75
0
SOLID
5
F4
100
AcDbEntity
8
DIMENSION
6
CONTINUOUS
62
7
370
0
100
AcDbTrace
10
8.74076302594
20
0.840551181102
30
0
11
8.65750609439
21
1.3405511811
31
0
12
8.8240199575
22
1.3405511811
32
0
13
8.8240199575
23
1.3405511811
33
0
0
SOLID
5
F5
100
AcDbEntity
8
DIMENSION
6
CONTINUOUS
62
7
370
0
100
AcDbTrace
10
8.74076302594
20
0.25
30
0
11
8.8240199575
21
-0.25
31
0
12
8.65750609439
22
-0.25
32
0
13
8.65750609439
23
-0.25
33
0
0
MTEXT
5
F6
100
AcDbEntity
8
DIMENSION
6
CONTINUOUS
62
7
370
0
100
AcDbMText
10
8.47826302594
20
1.82527340332
30
0
40
0.5
41
1.94444444444
71
5
72
1
1
0.5906
7
standard
210
0
220
0
230
1
50
90
73
2
44
1
0
LINE
5
F7
100
AcDbEntity
8
DIMENSION
6
CONTINUOUS
62
7
370
0
100
AcDbLine
10
9.83001968504
20
0.840551181102
11
8.71576302594
21
0.840551181102
0
LINE
5
F8
100
AcDbEntity
8
DIMENSION
6
CONTINUOUS
62
7
370
0
100
AcDbLine
10
-0.0125
20
0.25
11
8.71576302594
21
0.25
0
ENDBLK
5
6E
330
6C
100
AcDbEntity
8
0
100
AcDbBlockEnd
0
BLOCK
5
70
330
6F
100
AcDbEntity
8
0
100
AcDbBlockBegin
2
*D19
70
1
10
0
20
0
3
*D19
1

0
LINE
5
F9
100
AcDbEntity
8
DIMENSION
6
CONTINUOUS
62
7
370
0
100
AcDbLine
10
35.6839397761
20
1.8405511811
11
35.6839397761
21
-0.75
0
SOLID
5
FA
100
AcDbEntity
8
DIMENSION
6
CONTINUOUS
62
7
370
0
100
AcDbTrace
10
35.6839397761
20
0.840551181102
30
0
11
35.6006828445
21
1.3405511811
31
0
12
35.7671967077
22
1.3405511811
32
0
13
35.7671967077
23
1.3405511811
33
0
0
SOLID
5
FB
100
AcDbEntity
8
DIMENSION
6
CONTINUOUS
62
7
370
0
100
AcDbTrace
10
35.6839397761
20
0.25
30
0
11
35.7671967077
21
-0.25
31
0
12
35.6006828445
22
-0.25
32
0
13
35.6006828445
23
-0.25
33
0
0
MTEXT
5
FC
100
AcDbEntity
8
DIMENSION
6
CONTINUOUS
62
7
370
0
100
AcDbMText
10
35.4214397761
20
1.82527340332
30
0
40
0.5
41
1.94444444444
71
5
72
1
1
0.5906
7
standard
210
0
220
0
230
1
50
90
73
2
44
1
0
LINE
5
FD
100
AcDbEntity
8
DIMENSION
6
CONTINUOUS
62
7
370
0
100
AcDbLine
10
33.4770669291
20
0.840551181102
11
35.7089397761
21
0.840551181102
0
LINE
5
FE
100
AcDbEntity
8
DIMENSION
6
CONTINUOUS
62
7
370
0
100
AcDbLine
10
43.3195866142
20
0.25
11
35.7089397761
21
0.25
0
ENDBLK
5
71
330
6F
100
AcDbEntity
8
0
100
AcDbBlockEnd
0
BLOCK
5
73
330
72
100
AcDbEntity
8
0
100
AcDbBlockBegin
2
*D8
70
1
10
0
20
0
3
*D8
1

0
LINE
5
FF
100
AcDbEntity
8
DIMENSION
6
CONTINUOUS
62
7
370
0
100
AcDbLine
10
9.84251968504
20
1.40649606299
11
11.811023622
21
1.40649606299
0
SOLID
5
100
100
AcDbEntity
8
DIMENSION
6
CONTINUOUS
62
7
370
0
100
AcDbTrace
10
9.84251968504
20
1.40649606299
30
0
11
10.342519685
21
1.48975299455
31
0
12
10.342519685
22
1.32323913144
32
0
13
10.342519685
23
1.32323913144
33
0
0
SOLID
5
101
100
AcDbEntity
8
DIMENSION
6
CONTINUOUS
62
7
370
0
100
AcDbTrace
10
11.811023622
20
1.40649606299
30
0
11
11.311023622
21
1.32323913144
31
0
12
11.311023622
22
1.48975299455
32
0
13
11.311023622
23
1.48975299455
33
0
0
MTEXT
5
102
100
AcDbEntity
8
DIMENSION
6
CONTINUOUS
62
7
370
0
100
AcDbMText
10
10.8267716535
20
1.66899606299
30
0
40
0.5
41
1.83333333333
71
5
72
1
1
1.9685
7
standard
210
0
220
0
230
1
50
0
73
2
44
1
0
LINE
5
103
100
AcDbEntity
8
DIMENSION
6
CONTINUOUS
62
7
370
0
100
AcDbLine
10
9.84251968504
20
0.971161417323
11
9.84251968504
21
1.43149606299
0
LINE
5
104
100
AcDbEntity
8
DIMENSION
6
CONTINUOUS
62
7
370
0
100
AcDbLine
10
11.811023622
20
0.971161417323
11
11.811023622
21
1.43149606299
0
ENDBLK
5
74
330
72
100
AcDbEntity
8
0
100
AcDbBlockEnd
0
BLOCK
5
76
330
75
100
AcDbEntity
8
0
100
AcDbBlockBegin
2
*D20
70
1
10
0
20
0
3
*D20
1

0
LINE
5
105
100
AcDbEntity
8
DIMENSION
6
CONTINUOUS
62
7
370
0
100
AcDbLine
10
37.1257151206
20
2.33661417323
11
37.1257151206
21
0.25
0
SOLID
5
106
100
AcDbEntity
8
DIMENSION
6
CONTINUOUS
62
7
370
0
100
AcDbTrace
10
37.1257151206
20
2.33661417323
30
0
11
37.2089720521
21
1.83661417323
31
0
12
37.042458189
22
1.83661417323
32
0
13
37.042458189
23
1.83661417323
33
0
0
SOLID
5
107
100
AcDbEntity
8
DIMENSION
6
CONTINUOUS
62
7
370
0
100
AcDbTrace
10
37.1257151206
20
0.25
30
0
11
37.042458189
21
0.75
31
0
12
37.2089720521
22
0.75
32
0
13
37.2089720521
23
0.75
33
0
0
MTEXT
5
108
100
AcDbEntity
8
DIMENSION
6
CONTINUOUS
62
7
370
0
100
AcDbMText
10
36.8632151206
20
1.29330708661
30
0
40
0.5
41
1.94444444444
71
5
72
1
1
2.0866
7
standard
210
0
220
0
230
1
50
90
73
2
44
1
0
LINE
5
109
100
AcDbEntity
8
DIMENSION
6
CONTINUOUS
62
7
370
0
100
AcDbLine
10
33.1178149606
20
2.33661417323
11
37.1507151206
21
2.33661417323
0
LINE
5
10A
100
AcDbEntity
8
DIMENSION
6
CONTINUOUS
62
7
370
0
100
AcDbLine
10
43.3195866142
20
0.25
11
37.1507151206
21
0.25
0
ENDBLK
5
77
330
75
100
AcDbEntity
8
0
100
AcDbBlockEnd
0
BLOCK
5
79
330
78
100
AcDbEntity
8
0
100
AcDbBlockBegin
2
*D22
70
1
10
0
20
0
3
*D22
1

0
LINE
5
10B
100
AcDbEntity
8
DIMENSION
6
CONTINUOUS
62
7
370
0
100
AcDbLine
10
0
20
-1.81504281111
11
43.3070866142
21
-1.81504281111
0
SOLID
5
10C
100
AcDbEntity
8
DIMENSION
6
CONTINUOUS
62
7
370
0
100
AcDbTrace
10
0
20
-1.81504281111
30
0
11
0.5
21
-1.73178587956
31
0
12
0.5
22
-1.89829974267
32
0
13
0.5
23
-1.89829974267
33
0
0
SOLID
5
10D
100
AcDbEntity
8
DIMENSION
6
CONTINUOUS
62
7
370
0
100
AcDbTrace
10
43.3070866142
20
-1.81504281111
30
0
11
42.8070866142
21
-1.89829974267
31
0
12
42.8070866142
22
-1.73178587956
32
0
13
42.8070866142
23
-1.73178587956
33
0
0
MTEXT
5
10E
100
AcDbEntity
8
DIMENSION
6
CONTINUOUS
62
7
370
0
100
AcDbMText
10
21.6535433071
20
-1.55254281111
30
0
40
0.5
41
2.27777777778
71
5
72
1
1
43.3071
7
standard
210
0
220
0
230
1
50
0
73
2
44
1
0
LINE
5
10F
100
AcDbEntity
8
DIMENSION
6
CONTINUOUS
62
7
370
0
100
AcDbLine
10
-2.29613691342e-18
20
0.2375
11
-4.59227382683e-18
21
-1.84004281111
0
LINE
5
110
100
AcDbEntity
8
DIMENSION
6
CONTINUOUS
62
7
370
0
100
AcDbLine
10
43.3070866142
20
0.2375
11
43.3070866142
21
-1.84004281111
0
ENDBLK
5
7A
330
78
100
AcDbEntity
8
0
100
AcDbBlockEnd
0
BLOCK
5
7C
330
7B
100
AcDbEntity
8
0
100
AcDbBlockBegin
2
*D7
70
1
10
0
20
0
3
*D7
1

0
LINE
5
111
100
AcDbEntity
8
DIMENSION
6
CONTINUOUS
62
7
370
0
100
AcDbLine
10
9.84251968504
20
7.40551181102
11
11.811023622
21
7.40551181102
0
SOLID
5
112
100
AcDbEntity
8
DIMENSION
6
CONTINUOUS
62
7
370
0
100
AcDbTrace
10
9.84251968504
20
7.40551181102
30
0
11
10.342519685
21
7.48876874258
31
0
12
10.342519685
22
7.32225487947
32
0
13
10.342519685
23
7.32225487947
33
0
0
SOLID
5
113
100
AcDbEntity
8
DIMENSION
6
CONTINUOUS
62
7
370
0
100
AcDbTrace
10
11.811023622
20
7.40551181102
30
0
11
11.311023622
21
7.32225487947
31
0
12
11.311023622
22
7.48876874258
32
0
13
11.311023622
23
7.48876874258
33
0
0
MTEXT
5
114
100
AcDbEntity
8
DIMENSION
6
CONTINUOUS
62
7
370
0
100
AcDbMText
10
10.8267716535
20
7.66801181102
30
0
40
0.5
41
1.83333333333
71
5
72
1
1
1.9685
7
standard
210
0
220
0
230
1
50
0
73
2
44
1
0
LINE
5
115
100
AcDbEntity
8
DIMENSION
6
CONTINUOUS
62
7
370
0
100
AcDbLine
10
9.84251968504
20
8.19025590551
11
9.84251968504
21
7.38051181102
0
LINE
5
116
100
AcDbEntity
8
DIMENSION
6
CONTINUOUS
62
7
370
0
100
AcDbLine
10
11.811023622
20
8.19025590551
11
11.811023622
21
7.38051181102
0
ENDBLK
5
7D
330
7B
100
AcDbEntity
8
0
100
AcDbBlockEnd
0
BLOCK
5
7F
330
7E
100
AcDbEntity
8
0
100
AcDbBlockBegin
2
*D29
70
1
10
0
20
0
3
*D29
1

0
LINE
5
117
100
AcDbEntity
8
DIMENSION
6
CONTINUOUS
62
7
370
0
100
AcDbLine
10
42.0243149606
20
6.76968503937
11
42.0243149606
21
9.91141732283
0
SOLID
5
118
100
AcDbEntity
8
DIMENSION
6
CONTINUOUS
62
7
370
0
100
AcDbTrace
10
42.0243149606
20
7.76968503937
30
0
11
42.1075718922
21
7.26968503937
31
0
12
41.9410580291
22
7.26968503937
32
0
13
41.9410580291
23
7.26968503937
33
0
0
SOLID
5
119
100
AcDbEntity
8
DIMENSION
6
CONTINUOUS
62
7
370
0
100
AcDbTrace
10
42.0243149606
20
8.91141732283
30
0
11
41.9410580291
21
9.41141732283
31
0
12
42.1075718922
22
9.41141732283
32
0
13
42.1075718922
23
9.41141732283
33
0
0
MTEXT
5
11A
100
AcDbEntity
8
DIMENSION
6
CONTINUOUS
62
7
370
0
100
AcDbMText
10
41.7618149606
20
9.75725065617
30
0
40
0.5
41
1.66666666667
71
5
72
1
1
1.1417
7
standard
210
0
220
0
230
1
50
90
73
2
44
1
0
LINE
5
11B
100
AcDbEntity
8
DIMENSION
6
CONTINUOUS
62
7
370
0
100
AcDbLine
10
41.0656496063
20
7.76968503937
11
42.0493149606
21
7.76968503937
0
LINE
5
11C
100
AcDbEntity
8
DIMENSION
6
CONTINUOUS
62
7
370
0
100
AcDbLine
10
41.1281496063
20
8.91141732283
11
42.0493149606
21
8.91141732283
0
ENDBLK
5
80
330
7E
100
AcDbEntity
8
0
100
AcDbBlockEnd
0
BLOCK
5
82
330
81
100
AcDbEntity
8
0
100
AcDbBlockBegin
2
*D2
70
1
10
0
20
0
3
*D2
1

0
LINE
5
11D
100
AcDbEntity
8
DIMENSION
6
CONTINUOUS
62
7
370
0
100
AcDbLine
10
10.2017716535
20
3.01820866142
11
11.4517716535
21
3.01820866142
0
SOLID
5
11E
100
AcDbEntity
8
DIMENSION
6
CONTINUOUS
62
7
370
0
100
AcDbTrace
10
10.2017716535
20
3.01820866142
30
0
11
10.7017716535
21
3.10146559297
31
0
12
10.7017716535
22
2.93495172986
32
0
13
10.7017716535
23
2.93495172986
33
0
0
SOLID
5
11F
100
AcDbEntity
8
DIMENSION
6
CONTINUOUS
62
7
370
0
100
AcDbTrace
10
11.4517716535
20
3.01820866142
30
0
11
10.9517716535
21
2.93495172986
31
0
12
10.9517716535
22
3.10146559297
32
0
13
10.9517716535
23
3.10146559297
33
0
0
MTEXT
5
120
100
AcDbEntity
8
DIMENSION
6
CONTINUOUS
62
7
370
0
100
AcDbMText
10
10.8267716535
20
3.28070866142
30
0
40
0.5
41
1.05555555556
71
5
72
1
1
1.25
7
standard
210
0
220
0
230
1
50
0
73
2
44
1
0
LINE
5
121
100
AcDbEntity
8
DIMENSION
6
CONTINUOUS
62
7
370
0
100
AcDbLine
10
10.2017716535
20
2.34911417323
11
10.2017716535
21
3.04320866142
0
LINE
5
122
100
AcDbEntity
8
DIMENSION
6
CONTINUOUS
62
7
370
0
100
AcDbLine
10
11.4517716535
20
2.34911417323
11
11.4517716535
21
3.04320866142
0
ENDBLK
5
83
330
81
100
AcDbEntity
8
0
100
AcDbBlockEnd
0
BLOCK
5
85
330
84
100
AcDbEntity
8
0
100
AcDbBlockBegin
2
*D13
70
1
10
0
20
0
3
*D13
1

0
LINE
5
123
100
AcDbEntity
8
DIMENSION
6
CONTINUOUS
62
7
370
0
100
AcDbLine
10
8.70447834646
20
7.32086614173
11
8.70447834646
21
9.91141732283
0
SOLID
5
124
100
AcDbEntity
8
DIMENSION
6
CONTINUOUS
62
7
370
0
100
AcDbTrace
10
8.70447834646
20
8.32086614173
30
0
11
8.78773527801
21
7.82086614173
31
0
12
8.6212214149
22
7.82086614173
32
0
13
8.6212214149
23
7.82086614173
33
0
0
SOLID
5
125
100
AcDbEntity
8
DIMENSION
6
CONTINUOUS
62
7
370
0
100
AcDbTrace
10
8.70447834646
20
8.91141732283
30
0
11
8.6212214149
21
9.41141732283
31
0
12
8.78773527801
22
9.41141732283
32
0
13
8.78773527801
23
9.41141732283
33
0
0
MTEXT
5
126
100
AcDbEntity
8
DIMENSION
6
CONTINUOUS
62
7
370
0
100
AcDbMText
10
8.44197834646
20
9.89613954506
30
0
40
0.5
41
1.94444444444
71
5
72
1
1
0.5906
7
standard
210
0
220
0
230
1
50
90
73
2
44
1
0
LINE
5
127
100
AcDbEntity
8
DIMENSION
6
CONTINUOUS
62
7
370
0
100
AcDbLine
10
9.83001968504
20
8.32086614173
11
8.67947834646
21
8.32086614173
0
LINE
5
128
100
AcDbEntity
8
DIMENSION
6
CONTINUOUS
62
7
370
0
100
AcDbLine
10
4.27244094488
20
8.91141732283
11
8.67947834646
21
8.91141732283
0
ENDBLK
5
86
330
84
100
AcDbEntity
8
0
100
AcDbBlockEnd
0
BLOCK
5
88
330
87
100
AcDbEntity
8
0
100
AcDbBlockBegin
2
*D23
70
1
10
0
20
0
3
*D23
1

0
LINE
5
129
100
AcDbEntity
8
DIMENSION
6
CONTINUOUS
62
7
370
0
100
AcDbLine
10
-0.650078740157
20
1.25
11
-0.650078740157
21
-1
0
SOLID
5
12A
100
AcDbEntity
8
DIMENSION
6
CONTINUOUS
62
7
370
0
100
AcDbTrace
10
-0.650078740157
20
0.25
30
0
11
-0.733335671712
21
0.75
31
0
12
-0.566821808603
22
0.75
32
0
13
-0.566821808603
23
0.75
33
0
0
SOLID
5
12B
100
AcDbEntity
8
DIMENSION
6
CONTINUOUS
62
7
370
0
100
AcDbTrace
10
-0.650078740157
20
7.12672484456e-17
30
0
11
-0.566821808603
21
-0.5
31
0
12
-0.733335671712
22
-0.5
32
0
13
-0.733335671712
23
-0.5
33
0
0
MTEXT
5
12C
100
AcDbEntity
8
DIMENSION
6
CONTINUOUS
62
7
370
0
100
AcDbMText
10
-0.912578740157
20
0.845833333333
30
0
40
0.5
41
1.16666666667
71
5
72
1
1
0.25
7
standard
210
0
220
0
230
1
50
90
73
2
44
1
0
LINE
5
12D
100
AcDbEntity
8
DIMENSION
6
CONTINUOUS
62
7
370
0
100
AcDbLine
10
-0.0125
20
0.25
11
-0.675078740157
21
0.25
0
LINE
5
12E
100
AcDbEntity
8
DIMENSION
6
CONTINUOUS
62
7
370
0
100
AcDbLine
10
0.05
20
2.92863335579e-17
11
-0.675078740157
21
7.43287643302e-17
0
ENDBLK
5
89
330
87
100
AcDbEntity
8
0
100
AcDbBlockEnd
0
BLOCK
5
8B
330
8A
100
AcDbEntity
8
0
100
AcDbBlockBegin
2
*D10
70
1
10
0
20
0
3
*D10
1

0
LINE
5
12F
100
AcDbEntity
8
DIMENSION
6
CONTINUOUS
62
7
370
0
100
AcDbLine
10
12.9644438976
20
1.95866141732
11
12.9644438976
21
-0.277559055118
0
SOLID
5
130
100
AcDbEntity
8
DIMENSION
6
CONTINUOUS
62
7
370
0
100
AcDbTrace
10
12.9644438976
20
0.958661417323
30
0
11
12.8811869661
21
1.45866141732
31
0
12
13.0477008292
22
1.45866141732
32
0
13
13.0477008292
23
1.45866141732
33
0
0
SOLID
5
131
100
AcDbEntity
8
DIMENSION
6
CONTINUOUS
62
7
370
0
100
AcDbTrace
10
12.9644438976
20
0.722440944882
30
0
11
13.0477008292
21
0.222440944882
31
0
12
12.8811869661
22
0.222440944882
32
0
13
12.8811869661
23
0.222440944882
33
0
0
MTEXT
5
132
100
AcDbEntity
8
DIMENSION
6
CONTINUOUS
62
7
370
0
100
AcDbMText
10
12.7019438976
20
1.94338363955
30
0
40
0.5
41
1.94444444444
71
5
72
1
1
0.2362
7
standard
210
0
220
0
230
1
50
90
73
2
44
1
0
LINE
5
133
100
AcDbEntity
8
DIMENSION
6
CONTINUOUS
62
7
370
0
100
AcDbLine
10
11.823523622
20
0.958661417323
11
12.9894438976
21
0.958661417323
0
LINE
5
134
100
AcDbEntity
8
DIMENSION
6
CONTINUOUS
62
7
370
0
100
AcDbLine
10
11.823523622
20
0.722440944882
11
12.9894438976
21
0.722440944882
0
ENDBLK
5
8C
330
8A
100
AcDbEntity
8
0
100
AcDbBlockEnd
0
BLOCK
5
8E
330
8D
100
AcDbEntity
8
0
100
AcDbBlockBegin
2
*D18
70
1
10
0
20
0
3
*D18
1

0
LINE
5
135
100
AcDbEntity
8
DIMENSION
6
CONTINUOUS
62
7
370
0
100
AcDbLine
10
7.07431102362
20
2.33661417323
11
7.07431102362
21
0.25
0
SOLID
5
136
100
AcDbEntity
8
DIMENSION
6
CONTINUOUS
62
7
370
0
100
AcDbTrace
10
7.07431102362
20
2.33661417323
30
0
11
7.15756795518
21
1.83661417323
31
0
12
6.99105409207
22
1.83661417323
32
0
13
6.99105409207
23
1.83661417323
33
0
0
SOLID
5
137
100
AcDbEntity
8
DIMENSION
6
CONTINUOUS
62
7
370
0
100
AcDbTrace
10
7.07431102362
20
0.25
30
0
11
6.99105409207
21
0.75
31
0
12
7.15756795518
22
0.75
32
0
13
7.15756795518
23
0.75
33
0
0
MTEXT
5
138
100
AcDbEntity
8
DIMENSION
6
CONTINUOUS
62
7
370
0
100
AcDbMText
10
6.81181102362
20
1.29330708661
30
0
40
0.5
41
1.94444444444
71
5
72
1
1
2.0866
7
standard
210
0
220
0
230
1
50
90
73
2
44
1
0
LINE
5
139
100
AcDbEntity
8
DIMENSION
6
CONTINUOUS
62
7
370
0
100
AcDbLine
10
10.1892716535
20
2.33661417323
11
7.04931102362
21
2.33661417323
0
LINE
5
13A
100
AcDbEntity
8
DIMENSION
6
CONTINUOUS
62
7
370
0
100
AcDbLine
10
-0.0125
20
0.25
11
7.04931102362
21
0.25
0
ENDBLK
5
8F
330
8D
100
AcDbEntity
8
0
100
AcDbBlockEnd
0
BLOCK
5
91
330
90
100
AcDbEntity
8
0
100
AcDbBlockBegin
2
*D16
70
1
10
0
20
0
3
*D16
1

0
LINE
5
13B
100
AcDbEntity
8
DIMENSION
6
CONTINUOUS
62
7
370
0
100
AcDbLine
10
36.2450787402
20
6.82480314961
11
36.2450787402
21
8.91141732283
0
SOLID
5
13C
100
AcDbEntity
8
DIMENSION
6
CONTINUOUS
62
7
370
0
100
AcDbTrace
10
36.2450787402
20
6.82480314961
30
0
11
36.1618218086
21
7.32480314961
31
0
12
36.3283356717
22
7.32480314961
32
0
13
36.3283356717
23
7.32480314961
33
0
0
SOLID
5
13D
100
AcDbEntity
8
DIMENSION
6
CONTINUOUS
62
7
370
0
100
AcDbTrace
10
36.2450787402
20
8.91141732283
30
0
11
36.3283356717
21
8.41141732283
31
0
12
36.1618218086
22
8.41141732283
32
0
13
36.1618218086
23
8.41141732283
33
0
0
MTEXT
5
13E
100
AcDbEntity
8
DIMENSION
6
CONTINUOUS
62
7
370
0
100
AcDbMText
10
35.9825787402
20
7.86811023622
30
0
40
0.5
41
1.94444444444
71
5
72
1
1
2.0866
7
standard
210
0
220
0
230
1
50
90
73
2
44
1
0
LINE
5
13F
100
AcDbEntity
8
DIMENSION
6
CONTINUOUS
62
7
370
0
100
AcDbLine
10
33.1178149606
20
6.82480314961
11
36.2700787402
21
6.82480314961
0
LINE
5
140
100
AcDbEntity
8
DIMENSION
6
CONTINUOUS
62
7
370
0
100
AcDbLine
10
39.0346456693
20
8.91141732283
11
36.2700787402
21
8.91141732283
0
ENDBLK
5
92
330
90
100
AcDbEntity
8
0
100
AcDbBlockEnd
0
BLOCK
5
94
330
93
100
AcDbEntity
8
0
100
AcDbBlockBegin
2
*D12
70
1
10
0
20
0
3
*D12
1

0
LINE
5
141
100
AcDbEntity
8
DIMENSION
6
CONTINUOUS
62
7
370
0
100
AcDbLine
10
30.031496063
20
9.43897637795
11
30.031496063
21
7.20275590551
0
SOLID
5
142
100
AcDbEntity
8
DIMENSION
6
CONTINUOUS
62
7
370
0
100
AcDbTrace
10
30.031496063
20
8.43897637795
30
0
11
29.9482391314
21
8.93897637795
31
0
12
30.1147529945
22
8.93897637795
32
0
13
30.1147529945
23
8.93897637795
33
0
0
SOLID
5
143
100
AcDbEntity
8
DIMENSION
6
CONTINUOUS
62
7
370
0
100
AcDbTrace
10
30.031496063
20
8.20275590551
30
0
11
30.1147529945
21
7.70275590551
31
0
12
29.9482391314
22
7.70275590551
32
0
13
29.9482391314
23
7.70275590551
33
0
0
MTEXT
5
144
100
AcDbEntity
8
DIMENSION
6
CONTINUOUS
62
7
370
0
100
AcDbMText
10
29.768996063
20
9.42369860018
30
0
40
0.5
41
1.94444444444
71
5
72
1
1
0.2362
7
standard
210
0
220
0
230
1
50
90
73
2
44
1
0
LINE
5
145
100
AcDbEntity
8
DIMENSION
6
CONTINUOUS
62
7
370
0
100
AcDbLine
10
31.4835629921
20
8.43897637795
11
30.006496063
21
8.43897637795
0
LINE
5
146
100
AcDbEntity
8
DIMENSION
6
CONTINUOUS
62
7
370
0
100
AcDbLine
10
31.4835629921
20
8.20275590551
11
30.006496063
21
8.20275590551
0
ENDBLK
5
95
330
93
100
AcDbEntity
8
0
100
AcDbBlockEnd
0
BLOCK
5
97
330
96
100
AcDbEntity
8
0
100
AcDbBlockBegin
2
*D5
70
1
10
0
20
0
3
*D5
1

0
LINE
5
147
100
AcDbEntity
8
DIMENSION
6
CONTINUOUS
62
7
370
0
100
AcDbLine
10
31.4960629921
20
7.41658464567
11
33.4645669291
21
7.41658464567
0
SOLID
5
148
100
AcDbEntity
8
DIMENSION
6
CONTINUOUS
62
7
370
0
100
AcDbTrace
10
31.4960629921
20
7.41658464567
30
0
11
31.9960629921
21
7.49984157722
31
0
12
31.9960629921
22
7.33332771411
32
0
13
31.9960629921
23
7.33332771411
33
0
0
SOLID
5
149
100
AcDbEntity
8
DIMENSION
6
CONTINUOUS
62
7
370
0
100
AcDbTrace
10
33.4645669291
20
7.41658464567
30
0
11
32.9645669291
21
7.33332771411
31
0
12
32.9645669291
22
7.49984157722
32
0
13
32.9645669291
23
7.49984157722
33
0
0
MTEXT
5
14A
100
AcDbEntity
8
DIMENSION
6
CONTINUOUS
62
7
370
0
100
AcDbMText
10
32.4803149606
20
7.67908464567
30
0
40
0.5
41
1.83333333333
71
5
72
1
1
1.9685
7
standard
210
0
220
0
230
1
50
0
73
2
44
1
0
LINE
5
14B
100
AcDbEntity
8
DIMENSION
6
CONTINUOUS
62
7
370
0
100
AcDbLine
10
31.4960629921
20
8.19025590551
11
31.4960629921
21
7.39158464567
0
LINE
5
14C
100
AcDbEntity
8
DIMENSION
6
CONTINUOUS
62
7
370
0
100
AcDbLine
10
33.4645669291
20
8.19025590551
11
33.4645669291
21
7.39158464567
0
ENDBLK
5
98
330
96
100
AcDbEntity
8
0
100
AcDbBlockEnd
0
BLOCK
5
9A
330
99
100
AcDbEntity
8
0
100
AcDbBlockBegin
2
*D4
70
1
10
0
20
0
3
*D4
1

0
LINE
5
14D
100
AcDbEntity
8
DIMENSION
6
CONTINUOUS
62
7
370
0
100
AcDbLine
10
30.8553149606
20
3.16584645669
11
34.1053149606
21
3.16584645669
0
SOLID
5
14E
100
AcDbEntity
8
DIMENSION
6
CONTINUOUS
62
7
370
0
100
AcDbTrace
10
31.8553149606
20
3.16584645669
30
0
11
31.3553149606
21
3.08258952514
31
0
12
31.3553149606
22
3.24910338825
32
0
13
31.3553149606
23
3.24910338825
33
0
0
SOLID
5
14F
100
AcDbEntity
8
DIMENSION
6
CONTINUOUS
62
7
370
0
100
AcDbTrace
10
33.1053149606
20
3.16584645669
30
0
11
33.6053149606
21
3.24910338825
31
0
12
33.6053149606
22
3.08258952514
32
0
13
33.6053149606
23
3.08258952514
33
0
0
MTEXT
5
150
100
AcDbEntity
8
DIMENSION
6
CONTINUOUS
62
7
370
0
100
AcDbMText
10
32.4803149606
20
3.42834645669
30
0
40
0.5
41
1.05555555556
71
5
72
1
1
1.25
7
standard
210
0
220
0
230
1
50
0
73
2
44
1
0
LINE
5
151
100
AcDbEntity
8
DIMENSION
6
CONTINUOUS
62
7
370
0
100
AcDbLine
10
31.8553149606
20
2.34911417323
11
31.8553149606
21
3.19084645669
0
LINE
5
152
100
AcDbEntity
8
DIMENSION
6
CONTINUOUS
62
7
370
0
100
AcDbLine
10
33.1053149606
20
2.34911417323
11
33.1053149606
21
3.19084645669
0
ENDBLK
5
9B
330
99
100
AcDbEntity
8
0
100
AcDbBlockEnd
0
BLOCK
5
9D
330
9C
100
AcDbEntity
8
0
100
AcDbBlockBegin
2
*D26
70
1
10
0
20
0
3
*D26
1

0
LINE
5
153
100
AcDbEntity
8
DIMENSION
6
CONTINUOUS
62
7
370
0
100
AcDbLine
10
39.0846456693
20
7.12401574803
11
41.0531496063
21
7.12401574803
0
SOLID
5
154
100
AcDbEntity
8
DIMENSION
6
CONTINUOUS
62
7
370
0
100
AcDbTrace
10
39.0846456693
20
7.12401574803
30
0
11
39.5846456693
21
7.20727267959
31
0
12
39.5846456693
22
7.04075881648
32
0
13
39.5846456693
23
7.04075881648
33
0
0
SOLID
5
155
100
AcDbEntity
8
DIMENSION
6
CONTINUOUS
62
7
370
0
100
AcDbTrace
10
41.0531496063
20
7.12401574803
30
0
11
40.5531496063
21
7.04075881648
31
0
12
40.5531496063
22
7.20727267959
32
0
13
40.5531496063
23
7.20727267959
33
0
0
MTEXT
5
156
100
AcDbEntity
8
DIMENSION
6
CONTINUOUS
62
7
370
0
100
AcDbMText
10
40.0688976378
20
7.38651574803
30
0
40
0.5
41
1.83333333333
71
5
72
1
1
1.9685
7
standard
210
0
220
0
230
1
50
0
73
2
44
1
0
LINE
5
157
100
AcDbEntity
8
DIMENSION
6
CONTINUOUS
62
7
370
0
100
AcDbLine
10
39.0846456693
20
7.75718503937
11
39.0846456693
21
7.09901574803
0
LINE
5
158
100
AcDbEntity
8
DIMENSION
6
CONTINUOUS
62
7
370
0
100
AcDbLine
10
41.0531496063
20
7.75718503937
11
41.0531496063
21
7.09901574803
0
ENDBLK
5
9E
330
9C
100
AcDbEntity
8
0
100
AcDbBlockEnd
0
BLOCK
5
A0
330
9F
100
AcDbEntity
8
0
100
AcDbBlockBegin
2
*D33
70
1
10
0
20
0
3
*D33
1

0
LINE
5
159
100
AcDbEntity
8
DIMENSION
6
CONTINUOUS
62
7
370
0
100
AcDbLine
10
32.4803149606
20
10.8922244094
11
43.3070866142
21
10.8922244094
0
SOLID
5
15A
100
AcDbEntity
8
DIMENSION
6
CONTINUOUS
62
7
370
0
100
AcDbTrace
10
32.4803149606
20
10.8922244094
30
0
11
32.9803149606
21
10.975481341
31
0
12
32.9803149606
22
10.8089674779
32
0
13
32.9803149606
23
10.8089674779
33
0
0
SOLID
5
15B
100
AcDbEntity
8
DIMENSION
6
CONTINUOUS
62
7
370
0
100
AcDbTrace
10
43.3070866142
20
10.8922244094
30
0
11
42.8070866142
21
10.8089674779
31
0
12
42.8070866142
22
10.975481341
32
0
13
42.8070866142
23
10.975481341
33
0
0
MTEXT
5
15C
100
AcDbEntity
8
DIMENSION
6
CONTINUOUS
62
7
370
0
100
AcDbMText
10
37.8937007874
20
11.1547244094
30
0
40
0.5
41
2.22222222222
71
5
72
1
1
10.8268
7
standard
210
0
220
0
230
1
50
0
73
2
44
1
0
LINE
5
15D
100
AcDbEntity
8
DIMENSION
6
CONTINUOUS
62
7
370
0
100
AcDbLine
10
32.4803149606
20
8.45147637795
11
32.4803149606
21
10.9172244094
0
LINE
5
15E
100
AcDbEntity
8
DIMENSION
6
CONTINUOUS
62
7
370
0
100
AcDbLine
10
43.3070866142
20
8.86141732283
11
43.3070866142
21
10.9172244094
0
ENDBLK
5
A1
330
9F
100
AcDbEntity
8
0
100
AcDbBlockEnd
0
BLOCK
5
A3
330
A2
100
AcDbEntity
8
0
100
AcDbBlockBegin
2
*D30
70
1
10
0
20
0
3
*D30
1

0
LINE
5
15F
100
AcDbEntity
8
DIMENSION
6
CONTINUOUS
62
7
370
0
100
AcDbLine
10
5.16535433071
20
9.91141732283
11
5.16535433071
21
6.76968503937
0
SOLID
5
160
100
AcDbEntity
8
DIMENSION
6
CONTINUOUS
62
7
370
0
100
AcDbTrace
10
5.16535433071
20
8.91141732283
30
0
11
5.08209739915
21
9.41141732283
31
0
12
5.24861126226
22
9.41141732283
32
0
13
5.24861126226
23
9.41141732283
33
0
0
SOLID
5
161
100
AcDbEntity
8
DIMENSION
6
CONTINUOUS
62
7
370
0
100
AcDbTrace
10
5.16535433071
20
7.76968503937
30
0
11
5.24861126226
21
7.26968503937
31
0
12
5.08209739915
22
7.26968503937
32
0
13
5.08209739915
23
7.26968503937
33
0
0
MTEXT
5
162
100
AcDbEntity
8
DIMENSION
6
CONTINUOUS
62
7
370
0
100
AcDbMText
10
4.90285433071
20
9.75725065617
30
0
40
0.5
41
1.66666666667
71
5
72
1
1
1.1417
7
standard
210
0
220
0
230
1
50
90
73
2
44
1
0
LINE
5
163
100
AcDbEntity
8
DIMENSION
6
CONTINUOUS
62
7
370
0
100
AcDbLine
10
4.29744094488
20
8.91141732283
11
5.19035433071
21
8.91141732283
0
LINE
5
164
100
AcDbEntity
8
DIMENSION
6
CONTINUOUS
62
7
370
0
100
AcDbLine
10
4.23494094488
20
7.76968503937
11
5.19035433071
21
7.76968503937
0
ENDBLK
5
A4
330
A2
100
AcDbEntity
8
0
100
AcDbBlockEnd
0
BLOCK
5
A6
330
A5
100
AcDbEntity
8
0
100
AcDbBlockBegin
2
*D28
70
1
10
0
20
0
3
*D28
1

0
LINE
5
165
100
AcDbEntity
8
DIMENSION
6
CONTINUOUS
62
7
370
0
100
AcDbLine
10
40.0688976378
20
9.77755905512
11
43.3070866142
21
9.77755905512
0
SOLID
5
166
100
AcDbEntity
8
DIMENSION
6
CONTINUOUS
62
7
370
0
100
AcDbTrace
10
40.0688976378
20
9.77755905512
30
0
11
40.5688976378
21
9.86081598667
31
0
12
40.5688976378
22
9.69430212356
32
0
13
40.5688976378
23
9.69430212356
33
0
0
SOLID
5
167
100
AcDbEntity
8
DIMENSION
6
CONTINUOUS
62
7
370
0
100
AcDbTrace
10
43.3070866142
20
9.77755905512
30
0
11
42.8070866142
21
9.69430212356
31
0
12
42.8070866142
22
9.86081598667
32
0
13
42.8070866142
23
9.86081598667
33
0
0
MTEXT
5
168
100
AcDbEntity
8
DIMENSION
6
CONTINUOUS
62
7
370
0
100
AcDbMText
10
41.687992126
20
10.0400590551
30
0
40
0.5
41
1.94444444444
71
5
72
1
1
3.2382
7
standard
210
0
220
0
230
1
50
0
73
2
44
1
0
LINE
5
169
100
AcDbEntity
8
DIMENSION
6
CONTINUOUS
62
7
370
0
100
AcDbLine
10
40.0688976378
20
7.78218503937
11
40.0688976378
21
9.80255905512
0
LINE
5
16A
100
AcDbEntity
8
DIMENSION
6
CONTINUOUS
62
7
370
0
100
AcDbLine
10
43.3070866142
20
8.86141732283
11
43.3070866142
21
9.80255905512
0
ENDBLK
5
A7
330
A5
100
AcDbEntity
8
0
100
AcDbBlockEnd
0
BLOCK
5
A9
330
A8
100
AcDbEntity
8
0
100
AcDbBlockBegin
2
*D25
70
1
10
0
20
0
3
*D25
1

0
LINE
5
16B
100
AcDbEntity
8
DIMENSION
6
CONTINUOUS
62
7
370
0
100
AcDbLine
10
2.25393700787
20
7.21850393701
11
4.22244094488
21
7.21850393701
0
SOLID
5
16C
100
AcDbEntity
8
DIMENSION
6
CONTINUOUS
62
7
370
0
100
AcDbTrace
10
2.25393700787
20
7.21850393701
30
0
11
2.75393700787
21
7.30176086856
31
0
12
2.75393700787
22
7.13524700545
32
0
13
2.75393700787
23
7.13524700545
33
0
0
SOLID
5
16D
100
AcDbEntity
8
DIMENSION
6
CONTINUOUS
62
7
370
0
100
AcDbTrace
10
4.22244094488
20
7.21850393701
30
0
11
3.72244094488
21
7.13524700545
31
0
12
3.72244094488
22
7.30176086856
32
0
13
3.72244094488
23
7.30176086856
33
0
0
MTEXT
5
16E
100
AcDbEntity
8
DIMENSION
6
CONTINUOUS
62
7
370
0
100
AcDbMText
10
3.23818897638
20
7.48100393701
30
0
40
0.5
41
1.83333333333
71
5
72
1
1
1.9685
7
standard
210
0
220
0
230
1
50
0
73
2
44
1
0
LINE
5
16F
100
AcDbEntity
8
DIMENSION
6
CONTINUOUS
62
7
370
0
100
AcDbLine
10
2.25393700787
20
7.75718503937
11
2.25393700787
21
7.19350393701
0
LINE
5
170
100
AcDbEntity
8
DIMENSION
6
CONTINUOUS
62
7
370
0
100
AcDbLine
10
4.22244094488
20
7.75718503937
11
4.22244094488
21
7.19350393701
0
ENDBLK
5
AA
330
A8
100
AcDbEntity
8
0
100
AcDbBlockEnd
0
BLOCK
5
AC
330
AB
100
AcDbEntity
8
0
100
AcDbBlockBegin
2
*D14
70
1
10
0
20
0
3
*D14
1

0
LINE
5
171
100
AcDbEntity
8
DIMENSION
6
CONTINUOUS
62
7
370
0
100
AcDbLine
10
7.2188976378
20
6.82480314961
11
7.2188976378
21
8.91141732283
0
SOLID
5
172
100
AcDbEntity
8
DIMENSION
6
CONTINUOUS
62
7
370
0
100
AcDbTrace
10
7.2188976378
20
6.82480314961
30
0
11
7.13564070624
21
7.32480314961
31
0
12
7.30215456935
22
7.32480314961
32
0
13
7.30215456935
23
7.32480314961
33
0
0
SOLID
5
173
100
AcDbEntity
8
DIMENSION
6
CONTINUOUS
62
7
370
0
100
AcDbTrace
10
7.2188976378
20
8.91141732283
30
0
11
7.30215456935
21
8.41141732283
31
0
12
7.13564070624
22
8.41141732283
32
0
13
7.13564070624
23
8.41141732283
33
0
0
MTEXT
5
174
100
AcDbEntity
8
DIMENSION
6
CONTINUOUS
62
7
370
0
100
AcDbMText
10
6.9563976378
20
7.86811023622
30
0
40
0.5
41
1.94444444444
71
5
72
1
1
2.0866
7
standard
210
0
220
0
230
1
50
90
73
2
44
1
0
LINE
5
175
100
AcDbEntity
8
DIMENSION
6
CONTINUOUS
62
7
370
0
100
AcDbLine
10
10.1892716535
20
6.82480314961
11
7.1938976378
21
6.82480314961
0
LINE
5
176
100
AcDbEntity
8
DIMENSION
6
CONTINUOUS
62
7
370
0
100
AcDbLine
10
4.27244094488
20
8.91141732283
11
7.1938976378
21
8.91141732283
0
ENDBLK
5
AD
330
AB
100
AcDbEntity
8
0
100
AcDbBlockEnd
0
BLOCK
5
AF
330
AE
100
AcDbEntity
8
0
100
AcDbBlockBegin
2
*D31
70
1
10
0
20
0
3
*D31
1

0
LINE
5
177
100
AcDbEntity
8
DIMENSION
6
CONTINUOUS
62
7
370
0
100
AcDbLine
10
10.8267716535
20
-1.10166438546
11
0
21
-1.10166438546
0
SOLID
5
178
100
AcDbEntity
8
DIMENSION
6
CONTINUOUS
62
7
370
0
100
AcDbTrace
10
10.8267716535
20
-1.10166438546
30
0
11
10.3267716535
21
-1.18492131701
31
0
12
10.3267716535
22
-1.0184074539
32
0
13
10.3267716535
23
-1.0184074539
33
0
0
SOLID
5
179
100
AcDbEntity
8
DIMENSION
6
CONTINUOUS
62
7
370
0
100
AcDbTrace
10
0
20
-1.10166438546
30
0
11
0.5
21
-1.0184074539
31
0
12
0.5
22
-1.18492131701
32
0
13
0.5
23
-1.18492131701
33
0
0
MTEXT
5
17A
100
AcDbEntity
8
DIMENSION
6
CONTINUOUS
62
7
370
0
100
AcDbMText
10
5.41338582677
20
-0.839164385457
30
0
40
0.5
41
2.22222222222
71
5
72
1
1
10.8268
7
standard
210
0
220
0
230
1
50
360
73
2
44
1
0
LINE
5
17B
100
AcDbEntity
8
DIMENSION
6
CONTINUOUS
62
7
370
0
100
AcDbLine
10
10.8267716535
20
0.709940944882
11
10.8267716535
21
-1.12666438546
0
LINE
5
17C
100
AcDbEntity
8
DIMENSION
6
CONTINUOUS
62
7
370
0
100
AcDbLine
10
-2.29613691342e-18
20
0.2375
11
-4.59227382683e-18
21
-1.12666438546
0
ENDBLK
5
B0
330
AE
100
AcDbEntity
8
0
100
AcDbBlockEnd
0
ENDSEC
0
SECTION
2
ENTITIES
0
LINE
5
17D
100
AcDbEntity
8
REFERENCE
6
ByLayer
62
256
370
-1
100
AcDbLine
10
0
20
0.25
11
43.3070866142
21
0.25
0
LINE
5
17E
100
AcDbEntity
8
REFERENCE
6
ByLayer
62
256
370
-1
100
AcDbLine
10
43.3070866142
20
0.25
11
43.3070866142
21
8.91141732283
0
LINE
5
17F
100
AcDbEntity
8
REFERENCE
6
ByLayer
62
256
370
-1
100
AcDbLine
10
0
20
8.91141732283
11
0
21
0.25
0
LINE
5
180
100
AcDbEntity
8
ALIGNMENT_POCKET
6
ByLayer
62
256
370
-1
100
AcDbLine
10
11.811023622
20
8.20275590551
11
11.811023622
21
8.43897637795
0
LINE
5
181
100
AcDbEntity
8
ALIGNMENT_POCKET
6
ByLayer
62
256
370
-1
100
AcDbLine
10
11.811023622
20
8.43897637795
11
9.84251968504
21
8.43897637795
0
LINE
5
182
100
AcDbEntity
8
ALIGNMENT_POCKET
6
ByLayer
62
256
370
-1
100
AcDbLine
10
9.84251968504
20
8.43897637795
11
9.84251968504
21
8.20275590551
0
LINE
5
183
100
AcDbEntity
8
ALIGNMENT_POCKET
6
ByLayer
62
256
370
-1
100
AcDbLine
10
9.84251968504
20
8.20275590551
11
11.811023622
21
8.20275590551
0
LINE
5
184
100
AcDbEntity
8
ALIGNMENT_POCKET
6
ByLayer
62
256
370
-1
100
AcDbLine
10
33.4645669291
20
8.20275590551
11
33.4645669291
21
8.43897637795
0
LINE
5
185
100
AcDbEntity
8
ALIGNMENT_POCKET
6
ByLayer
62
256
370
-1
100
AcDbLine
10
33.4645669291
20
8.43897637795
11
31.4960629921
21
8.43897637795
0
LINE
5
186
100
AcDbEntity
8
ALIGNMENT_POCKET
6
ByLayer
62
256
370
-1
100
AcDbLine
10
31.4960629921
20
8.43897637795
11
31.4960629921
21
8.20275590551
0
LINE
5
187
100
AcDbEntity
8
ALIGNMENT_POCKET
6
ByLayer
62
256
370
-1
100
AcDbLine
10
31.4960629921
20
8.20275590551
11
33.4645669291
21
8.20275590551
0
LINE
5
188
100
AcDbEntity
8
ALIGNMENT_POCKET
6
ByLayer
62
256
370
-1
100
AcDbLine
10
11.811023622
20
0.722440944882
11
11.811023622
21
0.958661417323
0
LINE
5
189
100
AcDbEntity
8
ALIGNMENT_POCKET
6
ByLayer
62
256
370
-1
100
AcDbLine
10
11.811023622
20
0.958661417323
11
9.84251968504
21
0.958661417323
0
LINE
5
18A
100
AcDbEntity
8
ALIGNMENT_POCKET
6
ByLayer
62
256
370
-1
100
AcDbLine
10
9.84251968504
20
0.958661417323
11
9.84251968504
21
0.722440944882
0
LINE
5
18B
100
AcDbEntity
8
ALIGNMENT_POCKET
6
ByLayer
62
256
370
-1
100
AcDbLine
10
9.84251968504
20
0.722440944882
11
11.811023622
21
0.722440944882
0
LINE
5
18C
100
AcDbEntity
8
ALIGNMENT_POCKET
6
ByLayer
62
256
370
-1
100
AcDbLine
10
33.4645669291
20
0.722440944882
11
33.4645669291
21
0.958661417323
0
LINE
5
18D
100
AcDbEntity
8
ALIGNMENT_POCKET
6
ByLayer
62
256
370
-1
100
AcDbLine
10
33.4645669291
20
0.958661417323
11
31.4960629921
21
0.958661417323
0
LINE
5
18E
100
AcDbEntity
8
ALIGNMENT_POCKET
6
ByLayer
62
256
370
-1
100
AcDbLine
10
31.4960629921
20
0.958661417323
11
31.4960629921
21
0.722440944882
0
LINE
5
18F
100
AcDbEntity
8
ALIGNMENT_POCKET
6
ByLayer
62
256
370
-1
100
AcDbLine
10
31.4960629921
20
0.722440944882
11
33.4645669291
21
0.722440944882
0
CIRCLE
5
190
100
AcDbEntity
8
6-32_TAP_HOLE
6
ByLayer
62
256
370
-1
100
AcDbCircle
10
10.2017716535
20
6.82480314961
40
0.05325
0
CIRCLE
5
191
100
AcDbEntity
8
6-32_TAP_HOLE
6
ByLayer
62
256
370
-1
100
AcDbCircle
10
11.4517716535
20
6.82480314961
40
0.05325
0
CIRCLE
5
192
100
AcDbEntity
8
6-32_TAP_HOLE
6
ByLayer
62
256
370
-1
100
AcDbCircle
10
31.8553149606
20
6.82480314961
40
0.05325
0
CIRCLE
5
193
100
AcDbEntity
8
6-32_TAP_HOLE
6
ByLayer
62
256
370
-1
100
AcDbCircle
10
33.1053149606
20
6.82480314961
40
0.05325
0
CIRCLE
5
194
100
AcDbEntity
8
6-32_TAP_HOLE
6
ByLayer
62
256
370
-1
100
AcDbCircle
10
10.2017716535
20
2.33661417323
40
0.05325
0
CIRCLE
5
195
100
AcDbEntity
8
6-32_TAP_HOLE
6
ByLayer
62
256
370
-1
100
AcDbCircle
10
11.4517716535
20
2.33661417323
40
0.05325
0
CIRCLE
5
196
100
AcDbEntity
8
6-32_TAP_HOLE
6
ByLayer
62
256
370
-1
100
AcDbCircle
10
31.8553149606
20
2.33661417323
40
0.05325
0
CIRCLE
5
197
100
AcDbEntity
8
6-32_TAP_HOLE
6
ByLayer
62
256
370
-1
100
AcDbCircle
10
33.1053149606
20
2.33661417323
40
0.05325
0
LINE
5
198
100
AcDbEntity
8
OUTER_BOUNDARY
6
ByLayer
62
256
370
-1
100
AcDbLine
10
2.25393700787
20
7.76968503937
11
4.22244094488
21
7.76968503937
0
LINE
5
199
100
AcDbEntity
8
OUTER_BOUNDARY
6
ByLayer
62
256
370
-1
100
AcDbLine
10
39.0846456693
20
7.76968503937
11
41.0531496063
21
7.76968503937
0
ARC
5
19A
100
AcDbEntity
8
OUTER_BOUNDARY
6
ByLayer
62
256
370
-1
100
AcDbCircle
10
0.0625
20
8.84891732283
40
0.0625
100
AcDbArc
50
90
51
180
0
LINE
5
19B
100
AcDbEntity
8
OUTER_BOUNDARY
6
ByLayer
62
256
370
-1
100
AcDbLine
10
2.25393700787
20
7.76968503937
11
2.25393700787
21
8.84891732283
0
LINE
5
19C
100
AcDbEntity
8
OUTER_BOUNDARY
6
ByLayer
62
256
370
-1
100
AcDbLine
10
0.0625
20
8.91141732283
11
2.19143700787
21
8.91141732283
0
ARC
5
19D
100
AcDbEntity
8
OUTER_BOUNDARY
6
ByLayer
62
256
370
-1
100
AcDbCircle
10
2.19143700787
20
8.84891732283
40
0.0625
100
AcDbArc
50
0
51
90
0
LINE
5
19E
100
AcDbEntity
8
OUTER_BOUNDARY
6
ByLayer
62
256
370
-1
100
AcDbLine
10
4.22244094488
20
7.76968503937
11
4.22244094488
21
8.84891732283
0
ARC
5
19F
100
AcDbEntity
8
OUTER_BOUNDARY
6
ByLayer
62
256
370
-1
100
AcDbCircle
10
4.28494094488
20
8.84891732283
40
0.0625
100
AcDbArc
50
90
51
180
0
LINE
5
1A0
100
AcDbEntity
8
OUTER_BOUNDARY
6
ByLayer
62
256
370
-1
100
AcDbLine
10
4.28494094488
20
8.91141732283
11
39.0221456693
21
8.91141732283
0
LINE
5
1A1
100
AcDbEntity
8
OUTER_BOUNDARY
6
ByLayer
62
256
370
-1
100
AcDbLine
10
39.0846456693
20
7.76968503937
11
39.0846456693
21
8.84891732283
0
ARC
5
1A2
100
AcDbEntity
8
OUTER_BOUNDARY
6
ByLayer
62
256
370
-1
100
AcDbCircle
10
39.0221456693
20
8.84891732283
40
0.0625
100
AcDbArc
50
0
51
90
0
LINE
5
1A3
100
AcDbEntity
8
OUTER_BOUNDARY
6
ByLayer
62
256
370
-1
100
AcDbLine
10
41.0531496063
20
7.76968503937
11
41.0531496063
21
8.84891732283
0
ARC
5
1A4
100
AcDbEntity
8
OUTER_BOUNDARY
6
ByLayer
62
256
370
-1
100
AcDbCircle
10
41.1156496063
20
8.84891732283
40
0.0625
100
AcDbArc
50
90
51
180
0
LINE
5
1A5
100
AcDbEntity
8
OUTER_BOUNDARY
6
ByLayer
62
256
370
-1
100
AcDbLine
10
41.1156496063
20
8.91141732283
11
43.2445866142
21
8.91141732283
0
ARC
5
1A6
100
AcDbEntity
8
OUTER_BOUNDARY
6
ByLayer
62
256
370
-1
100
AcDbCircle
10
43.2445866142
20
8.84891732283
40
0.0625
100
AcDbArc
50
0
51
90
0
LINE
5
1A7
100
AcDbEntity
8
OUTER_BOUNDARY
6
ByLayer
62
256
370
-1
100
AcDbLine
10
43.3070866142
20
8.84891732283
11
43.3070866142
21
0.0625
0
ARC
5
1A8
100
AcDbEntity
8
OUTER_BOUNDARY
6
ByLayer
62
256
370
-1
100
AcDbCircle
10
43.2445866142
20
0.0625
40
0.0625
100
AcDbArc
50
270
51
3.81666561776e-13
0
LINE
5
1A9
100
AcDbEntity
8
OUTER_BOUNDARY
6
ByLayer
62
256
370
-1
100
AcDbLine
10
0
20
0.0625
11
0
21
8.84891732283
0
LINE
5
1AA
100
AcDbEntity
8
OUTER_BOUNDARY
6
ByLayer
62
256
370
-1
100
AcDbLine
10
43.2445866142
20
2.77555756156e-17
11
0.0625
21
2.77555756156e-17
0
ARC
5
1AB
100
AcDbEntity
8
OUTER_BOUNDARY
6
ByLayer
62
256
370
-1
100
AcDbCircle
10
0.0625
20
0.0625
40
0.0625
100
AcDbArc
50
180
51
270
0
DIMENSION
5
1AC
100
AcDbEntity
8
DIMENSION
6
ByLayer
62
256
370
-1
100
AcDbDimension
2
*D1
10
11.4517716535
20
5.88484251969
30
0
11
10.8267716535
21
6.14734251969
31
0
70
32
71
5
72
0
3
Standard
53
0
210
0
220
0
230
1
100
AcDbAlignedDimension
13
10.2017716535
23
6.82480314961
33
0
14
11.4517716535
24
6.82480314961
34
0
100
AcDbRotatedDimension
0
DIMENSION
5
1AD
100
AcDbEntity
8
DIMENSION
6
ByLayer
62
256
370
-1
100
AcDbDimension
2
*D2
10
11.4517716535
20
3.01820866142
30
0
11
10.8267716535
21
3.28070866142
31
0
70
32
71
5
72
0
3
Standard
53
0
210
0
220
0
230
1
100
AcDbAlignedDimension
13
10.2017716535
23
2.33661417323
33
0
14
11.4517716535
24
2.33661417323
34
0
100
AcDbRotatedDimension
0
DIMENSION
5
1AE
100
AcDbEntity
8
DIMENSION
6
ByLayer
62
256
370
-1
100
AcDbDimension
2
*D3
10
33.1053149606
20
6.15551181102
30
0
11
32.4803149606
21
6.41801181102
31
0
70
32
71
5
72
0
3
Standard
53
0
210
0
220
0
230
1
100
AcDbAlignedDimension
13
31.8553149606
23
6.82480314961
33
0
14
33.1053149606
24
6.82480314961
34
0
100
AcDbRotatedDimension
0
DIMENSION
5
1AF
100
AcDbEntity
8
DIMENSION
6
ByLayer
62
256
370
-1
100
AcDbDimension
2
*D4
10
33.1053149606
20
3.16584645669
30
0
11
32.4803149606
21
3.42834645669
31
0
70
32
71
5
72
0
3
Standard
53
0
210
0
220
0
230
1
100
AcDbAlignedDimension
13
31.8553149606
23
2.33661417323
33
0
14
33.1053149606
24
2.33661417323
34
0
100
AcDbRotatedDimension
0
DIMENSION
5
1B0
100
AcDbEntity
8
DIMENSION
6
ByLayer
62
256
370
-1
100
AcDbDimension
2
*D5
10
33.4645669291
20
7.41658464567
30
0
11
32.4803149606
21
7.67908464567
31
0
70
32
71
5
72
0
3
Standard
53
0
210
0
220
0
230
1
100
AcDbAlignedDimension
13
31.4960629921
23
8.20275590551
33
0
14
33.4645669291
24
8.20275590551
34
0
100
AcDbRotatedDimension
0
DIMENSION
5
1B1
100
AcDbEntity
8
DIMENSION
6
ByLayer
62
256
370
-1
100
AcDbDimension
2
*D6
10
33.4645669291
20
1.58796751969
30
0
11
32.4803149606
21
1.85046751969
31
0
70
32
71
5
72
0
3
Standard
53
0
210
0
220
0
230
1
100
AcDbAlignedDimension
13
31.4960629921
23
0.958661417323
33
0
14
33.4645669291
24
0.958661417323
34
0
100
AcDbRotatedDimension
0
DIMENSION
5
1B2
100
AcDbEntity
8
DIMENSION
6
ByLayer
62
256
370
-1
100
AcDbDimension
2
*D7
10
11.811023622
20
7.40551181102
30
0
11
10.8267716535
21
7.66801181102
31
0
70
32
71
5
72
0
3
Standard
53
0
210
0
220
0
230
1
100
AcDbAlignedDimension
13
9.84251968504
23
8.20275590551
33
0
14
11.811023622
24
8.20275590551
34
0
100
AcDbRotatedDimension
0
DIMENSION
5
1B3
100
AcDbEntity
8
DIMENSION
6
ByLayer
62
256
370
-1
100
AcDbDimension
2
*D8
10
11.811023622
20
1.40649606299
30
0
11
10.8267716535
21
1.66899606299
31
0
70
32
71
5
72
0
3
Standard
53
0
210
0
220
0
230
1
100
AcDbAlignedDimension
13
9.84251968504
23
0.958661417323
33
0
14
11.811023622
24
0.958661417323
34
0
100
AcDbRotatedDimension
0
DIMENSION
5
1B4
100
AcDbEntity
8
DIMENSION
6
ByLayer
62
256
370
-1
100
AcDbDimension
2
*D9
10
12.906003937
20
8.20275590551
30
0
11
12.643503937
21
8.32086614173
31
0
70
32
71
5
72
0
3
Standard
53
0
210
0
220
0
230
1
100
AcDbAlignedDimension
13
11.811023622
23
8.43897637795
33
0
14
11.811023622
24
8.20275590551
34
0
50
90
100
AcDbRotatedDimension
0
DIMENSION
5
1B5
100
AcDbEntity
8
DIMENSION
6
ByLayer
62
256
370
-1
100
AcDbDimension
2
*D10
10
12.9644438976
20
0.722440944882
30
0
11
12.7019438976
21
0.840551181102
31
0
70
32
71
5
72
0
3
Standard
53
0
210
0
220
0
230
1
100
AcDbAlignedDimension
13
11.811023622
23
0.958661417323
33
0
14
11.811023622
24
0.722440944882
34
0
50
90
100
AcDbRotatedDimension
0
DIMENSION
5
1B6
100
AcDbEntity
8
DIMENSION
6
ByLayer
62
256
370
-1
100
AcDbDimension
2
*D11
10
30.3734005906
20
0.722440944882
30
0
11
30.1109005906
21
0.840551181102
31
0
70
32
71
5
72
0
3
Standard
53
0
210
0
220
0
230
1
100
AcDbAlignedDimension
13
31.4960629921
23
0.958661417323
33
0
14
31.4960629921
24
0.722440944882
34
0
50
90
100
AcDbRotatedDimension
0
DIMENSION
5
1B7
100
AcDbEntity
8
DIMENSION
6
ByLayer
62
256
370
-1
100
AcDbDimension
2
*D12
10
30.031496063
20
8.20275590551
30
0
11
29.768996063
21
8.32086614173
31
0
70
32
71
5
72
0
3
Standard
53
0
210
0
220
0
230
1
100
AcDbAlignedDimension
13
31.4960629921
23
8.43897637795
33
0
14
31.4960629921
24
8.20275590551
34
0
50
90
100
AcDbRotatedDimension
0
DIMENSION
5
1B8
100
AcDbEntity
8
DIMENSION
6
ByLayer
62
256
370
-1
100
AcDbDimension
2
*D13
10
8.70447834646
20
8.91141732283
30
0
11
8.44197834646
21
8.61614173228
31
0
70
32
71
5
72
0
3
Standard
53
0
210
0
220
0
230
1
100
AcDbAlignedDimension
13
9.84251968504
23
8.32086614173
33
0
14
4.28494094488
24
8.91141732283
34
0
50
90
100
AcDbRotatedDimension
0
DIMENSION
5
1B9
100
AcDbEntity
8
DIMENSION
6
ByLayer
62
256
370
-1
100
AcDbDimension
2
*D14
10
7.2188976378
20
8.91141732283
30
0
11
6.9563976378
21
7.86811023622
31
0
70
32
71
5
72
0
3
Standard
53
0
210
0
220
0
230
1
100
AcDbAlignedDimension
13
10.2017716535
23
6.82480314961
33
0
14
4.28494094488
24
8.91141732283
34
0
50
90
100
AcDbRotatedDimension
0
DIMENSION
5
1BA
100
AcDbEntity
8
DIMENSION
6
ByLayer
62
256
370
-1
100
AcDbDimension
2
*D15
10
35.1102362205
20
8.91141732283
30
0
11
34.8477362205
21
8.61614173228
31
0
70
32
71
5
72
0
3
Standard
53
0
210
0
220
0
230
1
100
AcDbAlignedDimension
13
33.4645669291
23
8.32086614173
33
0
14
39.0221456693
24
8.91141732283
34
0
50
90
100
AcDbRotatedDimension
0
DIMENSION
5
1BB
100
AcDbEntity
8
DIMENSION
6
ByLayer
62
256
370
-1
100
AcDbDimension
2
*D16
10
36.2450787402
20
8.91141732283
30
0
11
35.9825787402
21
7.86811023622
31
0
70
32
71
5
72
0
3
Standard
53
0
210
0
220
0
230
1
100
AcDbAlignedDimension
13
33.1053149606
23
6.82480314961
33
0
14
39.0221456693
24
8.91141732283
34
0
50
90
100
AcDbRotatedDimension
0
DIMENSION
5
1BC
100
AcDbEntity
8
DIMENSION
6
ByLayer
62
256
370
-1
100
AcDbDimension
2
*D17
10
8.74076302594
20
0.25
30
0
11
8.47826302594
21
0.545275590551
31
0
70
32
71
5
72
0
3
Standard
53
0
210
0
220
0
230
1
100
AcDbAlignedDimension
13
9.84251968504
23
0.840551181102
33
0
14
0
24
0.25
34
0
50
90
100
AcDbRotatedDimension
0
DIMENSION
5
1BD
100
AcDbEntity
8
DIMENSION
6
ByLayer
62
256
370
-1
100
AcDbDimension
2
*D18
10
7.07431102362
20
0.25
30
0
11
6.81181102362
21
1.29330708661
31
0
70
32
71
5
72
0
3
Standard
53
0
210
0
220
0
230
1
100
AcDbAlignedDimension
13
10.2017716535
23
2.33661417323
33
0
14
0
24
0.25
34
0
50
90
100
AcDbRotatedDimension
0
DIMENSION
5
1BE
100
AcDbEntity
8
DIMENSION
6
ByLayer
62
256
370
-1
100
AcDbDimension
2
*D19
10
35.6839397761
20
0.25
30
0
11
35.4214397761
21
0.545275590551
31
0
70
32
71
5
72
0
3
Standard
53
0
210
0
220
0
230
1
100
AcDbAlignedDimension
13
33.4645669291
23
0.840551181102
33
0
14
43.3070866142
24
0.25
34
0
50
90
100
AcDbRotatedDimension
0
DIMENSION
5
1BF
100
AcDbEntity
8
DIMENSION
6
ByLayer
62
256
370
-1
100
AcDbDimension
2
*D20
10
37.1257151206
20
0.25
30
0
11
36.8632151206
21
1.29330708661
31
0
70
32
71
5
72
0
3
Standard
53
0
210
0
220
0
230
1
100
AcDbAlignedDimension
13
33.1053149606
23
2.33661417323
33
0
14
43.3070866142
24
0.25
34
0
50
90
100
AcDbRotatedDimension
0
DIMENSION
5
1C0
100
AcDbEntity
8
DIMENSION
6
ByLayer
62
256
370
-1
100
AcDbDimension
2
*D21
10
47.3863496555
20
0.25
30
0
11
47.1238496555
21
4.58070866142
31
0
70
32
71
5
72
0
3
Standard
53
0
210
0
220
0
230
1
100
AcDbAlignedDimension
13
43.2445866142
23
8.91141732283
33
0
14
43.3070866142
24
0.25
34
0
50
90
100
AcDbRotatedDimension
0
DIMENSION
5
1C1
100
AcDbEntity
8
DIMENSION
6
ByLayer
62
256
370
-1
100
AcDbDimension
2
*D22
10
43.3070866142
20
-1.81504281111
30
0
11
21.6535433071
21
-1.55254281111
31
0
70
32
71
5
72
0
3
Standard
53
0
210
0
220
0
230
1
100
AcDbAlignedDimension
13
0
23
0.25
33
0
14
43.3070866142
24
0.25
34
0
100
AcDbRotatedDimension
0
DIMENSION
5
1C2
100
AcDbEntity
8
DIMENSION
6
ByLayer
62
256
370
-1
100
AcDbDimension
2
*D23
10
-0.650078740157
20
2.77555756156e-17
30
0
11
-0.912578740157
21
0.125
31
0
70
32
71
5
72
0
3
Standard
53
0
210
0
220
0
230
1
100
AcDbAlignedDimension
13
0
23
0.25
33
0
14
0.0625
24
2.77555756156e-17
34
0
50
90
100
AcDbRotatedDimension
0
DIMENSION
5
1C3
100
AcDbEntity
8
DIMENSION
6
ByLayer
62
256
370
-1
100
AcDbDimension
2
*D24
10
-3.33222817248
20
8.91141732283
30
0
11
-3.59472817248
21
4.45570866142
31
0
70
32
71
5
72
0
3
Standard
53
0
210
0
220
0
230
1
100
AcDbAlignedDimension
13
0.0625
23
2.77555756156e-17
33
0
14
0.0625
24
8.91141732283
34
0
50
90
100
AcDbRotatedDimension
0
DIMENSION
5
1C4
100
AcDbEntity
8
DIMENSION
6
ByLayer
62
256
370
-1
100
AcDbDimension
2
*D25
10
4.22244094488
20
7.21850393701
30
0
11
3.23818897638
21
7.48100393701
31
0
70
32
71
5
72
0
3
Standard
53
0
210
0
220
0
230
1
100
AcDbAlignedDimension
13
2.25393700787
23
7.76968503937
33
0
14
4.22244094488
24
7.76968503937
34
0
100
AcDbRotatedDimension
0
DIMENSION
5
1C5
100
AcDbEntity
8
DIMENSION
6
ByLayer
62
256
370
-1
100
AcDbDimension
2
*D26
10
41.0531496063
20
7.12401574803
30
0
11
40.0688976378
21
7.38651574803
31
0
70
32
71
5
72
0
3
Standard
53
0
210
0
220
0
230
1
100
AcDbAlignedDimension
13
39.0846456693
23
7.76968503937
33
0
14
41.0531496063
24
7.76968503937
34
0
100
AcDbRotatedDimension
0
DIMENSION
5
1C6
100
AcDbEntity
8
DIMENSION
6
ByLayer
62
256
370
-1
100
AcDbDimension
2
*D27
10
6.51226754205e-17
20
9.76968503937
30
0
11
1.61909448819
21
10.0321850394
31
0
70
32
71
5
72
0
3
Standard
53
0
210
0
220
0
230
1
100
AcDbAlignedDimension
13
3.23818897638
23
7.76968503937
33
0
14
8.74191357972e-18
24
8.84891732283
34
0
100
AcDbRotatedDimension
0
DIMENSION
5
1C7
100
AcDbEntity
8
DIMENSION
6
ByLayer
62
256
370
-1
100
AcDbDimension
2
*D28
10
43.3070866142
20
9.77755905512
30
0
11
41.687992126
21
10.0400590551
31
0
70
32
71
5
72
0
3
Standard
53
0
210
0
220
0
230
1
100
AcDbAlignedDimension
13
40.0688976378
23
7.76968503937
33
0
14
43.3070866142
24
8.84891732283
34
0
100
AcDbRotatedDimension
0
DIMENSION
5
1C8
100
AcDbEntity
8
DIMENSION
6
ByLayer
62
256
370
-1
100
AcDbDimension
2
*D29
10
42.0243149606
20
8.91141732283
30
0
11
41.7618149606
21
8.3405511811
31
0
70
32
71
5
72
0
3
Standard
53
0
210
0
220
0
230
1
100
AcDbAlignedDimension
13
41.0531496063
23
7.76968503937
33
0
14
41.1156496063
24
8.91141732283
34
0
50
90
100
AcDbRotatedDimension
0
DIMENSION
5
1C9
100
AcDbEntity
8
DIMENSION
6
ByLayer
62
256
370
-1
100
AcDbDimension
2
*D30
10
5.16535433071
20
7.76968503937
30
0
11
4.90285433071
21
8.3405511811
31
0
70
32
71
5
72
0
3
Standard
53
0
210
0
220
0
230
1
100
AcDbAlignedDimension
13
4.28494094488
23
8.91141732283
33
0
14
4.22244094488
24
7.76968503937
34
0
50
90
100
AcDbRotatedDimension
0
DIMENSION
5
1CA
100
AcDbEntity
8
DIMENSION
6
ByLayer
62
256
370
-1
100
AcDbDimension
2
*D31
10
-8.27655731587e-17
20
-1.10166438546
30
0
11
5.41338582677
21
-0.839164385457
31
0
70
32
71
5
72
0
3
Standard
53
0
210
0
220
0
230
1
100
AcDbAlignedDimension
13
10.8267716535
23
0.722440944882
33
0
14
0
24
0.25
34
0
100
AcDbRotatedDimension
0
DIMENSION
5
1CB
100
AcDbEntity
8
DIMENSION
6
ByLayer
62
256
370
-1
100
AcDbDimension
2
*D32
10
43.3070866142
20
-1.05720964567
30
0
11
37.8937007874
21
-0.794709645669
31
0
70
32
71
5
72
0
3
Standard
53
0
210
0
220
0
230
1
100
AcDbAlignedDimension
13
32.4803149606
23
0.722440944882
33
0
14
43.3070866142
24
0.25
34
0
100
AcDbRotatedDimension
0
DIMENSION
5
1CC
100
AcDbEntity
8
DIMENSION
6
ByLayer
62
256
370
-1
100
AcDbDimension
2
*D33
10
43.3070866142
20
10.8922244094
30
0
11
37.8937007874
21
11.1547244094
31
0
70
32
71
5
72
0
3
Standard
53
0
210
0
220
0
230
1
100
AcDbAlignedDimension
13
32.4803149606
23
8.43897637795
33
0
14
43.3070866142
24
8.84891732283
34
0
100
AcDbRotatedDimension
0
DIMENSION
5
1CD
100
AcDbEntity
8
DIMENSION
6
ByLayer
62
256
370
-1
100
AcDbDimension
2
*D34
10
1.42443538867e-16
20
11.1751968504
30
0
11
5.41338582677
21
11.4376968504
31
0
70
32
71
5
72
0
3
Standard
53
0
210
0
220
0
230
1
100
AcDbAlignedDimension
13
10.8267716535
23
8.43897637795
33
0
14
0
24
8.84891732283
34
0
100
AcDbRotatedDimension
0
ENDSEC
0
SECTION
2
OBJECTS
0
DICTIONARY
5
C
330
0
100
AcDbDictionary
281
1
3
ACAD_GROUP
350
D
0
DICTIONARY
5
D
330
C
100
AcDbDictionary
281
1
0
ENDSEC
0
EOF
