999
dxfrw 0.5.11
0
SECTION
2
HEADER
9
$ACADVER
1
AC1021
9
$HANDSEED
5
20000
9
$DWGCODEPAGE
3
ANSI_1252
9
$INSBASE
10
0
20
0
30
0
9
$EXTMIN
10
-3.38715545197
20
-4.2276461379
30
0
9
$EXTMAX
10
44.6547028395
20
16.2632185039
30
0
9
$LIMMIN
10
0
20
0
9
$LIMMAX
10
420
20
297
9
$ORTHOMODE
70
0
9
$LTSCALE
40
1
9
$TEXTSTYLE
7
STANDARD
9
$CLAYER
8
DIMENSION
9
$DIMASZ
40
1
9
$DIMLFAC
40
1
9
$DIMSCALE
40
1
9
$DIMEXO
40
0.025
9
$DIMEXE
40
0.05
9
$DIMTXT
40
1
9
$DIMTSZ
40
0
9
$DIMAUNIT
70
0
9
$DIMADEC
70
2
9
$DIMLUNIT
70
2
9
$DIMSTYLE
2
STANDARD
9
$DIMGAP
40
0.025
9
$DIMTIH
70
0
9
$LUNITS
70
2
9
$LUPREC
70
4
9
$AUNITS
70
0
9
$AUPREC
70
2
9
$SPLINESEGS
70
8
9
$GRIDMODE
70
1
9
$SNAPSTYLE
70
0
9
$GRIDUNIT
10
0
20
0
9
$PINSBASE
10
0
20
0
30
0
9
$PLIMMIN
10
0
20
0
9
$PLIMMAX
10
1.9863308e-05
20
2.80924e-05
9
$INSUNITS
70
1
9
$PSVPSCALE
40
1
0
ENDSEC
0
SECTION
2
CLASSES
0
ENDSEC
0
SECTION
2
TABLES
0
TABLE
2
VPORT
5
8
330
0
100
AcDbSymbolTable
70
1
0
VPORT
5
31
330
2
100
AcDbSymbolTableRecord
100
AcDbViewportTableRecord
2
*ACTIVE
70
0
10
0
20
0
11
1
21
1
12
27.3203443941
22
11.4893123992
13
0
23
0
14
10
24
10
15
10
25
10
16
0
26
0
36
1
17
0
27
0
37
0
40
40.6999292703
41
1.40348330914
42
50
43
0
44
0
50
0
51
0
71
0
72
100
73
1
74
3
75
0
76
1
77
0
78
0
281
0
65
1
110
0
120
0
130
0
111
1
121
0
131
0
112
0
122
1
132
0
79
0
146
0
348
10020
60
7
61
5
292
1
282
1
141
0
142
0
63
250
421
3358443
0
ENDTAB
0
TABLE
2
LTYPE
5
5
330
0
100
AcDbSymbolTable
70
4
0
LTYPE
5
14
330
5
100
AcDbSymbolTableRecord
100
AcDbLinetypeTableRecord
2
ByBlock
70
0
3

72
65
73
0
40
0
0
LTYPE
5
15
330
5
100
AcDbSymbolTableRecord
100
AcDbLinetypeTableRecord
2
ByLayer
70
0
3

72
65
73
0
40
0
0
LTYPE
5
16
330
5
100
AcDbSymbolTableRecord
100
AcDbLinetypeTableRecord
2
Continuous
70
0
3
Solid line
72
65
73
0
40
0
0
LTYPE
5
32
330
5
100
AcDbSymbolTableRecord
100
AcDbLinetypeTableRecord
2
DOT
70
0
3
Dot . . . . . . . . . . . . . . . . . . . . . .
72
65
73
2
40
6.35
49
0
74
0
49
-6.35
74
0
0
LTYPE
5
33
330
5
100
AcDbSymbolTableRecord
100
AcDbLinetypeTableRecord
2
DOT2
70
0
3
Dot (.5x) .....................................
72
65
73
2
40
3.175
49
0
74
0
49
-3.175
74
0
0
LTYPE
5
34
330
5
100
AcDbSymbolTableRecord
100
AcDbLinetypeTableRecord
2
DOTX2
70
0
3
Dot (2x) .  .  .  .  .  .  .  .  .  .  .  .  .
72
65
73
2
40
12.7
49
0
74
0
49
-12.7
74
0
0
LTYPE
5
35
330
5
100
AcDbSymbolTableRecord
100
AcDbLinetypeTableRecord
2
DASHED
70
0
3
Dot . . . . . . . . . . . . . . . . . . . . . .
72
65
73
2
40
19.05
49
12.7
74
0
49
-6.35
74
0
0
LTYPE
5
36
330
5
100
AcDbSymbolTableRecord
100
AcDbLinetypeTableRecord
2
DASHED2
70
0
3
Dashed (.5x) _ _ _ _ _ _ _ _ _ _ _ _ _ _ _ _ _
72
65
73
2
40
9.525
49
6.35
74
0
49
-3.175
74
0
0
LTYPE
5
37
330
5
100
AcDbSymbolTableRecord
100
AcDbLinetypeTableRecord
2
DASHEDX2
70
0
3
Dashed (2x) ____  ____  ____  ____  ____  ___
72
65
73
2
40
38.1
49
25.4
74
0
49
-12.7
74
0
0
LTYPE
5
38
330
5
100
AcDbSymbolTableRecord
100
AcDbLinetypeTableRecord
2
DASHDOT
70
0
3
Dash dot __ . __ . __ . __ . __ . __ . __ . __
72
65
73
4
40
25.4
49
12.7
74
0
49
-6.35
74
0
49
0
74
0
49
-6.35
74
0
0
LTYPE
5
39
330
5
100
AcDbSymbolTableRecord
100
AcDbLinetypeTableRecord
2
DASHDOT2
70
0
3
Dash dot (.5x) _._._._._._._._._._._._._._._.
72
65
73
4
40
12.7
49
6.35
74
0
49
-3.175
74
0
49
0
74
0
49
-3.175
74
0
0
LTYPE
5
3A
330
5
100
AcDbSymbolTableRecord
100
AcDbLinetypeTableRecord
2
DASHDOTX2
70
0
3
Dash dot (2x) ____  .  ____  .  ____  .  ___
72
65
73
4
40
50.8
49
25.4
74
0
49
-12.7
74
0
49
0
74
0
49
-12.7
74
0
0
LTYPE
5
3B
330
5
100
AcDbSymbolTableRecord
100
AcDbLinetypeTableRecord
2
DIVIDE
70
0
3
Divide ____ . . ____ . . ____ . . ____ . . ____
72
65
73
6
40
31.75
49
12.7
74
0
49
-6.35
74
0
49
0
74
0
49
-6.35
74
0
49
0
74
0
49
-6.35
74
0
0
LTYPE
5
3C
330
5
100
AcDbSymbolTableRecord
100
AcDbLinetypeTableRecord
2
DIVIDE2
70
0
3
Divide (.5x) __..__..__..__..__..__..__..__.._
72
65
73
6
40
15.875
49
6.35
74
0
49
-3.175
74
0
49
0
74
0
49
-3.175
74
0
49
0
74
0
49
-3.175
74
0
0
LTYPE
5
3D
330
5
100
AcDbSymbolTableRecord
100
AcDbLinetypeTableRecord
2
DIVIDEX2
70
0
3
Divide (2x) ________  .  .  ________  .  .  _
72
65
73
6
40
63.5
49
25.4
74
0
49
-12.7
74
0
49
0
74
0
49
-12.7
74
0
49
0
74
0
49
-12.7
74
0
0
LTYPE
5
3E
330
5
100
AcDbSymbolTableRecord
100
AcDbLinetypeTableRecord
2
BORDER
70
0
3
Border __ __ . __ __ . __ __ . __ __ . __ __ .
72
65
73
6
40
44.45
49
12.7
74
0
49
-6.35
74
0
49
12.7
74
0
49
-6.35
74
0
49
0
74
0
49
-6.35
74
0
0
LTYPE
5
3F
330
5
100
AcDbSymbolTableRecord
100
AcDbLinetypeTableRecord
2
BORDER2
70
0
3
Border (.5x) __.__.__.__.__.__.__.__.__.__.__.
72
65
73
6
40
22.225
49
6.35
74
0
49
-3.175
74
0
49
6.35
74
0
49
-3.175
74
0
49
0
74
0
49
-3.175
74
0
0
LTYPE
5
40
330
5
100
AcDbSymbolTableRecord
100
AcDbLinetypeTableRecord
2
BORDERX2
70
0
3
Border (2x) ____  ____  .  ____  ____  .  ___
72
65
73
6
40
88.9
49
25.4
74
0
49
-12.7
74
0
49
25.4
74
0
49
-12.7
74
0
49
0
74
0
49
-12.7
74
0
0
LTYPE
5
41
330
5
100
AcDbSymbolTableRecord
100
AcDbLinetypeTableRecord
2
CENTER
70
0
3
Center ____ _ ____ _ ____ _ ____ _ ____ _ ____
72
65
73
4
40
50.8
49
31.75
74
0
49
-6.35
74
0
49
6.35
74
0
49
-6.35
74
0
0
LTYPE
5
42
330
5
100
AcDbSymbolTableRecord
100
AcDbLinetypeTableRecord
2
CENTER2
70
0
3
Center (.5x) ___ _ ___ _ ___ _ ___ _ ___ _ ___
72
65
73
4
40
28.575
49
19.05
74
0
49
-3.175
74
0
49
3.175
74
0
49
-3.175
74
0
0
LTYPE
5
43
330
5
100
AcDbSymbolTableRecord
100
AcDbLinetypeTableRecord
2
CENTERX2
70
0
3
Center (2x) ________  __  ________  __  _____
72
65
73
4
40
101.6
49
63.5
74
0
49
-12.7
74
0
49
12.7
74
0
49
-12.7
74
0
0
ENDTAB
0
TABLE
2
LAYER
5
2
330
0
100
AcDbSymbolTable
70
1
0
LAYER
5
10
330
2
100
AcDbSymbolTableRecord
100
AcDbLayerTableRecord
2
0
70
0
62
7
6
CONTINUOUS
370
0
390
F
0
LAYER
5
44
330
2
100
AcDbSymbolTableRecord
100
AcDbLayerTableRecord
2
DIMENSION
70
0
62
9
6
CONTINUOUS
370
0
390
F
0
LAYER
5
45
330
2
100
AcDbSymbolTableRecord
100
AcDbLayerTableRecord
2
INSERT_HOLE_8-32
70
0
62
30
420
16744448
6
CONTINUOUS
370
0
390
F
0
LAYER
5
46
330
2
100
AcDbSymbolTableRecord
100
AcDbLayerTableRecord
2
LASER_PLATE_POCKET
70
0
62
6
6
CONTINUOUS
370
0
390
F
0
LAYER
5
47
330
2
100
AcDbSymbolTableRecord
100
AcDbLayerTableRecord
2
M6_COUNTER_SINK
70
0
62
3
6
CONTINUOUS
370
0
390
F
0
LAYER
5
48
330
2
100
AcDbSymbolTableRecord
100
AcDbLayerTableRecord
2
M6_THROUGH_HOLE
70
0
62
2
6
CONTINUOUS
370
0
390
F
0
LAYER
5
49
330
2
100
AcDbSymbolTableRecord
100
AcDbLayerTableRecord
2
OUTER_BOUNDARY
70
0
62
5
6
CONTINUOUS
370
0
390
F
0
LAYER
5
4A
330
2
100
AcDbSymbolTableRecord
100
AcDbLayerTableRecord
2
VENT_CUTOUT
70
0
62
216
420
8388736
6
CONTINUOUS
370
0
390
F
0
ENDTAB
0
TABLE
2
STYLE
5
3
330
0
100
AcDbSymbolTable
70
3
0
STYLE
5
4B
330
2
100
AcDbSymbolTableRecord
100
AcDbTextStyleTableRecord
2
Standard
70
0
40
0
41
1
50
0
71
0
42
1
3
txt
4

0
ENDTAB
0
TABLE
2
VIEW
5
6
330
0
100
AcDbSymbolTable
70
0
0
ENDTAB
0
TABLE
2
UCS
5
7
330
0
100
AcDbSymbolTable
70
0
0
ENDTAB
0
TABLE
2
APPID
5
9
330
0
100
AcDbSymbolTable
70
1
0
APPID
5
12
330
9
100
AcDbSymbolTableRecord
100
AcDbRegAppTableRecord
2
ACAD
70
0
0
ENDTAB
0
TABLE
2
DIMSTYLE
5
A
330
0
100
AcDbSymbolTable
70
1
100
AcDbDimStyleTable
71
1
0
DIMSTYLE
105
4C
330
A
100
AcDbSymbolTableRecord
100
AcDbDimStyleTableRecord
2
Standard
70
0
40
1
41
1
42
0.025
43
0.38
44
0.05
45
0
46
0
47
0
48
0
140
1
141
0.09
142
0
143
25.4
144
1
145
0
146
1
147
0.025
148
0
71
0
72
0
73
0
74
1
75
0
76
0
77
0
78
0
79
0
170
0
171
2
172
0
173
0
174
0
175
0
176
0
177
0
178
0
179
0
271
4
272
4
273
2
274
2
275
0
276
0
277
2
278
46
279
0
280
0
281
0
282
0
283
1
284
0
285
0
286
0
288
0
289
3
340
Standard
341

371
-2
372
-2
0
ENDTAB
0
TABLE
2
BLOCK_RECORD
5
1
330
0
100
AcDbSymbolTable
70
2
0
BLOCK_RECORD
5
1F
330
1
100
AcDbSymbolTableRecord
100
AcDbBlockTableRecord
2
*Model_Space
70
0
280
1
281
0
0
BLOCK_RECORD
5
1E
330
1
100
AcDbSymbolTableRecord
100
AcDbBlockTableRecord
2
*Paper_Space
70
0
280
1
281
0
0
BLOCK_RECORD
5
4D
330
1
100
AcDbSymbolTableRecord
100
AcDbBlockTableRecord
2
*D3
70
0
280
1
281
0
0
BLOCK_RECORD
5
50
330
1
100
AcDbSymbolTableRecord
100
AcDbBlockTableRecord
2
*D4
70
0
280
1
281
0
0
BLOCK_RECORD
5
53
330
1
100
AcDbSymbolTableRecord
100
AcDbBlockTableRecord
2
*D1
70
0
280
1
281
0
0
BLOCK_RECORD
5
56
330
1
100
AcDbSymbolTableRecord
100
AcDbBlockTableRecord
2
*D5
70
0
280
1
281
0
0
BLOCK_RECORD
5
59
330
1
100
AcDbSymbolTableRecord
100
AcDbBlockTableRecord
2
*D6
70
0
280
1
281
0
0
BLOCK_RECORD
5
5C
330
1
100
AcDbSymbolTableRecord
100
AcDbBlockTableRecord
2
*D2
70
0
280
1
281
0
0
BLOCK_RECORD
5
5F
330
1
100
AcDbSymbolTableRecord
100
AcDbBlockTableRecord
2
*D7
70
0
280
1
281
0
0
ENDTAB
0
ENDSEC
0
SECTION
2
BLOCKS
0
BLOCK
5
20
330
1F
100
AcDbEntity
8
0
100
AcDbBlockBegin
2
*Model_Space
70
0
10
0
20
0
30
0
3
*Model_Space
1

0
ENDBLK
5
21
330
1F
100
AcDbEntity
8
0
100
AcDbBlockEnd
0
BLOCK
5
1C
330
1B
100
AcDbEntity
8
0
100
AcDbBlockBegin
2
*Paper_Space
70
0
10
0
20
0
30
0
3
*Paper_Space
1

0
ENDBLK
5
1D
330
1F
100
AcDbEntity
8
0
100
AcDbBlockEnd
0
BLOCK
5
4E
330
4D
100
AcDbEntity
8
0
100
AcDbBlockBegin
2
*D3
70
1
10
0
20
0
3
*D3
1

0
LINE
5
62
100
AcDbEntity
8
DIMENSION
6
CONTINUOUS
62
7
370
0
100
AcDbLine
10
41.6421142453
20
10.657007874
11
41.6421142453
21
2.53196850394
0
SOLID
5
63
100
AcDbEntity
8
DIMENSION
6
CONTINUOUS
62
7
370
0
100
AcDbTrace
10
41.6421142453
20
10.657007874
30
0
11
41.8086281084
21
9.657007874
31
0
12
41.4756003822
22
9.657007874
32
0
13
41.4756003822
23
9.657007874
33
0
0
SOLID
5
64
100
AcDbEntity
8
DIMENSION
6
CONTINUOUS
62
7
370
0
100
AcDbTrace
10
41.6421142453
20
2.53196850394
30
0
11
41.4756003822
21
3.53196850394
31
0
12
41.8086281084
22
3.53196850394
32
0
13
41.8086281084
23
3.53196850394
33
0
0
MTEXT
5
65
100
AcDbEntity
8
DIMENSION
6
CONTINUOUS
62
7
370
0
100
AcDbMText
10
41.1171142453
20
6.59448818898
30
0
40
1
41
2.88888888889
71
5
72
1
1
8.125
7
standard
210
0
220
0
230
1
50
90
73
2
44
1
0
LINE
5
66
100
AcDbEntity
8
DIMENSION
6
CONTINUOUS
62
7
370
0
100
AcDbLine
10
40.5048228346
20
10.657007874
11
41.6921142453
21
10.657007874
0
LINE
5
67
100
AcDbEntity
8
DIMENSION
6
CONTINUOUS
62
7
370
0
100
AcDbLine
10
40.5048228346
20
2.53196850394
11
41.6921142453
21
2.53196850394
0
ENDBLK
5
4F
330
4D
100
AcDbEntity
8
0
100
AcDbBlockEnd
0
BLOCK
5
51
330
50
100
AcDbEntity
8
0
100
AcDbBlockBegin
2
*D4
70
1
10
0
20
0
3
*D4
1

0
LINE
5
68
100
AcDbEntity
8
DIMENSION
6
CONTINUOUS
62
7
370
0
100
AcDbLine
10
-7.1054273576e-15
20
15.2382185039
11
42.9133858268
21
15.2382185039
0
SOLID
5
69
100
AcDbEntity
8
DIMENSION
6
CONTINUOUS
62
7
370
0
100
AcDbTrace
10
-7.1054273576e-15
20
15.2382185039
30
0
11
1
21
15.404732367
31
0
12
1
22
15.0717046408
32
0
13
1
23
15.0717046408
33
0
0
SOLID
5
6A
100
AcDbEntity
8
DIMENSION
6
CONTINUOUS
62
7
370
0
100
AcDbTrace
10
42.9133858268
20
15.2382185039
30
0
11
41.9133858268
21
15.0717046408
31
0
12
41.9133858268
22
15.404732367
32
0
13
41.9133858268
23
15.404732367
33
0
0
MTEXT
5
6B
100
AcDbEntity
8
DIMENSION
6
CONTINUOUS
62
7
370
0
100
AcDbMText
10
21.4566929134
20
15.7632185039
30
0
40
1
41
4.66666666667
71
5
72
1
1
42.9134
7
standard
210
0
220
0
230
1
50
0
73
2
44
1
0
LINE
5
6C
100
AcDbEntity
8
DIMENSION
6
CONTINUOUS
62
7
370
0
100
AcDbLine
10
-8.72870840277e-17
20
13.213976378
11
-7.28000152566e-15
21
15.2882185039
0
LINE
5
6D
100
AcDbEntity
8
DIMENSION
6
CONTINUOUS
62
7
370
0
100
AcDbLine
10
42.9133858268
20
13.213976378
11
42.9133858268
21
15.2882185039
0
ENDBLK
5
52
330
50
100
AcDbEntity
8
0
100
AcDbBlockEnd
0
BLOCK
5
54
330
53
100
AcDbEntity
8
0
100
AcDbBlockBegin
2
*D1
70
1
10
0
20
0
3
*D1
1

0
LINE
5
6E
100
AcDbEntity
8
DIMENSION
6
CONTINUOUS
62
7
370
0
100
AcDbLine
10
44.4881889764
20
13.188976378
11
44.4881889764
21
-2.7974123455e-16
0
SOLID
5
6F
100
AcDbEntity
8
DIMENSION
6
CONTINUOUS
62
7
370
0
100
AcDbTrace
10
44.4881889764
20
13.188976378
30
0
11
44.6547028395
21
12.188976378
31
0
12
44.3216751133
22
12.188976378
32
0
13
44.3216751133
23
12.188976378
33
0
0
SOLID
5
70
100
AcDbEntity
8
DIMENSION
6
CONTINUOUS
62
7
370
0
100
AcDbTrace
10
44.4881889764
20
-2.7974123455e-16
30
0
11
44.3216751133
21
1
31
0
12
44.6547028395
22
1
32
0
13
44.6547028395
23
1
33
0
0
MTEXT
5
71
100
AcDbEntity
8
DIMENSION
6
CONTINUOUS
62
7
370
0
100
AcDbMText
10
43.9631889764
20
6.59448818898
30
0
40
1
41
3.44444444444
71
5
72
1
1
13.189
7
standard
210
0
220
0
230
1
50
90
73
2
44
1
0
LINE
5
72
100
AcDbEntity
8
DIMENSION
6
CONTINUOUS
62
7
370
0
100
AcDbLine
10
42.9383858268
20
13.188976378
11
44.5381889764
21
13.188976378
0
LINE
5
73
100
AcDbEntity
8
DIMENSION
6
CONTINUOUS
62
7
370
0
100
AcDbLine
10
40.5761811024
20
2.82000985063e-17
11
44.5381889764
21
-2.23341037537e-16
0
ENDBLK
5
55
330
53
100
AcDbEntity
8
0
100
AcDbBlockEnd
0
BLOCK
5
57
330
56
100
AcDbEntity
8
0
100
AcDbBlockBegin
2
*D5
70
1
10
0
20
0
3
*D5
1

0
LINE
5
74
100
AcDbEntity
8
DIMENSION
6
CONTINUOUS
62
7
370
0
100
AcDbLine
10
-2.36215545197
20
13.188976378
11
-2.36215545197
21
2.23964762522e-16
0
SOLID
5
75
100
AcDbEntity
8
DIMENSION
6
CONTINUOUS
62
7
370
0
100
AcDbTrace
10
-2.36215545197
20
13.188976378
30
0
11
-2.19564158886
21
12.188976378
31
0
12
-2.52866931508
22
12.188976378
32
0
13
-2.52866931508
23
12.188976378
33
0
0
SOLID
5
76
100
AcDbEntity
8
DIMENSION
6
CONTINUOUS
62
7
370
0
100
AcDbTrace
10
-2.36215545197
20
2.23964762522e-16
30
0
11
-2.52866931508
21
1
31
0
12
-2.19564158886
22
1
32
0
13
-2.19564158886
23
1
33
0
0
MTEXT
5
77
100
AcDbEntity
8
DIMENSION
6
CONTINUOUS
62
7
370
0
100
AcDbMText
10
-2.88715545197
20
6.59448818898
30
0
40
1
41
3.44444444444
71
5
72
1
1
13.189
7
standard
210
0
220
0
230
1
50
90
73
2
44
1
0
LINE
5
78
100
AcDbEntity
8
DIMENSION
6
CONTINUOUS
62
7
370
0
100
AcDbLine
10
-0.025
20
13.188976378
11
-2.41215545197
21
13.188976378
0
LINE
5
79
100
AcDbEntity
8
DIMENSION
6
CONTINUOUS
62
7
370
0
100
AcDbLine
10
1.21515748031
20
1.41637461308e-17
11
-2.41215545197
21
2.52292254784e-16
0
ENDBLK
5
58
330
56
100
AcDbEntity
8
0
100
AcDbBlockEnd
0
BLOCK
5
5A
330
59
100
AcDbEntity
8
0
100
AcDbBlockBegin
2
*D6
70
1
10
0
20
0
3
*D6
1

0
LINE
5
7A
100
AcDbEntity
8
DIMENSION
6
CONTINUOUS
62
7
370
0
100
AcDbLine
10
0
20
-4.06113227479
11
36.4173228346
21
-4.06113227479
0
SOLID
5
7B
100
AcDbEntity
8
DIMENSION
6
CONTINUOUS
62
7
370
0
100
AcDbTrace
10
0
20
-4.06113227479
30
0
11
1
21
-3.89461841168
31
0
12
1
22
-4.2276461379
32
0
13
1
23
-4.2276461379
33
0
0
SOLID
5
7C
100
AcDbEntity
8
DIMENSION
6
CONTINUOUS
62
7
370
0
100
AcDbTrace
10
36.4173228346
20
-4.06113227479
30
0
11
35.4173228346
21
-4.2276461379
31
0
12
35.4173228346
22
-3.89461841168
32
0
13
35.4173228346
23
-3.89461841168
33
0
0
MTEXT
5
7D
100
AcDbEntity
8
DIMENSION
6
CONTINUOUS
62
7
370
0
100
AcDbMText
10
18.2086614173
20
-3.53613227479
30
0
40
1
41
4.55555555556
71
5
72
1
1
36.4173
7
standard
210
0
220
0
230
1
50
0
73
2
44
1
0
LINE
5
7E
100
AcDbEntity
8
DIMENSION
6
CONTINUOUS
62
7
370
0
100
AcDbLine
10
-4.59227382683e-18
20
1.74665354331
11
-9.18454765367e-18
21
-4.11113227479
0
LINE
5
7F
100
AcDbEntity
8
DIMENSION
6
CONTINUOUS
62
7
370
0
100
AcDbLine
10
36.4173228346
20
6.56948818898
11
36.4173228346
21
-4.11113227479
0
ENDBLK
5
5B
330
59
100
AcDbEntity
8
0
100
AcDbBlockEnd
0
BLOCK
5
5D
330
5C
100
AcDbEntity
8
0
100
AcDbBlockBegin
2
*D2
70
1
10
0
20
0
3
*D2
1

0
LINE
5
80
100
AcDbEntity
8
DIMENSION
6
CONTINUOUS
62
7
370
0
100
AcDbLine
10
32.3548031496
20
11.5962379647
11
40.4798228346
21
11.5962379647
0
SOLID
5
81
100
AcDbEntity
8
DIMENSION
6
CONTINUOUS
62
7
370
0
100
AcDbTrace
10
32.3548031496
20
11.5962379647
30
0
11
33.3548031496
21
11.7627518278
31
0
12
33.3548031496
22
11.4297241016
32
0
13
33.3548031496
23
11.4297241016
33
0
0
SOLID
5
82
100
AcDbEntity
8
DIMENSION
6
CONTINUOUS
62
7
370
0
100
AcDbTrace
10
40.4798228346
20
11.5962379647
30
0
11
39.4798228346
21
11.4297241016
31
0
12
39.4798228346
22
11.7627518278
32
0
13
39.4798228346
23
11.7627518278
33
0
0
MTEXT
5
83
100
AcDbEntity
8
DIMENSION
6
CONTINUOUS
62
7
370
0
100
AcDbMText
10
36.4173129921
20
12.1212379647
30
0
40
1
41
2.88888888889
71
5
72
1
1
8.125
7
standard
210
0
220
0
230
1
50
0
73
2
44
1
0
LINE
5
84
100
AcDbEntity
8
DIMENSION
6
CONTINUOUS
62
7
370
0
100
AcDbLine
10
32.3548031496
20
10.681988189
11
32.3548031496
21
11.6462379647
0
LINE
5
85
100
AcDbEntity
8
DIMENSION
6
CONTINUOUS
62
7
370
0
100
AcDbLine
10
40.4798228346
20
10.682007874
11
40.4798228346
21
11.6462379647
0
ENDBLK
5
5E
330
5C
100
AcDbEntity
8
0
100
AcDbBlockEnd
0
BLOCK
5
60
330
5F
100
AcDbEntity
8
0
100
AcDbBlockBegin
2
*D7
70
1
10
0
20
0
3
*D7
1

0
LINE
5
86
100
AcDbEntity
8
DIMENSION
6
CONTINUOUS
62
7
370
0
100
AcDbLine
10
31.750670512
20
6.59448818898
11
31.750670512
21
7.05319880175e-16
0
SOLID
5
87
100
AcDbEntity
8
DIMENSION
6
CONTINUOUS
62
7
370
0
100
AcDbTrace
10
31.750670512
20
6.59448818898
30
0
11
31.9171843751
21
5.59448818898
31
0
12
31.5841566489
22
5.59448818898
32
0
13
31.5841566489
23
5.59448818898
33
0
0
SOLID
5
88
100
AcDbEntity
8
DIMENSION
6
CONTINUOUS
62
7
370
0
100
AcDbTrace
10
31.750670512
20
7.05319880175e-16
30
0
11
31.5841566489
21
1
31
0
12
31.9171843751
22
1
32
0
13
31.9171843751
23
1
33
0
0
MTEXT
5
89
100
AcDbEntity
8
DIMENSION
6
CONTINUOUS
62
7
370
0
100
AcDbMText
10
31.225670512
20
3.29724409449
30
0
40
1
41
4
71
5
72
1
1
6.5945
7
standard
210
0
220
0
230
1
50
90
73
2
44
1
0
LINE
5
8A
100
AcDbEntity
8
DIMENSION
6
CONTINUOUS
62
7
370
0
100
AcDbLine
10
36.3923228346
20
6.59448818898
11
31.700670512
21
6.59448818898
0
LINE
5
8B
100
AcDbEntity
8
DIMENSION
6
CONTINUOUS
62
7
370
0
100
AcDbLine
10
41.6521653543
20
3.06151588456e-18
11
31.700670512
21
7.11442911944e-16
0
ENDBLK
5
61
330
5F
100
AcDbEntity
8
0
100
AcDbBlockEnd
0
ENDSEC
0
SECTION
2
ENTITIES
0
CIRCLE
5
8C
100
AcDbEntity
8
M6_THROUGH_HOLE
6
ByLayer
62
256
370
-1
100
AcDbCircle
10
0.590551181102
20
4.33070866142
40
0.129921259843
0
CIRCLE
5
8D
100
AcDbEntity
8
M6_THROUGH_HOLE
6
ByLayer
62
256
370
-1
100
AcDbCircle
10
42.3228346457
20
4.33070866142
40
0.129921259843
0
CIRCLE
5
8E
100
AcDbEntity
8
M6_COUNTER_SINK
6
ByLayer
62
256
370
-1
100
AcDbCircle
10
0.590551181102
20
4.33070866142
40
0.255905511811
0
CIRCLE
5
8F
100
AcDbEntity
8
M6_COUNTER_SINK
6
ByLayer
62
256
370
-1
100
AcDbCircle
10
42.3228346457
20
4.33070866142
40
0.255905511811
0
LINE
5
90
100
AcDbEntity
8
LASER_PLATE_POCKET
6
ByLayer
62
256
370
-1
100
AcDbLine
10
2.75590551181
20
-0.590551181102
11
30.5118110236
21
-0.590551181102
0
LINE
5
91
100
AcDbEntity
8
OUTER_BOUNDARY
6
ByLayer
62
256
370
-1
100
AcDbLine
10
42.9133858268
20
13.188976378
11
0
21
13.188976378
0
CIRCLE
5
92
100
AcDbEntity
8
M6_COUNTER_SINK
6
ByLayer
62
256
370
-1
100
AcDbCircle
10
0.590551181102
20
11.2204724409
40
0.255905511811
0
CIRCLE
5
93
100
AcDbEntity
8
M6_THROUGH_HOLE
6
ByLayer
62
256
370
-1
100
AcDbCircle
10
0.590551181102
20
11.2204724409
40
0.129921259843
0
CIRCLE
5
94
100
AcDbEntity
8
M6_THROUGH_HOLE
6
ByLayer
62
256
370
-1
100
AcDbCircle
10
42.3228346457
20
11.2204724409
40
0.129921259843
0
CIRCLE
5
95
100
AcDbEntity
8
M6_COUNTER_SINK
6
ByLayer
62
256
370
-1
100
AcDbCircle
10
42.3228346457
20
11.2204724409
40
0.255905511811
0
LINE
5
96
100
AcDbEntity
8
LASER_PLATE_POCKET
6
ByLayer
62
256
370
-1
100
AcDbLine
10
30.5118110236
20
13.7795275591
11
2.75590551181
21
13.7795275591
0
LINE
5
97
100
AcDbEntity
8
LASER_PLATE_POCKET
6
ByLayer
62
256
370
-1
100
AcDbLine
10
2.75590551181
20
13.7795275591
11
2.75590551181
21
-0.590551181102
0
LINE
5
98
100
AcDbEntity
8
LASER_PLATE_POCKET
6
ByLayer
62
256
370
-1
100
AcDbLine
10
30.5118110236
20
-0.590551181102
11
30.5118110236
21
13.7795275591
0
DIMENSION
5
99
100
AcDbEntity
8
DIMENSION
6
ByLayer
62
256
370
-1
100
AcDbDimension
2
*D1
10
44.4881889764
20
-4.82144409114e-16
30
0
11
43.9631889764
21
6.59448818898
31
0
70
32
71
5
3
Standard
53
0
210
0
220
0
230
1
100
AcDbAlignedDimension
13
42.9133858268
23
13.188976378
33
0
14
40.5511811024
24
0
34
0
50
90
100
AcDbRotatedDimension
0
CIRCLE
5
9A
100
AcDbEntity
8
VENT_CUTOUT
6
ByLayer
62
256
370
-1
100
AcDbCircle
10
36.4173228346
20
6.59448818898
40
3.5
0
LINE
5
9B
100
AcDbEntity
8
OUTER_BOUNDARY
6
ByLayer
62
256
370
-1
100
AcDbLine
10
0
20
13.188976378
11
0
21
1.77165354331
0
LINE
5
9C
100
AcDbEntity
8
OUTER_BOUNDARY
6
ByLayer
62
256
370
-1
100
AcDbLine
10
1.24015748031
20
0
11
41.6771653543
21
0
0
LINE
5
9D
100
AcDbEntity
8
OUTER_BOUNDARY
6
ByLayer
62
256
370
-1
100
AcDbLine
10
42.9133858268
20
1.77165354331
11
42.9133858268
21
13.188976378
0
LINE
5
9E
100
AcDbEntity
8
OUTER_BOUNDARY
6
ByLayer
62
256
370
-1
100
AcDbLine
10
0
20
1.77165354331
11
1.24015748031
21
1.77165354331
0
LINE
5
9F
100
AcDbEntity
8
OUTER_BOUNDARY
6
ByLayer
62
256
370
-1
100
AcDbLine
10
1.24015748031
20
1.77165354331
11
1.24015748031
21
0
0
LINE
5
A0
100
AcDbEntity
8
OUTER_BOUNDARY
6
ByLayer
62
256
370
-1
100
AcDbLine
10
42.9133858268
20
1.77165354331
11
41.6732283465
21
1.77165354331
0
LINE
5
A1
100
AcDbEntity
8
OUTER_BOUNDARY
6
ByLayer
62
256
370
-1
100
AcDbLine
10
41.6732283465
20
1.77165354331
11
41.6771653543
21
0
0
CIRCLE
5
A2
100
AcDbEntity
8
INSERT_HOLE_8-32
6
ByLayer
62
256
370
-1
100
AcDbCircle
10
32.3548031496
20
10.656988189
40
0.117204724409
0
CIRCLE
5
A3
100
AcDbEntity
8
INSERT_HOLE_8-32
6
ByLayer
62
256
370
-1
100
AcDbCircle
10
40.4798228346
20
10.657007874
40
0.117204724409
0
CIRCLE
5
A4
100
AcDbEntity
8
INSERT_HOLE_8-32
6
ByLayer
62
256
370
-1
100
AcDbCircle
10
40.4798228346
20
2.53196850394
40
0.117204724409
0
CIRCLE
5
A5
100
AcDbEntity
8
INSERT_HOLE_8-32
6
ByLayer
62
256
370
-1
100
AcDbCircle
10
32.3548031496
20
2.53196850394
40
0.117204724409
0
DIMENSION
5
A6
100
AcDbEntity
8
DIMENSION
6
ByLayer
62
256
370
-1
100
AcDbDimension
2
*D2
10
40.4798228346
20
11.5962379647
30
0
11
36.4173129921
21
12.1212379647
31
0
70
32
71
5
3
Standard
53
0
210
0
220
0
230
1
100
AcDbAlignedDimension
13
32.3548031496
23
10.656988189
33
0
14
40.4798228346
24
10.657007874
34
0
100
AcDbRotatedDimension
0
DIMENSION
5
A7
100
AcDbEntity
8
DIMENSION
6
ByLayer
62
256
370
-1
100
AcDbDimension
2
*D3
10
41.6421142453
20
2.53196850394
30
0
11
41.1171142453
21
6.59448818898
31
0
70
32
71
5
3
Standard
53
0
210
0
220
0
230
1
100
AcDbAlignedDimension
13
40.4798228346
23
10.657007874
33
0
14
40.4798228346
24
2.53196850394
34
0
50
90
100
AcDbRotatedDimension
0
DIMENSION
5
A8
100
AcDbEntity
8
DIMENSION
6
ByLayer
62
256
370
-1
100
AcDbDimension
2
*D4
10
42.9133858268
20
15.2382185039
30
0
11
21.4566929134
21
15.7632185039
31
0
70
32
71
5
3
Standard
53
0
210
0
220
0
230
1
100
AcDbAlignedDimension
13
0
23
13.188976378
33
0
14
42.9133858268
24
13.188976378
34
0
100
AcDbRotatedDimension
0
DIMENSION
5
A9
100
AcDbEntity
8
DIMENSION
6
ByLayer
62
256
370
-1
100
AcDbDimension
2
*D5
10
-2.36215545197
20
4.41156100205e-16
30
0
11
-2.88715545197
21
6.59448818898
31
0
70
32
71
5
3
Standard
53
0
210
0
220
0
230
1
100
AcDbAlignedDimension
13
0
23
13.188976378
33
0
14
1.24015748031
24
0
34
0
50
90
100
AcDbRotatedDimension
0
DIMENSION
5
AA
100
AcDbEntity
8
DIMENSION
6
ByLayer
62
256
370
-1
100
AcDbDimension
2
*D6
10
36.4173228346
20
-4.06113227479
30
0
11
18.2086614173
21
-3.53613227479
31
0
70
32
71
5
3
Standard
53
0
210
0
220
0
230
1
100
AcDbAlignedDimension
13
0
23
1.77165354331
33
0
14
36.4173228346
24
6.59448818898
34
0
100
AcDbRotatedDimension
0
DIMENSION
5
AB
100
AcDbEntity
8
DIMENSION
6
ByLayer
62
256
370
-1
100
AcDbDimension
2
*D7
10
31.750670512
20
1.2156048655e-15
30
0
11
31.225670512
21
3.29724409449
31
0
70
32
71
5
3
Standard
53
0
210
0
220
0
230
1
100
AcDbAlignedDimension
13
36.4173228346
23
6.59448818898
33
0
14
41.6771653543
24
0
34
0
50
90
100
AcDbRotatedDimension
0
ENDSEC
0
SECTION
2
OBJECTS
0
DICTIONARY
5
C
330
0
100
AcDbDictionary
281
1
3
ACAD_GROUP
350
D
0
DICTIONARY
5
D
330
C
100
AcDbDictionary
281
1
0
ENDSEC
0
EOF
