999
dxfrw 0.5.11
0
SECTION
2
HEADER
9
$ACADVER
1
AC1021
9
$HANDSEED
5
20000
9
$DWGCODEPAGE
3
ANSI_1252
9
$INSBASE
10
0
20
0
30
0
9
$EXTMIN
10
-81.4
20
-82.1068089354
30
0
9
$EXTMAX
10
850
20
330.025
30
0
9
$LIMMIN
10
0
20
0
9
$LIMMAX
10
420
20
297
9
$ORTHOMODE
70
0
9
$LTSCALE
40
1
9
$TEXTSTYLE
7
STANDARD
9
$CLAYER
8
DIMENSION
9
$DIMASZ
40
1
9
$DIMLFAC
40
1
9
$DIMSCALE
40
0.5
9
$DIMEXO
40
0.025
9
$DIMEXE
40
0.05
9
$DIMTXT
40
1
9
$DIMTSZ
40
0
9
$DIMAUNIT
70
0
9
$DIMADEC
70
2
9
$DIMLUNIT
70
2
9
$DIMSTYLE
2
STANDARD
9
$DIMGAP
40
0.025
9
$DIMTIH
70
0
9
$LUNITS
70
2
9
$LUPREC
70
4
9
$AUNITS
70
0
9
$AUPREC
70
2
9
$SPLINESEGS
70
8
9
$GRIDMODE
70
1
9
$SNAPSTYLE
70
0
9
$GRIDUNIT
10
0
20
0
9
$PINSBASE
10
0
20
0
30
0
9
$PLIMMIN
10
0
20
0
9
$PLIMMAX
10
1.98633e-05
20
2.80924e-05
9
$INSUNITS
70
4
9
$PSVPSCALE
40
1
0
ENDSEC
0
SECTION
2
CLASSES
0
ENDSEC
0
SECTION
2
TABLES
0
TABLE
2
VPORT
5
8
330
0
100
AcDbSymbolTable
70
1
0
VPORT
5
31
330
2
100
AcDbSymbolTableRecord
100
AcDbViewportTableRecord
2
*ACTIVE
70
0
10
0
20
0
11
1
21
1
12
20.3888518228
22
11.2634066336
13
0
23
0
14
10
24
10
15
10
25
10
16
0
26
0
36
1
17
0
27
0
37
0
40
36.4496353559
41
1.31330472103
42
50
43
0
44
0
50
0
51
0
71
0
72
100
73
1
74
3
75
0
76
1
77
0
78
0
281
0
65
1
110
0
120
0
130
0
111
1
121
0
131
0
112
0
122
1
132
0
79
0
146
0
348
10020
60
7
61
5
292
1
282
1
141
0
142
0
63
250
421
3358443
0
ENDTAB
0
TABLE
2
LTYPE
5
5
330
0
100
AcDbSymbolTable
70
4
0
LTYPE
5
14
330
5
100
AcDbSymbolTableRecord
100
AcDbLinetypeTableRecord
2
ByBlock
70
0
3

72
65
73
0
40
0
0
LTYPE
5
15
330
5
100
AcDbSymbolTableRecord
100
AcDbLinetypeTableRecord
2
ByLayer
70
0
3

72
65
73
0
40
0
0
LTYPE
5
16
330
5
100
AcDbSymbolTableRecord
100
AcDbLinetypeTableRecord
2
Continuous
70
0
3
Solid line
72
65
73
0
40
0
0
LTYPE
5
32
330
5
100
AcDbSymbolTableRecord
100
AcDbLinetypeTableRecord
2
DOT
70
0
3
Dot . . . . . . . . . . . . . . . . . . . . . .
72
65
73
2
40
6.35
49
0
74
0
49
-6.35
74
0
0
LTYPE
5
33
330
5
100
AcDbSymbolTableRecord
100
AcDbLinetypeTableRecord
2
DOT2
70
0
3
Dot (.5x) .....................................
72
65
73
2
40
3.175
49
0
74
0
49
-3.175
74
0
0
LTYPE
5
34
330
5
100
AcDbSymbolTableRecord
100
AcDbLinetypeTableRecord
2
DOTX2
70
0
3
Dot (2x) .  .  .  .  .  .  .  .  .  .  .  .  .
72
65
73
2
40
12.7
49
0
74
0
49
-12.7
74
0
0
LTYPE
5
35
330
5
100
AcDbSymbolTableRecord
100
AcDbLinetypeTableRecord
2
DASHED
70
0
3
Dot . . . . . . . . . . . . . . . . . . . . . .
72
65
73
2
40
19.05
49
12.7
74
0
49
-6.35
74
0
0
LTYPE
5
36
330
5
100
AcDbSymbolTableRecord
100
AcDbLinetypeTableRecord
2
DASHED2
70
0
3
Dashed (.5x) _ _ _ _ _ _ _ _ _ _ _ _ _ _ _ _ _
72
65
73
2
40
9.525
49
6.35
74
0
49
-3.175
74
0
0
LTYPE
5
37
330
5
100
AcDbSymbolTableRecord
100
AcDbLinetypeTableRecord
2
DASHEDX2
70
0
3
Dashed (2x) ____  ____  ____  ____  ____  ___
72
65
73
2
40
38.1
49
25.4
74
0
49
-12.7
74
0
0
LTYPE
5
38
330
5
100
AcDbSymbolTableRecord
100
AcDbLinetypeTableRecord
2
DASHDOT
70
0
3
Dash dot __ . __ . __ . __ . __ . __ . __ . __
72
65
73
4
40
25.4
49
12.7
74
0
49
-6.35
74
0
49
0
74
0
49
-6.35
74
0
0
LTYPE
5
39
330
5
100
AcDbSymbolTableRecord
100
AcDbLinetypeTableRecord
2
DASHDOT2
70
0
3
Dash dot (.5x) _._._._._._._._._._._._._._._.
72
65
73
4
40
12.7
49
6.35
74
0
49
-3.175
74
0
49
0
74
0
49
-3.175
74
0
0
LTYPE
5
3A
330
5
100
AcDbSymbolTableRecord
100
AcDbLinetypeTableRecord
2
DASHDOTX2
70
0
3
Dash dot (2x) ____  .  ____  .  ____  .  ___
72
65
73
4
40
50.8
49
25.4
74
0
49
-12.7
74
0
49
0
74
0
49
-12.7
74
0
0
LTYPE
5
3B
330
5
100
AcDbSymbolTableRecord
100
AcDbLinetypeTableRecord
2
DIVIDE
70
0
3
Divide ____ . . ____ . . ____ . . ____ . . ____
72
65
73
6
40
31.75
49
12.7
74
0
49
-6.35
74
0
49
0
74
0
49
-6.35
74
0
49
0
74
0
49
-6.35
74
0
0
LTYPE
5
3C
330
5
100
AcDbSymbolTableRecord
100
AcDbLinetypeTableRecord
2
DIVIDE2
70
0
3
Divide (.5x) __..__..__..__..__..__..__..__.._
72
65
73
6
40
15.875
49
6.35
74
0
49
-3.175
74
0
49
0
74
0
49
-3.175
74
0
49
0
74
0
49
-3.175
74
0
0
LTYPE
5
3D
330
5
100
AcDbSymbolTableRecord
100
AcDbLinetypeTableRecord
2
DIVIDEX2
70
0
3
Divide (2x) ________  .  .  ________  .  .  _
72
65
73
6
40
63.5
49
25.4
74
0
49
-12.7
74
0
49
0
74
0
49
-12.7
74
0
49
0
74
0
49
-12.7
74
0
0
LTYPE
5
3E
330
5
100
AcDbSymbolTableRecord
100
AcDbLinetypeTableRecord
2
BORDER
70
0
3
Border __ __ . __ __ . __ __ . __ __ . __ __ .
72
65
73
6
40
44.45
49
12.7
74
0
49
-6.35
74
0
49
12.7
74
0
49
-6.35
74
0
49
0
74
0
49
-6.35
74
0
0
LTYPE
5
3F
330
5
100
AcDbSymbolTableRecord
100
AcDbLinetypeTableRecord
2
BORDER2
70
0
3
Border (.5x) __.__.__.__.__.__.__.__.__.__.__.
72
65
73
6
40
22.225
49
6.35
74
0
49
-3.175
74
0
49
6.35
74
0
49
-3.175
74
0
49
0
74
0
49
-3.175
74
0
0
LTYPE
5
40
330
5
100
AcDbSymbolTableRecord
100
AcDbLinetypeTableRecord
2
BORDERX2
70
0
3
Border (2x) ____  ____  .  ____  ____  .  ___
72
65
73
6
40
88.9
49
25.4
74
0
49
-12.7
74
0
49
25.4
74
0
49
-12.7
74
0
49
0
74
0
49
-12.7
74
0
0
LTYPE
5
41
330
5
100
AcDbSymbolTableRecord
100
AcDbLinetypeTableRecord
2
CENTER
70
0
3
Center ____ _ ____ _ ____ _ ____ _ ____ _ ____
72
65
73
4
40
50.8
49
31.75
74
0
49
-6.35
74
0
49
6.35
74
0
49
-6.35
74
0
0
LTYPE
5
42
330
5
100
AcDbSymbolTableRecord
100
AcDbLinetypeTableRecord
2
CENTER2
70
0
3
Center (.5x) ___ _ ___ _ ___ _ ___ _ ___ _ ___
72
65
73
4
40
28.575
49
19.05
74
0
49
-3.175
74
0
49
3.175
74
0
49
-3.175
74
0
0
LTYPE
5
43
330
5
100
AcDbSymbolTableRecord
100
AcDbLinetypeTableRecord
2
CENTERX2
70
0
3
Center (2x) ________  __  ________  __  _____
72
65
73
4
40
101.6
49
63.5
74
0
49
-12.7
74
0
49
12.7
74
0
49
-12.7
74
0
0
ENDTAB
0
TABLE
2
LAYER
5
2
330
0
100
AcDbSymbolTable
70
1
0
LAYER
5
10
330
2
100
AcDbSymbolTableRecord
100
AcDbLayerTableRecord
2
0
70
0
62
7
6
CONTINUOUS
370
0
390
F
0
LAYER
5
44
330
2
100
AcDbSymbolTableRecord
100
AcDbLayerTableRecord
2
6-32_TAP_HOLE
70
0
62
2
6
CONTINUOUS
370
0
390
F
0
LAYER
5
45
330
2
100
AcDbSymbolTableRecord
100
AcDbLayerTableRecord
2
ALIGNMENT_POCKET
70
0
62
6
6
CONTINUOUS
370
0
390
F
0
LAYER
5
46
330
2
100
AcDbSymbolTableRecord
100
AcDbLayerTableRecord
2
DIMENSION
70
0
62
7
6
CONTINUOUS
370
0
390
F
0
LAYER
5
47
330
2
100
AcDbSymbolTableRecord
100
AcDbLayerTableRecord
2
OUTER_BOUNDARY
70
0
62
5
6
CONTINUOUS
370
0
390
F
0
LAYER
5
48
330
2
100
AcDbSymbolTableRecord
100
AcDbLayerTableRecord
2
REFERENCE
70
0
62
253
420
10526884
6
CONTINUOUS
370
0
390
F
0
ENDTAB
0
TABLE
2
STYLE
5
3
330
0
100
AcDbSymbolTable
70
3
0
STYLE
5
49
330
2
100
AcDbSymbolTableRecord
100
AcDbTextStyleTableRecord
2
Standard
70
0
40
0
41
1
50
0
71
0
42
1
3
txt
4

0
ENDTAB
0
TABLE
2
VIEW
5
6
330
0
100
AcDbSymbolTable
70
0
0
ENDTAB
0
TABLE
2
UCS
5
7
330
0
100
AcDbSymbolTable
70
0
0
ENDTAB
0
TABLE
2
APPID
5
9
330
0
100
AcDbSymbolTable
70
1
0
APPID
5
12
330
9
100
AcDbSymbolTableRecord
100
AcDbRegAppTableRecord
2
ACAD
70
0
0
ENDTAB
0
TABLE
2
DIMSTYLE
5
A
330
0
100
AcDbSymbolTable
70
1
100
AcDbDimStyleTable
71
1
0
DIMSTYLE
105
4A
330
A
100
AcDbSymbolTableRecord
100
AcDbDimStyleTableRecord
2
Standard
70
0
40
1
41
1
42
0.025
43
0.38
44
0.05
45
0
46
0
47
0
48
0
140
1
141
0.09
142
0
143
25.4
144
1
145
0
146
1
147
0.025
148
0
71
0
72
0
73
0
74
1
75
0
76
0
77
0
78
0
79
0
170
0
171
2
172
0
173
0
174
0
175
0
176
0
177
0
178
0
179
0
271
4
272
4
273
2
274
2
275
0
276
0
277
2
278
46
279
0
280
0
281
0
282
0
283
1
284
0
285
0
286
0
288
0
289
3
340
Standard
341

371
-2
372
-2
0
ENDTAB
0
TABLE
2
BLOCK_RECORD
5
1
330
0
100
AcDbSymbolTable
70
2
0
BLOCK_RECORD
5
1F
330
1
100
AcDbSymbolTableRecord
100
AcDbBlockTableRecord
2
*Model_Space
70
0
280
1
281
0
0
BLOCK_RECORD
5
1E
330
1
100
AcDbSymbolTableRecord
100
AcDbBlockTableRecord
2
*Paper_Space
70
0
280
1
281
0
0
BLOCK_RECORD
5
4B
330
1
100
AcDbSymbolTableRecord
100
AcDbBlockTableRecord
2
*D2
70
0
280
1
281
0
0
BLOCK_RECORD
5
4E
330
1
100
AcDbSymbolTableRecord
100
AcDbBlockTableRecord
2
*D12
70
0
280
1
281
0
0
BLOCK_RECORD
5
51
330
1
100
AcDbSymbolTableRecord
100
AcDbBlockTableRecord
2
*D10
70
0
280
1
281
0
0
BLOCK_RECORD
5
54
330
1
100
AcDbSymbolTableRecord
100
AcDbBlockTableRecord
2
*D15
70
0
280
1
281
0
0
BLOCK_RECORD
5
57
330
1
100
AcDbSymbolTableRecord
100
AcDbBlockTableRecord
2
*D3
70
0
280
1
281
0
0
BLOCK_RECORD
5
5A
330
1
100
AcDbSymbolTableRecord
100
AcDbBlockTableRecord
2
*D11
70
0
280
1
281
0
0
BLOCK_RECORD
5
5D
330
1
100
AcDbSymbolTableRecord
100
AcDbBlockTableRecord
2
*D17
70
0
280
1
281
0
0
BLOCK_RECORD
5
60
330
1
100
AcDbSymbolTableRecord
100
AcDbBlockTableRecord
2
*D4
70
0
280
1
281
0
0
BLOCK_RECORD
5
63
330
1
100
AcDbSymbolTableRecord
100
AcDbBlockTableRecord
2
*D20
70
0
280
1
281
0
0
BLOCK_RECORD
5
66
330
1
100
AcDbSymbolTableRecord
100
AcDbBlockTableRecord
2
*D22
70
0
280
1
281
0
0
BLOCK_RECORD
5
69
330
1
100
AcDbSymbolTableRecord
100
AcDbBlockTableRecord
2
*D19
70
0
280
1
281
0
0
BLOCK_RECORD
5
6C
330
1
100
AcDbSymbolTableRecord
100
AcDbBlockTableRecord
2
*D7
70
0
280
1
281
0
0
BLOCK_RECORD
5
6F
330
1
100
AcDbSymbolTableRecord
100
AcDbBlockTableRecord
2
*D5
70
0
280
1
281
0
0
BLOCK_RECORD
5
72
330
1
100
AcDbSymbolTableRecord
100
AcDbBlockTableRecord
2
*D14
70
0
280
1
281
0
0
BLOCK_RECORD
5
75
330
1
100
AcDbSymbolTableRecord
100
AcDbBlockTableRecord
2
*D13
70
0
280
1
281
0
0
BLOCK_RECORD
5
78
330
1
100
AcDbSymbolTableRecord
100
AcDbBlockTableRecord
2
*D9
70
0
280
1
281
0
0
BLOCK_RECORD
5
7B
330
1
100
AcDbSymbolTableRecord
100
AcDbBlockTableRecord
2
*D8
70
0
280
1
281
0
0
BLOCK_RECORD
5
7E
330
1
100
AcDbSymbolTableRecord
100
AcDbBlockTableRecord
2
*D18
70
0
280
1
281
0
0
BLOCK_RECORD
5
81
330
1
100
AcDbSymbolTableRecord
100
AcDbBlockTableRecord
2
*D21
70
0
280
1
281
0
0
BLOCK_RECORD
5
84
330
1
100
AcDbSymbolTableRecord
100
AcDbBlockTableRecord
2
*D16
70
0
280
1
281
0
0
BLOCK_RECORD
5
87
330
1
100
AcDbSymbolTableRecord
100
AcDbBlockTableRecord
2
*D1
70
0
280
1
281
0
0
BLOCK_RECORD
5
8A
330
1
100
AcDbSymbolTableRecord
100
AcDbBlockTableRecord
2
*D6
70
0
280
1
281
0
0
ENDTAB
0
ENDSEC
0
SECTION
2
BLOCKS
0
BLOCK
5
20
330
1F
100
AcDbEntity
8
0
100
AcDbBlockBegin
2
*Model_Space
70
0
10
0
20
0
30
0
3
*Model_Space
1

0
ENDBLK
5
21
330
1F
100
AcDbEntity
8
0
100
AcDbBlockEnd
0
BLOCK
5
1C
330
1B
100
AcDbEntity
8
0
100
AcDbBlockBegin
2
*Paper_Space
70
0
10
0
20
0
30
0
3
*Paper_Space
1

0
ENDBLK
5
1D
330
1F
100
AcDbEntity
8
0
100
AcDbBlockEnd
0
BLOCK
5
4C
330
4B
100
AcDbEntity
8
0
100
AcDbBlockBegin
2
*D2
70
1
10
0
20
0
3
*D2
1

0
LINE
5
8D
100
AcDbEntity
8
DIMENSION
6
CONTINUOUS
62
7
370
0
100
AcDbLine
10
1.8405511811
20
7.44340551181
11
-0.75
21
7.44340551181
0
SOLID
5
8E
100
AcDbEntity
8
DIMENSION
6
CONTINUOUS
62
7
370
0
100
AcDbTrace
10
0.840551181102
20
7.44340551181
30
0
11
1.3405511811
21
7.52666244337
31
0
12
1.3405511811
22
7.36014858026
32
0
13
1.3405511811
23
7.36014858026
33
0
0
SOLID
5
8F
100
AcDbEntity
8
DIMENSION
6
CONTINUOUS
62
7
370
0
100
AcDbTrace
10
0.25
20
7.44340551181
30
0
11
-0.25
21
7.36014858026
31
0
12
-0.25
22
7.52666244337
32
0
13
-0.25
23
7.52666244337
33
0
0
MTEXT
5
90
100
AcDbEntity
8
DIMENSION
6
CONTINUOUS
62
7
370
0
100
AcDbMText
10
1.82527340332
20
7.70590551181
30
0
40
0.5
41
1.94444444444
71
5
72
1
1
0.5906
7
standard
210
0
220
0
230
1
50
360
73
2
44
1
0
LINE
5
91
100
AcDbEntity
8
DIMENSION
6
CONTINUOUS
62
7
370
0
100
AcDbLine
10
0.840551181102
20
6.50856299213
11
0.840551181102
21
7.46840551181
0
LINE
5
92
100
AcDbEntity
8
DIMENSION
6
CONTINUOUS
62
7
370
0
100
AcDbLine
10
0.25
20
10.9736220472
11
0.25
21
7.46840551181
0
ENDBLK
5
4D
330
4B
100
AcDbEntity
8
0
100
AcDbBlockEnd
0
BLOCK
5
4F
330
4E
100
AcDbEntity
8
0
100
AcDbBlockBegin
2
*D12
70
1
10
0
20
0
3
*D12
1

0
LINE
5
93
100
AcDbEntity
8
DIMENSION
6
CONTINUOUS
62
7
370
0
100
AcDbLine
10
24.3641732283
20
9.61614173228
11
26.3326771654
21
9.61614173228
0
SOLID
5
94
100
AcDbEntity
8
DIMENSION
6
CONTINUOUS
62
7
370
0
100
AcDbTrace
10
24.3641732283
20
9.61614173228
30
0
11
24.8641732283
21
9.69939866384
31
0
12
24.8641732283
22
9.53288480073
32
0
13
24.8641732283
23
9.53288480073
33
0
0
SOLID
5
95
100
AcDbEntity
8
DIMENSION
6
CONTINUOUS
62
7
370
0
100
AcDbTrace
10
26.3326771654
20
9.61614173228
30
0
11
25.8326771654
21
9.53288480073
31
0
12
25.8326771654
22
9.69939866384
32
0
13
25.8326771654
23
9.69939866384
33
0
0
MTEXT
5
96
100
AcDbEntity
8
DIMENSION
6
CONTINUOUS
62
7
370
0
100
AcDbMText
10
25.3484251969
20
9.87864173228
30
0
40
0.5
41
1.83333333333
71
5
72
1
1
1.9685
7
standard
210
0
220
0
230
1
50
0
73
2
44
1
0
LINE
5
97
100
AcDbEntity
8
DIMENSION
6
CONTINUOUS
62
7
370
0
100
AcDbLine
10
24.3641732283
20
10.3024606299
11
24.3641732283
21
9.59114173228
0
LINE
5
98
100
AcDbEntity
8
DIMENSION
6
CONTINUOUS
62
7
370
0
100
AcDbLine
10
26.3326771654
20
10.3024606299
11
26.3326771654
21
9.59114173228
0
ENDBLK
5
50
330
4E
100
AcDbEntity
8
0
100
AcDbBlockEnd
0
BLOCK
5
52
330
51
100
AcDbEntity
8
0
100
AcDbBlockBegin
2
*D10
70
1
10
0
20
0
3
*D10
1

0
LINE
5
99
100
AcDbEntity
8
DIMENSION
6
CONTINUOUS
62
7
370
0
100
AcDbLine
10
7.63188976378
20
9.72440944882
11
9.60039370079
21
9.72440944882
0
SOLID
5
9A
100
AcDbEntity
8
DIMENSION
6
CONTINUOUS
62
7
370
0
100
AcDbTrace
10
7.63188976378
20
9.72440944882
30
0
11
8.13188976378
21
9.80766638037
31
0
12
8.13188976378
22
9.64115251726
32
0
13
8.13188976378
23
9.64115251726
33
0
0
SOLID
5
9B
100
AcDbEntity
8
DIMENSION
6
CONTINUOUS
62
7
370
0
100
AcDbTrace
10
9.60039370079
20
9.72440944882
30
0
11
9.10039370079
21
9.64115251726
31
0
12
9.10039370079
22
9.80766638037
32
0
13
9.10039370079
23
9.80766638037
33
0
0
MTEXT
5
9C
100
AcDbEntity
8
DIMENSION
6
CONTINUOUS
62
7
370
0
100
AcDbMText
10
8.61614173228
20
9.98690944882
30
0
40
0.5
41
1.83333333333
71
5
72
1
1
1.9685
7
standard
210
0
220
0
230
1
50
0
73
2
44
1
0
LINE
5
9D
100
AcDbEntity
8
DIMENSION
6
CONTINUOUS
62
7
370
0
100
AcDbLine
10
7.63188976378
20
10.3024606299
11
7.63188976378
21
9.69940944882
0
LINE
5
9E
100
AcDbEntity
8
DIMENSION
6
CONTINUOUS
62
7
370
0
100
AcDbLine
10
9.60039370079
20
10.3024606299
11
9.60039370079
21
9.69940944882
0
ENDBLK
5
53
330
51
100
AcDbEntity
8
0
100
AcDbBlockEnd
0
BLOCK
5
55
330
54
100
AcDbEntity
8
0
100
AcDbBlockBegin
2
*D15
70
1
10
0
20
0
3
*D15
1

0
LINE
5
9F
100
AcDbEntity
8
DIMENSION
6
CONTINUOUS
62
7
370
0
100
AcDbLine
10
27.4153543307
20
9.43307086614
11
27.4153543307
21
12.0236220472
0
SOLID
5
A0
100
AcDbEntity
8
DIMENSION
6
CONTINUOUS
62
7
370
0
100
AcDbTrace
10
27.4153543307
20
10.4330708661
30
0
11
27.4986112623
21
9.93307086614
31
0
12
27.3320973992
22
9.93307086614
32
0
13
27.3320973992
23
9.93307086614
33
0
0
SOLID
5
A1
100
AcDbEntity
8
DIMENSION
6
CONTINUOUS
62
7
370
0
100
AcDbTrace
10
27.4153543307
20
11.0236220472
30
0
11
27.3320973992
21
11.5236220472
31
0
12
27.4986112623
22
11.5236220472
32
0
13
27.4986112623
23
11.5236220472
33
0
0
MTEXT
5
A2
100
AcDbEntity
8
DIMENSION
6
CONTINUOUS
62
7
370
0
100
AcDbMText
10
27.1528543307
20
12.0083442695
30
0
40
0.5
41
1.94444444444
71
5
72
1
1
0.5906
7
standard
210
0
220
0
230
1
50
90
73
2
44
1
0
LINE
5
A3
100
AcDbEntity
8
DIMENSION
6
CONTINUOUS
62
7
370
0
100
AcDbLine
10
26.3451771654
20
10.4330708661
11
27.4403543307
21
10.4330708661
0
LINE
5
A4
100
AcDbEntity
8
DIMENSION
6
CONTINUOUS
62
7
370
0
100
AcDbLine
10
33.6645669291
20
11.0236220472
11
27.4403543307
21
11.0236220472
0
ENDBLK
5
56
330
54
100
AcDbEntity
8
0
100
AcDbBlockEnd
0
BLOCK
5
58
330
57
100
AcDbEntity
8
0
100
AcDbBlockBegin
2
*D3
70
1
10
0
20
0
3
*D3
1

0
LINE
5
A5
100
AcDbEntity
8
DIMENSION
6
CONTINUOUS
62
7
370
0
100
AcDbLine
10
2.33661417323
20
8.44094488189
11
0.25
21
8.44094488189
0
SOLID
5
A6
100
AcDbEntity
8
DIMENSION
6
CONTINUOUS
62
7
370
0
100
AcDbTrace
10
2.33661417323
20
8.44094488189
30
0
11
1.83661417323
21
8.35768795034
31
0
12
1.83661417323
22
8.52420181344
32
0
13
1.83661417323
23
8.52420181344
33
0
0
SOLID
5
A7
100
AcDbEntity
8
DIMENSION
6
CONTINUOUS
62
7
370
0
100
AcDbTrace
10
0.25
20
8.44094488189
30
0
11
0.75
21
8.52420181344
31
0
12
0.75
22
8.35768795034
32
0
13
0.75
23
8.35768795034
33
0
0
MTEXT
5
A8
100
AcDbEntity
8
DIMENSION
6
CONTINUOUS
62
7
370
0
100
AcDbMText
10
1.29330708661
20
8.70344488189
30
0
40
0.5
41
1.94444444444
71
5
72
1
1
2.0866
7
standard
210
0
220
0
230
1
50
360
73
2
44
1
0
LINE
5
A9
100
AcDbEntity
8
DIMENSION
6
CONTINUOUS
62
7
370
0
100
AcDbLine
10
2.33661417323
20
6.14931102362
11
2.33661417323
21
8.46594488189
0
LINE
5
AA
100
AcDbEntity
8
DIMENSION
6
CONTINUOUS
62
7
370
0
100
AcDbLine
10
0.25
20
10.9736220472
11
0.25
21
8.46594488189
0
ENDBLK
5
59
330
57
100
AcDbEntity
8
0
100
AcDbBlockEnd
0
BLOCK
5
5B
330
5A
100
AcDbEntity
8
0
100
AcDbBlockBegin
2
*D11
70
1
10
0
20
0
3
*D11
1

0
LINE
5
AB
100
AcDbEntity
8
DIMENSION
6
CONTINUOUS
62
7
370
0
100
AcDbLine
10
7.99114173228
20
8.08316929134
11
9.24114173228
21
8.08316929134
0
SOLID
5
AC
100
AcDbEntity
8
DIMENSION
6
CONTINUOUS
62
7
370
0
100
AcDbTrace
10
7.99114173228
20
8.08316929134
30
0
11
8.49114173228
21
8.16642622289
31
0
12
8.49114173228
22
7.99991235978
32
0
13
8.49114173228
23
7.99991235978
33
0
0
SOLID
5
AD
100
AcDbEntity
8
DIMENSION
6
CONTINUOUS
62
7
370
0
100
AcDbTrace
10
9.24114173228
20
8.08316929134
30
0
11
8.74114173228
21
7.99991235978
31
0
12
8.74114173228
22
8.16642622289
32
0
13
8.74114173228
23
8.16642622289
33
0
0
MTEXT
5
AE
100
AcDbEntity
8
DIMENSION
6
CONTINUOUS
62
7
370
0
100
AcDbMText
10
8.61614173228
20
8.34566929134
30
0
40
0.5
41
1.05555555556
71
5
72
1
1
1.25
7
standard
210
0
220
0
230
1
50
0
73
2
44
1
0
LINE
5
AF
100
AcDbEntity
8
DIMENSION
6
CONTINUOUS
62
7
370
0
100
AcDbLine
10
7.99114173228
20
8.92450787402
11
7.99114173228
21
8.05816929134
0
LINE
5
B0
100
AcDbEntity
8
DIMENSION
6
CONTINUOUS
62
7
370
0
100
AcDbLine
10
9.24114173228
20
8.92450787402
11
9.24114173228
21
8.05816929134
0
ENDBLK
5
5C
330
5A
100
AcDbEntity
8
0
100
AcDbBlockEnd
0
BLOCK
5
5E
330
5D
100
AcDbEntity
8
0
100
AcDbBlockBegin
2
*D17
70
1
10
0
20
0
3
*D17
1

0
LINE
5
B1
100
AcDbEntity
8
DIMENSION
6
CONTINUOUS
62
7
370
0
100
AcDbLine
10
0.25
20
12.1432086614
11
8.61614173228
21
12.1432086614
0
SOLID
5
B2
100
AcDbEntity
8
DIMENSION
6
CONTINUOUS
62
7
370
0
100
AcDbTrace
10
0.25
20
12.1432086614
30
0
11
0.75
21
12.226465593
31
0
12
0.75
22
12.0599517299
32
0
13
0.75
23
12.0599517299
33
0
0
SOLID
5
B3
100
AcDbEntity
8
DIMENSION
6
CONTINUOUS
62
7
370
0
100
AcDbTrace
10
8.61614173228
20
12.1432086614
30
0
11
8.11614173228
21
12.0599517299
31
0
12
8.11614173228
22
12.226465593
32
0
13
8.11614173228
23
12.226465593
33
0
0
MTEXT
5
B4
100
AcDbEntity
8
DIMENSION
6
CONTINUOUS
62
7
370
0
100
AcDbMText
10
4.43307086614
20
12.4057086614
30
0
40
0.5
41
1.83333333333
71
5
72
1
1
8.3661
7
standard
210
0
220
0
230
1
50
0
73
2
44
1
0
LINE
5
B5
100
AcDbEntity
8
DIMENSION
6
CONTINUOUS
62
7
370
0
100
AcDbLine
10
0.25
20
10.9736220472
11
0.25
21
12.1682086614
0
LINE
5
B6
100
AcDbEntity
8
DIMENSION
6
CONTINUOUS
62
7
370
0
100
AcDbLine
10
8.61614173228
20
10.5636811024
11
8.61614173228
21
12.1682086614
0
ENDBLK
5
5F
330
5D
100
AcDbEntity
8
0
100
AcDbBlockEnd
0
BLOCK
5
61
330
60
100
AcDbEntity
8
0
100
AcDbBlockBegin
2
*D4
70
1
10
0
20
0
3
*D4
1

0
LINE
5
B7
100
AcDbEntity
8
DIMENSION
6
CONTINUOUS
62
7
370
0
100
AcDbLine
10
1.63582677165
20
6.49606299213
11
1.63582677165
21
4.52755905512
0
SOLID
5
B8
100
AcDbEntity
8
DIMENSION
6
CONTINUOUS
62
7
370
0
100
AcDbTrace
10
1.63582677165
20
6.49606299213
30
0
11
1.71908370321
21
5.99606299213
31
0
12
1.5525698401
22
5.99606299213
32
0
13
1.5525698401
23
5.99606299213
33
0
0
SOLID
5
B9
100
AcDbEntity
8
DIMENSION
6
CONTINUOUS
62
7
370
0
100
AcDbTrace
10
1.63582677165
20
4.52755905512
30
0
11
1.5525698401
21
5.02755905512
31
0
12
1.71908370321
22
5.02755905512
32
0
13
1.71908370321
23
5.02755905512
33
0
0
MTEXT
5
BA
100
AcDbEntity
8
DIMENSION
6
CONTINUOUS
62
7
370
0
100
AcDbMText
10
1.37332677165
20
5.51181102362
30
0
40
0.5
41
1.83333333333
71
5
72
1
1
1.9685
7
standard
210
0
220
0
230
1
50
90
73
2
44
1
0
LINE
5
BB
100
AcDbEntity
8
DIMENSION
6
CONTINUOUS
62
7
370
0
100
AcDbLine
10
0.971161417323
20
6.49606299213
11
1.66082677165
21
6.49606299213
0
LINE
5
BC
100
AcDbEntity
8
DIMENSION
6
CONTINUOUS
62
7
370
0
100
AcDbLine
10
0.971161417323
20
4.52755905512
11
1.66082677165
21
4.52755905512
0
ENDBLK
5
62
330
60
100
AcDbEntity
8
0
100
AcDbBlockEnd
0
BLOCK
5
64
330
63
100
AcDbEntity
8
0
100
AcDbBlockBegin
2
*D20
70
1
10
0
20
0
3
*D20
1

0
LINE
5
BD
100
AcDbEntity
8
DIMENSION
6
CONTINUOUS
62
7
370
0
100
AcDbLine
10
33.7145669291
20
-3.15388356607
11
0.25
21
-3.15388356607
0
SOLID
5
BE
100
AcDbEntity
8
DIMENSION
6
CONTINUOUS
62
7
370
0
100
AcDbTrace
10
33.7145669291
20
-3.15388356607
30
0
11
33.2145669291
21
-3.23714049762
31
0
12
33.2145669291
22
-3.07062663451
32
0
13
33.2145669291
23
-3.07062663451
33
0
0
SOLID
5
BF
100
AcDbEntity
8
DIMENSION
6
CONTINUOUS
62
7
370
0
100
AcDbTrace
10
0.25
20
-3.15388356607
30
0
11
0.75
21
-3.07062663451
31
0
12
0.75
22
-3.23714049762
32
0
13
0.75
23
-3.23714049762
33
0
0
MTEXT
5
C0
100
AcDbEntity
8
DIMENSION
6
CONTINUOUS
62
7
370
0
100
AcDbMText
10
16.9822834646
20
-2.89138356607
30
0
40
0.5
41
2.44444444444
71
5
72
1
1
33.4646
7
standard
210
0
220
0
230
1
50
360
73
2
44
1
0
LINE
5
C1
100
AcDbEntity
8
DIMENSION
6
CONTINUOUS
62
7
370
0
100
AcDbLine
10
33.7145669291
20
0.05
11
33.7145669291
21
-3.17888356607
0
LINE
5
C2
100
AcDbEntity
8
DIMENSION
6
CONTINUOUS
62
7
370
0
100
AcDbLine
10
0.25
20
0.05
11
0.25
21
-3.17888356607
0
ENDBLK
5
65
330
63
100
AcDbEntity
8
0
100
AcDbBlockEnd
0
BLOCK
5
67
330
66
100
AcDbEntity
8
0
100
AcDbBlockBegin
2
*D22
70
1
10
0
20
0
3
*D22
1

0
LINE
5
C3
100
AcDbEntity
8
DIMENSION
6
CONTINUOUS
62
7
370
0
100
AcDbLine
10
28.7799851034
20
1.90551181102
11
28.7799851034
21
-1
0
SOLID
5
C4
100
AcDbEntity
8
DIMENSION
6
CONTINUOUS
62
7
370
0
100
AcDbTrace
10
28.7799851034
20
0.905511811024
30
0
11
28.6967281718
21
1.40551181102
31
0
12
28.8632420349
22
1.40551181102
32
0
13
28.8632420349
23
1.40551181102
33
0
0
SOLID
5
C5
100
AcDbEntity
8
DIMENSION
6
CONTINUOUS
62
7
370
0
100
AcDbTrace
10
28.7799851034
20
3.46182234931e-16
30
0
11
28.8632420349
21
-0.5
31
0
12
28.6967281718
22
-0.5
32
0
13
28.6967281718
23
-0.5
33
0
0
MTEXT
5
C6
100
AcDbEntity
8
DIMENSION
6
CONTINUOUS
62
7
370
0
100
AcDbMText
10
28.5174851034
20
1.89023403325
30
0
40
0.5
41
1.94444444444
71
5
72
1
1
0.9055
7
standard
210
0
220
0
230
1
50
90
73
2
44
1
0
LINE
5
C7
100
AcDbEntity
8
DIMENSION
6
CONTINUOUS
62
7
370
0
100
AcDbLine
10
25.9859251969
20
0.905511811024
11
28.8049851034
21
0.905511811024
0
LINE
5
C8
100
AcDbEntity
8
DIMENSION
6
CONTINUOUS
62
7
370
0
100
AcDbLine
10
33.6645669291
20
-3.06151588456e-18
11
28.8049851034
21
3.40059203162e-16
0
ENDBLK
5
68
330
66
100
AcDbEntity
8
0
100
AcDbBlockEnd
0
BLOCK
5
6A
330
69
100
AcDbEntity
8
0
100
AcDbBlockBegin
2
*D19
70
1
10
0
20
0
3
*D19
1

0
LINE
5
C9
100
AcDbEntity
8
DIMENSION
6
CONTINUOUS
62
7
370
0
100
AcDbLine
10
-2.4812992126
20
11.0236220472
11
-2.4812992126
21
1.73697451872e-16
0
SOLID
5
CA
100
AcDbEntity
8
DIMENSION
6
CONTINUOUS
62
7
370
0
100
AcDbTrace
10
-2.4812992126
20
11.0236220472
30
0
11
-2.39804228104
21
10.5236220472
31
0
12
-2.56455614415
22
10.5236220472
32
0
13
-2.56455614415
23
10.5236220472
33
0
0
SOLID
5
CB
100
AcDbEntity
8
DIMENSION
6
CONTINUOUS
62
7
370
0
100
AcDbTrace
10
-2.4812992126
20
1.73697451872e-16
30
0
11
-2.56455614415
21
0.5
31
0
12
-2.39804228104
22
0.5
32
0
13
-2.39804228104
23
0.5
33
0
0
MTEXT
5
CC
100
AcDbEntity
8
DIMENSION
6
CONTINUOUS
62
7
370
0
100
AcDbMText
10
-2.7437992126
20
5.51181102362
30
0
40
0.5
41
2.11111111111
71
5
72
1
1
11.0236
7
standard
210
0
220
0
230
1
50
90
73
2
44
1
0
LINE
5
CD
100
AcDbEntity
8
DIMENSION
6
CONTINUOUS
62
7
370
0
100
AcDbLine
10
0.3
20
11.0236220472
11
-2.5062992126
21
11.0236220472
0
LINE
5
CE
100
AcDbEntity
8
DIMENSION
6
CONTINUOUS
62
7
370
0
100
AcDbLine
10
0.3
20
1.53075794228e-18
11
-2.5062992126
21
1.76758967757e-16
0
ENDBLK
5
6B
330
69
100
AcDbEntity
8
0
100
AcDbBlockEnd
0
BLOCK
5
6D
330
6C
100
AcDbEntity
8
0
100
AcDbBlockBegin
2
*D7
70
1
10
0
20
0
3
*D7
1

0
LINE
5
CF
100
AcDbEntity
8
DIMENSION
6
CONTINUOUS
62
7
370
0
100
AcDbLine
10
10.5807086614
20
11.5511811024
11
10.5807086614
21
9.31496062992
0
SOLID
5
D0
100
AcDbEntity
8
DIMENSION
6
CONTINUOUS
62
7
370
0
100
AcDbTrace
10
10.5807086614
20
10.5511811024
30
0
11
10.4974517299
21
11.0511811024
31
0
12
10.663965593
22
11.0511811024
32
0
13
10.663965593
23
11.0511811024
33
0
0
SOLID
5
D1
100
AcDbEntity
8
DIMENSION
6
CONTINUOUS
62
7
370
0
100
AcDbTrace
10
10.5807086614
20
10.3149606299
30
0
11
10.663965593
21
9.81496062992
31
0
12
10.4974517299
22
9.81496062992
32
0
13
10.4974517299
23
9.81496062992
33
0
0
MTEXT
5
D2
100
AcDbEntity
8
DIMENSION
6
CONTINUOUS
62
7
370
0
100
AcDbMText
10
10.3182086614
20
11.5359033246
30
0
40
0.5
41
1.94444444444
71
5
72
1
1
0.2362
7
standard
210
0
220
0
230
1
50
90
73
2
44
1
0
LINE
5
D3
100
AcDbEntity
8
DIMENSION
6
CONTINUOUS
62
7
370
0
100
AcDbLine
10
9.61289370079
20
10.5511811024
11
10.6057086614
21
10.5511811024
0
LINE
5
D4
100
AcDbEntity
8
DIMENSION
6
CONTINUOUS
62
7
370
0
100
AcDbLine
10
9.61289370079
20
10.3149606299
11
10.6057086614
21
10.3149606299
0
ENDBLK
5
6E
330
6C
100
AcDbEntity
8
0
100
AcDbBlockEnd
0
BLOCK
5
70
330
6F
100
AcDbEntity
8
0
100
AcDbBlockBegin
2
*D5
70
1
10
0
20
0
3
*D5
1

0
LINE
5
D5
100
AcDbEntity
8
DIMENSION
6
CONTINUOUS
62
7
370
0
100
AcDbLine
10
3.48779527559
20
6.13681102362
11
3.48779527559
21
4.88681102362
0
SOLID
5
D6
100
AcDbEntity
8
DIMENSION
6
CONTINUOUS
62
7
370
0
100
AcDbTrace
10
3.48779527559
20
6.13681102362
30
0
11
3.57105220715
21
5.63681102362
31
0
12
3.40453834404
22
5.63681102362
32
0
13
3.40453834404
23
5.63681102362
33
0
0
SOLID
5
D7
100
AcDbEntity
8
DIMENSION
6
CONTINUOUS
62
7
370
0
100
AcDbTrace
10
3.48779527559
20
4.88681102362
30
0
11
3.40453834404
21
5.38681102362
31
0
12
3.57105220715
22
5.38681102362
32
0
13
3.57105220715
23
5.38681102362
33
0
0
MTEXT
5
D8
100
AcDbEntity
8
DIMENSION
6
CONTINUOUS
62
7
370
0
100
AcDbMText
10
3.22529527559
20
5.51181102362
30
0
40
0.5
41
1.05555555556
71
5
72
1
1
1.25
7
standard
210
0
220
0
230
1
50
90
73
2
44
1
0
LINE
5
D9
100
AcDbEntity
8
DIMENSION
6
CONTINUOUS
62
7
370
0
100
AcDbLine
10
2.34911417323
20
6.13681102362
11
3.51279527559
21
6.13681102362
0
LINE
5
DA
100
AcDbEntity
8
DIMENSION
6
CONTINUOUS
62
7
370
0
100
AcDbLine
10
2.34911417323
20
4.88681102362
11
3.51279527559
21
4.88681102362
0
ENDBLK
5
71
330
6F
100
AcDbEntity
8
0
100
AcDbBlockEnd
0
BLOCK
5
73
330
72
100
AcDbEntity
8
0
100
AcDbBlockBegin
2
*D14
70
1
10
0
20
0
3
*D14
1

0
LINE
5
DB
100
AcDbEntity
8
DIMENSION
6
CONTINUOUS
62
7
370
0
100
AcDbLine
10
23.6161417323
20
9.31496062992
11
23.6161417323
21
11.5511811024
0
SOLID
5
DC
100
AcDbEntity
8
DIMENSION
6
CONTINUOUS
62
7
370
0
100
AcDbTrace
10
23.6161417323
20
10.3149606299
30
0
11
23.6993986638
21
9.81496062992
31
0
12
23.5328848007
22
9.81496062992
32
0
13
23.5328848007
23
9.81496062992
33
0
0
SOLID
5
DD
100
AcDbEntity
8
DIMENSION
6
CONTINUOUS
62
7
370
0
100
AcDbTrace
10
23.6161417323
20
10.5511811024
30
0
11
23.5328848007
21
11.0511811024
31
0
12
23.6993986638
22
11.0511811024
32
0
13
23.6993986638
23
11.0511811024
33
0
0
MTEXT
5
DE
100
AcDbEntity
8
DIMENSION
6
CONTINUOUS
62
7
370
0
100
AcDbMText
10
23.3536417323
20
11.5359033246
30
0
40
0.5
41
1.94444444444
71
5
72
1
1
0.2362
7
standard
210
0
220
0
230
1
50
90
73
2
44
1
0
LINE
5
DF
100
AcDbEntity
8
DIMENSION
6
CONTINUOUS
62
7
370
0
100
AcDbLine
10
24.3516732283
20
10.3149606299
11
23.5911417323
21
10.3149606299
0
LINE
5
E0
100
AcDbEntity
8
DIMENSION
6
CONTINUOUS
62
7
370
0
100
AcDbLine
10
24.3516732283
20
10.5511811024
11
23.5911417323
21
10.5511811024
0
ENDBLK
5
74
330
72
100
AcDbEntity
8
0
100
AcDbBlockEnd
0
BLOCK
5
76
330
75
100
AcDbEntity
8
0
100
AcDbBlockBegin
2
*D13
70
1
10
0
20
0
3
*D13
1

0
LINE
5
E1
100
AcDbEntity
8
DIMENSION
6
CONTINUOUS
62
7
370
0
100
AcDbLine
10
24.7234251969
20
8.27755905512
11
25.9734251969
21
8.27755905512
0
SOLID
5
E2
100
AcDbEntity
8
DIMENSION
6
CONTINUOUS
62
7
370
0
100
AcDbTrace
10
24.7234251969
20
8.27755905512
30
0
11
25.2234251969
21
8.36081598667
31
0
12
25.2234251969
22
8.19430212356
32
0
13
25.2234251969
23
8.19430212356
33
0
0
SOLID
5
E3
100
AcDbEntity
8
DIMENSION
6
CONTINUOUS
62
7
370
0
100
AcDbTrace
10
25.9734251969
20
8.27755905512
30
0
11
25.4734251969
21
8.19430212356
31
0
12
25.4734251969
22
8.36081598667
32
0
13
25.4734251969
23
8.36081598667
33
0
0
MTEXT
5
E4
100
AcDbEntity
8
DIMENSION
6
CONTINUOUS
62
7
370
0
100
AcDbMText
10
25.3484251969
20
8.54005905512
30
0
40
0.5
41
1.05555555556
71
5
72
1
1
1.25
7
standard
210
0
220
0
230
1
50
0
73
2
44
1
0
LINE
5
E5
100
AcDbEntity
8
DIMENSION
6
CONTINUOUS
62
7
370
0
100
AcDbLine
10
24.7234251969
20
8.92450787402
11
24.7234251969
21
8.25255905512
0
LINE
5
E6
100
AcDbEntity
8
DIMENSION
6
CONTINUOUS
62
7
370
0
100
AcDbLine
10
25.9734251969
20
8.92450787402
11
25.9734251969
21
8.25255905512
0
ENDBLK
5
77
330
75
100
AcDbEntity
8
0
100
AcDbBlockEnd
0
BLOCK
5
79
330
78
100
AcDbEntity
8
0
100
AcDbBlockBegin
2
*D9
70
1
10
0
20
0
3
*D9
1

0
LINE
5
E7
100
AcDbEntity
8
DIMENSION
6
CONTINUOUS
62
7
370
0
100
AcDbLine
10
5.71456692913
20
8.93700787402
11
5.71456692913
21
11.0236220472
0
SOLID
5
E8
100
AcDbEntity
8
DIMENSION
6
CONTINUOUS
62
7
370
0
100
AcDbTrace
10
5.71456692913
20
8.93700787402
30
0
11
5.63130999758
21
9.43700787402
31
0
12
5.79782386069
22
9.43700787402
32
0
13
5.79782386069
23
9.43700787402
33
0
0
SOLID
5
E9
100
AcDbEntity
8
DIMENSION
6
CONTINUOUS
62
7
370
0
100
AcDbTrace
10
5.71456692913
20
11.0236220472
30
0
11
5.79782386069
21
10.5236220472
31
0
12
5.63130999758
22
10.5236220472
32
0
13
5.63130999758
23
10.5236220472
33
0
0
MTEXT
5
EA
100
AcDbEntity
8
DIMENSION
6
CONTINUOUS
62
7
370
0
100
AcDbMText
10
5.45206692913
20
9.98031496063
30
0
40
0.5
41
1.94444444444
71
5
72
1
1
2.0866
7
standard
210
0
220
0
230
1
50
90
73
2
44
1
0
LINE
5
EB
100
AcDbEntity
8
DIMENSION
6
CONTINUOUS
62
7
370
0
100
AcDbLine
10
7.97864173228
20
8.93700787402
11
5.68956692913
21
8.93700787402
0
LINE
5
EC
100
AcDbEntity
8
DIMENSION
6
CONTINUOUS
62
7
370
0
100
AcDbLine
10
0.3
20
11.0236220472
11
5.68956692913
21
11.0236220472
0
ENDBLK
5
7A
330
78
100
AcDbEntity
8
0
100
AcDbBlockEnd
0
BLOCK
5
7C
330
7B
100
AcDbEntity
8
0
100
AcDbBlockBegin
2
*D8
70
1
10
0
20
0
3
*D8
1

0
LINE
5
ED
100
AcDbEntity
8
DIMENSION
6
CONTINUOUS
62
7
370
0
100
AcDbLine
10
6.81692913386
20
9.43307086614
11
6.81692913386
21
12.0236220472
0
SOLID
5
EE
100
AcDbEntity
8
DIMENSION
6
CONTINUOUS
62
7
370
0
100
AcDbTrace
10
6.81692913386
20
10.4330708661
30
0
11
6.90018606541
21
9.93307086614
31
0
12
6.7336722023
22
9.93307086614
32
0
13
6.7336722023
23
9.93307086614
33
0
0
SOLID
5
EF
100
AcDbEntity
8
DIMENSION
6
CONTINUOUS
62
7
370
0
100
AcDbTrace
10
6.81692913386
20
11.0236220472
30
0
11
6.7336722023
21
11.5236220472
31
0
12
6.90018606541
22
11.5236220472
32
0
13
6.90018606541
23
11.5236220472
33
0
0
MTEXT
5
F0
100
AcDbEntity
8
DIMENSION
6
CONTINUOUS
62
7
370
0
100
AcDbMText
10
6.55442913386
20
12.0083442695
30
0
40
0.5
41
1.94444444444
71
5
72
1
1
0.5906
7
standard
210
0
220
0
230
1
50
90
73
2
44
1
0
LINE
5
F1
100
AcDbEntity
8
DIMENSION
6
CONTINUOUS
62
7
370
0
100
AcDbLine
10
7.61938976378
20
10.4330708661
11
6.79192913386
21
10.4330708661
0
LINE
5
F2
100
AcDbEntity
8
DIMENSION
6
CONTINUOUS
62
7
370
0
100
AcDbLine
10
0.3
20
11.0236220472
11
6.79192913386
21
11.0236220472
0
ENDBLK
5
7D
330
7B
100
AcDbEntity
8
0
100
AcDbBlockEnd
0
BLOCK
5
7F
330
7E
100
AcDbEntity
8
0
100
AcDbBlockBegin
2
*D18
70
1
10
0
20
0
3
*D18
1

0
LINE
5
F3
100
AcDbEntity
8
DIMENSION
6
CONTINUOUS
62
7
370
0
100
AcDbLine
10
25.3484251969
20
12.5196850394
11
33.7145669291
21
12.5196850394
0
SOLID
5
F4
100
AcDbEntity
8
DIMENSION
6
CONTINUOUS
62
7
370
0
100
AcDbTrace
10
25.3484251969
20
12.5196850394
30
0
11
25.8484251969
21
12.6029419709
31
0
12
25.8484251969
22
12.4364281078
32
0
13
25.8484251969
23
12.4364281078
33
0
0
SOLID
5
F5
100
AcDbEntity
8
DIMENSION
6
CONTINUOUS
62
7
370
0
100
AcDbTrace
10
33.7145669291
20
12.5196850394
30
0
11
33.2145669291
21
12.4364281078
31
0
12
33.2145669291
22
12.6029419709
32
0
13
33.2145669291
23
12.6029419709
33
0
0
MTEXT
5
F6
100
AcDbEntity
8
DIMENSION
6
CONTINUOUS
62
7
370
0
100
AcDbMText
10
29.531496063
20
12.7821850394
30
0
40
0.5
41
1.83333333333
71
5
72
1
1
8.3661
7
standard
210
0
220
0
230
1
50
0
73
2
44
1
0
LINE
5
F7
100
AcDbEntity
8
DIMENSION
6
CONTINUOUS
62
7
370
0
100
AcDbLine
10
25.3484251969
20
10.5636811024
11
25.3484251969
21
12.5446850394
0
LINE
5
F8
100
AcDbEntity
8
DIMENSION
6
CONTINUOUS
62
7
370
0
100
AcDbLine
10
33.7145669291
20
10.9736220472
11
33.7145669291
21
12.5446850394
0
ENDBLK
5
80
330
7E
100
AcDbEntity
8
0
100
AcDbBlockEnd
0
BLOCK
5
82
330
81
100
AcDbEntity
8
0
100
AcDbBlockBegin
2
*D21
70
1
10
0
20
0
3
*D21
1

0
LINE
5
F9
100
AcDbEntity
8
DIMENSION
6
CONTINUOUS
62
7
370
0
100
AcDbLine
10
24.7234251969
20
1.82992125984
11
25.9734251969
21
1.82992125984
0
SOLID
5
FA
100
AcDbEntity
8
DIMENSION
6
CONTINUOUS
62
7
370
0
100
AcDbTrace
10
24.7234251969
20
1.82992125984
30
0
11
25.2234251969
21
1.9131781914
31
0
12
25.2234251969
22
1.74666432829
32
0
13
25.2234251969
23
1.74666432829
33
0
0
SOLID
5
FB
100
AcDbEntity
8
DIMENSION
6
CONTINUOUS
62
7
370
0
100
AcDbTrace
10
25.9734251969
20
1.82992125984
30
0
11
25.4734251969
21
1.74666432829
31
0
12
25.4734251969
22
1.9131781914
32
0
13
25.4734251969
23
1.9131781914
33
0
0
MTEXT
5
FC
100
AcDbEntity
8
DIMENSION
6
CONTINUOUS
62
7
370
0
100
AcDbMText
10
25.3484251969
20
2.09242125984
30
0
40
0.5
41
1.05555555556
71
5
72
1
1
1.25
7
standard
210
0
220
0
230
1
50
0
73
2
44
1
0
LINE
5
FD
100
AcDbEntity
8
DIMENSION
6
CONTINUOUS
62
7
370
0
100
AcDbLine
10
24.7234251969
20
0.918011811024
11
24.7234251969
21
1.85492125984
0
LINE
5
FE
100
AcDbEntity
8
DIMENSION
6
CONTINUOUS
62
7
370
0
100
AcDbLine
10
25.9734251969
20
0.918011811024
11
25.9734251969
21
1.85492125984
0
ENDBLK
5
83
330
81
100
AcDbEntity
8
0
100
AcDbBlockEnd
0
BLOCK
5
85
330
84
100
AcDbEntity
8
0
100
AcDbBlockBegin
2
*D16
70
1
10
0
20
0
3
*D16
1

0
LINE
5
FF
100
AcDbEntity
8
DIMENSION
6
CONTINUOUS
62
7
370
0
100
AcDbLine
10
28.6161417323
20
8.93700787402
11
28.6161417323
21
11.0236220472
0
SOLID
5
100
100
AcDbEntity
8
DIMENSION
6
CONTINUOUS
62
7
370
0
100
AcDbTrace
10
28.6161417323
20
8.93700787402
30
0
11
28.5328848007
21
9.43700787402
31
0
12
28.6993986638
22
9.43700787402
32
0
13
28.6993986638
23
9.43700787402
33
0
0
SOLID
5
101
100
AcDbEntity
8
DIMENSION
6
CONTINUOUS
62
7
370
0
100
AcDbTrace
10
28.6161417323
20
11.0236220472
30
0
11
28.6993986638
21
10.5236220472
31
0
12
28.5328848007
22
10.5236220472
32
0
13
28.5328848007
23
10.5236220472
33
0
0
MTEXT
5
102
100
AcDbEntity
8
DIMENSION
6
CONTINUOUS
62
7
370
0
100
AcDbMText
10
28.3536417323
20
9.98031496063
30
0
40
0.5
41
1.94444444444
71
5
72
1
1
2.0866
7
standard
210
0
220
0
230
1
50
90
73
2
44
1
0
LINE
5
103
100
AcDbEntity
8
DIMENSION
6
CONTINUOUS
62
7
370
0
100
AcDbLine
10
25.9859251969
20
8.93700787402
11
28.6411417323
21
8.93700787402
0
LINE
5
104
100
AcDbEntity
8
DIMENSION
6
CONTINUOUS
62
7
370
0
100
AcDbLine
10
33.6645669291
20
11.0236220472
11
28.6411417323
21
11.0236220472
0
ENDBLK
5
86
330
84
100
AcDbEntity
8
0
100
AcDbBlockEnd
0
BLOCK
5
88
330
87
100
AcDbEntity
8
0
100
AcDbBlockBegin
2
*D1
70
1
10
0
20
0
3
*D1
1

0
LINE
5
105
100
AcDbEntity
8
DIMENSION
6
CONTINUOUS
62
7
370
0
100
AcDbLine
10
-0.277559055118
20
3.73031496063
11
1.95866141732
21
3.73031496063
0
SOLID
5
106
100
AcDbEntity
8
DIMENSION
6
CONTINUOUS
62
7
370
0
100
AcDbTrace
10
0.722440944882
20
3.73031496063
30
0
11
0.222440944882
21
3.64705802908
31
0
12
0.222440944882
22
3.81357189218
32
0
13
0.222440944882
23
3.81357189218
33
0
0
SOLID
5
107
100
AcDbEntity
8
DIMENSION
6
CONTINUOUS
62
7
370
0
100
AcDbTrace
10
0.958661417323
20
3.73031496063
30
0
11
1.45866141732
21
3.81357189218
31
0
12
1.45866141732
22
3.64705802908
32
0
13
1.45866141732
23
3.64705802908
33
0
0
MTEXT
5
108
100
AcDbEntity
8
DIMENSION
6
CONTINUOUS
62
7
370
0
100
AcDbMText
10
1.94338363955
20
3.99281496063
30
0
40
0.5
41
1.94444444444
71
5
72
1
1
0.2362
7
standard
210
0
220
0
230
1
50
0
73
2
44
1
0
LINE
5
109
100
AcDbEntity
8
DIMENSION
6
CONTINUOUS
62
7
370
0
100
AcDbLine
10
0.722440944882
20
4.51505905512
11
0.722440944882
21
3.70531496063
0
LINE
5
10A
100
AcDbEntity
8
DIMENSION
6
CONTINUOUS
62
7
370
0
100
AcDbLine
10
0.958661417323
20
4.51505905512
11
0.958661417323
21
3.70531496063
0
ENDBLK
5
89
330
87
100
AcDbEntity
8
0
100
AcDbBlockEnd
0
BLOCK
5
8B
330
8A
100
AcDbEntity
8
0
100
AcDbBlockBegin
2
*D6
70
1
10
0
20
0
3
*D6
1

0
LINE
5
10B
100
AcDbEntity
8
DIMENSION
6
CONTINUOUS
62
7
370
0
100
AcDbLine
10
-1.26867002953
20
5.51181102362
11
-1.26867002953
21
9.83052768672e-17
0
SOLID
5
10C
100
AcDbEntity
8
DIMENSION
6
CONTINUOUS
62
7
370
0
100
AcDbTrace
10
-1.26867002953
20
5.51181102362
30
0
11
-1.18541309797
21
5.01181102362
31
0
12
-1.35192696108
22
5.01181102362
32
0
13
-1.35192696108
23
5.01181102362
33
0
0
SOLID
5
10D
100
AcDbEntity
8
DIMENSION
6
CONTINUOUS
62
7
370
0
100
AcDbTrace
10
-1.26867002953
20
9.83052768672e-17
30
0
11
-1.35192696108
21
0.5
31
0
12
-1.18541309797
22
0.5
32
0
13
-1.18541309797
23
0.5
33
0
0
MTEXT
5
10E
100
AcDbEntity
8
DIMENSION
6
CONTINUOUS
62
7
370
0
100
AcDbMText
10
-1.53117002953
20
2.75590551181
30
0
40
0.5
41
1.72222222222
71
5
72
1
1
5.5118
7
standard
210
0
220
0
230
1
50
90
73
2
44
1
0
LINE
5
10F
100
AcDbEntity
8
DIMENSION
6
CONTINUOUS
62
7
370
0
100
AcDbLine
10
0.709940944882
20
5.51181102362
11
-1.29367002953
21
5.51181102362
0
LINE
5
110
100
AcDbEntity
8
DIMENSION
6
CONTINUOUS
62
7
370
0
100
AcDbLine
10
0.3
20
1.53075794228e-18
11
-1.29367002953
21
1.01366792752e-16
0
ENDBLK
5
8C
330
8A
100
AcDbEntity
8
0
100
AcDbBlockEnd
0
ENDSEC
0
SECTION
2
ENTITIES
0
LINE
5
111
100
AcDbEntity
8
ALIGNMENT_POCKET
6
ByLayer
62
256
370
-1
100
AcDbLine
10
0.722440944882
20
4.52755905512
11
0.958661417323
21
4.52755905512
0
LINE
5
112
100
AcDbEntity
8
ALIGNMENT_POCKET
6
ByLayer
62
256
370
-1
100
AcDbLine
10
0.958661417323
20
4.52755905512
11
0.958661417323
21
6.49606299213
0
LINE
5
113
100
AcDbEntity
8
ALIGNMENT_POCKET
6
ByLayer
62
256
370
-1
100
AcDbLine
10
0.958661417323
20
6.49606299213
11
0.722440944882
21
6.49606299213
0
LINE
5
114
100
AcDbEntity
8
ALIGNMENT_POCKET
6
ByLayer
62
256
370
-1
100
AcDbLine
10
0.722440944882
20
6.49606299213
11
0.722440944882
21
4.52755905512
0
LINE
5
115
100
AcDbEntity
8
ALIGNMENT_POCKET
6
ByLayer
62
256
370
-1
100
AcDbLine
10
9.60039370079
20
10.3149606299
11
9.60039370079
21
10.5511811024
0
LINE
5
116
100
AcDbEntity
8
ALIGNMENT_POCKET
6
ByLayer
62
256
370
-1
100
AcDbLine
10
9.60039370079
20
10.5511811024
11
7.63188976378
21
10.5511811024
0
LINE
5
117
100
AcDbEntity
8
ALIGNMENT_POCKET
6
ByLayer
62
256
370
-1
100
AcDbLine
10
7.63188976378
20
10.5511811024
11
7.63188976378
21
10.3149606299
0
LINE
5
118
100
AcDbEntity
8
ALIGNMENT_POCKET
6
ByLayer
62
256
370
-1
100
AcDbLine
10
7.63188976378
20
10.3149606299
11
9.60039370079
21
10.3149606299
0
LINE
5
119
100
AcDbEntity
8
ALIGNMENT_POCKET
6
ByLayer
62
256
370
-1
100
AcDbLine
10
26.3326771654
20
10.3149606299
11
26.3326771654
21
10.5511811024
0
LINE
5
11A
100
AcDbEntity
8
ALIGNMENT_POCKET
6
ByLayer
62
256
370
-1
100
AcDbLine
10
26.3326771654
20
10.5511811024
11
24.3641732283
21
10.5511811024
0
LINE
5
11B
100
AcDbEntity
8
ALIGNMENT_POCKET
6
ByLayer
62
256
370
-1
100
AcDbLine
10
24.3641732283
20
10.5511811024
11
24.3641732283
21
10.3149606299
0
LINE
5
11C
100
AcDbEntity
8
ALIGNMENT_POCKET
6
ByLayer
62
256
370
-1
100
AcDbLine
10
24.3641732283
20
10.3149606299
11
26.3326771654
21
10.3149606299
0
CIRCLE
5
11D
100
AcDbEntity
8
6-32_TAP_HOLE
6
ByLayer
62
256
370
-1
100
AcDbCircle
10
2.33661417323
20
4.88681102362
40
0.05325
0
CIRCLE
5
11E
100
AcDbEntity
8
6-32_TAP_HOLE
6
ByLayer
62
256
370
-1
100
AcDbCircle
10
2.33661417323
20
6.13681102362
40
0.05325
0
CIRCLE
5
11F
100
AcDbEntity
8
6-32_TAP_HOLE
6
ByLayer
62
256
370
-1
100
AcDbCircle
10
9.24114173228
20
8.93700787402
40
0.05325
0
CIRCLE
5
120
100
AcDbEntity
8
6-32_TAP_HOLE
6
ByLayer
62
256
370
-1
100
AcDbCircle
10
7.99114173228
20
8.93700787402
40
0.05325
0
CIRCLE
5
121
100
AcDbEntity
8
6-32_TAP_HOLE
6
ByLayer
62
256
370
-1
100
AcDbCircle
10
25.9734251969
20
8.93700787402
40
0.05325
0
CIRCLE
5
122
100
AcDbEntity
8
6-32_TAP_HOLE
6
ByLayer
62
256
370
-1
100
AcDbCircle
10
24.7234251969
20
8.93700787402
40
0.05325
0
DIMENSION
5
123
100
AcDbEntity
8
DIMENSION
6
ByLayer
62
256
370
-1
100
AcDbDimension
2
*D1
10
0.958661417323
20
3.73031496063
30
0
11
0.840551181102
21
3.99281496063
31
0
70
32
71
5
3
Standard
53
0
210
0
220
0
230
1
100
AcDbAlignedDimension
13
0.722440944882
23
4.52755905512
33
0
14
0.958661417323
24
4.52755905512
34
0
100
AcDbRotatedDimension
0
DIMENSION
5
124
100
AcDbEntity
8
DIMENSION
6
ByLayer
62
256
370
-1
100
AcDbDimension
2
*D2
10
0.25
20
7.44340551181
30
0
11
0.545275590551
21
7.70590551181
31
0
70
32
71
5
3
Standard
53
0
210
0
220
0
230
1
100
AcDbAlignedDimension
13
0.840551181102
23
6.49606299213
33
0
14
0.25
24
10.9611220472
34
0
100
AcDbRotatedDimension
0
DIMENSION
5
125
100
AcDbEntity
8
DIMENSION
6
ByLayer
62
256
370
-1
100
AcDbDimension
2
*D3
10
0.25
20
8.44094488189
30
0
11
1.29330708661
21
8.70344488189
31
0
70
32
71
5
3
Standard
53
0
210
0
220
0
230
1
100
AcDbAlignedDimension
13
2.33661417323
23
6.13681102362
33
0
14
0.25
24
10.9611220472
34
0
100
AcDbRotatedDimension
0
DIMENSION
5
126
100
AcDbEntity
8
DIMENSION
6
ByLayer
62
256
370
-1
100
AcDbDimension
2
*D4
10
1.63582677165
20
4.52755905512
30
0
11
1.37332677165
21
5.51181102362
31
0
70
32
71
5
3
Standard
53
0
210
0
220
0
230
1
100
AcDbAlignedDimension
13
0.958661417323
23
6.49606299213
33
0
14
0.958661417323
24
4.52755905512
34
0
50
90
100
AcDbRotatedDimension
0
DIMENSION
5
127
100
AcDbEntity
8
DIMENSION
6
ByLayer
62
256
370
-1
100
AcDbDimension
2
*D5
10
3.48779527559
20
4.88681102362
30
0
11
3.22529527559
21
5.51181102362
31
0
70
32
71
5
3
Standard
53
0
210
0
220
0
230
1
100
AcDbAlignedDimension
13
2.33661417323
23
6.13681102362
33
0
14
2.33661417323
24
4.88681102362
34
0
50
90
100
AcDbRotatedDimension
0
DIMENSION
5
128
100
AcDbEntity
8
DIMENSION
6
ByLayer
62
256
370
-1
100
AcDbDimension
2
*D6
10
-1.26867002953
20
1.93637481557e-16
30
0
11
-1.53117002953
21
2.75590551181
31
0
70
32
71
5
3
Standard
53
0
210
0
220
0
230
1
100
AcDbAlignedDimension
13
0.722440944882
23
5.51181102362
33
0
14
0.3125
24
0
34
0
50
90
100
AcDbRotatedDimension
0
DIMENSION
5
129
100
AcDbEntity
8
DIMENSION
6
ByLayer
62
256
370
-1
100
AcDbDimension
2
*D7
10
10.5807086614
20
10.3149606299
30
0
11
10.3182086614
21
10.4330708661
31
0
70
32
71
5
3
Standard
53
0
210
0
220
0
230
1
100
AcDbAlignedDimension
13
9.60039370079
23
10.5511811024
33
0
14
9.60039370079
24
10.3149606299
34
0
50
90
100
AcDbRotatedDimension
0
DIMENSION
5
12A
100
AcDbEntity
8
DIMENSION
6
ByLayer
62
256
370
-1
100
AcDbDimension
2
*D8
10
6.81692913386
20
11.0236220472
30
0
11
6.55442913386
21
10.7283464567
31
0
70
32
71
5
3
Standard
53
0
210
0
220
0
230
1
100
AcDbAlignedDimension
13
7.63188976378
23
10.4330708661
33
0
14
0.3125
24
11.0236220472
34
0
50
90
100
AcDbRotatedDimension
0
DIMENSION
5
12B
100
AcDbEntity
8
DIMENSION
6
ByLayer
62
256
370
-1
100
AcDbDimension
2
*D9
10
5.71456692913
20
11.0236220472
30
0
11
5.45206692913
21
9.98031496063
31
0
70
32
71
5
3
Standard
53
0
210
0
220
0
230
1
100
AcDbAlignedDimension
13
7.99114173228
23
8.93700787402
33
0
14
0.3125
24
11.0236220472
34
0
50
90
100
AcDbRotatedDimension
0
DIMENSION
5
12C
100
AcDbEntity
8
DIMENSION
6
ByLayer
62
256
370
-1
100
AcDbDimension
2
*D10
10
9.60039370079
20
9.72440944882
30
0
11
8.61614173228
21
9.98690944882
31
0
70
32
71
5
3
Standard
53
0
210
0
220
0
230
1
100
AcDbAlignedDimension
13
7.63188976378
23
10.3149606299
33
0
14
9.60039370079
24
10.3149606299
34
0
100
AcDbRotatedDimension
0
DIMENSION
5
12D
100
AcDbEntity
8
DIMENSION
6
ByLayer
62
256
370
-1
100
AcDbDimension
2
*D11
10
9.24114173228
20
8.08316929134
30
0
11
8.61614173228
21
8.34566929134
31
0
70
32
71
5
3
Standard
53
0
210
0
220
0
230
1
100
AcDbAlignedDimension
13
7.99114173228
23
8.93700787402
33
0
14
9.24114173228
24
8.93700787402
34
0
100
AcDbRotatedDimension
0
DIMENSION
5
12E
100
AcDbEntity
8
DIMENSION
6
ByLayer
62
256
370
-1
100
AcDbDimension
2
*D12
10
26.3326771654
20
9.61614173228
30
0
11
25.3484251969
21
9.87864173228
31
0
70
32
71
5
3
Standard
53
0
210
0
220
0
230
1
100
AcDbAlignedDimension
13
24.3641732283
23
10.3149606299
33
0
14
26.3326771654
24
10.3149606299
34
0
100
AcDbRotatedDimension
0
DIMENSION
5
12F
100
AcDbEntity
8
DIMENSION
6
ByLayer
62
256
370
-1
100
AcDbDimension
2
*D13
10
25.9734251969
20
8.27755905512
30
0
11
25.3484251969
21
8.54005905512
31
0
70
32
71
5
3
Standard
53
0
210
0
220
0
230
1
100
AcDbAlignedDimension
13
24.7234251969
23
8.93700787402
33
0
14
25.9734251969
24
8.93700787402
34
0
100
AcDbRotatedDimension
0
DIMENSION
5
130
100
AcDbEntity
8
DIMENSION
6
ByLayer
62
256
370
-1
100
AcDbDimension
2
*D14
10
23.6161417323
20
10.5511811024
30
0
11
23.3536417323
21
10.4330708661
31
0
70
32
71
5
3
Standard
53
0
210
0
220
0
230
1
100
AcDbAlignedDimension
13
24.3641732283
23
10.3149606299
33
0
14
24.3641732283
24
10.5511811024
34
0
50
90
100
AcDbRotatedDimension
0
DIMENSION
5
131
100
AcDbEntity
8
DIMENSION
6
ByLayer
62
256
370
-1
100
AcDbDimension
2
*D15
10
27.4153543307
20
11.0236220472
30
0
11
27.1528543307
21
10.7283464567
31
0
70
32
71
5
3
Standard
53
0
210
0
220
0
230
1
100
AcDbAlignedDimension
13
26.3326771654
23
10.4330708661
33
0
14
33.6520669291
24
11.0236220472
34
0
50
90
100
AcDbRotatedDimension
0
DIMENSION
5
132
100
AcDbEntity
8
DIMENSION
6
ByLayer
62
256
370
-1
100
AcDbDimension
2
*D16
10
28.6161417323
20
11.0236220472
30
0
11
28.3536417323
21
9.98031496063
31
0
70
32
71
5
3
Standard
53
0
210
0
220
0
230
1
100
AcDbAlignedDimension
13
25.9734251969
23
8.93700787402
33
0
14
33.6520669291
24
11.0236220472
34
0
50
90
100
AcDbRotatedDimension
0
DIMENSION
5
133
100
AcDbEntity
8
DIMENSION
6
ByLayer
62
256
370
-1
100
AcDbDimension
2
*D17
10
8.61614173228
20
12.1432086614
30
0
11
4.43307086614
21
12.4057086614
31
0
70
32
71
5
3
Standard
53
0
210
0
220
0
230
1
100
AcDbAlignedDimension
13
0.25
23
10.9611220472
33
0
14
8.61614173228
24
10.5511811024
34
0
100
AcDbRotatedDimension
0
DIMENSION
5
134
100
AcDbEntity
8
DIMENSION
6
ByLayer
62
256
370
-1
100
AcDbDimension
2
*D18
10
33.7145669291
20
12.5196850394
30
0
11
29.531496063
21
12.7821850394
31
0
70
32
71
5
3
Standard
53
0
210
0
220
0
230
1
100
AcDbAlignedDimension
13
25.3484251969
23
10.5511811024
33
0
14
33.7145669291
24
10.9611220472
34
0
100
AcDbRotatedDimension
0
DIMENSION
5
135
100
AcDbEntity
8
DIMENSION
6
ByLayer
62
256
370
-1
100
AcDbDimension
2
*D19
10
-2.4812992126
20
3.42141726317e-16
30
0
11
-2.7437992126
21
5.51181102362
31
0
70
32
71
5
3
Standard
53
0
210
0
220
0
230
1
100
AcDbAlignedDimension
13
0.3125
23
11.0236220472
33
0
14
0.3125
24
0
34
0
50
90
100
AcDbRotatedDimension
0
DIMENSION
5
136
100
AcDbEntity
8
DIMENSION
6
ByLayer
62
256
370
-1
100
AcDbDimension
2
*D20
10
0.25
20
-3.15388356607
30
0
11
16.9822834646
21
-2.89138356607
31
0
70
32
71
5
3
Standard
53
0
210
0
220
0
230
1
100
AcDbAlignedDimension
13
33.7145669291
23
0.0625
33
0
14
0.25
24
0.0625
34
0
100
AcDbRotatedDimension
0
LINE
5
137
100
AcDbEntity
8
REFERENCE
6
ByLayer
62
256
370
-1
100
AcDbLine
10
0.25
20
0
11
33.7145669291
21
0
0
LINE
5
138
100
AcDbEntity
8
REFERENCE
6
ByLayer
62
256
370
-1
100
AcDbLine
10
33.7145669291
20
0
11
33.7145669291
21
11.0236220472
0
LINE
5
139
100
AcDbEntity
8
REFERENCE
6
ByLayer
62
256
370
-1
100
AcDbLine
10
33.7145669291
20
11.0236220472
11
0.25
21
11.0236220472
0
LINE
5
13A
100
AcDbEntity
8
REFERENCE
6
ByLayer
62
256
370
-1
100
AcDbLine
10
0.25
20
11.0236220472
11
0.25
21
0
0
ARC
5
13B
100
AcDbEntity
8
OUTER_BOUNDARY
6
ByLayer
62
256
370
-1
100
AcDbCircle
10
0.0625
20
10.9611220472
40
0.0625
100
AcDbArc
50
90
51
180
0
LINE
5
13C
100
AcDbEntity
8
OUTER_BOUNDARY
6
ByLayer
62
256
370
-1
100
AcDbLine
10
2.77555756156e-17
20
10.9611220472
11
2.77555756156e-17
21
0.0625
0
ARC
5
13D
100
AcDbEntity
8
OUTER_BOUNDARY
6
ByLayer
62
256
370
-1
100
AcDbCircle
10
0.0625
20
0.0625
40
0.0625
100
AcDbArc
50
180
51
270
0
LINE
5
13E
100
AcDbEntity
8
OUTER_BOUNDARY
6
ByLayer
62
256
370
-1
100
AcDbLine
10
0.0625
20
0
11
33.6520669291
21
0
0
ARC
5
13F
100
AcDbEntity
8
OUTER_BOUNDARY
6
ByLayer
62
256
370
-1
100
AcDbCircle
10
33.6520669291
20
0.0625
40
0.0625
100
AcDbArc
50
270
51
0
0
LINE
5
140
100
AcDbEntity
8
OUTER_BOUNDARY
6
ByLayer
62
256
370
-1
100
AcDbLine
10
33.7145669291
20
0.0625
11
33.7145669291
21
10.9611220472
0
LINE
5
141
100
AcDbEntity
8
OUTER_BOUNDARY
6
ByLayer
62
256
370
-1
100
AcDbLine
10
33.6520669291
20
11.0236220472
11
0.0625
21
11.0236220472
0
ARC
5
142
100
AcDbEntity
8
OUTER_BOUNDARY
6
ByLayer
62
256
370
-1
100
AcDbCircle
10
33.6520669291
20
10.9611220472
40
0.0625
100
AcDbArc
50
0
51
90
0
CIRCLE
5
143
100
AcDbEntity
8
6-32_TAP_HOLE
6
ByLayer
62
256
370
-1
100
AcDbCircle
10
25.9734251969
20
0.905511811024
40
0.05325
0
CIRCLE
5
144
100
AcDbEntity
8
6-32_TAP_HOLE
6
ByLayer
62
256
370
-1
100
AcDbCircle
10
24.7234251969
20
0.905511811024
40
0.05325
0
DIMENSION
5
145
100
AcDbEntity
8
DIMENSION
6
ByLayer
62
256
370
-1
100
AcDbDimension
2
*D21
10
25.9734251969
20
1.82992125984
30
0
11
25.3484251969
21
2.09242125984
31
0
70
32
71
5
3
Standard
53
0
210
0
220
0
230
1
100
AcDbAlignedDimension
13
24.7234251969
23
0.905511811024
33
0
14
25.9734251969
24
0.905511811024
34
0
100
AcDbRotatedDimension
0
DIMENSION
5
146
100
AcDbEntity
8
DIMENSION
6
ByLayer
62
256
370
-1
100
AcDbDimension
2
*D22
10
28.7799851034
20
5.96638236012e-16
30
0
11
28.5174851034
21
0.452755905512
31
0
70
32
71
5
72
0
3
Standard
53
0
210
0
220
0
230
1
100
AcDbAlignedDimension
13
25.9734251969
23
0.905511811024
33
0
14
33.6520669291
24
0
34
0
50
90
100
AcDbRotatedDimension
0
ENDSEC
0
SECTION
2
OBJECTS
0
DICTIONARY
5
C
330
0
100
AcDbDictionary
281
1
3
ACAD_GROUP
350
D
0
DICTIONARY
5
D
330
C
100
AcDbDictionary
281
1
0
ENDSEC
0
EOF
