999
dxfrw 0.5.10
0
SECTION
2
HEADER
9
$ACADVER
1
AC1021
9
$HANDSEED
5
20000
9
$DWGCODEPAGE
3
ANSI_1252
9
$INSBASE
10
0
20
0
30
0
9
$EXTMIN
10
-96.6635955811
20
-54.4502537597
30
0
9
$EXTMAX
10
1205.61144761
20
289.525
30
0
9
$LIMMIN
10
0
20
0
9
$LIMMAX
10
420
20
297
9
$ORTHOMODE
70
0
9
$LTSCALE
40
1
9
$TEXTSTYLE
7
STANDARD
9
$CLAYER
8
DIMENSION
9
$DIMASZ
40
12
9
$DIMLFAC
40
1
9
$DIMSCALE
40
1
9
$DIMEXO
40
0.025
9
$DIMEXE
40
0.05
9
$DIMTXT
40
12
9
$DIMTSZ
40
0
9
$DIMAUNIT
70
0
9
$DIMADEC
70
2
9
$DIMLUNIT
70
2
9
$DIMSTYLE
2
STANDARD
9
$DIMGAP
40
0.025
9
$DIMTIH
70
0
9
$LUNITS
70
2
9
$LUPREC
70
4
9
$AUNITS
70
0
9
$AUPREC
70
2
9
$SPLINESEGS
70
8
9
$GRIDMODE
70
1
9
$SNAPSTYLE
70
0
9
$GRIDUNIT
10
0
20
0
9
$PINSBASE
10
0
20
0
30
0
9
$PLIMMIN
10
0
20
0
9
$PLIMMAX
10
0.000504528
20
0.000713547
9
$INSUNITS
70
4
9
$PSVPSCALE
40
1
0
ENDSEC
0
SECTION
2
CLASSES
0
ENDSEC
0
SECTION
2
TABLES
0
TABLE
2
VPORT
5
8
330
0
100
AcDbSymbolTable
70
1
0
VPORT
5
31
330
2
100
AcDbSymbolTableRecord
100
AcDbViewportTableRecord
2
*ACTIVE
70
0
10
0
20
0
11
1
21
1
12
704.526901245
22
309.348106384
13
0
23
0
14
10
24
10
15
10
25
10
16
0
26
0
36
1
17
0
27
0
37
0
40
908.374786377
41
1.81102362205
42
50
43
0
44
0
50
0
51
0
71
0
72
100
73
1
74
3
75
0
76
1
77
0
78
0
281
0
65
1
110
0
120
0
130
0
111
1
121
0
131
0
112
0
122
1
132
0
79
0
146
0
348
10020
60
7
61
5
292
1
282
1
141
0
142
0
63
250
421
3358443
0
ENDTAB
0
TABLE
2
LTYPE
5
5
330
0
100
AcDbSymbolTable
70
4
0
LTYPE
5
14
330
5
100
AcDbSymbolTableRecord
100
AcDbLinetypeTableRecord
2
ByBlock
70
0
3

72
65
73
0
40
0
0
LTYPE
5
15
330
5
100
AcDbSymbolTableRecord
100
AcDbLinetypeTableRecord
2
ByLayer
70
0
3

72
65
73
0
40
0
0
LTYPE
5
16
330
5
100
AcDbSymbolTableRecord
100
AcDbLinetypeTableRecord
2
Continuous
70
0
3
Solid line
72
65
73
0
40
0
0
LTYPE
5
32
330
5
100
AcDbSymbolTableRecord
100
AcDbLinetypeTableRecord
2
DOT
70
0
3
Dot . . . . . . . . . . . . . . . . . . . . . .
72
65
73
2
40
6.35
49
0
74
0
49
-6.35
74
0
0
LTYPE
5
33
330
5
100
AcDbSymbolTableRecord
100
AcDbLinetypeTableRecord
2
DOT2
70
0
3
Dot (.5x) .....................................
72
65
73
2
40
3.175
49
0
74
0
49
-3.175
74
0
0
LTYPE
5
34
330
5
100
AcDbSymbolTableRecord
100
AcDbLinetypeTableRecord
2
DOTX2
70
0
3
Dot (2x) .  .  .  .  .  .  .  .  .  .  .  .  .
72
65
73
2
40
12.7
49
0
74
0
49
-12.7
74
0
0
LTYPE
5
35
330
5
100
AcDbSymbolTableRecord
100
AcDbLinetypeTableRecord
2
DASHED
70
0
3
Dot . . . . . . . . . . . . . . . . . . . . . .
72
65
73
2
40
19.05
49
12.7
74
0
49
-6.35
74
0
0
LTYPE
5
36
330
5
100
AcDbSymbolTableRecord
100
AcDbLinetypeTableRecord
2
DASHED2
70
0
3
Dashed (.5x) _ _ _ _ _ _ _ _ _ _ _ _ _ _ _ _ _
72
65
73
2
40
9.525
49
6.35
74
0
49
-3.175
74
0
0
LTYPE
5
37
330
5
100
AcDbSymbolTableRecord
100
AcDbLinetypeTableRecord
2
DASHEDX2
70
0
3
Dashed (2x) ____  ____  ____  ____  ____  ___
72
65
73
2
40
38.1
49
25.4
74
0
49
-12.7
74
0
0
LTYPE
5
38
330
5
100
AcDbSymbolTableRecord
100
AcDbLinetypeTableRecord
2
DASHDOT
70
0
3
Dash dot __ . __ . __ . __ . __ . __ . __ . __
72
65
73
4
40
25.4
49
12.7
74
0
49
-6.35
74
0
49
0
74
0
49
-6.35
74
0
0
LTYPE
5
39
330
5
100
AcDbSymbolTableRecord
100
AcDbLinetypeTableRecord
2
DASHDOT2
70
0
3
Dash dot (.5x) _._._._._._._._._._._._._._._.
72
65
73
4
40
12.7
49
6.35
74
0
49
-3.175
74
0
49
0
74
0
49
-3.175
74
0
0
LTYPE
5
3A
330
5
100
AcDbSymbolTableRecord
100
AcDbLinetypeTableRecord
2
DASHDOTX2
70
0
3
Dash dot (2x) ____  .  ____  .  ____  .  ___
72
65
73
4
40
50.8
49
25.4
74
0
49
-12.7
74
0
49
0
74
0
49
-12.7
74
0
0
LTYPE
5
3B
330
5
100
AcDbSymbolTableRecord
100
AcDbLinetypeTableRecord
2
DIVIDE
70
0
3
Divide ____ . . ____ . . ____ . . ____ . . ____
72
65
73
6
40
31.75
49
12.7
74
0
49
-6.35
74
0
49
0
74
0
49
-6.35
74
0
49
0
74
0
49
-6.35
74
0
0
LTYPE
5
3C
330
5
100
AcDbSymbolTableRecord
100
AcDbLinetypeTableRecord
2
DIVIDE2
70
0
3
Divide (.5x) __..__..__..__..__..__..__..__.._
72
65
73
6
40
15.875
49
6.35
74
0
49
-3.175
74
0
49
0
74
0
49
-3.175
74
0
49
0
74
0
49
-3.175
74
0
0
LTYPE
5
3D
330
5
100
AcDbSymbolTableRecord
100
AcDbLinetypeTableRecord
2
DIVIDEX2
70
0
3
Divide (2x) ________  .  .  ________  .  .  _
72
65
73
6
40
63.5
49
25.4
74
0
49
-12.7
74
0
49
0
74
0
49
-12.7
74
0
49
0
74
0
49
-12.7
74
0
0
LTYPE
5
3E
330
5
100
AcDbSymbolTableRecord
100
AcDbLinetypeTableRecord
2
BORDER
70
0
3
Border __ __ . __ __ . __ __ . __ __ . __ __ .
72
65
73
6
40
44.45
49
12.7
74
0
49
-6.35
74
0
49
12.7
74
0
49
-6.35
74
0
49
0
74
0
49
-6.35
74
0
0
LTYPE
5
3F
330
5
100
AcDbSymbolTableRecord
100
AcDbLinetypeTableRecord
2
BORDER2
70
0
3
Border (.5x) __.__.__.__.__.__.__.__.__.__.__.
72
65
73
6
40
22.225
49
6.35
74
0
49
-3.175
74
0
49
6.35
74
0
49
-3.175
74
0
49
0
74
0
49
-3.175
74
0
0
LTYPE
5
40
330
5
100
AcDbSymbolTableRecord
100
AcDbLinetypeTableRecord
2
BORDERX2
70
0
3
Border (2x) ____  ____  .  ____  ____  .  ___
72
65
73
6
40
88.9
49
25.4
74
0
49
-12.7
74
0
49
25.4
74
0
49
-12.7
74
0
49
0
74
0
49
-12.7
74
0
0
LTYPE
5
41
330
5
100
AcDbSymbolTableRecord
100
AcDbLinetypeTableRecord
2
CENTER
70
0
3
Center ____ _ ____ _ ____ _ ____ _ ____ _ ____
72
65
73
4
40
50.8
49
31.75
74
0
49
-6.35
74
0
49
6.35
74
0
49
-6.35
74
0
0
LTYPE
5
42
330
5
100
AcDbSymbolTableRecord
100
AcDbLinetypeTableRecord
2
CENTER2
70
0
3
Center (.5x) ___ _ ___ _ ___ _ ___ _ ___ _ ___
72
65
73
4
40
28.575
49
19.05
74
0
49
-3.175
74
0
49
3.175
74
0
49
-3.175
74
0
0
LTYPE
5
43
330
5
100
AcDbSymbolTableRecord
100
AcDbLinetypeTableRecord
2
CENTERX2
70
0
3
Center (2x) ________  __  ________  __  _____
72
65
73
4
40
101.6
49
63.5
74
0
49
-12.7
74
0
49
12.7
74
0
49
-12.7
74
0
0
ENDTAB
0
TABLE
2
LAYER
5
2
330
0
100
AcDbSymbolTable
70
1
0
LAYER
5
10
330
2
100
AcDbSymbolTableRecord
100
AcDbLayerTableRecord
2
0
70
0
62
7
6
CONTINUOUS
370
0
390
F
0
LAYER
5
44
330
2
100
AcDbSymbolTableRecord
100
AcDbLayerTableRecord
2
DIMENSION
70
0
62
7
6
CONTINUOUS
370
0
390
F
0
LAYER
5
45
330
2
100
AcDbSymbolTableRecord
100
AcDbLayerTableRecord
2
REFERENCE
70
0
62
253
420
10526884
6
CONTINUOUS
370
0
390
F
0
LAYER
5
46
330
2
100
AcDbSymbolTableRecord
100
AcDbLayerTableRecord
2
OUTER_BOUNDARY
70
0
62
5
6
CONTINUOUS
370
0
390
F
0
LAYER
5
47
330
2
100
AcDbSymbolTableRecord
100
AcDbLayerTableRecord
2
ALIGNMENT_POCKET
70
0
62
6
6
CONTINUOUS
370
0
390
F
0
LAYER
5
48
330
2
100
AcDbSymbolTableRecord
100
AcDbLayerTableRecord
2
6-32_TAP_HOLE
70
0
62
2
6
CONTINUOUS
370
0
390
F
0
ENDTAB
0
TABLE
2
STYLE
5
3
330
0
100
AcDbSymbolTable
70
3
0
STYLE
5
49
330
2
100
AcDbSymbolTableRecord
100
AcDbTextStyleTableRecord
2
Standard
70
0
40
0
41
1
50
0
71
0
42
1
3
txt
4

0
ENDTAB
0
TABLE
2
VIEW
5
6
330
0
100
AcDbSymbolTable
70
0
0
ENDTAB
0
TABLE
2
UCS
5
7
330
0
100
AcDbSymbolTable
70
0
0
ENDTAB
0
TABLE
2
APPID
5
9
330
0
100
AcDbSymbolTable
70
1
0
APPID
5
12
330
9
100
AcDbSymbolTableRecord
100
AcDbRegAppTableRecord
2
ACAD
70
0
0
ENDTAB
0
TABLE
2
DIMSTYLE
5
A
330
0
100
AcDbSymbolTable
70
1
100
AcDbDimStyleTable
71
1
0
DIMSTYLE
105
4A
330
A
100
AcDbSymbolTableRecord
100
AcDbDimStyleTableRecord
2
Standard
70
0
40
1
41
12
42
0.025
43
0.38
44
0.05
45
0
46
0
47
0
48
0
140
12
141
0.09
142
0
143
25.4
144
1
145
0
146
1
147
0.025
148
0
71
0
72
0
73
0
74
1
75
0
76
0
77
0
78
0
79
0
170
0
171
2
172
0
173
0
174
0
175
0
176
0
177
0
178
0
179
0
271
4
272
4
273
2
274
2
275
0
276
0
277
2
278
46
279
0
280
0
281
0
282
0
283
1
284
0
285
0
286
0
288
0
289
3
340
Standard
341

371
-2
372
-2
0
ENDTAB
0
TABLE
2
BLOCK_RECORD
5
1
330
0
100
AcDbSymbolTable
70
2
0
BLOCK_RECORD
5
1F
330
1
100
AcDbSymbolTableRecord
100
AcDbBlockTableRecord
2
*Model_Space
70
0
280
1
281
0
0
BLOCK_RECORD
5
1E
330
1
100
AcDbSymbolTableRecord
100
AcDbBlockTableRecord
2
*Paper_Space
70
0
280
1
281
0
0
BLOCK_RECORD
5
4B
330
1
100
AcDbSymbolTableRecord
100
AcDbBlockTableRecord
2
*D5
70
0
280
1
281
0
0
BLOCK_RECORD
5
4E
330
1
100
AcDbSymbolTableRecord
100
AcDbBlockTableRecord
2
*D2
70
0
280
1
281
0
0
BLOCK_RECORD
5
51
330
1
100
AcDbSymbolTableRecord
100
AcDbBlockTableRecord
2
*D42
70
0
280
1
281
0
0
BLOCK_RECORD
5
54
330
1
100
AcDbSymbolTableRecord
100
AcDbBlockTableRecord
2
*D6
70
0
280
1
281
0
0
BLOCK_RECORD
5
57
330
1
100
AcDbSymbolTableRecord
100
AcDbBlockTableRecord
2
*D29
70
0
280
1
281
0
0
BLOCK_RECORD
5
5A
330
1
100
AcDbSymbolTableRecord
100
AcDbBlockTableRecord
2
*D33
70
0
280
1
281
0
0
BLOCK_RECORD
5
5D
330
1
100
AcDbSymbolTableRecord
100
AcDbBlockTableRecord
2
*D25
70
0
280
1
281
0
0
BLOCK_RECORD
5
60
330
1
100
AcDbSymbolTableRecord
100
AcDbBlockTableRecord
2
*D18
70
0
280
1
281
0
0
BLOCK_RECORD
5
63
330
1
100
AcDbSymbolTableRecord
100
AcDbBlockTableRecord
2
*D15
70
0
280
1
281
0
0
BLOCK_RECORD
5
66
330
1
100
AcDbSymbolTableRecord
100
AcDbBlockTableRecord
2
*D30
70
0
280
1
281
0
0
BLOCK_RECORD
5
69
330
1
100
AcDbSymbolTableRecord
100
AcDbBlockTableRecord
2
*D34
70
0
280
1
281
0
0
BLOCK_RECORD
5
6C
330
1
100
AcDbSymbolTableRecord
100
AcDbBlockTableRecord
2
*D37
70
0
280
1
281
0
0
BLOCK_RECORD
5
6F
330
1
100
AcDbSymbolTableRecord
100
AcDbBlockTableRecord
2
*D39
70
0
280
1
281
0
0
BLOCK_RECORD
5
72
330
1
100
AcDbSymbolTableRecord
100
AcDbBlockTableRecord
2
*D17
70
0
280
1
281
0
0
BLOCK_RECORD
5
75
330
1
100
AcDbSymbolTableRecord
100
AcDbBlockTableRecord
2
*D22
70
0
280
1
281
0
0
BLOCK_RECORD
5
78
330
1
100
AcDbSymbolTableRecord
100
AcDbBlockTableRecord
2
*D36
70
0
280
1
281
0
0
BLOCK_RECORD
5
7B
330
1
100
AcDbSymbolTableRecord
100
AcDbBlockTableRecord
2
*D11
70
0
280
1
281
0
0
BLOCK_RECORD
5
7E
330
1
100
AcDbSymbolTableRecord
100
AcDbBlockTableRecord
2
*D35
70
0
280
1
281
0
0
BLOCK_RECORD
5
81
330
1
100
AcDbSymbolTableRecord
100
AcDbBlockTableRecord
2
*D41
70
0
280
1
281
0
0
BLOCK_RECORD
5
84
330
1
100
AcDbSymbolTableRecord
100
AcDbBlockTableRecord
2
*D10
70
0
280
1
281
0
0
BLOCK_RECORD
5
87
330
1
100
AcDbSymbolTableRecord
100
AcDbBlockTableRecord
2
*D45
70
0
280
1
281
0
0
BLOCK_RECORD
5
8A
330
1
100
AcDbSymbolTableRecord
100
AcDbBlockTableRecord
2
*D9
70
0
280
1
281
0
0
BLOCK_RECORD
5
8D
330
1
100
AcDbSymbolTableRecord
100
AcDbBlockTableRecord
2
*D28
70
0
280
1
281
0
0
BLOCK_RECORD
5
90
330
1
100
AcDbSymbolTableRecord
100
AcDbBlockTableRecord
2
*D4
70
0
280
1
281
0
0
BLOCK_RECORD
5
93
330
1
100
AcDbSymbolTableRecord
100
AcDbBlockTableRecord
2
*D21
70
0
280
1
281
0
0
BLOCK_RECORD
5
96
330
1
100
AcDbSymbolTableRecord
100
AcDbBlockTableRecord
2
*D19
70
0
280
1
281
0
0
BLOCK_RECORD
5
99
330
1
100
AcDbSymbolTableRecord
100
AcDbBlockTableRecord
2
*D24
70
0
280
1
281
0
0
BLOCK_RECORD
5
9C
330
1
100
AcDbSymbolTableRecord
100
AcDbBlockTableRecord
2
*D13
70
0
280
1
281
0
0
BLOCK_RECORD
5
9F
330
1
100
AcDbSymbolTableRecord
100
AcDbBlockTableRecord
2
*D46
70
0
280
1
281
0
0
BLOCK_RECORD
5
A2
330
1
100
AcDbSymbolTableRecord
100
AcDbBlockTableRecord
2
*D27
70
0
280
1
281
0
0
BLOCK_RECORD
5
A5
330
1
100
AcDbSymbolTableRecord
100
AcDbBlockTableRecord
2
*D7
70
0
280
1
281
0
0
BLOCK_RECORD
5
A8
330
1
100
AcDbSymbolTableRecord
100
AcDbBlockTableRecord
2
*D8
70
0
280
1
281
0
0
BLOCK_RECORD
5
AB
330
1
100
AcDbSymbolTableRecord
100
AcDbBlockTableRecord
2
*D23
70
0
280
1
281
0
0
BLOCK_RECORD
5
AE
330
1
100
AcDbSymbolTableRecord
100
AcDbBlockTableRecord
2
*D14
70
0
280
1
281
0
0
BLOCK_RECORD
5
B1
330
1
100
AcDbSymbolTableRecord
100
AcDbBlockTableRecord
2
*D31
70
0
280
1
281
0
0
BLOCK_RECORD
5
B4
330
1
100
AcDbSymbolTableRecord
100
AcDbBlockTableRecord
2
*D12
70
0
280
1
281
0
0
BLOCK_RECORD
5
B7
330
1
100
AcDbSymbolTableRecord
100
AcDbBlockTableRecord
2
*D16
70
0
280
1
281
0
0
BLOCK_RECORD
5
BA
330
1
100
AcDbSymbolTableRecord
100
AcDbBlockTableRecord
2
*D44
70
0
280
1
281
0
0
BLOCK_RECORD
5
BD
330
1
100
AcDbSymbolTableRecord
100
AcDbBlockTableRecord
2
*D20
70
0
280
1
281
0
0
BLOCK_RECORD
5
C0
330
1
100
AcDbSymbolTableRecord
100
AcDbBlockTableRecord
2
*D40
70
0
280
1
281
0
0
BLOCK_RECORD
5
C3
330
1
100
AcDbSymbolTableRecord
100
AcDbBlockTableRecord
2
*D26
70
0
280
1
281
0
0
BLOCK_RECORD
5
C6
330
1
100
AcDbSymbolTableRecord
100
AcDbBlockTableRecord
2
*D32
70
0
280
1
281
0
0
BLOCK_RECORD
5
C9
330
1
100
AcDbSymbolTableRecord
100
AcDbBlockTableRecord
2
*D38
70
0
280
1
281
0
0
BLOCK_RECORD
5
CC
330
1
100
AcDbSymbolTableRecord
100
AcDbBlockTableRecord
2
*D43
70
0
280
1
281
0
0
BLOCK_RECORD
5
CF
330
1
100
AcDbSymbolTableRecord
100
AcDbBlockTableRecord
2
*D1
70
0
280
1
281
0
0
BLOCK_RECORD
5
D2
330
1
100
AcDbSymbolTableRecord
100
AcDbBlockTableRecord
2
*D3
70
0
280
1
281
0
0
ENDTAB
0
ENDSEC
0
SECTION
2
BLOCKS
0
BLOCK
5
20
330
1F
100
AcDbEntity
8
0
100
AcDbBlockBegin
2
*Model_Space
70
0
10
0
20
0
30
0
3
*Model_Space
1

0
ENDBLK
5
21
330
1F
100
AcDbEntity
8
0
100
AcDbBlockEnd
0
BLOCK
5
1C
330
1B
100
AcDbEntity
8
0
100
AcDbBlockBegin
2
*Paper_Space
70
0
10
0
20
0
30
0
3
*Paper_Space
1

0
ENDBLK
5
1D
330
1F
100
AcDbEntity
8
0
100
AcDbBlockEnd
0
BLOCK
5
4C
330
4B
100
AcDbEntity
8
0
100
AcDbBlockBegin
2
*D5
70
1
10
0
20
0
3
*D5
1

0
LINE
5
D5
100
AcDbEntity
8
DIMENSION
6
CONTINUOUS
62
7
370
0
100
AcDbLine
10
809.125
20
74.0625
11
840.875
21
74.0625
0
SOLID
5
D6
100
AcDbEntity
8
DIMENSION
6
CONTINUOUS
62
7
370
0
100
AcDbTrace
10
809.125
20
74.0625
30
0
11
821.125
21
76.0606663573
31
0
12
821.125
22
72.0643336427
32
0
13
821.125
23
72.0643336427
33
0
0
SOLID
5
D7
100
AcDbEntity
8
DIMENSION
6
CONTINUOUS
62
7
370
0
100
AcDbTrace
10
840.875
20
74.0625
30
0
11
828.875
21
72.0643336427
31
0
12
828.875
22
76.0606663573
32
0
13
828.875
23
76.0606663573
33
0
0
MTEXT
5
D8
100
AcDbEntity
8
DIMENSION
6
CONTINUOUS
62
7
370
0
100
AcDbMText
10
858.233333333
20
80.0875
30
0
40
12
41
34.6666666667
71
5
72
1
1
31.75
7
standard
210
0
220
0
230
1
50
0
73
2
44
1
0
LINE
5
D9
100
AcDbEntity
8
DIMENSION
6
CONTINUOUS
62
7
370
0
100
AcDbLine
10
809.125
20
53.025
11
809.125
21
74.1125
0
LINE
5
DA
100
AcDbEntity
8
DIMENSION
6
CONTINUOUS
62
7
370
0
100
AcDbLine
10
840.875
20
53.025
11
840.875
21
74.1125
0
ENDBLK
5
4D
330
4B
100
AcDbEntity
8
0
100
AcDbBlockEnd
0
BLOCK
5
4F
330
4E
100
AcDbEntity
8
0
100
AcDbBlockBegin
2
*D2
70
1
10
0
20
0
3
*D2
1

0
LINE
5
DB
100
AcDbEntity
8
DIMENSION
6
CONTINUOUS
62
7
370
0
100
AcDbLine
10
259.125
20
143.125
11
290.875
21
143.125
0
SOLID
5
DC
100
AcDbEntity
8
DIMENSION
6
CONTINUOUS
62
7
370
0
100
AcDbTrace
10
259.125
20
143.125
30
0
11
271.125
21
145.123166357
31
0
12
271.125
22
141.126833643
32
0
13
271.125
23
141.126833643
33
0
0
SOLID
5
DD
100
AcDbEntity
8
DIMENSION
6
CONTINUOUS
62
7
370
0
100
AcDbTrace
10
290.875
20
143.125
30
0
11
278.875
21
141.126833643
31
0
12
278.875
22
145.123166357
32
0
13
278.875
23
145.123166357
33
0
0
MTEXT
5
DE
100
AcDbEntity
8
DIMENSION
6
CONTINUOUS
62
7
370
0
100
AcDbMText
10
308.233333333
20
149.15
30
0
40
12
41
34.6666666667
71
5
72
1
1
31.75
7
standard
210
0
220
0
230
1
50
0
73
2
44
1
0
LINE
5
DF
100
AcDbEntity
8
DIMENSION
6
CONTINUOUS
62
7
370
0
100
AcDbLine
10
259.125
20
166.975
11
259.125
21
143.075
0
LINE
5
E0
100
AcDbEntity
8
DIMENSION
6
CONTINUOUS
62
7
370
0
100
AcDbLine
10
290.875
20
166.975
11
290.875
21
143.075
0
ENDBLK
5
50
330
4E
100
AcDbEntity
8
0
100
AcDbBlockEnd
0
BLOCK
5
52
330
51
100
AcDbEntity
8
0
100
AcDbBlockBegin
2
*D42
70
1
10
0
20
0
3
*D42
1

0
LINE
5
E1
100
AcDbEntity
8
DIMENSION
6
CONTINUOUS
62
7
370
0
100
AcDbLine
10
-45.92
20
110
11
-45.92
21
3.26281224261e-15
0
SOLID
5
E2
100
AcDbEntity
8
DIMENSION
6
CONTINUOUS
62
7
370
0
100
AcDbTrace
10
-45.92
20
110
30
0
11
-43.9218336427
21
98
31
0
12
-47.9181663573
22
98
32
0
13
-47.9181663573
23
98
33
0
0
SOLID
5
E3
100
AcDbEntity
8
DIMENSION
6
CONTINUOUS
62
7
370
0
100
AcDbTrace
10
-45.92
20
3.26281224261e-15
30
0
11
-47.9181663573
21
12
31
0
12
-43.9218336427
22
12
32
0
13
-43.9218336427
23
12
33
0
0
MTEXT
5
E4
100
AcDbEntity
8
DIMENSION
6
CONTINUOUS
62
7
370
0
100
AcDbMText
10
-51.945
20
55
30
0
40
12
41
18.6666666667
71
5
72
1
1
110
7
standard
210
0
220
0
230
1
50
90
73
2
44
1
0
LINE
5
E5
100
AcDbEntity
8
DIMENSION
6
CONTINUOUS
62
7
370
0
100
AcDbLine
10
11.975
20
110
11
-45.97
21
110
0
LINE
5
E6
100
AcDbEntity
8
DIMENSION
6
CONTINUOUS
62
7
370
0
100
AcDbLine
10
-0.025
20
3.06161699787e-18
11
-45.97
21
3.26893547661e-15
0
ENDBLK
5
53
330
51
100
AcDbEntity
8
0
100
AcDbBlockEnd
0
BLOCK
5
55
330
54
100
AcDbEntity
8
0
100
AcDbBlockBegin
2
*D6
70
1
10
0
20
0
3
*D6
1

0
LINE
5
E7
100
AcDbEntity
8
DIMENSION
6
CONTINUOUS
62
7
370
0
100
AcDbLine
10
1016.796875
20
125.875
11
1016.796875
21
94.125
0
SOLID
5
E8
100
AcDbEntity
8
DIMENSION
6
CONTINUOUS
62
7
370
0
100
AcDbTrace
10
1016.796875
20
125.875
30
0
11
1018.79504136
21
113.875
31
0
12
1014.79870864
22
113.875
32
0
13
1014.79870864
23
113.875
33
0
0
SOLID
5
E9
100
AcDbEntity
8
DIMENSION
6
CONTINUOUS
62
7
370
0
100
AcDbTrace
10
1016.796875
20
94.125
30
0
11
1014.79870864
21
106.125
31
0
12
1018.79504136
22
106.125
32
0
13
1018.79504136
23
106.125
33
0
0
MTEXT
5
EA
100
AcDbEntity
8
DIMENSION
6
CONTINUOUS
62
7
370
0
100
AcDbMText
10
1010.771875
20
143.233333333
30
0
40
12
41
34.6666666667
71
5
72
1
1
31.75
7
standard
210
0
220
0
230
1
50
90
73
2
44
1
0
LINE
5
EB
100
AcDbEntity
8
DIMENSION
6
CONTINUOUS
62
7
370
0
100
AcDbLine
10
1046.975
20
125.875
11
1016.746875
21
125.875
0
LINE
5
EC
100
AcDbEntity
8
DIMENSION
6
CONTINUOUS
62
7
370
0
100
AcDbLine
10
1046.975
20
94.125
11
1016.746875
21
94.125
0
ENDBLK
5
56
330
54
100
AcDbEntity
8
0
100
AcDbBlockEnd
0
BLOCK
5
58
330
57
100
AcDbEntity
8
0
100
AcDbBlockBegin
2
*D29
70
1
10
0
20
0
3
*D29
1

0
LINE
5
ED
100
AcDbEntity
8
DIMENSION
6
CONTINUOUS
62
7
370
0
100
AcDbLine
10
1061
20
56
11
1124
21
56
0
SOLID
5
EE
100
AcDbEntity
8
DIMENSION
6
CONTINUOUS
62
7
370
0
100
AcDbTrace
10
1085
20
56
30
0
11
1073
21
54.0018336427
31
0
12
1073
22
57.9981663573
32
0
13
1073
23
57.9981663573
33
0
0
SOLID
5
EF
100
AcDbEntity
8
DIMENSION
6
CONTINUOUS
62
7
370
0
100
AcDbTrace
10
1100
20
56
30
0
11
1112
21
57.9981663573
31
0
12
1112
22
54.0018336427
32
0
13
1112
23
54.0018336427
33
0
0
MTEXT
5
F0
100
AcDbEntity
8
DIMENSION
6
CONTINUOUS
62
7
370
0
100
AcDbMText
10
1092.5
20
62.025
30
0
40
12
41
12
71
5
72
1
1
15
7
standard
210
0
220
0
230
1
50
0
73
2
44
1
0
LINE
5
F1
100
AcDbEntity
8
DIMENSION
6
CONTINUOUS
62
7
370
0
100
AcDbLine
10
1085
20
84.975
11
1085
21
55.95
0
LINE
5
F2
100
AcDbEntity
8
DIMENSION
6
CONTINUOUS
62
7
370
0
100
AcDbLine
10
1100
20
-0.025
11
1100
21
55.95
0
ENDBLK
5
59
330
57
100
AcDbEntity
8
0
100
AcDbBlockEnd
0
BLOCK
5
5B
330
5A
100
AcDbEntity
8
0
100
AcDbBlockBegin
2
*D33
70
1
10
0
20
0
3
*D33
1

0
LINE
5
F3
100
AcDbEntity
8
DIMENSION
6
CONTINUOUS
62
7
370
0
100
AcDbLine
10
0
20
-52.4520874023
11
1100
21
-52.4520874023
0
SOLID
5
F4
100
AcDbEntity
8
DIMENSION
6
CONTINUOUS
62
7
370
0
100
AcDbTrace
10
0
20
-52.4520874023
30
0
11
12
21
-50.453921045
31
0
12
12
22
-54.4502537597
32
0
13
12
23
-54.4502537597
33
0
0
SOLID
5
F5
100
AcDbEntity
8
DIMENSION
6
CONTINUOUS
62
7
370
0
100
AcDbTrace
10
1100
20
-52.4520874023
30
0
11
1088
21
-54.4502537597
31
0
12
1088
22
-50.453921045
32
0
13
1088
23
-50.453921045
33
0
0
MTEXT
5
F6
100
AcDbEntity
8
DIMENSION
6
CONTINUOUS
62
7
370
0
100
AcDbMText
10
550
20
-46.4270874023
30
0
40
12
41
28
71
5
72
1
1
1100
7
standard
210
0
220
0
230
1
50
0
73
2
44
1
0
LINE
5
F7
100
AcDbEntity
8
DIMENSION
6
CONTINUOUS
62
7
370
0
100
AcDbLine
10
-4.5924254968e-18
20
-0.025
11
-9.18485099361e-18
21
-52.5020874023
0
LINE
5
F8
100
AcDbEntity
8
DIMENSION
6
CONTINUOUS
62
7
370
0
100
AcDbLine
10
1100
20
-0.025
11
1100
21
-52.5020874023
0
ENDBLK
5
5C
330
5A
100
AcDbEntity
8
0
100
AcDbBlockEnd
0
BLOCK
5
5E
330
5D
100
AcDbEntity
8
0
100
AcDbBlockBegin
2
*D25
70
1
10
0
20
0
3
*D25
1

0
LINE
5
F9
100
AcDbEntity
8
DIMENSION
6
CONTINUOUS
62
7
370
0
100
AcDbLine
10
906.372070313
20
39
11
906.372070313
21
-24
0
SOLID
5
FA
100
AcDbEntity
8
DIMENSION
6
CONTINUOUS
62
7
370
0
100
AcDbTrace
10
906.372070313
20
15
30
0
11
904.373903955
21
27
31
0
12
908.37023667
22
27
32
0
13
908.37023667
23
27
33
0
0
SOLID
5
FB
100
AcDbEntity
8
DIMENSION
6
CONTINUOUS
62
7
370
0
100
AcDbTrace
10
906.372070313
20
0
30
0
11
908.37023667
21
-12
31
0
12
904.373903955
22
-12
32
0
13
904.373903955
23
-12
33
0
0
MTEXT
5
FC
100
AcDbEntity
8
DIMENSION
6
CONTINUOUS
62
7
370
0
100
AcDbMText
10
900.347070313
20
7.5
30
0
40
12
41
12
71
5
72
1
1
15
7
standard
210
0
220
0
230
1
50
90
73
2
44
1
0
LINE
5
FD
100
AcDbEntity
8
DIMENSION
6
CONTINUOUS
62
7
370
0
100
AcDbLine
10
850.025
20
15
11
906.422070313
21
15
0
LINE
5
FE
100
AcDbEntity
8
DIMENSION
6
CONTINUOUS
62
7
370
0
100
AcDbLine
10
1100.025
20
0
11
906.422070313
21
0
0
ENDBLK
5
5F
330
5D
100
AcDbEntity
8
0
100
AcDbBlockEnd
0
BLOCK
5
61
330
60
100
AcDbEntity
8
0
100
AcDbBlockBegin
2
*D18
70
1
10
0
20
0
3
*D18
1

0
LINE
5
FF
100
AcDbEntity
8
DIMENSION
6
CONTINUOUS
62
7
370
0
100
AcDbLine
10
1058
20
148.4375
11
1112
21
148.4375
0
SOLID
5
100
100
AcDbEntity
8
DIMENSION
6
CONTINUOUS
62
7
370
0
100
AcDbTrace
10
1082
20
148.4375
30
0
11
1070
21
146.439333643
31
0
12
1070
22
150.435666357
32
0
13
1070
23
150.435666357
33
0
0
SOLID
5
101
100
AcDbEntity
8
DIMENSION
6
CONTINUOUS
62
7
370
0
100
AcDbTrace
10
1088
20
148.4375
30
0
11
1100
21
150.435666357
31
0
12
1100
22
146.439333643
32
0
13
1100
23
146.439333643
33
0
0
MTEXT
5
102
100
AcDbEntity
8
DIMENSION
6
CONTINUOUS
62
7
370
0
100
AcDbMText
10
1085
20
154.4625
30
0
40
12
41
5.33333333333
71
5
72
1
1
6
7
standard
210
0
220
0
230
1
50
0
73
2
44
1
0
LINE
5
103
100
AcDbEntity
8
DIMENSION
6
CONTINUOUS
62
7
370
0
100
AcDbLine
10
1082
20
135.025
11
1082
21
148.4875
0
LINE
5
104
100
AcDbEntity
8
DIMENSION
6
CONTINUOUS
62
7
370
0
100
AcDbLine
10
1088
20
135.025
11
1088
21
148.4875
0
ENDBLK
5
62
330
60
100
AcDbEntity
8
0
100
AcDbBlockEnd
0
BLOCK
5
64
330
63
100
AcDbEntity
8
0
100
AcDbBlockBegin
2
*D15
70
1
10
0
20
0
3
*D15
1

0
LINE
5
105
100
AcDbEntity
8
DIMENSION
6
CONTINUOUS
62
7
370
0
100
AcDbLine
10
329.296875
20
42
11
329.296875
21
-12
0
SOLID
5
106
100
AcDbEntity
8
DIMENSION
6
CONTINUOUS
62
7
370
0
100
AcDbTrace
10
329.296875
20
18
30
0
11
327.298708643
21
30
31
0
12
331.295041357
22
30
32
0
13
331.295041357
23
30
33
0
0
SOLID
5
107
100
AcDbEntity
8
DIMENSION
6
CONTINUOUS
62
7
370
0
100
AcDbTrace
10
329.296875
20
12
30
0
11
331.295041357
21
-1.7763568394e-15
31
0
12
327.298708643
22
-1.7763568394e-15
32
0
13
327.298708643
23
-1.7763568394e-15
33
0
0
MTEXT
5
108
100
AcDbEntity
8
DIMENSION
6
CONTINUOUS
62
7
370
0
100
AcDbMText
10
323.271875
20
15
30
0
40
12
41
5.33333333333
71
5
72
1
1
6
7
standard
210
0
220
0
230
1
50
90
73
2
44
1
0
LINE
5
109
100
AcDbEntity
8
DIMENSION
6
CONTINUOUS
62
7
370
0
100
AcDbLine
10
300.025
20
18
11
329.346875
21
18
0
LINE
5
10A
100
AcDbEntity
8
DIMENSION
6
CONTINUOUS
62
7
370
0
100
AcDbLine
10
300.025
20
12
11
329.346875
21
12
0
ENDBLK
5
65
330
63
100
AcDbEntity
8
0
100
AcDbBlockEnd
0
BLOCK
5
67
330
66
100
AcDbEntity
8
0
100
AcDbBlockBegin
2
*D30
70
1
10
0
20
0
3
*D30
1

0
LINE
5
10B
100
AcDbEntity
8
DIMENSION
6
CONTINUOUS
62
7
370
0
100
AcDbLine
10
1047
20
28.75
11
1100
21
28.75
0
SOLID
5
10C
100
AcDbEntity
8
DIMENSION
6
CONTINUOUS
62
7
370
0
100
AcDbTrace
10
1047
20
28.75
30
0
11
1059
21
30.7481663573
31
0
12
1059
22
26.7518336427
32
0
13
1059
23
26.7518336427
33
0
0
SOLID
5
10D
100
AcDbEntity
8
DIMENSION
6
CONTINUOUS
62
7
370
0
100
AcDbTrace
10
1100
20
28.75
30
0
11
1088
21
26.7518336427
31
0
12
1088
22
30.7481663573
32
0
13
1088
23
30.7481663573
33
0
0
MTEXT
5
10E
100
AcDbEntity
8
DIMENSION
6
CONTINUOUS
62
7
370
0
100
AcDbMText
10
1073.5
20
34.775
30
0
40
12
41
14.6666666667
71
5
72
1
1
53
7
standard
210
0
220
0
230
1
50
0
73
2
44
1
0
LINE
5
10F
100
AcDbEntity
8
DIMENSION
6
CONTINUOUS
62
7
370
0
100
AcDbLine
10
1047
20
94.1
11
1047
21
28.7
0
LINE
5
110
100
AcDbEntity
8
DIMENSION
6
CONTINUOUS
62
7
370
0
100
AcDbLine
10
1100
20
-0.025
11
1100
21
28.7
0
ENDBLK
5
68
330
66
100
AcDbEntity
8
0
100
AcDbBlockEnd
0
BLOCK
5
6A
330
69
100
AcDbEntity
8
0
100
AcDbBlockBegin
2
*D34
70
1
10
0
20
0
3
*D34
1

0
LINE
5
111
100
AcDbEntity
8
DIMENSION
6
CONTINUOUS
62
7
370
0
100
AcDbLine
10
-16.512
20
24
11
-16.512
21
-30.35
0
SOLID
5
112
100
AcDbEntity
8
DIMENSION
6
CONTINUOUS
62
7
370
0
100
AcDbTrace
10
-16.512
20
8.881784197e-16
30
0
11
-18.5101663573
21
12
31
0
12
-14.5138336427
22
12
32
0
13
-14.5138336427
23
12
33
0
0
SOLID
5
113
100
AcDbEntity
8
DIMENSION
6
CONTINUOUS
62
7
370
0
100
AcDbTrace
10
-16.512
20
-6.35
30
0
11
-14.5138336427
21
-18.35
31
0
12
-18.5101663573
22
-18.35
32
0
13
-18.5101663573
23
-18.35
33
0
0
MTEXT
5
114
100
AcDbEntity
8
DIMENSION
6
CONTINUOUS
62
7
370
0
100
AcDbMText
10
-22.537
20
14.025
30
0
40
12
41
28
71
5
72
1
1
6.35
7
standard
210
0
220
0
230
1
50
90
73
2
44
1
0
LINE
5
115
100
AcDbEntity
8
DIMENSION
6
CONTINUOUS
62
7
370
0
100
AcDbLine
10
-0.025
20
3.06161699787e-18
11
-16.562
21
8.94301653696e-16
0
LINE
5
116
100
AcDbEntity
8
DIMENSION
6
CONTINUOUS
62
7
370
0
100
AcDbLine
10
1.5625
20
-6.35
11
-16.562
21
-6.35
0
ENDBLK
5
6B
330
69
100
AcDbEntity
8
0
100
AcDbBlockEnd
0
BLOCK
5
6D
330
6C
100
AcDbEntity
8
0
100
AcDbBlockBegin
2
*D37
70
1
10
0
20
0
3
*D37
1

0
LINE
5
117
100
AcDbEntity
8
DIMENSION
6
CONTINUOUS
62
7
370
0
100
AcDbLine
10
992.75
20
174.6
11
1042.75
21
174.6
0
SOLID
5
118
100
AcDbEntity
8
DIMENSION
6
CONTINUOUS
62
7
370
0
100
AcDbTrace
10
992.75
20
174.6
30
0
11
1004.75
21
176.598166357
31
0
12
1004.75
22
172.601833643
32
0
13
1004.75
23
172.601833643
33
0
0
SOLID
5
119
100
AcDbEntity
8
DIMENSION
6
CONTINUOUS
62
7
370
0
100
AcDbTrace
10
1042.75
20
174.6
30
0
11
1030.75
21
172.601833643
31
0
12
1030.75
22
176.598166357
32
0
13
1030.75
23
176.598166357
33
0
0
MTEXT
5
11A
100
AcDbEntity
8
DIMENSION
6
CONTINUOUS
62
7
370
0
100
AcDbMText
10
1017.75
20
180.625
30
0
40
12
41
14.6666666667
71
5
72
1
1
50
7
standard
210
0
220
0
230
1
50
0
73
2
44
1
0
LINE
5
11B
100
AcDbEntity
8
DIMENSION
6
CONTINUOUS
62
7
370
0
100
AcDbLine
10
992.75
20
190.975
11
992.75
21
174.55
0
LINE
5
11C
100
AcDbEntity
8
DIMENSION
6
CONTINUOUS
62
7
370
0
100
AcDbLine
10
1042.75
20
190.975
11
1042.75
21
174.55
0
ENDBLK
5
6E
330
6C
100
AcDbEntity
8
0
100
AcDbBlockEnd
0
BLOCK
5
70
330
6F
100
AcDbEntity
8
0
100
AcDbBlockBegin
2
*D39
70
1
10
0
20
0
3
*D39
1

0
LINE
5
11D
100
AcDbEntity
8
DIMENSION
6
CONTINUOUS
62
7
370
0
100
AcDbLine
10
1017.75
20
242
11
1100
21
242
0
SOLID
5
11E
100
AcDbEntity
8
DIMENSION
6
CONTINUOUS
62
7
370
0
100
AcDbTrace
10
1017.75
20
242
30
0
11
1029.75
21
243.998166357
31
0
12
1029.75
22
240.001833643
32
0
13
1029.75
23
240.001833643
33
0
0
SOLID
5
11F
100
AcDbEntity
8
DIMENSION
6
CONTINUOUS
62
7
370
0
100
AcDbTrace
10
1100
20
242
30
0
11
1088
21
240.001833643
31
0
12
1088
22
243.998166357
32
0
13
1088
23
243.998166357
33
0
0
MTEXT
5
120
100
AcDbEntity
8
DIMENSION
6
CONTINUOUS
62
7
370
0
100
AcDbMText
10
1058.875
20
248.025
30
0
40
12
41
37.3333333333
71
5
72
1
1
82.25
7
standard
210
0
220
0
230
1
50
0
73
2
44
1
0
LINE
5
121
100
AcDbEntity
8
DIMENSION
6
CONTINUOUS
62
7
370
0
100
AcDbLine
10
1017.75
20
191.025
11
1017.75
21
242.05
0
LINE
5
122
100
AcDbEntity
8
DIMENSION
6
CONTINUOUS
62
7
370
0
100
AcDbLine
10
1100
20
218.4375
11
1100
21
242.05
0
ENDBLK
5
71
330
6F
100
AcDbEntity
8
0
100
AcDbBlockEnd
0
BLOCK
5
73
330
72
100
AcDbEntity
8
0
100
AcDbBlockBegin
2
*D17
70
1
10
0
20
0
3
*D17
1

0
LINE
5
123
100
AcDbEntity
8
DIMENSION
6
CONTINUOUS
62
7
370
0
100
AcDbLine
10
762.8
20
232
11
762.8
21
178
0
SOLID
5
124
100
AcDbEntity
8
DIMENSION
6
CONTINUOUS
62
7
370
0
100
AcDbTrace
10
762.8
20
208
30
0
11
760.801833643
21
220
31
0
12
764.798166357
22
220
32
0
13
764.798166357
23
220
33
0
0
SOLID
5
125
100
AcDbEntity
8
DIMENSION
6
CONTINUOUS
62
7
370
0
100
AcDbTrace
10
762.8
20
202
30
0
11
764.798166357
21
190
31
0
12
760.801833643
22
190
32
0
13
760.801833643
23
190
33
0
0
MTEXT
5
126
100
AcDbEntity
8
DIMENSION
6
CONTINUOUS
62
7
370
0
100
AcDbMText
10
756.775
20
205
30
0
40
12
41
5.33333333333
71
5
72
1
1
6
7
standard
210
0
220
0
230
1
50
90
73
2
44
1
0
LINE
5
127
100
AcDbEntity
8
DIMENSION
6
CONTINUOUS
62
7
370
0
100
AcDbLine
10
799.975
20
208
11
762.75
21
208
0
LINE
5
128
100
AcDbEntity
8
DIMENSION
6
CONTINUOUS
62
7
370
0
100
AcDbLine
10
799.975
20
202
11
762.75
21
202
0
ENDBLK
5
74
330
72
100
AcDbEntity
8
0
100
AcDbBlockEnd
0
BLOCK
5
76
330
75
100
AcDbEntity
8
0
100
AcDbBlockBegin
2
*D22
70
1
10
0
20
0
3
*D22
1

0
LINE
5
129
100
AcDbEntity
8
DIMENSION
6
CONTINUOUS
62
7
370
0
100
AcDbLine
10
920.625
20
167
11
920.625
21
220
0
SOLID
5
12A
100
AcDbEntity
8
DIMENSION
6
CONTINUOUS
62
7
370
0
100
AcDbTrace
10
920.625
20
167
30
0
11
918.626833643
21
179
31
0
12
922.623166357
22
179
32
0
13
922.623166357
23
179
33
0
0
SOLID
5
12B
100
AcDbEntity
8
DIMENSION
6
CONTINUOUS
62
7
370
0
100
AcDbTrace
10
920.625
20
220
30
0
11
922.623166357
21
208
31
0
12
918.626833643
22
208
32
0
13
918.626833643
23
208
33
0
0
MTEXT
5
12C
100
AcDbEntity
8
DIMENSION
6
CONTINUOUS
62
7
370
0
100
AcDbMText
10
914.6
20
193.5
30
0
40
12
41
14.6666666667
71
5
72
1
1
53
7
standard
210
0
220
0
230
1
50
90
73
2
44
1
0
LINE
5
12D
100
AcDbEntity
8
DIMENSION
6
CONTINUOUS
62
7
370
0
100
AcDbLine
10
840.9
20
167
11
920.675
21
167
0
LINE
5
12E
100
AcDbEntity
8
DIMENSION
6
CONTINUOUS
62
7
370
0
100
AcDbLine
10
991.1875
20
220
11
920.675
21
220
0
ENDBLK
5
77
330
75
100
AcDbEntity
8
0
100
AcDbBlockEnd
0
BLOCK
5
79
330
78
100
AcDbEntity
8
0
100
AcDbBlockBegin
2
*D36
70
1
10
0
20
0
3
*D36
1

0
LINE
5
12F
100
AcDbEntity
8
DIMENSION
6
CONTINUOUS
62
7
370
0
100
AcDbLine
10
57.25
20
177
11
107.25
21
177
0
SOLID
5
130
100
AcDbEntity
8
DIMENSION
6
CONTINUOUS
62
7
370
0
100
AcDbTrace
10
57.25
20
177
30
0
11
69.25
21
178.998166357
31
0
12
69.25
22
175.001833643
32
0
13
69.25
23
175.001833643
33
0
0
SOLID
5
131
100
AcDbEntity
8
DIMENSION
6
CONTINUOUS
62
7
370
0
100
AcDbTrace
10
107.25
20
177
30
0
11
95.25
21
175.001833643
31
0
12
95.25
22
178.998166357
32
0
13
95.25
23
178.998166357
33
0
0
MTEXT
5
132
100
AcDbEntity
8
DIMENSION
6
CONTINUOUS
62
7
370
0
100
AcDbMText
10
82.25
20
183.025
30
0
40
12
41
14.6666666667
71
5
72
1
1
50
7
standard
210
0
220
0
230
1
50
0
73
2
44
1
0
LINE
5
133
100
AcDbEntity
8
DIMENSION
6
CONTINUOUS
62
7
370
0
100
AcDbLine
10
57.25
20
190.975
11
57.25
21
176.95
0
LINE
5
134
100
AcDbEntity
8
DIMENSION
6
CONTINUOUS
62
7
370
0
100
AcDbLine
10
107.25
20
190.975
11
107.25
21
176.95
0
ENDBLK
5
7A
330
78
100
AcDbEntity
8
0
100
AcDbBlockEnd
0
BLOCK
5
7C
330
7B
100
AcDbEntity
8
0
100
AcDbBlockBegin
2
*D11
70
1
10
0
20
0
3
*D11
1

0
LINE
5
135
100
AcDbEntity
8
DIMENSION
6
CONTINUOUS
62
7
370
0
100
AcDbLine
10
250
20
29.375
11
300
21
29.375
0
SOLID
5
136
100
AcDbEntity
8
DIMENSION
6
CONTINUOUS
62
7
370
0
100
AcDbTrace
10
250
20
29.375
30
0
11
262
21
31.3731663573
31
0
12
262
22
27.3768336427
32
0
13
262
23
27.3768336427
33
0
0
SOLID
5
137
100
AcDbEntity
8
DIMENSION
6
CONTINUOUS
62
7
370
0
100
AcDbTrace
10
300
20
29.375
30
0
11
288
21
27.3768336427
31
0
12
288
22
31.3731663573
32
0
13
288
23
31.3731663573
33
0
0
MTEXT
5
138
100
AcDbEntity
8
DIMENSION
6
CONTINUOUS
62
7
370
0
100
AcDbMText
10
275
20
35.4
30
0
40
12
41
14.6666666667
71
5
72
1
1
50
7
standard
210
0
220
0
230
1
50
0
73
2
44
1
0
LINE
5
139
100
AcDbEntity
8
DIMENSION
6
CONTINUOUS
62
7
370
0
100
AcDbLine
10
250
20
18.025
11
250
21
29.425
0
LINE
5
13A
100
AcDbEntity
8
DIMENSION
6
CONTINUOUS
62
7
370
0
100
AcDbLine
10
300
20
18.025
11
300
21
29.425
0
ENDBLK
5
7D
330
7B
100
AcDbEntity
8
0
100
AcDbBlockEnd
0
BLOCK
5
7F
330
7E
100
AcDbEntity
8
0
100
AcDbBlockBegin
2
*D35
70
1
10
0
20
0
3
*D35
1

0
LINE
5
13B
100
AcDbEntity
8
DIMENSION
6
CONTINUOUS
62
7
370
0
100
AcDbLine
10
-84.6385955811
20
-6.35
11
-84.6385955811
21
220
0
SOLID
5
13C
100
AcDbEntity
8
DIMENSION
6
CONTINUOUS
62
7
370
0
100
AcDbTrace
10
-84.6385955811
20
-6.35
30
0
11
-86.6367619384
21
5.65
31
0
12
-82.6404292238
22
5.65
32
0
13
-82.6404292238
23
5.65
33
0
0
SOLID
5
13D
100
AcDbEntity
8
DIMENSION
6
CONTINUOUS
62
7
370
0
100
AcDbTrace
10
-84.6385955811
20
220
30
0
11
-82.6404292238
21
208
31
0
12
-86.6367619384
22
208
32
0
13
-86.6367619384
23
208
33
0
0
MTEXT
5
13E
100
AcDbEntity
8
DIMENSION
6
CONTINUOUS
62
7
370
0
100
AcDbMText
10
-90.6635955811
20
106.825
30
0
40
12
41
46.6666666667
71
5
72
1
1
226.35
7
standard
210
0
220
0
230
1
50
90
73
2
44
1
0
LINE
5
13F
100
AcDbEntity
8
DIMENSION
6
CONTINUOUS
62
7
370
0
100
AcDbLine
10
1.5625
20
-6.35
11
-84.6885955811
21
-6.35
0
LINE
5
140
100
AcDbEntity
8
DIMENSION
6
CONTINUOUS
62
7
370
0
100
AcDbLine
10
1.5625
20
220
11
-84.6885955811
21
220
0
ENDBLK
5
80
330
7E
100
AcDbEntity
8
0
100
AcDbBlockEnd
0
BLOCK
5
82
330
81
100
AcDbEntity
8
0
100
AcDbBlockBegin
2
*D41
70
1
10
0
20
0
3
*D41
1

0
LINE
5
141
100
AcDbEntity
8
DIMENSION
6
CONTINUOUS
62
7
370
0
100
AcDbLine
10
131.2
20
244
11
131.2
21
167
0
SOLID
5
142
100
AcDbEntity
8
DIMENSION
6
CONTINUOUS
62
7
370
0
100
AcDbTrace
10
131.2
20
220
30
0
11
129.201833643
21
232
31
0
12
133.198166357
22
232
32
0
13
133.198166357
23
232
33
0
0
SOLID
5
143
100
AcDbEntity
8
DIMENSION
6
CONTINUOUS
62
7
370
0
100
AcDbTrace
10
131.2
20
191
30
0
11
133.198166357
21
179
31
0
12
129.201833643
22
179
32
0
13
129.201833643
23
179
33
0
0
MTEXT
5
144
100
AcDbEntity
8
DIMENSION
6
CONTINUOUS
62
7
370
0
100
AcDbMText
10
125.175
20
205.5
30
0
40
12
41
14.6666666667
71
5
72
1
1
29
7
standard
210
0
220
0
230
1
50
90
73
2
44
1
0
LINE
5
145
100
AcDbEntity
8
DIMENSION
6
CONTINUOUS
62
7
370
0
100
AcDbLine
10
108.8625
20
220
11
131.25
21
220
0
LINE
5
146
100
AcDbEntity
8
DIMENSION
6
CONTINUOUS
62
7
370
0
100
AcDbLine
10
107.275
20
191
11
131.25
21
191
0
ENDBLK
5
83
330
81
100
AcDbEntity
8
0
100
AcDbBlockEnd
0
BLOCK
5
85
330
84
100
AcDbEntity
8
0
100
AcDbBlockBegin
2
*D10
70
1
10
0
20
0
3
*D10
1

0
LINE
5
147
100
AcDbEntity
8
DIMENSION
6
CONTINUOUS
62
7
370
0
100
AcDbLine
10
250
20
181.75
11
300
21
181.75
0
SOLID
5
148
100
AcDbEntity
8
DIMENSION
6
CONTINUOUS
62
7
370
0
100
AcDbTrace
10
250
20
181.75
30
0
11
262
21
183.748166357
31
0
12
262
22
179.751833643
32
0
13
262
23
179.751833643
33
0
0
SOLID
5
149
100
AcDbEntity
8
DIMENSION
6
CONTINUOUS
62
7
370
0
100
AcDbTrace
10
300
20
181.75
30
0
11
288
21
179.751833643
31
0
12
288
22
183.748166357
32
0
13
288
23
183.748166357
33
0
0
MTEXT
5
14A
100
AcDbEntity
8
DIMENSION
6
CONTINUOUS
62
7
370
0
100
AcDbMText
10
275
20
187.775
30
0
40
12
41
14.6666666667
71
5
72
1
1
50
7
standard
210
0
220
0
230
1
50
0
73
2
44
1
0
LINE
5
14B
100
AcDbEntity
8
DIMENSION
6
CONTINUOUS
62
7
370
0
100
AcDbLine
10
250
20
201.975
11
250
21
181.7
0
LINE
5
14C
100
AcDbEntity
8
DIMENSION
6
CONTINUOUS
62
7
370
0
100
AcDbLine
10
300
20
201.975
11
300
21
181.7
0
ENDBLK
5
86
330
84
100
AcDbEntity
8
0
100
AcDbBlockEnd
0
BLOCK
5
88
330
87
100
AcDbEntity
8
0
100
AcDbBlockBegin
2
*D45
70
1
10
0
20
0
3
*D45
1

0
LINE
5
14D
100
AcDbEntity
8
DIMENSION
6
CONTINUOUS
62
7
370
0
100
AcDbLine
10
825
20
270.3125
11
1100
21
270.3125
0
SOLID
5
14E
100
AcDbEntity
8
DIMENSION
6
CONTINUOUS
62
7
370
0
100
AcDbTrace
10
825
20
270.3125
30
0
11
837
21
272.310666357
31
0
12
837
22
268.314333643
32
0
13
837
23
268.314333643
33
0
0
SOLID
5
14F
100
AcDbEntity
8
DIMENSION
6
CONTINUOUS
62
7
370
0
100
AcDbTrace
10
1100
20
270.3125
30
0
11
1088
21
268.314333643
31
0
12
1088
22
272.310666357
32
0
13
1088
23
272.310666357
33
0
0
MTEXT
5
150
100
AcDbEntity
8
DIMENSION
6
CONTINUOUS
62
7
370
0
100
AcDbMText
10
962.5
20
276.3375
30
0
40
12
41
24
71
5
72
1
1
275
7
standard
210
0
220
0
230
1
50
0
73
2
44
1
0
LINE
5
151
100
AcDbEntity
8
DIMENSION
6
CONTINUOUS
62
7
370
0
100
AcDbLine
10
825
20
208.025
11
825
21
270.3625
0
LINE
5
152
100
AcDbEntity
8
DIMENSION
6
CONTINUOUS
62
7
370
0
100
AcDbLine
10
1100
20
218.4375
11
1100
21
270.3625
0
ENDBLK
5
89
330
87
100
AcDbEntity
8
0
100
AcDbBlockEnd
0
BLOCK
5
8B
330
8A
100
AcDbEntity
8
0
100
AcDbBlockBegin
2
*D9
70
1
10
0
20
0
3
*D9
1

0
LINE
5
153
100
AcDbEntity
8
DIMENSION
6
CONTINUOUS
62
7
370
0
100
AcDbLine
10
800
20
33.984375
11
850
21
33.984375
0
SOLID
5
154
100
AcDbEntity
8
DIMENSION
6
CONTINUOUS
62
7
370
0
100
AcDbTrace
10
800
20
33.984375
30
0
11
812
21
35.9825413573
31
0
12
812
22
31.9862086427
32
0
13
812
23
31.9862086427
33
0
0
SOLID
5
155
100
AcDbEntity
8
DIMENSION
6
CONTINUOUS
62
7
370
0
100
AcDbTrace
10
850
20
33.984375
30
0
11
838
21
31.9862086427
31
0
12
838
22
35.9825413573
32
0
13
838
23
35.9825413573
33
0
0
MTEXT
5
156
100
AcDbEntity
8
DIMENSION
6
CONTINUOUS
62
7
370
0
100
AcDbMText
10
825
20
40.009375
30
0
40
12
41
14.6666666667
71
5
72
1
1
50
7
standard
210
0
220
0
230
1
50
0
73
2
44
1
0
LINE
5
157
100
AcDbEntity
8
DIMENSION
6
CONTINUOUS
62
7
370
0
100
AcDbLine
10
800
20
18.025
11
800
21
34.034375
0
LINE
5
158
100
AcDbEntity
8
DIMENSION
6
CONTINUOUS
62
7
370
0
100
AcDbLine
10
850
20
18.025
11
850
21
34.034375
0
ENDBLK
5
8C
330
8A
100
AcDbEntity
8
0
100
AcDbBlockEnd
0
BLOCK
5
8E
330
8D
100
AcDbEntity
8
0
100
AcDbBlockBegin
2
*D28
70
1
10
0
20
0
3
*D28
1

0
LINE
5
159
100
AcDbEntity
8
DIMENSION
6
CONTINUOUS
62
7
370
0
100
AcDbLine
10
53
20
177
11
2.22044604925e-16
21
177
0
SOLID
5
15A
100
AcDbEntity
8
DIMENSION
6
CONTINUOUS
62
7
370
0
100
AcDbTrace
10
53
20
177
30
0
11
41
21
175.001833643
31
0
12
41
22
178.998166357
32
0
13
41
23
178.998166357
33
0
0
SOLID
5
15B
100
AcDbEntity
8
DIMENSION
6
CONTINUOUS
62
7
370
0
100
AcDbTrace
10
2.22044604925e-16
20
177
30
0
11
12
21
178.998166357
31
0
12
12
22
175.001833643
32
0
13
12
23
175.001833643
33
0
0
MTEXT
5
15C
100
AcDbEntity
8
DIMENSION
6
CONTINUOUS
62
7
370
0
100
AcDbMText
10
26.5
20
183.025
30
0
40
12
41
14.6666666667
71
5
72
1
1
53
7
standard
210
0
220
0
230
1
50
360
73
2
44
1
0
LINE
5
15D
100
AcDbEntity
8
DIMENSION
6
CONTINUOUS
62
7
370
0
100
AcDbLine
10
53
20
125.9
11
53
21
177.05
0
LINE
5
15E
100
AcDbEntity
8
DIMENSION
6
CONTINUOUS
62
7
370
0
100
AcDbLine
10
2.23575413424e-16
20
218.4375
11
2.25106221923e-16
21
177.05
0
ENDBLK
5
8F
330
8D
100
AcDbEntity
8
0
100
AcDbBlockEnd
0
BLOCK
5
91
330
90
100
AcDbEntity
8
0
100
AcDbBlockBegin
2
*D4
70
1
10
0
20
0
3
*D4
1

0
LINE
5
15F
100
AcDbEntity
8
DIMENSION
6
CONTINUOUS
62
7
370
0
100
AcDbLine
10
809.125
20
150
11
840.875
21
150
0
SOLID
5
160
100
AcDbEntity
8
DIMENSION
6
CONTINUOUS
62
7
370
0
100
AcDbTrace
10
809.125
20
150
30
0
11
821.125
21
151.998166357
31
0
12
821.125
22
148.001833643
32
0
13
821.125
23
148.001833643
33
0
0
SOLID
5
161
100
AcDbEntity
8
DIMENSION
6
CONTINUOUS
62
7
370
0
100
AcDbTrace
10
840.875
20
150
30
0
11
828.875
21
148.001833643
31
0
12
828.875
22
151.998166357
32
0
13
828.875
23
151.998166357
33
0
0
MTEXT
5
162
100
AcDbEntity
8
DIMENSION
6
CONTINUOUS
62
7
370
0
100
AcDbMText
10
858.233333333
20
156.025
30
0
40
12
41
34.6666666667
71
5
72
1
1
31.75
7
standard
210
0
220
0
230
1
50
0
73
2
44
1
0
LINE
5
163
100
AcDbEntity
8
DIMENSION
6
CONTINUOUS
62
7
370
0
100
AcDbLine
10
809.125
20
166.975
11
809.125
21
149.95
0
LINE
5
164
100
AcDbEntity
8
DIMENSION
6
CONTINUOUS
62
7
370
0
100
AcDbLine
10
840.875
20
166.975
11
840.875
21
149.95
0
ENDBLK
5
92
330
90
100
AcDbEntity
8
0
100
AcDbBlockEnd
0
BLOCK
5
94
330
93
100
AcDbEntity
8
0
100
AcDbBlockBegin
2
*D21
70
1
10
0
20
0
3
*D21
1

0
LINE
5
165
100
AcDbEntity
8
DIMENSION
6
CONTINUOUS
62
7
370
0
100
AcDbLine
10
891.8
20
181
11
891.8
21
244
0
SOLID
5
166
100
AcDbEntity
8
DIMENSION
6
CONTINUOUS
62
7
370
0
100
AcDbTrace
10
891.8
20
205
30
0
11
893.798166357
21
193
31
0
12
889.801833643
22
193
32
0
13
889.801833643
23
193
33
0
0
SOLID
5
167
100
AcDbEntity
8
DIMENSION
6
CONTINUOUS
62
7
370
0
100
AcDbTrace
10
891.8
20
220
30
0
11
889.801833643
21
232
31
0
12
893.798166357
22
232
32
0
13
893.798166357
23
232
33
0
0
MTEXT
5
168
100
AcDbEntity
8
DIMENSION
6
CONTINUOUS
62
7
370
0
100
AcDbMText
10
885.775
20
212.5
30
0
40
12
41
12
71
5
72
1
1
15
7
standard
210
0
220
0
230
1
50
90
73
2
44
1
0
LINE
5
169
100
AcDbEntity
8
DIMENSION
6
CONTINUOUS
62
7
370
0
100
AcDbLine
10
850.025
20
205
11
891.85
21
205
0
LINE
5
16A
100
AcDbEntity
8
DIMENSION
6
CONTINUOUS
62
7
370
0
100
AcDbLine
10
991.1875
20
220
11
891.85
21
220
0
ENDBLK
5
95
330
93
100
AcDbEntity
8
0
100
AcDbBlockEnd
0
BLOCK
5
97
330
96
100
AcDbEntity
8
0
100
AcDbBlockBegin
2
*D19
70
1
10
0
20
0
3
*D19
1

0
LINE
5
16B
100
AcDbEntity
8
DIMENSION
6
CONTINUOUS
62
7
370
0
100
AcDbLine
10
221.09375
20
181
11
221.09375
21
244
0
SOLID
5
16C
100
AcDbEntity
8
DIMENSION
6
CONTINUOUS
62
7
370
0
100
AcDbTrace
10
221.09375
20
205
30
0
11
223.091916357
21
193
31
0
12
219.095583643
22
193
32
0
13
219.095583643
23
193
33
0
0
SOLID
5
16D
100
AcDbEntity
8
DIMENSION
6
CONTINUOUS
62
7
370
0
100
AcDbTrace
10
221.09375
20
220
30
0
11
219.095583643
21
232
31
0
12
223.091916357
22
232
32
0
13
223.091916357
23
232
33
0
0
MTEXT
5
16E
100
AcDbEntity
8
DIMENSION
6
CONTINUOUS
62
7
370
0
100
AcDbMText
10
215.06875
20
212.5
30
0
40
12
41
12
71
5
72
1
1
15
7
standard
210
0
220
0
230
1
50
90
73
2
44
1
0
LINE
5
16F
100
AcDbEntity
8
DIMENSION
6
CONTINUOUS
62
7
370
0
100
AcDbLine
10
249.975
20
205
11
221.04375
21
205
0
LINE
5
170
100
AcDbEntity
8
DIMENSION
6
CONTINUOUS
62
7
370
0
100
AcDbLine
10
108.8125
20
220
11
221.04375
21
220
0
ENDBLK
5
98
330
96
100
AcDbEntity
8
0
100
AcDbBlockEnd
0
BLOCK
5
9A
330
99
100
AcDbEntity
8
0
100
AcDbBlockBegin
2
*D24
70
1
10
0
20
0
3
*D24
1

0
LINE
5
171
100
AcDbEntity
8
DIMENSION
6
CONTINUOUS
62
7
370
0
100
AcDbLine
10
179.6875
20
53
11
179.6875
21
0
0
SOLID
5
172
100
AcDbEntity
8
DIMENSION
6
CONTINUOUS
62
7
370
0
100
AcDbTrace
10
179.6875
20
53
30
0
11
181.685666357
21
41
31
0
12
177.689333643
22
41
32
0
13
177.689333643
23
41
33
0
0
SOLID
5
173
100
AcDbEntity
8
DIMENSION
6
CONTINUOUS
62
7
370
0
100
AcDbTrace
10
179.6875
20
0
30
0
11
177.689333643
21
12
31
0
12
181.685666357
22
12
32
0
13
181.685666357
23
12
33
0
0
MTEXT
5
174
100
AcDbEntity
8
DIMENSION
6
CONTINUOUS
62
7
370
0
100
AcDbMText
10
173.6625
20
26.5
30
0
40
12
41
14.6666666667
71
5
72
1
1
53
7
standard
210
0
220
0
230
1
50
90
73
2
44
1
0
LINE
5
175
100
AcDbEntity
8
DIMENSION
6
CONTINUOUS
62
7
370
0
100
AcDbLine
10
259.1
20
53
11
179.6375
21
53
0
LINE
5
176
100
AcDbEntity
8
DIMENSION
6
CONTINUOUS
62
7
370
0
100
AcDbLine
10
-0.025
20
3.06161699787e-18
11
179.6375
21
6.12323399574e-18
0
ENDBLK
5
9B
330
99
100
AcDbEntity
8
0
100
AcDbBlockEnd
0
BLOCK
5
9D
330
9C
100
AcDbEntity
8
0
100
AcDbBlockBegin
2
*D13
70
1
10
0
20
0
3
*D13
1

0
LINE
5
177
100
AcDbEntity
8
DIMENSION
6
CONTINUOUS
62
7
370
0
100
AcDbLine
10
-12
20
63.75
11
42
21
63.75
0
SOLID
5
178
100
AcDbEntity
8
DIMENSION
6
CONTINUOUS
62
7
370
0
100
AcDbTrace
10
12
20
63.75
30
0
11
0
21
61.7518336427
31
0
12
0
22
65.7481663573
32
0
13
0
23
65.7481663573
33
0
0
SOLID
5
179
100
AcDbEntity
8
DIMENSION
6
CONTINUOUS
62
7
370
0
100
AcDbTrace
10
18
20
63.75
30
0
11
30
21
65.7481663573
31
0
12
30
22
61.7518336427
32
0
13
30
23
61.7518336427
33
0
0
MTEXT
5
17A
100
AcDbEntity
8
DIMENSION
6
CONTINUOUS
62
7
370
0
100
AcDbMText
10
15
20
69.775
30
0
40
12
41
5.33333333333
71
5
72
1
1
6
7
standard
210
0
220
0
230
1
50
0
73
2
44
1
0
LINE
5
17B
100
AcDbEntity
8
DIMENSION
6
CONTINUOUS
62
7
370
0
100
AcDbLine
10
12
20
84.975
11
12
21
63.7
0
LINE
5
17C
100
AcDbEntity
8
DIMENSION
6
CONTINUOUS
62
7
370
0
100
AcDbLine
10
18
20
84.975
11
18
21
63.7
0
ENDBLK
5
9E
330
9C
100
AcDbEntity
8
0
100
AcDbBlockEnd
0
BLOCK
5
A0
330
9F
100
AcDbEntity
8
0
100
AcDbBlockBegin
2
*D46
70
1
10
0
20
0
3
*D46
1

0
LINE
5
17D
100
AcDbEntity
8
DIMENSION
6
CONTINUOUS
62
7
370
0
100
AcDbLine
10
275
20
277.5
11
0
21
277.5
0
SOLID
5
17E
100
AcDbEntity
8
DIMENSION
6
CONTINUOUS
62
7
370
0
100
AcDbTrace
10
275
20
277.5
30
0
11
263
21
275.501833643
31
0
12
263
22
279.498166357
32
0
13
263
23
279.498166357
33
0
0
SOLID
5
17F
100
AcDbEntity
8
DIMENSION
6
CONTINUOUS
62
7
370
0
100
AcDbTrace
10
0
20
277.5
30
0
11
12
21
279.498166357
31
0
12
12
22
275.501833643
32
0
13
12
23
275.501833643
33
0
0
MTEXT
5
180
100
AcDbEntity
8
DIMENSION
6
CONTINUOUS
62
7
370
0
100
AcDbMText
10
137.5
20
283.525
30
0
40
12
41
24
71
5
72
1
1
275
7
standard
210
0
220
0
230
1
50
360
73
2
44
1
0
LINE
5
181
100
AcDbEntity
8
DIMENSION
6
CONTINUOUS
62
7
370
0
100
AcDbLine
10
275
20
208.025
11
275
21
277.55
0
LINE
5
182
100
AcDbEntity
8
DIMENSION
6
CONTINUOUS
62
7
370
0
100
AcDbLine
10
1.53080849893e-18
20
218.4375
11
3.06161699787e-18
21
277.55
0
ENDBLK
5
A1
330
9F
100
AcDbEntity
8
0
100
AcDbBlockEnd
0
BLOCK
5
A3
330
A2
100
AcDbEntity
8
0
100
AcDbBlockBegin
2
*D27
70
1
10
0
20
0
3
*D27
1

0
LINE
5
183
100
AcDbEntity
8
DIMENSION
6
CONTINUOUS
62
7
370
0
100
AcDbLine
10
39
20
150.78125
11
-24
21
150.78125
0
SOLID
5
184
100
AcDbEntity
8
DIMENSION
6
CONTINUOUS
62
7
370
0
100
AcDbTrace
10
15
20
150.78125
30
0
11
27
21
152.779416357
31
0
12
27
22
148.783083643
32
0
13
27
23
148.783083643
33
0
0
SOLID
5
185
100
AcDbEntity
8
DIMENSION
6
CONTINUOUS
62
7
370
0
100
AcDbTrace
10
2.22044604925e-16
20
150.78125
30
0
11
-12
21
148.783083643
31
0
12
-12
22
152.779416357
32
0
13
-12
23
152.779416357
33
0
0
MTEXT
5
186
100
AcDbEntity
8
DIMENSION
6
CONTINUOUS
62
7
370
0
100
AcDbMText
10
7.5
20
156.80625
30
0
40
12
41
12
71
5
72
1
1
15
7
standard
210
0
220
0
230
1
50
360
73
2
44
1
0
LINE
5
187
100
AcDbEntity
8
DIMENSION
6
CONTINUOUS
62
7
370
0
100
AcDbLine
10
15
20
135.025
11
15
21
150.83125
0
LINE
5
188
100
AcDbEntity
8
DIMENSION
6
CONTINUOUS
62
7
370
0
100
AcDbLine
10
2.23575413424e-16
20
218.4375
11
2.25106221923e-16
21
150.83125
0
ENDBLK
5
A4
330
A2
100
AcDbEntity
8
0
100
AcDbBlockEnd
0
BLOCK
5
A6
330
A5
100
AcDbEntity
8
0
100
AcDbBlockBegin
2
*D7
70
1
10
0
20
0
3
*D7
1

0
LINE
5
189
100
AcDbEntity
8
DIMENSION
6
CONTINUOUS
62
7
370
0
100
AcDbLine
10
1070.3125
20
135
11
1070.3125
21
85
0
SOLID
5
18A
100
AcDbEntity
8
DIMENSION
6
CONTINUOUS
62
7
370
0
100
AcDbTrace
10
1070.3125
20
135
30
0
11
1072.31066636
21
123
31
0
12
1068.31433364
22
123
32
0
13
1068.31433364
23
123
33
0
0
SOLID
5
18B
100
AcDbEntity
8
DIMENSION
6
CONTINUOUS
62
7
370
0
100
AcDbTrace
10
1070.3125
20
85
30
0
11
1068.31433364
21
97
31
0
12
1072.31066636
22
97
32
0
13
1072.31066636
23
97
33
0
0
MTEXT
5
18C
100
AcDbEntity
8
DIMENSION
6
CONTINUOUS
62
7
370
0
100
AcDbMText
10
1064.2875
20
110
30
0
40
12
41
14.6666666667
71
5
72
1
1
50
7
standard
210
0
220
0
230
1
50
90
73
2
44
1
0
LINE
5
18D
100
AcDbEntity
8
DIMENSION
6
CONTINUOUS
62
7
370
0
100
AcDbLine
10
1081.975
20
135
11
1070.2625
21
135
0
LINE
5
18E
100
AcDbEntity
8
DIMENSION
6
CONTINUOUS
62
7
370
0
100
AcDbLine
10
1081.975
20
85
11
1070.2625
21
85
0
ENDBLK
5
A7
330
A5
100
AcDbEntity
8
0
100
AcDbBlockEnd
0
BLOCK
5
A9
330
A8
100
AcDbEntity
8
0
100
AcDbBlockBegin
2
*D8
70
1
10
0
20
0
3
*D8
1

0
LINE
5
18F
100
AcDbEntity
8
DIMENSION
6
CONTINUOUS
62
7
370
0
100
AcDbLine
10
800
20
182.03125
11
850
21
182.03125
0
SOLID
5
190
100
AcDbEntity
8
DIMENSION
6
CONTINUOUS
62
7
370
0
100
AcDbTrace
10
800
20
182.03125
30
0
11
812
21
184.029416357
31
0
12
812
22
180.033083643
32
0
13
812
23
180.033083643
33
0
0
SOLID
5
191
100
AcDbEntity
8
DIMENSION
6
CONTINUOUS
62
7
370
0
100
AcDbTrace
10
850
20
182.03125
30
0
11
838
21
180.033083643
31
0
12
838
22
184.029416357
32
0
13
838
23
184.029416357
33
0
0
MTEXT
5
192
100
AcDbEntity
8
DIMENSION
6
CONTINUOUS
62
7
370
0
100
AcDbMText
10
825
20
188.05625
30
0
40
12
41
14.6666666667
71
5
72
1
1
50
7
standard
210
0
220
0
230
1
50
0
73
2
44
1
0
LINE
5
193
100
AcDbEntity
8
DIMENSION
6
CONTINUOUS
62
7
370
0
100
AcDbLine
10
800
20
201.975
11
800
21
181.98125
0
LINE
5
194
100
AcDbEntity
8
DIMENSION
6
CONTINUOUS
62
7
370
0
100
AcDbLine
10
850
20
201.975
11
850
21
181.98125
0
ENDBLK
5
AA
330
A8
100
AcDbEntity
8
0
100
AcDbBlockEnd
0
BLOCK
5
AC
330
AB
100
AcDbEntity
8
0
100
AcDbBlockBegin
2
*D23
70
1
10
0
20
0
3
*D23
1

0
LINE
5
195
100
AcDbEntity
8
DIMENSION
6
CONTINUOUS
62
7
370
0
100
AcDbLine
10
222.015380859
20
39
11
222.015380859
21
-24
0
SOLID
5
196
100
AcDbEntity
8
DIMENSION
6
CONTINUOUS
62
7
370
0
100
AcDbTrace
10
222.015380859
20
15
30
0
11
220.017214502
21
27
31
0
12
224.013547217
22
27
32
0
13
224.013547217
23
27
33
0
0
SOLID
5
197
100
AcDbEntity
8
DIMENSION
6
CONTINUOUS
62
7
370
0
100
AcDbTrace
10
222.015380859
20
0
30
0
11
224.013547217
21
-12
31
0
12
220.017214502
22
-12
32
0
13
220.017214502
23
-12
33
0
0
MTEXT
5
198
100
AcDbEntity
8
DIMENSION
6
CONTINUOUS
62
7
370
0
100
AcDbMText
10
215.990380859
20
7.5
30
0
40
12
41
12
71
5
72
1
1
15
7
standard
210
0
220
0
230
1
50
90
73
2
44
1
0
LINE
5
199
100
AcDbEntity
8
DIMENSION
6
CONTINUOUS
62
7
370
0
100
AcDbLine
10
249.975
20
15
11
221.965380859
21
15
0
LINE
5
19A
100
AcDbEntity
8
DIMENSION
6
CONTINUOUS
62
7
370
0
100
AcDbLine
10
-0.025
20
3.06161699787e-18
11
221.965380859
21
6.12323399574e-18
0
ENDBLK
5
AD
330
AB
100
AcDbEntity
8
0
100
AcDbBlockEnd
0
BLOCK
5
AF
330
AE
100
AcDbEntity
8
0
100
AcDbBlockBegin
2
*D14
70
1
10
0
20
0
3
*D14
1

0
LINE
5
19B
100
AcDbEntity
8
DIMENSION
6
CONTINUOUS
62
7
370
0
100
AcDbLine
10
327.8125
20
232
11
327.8125
21
178
0
SOLID
5
19C
100
AcDbEntity
8
DIMENSION
6
CONTINUOUS
62
7
370
0
100
AcDbTrace
10
327.8125
20
208
30
0
11
325.814333643
21
220
31
0
12
329.810666357
22
220
32
0
13
329.810666357
23
220
33
0
0
SOLID
5
19D
100
AcDbEntity
8
DIMENSION
6
CONTINUOUS
62
7
370
0
100
AcDbTrace
10
327.8125
20
202
30
0
11
329.810666357
21
190
31
0
12
325.814333643
22
190
32
0
13
325.814333643
23
190
33
0
0
MTEXT
5
19E
100
AcDbEntity
8
DIMENSION
6
CONTINUOUS
62
7
370
0
100
AcDbMText
10
321.7875
20
205
30
0
40
12
41
5.33333333333
71
5
72
1
1
6
7
standard
210
0
220
0
230
1
50
90
73
2
44
1
0
LINE
5
19F
100
AcDbEntity
8
DIMENSION
6
CONTINUOUS
62
7
370
0
100
AcDbLine
10
300.025
20
208
11
327.8625
21
208
0
LINE
5
1A0
100
AcDbEntity
8
DIMENSION
6
CONTINUOUS
62
7
370
0
100
AcDbLine
10
300.025
20
202
11
327.8625
21
202
0
ENDBLK
5
B0
330
AE
100
AcDbEntity
8
0
100
AcDbBlockEnd
0
BLOCK
5
B2
330
B1
100
AcDbEntity
8
0
100
AcDbBlockBegin
2
*D31
70
1
10
0
20
0
3
*D31
1

0
LINE
5
1A1
100
AcDbEntity
8
DIMENSION
6
CONTINUOUS
62
7
370
0
100
AcDbLine
10
1149.0625
20
110
11
1149.0625
21
0
0
SOLID
5
1A2
100
AcDbEntity
8
DIMENSION
6
CONTINUOUS
62
7
370
0
100
AcDbTrace
10
1149.0625
20
110
30
0
11
1151.06066636
21
98
31
0
12
1147.06433364
22
98
32
0
13
1147.06433364
23
98
33
0
0
SOLID
5
1A3
100
AcDbEntity
8
DIMENSION
6
CONTINUOUS
62
7
370
0
100
AcDbTrace
10
1149.0625
20
0
30
0
11
1147.06433364
21
12
31
0
12
1151.06066636
22
12
32
0
13
1151.06066636
23
12
33
0
0
MTEXT
5
1A4
100
AcDbEntity
8
DIMENSION
6
CONTINUOUS
62
7
370
0
100
AcDbMText
10
1143.0375
20
55
30
0
40
12
41
18.6666666667
71
5
72
1
1
110
7
standard
210
0
220
0
230
1
50
90
73
2
44
1
0
LINE
5
1A5
100
AcDbEntity
8
DIMENSION
6
CONTINUOUS
62
7
370
0
100
AcDbLine
10
1088.025
20
110
11
1149.1125
21
110
0
LINE
5
1A6
100
AcDbEntity
8
DIMENSION
6
CONTINUOUS
62
7
370
0
100
AcDbLine
10
1100.025
20
0
11
1149.1125
21
0
0
ENDBLK
5
B3
330
B1
100
AcDbEntity
8
0
100
AcDbBlockEnd
0
BLOCK
5
B5
330
B4
100
AcDbEntity
8
0
100
AcDbBlockBegin
2
*D12
70
1
10
0
20
0
3
*D12
1

0
LINE
5
1A7
100
AcDbEntity
8
DIMENSION
6
CONTINUOUS
62
7
370
0
100
AcDbLine
10
37.8125
20
135
11
37.8125
21
85
0
SOLID
5
1A8
100
AcDbEntity
8
DIMENSION
6
CONTINUOUS
62
7
370
0
100
AcDbTrace
10
37.8125
20
135
30
0
11
39.8106663573
21
123
31
0
12
35.8143336427
22
123
32
0
13
35.8143336427
23
123
33
0
0
SOLID
5
1A9
100
AcDbEntity
8
DIMENSION
6
CONTINUOUS
62
7
370
0
100
AcDbTrace
10
37.8125
20
85
30
0
11
35.8143336427
21
97
31
0
12
39.8106663573
22
97
32
0
13
39.8106663573
23
97
33
0
0
MTEXT
5
1AA
100
AcDbEntity
8
DIMENSION
6
CONTINUOUS
62
7
370
0
100
AcDbMText
10
31.7875
20
110
30
0
40
12
41
14.6666666667
71
5
72
1
1
50
7
standard
210
0
220
0
230
1
50
90
73
2
44
1
0
LINE
5
1AB
100
AcDbEntity
8
DIMENSION
6
CONTINUOUS
62
7
370
0
100
AcDbLine
10
18.025
20
135
11
37.8625
21
135
0
LINE
5
1AC
100
AcDbEntity
8
DIMENSION
6
CONTINUOUS
62
7
370
0
100
AcDbLine
10
18.025
20
85
11
37.8625
21
85
0
ENDBLK
5
B6
330
B4
100
AcDbEntity
8
0
100
AcDbBlockEnd
0
BLOCK
5
B8
330
B7
100
AcDbEntity
8
0
100
AcDbBlockBegin
2
*D16
70
1
10
0
20
0
3
*D16
1

0
LINE
5
1AD
100
AcDbEntity
8
DIMENSION
6
CONTINUOUS
62
7
370
0
100
AcDbLine
10
771.484375
20
42
11
771.484375
21
-12
0
SOLID
5
1AE
100
AcDbEntity
8
DIMENSION
6
CONTINUOUS
62
7
370
0
100
AcDbTrace
10
771.484375
20
18
30
0
11
769.486208643
21
30
31
0
12
773.482541357
22
30
32
0
13
773.482541357
23
30
33
0
0
SOLID
5
1AF
100
AcDbEntity
8
DIMENSION
6
CONTINUOUS
62
7
370
0
100
AcDbTrace
10
771.484375
20
12
30
0
11
773.482541357
21
1.7763568394e-15
31
0
12
769.486208643
22
1.7763568394e-15
32
0
13
769.486208643
23
1.7763568394e-15
33
0
0
MTEXT
5
1B0
100
AcDbEntity
8
DIMENSION
6
CONTINUOUS
62
7
370
0
100
AcDbMText
10
765.459375
20
15
30
0
40
12
41
5.33333333333
71
5
72
1
1
6
7
standard
210
0
220
0
230
1
50
90
73
2
44
1
0
LINE
5
1B1
100
AcDbEntity
8
DIMENSION
6
CONTINUOUS
62
7
370
0
100
AcDbLine
10
799.975
20
18
11
771.434375
21
18
0
LINE
5
1B2
100
AcDbEntity
8
DIMENSION
6
CONTINUOUS
62
7
370
0
100
AcDbLine
10
799.975
20
12
11
771.434375
21
12
0
ENDBLK
5
B9
330
B7
100
AcDbEntity
8
0
100
AcDbBlockEnd
0
BLOCK
5
BB
330
BA
100
AcDbEntity
8
0
100
AcDbBlockBegin
2
*D44
70
1
10
0
20
0
3
*D44
1

0
LINE
5
1B3
100
AcDbEntity
8
DIMENSION
6
CONTINUOUS
62
7
370
0
100
AcDbLine
10
825
20
-33.203125
11
1100
21
-33.203125
0
SOLID
5
1B4
100
AcDbEntity
8
DIMENSION
6
CONTINUOUS
62
7
370
0
100
AcDbTrace
10
825
20
-33.203125
30
0
11
837
21
-31.2049586427
31
0
12
837
22
-35.2012913573
32
0
13
837
23
-35.2012913573
33
0
0
SOLID
5
1B5
100
AcDbEntity
8
DIMENSION
6
CONTINUOUS
62
7
370
0
100
AcDbTrace
10
1100
20
-33.203125
30
0
11
1088
21
-35.2012913573
31
0
12
1088
22
-31.2049586427
32
0
13
1088
23
-31.2049586427
33
0
0
MTEXT
5
1B6
100
AcDbEntity
8
DIMENSION
6
CONTINUOUS
62
7
370
0
100
AcDbMText
10
962.5
20
-27.178125
30
0
40
12
41
24
71
5
72
1
1
275
7
standard
210
0
220
0
230
1
50
0
73
2
44
1
0
LINE
5
1B7
100
AcDbEntity
8
DIMENSION
6
CONTINUOUS
62
7
370
0
100
AcDbLine
10
825
20
11.975
11
825
21
-33.253125
0
LINE
5
1B8
100
AcDbEntity
8
DIMENSION
6
CONTINUOUS
62
7
370
0
100
AcDbLine
10
1100
20
-0.025
11
1100
21
-33.253125
0
ENDBLK
5
BC
330
BA
100
AcDbEntity
8
0
100
AcDbBlockEnd
0
BLOCK
5
BE
330
BD
100
AcDbEntity
8
0
100
AcDbBlockBegin
2
*D20
70
1
10
0
20
0
3
*D20
1

0
LINE
5
1B9
100
AcDbEntity
8
DIMENSION
6
CONTINUOUS
62
7
370
0
100
AcDbLine
10
183.36
20
167
11
183.36
21
220
0
SOLID
5
1BA
100
AcDbEntity
8
DIMENSION
6
CONTINUOUS
62
7
370
0
100
AcDbTrace
10
183.36
20
167
30
0
11
181.361833643
21
179
31
0
12
185.358166357
22
179
32
0
13
185.358166357
23
179
33
0
0
SOLID
5
1BB
100
AcDbEntity
8
DIMENSION
6
CONTINUOUS
62
7
370
0
100
AcDbTrace
10
183.36
20
220
30
0
11
185.358166357
21
208
31
0
12
181.361833643
22
208
32
0
13
181.361833643
23
208
33
0
0
MTEXT
5
1BC
100
AcDbEntity
8
DIMENSION
6
CONTINUOUS
62
7
370
0
100
AcDbMText
10
177.335
20
193.5
30
0
40
12
41
14.6666666667
71
5
72
1
1
53
7
standard
210
0
220
0
230
1
50
90
73
2
44
1
0
LINE
5
1BD
100
AcDbEntity
8
DIMENSION
6
CONTINUOUS
62
7
370
0
100
AcDbLine
10
259.1
20
167
11
183.31
21
167
0
LINE
5
1BE
100
AcDbEntity
8
DIMENSION
6
CONTINUOUS
62
7
370
0
100
AcDbLine
10
108.8125
20
220
11
183.31
21
220
0
ENDBLK
5
BF
330
BD
100
AcDbEntity
8
0
100
AcDbBlockEnd
0
BLOCK
5
C1
330
C0
100
AcDbEntity
8
0
100
AcDbBlockBegin
2
*D40
70
1
10
0
20
0
3
*D40
1

0
LINE
5
1BF
100
AcDbEntity
8
DIMENSION
6
CONTINUOUS
62
7
370
0
100
AcDbLine
10
1067.4176
20
167
11
1067.4176
21
244
0
SOLID
5
1C0
100
AcDbEntity
8
DIMENSION
6
CONTINUOUS
62
7
370
0
100
AcDbTrace
10
1067.4176
20
191
30
0
11
1069.41576636
21
179
31
0
12
1065.41943364
22
179
32
0
13
1065.41943364
23
179
33
0
0
SOLID
5
1C1
100
AcDbEntity
8
DIMENSION
6
CONTINUOUS
62
7
370
0
100
AcDbTrace
10
1067.4176
20
220
30
0
11
1065.41943364
21
232
31
0
12
1069.41576636
22
232
32
0
13
1069.41576636
23
232
33
0
0
MTEXT
5
1C2
100
AcDbEntity
8
DIMENSION
6
CONTINUOUS
62
7
370
0
100
AcDbMText
10
1061.3926
20
205.5
30
0
40
12
41
14.6666666667
71
5
72
1
1
29
7
standard
210
0
220
0
230
1
50
90
73
2
44
1
0
LINE
5
1C3
100
AcDbEntity
8
DIMENSION
6
CONTINUOUS
62
7
370
0
100
AcDbLine
10
1042.775
20
191
11
1067.4676
21
191
0
LINE
5
1C4
100
AcDbEntity
8
DIMENSION
6
CONTINUOUS
62
7
370
0
100
AcDbLine
10
1044.3625
20
220
11
1067.4676
21
220
0
ENDBLK
5
C2
330
C0
100
AcDbEntity
8
0
100
AcDbBlockEnd
0
BLOCK
5
C4
330
C3
100
AcDbEntity
8
0
100
AcDbBlockBegin
2
*D26
70
1
10
0
20
0
3
*D26
1

0
LINE
5
1C5
100
AcDbEntity
8
DIMENSION
6
CONTINUOUS
62
7
370
0
100
AcDbLine
10
942.993164063
20
53
11
942.993164063
21
0
0
SOLID
5
1C6
100
AcDbEntity
8
DIMENSION
6
CONTINUOUS
62
7
370
0
100
AcDbTrace
10
942.993164063
20
53
30
0
11
944.99133042
21
41
31
0
12
940.994997705
22
41
32
0
13
940.994997705
23
41
33
0
0
SOLID
5
1C7
100
AcDbEntity
8
DIMENSION
6
CONTINUOUS
62
7
370
0
100
AcDbTrace
10
942.993164063
20
0
30
0
11
940.994997705
21
12
31
0
12
944.99133042
22
12
32
0
13
944.99133042
23
12
33
0
0
MTEXT
5
1C8
100
AcDbEntity
8
DIMENSION
6
CONTINUOUS
62
7
370
0
100
AcDbMText
10
936.968164063
20
26.5
30
0
40
12
41
14.6666666667
71
5
72
1
1
53
7
standard
210
0
220
0
230
1
50
90
73
2
44
1
0
LINE
5
1C9
100
AcDbEntity
8
DIMENSION
6
CONTINUOUS
62
7
370
0
100
AcDbLine
10
840.9
20
53
11
943.043164063
21
53
0
LINE
5
1CA
100
AcDbEntity
8
DIMENSION
6
CONTINUOUS
62
7
370
0
100
AcDbLine
10
1100.025
20
0
11
943.043164063
21
0
0
ENDBLK
5
C5
330
C3
100
AcDbEntity
8
0
100
AcDbBlockEnd
0
BLOCK
5
C7
330
C6
100
AcDbEntity
8
0
100
AcDbBlockBegin
2
*D32
70
1
10
0
20
0
3
*D32
1

0
LINE
5
1CB
100
AcDbEntity
8
DIMENSION
6
CONTINUOUS
62
7
370
0
100
AcDbLine
10
1203.61328125
20
220
11
1203.61328125
21
0
0
SOLID
5
1CC
100
AcDbEntity
8
DIMENSION
6
CONTINUOUS
62
7
370
0
100
AcDbTrace
10
1203.61328125
20
220
30
0
11
1205.61144761
21
208
31
0
12
1201.61511489
22
208
32
0
13
1201.61511489
23
208
33
0
0
SOLID
5
1CD
100
AcDbEntity
8
DIMENSION
6
CONTINUOUS
62
7
370
0
100
AcDbTrace
10
1203.61328125
20
0
30
0
11
1201.61511489
21
12
31
0
12
1205.61144761
22
12
32
0
13
1205.61144761
23
12
33
0
0
MTEXT
5
1CE
100
AcDbEntity
8
DIMENSION
6
CONTINUOUS
62
7
370
0
100
AcDbMText
10
1197.58828125
20
110
30
0
40
12
41
24
71
5
72
1
1
220
7
standard
210
0
220
0
230
1
50
90
73
2
44
1
0
LINE
5
1CF
100
AcDbEntity
8
DIMENSION
6
CONTINUOUS
62
7
370
0
100
AcDbLine
10
1098.4375
20
220
11
1203.66328125
21
220
0
LINE
5
1D0
100
AcDbEntity
8
DIMENSION
6
CONTINUOUS
62
7
370
0
100
AcDbLine
10
1100.025
20
0
11
1203.66328125
21
0
0
ENDBLK
5
C8
330
C6
100
AcDbEntity
8
0
100
AcDbBlockEnd
0
BLOCK
5
CA
330
C9
100
AcDbEntity
8
0
100
AcDbBlockBegin
2
*D38
70
1
10
0
20
0
3
*D38
1

0
LINE
5
1D1
100
AcDbEntity
8
DIMENSION
6
CONTINUOUS
62
7
370
0
100
AcDbLine
10
82.25
20
241.8
11
2.22044604925e-16
21
241.8
0
SOLID
5
1D2
100
AcDbEntity
8
DIMENSION
6
CONTINUOUS
62
7
370
0
100
AcDbTrace
10
82.25
20
241.8
30
0
11
70.25
21
239.801833643
31
0
12
70.25
22
243.798166357
32
0
13
70.25
23
243.798166357
33
0
0
SOLID
5
1D3
100
AcDbEntity
8
DIMENSION
6
CONTINUOUS
62
7
370
0
100
AcDbTrace
10
2.22044604925e-16
20
241.8
30
0
11
12
21
243.798166357
31
0
12
12
22
239.801833643
32
0
13
12
23
239.801833643
33
0
0
MTEXT
5
1D4
100
AcDbEntity
8
DIMENSION
6
CONTINUOUS
62
7
370
0
100
AcDbMText
10
41.125
20
247.825
30
0
40
12
41
37.3333333333
71
5
72
1
1
82.25
7
standard
210
0
220
0
230
1
50
360
73
2
44
1
0
LINE
5
1D5
100
AcDbEntity
8
DIMENSION
6
CONTINUOUS
62
7
370
0
100
AcDbLine
10
82.25
20
191.025
11
82.25
21
241.85
0
LINE
5
1D6
100
AcDbEntity
8
DIMENSION
6
CONTINUOUS
62
7
370
0
100
AcDbLine
10
2.23575413424e-16
20
218.4375
11
2.25106221923e-16
21
241.85
0
ENDBLK
5
CB
330
C9
100
AcDbEntity
8
0
100
AcDbBlockEnd
0
BLOCK
5
CD
330
CC
100
AcDbEntity
8
0
100
AcDbBlockBegin
2
*D43
70
1
10
0
20
0
3
*D43
1

0
LINE
5
1D7
100
AcDbEntity
8
DIMENSION
6
CONTINUOUS
62
7
370
0
100
AcDbLine
10
275
20
-34.3322753906
11
3.94430452611e-31
21
-34.3322753906
0
SOLID
5
1D8
100
AcDbEntity
8
DIMENSION
6
CONTINUOUS
62
7
370
0
100
AcDbTrace
10
275
20
-34.3322753906
30
0
11
263
21
-36.3304417479
31
0
12
263
22
-32.3341090333
32
0
13
263
23
-32.3341090333
33
0
0
SOLID
5
1D9
100
AcDbEntity
8
DIMENSION
6
CONTINUOUS
62
7
370
0
100
AcDbTrace
10
3.94430452611e-31
20
-34.3322753906
30
0
11
12
21
-32.3341090333
31
0
12
12
22
-36.3304417479
32
0
13
12
23
-36.3304417479
33
0
0
MTEXT
5
1DA
100
AcDbEntity
8
DIMENSION
6
CONTINUOUS
62
7
370
0
100
AcDbMText
10
137.5
20
-28.3072753906
30
0
40
12
41
24
71
5
72
1
1
275
7
standard
210
0
220
0
230
1
50
360
73
2
44
1
0
LINE
5
1DB
100
AcDbEntity
8
DIMENSION
6
CONTINUOUS
62
7
370
0
100
AcDbLine
10
275
20
11.975
11
275
21
-34.3822753906
0
LINE
5
1DC
100
AcDbEntity
8
DIMENSION
6
CONTINUOUS
62
7
370
0
100
AcDbLine
10
-4.5924254968e-18
20
-0.025
11
-9.1848509936e-18
21
-34.3822753906
0
ENDBLK
5
CE
330
CC
100
AcDbEntity
8
0
100
AcDbBlockEnd
0
BLOCK
5
D0
330
CF
100
AcDbEntity
8
0
100
AcDbBlockBegin
2
*D1
70
1
10
0
20
0
3
*D1
1

0
LINE
5
1DD
100
AcDbEntity
8
DIMENSION
6
CONTINUOUS
62
7
370
0
100
AcDbLine
10
75.78125
20
125.875
11
75.78125
21
94.125
0
SOLID
5
1DE
100
AcDbEntity
8
DIMENSION
6
CONTINUOUS
62
7
370
0
100
AcDbTrace
10
75.78125
20
125.875
30
0
11
77.7794163573
21
113.875
31
0
12
73.7830836427
22
113.875
32
0
13
73.7830836427
23
113.875
33
0
0
SOLID
5
1DF
100
AcDbEntity
8
DIMENSION
6
CONTINUOUS
62
7
370
0
100
AcDbTrace
10
75.78125
20
94.125
30
0
11
73.7830836427
21
106.125
31
0
12
77.7794163573
22
106.125
32
0
13
77.7794163573
23
106.125
33
0
0
MTEXT
5
1E0
100
AcDbEntity
8
DIMENSION
6
CONTINUOUS
62
7
370
0
100
AcDbMText
10
69.75625
20
143.233333333
30
0
40
12
41
34.6666666667
71
5
72
1
1
31.75
7
standard
210
0
220
0
230
1
50
90
73
2
44
1
0
LINE
5
1E1
100
AcDbEntity
8
DIMENSION
6
CONTINUOUS
62
7
370
0
100
AcDbLine
10
53.025
20
125.875
11
75.83125
21
125.875
0
LINE
5
1E2
100
AcDbEntity
8
DIMENSION
6
CONTINUOUS
62
7
370
0
100
AcDbLine
10
53.025
20
94.125
11
75.83125
21
94.125
0
ENDBLK
5
D1
330
CF
100
AcDbEntity
8
0
100
AcDbBlockEnd
0
BLOCK
5
D3
330
D2
100
AcDbEntity
8
0
100
AcDbBlockBegin
2
*D3
70
1
10
0
20
0
3
*D3
1

0
LINE
5
1E3
100
AcDbEntity
8
DIMENSION
6
CONTINUOUS
62
7
370
0
100
AcDbLine
10
259.125
20
70.3125
11
290.875
21
70.3125
0
SOLID
5
1E4
100
AcDbEntity
8
DIMENSION
6
CONTINUOUS
62
7
370
0
100
AcDbTrace
10
259.125
20
70.3125
30
0
11
271.125
21
72.3106663573
31
0
12
271.125
22
68.3143336427
32
0
13
271.125
23
68.3143336427
33
0
0
SOLID
5
1E5
100
AcDbEntity
8
DIMENSION
6
CONTINUOUS
62
7
370
0
100
AcDbTrace
10
290.875
20
70.3125
30
0
11
278.875
21
68.3143336427
31
0
12
278.875
22
72.3106663573
32
0
13
278.875
23
72.3106663573
33
0
0
MTEXT
5
1E6
100
AcDbEntity
8
DIMENSION
6
CONTINUOUS
62
7
370
0
100
AcDbMText
10
308.233333333
20
76.3375
30
0
40
12
41
34.6666666667
71
5
72
1
1
31.75
7
standard
210
0
220
0
230
1
50
0
73
2
44
1
0
LINE
5
1E7
100
AcDbEntity
8
DIMENSION
6
CONTINUOUS
62
7
370
0
100
AcDbLine
10
259.125
20
53.025
11
259.125
21
70.3625
0
LINE
5
1E8
100
AcDbEntity
8
DIMENSION
6
CONTINUOUS
62
7
370
0
100
AcDbLine
10
290.875
20
53.025
11
290.875
21
70.3625
0
ENDBLK
5
D4
330
D2
100
AcDbEntity
8
0
100
AcDbBlockEnd
0
ENDSEC
0
SECTION
2
ENTITIES
0
LINE
5
1E9
100
AcDbEntity
8
REFERENCE
6
ByLayer
62
256
370
-1
100
AcDbLine
10
0
20
0
11
1100
21
0
0
LINE
5
1EA
100
AcDbEntity
8
REFERENCE
6
ByLayer
62
256
370
-1
100
AcDbLine
10
1100
20
0
11
1100
21
220
0
LINE
5
1EB
100
AcDbEntity
8
REFERENCE
6
ByLayer
62
256
370
-1
100
AcDbLine
10
0
20
220
11
0
21
0
0
LINE
5
1EC
100
AcDbEntity
8
ALIGNMENT_POCKET
6
ByLayer
62
256
370
-1
100
AcDbLine
10
12
20
85
11
18
21
85
0
LINE
5
1ED
100
AcDbEntity
8
ALIGNMENT_POCKET
6
ByLayer
62
256
370
-1
100
AcDbLine
10
18
20
85
11
18
21
135
0
LINE
5
1EE
100
AcDbEntity
8
ALIGNMENT_POCKET
6
ByLayer
62
256
370
-1
100
AcDbLine
10
18
20
135
11
12
21
135
0
LINE
5
1EF
100
AcDbEntity
8
ALIGNMENT_POCKET
6
ByLayer
62
256
370
-1
100
AcDbLine
10
12
20
135
11
12
21
85
0
LINE
5
1F0
100
AcDbEntity
8
ALIGNMENT_POCKET
6
ByLayer
62
256
370
-1
100
AcDbLine
10
1082
20
85
11
1088
21
85
0
LINE
5
1F1
100
AcDbEntity
8
ALIGNMENT_POCKET
6
ByLayer
62
256
370
-1
100
AcDbLine
10
1088
20
85
11
1088
21
135
0
LINE
5
1F2
100
AcDbEntity
8
ALIGNMENT_POCKET
6
ByLayer
62
256
370
-1
100
AcDbLine
10
1088
20
135
11
1082
21
135
0
LINE
5
1F3
100
AcDbEntity
8
ALIGNMENT_POCKET
6
ByLayer
62
256
370
-1
100
AcDbLine
10
1082
20
135
11
1082
21
85
0
LINE
5
1F4
100
AcDbEntity
8
ALIGNMENT_POCKET
6
ByLayer
62
256
370
-1
100
AcDbLine
10
300
20
202
11
300
21
208
0
LINE
5
1F5
100
AcDbEntity
8
ALIGNMENT_POCKET
6
ByLayer
62
256
370
-1
100
AcDbLine
10
300
20
208
11
250
21
208
0
LINE
5
1F6
100
AcDbEntity
8
ALIGNMENT_POCKET
6
ByLayer
62
256
370
-1
100
AcDbLine
10
250
20
208
11
250
21
202
0
LINE
5
1F7
100
AcDbEntity
8
ALIGNMENT_POCKET
6
ByLayer
62
256
370
-1
100
AcDbLine
10
250
20
202
11
300
21
202
0
LINE
5
1F8
100
AcDbEntity
8
ALIGNMENT_POCKET
6
ByLayer
62
256
370
-1
100
AcDbLine
10
850
20
202
11
850
21
208
0
LINE
5
1F9
100
AcDbEntity
8
ALIGNMENT_POCKET
6
ByLayer
62
256
370
-1
100
AcDbLine
10
850
20
208
11
800
21
208
0
LINE
5
1FA
100
AcDbEntity
8
ALIGNMENT_POCKET
6
ByLayer
62
256
370
-1
100
AcDbLine
10
800
20
208
11
800
21
202
0
LINE
5
1FB
100
AcDbEntity
8
ALIGNMENT_POCKET
6
ByLayer
62
256
370
-1
100
AcDbLine
10
800
20
202
11
850
21
202
0
LINE
5
1FC
100
AcDbEntity
8
ALIGNMENT_POCKET
6
ByLayer
62
256
370
-1
100
AcDbLine
10
300
20
12
11
300
21
18
0
LINE
5
1FD
100
AcDbEntity
8
ALIGNMENT_POCKET
6
ByLayer
62
256
370
-1
100
AcDbLine
10
300
20
18
11
250
21
18
0
LINE
5
1FE
100
AcDbEntity
8
ALIGNMENT_POCKET
6
ByLayer
62
256
370
-1
100
AcDbLine
10
250
20
18
11
250
21
12
0
LINE
5
1FF
100
AcDbEntity
8
ALIGNMENT_POCKET
6
ByLayer
62
256
370
-1
100
AcDbLine
10
250
20
12
11
300
21
12
0
LINE
5
200
100
AcDbEntity
8
ALIGNMENT_POCKET
6
ByLayer
62
256
370
-1
100
AcDbLine
10
850
20
12
11
850
21
18
0
LINE
5
201
100
AcDbEntity
8
ALIGNMENT_POCKET
6
ByLayer
62
256
370
-1
100
AcDbLine
10
850
20
18
11
800
21
18
0
LINE
5
202
100
AcDbEntity
8
ALIGNMENT_POCKET
6
ByLayer
62
256
370
-1
100
AcDbLine
10
800
20
18
11
800
21
12
0
LINE
5
203
100
AcDbEntity
8
ALIGNMENT_POCKET
6
ByLayer
62
256
370
-1
100
AcDbLine
10
800
20
12
11
850
21
12
0
CIRCLE
5
204
100
AcDbEntity
8
6-32_TAP_HOLE
6
ByLayer
62
256
370
-1
100
AcDbCircle
10
53
20
125.875
40
1.35255
0
CIRCLE
5
205
100
AcDbEntity
8
6-32_TAP_HOLE
6
ByLayer
62
256
370
-1
100
AcDbCircle
10
53
20
94.125
40
1.35255
0
CIRCLE
5
206
100
AcDbEntity
8
6-32_TAP_HOLE
6
ByLayer
62
256
370
-1
100
AcDbCircle
10
1047
20
125.875
40
1.35255
0
CIRCLE
5
207
100
AcDbEntity
8
6-32_TAP_HOLE
6
ByLayer
62
256
370
-1
100
AcDbCircle
10
1047
20
94.125
40
1.35255
0
CIRCLE
5
208
100
AcDbEntity
8
6-32_TAP_HOLE
6
ByLayer
62
256
370
-1
100
AcDbCircle
10
259.125
20
167
40
1.35255
0
CIRCLE
5
209
100
AcDbEntity
8
6-32_TAP_HOLE
6
ByLayer
62
256
370
-1
100
AcDbCircle
10
290.875
20
167
40
1.35255
0
CIRCLE
5
20A
100
AcDbEntity
8
6-32_TAP_HOLE
6
ByLayer
62
256
370
-1
100
AcDbCircle
10
809.125
20
167
40
1.35255
0
CIRCLE
5
20B
100
AcDbEntity
8
6-32_TAP_HOLE
6
ByLayer
62
256
370
-1
100
AcDbCircle
10
840.875
20
167
40
1.35255
0
CIRCLE
5
20C
100
AcDbEntity
8
6-32_TAP_HOLE
6
ByLayer
62
256
370
-1
100
AcDbCircle
10
259.125
20
53
40
1.35255
0
CIRCLE
5
20D
100
AcDbEntity
8
6-32_TAP_HOLE
6
ByLayer
62
256
370
-1
100
AcDbCircle
10
290.875
20
53
40
1.35255
0
CIRCLE
5
20E
100
AcDbEntity
8
6-32_TAP_HOLE
6
ByLayer
62
256
370
-1
100
AcDbCircle
10
809.125
20
53
40
1.35255
0
CIRCLE
5
20F
100
AcDbEntity
8
6-32_TAP_HOLE
6
ByLayer
62
256
370
-1
100
AcDbCircle
10
840.875
20
53
40
1.35255
0
LINE
5
210
100
AcDbEntity
8
OUTER_BOUNDARY
6
ByLayer
62
256
370
-1
100
AcDbLine
10
57.25
20
191
11
107.25
21
191
0
LINE
5
211
100
AcDbEntity
8
OUTER_BOUNDARY
6
ByLayer
62
256
370
-1
100
AcDbLine
10
992.75
20
191
11
1042.75
21
191
0
ARC
5
212
100
AcDbEntity
8
OUTER_BOUNDARY
6
ByLayer
62
256
370
-1
100
AcDbCircle
10
1.5875
20
218.4125
40
1.5875
100
AcDbArc
50
90
51
180
0
LINE
5
213
100
AcDbEntity
8
OUTER_BOUNDARY
6
ByLayer
62
256
370
-1
100
AcDbLine
10
57.25
20
191
11
57.25
21
218.4125
0
LINE
5
214
100
AcDbEntity
8
OUTER_BOUNDARY
6
ByLayer
62
256
370
-1
100
AcDbLine
10
1.5875
20
220
11
55.6625
21
220
0
ARC
5
215
100
AcDbEntity
8
OUTER_BOUNDARY
6
ByLayer
62
256
370
-1
100
AcDbCircle
10
55.6625
20
218.4125
40
1.5875
100
AcDbArc
50
0
51
90
0
LINE
5
216
100
AcDbEntity
8
OUTER_BOUNDARY
6
ByLayer
62
256
370
-1
100
AcDbLine
10
107.25
20
191
11
107.25
21
218.4125
0
ARC
5
217
100
AcDbEntity
8
OUTER_BOUNDARY
6
ByLayer
62
256
370
-1
100
AcDbCircle
10
108.8375
20
218.4125
40
1.5875
100
AcDbArc
50
90
51
180
0
LINE
5
218
100
AcDbEntity
8
OUTER_BOUNDARY
6
ByLayer
62
256
370
-1
100
AcDbLine
10
108.8375
20
220
11
991.1625
21
220
0
LINE
5
219
100
AcDbEntity
8
OUTER_BOUNDARY
6
ByLayer
62
256
370
-1
100
AcDbLine
10
992.75
20
191
11
992.75
21
218.4125
0
ARC
5
21A
100
AcDbEntity
8
OUTER_BOUNDARY
6
ByLayer
62
256
370
-1
100
AcDbCircle
10
991.1625
20
218.4125
40
1.5875
100
AcDbArc
50
0
51
90
0
LINE
5
21B
100
AcDbEntity
8
OUTER_BOUNDARY
6
ByLayer
62
256
370
-1
100
AcDbLine
10
1042.75
20
191
11
1042.75
21
218.4125
0
ARC
5
21C
100
AcDbEntity
8
OUTER_BOUNDARY
6
ByLayer
62
256
370
-1
100
AcDbCircle
10
1044.3375
20
218.4125
40
1.5875
100
AcDbArc
50
90
51
180
0
LINE
5
21D
100
AcDbEntity
8
OUTER_BOUNDARY
6
ByLayer
62
256
370
-1
100
AcDbLine
10
1044.3375
20
220
11
1098.4125
21
220
0
ARC
5
21E
100
AcDbEntity
8
OUTER_BOUNDARY
6
ByLayer
62
256
370
-1
100
AcDbCircle
10
1098.4125
20
218.4125
40
1.5875
100
AcDbArc
50
0
51
90
0
LINE
5
21F
100
AcDbEntity
8
OUTER_BOUNDARY
6
ByLayer
62
256
370
-1
100
AcDbLine
10
1100
20
218.4125
11
1100
21
-4.7625
0
ARC
5
220
100
AcDbEntity
8
OUTER_BOUNDARY
6
ByLayer
62
256
370
-1
100
AcDbCircle
10
1098.4125
20
-4.7625
40
1.5875
100
AcDbArc
50
270
51
3.81666561776e-13
0
LINE
5
221
100
AcDbEntity
8
OUTER_BOUNDARY
6
ByLayer
62
256
370
-1
100
AcDbLine
10
0
20
-4.7625
11
0
21
218.4125
0
LINE
5
222
100
AcDbEntity
8
OUTER_BOUNDARY
6
ByLayer
62
256
370
-1
100
AcDbLine
10
1098.4125
20
-6.35
11
1.5875
21
-6.35
0
ARC
5
223
100
AcDbEntity
8
OUTER_BOUNDARY
6
ByLayer
62
256
370
-1
100
AcDbCircle
10
1.5875
20
-4.7625
40
1.5875
100
AcDbArc
50
180
51
270
0
DIMENSION
5
224
100
AcDbEntity
8
DIMENSION
6
ByLayer
62
256
370
-1
100
AcDbDimension
2
*D1
10
75.78125
20
94.125
30
0
11
69.75625
21
110
31
0
70
32
71
5
3
Standard
53
0
210
0
220
0
230
1
100
AcDbAlignedDimension
13
53
23
125.875
33
0
14
53
24
94.125
34
0
50
90
100
AcDbRotatedDimension
0
DIMENSION
5
225
100
AcDbEntity
8
DIMENSION
6
ByLayer
62
256
370
-1
100
AcDbDimension
2
*D2
10
290.875
20
143.125
30
0
11
275
21
149.15
31
0
70
32
71
5
3
Standard
53
0
210
0
220
0
230
1
100
AcDbAlignedDimension
13
259.125
23
167
33
0
14
290.875
24
167
34
0
100
AcDbRotatedDimension
0
DIMENSION
5
226
100
AcDbEntity
8
DIMENSION
6
ByLayer
62
256
370
-1
100
AcDbDimension
2
*D3
10
290.875
20
70.3125
30
0
11
275
21
76.3375
31
0
70
32
71
5
3
Standard
53
0
210
0
220
0
230
1
100
AcDbAlignedDimension
13
259.125
23
53
33
0
14
290.875
24
53
34
0
100
AcDbRotatedDimension
0
DIMENSION
5
227
100
AcDbEntity
8
DIMENSION
6
ByLayer
62
256
370
-1
100
AcDbDimension
2
*D4
10
840.875
20
150
30
0
11
825
21
156.025
31
0
70
32
71
5
3
Standard
53
0
210
0
220
0
230
1
100
AcDbAlignedDimension
13
809.125
23
167
33
0
14
840.875
24
167
34
0
100
AcDbRotatedDimension
0
DIMENSION
5
228
100
AcDbEntity
8
DIMENSION
6
ByLayer
62
256
370
-1
100
AcDbDimension
2
*D5
10
840.875
20
74.0625
30
0
11
825
21
80.0875
31
0
70
32
71
5
3
Standard
53
0
210
0
220
0
230
1
100
AcDbAlignedDimension
13
809.125
23
53
33
0
14
840.875
24
53
34
0
100
AcDbRotatedDimension
0
DIMENSION
5
229
100
AcDbEntity
8
DIMENSION
6
ByLayer
62
256
370
-1
100
AcDbDimension
2
*D6
10
1016.796875
20
94.125
30
0
11
1010.771875
21
110
31
0
70
32
71
5
3
Standard
53
0
210
0
220
0
230
1
100
AcDbAlignedDimension
13
1047
23
125.875
33
0
14
1047
24
94.125
34
0
50
90
100
AcDbRotatedDimension
0
DIMENSION
5
22A
100
AcDbEntity
8
DIMENSION
6
ByLayer
62
256
370
-1
100
AcDbDimension
2
*D7
10
1070.3125
20
85
30
0
11
1064.2875
21
110
31
0
70
32
71
5
3
Standard
53
0
210
0
220
0
230
1
100
AcDbAlignedDimension
13
1082
23
135
33
0
14
1082
24
85
34
0
50
90
100
AcDbRotatedDimension
0
DIMENSION
5
22B
100
AcDbEntity
8
DIMENSION
6
ByLayer
62
256
370
-1
100
AcDbDimension
2
*D8
10
850
20
182.03125
30
0
11
825
21
188.05625
31
0
70
32
71
5
3
Standard
53
0
210
0
220
0
230
1
100
AcDbAlignedDimension
13
800
23
202
33
0
14
850
24
202
34
0
100
AcDbRotatedDimension
0
DIMENSION
5
22C
100
AcDbEntity
8
DIMENSION
6
ByLayer
62
256
370
-1
100
AcDbDimension
2
*D9
10
850
20
33.984375
30
0
11
825
21
40.009375
31
0
70
32
71
5
3
Standard
53
0
210
0
220
0
230
1
100
AcDbAlignedDimension
13
800
23
18
33
0
14
850
24
18
34
0
100
AcDbRotatedDimension
0
DIMENSION
5
22D
100
AcDbEntity
8
DIMENSION
6
ByLayer
62
256
370
-1
100
AcDbDimension
2
*D10
10
300
20
181.75
30
0
11
275
21
187.775
31
0
70
32
71
5
3
Standard
53
0
210
0
220
0
230
1
100
AcDbAlignedDimension
13
250
23
202
33
0
14
300
24
202
34
0
100
AcDbRotatedDimension
0
DIMENSION
5
22E
100
AcDbEntity
8
DIMENSION
6
ByLayer
62
256
370
-1
100
AcDbDimension
2
*D11
10
300
20
29.375
30
0
11
275
21
35.4
31
0
70
32
71
5
3
Standard
53
0
210
0
220
0
230
1
100
AcDbAlignedDimension
13
250
23
18
33
0
14
300
24
18
34
0
100
AcDbRotatedDimension
0
DIMENSION
5
22F
100
AcDbEntity
8
DIMENSION
6
ByLayer
62
256
370
-1
100
AcDbDimension
2
*D12
10
37.8125
20
85
30
0
11
31.7875
21
110
31
0
70
32
71
5
3
Standard
53
0
210
0
220
0
230
1
100
AcDbAlignedDimension
13
18
23
135
33
0
14
18
24
85
34
0
50
90
100
AcDbRotatedDimension
0
DIMENSION
5
230
100
AcDbEntity
8
DIMENSION
6
ByLayer
62
256
370
-1
100
AcDbDimension
2
*D13
10
18
20
63.75
30
0
11
15
21
69.775
31
0
70
32
71
5
3
Standard
53
0
210
0
220
0
230
1
100
AcDbAlignedDimension
13
12
23
85
33
0
14
18
24
85
34
0
100
AcDbRotatedDimension
0
DIMENSION
5
231
100
AcDbEntity
8
DIMENSION
6
ByLayer
62
256
370
-1
100
AcDbDimension
2
*D14
10
327.8125
20
202
30
0
11
321.7875
21
205
31
0
70
32
71
5
3
Standard
53
0
210
0
220
0
230
1
100
AcDbAlignedDimension
13
300
23
208
33
0
14
300
24
202
34
0
50
90
100
AcDbRotatedDimension
0
DIMENSION
5
232
100
AcDbEntity
8
DIMENSION
6
ByLayer
62
256
370
-1
100
AcDbDimension
2
*D15
10
329.296875
20
12
30
0
11
323.271875
21
15
31
0
70
32
71
5
3
Standard
53
0
210
0
220
0
230
1
100
AcDbAlignedDimension
13
300
23
18
33
0
14
300
24
12
34
0
50
90
100
AcDbRotatedDimension
0
DIMENSION
5
233
100
AcDbEntity
8
DIMENSION
6
ByLayer
62
256
370
-1
100
AcDbDimension
2
*D16
10
771.484375
20
12
30
0
11
765.459375
21
15
31
0
70
32
71
5
3
Standard
53
0
210
0
220
0
230
1
100
AcDbAlignedDimension
13
800
23
18
33
0
14
800
24
12
34
0
50
90
100
AcDbRotatedDimension
0
DIMENSION
5
234
100
AcDbEntity
8
DIMENSION
6
ByLayer
62
256
370
-1
100
AcDbDimension
2
*D17
10
762.8
20
202
30
0
11
756.775
21
205
31
0
70
32
71
5
3
Standard
53
0
210
0
220
0
230
1
100
AcDbAlignedDimension
13
800
23
208
33
0
14
800
24
202
34
0
50
90
100
AcDbRotatedDimension
0
DIMENSION
5
235
100
AcDbEntity
8
DIMENSION
6
ByLayer
62
256
370
-1
100
AcDbDimension
2
*D18
10
1088
20
148.4375
30
0
11
1085
21
154.4625
31
0
70
32
71
5
3
Standard
53
0
210
0
220
0
230
1
100
AcDbAlignedDimension
13
1082
23
135
33
0
14
1088
24
135
34
0
100
AcDbRotatedDimension
0
DIMENSION
5
236
100
AcDbEntity
8
DIMENSION
6
ByLayer
62
256
370
-1
100
AcDbDimension
2
*D19
10
221.09375
20
220
30
0
11
215.06875
21
212.5
31
0
70
32
71
5
3
Standard
53
0
210
0
220
0
230
1
100
AcDbAlignedDimension
13
250
23
205
33
0
14
108.8375
24
220
34
0
50
90
100
AcDbRotatedDimension
0
DIMENSION
5
237
100
AcDbEntity
8
DIMENSION
6
ByLayer
62
256
370
-1
100
AcDbDimension
2
*D20
10
183.36
20
220
30
0
11
177.335
21
193.5
31
0
70
32
71
5
3
Standard
53
0
210
0
220
0
230
1
100
AcDbAlignedDimension
13
259.125
23
167
33
0
14
108.8375
24
220
34
0
50
90
100
AcDbRotatedDimension
0
DIMENSION
5
238
100
AcDbEntity
8
DIMENSION
6
ByLayer
62
256
370
-1
100
AcDbDimension
2
*D21
10
891.8
20
220
30
0
11
885.775
21
212.5
31
0
70
32
71
5
3
Standard
53
0
210
0
220
0
230
1
100
AcDbAlignedDimension
13
850
23
205
33
0
14
991.1625
24
220
34
0
50
90
100
AcDbRotatedDimension
0
DIMENSION
5
239
100
AcDbEntity
8
DIMENSION
6
ByLayer
62
256
370
-1
100
AcDbDimension
2
*D22
10
920.625
20
220
30
0
11
914.6
21
193.5
31
0
70
32
71
5
3
Standard
53
0
210
0
220
0
230
1
100
AcDbAlignedDimension
13
840.875
23
167
33
0
14
991.1625
24
220
34
0
50
90
100
AcDbRotatedDimension
0
DIMENSION
5
23A
100
AcDbEntity
8
DIMENSION
6
ByLayer
62
256
370
-1
100
AcDbDimension
2
*D23
10
222.015380859
20
-2.71890425531e-14
30
0
11
215.990380859
21
7.5
31
0
70
32
71
5
3
Standard
53
0
210
0
220
0
230
1
100
AcDbAlignedDimension
13
250
23
15
33
0
14
0
24
0
34
0
50
90
100
AcDbRotatedDimension
0
DIMENSION
5
23B
100
AcDbEntity
8
DIMENSION
6
ByLayer
62
256
370
-1
100
AcDbDimension
2
*D24
10
179.6875
20
-2.20053721722e-14
30
0
11
173.6625
21
26.5
31
0
70
32
71
5
3
Standard
53
0
210
0
220
0
230
1
100
AcDbAlignedDimension
13
259.125
23
53
33
0
14
0
24
0
34
0
50
90
100
AcDbRotatedDimension
0
DIMENSION
5
23C
100
AcDbEntity
8
DIMENSION
6
ByLayer
62
256
370
-1
100
AcDbDimension
2
*D25
10
906.372070313
20
2.37125824317e-14
30
0
11
900.347070313
21
7.5
31
0
70
32
71
5
3
Standard
53
0
210
0
220
0
230
1
100
AcDbAlignedDimension
13
850
23
15
33
0
14
1100
24
0
34
0
50
90
100
AcDbRotatedDimension
0
DIMENSION
5
23D
100
AcDbEntity
8
DIMENSION
6
ByLayer
62
256
370
-1
100
AcDbDimension
2
*D26
10
942.993164063
20
1.92277919075e-14
30
0
11
936.968164063
21
26.5
31
0
70
32
71
5
3
Standard
53
0
210
0
220
0
230
1
100
AcDbAlignedDimension
13
840.875
23
53
33
0
14
1100
24
0
34
0
50
90
100
AcDbRotatedDimension
0
DIMENSION
5
23E
100
AcDbEntity
8
DIMENSION
6
ByLayer
62
256
370
-1
100
AcDbDimension
2
*D27
10
-3.91917508682e-15
20
150.78125
30
0
11
7.5
21
156.80625
31
0
70
32
71
5
3
Standard
53
0
210
0
220
0
230
1
100
AcDbAlignedDimension
13
15
23
135
33
0
14
2.22044604925e-16
24
218.4125
34
0
100
AcDbRotatedDimension
0
DIMENSION
5
23F
100
AcDbEntity
8
DIMENSION
6
ByLayer
62
256
370
-1
100
AcDbDimension
2
*D28
10
-2.31373967356e-15
20
177
30
0
11
26.5
21
183.025
31
0
70
32
71
5
3
Standard
53
0
210
0
220
0
230
1
100
AcDbAlignedDimension
13
53
23
125.875
33
0
14
2.22044604925e-16
24
218.4125
34
0
100
AcDbRotatedDimension
0
DIMENSION
5
240
100
AcDbEntity
8
DIMENSION
6
ByLayer
62
256
370
-1
100
AcDbDimension
2
*D29
10
1100
20
56
30
0
11
1092.5
21
62.025
31
0
70
32
71
5
3
Standard
53
0
210
0
220
0
230
1
100
AcDbAlignedDimension
13
1085
23
85
33
0
14
1100
24
0
34
0
100
AcDbRotatedDimension
0
DIMENSION
5
241
100
AcDbEntity
8
DIMENSION
6
ByLayer
62
256
370
-1
100
AcDbDimension
2
*D30
10
1100
20
28.75
30
0
11
1073.5
21
34.775
31
0
70
32
71
5
3
Standard
53
0
210
0
220
0
230
1
100
AcDbAlignedDimension
13
1047
23
94.125
33
0
14
1100
24
0
34
0
100
AcDbRotatedDimension
0
DIMENSION
5
242
100
AcDbEntity
8
DIMENSION
6
ByLayer
62
256
370
-1
100
AcDbDimension
2
*D31
10
1149.0625
20
-6.00842335833e-15
30
0
11
1143.0375
21
55
31
0
70
32
71
5
3
Standard
53
0
210
0
220
0
230
1
100
AcDbAlignedDimension
13
1088
23
110
33
0
14
1100
24
0
34
0
50
90
100
AcDbRotatedDimension
0
DIMENSION
5
243
100
AcDbEntity
8
DIMENSION
6
ByLayer
62
256
370
-1
100
AcDbDimension
2
*D32
10
1203.61328125
20
-1.26889673232e-14
30
0
11
1197.58828125
21
110
31
0
70
32
71
5
3
Standard
53
0
210
0
220
0
230
1
100
AcDbAlignedDimension
13
1098.4125
23
220
33
0
14
1100
24
0
34
0
50
90
100
AcDbRotatedDimension
0
DIMENSION
5
244
100
AcDbEntity
8
DIMENSION
6
ByLayer
62
256
370
-1
100
AcDbDimension
2
*D33
10
1100
20
-52.4520874023
30
0
11
550
21
-46.4270874023
31
0
70
32
71
5
3
Standard
53
0
210
0
220
0
230
1
100
AcDbAlignedDimension
13
0
23
0
33
0
14
1100
24
0
34
0
100
AcDbRotatedDimension
0
DIMENSION
5
245
100
AcDbEntity
8
DIMENSION
6
ByLayer
62
256
370
-1
100
AcDbDimension
2
*D34
10
-16.512
20
-6.35
30
0
11
-22.537
21
-3.175
31
0
70
32
71
5
3
Standard
53
0
210
0
220
0
230
1
100
AcDbAlignedDimension
13
0
23
0
33
0
14
1.5875
24
-6.35
34
0
50
90
100
AcDbRotatedDimension
0
DIMENSION
5
246
100
AcDbEntity
8
DIMENSION
6
ByLayer
62
256
370
-1
100
AcDbDimension
2
*D35
10
-84.6385955811
20
220
30
0
11
-90.6635955811
21
106.825
31
0
70
32
71
5
3
Standard
53
0
210
0
220
0
230
1
100
AcDbAlignedDimension
13
1.5875
23
-6.35
33
0
14
1.5875
24
220
34
0
50
90
100
AcDbRotatedDimension
0
DIMENSION
5
247
100
AcDbEntity
8
DIMENSION
6
ByLayer
62
256
370
-1
100
AcDbDimension
2
*D36
10
107.25
20
177
30
0
11
82.25
21
183.025
31
0
70
32
71
5
3
Standard
53
0
210
0
220
0
230
1
100
AcDbAlignedDimension
13
57.25
23
191
33
0
14
107.25
24
191
34
0
100
AcDbRotatedDimension
0
DIMENSION
5
248
100
AcDbEntity
8
DIMENSION
6
ByLayer
62
256
370
-1
100
AcDbDimension
2
*D37
10
1042.75
20
174.6
30
0
11
1017.75
21
180.625
31
0
70
32
71
5
3
Standard
53
0
210
0
220
0
230
1
100
AcDbAlignedDimension
13
992.75
23
191
33
0
14
1042.75
24
191
34
0
100
AcDbRotatedDimension
0
DIMENSION
5
249
100
AcDbEntity
8
DIMENSION
6
ByLayer
62
256
370
-1
100
AcDbDimension
2
*D38
10
1.65411595568e-15
20
241.8
30
0
11
41.125
21
247.825
31
0
70
32
71
5
3
Standard
53
0
210
0
220
0
230
1
100
AcDbAlignedDimension
13
82.25
23
191
33
0
14
2.22044604925e-16
24
218.4125
34
0
100
AcDbRotatedDimension
0
DIMENSION
5
24A
100
AcDbEntity
8
DIMENSION
6
ByLayer
62
256
370
-1
100
AcDbDimension
2
*D39
10
1100
20
242
30
0
11
1058.875
21
248.025
31
0
70
32
71
5
3
Standard
53
0
210
0
220
0
230
1
100
AcDbAlignedDimension
13
1017.75
23
191
33
0
14
1100
24
218.4125
34
0
100
AcDbRotatedDimension
0
DIMENSION
5
24B
100
AcDbEntity
8
DIMENSION
6
ByLayer
62
256
370
-1
100
AcDbDimension
2
*D40
10
1067.4176
20
220
30
0
11
1061.3926
21
205.5
31
0
70
32
71
5
3
Standard
53
0
210
0
220
0
230
1
100
AcDbAlignedDimension
13
1042.75
23
191
33
0
14
1044.3375
24
220
34
0
50
90
100
AcDbRotatedDimension
0
DIMENSION
5
24C
100
AcDbEntity
8
DIMENSION
6
ByLayer
62
256
370
-1
100
AcDbDimension
2
*D41
10
131.2
20
191
30
0
11
125.175
21
205.5
31
0
70
32
71
5
3
Standard
53
0
210
0
220
0
230
1
100
AcDbAlignedDimension
13
108.8375
23
220
33
0
14
107.25
24
191
34
0
50
90
100
AcDbRotatedDimension
0
DIMENSION
5
24D
100
AcDbEntity
8
DIMENSION
6
ByLayer
62
256
370
-1
100
AcDbDimension
2
*D42
10
-45.92
20
5.62357810169e-15
30
0
11
-51.945
21
55
31
0
70
32
71
5
3
Standard
53
0
210
0
220
0
230
1
100
AcDbAlignedDimension
13
12
23
110
33
0
14
0
24
0
34
0
50
90
100
AcDbRotatedDimension
0
DIMENSION
5
24E
100
AcDbEntity
8
DIMENSION
6
ByLayer
62
256
370
-1
100
AcDbDimension
2
*D43
10
-2.10224555823e-15
20
-34.3322753906
30
0
11
137.5
21
-28.3072753906
31
0
70
32
71
5
3
Standard
53
0
210
0
220
0
230
1
100
AcDbAlignedDimension
13
275
23
12
33
0
14
0
24
0
34
0
100
AcDbRotatedDimension
0
DIMENSION
5
24F
100
AcDbEntity
8
DIMENSION
6
ByLayer
62
256
370
-1
100
AcDbDimension
2
*D44
10
1100
20
-33.203125
30
0
11
962.5
21
-27.178125
31
0
70
32
71
5
3
Standard
53
0
210
0
220
0
230
1
100
AcDbAlignedDimension
13
825
23
12
33
0
14
1100
24
0
34
0
100
AcDbRotatedDimension
0
DIMENSION
5
250
100
AcDbEntity
8
DIMENSION
6
ByLayer
62
256
370
-1
100
AcDbDimension
2
*D45
10
1100
20
270.3125
30
0
11
962.5
21
276.3375
31
0
70
32
71
5
3
Standard
53
0
210
0
220
0
230
1
100
AcDbAlignedDimension
13
825
23
208
33
0
14
1100
24
218.4125
34
0
100
AcDbRotatedDimension
0
DIMENSION
5
251
100
AcDbEntity
8
DIMENSION
6
ByLayer
62
256
370
-1
100
AcDbDimension
2
*D46
10
3.61806588723e-15
20
277.5
30
0
11
137.5
21
283.525
31
0
70
32
71
5
3
Standard
53
0
210
0
220
0
230
1
100
AcDbAlignedDimension
13
275
23
208
33
0
14
0
24
218.4125
34
0
100
AcDbRotatedDimension
0
ENDSEC
0
SECTION
2
OBJECTS
0
DICTIONARY
5
C
330
0
100
AcDbDictionary
281
1
3
ACAD_GROUP
350
D
0
DICTIONARY
5
D
330
C
100
AcDbDictionary
281
1
0
ENDSEC
0
EOF
