999
dxfrw 0.5.10
0
SECTION
2
HEADER
9
$ACADVER
1
AC1021
9
$HANDSEED
5
20000
9
$DWGCODEPAGE
3
ANSI_1252
9
$INSBASE
10
0
20
0
30
0
9
$EXTMIN
10
-63.29453125
20
-62.2703831542
30
0
9
$EXTMAX
10
1170.45519761
20
252.9625
30
0
9
$LIMMIN
10
0
20
0
9
$LIMMAX
10
420
20
297
9
$ORTHOMODE
70
0
9
$LTSCALE
40
1
9
$TEXTSTYLE
7
STANDARD
9
$CLAYER
8
DIMENSION
9
$DIMASZ
40
12
9
$DIMLFAC
40
1
9
$DIMSCALE
40
1
9
$DIMEXO
40
0.025
9
$DIMEXE
40
0.05
9
$DIMTXT
40
12
9
$DIMTSZ
40
0
9
$DIMAUNIT
70
0
9
$DIMADEC
70
2
9
$DIMLUNIT
70
2
9
$DIMSTYLE
2
STANDARD
9
$DIMGAP
40
0.025
9
$DIMTIH
70
0
9
$LUNITS
70
2
9
$LUPREC
70
4
9
$AUNITS
70
0
9
$AUPREC
70
2
9
$SPLINESEGS
70
8
9
$GRIDMODE
70
1
9
$SNAPSTYLE
70
0
9
$GRIDUNIT
10
0
20
0
9
$PINSBASE
10
0
20
0
30
0
9
$PLIMMIN
10
0
20
0
9
$PLIMMAX
10
0.012815
20
0.0181241
9
$INSUNITS
70
4
9
$PSVPSCALE
40
1
0
ENDSEC
0
SECTION
2
CLASSES
0
ENDSEC
0
SECTION
2
TABLES
0
TABLE
2
VPORT
5
8
330
0
100
AcDbSymbolTable
70
1
0
VPORT
5
31
330
2
100
AcDbSymbolTableRecord
100
AcDbViewportTableRecord
2
*ACTIVE
70
0
10
0
20
0
11
1
21
1
12
761.151313782
22
247.359275818
13
0
23
0
14
10
24
10
15
10
25
10
16
0
26
0
36
1
17
0
27
0
37
0
40
908.374786377
41
1.81102362205
42
50
43
0
44
0
50
0
51
0
71
0
72
100
73
1
74
3
75
0
76
1
77
0
78
0
281
0
65
1
110
0
120
0
130
0
111
1
121
0
131
0
112
0
122
1
132
0
79
0
146
0
348
10020
60
7
61
5
292
1
282
1
141
0
142
0
63
250
421
3358443
0
ENDTAB
0
TABLE
2
LTYPE
5
5
330
0
100
AcDbSymbolTable
70
4
0
LTYPE
5
14
330
5
100
AcDbSymbolTableRecord
100
AcDbLinetypeTableRecord
2
ByBlock
70
0
3

72
65
73
0
40
0
0
LTYPE
5
15
330
5
100
AcDbSymbolTableRecord
100
AcDbLinetypeTableRecord
2
ByLayer
70
0
3

72
65
73
0
40
0
0
LTYPE
5
16
330
5
100
AcDbSymbolTableRecord
100
AcDbLinetypeTableRecord
2
Continuous
70
0
3
Solid line
72
65
73
0
40
0
0
LTYPE
5
32
330
5
100
AcDbSymbolTableRecord
100
AcDbLinetypeTableRecord
2
DOT
70
0
3
Dot . . . . . . . . . . . . . . . . . . . . . .
72
65
73
2
40
6.35
49
0
74
0
49
-6.35
74
0
0
LTYPE
5
33
330
5
100
AcDbSymbolTableRecord
100
AcDbLinetypeTableRecord
2
DOT2
70
0
3
Dot (.5x) .....................................
72
65
73
2
40
3.175
49
0
74
0
49
-3.175
74
0
0
LTYPE
5
34
330
5
100
AcDbSymbolTableRecord
100
AcDbLinetypeTableRecord
2
DOTX2
70
0
3
Dot (2x) .  .  .  .  .  .  .  .  .  .  .  .  .
72
65
73
2
40
12.7
49
0
74
0
49
-12.7
74
0
0
LTYPE
5
35
330
5
100
AcDbSymbolTableRecord
100
AcDbLinetypeTableRecord
2
DASHED
70
0
3
Dot . . . . . . . . . . . . . . . . . . . . . .
72
65
73
2
40
19.05
49
12.7
74
0
49
-6.35
74
0
0
LTYPE
5
36
330
5
100
AcDbSymbolTableRecord
100
AcDbLinetypeTableRecord
2
DASHED2
70
0
3
Dashed (.5x) _ _ _ _ _ _ _ _ _ _ _ _ _ _ _ _ _
72
65
73
2
40
9.525
49
6.35
74
0
49
-3.175
74
0
0
LTYPE
5
37
330
5
100
AcDbSymbolTableRecord
100
AcDbLinetypeTableRecord
2
DASHEDX2
70
0
3
Dashed (2x) ____  ____  ____  ____  ____  ___
72
65
73
2
40
38.1
49
25.4
74
0
49
-12.7
74
0
0
LTYPE
5
38
330
5
100
AcDbSymbolTableRecord
100
AcDbLinetypeTableRecord
2
DASHDOT
70
0
3
Dash dot __ . __ . __ . __ . __ . __ . __ . __
72
65
73
4
40
25.4
49
12.7
74
0
49
-6.35
74
0
49
0
74
0
49
-6.35
74
0
0
LTYPE
5
39
330
5
100
AcDbSymbolTableRecord
100
AcDbLinetypeTableRecord
2
DASHDOT2
70
0
3
Dash dot (.5x) _._._._._._._._._._._._._._._.
72
65
73
4
40
12.7
49
6.35
74
0
49
-3.175
74
0
49
0
74
0
49
-3.175
74
0
0
LTYPE
5
3A
330
5
100
AcDbSymbolTableRecord
100
AcDbLinetypeTableRecord
2
DASHDOTX2
70
0
3
Dash dot (2x) ____  .  ____  .  ____  .  ___
72
65
73
4
40
50.8
49
25.4
74
0
49
-12.7
74
0
49
0
74
0
49
-12.7
74
0
0
LTYPE
5
3B
330
5
100
AcDbSymbolTableRecord
100
AcDbLinetypeTableRecord
2
DIVIDE
70
0
3
Divide ____ . . ____ . . ____ . . ____ . . ____
72
65
73
6
40
31.75
49
12.7
74
0
49
-6.35
74
0
49
0
74
0
49
-6.35
74
0
49
0
74
0
49
-6.35
74
0
0
LTYPE
5
3C
330
5
100
AcDbSymbolTableRecord
100
AcDbLinetypeTableRecord
2
DIVIDE2
70
0
3
Divide (.5x) __..__..__..__..__..__..__..__.._
72
65
73
6
40
15.875
49
6.35
74
0
49
-3.175
74
0
49
0
74
0
49
-3.175
74
0
49
0
74
0
49
-3.175
74
0
0
LTYPE
5
3D
330
5
100
AcDbSymbolTableRecord
100
AcDbLinetypeTableRecord
2
DIVIDEX2
70
0
3
Divide (2x) ________  .  .  ________  .  .  _
72
65
73
6
40
63.5
49
25.4
74
0
49
-12.7
74
0
49
0
74
0
49
-12.7
74
0
49
0
74
0
49
-12.7
74
0
0
LTYPE
5
3E
330
5
100
AcDbSymbolTableRecord
100
AcDbLinetypeTableRecord
2
BORDER
70
0
3
Border __ __ . __ __ . __ __ . __ __ . __ __ .
72
65
73
6
40
44.45
49
12.7
74
0
49
-6.35
74
0
49
12.7
74
0
49
-6.35
74
0
49
0
74
0
49
-6.35
74
0
0
LTYPE
5
3F
330
5
100
AcDbSymbolTableRecord
100
AcDbLinetypeTableRecord
2
BORDER2
70
0
3
Border (.5x) __.__.__.__.__.__.__.__.__.__.__.
72
65
73
6
40
22.225
49
6.35
74
0
49
-3.175
74
0
49
6.35
74
0
49
-3.175
74
0
49
0
74
0
49
-3.175
74
0
0
LTYPE
5
40
330
5
100
AcDbSymbolTableRecord
100
AcDbLinetypeTableRecord
2
BORDERX2
70
0
3
Border (2x) ____  ____  .  ____  ____  .  ___
72
65
73
6
40
88.9
49
25.4
74
0
49
-12.7
74
0
49
25.4
74
0
49
-12.7
74
0
49
0
74
0
49
-12.7
74
0
0
LTYPE
5
41
330
5
100
AcDbSymbolTableRecord
100
AcDbLinetypeTableRecord
2
CENTER
70
0
3
Center ____ _ ____ _ ____ _ ____ _ ____ _ ____
72
65
73
4
40
50.8
49
31.75
74
0
49
-6.35
74
0
49
6.35
74
0
49
-6.35
74
0
0
LTYPE
5
42
330
5
100
AcDbSymbolTableRecord
100
AcDbLinetypeTableRecord
2
CENTER2
70
0
3
Center (.5x) ___ _ ___ _ ___ _ ___ _ ___ _ ___
72
65
73
4
40
28.575
49
19.05
74
0
49
-3.175
74
0
49
3.175
74
0
49
-3.175
74
0
0
LTYPE
5
43
330
5
100
AcDbSymbolTableRecord
100
AcDbLinetypeTableRecord
2
CENTERX2
70
0
3
Center (2x) ________  __  ________  __  _____
72
65
73
4
40
101.6
49
63.5
74
0
49
-12.7
74
0
49
12.7
74
0
49
-12.7
74
0
0
ENDTAB
0
TABLE
2
LAYER
5
2
330
0
100
AcDbSymbolTable
70
1
0
LAYER
5
10
330
2
100
AcDbSymbolTableRecord
100
AcDbLayerTableRecord
2
0
70
0
62
7
6
CONTINUOUS
370
0
390
F
0
LAYER
5
44
330
2
100
AcDbSymbolTableRecord
100
AcDbLayerTableRecord
2
REFERENCE
70
0
62
253
420
10526884
6
CONTINUOUS
370
0
390
F
0
LAYER
5
45
330
2
100
AcDbSymbolTableRecord
100
AcDbLayerTableRecord
2
DIMENSION
70
0
62
7
6
CONTINUOUS
370
0
390
F
0
LAYER
5
46
330
2
100
AcDbSymbolTableRecord
100
AcDbLayerTableRecord
2
OUTER_BOUNDARY
70
0
62
5
6
CONTINUOUS
370
0
390
F
0
LAYER
5
47
330
2
100
AcDbSymbolTableRecord
100
AcDbLayerTableRecord
2
6-32_TAP_HOLE
70
0
62
2
6
CONTINUOUS
370
0
390
F
0
LAYER
5
48
330
2
100
AcDbSymbolTableRecord
100
AcDbLayerTableRecord
2
ALIGNMENT_POCKET
70
0
62
6
6
CONTINUOUS
370
0
390
F
0
ENDTAB
0
TABLE
2
STYLE
5
3
330
0
100
AcDbSymbolTable
70
3
0
STYLE
5
49
330
2
100
AcDbSymbolTableRecord
100
AcDbTextStyleTableRecord
2
Standard
70
0
40
0
41
1
50
0
71
0
42
1
3
txt
4

0
ENDTAB
0
TABLE
2
VIEW
5
6
330
0
100
AcDbSymbolTable
70
0
0
ENDTAB
0
TABLE
2
UCS
5
7
330
0
100
AcDbSymbolTable
70
0
0
ENDTAB
0
TABLE
2
APPID
5
9
330
0
100
AcDbSymbolTable
70
1
0
APPID
5
12
330
9
100
AcDbSymbolTableRecord
100
AcDbRegAppTableRecord
2
ACAD
70
0
0
ENDTAB
0
TABLE
2
DIMSTYLE
5
A
330
0
100
AcDbSymbolTable
70
1
100
AcDbDimStyleTable
71
1
0
DIMSTYLE
105
4A
330
A
100
AcDbSymbolTableRecord
100
AcDbDimStyleTableRecord
2
Standard
70
0
40
1
41
12
42
0.025
43
0.38
44
0.05
45
0
46
0
47
0
48
0
140
12
141
0.09
142
0
143
25.4
144
1
145
0
146
1
147
0.025
148
0
71
0
72
0
73
0
74
1
75
0
76
0
77
0
78
0
79
0
170
0
171
2
172
0
173
0
174
0
175
0
176
0
177
0
178
0
179
0
271
4
272
4
273
2
274
2
275
0
276
0
277
2
278
46
279
0
280
0
281
0
282
0
283
1
284
0
285
0
286
0
288
0
289
3
340
Standard
341

371
-2
372
-2
0
ENDTAB
0
TABLE
2
BLOCK_RECORD
5
1
330
0
100
AcDbSymbolTable
70
2
0
BLOCK_RECORD
5
1F
330
1
100
AcDbSymbolTableRecord
100
AcDbBlockTableRecord
2
*Model_Space
70
0
280
1
281
0
0
BLOCK_RECORD
5
1E
330
1
100
AcDbSymbolTableRecord
100
AcDbBlockTableRecord
2
*Paper_Space
70
0
280
1
281
0
0
BLOCK_RECORD
5
4B
330
1
100
AcDbSymbolTableRecord
100
AcDbBlockTableRecord
2
*D27
70
0
280
1
281
0
0
BLOCK_RECORD
5
4E
330
1
100
AcDbSymbolTableRecord
100
AcDbBlockTableRecord
2
*D20
70
0
280
1
281
0
0
BLOCK_RECORD
5
51
330
1
100
AcDbSymbolTableRecord
100
AcDbBlockTableRecord
2
*D1
70
0
280
1
281
0
0
BLOCK_RECORD
5
54
330
1
100
AcDbSymbolTableRecord
100
AcDbBlockTableRecord
2
*D11
70
0
280
1
281
0
0
BLOCK_RECORD
5
57
330
1
100
AcDbSymbolTableRecord
100
AcDbBlockTableRecord
2
*D17
70
0
280
1
281
0
0
BLOCK_RECORD
5
5A
330
1
100
AcDbSymbolTableRecord
100
AcDbBlockTableRecord
2
*D24
70
0
280
1
281
0
0
BLOCK_RECORD
5
5D
330
1
100
AcDbSymbolTableRecord
100
AcDbBlockTableRecord
2
*D18
70
0
280
1
281
0
0
BLOCK_RECORD
5
60
330
1
100
AcDbSymbolTableRecord
100
AcDbBlockTableRecord
2
*D3
70
0
280
1
281
0
0
BLOCK_RECORD
5
63
330
1
100
AcDbSymbolTableRecord
100
AcDbBlockTableRecord
2
*D23
70
0
280
1
281
0
0
BLOCK_RECORD
5
66
330
1
100
AcDbSymbolTableRecord
100
AcDbBlockTableRecord
2
*D22
70
0
280
1
281
0
0
BLOCK_RECORD
5
69
330
1
100
AcDbSymbolTableRecord
100
AcDbBlockTableRecord
2
*D36
70
0
280
1
281
0
0
BLOCK_RECORD
5
6C
330
1
100
AcDbSymbolTableRecord
100
AcDbBlockTableRecord
2
*D35
70
0
280
1
281
0
0
BLOCK_RECORD
5
6F
330
1
100
AcDbSymbolTableRecord
100
AcDbBlockTableRecord
2
*D7
70
0
280
1
281
0
0
BLOCK_RECORD
5
72
330
1
100
AcDbSymbolTableRecord
100
AcDbBlockTableRecord
2
*D38
70
0
280
1
281
0
0
BLOCK_RECORD
5
75
330
1
100
AcDbSymbolTableRecord
100
AcDbBlockTableRecord
2
*D15
70
0
280
1
281
0
0
BLOCK_RECORD
5
78
330
1
100
AcDbSymbolTableRecord
100
AcDbBlockTableRecord
2
*D26
70
0
280
1
281
0
0
BLOCK_RECORD
5
7B
330
1
100
AcDbSymbolTableRecord
100
AcDbBlockTableRecord
2
*D32
70
0
280
1
281
0
0
BLOCK_RECORD
5
7E
330
1
100
AcDbSymbolTableRecord
100
AcDbBlockTableRecord
2
*D42
70
0
280
1
281
0
0
BLOCK_RECORD
5
81
330
1
100
AcDbSymbolTableRecord
100
AcDbBlockTableRecord
2
*D10
70
0
280
1
281
0
0
BLOCK_RECORD
5
84
330
1
100
AcDbSymbolTableRecord
100
AcDbBlockTableRecord
2
*D34
70
0
280
1
281
0
0
BLOCK_RECORD
5
87
330
1
100
AcDbSymbolTableRecord
100
AcDbBlockTableRecord
2
*D19
70
0
280
1
281
0
0
BLOCK_RECORD
5
8A
330
1
100
AcDbSymbolTableRecord
100
AcDbBlockTableRecord
2
*D25
70
0
280
1
281
0
0
BLOCK_RECORD
5
8D
330
1
100
AcDbSymbolTableRecord
100
AcDbBlockTableRecord
2
*D21
70
0
280
1
281
0
0
BLOCK_RECORD
5
90
330
1
100
AcDbSymbolTableRecord
100
AcDbBlockTableRecord
2
*D2
70
0
280
1
281
0
0
BLOCK_RECORD
5
93
330
1
100
AcDbSymbolTableRecord
100
AcDbBlockTableRecord
2
*D44
70
0
280
1
281
0
0
BLOCK_RECORD
5
96
330
1
100
AcDbSymbolTableRecord
100
AcDbBlockTableRecord
2
*D12
70
0
280
1
281
0
0
BLOCK_RECORD
5
99
330
1
100
AcDbSymbolTableRecord
100
AcDbBlockTableRecord
2
*D13
70
0
280
1
281
0
0
BLOCK_RECORD
5
9C
330
1
100
AcDbSymbolTableRecord
100
AcDbBlockTableRecord
2
*D5
70
0
280
1
281
0
0
BLOCK_RECORD
5
9F
330
1
100
AcDbSymbolTableRecord
100
AcDbBlockTableRecord
2
*D4
70
0
280
1
281
0
0
BLOCK_RECORD
5
A2
330
1
100
AcDbSymbolTableRecord
100
AcDbBlockTableRecord
2
*D29
70
0
280
1
281
0
0
BLOCK_RECORD
5
A5
330
1
100
AcDbSymbolTableRecord
100
AcDbBlockTableRecord
2
*D40
70
0
280
1
281
0
0
BLOCK_RECORD
5
A8
330
1
100
AcDbSymbolTableRecord
100
AcDbBlockTableRecord
2
*D31
70
0
280
1
281
0
0
BLOCK_RECORD
5
AB
330
1
100
AcDbSymbolTableRecord
100
AcDbBlockTableRecord
2
*D43
70
0
280
1
281
0
0
BLOCK_RECORD
5
AE
330
1
100
AcDbSymbolTableRecord
100
AcDbBlockTableRecord
2
*D37
70
0
280
1
281
0
0
BLOCK_RECORD
5
B1
330
1
100
AcDbSymbolTableRecord
100
AcDbBlockTableRecord
2
*D6
70
0
280
1
281
0
0
BLOCK_RECORD
5
B4
330
1
100
AcDbSymbolTableRecord
100
AcDbBlockTableRecord
2
*D14
70
0
280
1
281
0
0
BLOCK_RECORD
5
B7
330
1
100
AcDbSymbolTableRecord
100
AcDbBlockTableRecord
2
*D33
70
0
280
1
281
0
0
BLOCK_RECORD
5
BA
330
1
100
AcDbSymbolTableRecord
100
AcDbBlockTableRecord
2
*D9
70
0
280
1
281
0
0
BLOCK_RECORD
5
BD
330
1
100
AcDbSymbolTableRecord
100
AcDbBlockTableRecord
2
*D28
70
0
280
1
281
0
0
BLOCK_RECORD
5
C0
330
1
100
AcDbSymbolTableRecord
100
AcDbBlockTableRecord
2
*D30
70
0
280
1
281
0
0
BLOCK_RECORD
5
C3
330
1
100
AcDbSymbolTableRecord
100
AcDbBlockTableRecord
2
*D41
70
0
280
1
281
0
0
BLOCK_RECORD
5
C6
330
1
100
AcDbSymbolTableRecord
100
AcDbBlockTableRecord
2
*D16
70
0
280
1
281
0
0
BLOCK_RECORD
5
C9
330
1
100
AcDbSymbolTableRecord
100
AcDbBlockTableRecord
2
*D8
70
0
280
1
281
0
0
BLOCK_RECORD
5
CC
330
1
100
AcDbSymbolTableRecord
100
AcDbBlockTableRecord
2
*D39
70
0
280
1
281
0
0
ENDTAB
0
ENDSEC
0
SECTION
2
BLOCKS
0
BLOCK
5
20
330
1F
100
AcDbEntity
8
0
100
AcDbBlockBegin
2
*Model_Space
70
0
10
0
20
0
30
0
3
*Model_Space
1

0
ENDBLK
5
21
330
1F
100
AcDbEntity
8
0
100
AcDbBlockEnd
0
BLOCK
5
1C
330
1B
100
AcDbEntity
8
0
100
AcDbBlockBegin
2
*Paper_Space
70
0
10
0
20
0
30
0
3
*Paper_Space
1

0
ENDBLK
5
1D
330
1F
100
AcDbEntity
8
0
100
AcDbBlockEnd
0
BLOCK
5
4C
330
4B
100
AcDbEntity
8
0
100
AcDbBlockBegin
2
*D27
70
1
10
0
20
0
3
*D27
1

0
LINE
5
CF
100
AcDbEntity
8
DIMENSION
6
CONTINUOUS
62
7
370
0
100
AcDbLine
10
1053.22265625
20
125
11
1053.22265625
21
75
0
SOLID
5
D0
100
AcDbEntity
8
DIMENSION
6
CONTINUOUS
62
7
370
0
100
AcDbTrace
10
1053.22265625
20
125
30
0
11
1055.22082261
21
113
31
0
12
1051.22448989
22
113
32
0
13
1051.22448989
23
113
33
0
0
SOLID
5
D1
100
AcDbEntity
8
DIMENSION
6
CONTINUOUS
62
7
370
0
100
AcDbTrace
10
1053.22265625
20
75
30
0
11
1051.22448989
21
87
31
0
12
1055.22082261
22
87
32
0
13
1055.22082261
23
87
33
0
0
MTEXT
5
D2
100
AcDbEntity
8
DIMENSION
6
CONTINUOUS
62
7
370
0
100
AcDbMText
10
1047.19765625
20
100
30
0
40
12
41
14.6666666667
71
5
72
1
1
50
7
standard
210
0
220
0
230
1
50
90
73
2
44
1
0
LINE
5
D3
100
AcDbEntity
8
DIMENSION
6
CONTINUOUS
62
7
370
0
100
AcDbLine
10
1071.975
20
125
11
1053.17265625
21
125
0
LINE
5
D4
100
AcDbEntity
8
DIMENSION
6
CONTINUOUS
62
7
370
0
100
AcDbLine
10
1071.975
20
75
11
1053.17265625
21
75
0
ENDBLK
5
4D
330
4B
100
AcDbEntity
8
0
100
AcDbBlockEnd
0
BLOCK
5
4F
330
4E
100
AcDbEntity
8
0
100
AcDbBlockBegin
2
*D20
70
1
10
0
20
0
3
*D20
1

0
LINE
5
D5
100
AcDbEntity
8
DIMENSION
6
CONTINUOUS
62
7
370
0
100
AcDbLine
10
247.5
20
163.0859375
11
297.5
21
163.0859375
0
SOLID
5
D6
100
AcDbEntity
8
DIMENSION
6
CONTINUOUS
62
7
370
0
100
AcDbTrace
10
247.5
20
163.0859375
30
0
11
259.5
21
165.084103857
31
0
12
259.5
22
161.087771143
32
0
13
259.5
23
161.087771143
33
0
0
SOLID
5
D7
100
AcDbEntity
8
DIMENSION
6
CONTINUOUS
62
7
370
0
100
AcDbTrace
10
297.5
20
163.0859375
30
0
11
285.5
21
161.087771143
31
0
12
285.5
22
165.084103857
32
0
13
285.5
23
165.084103857
33
0
0
MTEXT
5
D8
100
AcDbEntity
8
DIMENSION
6
CONTINUOUS
62
7
370
0
100
AcDbMText
10
272.5
20
169.1109375
30
0
40
12
41
14.6666666667
71
5
72
1
1
50
7
standard
210
0
220
0
230
1
50
0
73
2
44
1
0
LINE
5
D9
100
AcDbEntity
8
DIMENSION
6
CONTINUOUS
62
7
370
0
100
AcDbLine
10
247.5
20
181.975
11
247.5
21
163.0359375
0
LINE
5
DA
100
AcDbEntity
8
DIMENSION
6
CONTINUOUS
62
7
370
0
100
AcDbLine
10
297.5
20
181.975
11
297.5
21
163.0359375
0
ENDBLK
5
50
330
4E
100
AcDbEntity
8
0
100
AcDbBlockEnd
0
BLOCK
5
52
330
51
100
AcDbEntity
8
0
100
AcDbBlockBegin
2
*D1
70
1
10
0
20
0
3
*D1
1

0
LINE
5
DB
100
AcDbEntity
8
DIMENSION
6
CONTINUOUS
62
7
370
0
100
AcDbLine
10
0
20
-28.6102294922
11
1090
21
-28.6102294922
0
SOLID
5
DC
100
AcDbEntity
8
DIMENSION
6
CONTINUOUS
62
7
370
0
100
AcDbTrace
10
0
20
-28.6102294922
30
0
11
12
21
-26.6120631349
31
0
12
12
22
-30.6083958495
32
0
13
12
23
-30.6083958495
33
0
0
SOLID
5
DD
100
AcDbEntity
8
DIMENSION
6
CONTINUOUS
62
7
370
0
100
AcDbTrace
10
1090
20
-28.6102294922
30
0
11
1078
21
-30.6083958495
31
0
12
1078
22
-26.6120631349
32
0
13
1078
23
-26.6120631349
33
0
0
MTEXT
5
DE
100
AcDbEntity
8
DIMENSION
6
CONTINUOUS
62
7
370
0
100
AcDbMText
10
545
20
-22.5852294922
30
0
40
12
41
30.6666666667
71
5
72
1
1
1090
7
standard
210
0
220
0
230
1
50
0
73
2
44
1
0
LINE
5
DF
100
AcDbEntity
8
DIMENSION
6
CONTINUOUS
62
7
370
0
100
AcDbLine
10
-4.5924254968e-18
20
-0.0249999999999
11
-9.18485099361e-18
21
-28.6602294922
0
LINE
5
E0
100
AcDbEntity
8
DIMENSION
6
CONTINUOUS
62
7
370
0
100
AcDbLine
10
1090
20
-0.025
11
1090
21
-28.6602294922
0
ENDBLK
5
53
330
51
100
AcDbEntity
8
0
100
AcDbBlockEnd
0
BLOCK
5
55
330
54
100
AcDbEntity
8
0
100
AcDbBlockBegin
2
*D11
70
1
10
0
20
0
3
*D11
1

0
LINE
5
E1
100
AcDbEntity
8
DIMENSION
6
CONTINUOUS
62
7
370
0
100
AcDbLine
10
230.712890625
20
39
11
230.712890625
21
-24
0
SOLID
5
E2
100
AcDbEntity
8
DIMENSION
6
CONTINUOUS
62
7
370
0
100
AcDbTrace
10
230.712890625
20
15
30
0
11
228.714724268
21
27
31
0
12
232.711056982
22
27
32
0
13
232.711056982
23
27
33
0
0
SOLID
5
E3
100
AcDbEntity
8
DIMENSION
6
CONTINUOUS
62
7
370
0
100
AcDbTrace
10
230.712890625
20
1.42108547152e-13
30
0
11
232.711056982
21
-12
31
0
12
228.714724268
22
-12
32
0
13
228.714724268
23
-12
33
0
0
MTEXT
5
E4
100
AcDbEntity
8
DIMENSION
6
CONTINUOUS
62
7
370
0
100
AcDbMText
10
224.687890625
20
7.5
30
0
40
12
41
12
71
5
72
1
1
15
7
standard
210
0
220
0
230
1
50
90
73
2
44
1
0
LINE
5
E5
100
AcDbEntity
8
DIMENSION
6
CONTINUOUS
62
7
370
0
100
AcDbLine
10
247.475
20
15
11
230.662890625
21
15
0
LINE
5
E6
100
AcDbEntity
8
DIMENSION
6
CONTINUOUS
62
7
370
0
100
AcDbLine
10
-0.025
20
1.42111608769e-13
11
230.662890625
21
1.42114670386e-13
0
ENDBLK
5
56
330
54
100
AcDbEntity
8
0
100
AcDbBlockEnd
0
BLOCK
5
58
330
57
100
AcDbEntity
8
0
100
AcDbBlockBegin
2
*D17
70
1
10
0
20
0
3
*D17
1

0
LINE
5
E7
100
AcDbEntity
8
DIMENSION
6
CONTINUOUS
62
7
370
0
100
AcDbLine
10
801.625
20
68.359375
11
833.375
21
68.359375
0
SOLID
5
E8
100
AcDbEntity
8
DIMENSION
6
CONTINUOUS
62
7
370
0
100
AcDbTrace
10
801.625
20
68.359375
30
0
11
813.625
21
70.3575413573
31
0
12
813.625
22
66.3612086427
32
0
13
813.625
23
66.3612086427
33
0
0
SOLID
5
E9
100
AcDbEntity
8
DIMENSION
6
CONTINUOUS
62
7
370
0
100
AcDbTrace
10
833.375
20
68.359375
30
0
11
821.375
21
66.3612086427
31
0
12
821.375
22
70.3575413573
32
0
13
821.375
23
70.3575413573
33
0
0
MTEXT
5
EA
100
AcDbEntity
8
DIMENSION
6
CONTINUOUS
62
7
370
0
100
AcDbMText
10
850.733333333
20
74.384375
30
0
40
12
41
34.6666666667
71
5
72
1
1
31.75
7
standard
210
0
220
0
230
1
50
0
73
2
44
1
0
LINE
5
EB
100
AcDbEntity
8
DIMENSION
6
CONTINUOUS
62
7
370
0
100
AcDbLine
10
801.625
20
53.025
11
801.625
21
68.409375
0
LINE
5
EC
100
AcDbEntity
8
DIMENSION
6
CONTINUOUS
62
7
370
0
100
AcDbLine
10
833.375
20
53.025
11
833.375
21
68.409375
0
ENDBLK
5
59
330
57
100
AcDbEntity
8
0
100
AcDbBlockEnd
0
BLOCK
5
5B
330
5A
100
AcDbEntity
8
0
100
AcDbBlockBegin
2
*D24
70
1
10
0
20
0
3
*D24
1

0
LINE
5
ED
100
AcDbEntity
8
DIMENSION
6
CONTINUOUS
62
7
370
0
100
AcDbLine
10
332.03125
20
212
11
332.03125
21
158
0
SOLID
5
EE
100
AcDbEntity
8
DIMENSION
6
CONTINUOUS
62
7
370
0
100
AcDbTrace
10
332.03125
20
188
30
0
11
330.033083643
21
200
31
0
12
334.029416357
22
200
32
0
13
334.029416357
23
200
33
0
0
SOLID
5
EF
100
AcDbEntity
8
DIMENSION
6
CONTINUOUS
62
7
370
0
100
AcDbTrace
10
332.03125
20
182
30
0
11
334.029416357
21
170
31
0
12
330.033083643
22
170
32
0
13
330.033083643
23
170
33
0
0
MTEXT
5
F0
100
AcDbEntity
8
DIMENSION
6
CONTINUOUS
62
7
370
0
100
AcDbMText
10
326.00625
20
185
30
0
40
12
41
5.33333333333
71
5
72
1
1
6
7
standard
210
0
220
0
230
1
50
90
73
2
44
1
0
LINE
5
F1
100
AcDbEntity
8
DIMENSION
6
CONTINUOUS
62
7
370
0
100
AcDbLine
10
297.525
20
188
11
332.08125
21
188
0
LINE
5
F2
100
AcDbEntity
8
DIMENSION
6
CONTINUOUS
62
7
370
0
100
AcDbLine
10
297.525
20
182
11
332.08125
21
182
0
ENDBLK
5
5C
330
5A
100
AcDbEntity
8
0
100
AcDbBlockEnd
0
BLOCK
5
5E
330
5D
100
AcDbEntity
8
0
100
AcDbBlockBegin
2
*D18
70
1
10
0
20
0
3
*D18
1

0
LINE
5
F3
100
AcDbEntity
8
DIMENSION
6
CONTINUOUS
62
7
370
0
100
AcDbLine
10
256.625
20
127
11
288.375
21
127
0
SOLID
5
F4
100
AcDbEntity
8
DIMENSION
6
CONTINUOUS
62
7
370
0
100
AcDbTrace
10
256.625
20
127
30
0
11
268.625
21
128.998166357
31
0
12
268.625
22
125.001833643
32
0
13
268.625
23
125.001833643
33
0
0
SOLID
5
F5
100
AcDbEntity
8
DIMENSION
6
CONTINUOUS
62
7
370
0
100
AcDbTrace
10
288.375
20
127
30
0
11
276.375
21
125.001833643
31
0
12
276.375
22
128.998166357
32
0
13
276.375
23
128.998166357
33
0
0
MTEXT
5
F6
100
AcDbEntity
8
DIMENSION
6
CONTINUOUS
62
7
370
0
100
AcDbMText
10
305.733333333
20
133.025
30
0
40
12
41
34.6666666667
71
5
72
1
1
31.75
7
standard
210
0
220
0
230
1
50
0
73
2
44
1
0
LINE
5
F7
100
AcDbEntity
8
DIMENSION
6
CONTINUOUS
62
7
370
0
100
AcDbLine
10
256.625
20
146.975
11
256.625
21
126.95
0
LINE
5
F8
100
AcDbEntity
8
DIMENSION
6
CONTINUOUS
62
7
370
0
100
AcDbLine
10
288.375
20
146.975
11
288.375
21
126.95
0
ENDBLK
5
5F
330
5D
100
AcDbEntity
8
0
100
AcDbBlockEnd
0
BLOCK
5
61
330
60
100
AcDbEntity
8
0
100
AcDbBlockBegin
2
*D3
70
1
10
0
20
0
3
*D3
1

0
LINE
5
F9
100
AcDbEntity
8
DIMENSION
6
CONTINUOUS
62
7
370
0
100
AcDbLine
10
1136.71875
20
200
11
1136.71875
21
0
0
SOLID
5
FA
100
AcDbEntity
8
DIMENSION
6
CONTINUOUS
62
7
370
0
100
AcDbTrace
10
1136.71875
20
200
30
0
11
1138.71691636
21
188
31
0
12
1134.72058364
22
188
32
0
13
1134.72058364
23
188
33
0
0
SOLID
5
FB
100
AcDbEntity
8
DIMENSION
6
CONTINUOUS
62
7
370
0
100
AcDbTrace
10
1136.71875
20
0
30
0
11
1134.72058364
21
12
31
0
12
1138.71691636
22
12
32
0
13
1138.71691636
23
12
33
0
0
MTEXT
5
FC
100
AcDbEntity
8
DIMENSION
6
CONTINUOUS
62
7
370
0
100
AcDbMText
10
1130.69375
20
100
30
0
40
12
41
24
71
5
72
1
1
200
7
standard
210
0
220
0
230
1
50
90
73
2
44
1
0
LINE
5
FD
100
AcDbEntity
8
DIMENSION
6
CONTINUOUS
62
7
370
0
100
AcDbLine
10
1090.025
20
200
11
1136.76875
21
200
0
LINE
5
FE
100
AcDbEntity
8
DIMENSION
6
CONTINUOUS
62
7
370
0
100
AcDbLine
10
1090.025
20
0
11
1136.76875
21
0
0
ENDBLK
5
62
330
60
100
AcDbEntity
8
0
100
AcDbBlockEnd
0
BLOCK
5
64
330
63
100
AcDbEntity
8
0
100
AcDbBlockBegin
2
*D23
70
1
10
0
20
0
3
*D23
1

0
LINE
5
FF
100
AcDbEntity
8
DIMENSION
6
CONTINUOUS
62
7
370
0
100
AcDbLine
10
875.854492188
20
161
11
875.854492188
21
224
0
SOLID
5
100
100
AcDbEntity
8
DIMENSION
6
CONTINUOUS
62
7
370
0
100
AcDbTrace
10
875.854492188
20
185
30
0
11
877.852658545
21
173
31
0
12
873.85632583
22
173
32
0
13
873.85632583
23
173
33
0
0
SOLID
5
101
100
AcDbEntity
8
DIMENSION
6
CONTINUOUS
62
7
370
0
100
AcDbTrace
10
875.854492188
20
200
30
0
11
873.85632583
21
212
31
0
12
877.852658545
22
212
32
0
13
877.852658545
23
212
33
0
0
MTEXT
5
102
100
AcDbEntity
8
DIMENSION
6
CONTINUOUS
62
7
370
0
100
AcDbMText
10
869.829492188
20
192.5
30
0
40
12
41
12
71
5
72
1
1
15
7
standard
210
0
220
0
230
1
50
90
73
2
44
1
0
LINE
5
103
100
AcDbEntity
8
DIMENSION
6
CONTINUOUS
62
7
370
0
100
AcDbLine
10
842.525
20
185
11
875.904492188
21
185
0
LINE
5
104
100
AcDbEntity
8
DIMENSION
6
CONTINUOUS
62
7
370
0
100
AcDbLine
10
1090.025
20
200
11
875.904492188
21
200
0
ENDBLK
5
65
330
63
100
AcDbEntity
8
0
100
AcDbBlockEnd
0
BLOCK
5
67
330
66
100
AcDbEntity
8
0
100
AcDbBlockBegin
2
*D22
70
1
10
0
20
0
3
*D22
1

0
LINE
5
105
100
AcDbEntity
8
DIMENSION
6
CONTINUOUS
62
7
370
0
100
AcDbLine
10
777.587890625
20
212
11
777.587890625
21
158
0
SOLID
5
106
100
AcDbEntity
8
DIMENSION
6
CONTINUOUS
62
7
370
0
100
AcDbTrace
10
777.587890625
20
188
30
0
11
775.589724268
21
200
31
0
12
779.586056982
22
200
32
0
13
779.586056982
23
200
33
0
0
SOLID
5
107
100
AcDbEntity
8
DIMENSION
6
CONTINUOUS
62
7
370
0
100
AcDbTrace
10
777.587890625
20
182
30
0
11
779.586056982
21
170
31
0
12
775.589724268
22
170
32
0
13
775.589724268
23
170
33
0
0
MTEXT
5
108
100
AcDbEntity
8
DIMENSION
6
CONTINUOUS
62
7
370
0
100
AcDbMText
10
771.562890625
20
185
30
0
40
12
41
5.33333333333
71
5
72
1
1
6
7
standard
210
0
220
0
230
1
50
90
73
2
44
1
0
LINE
5
109
100
AcDbEntity
8
DIMENSION
6
CONTINUOUS
62
7
370
0
100
AcDbLine
10
792.475
20
188
11
777.537890625
21
188
0
LINE
5
10A
100
AcDbEntity
8
DIMENSION
6
CONTINUOUS
62
7
370
0
100
AcDbLine
10
792.475
20
182
11
777.537890625
21
182
0
ENDBLK
5
68
330
66
100
AcDbEntity
8
0
100
AcDbBlockEnd
0
BLOCK
5
6A
330
69
100
AcDbEntity
8
0
100
AcDbBlockBegin
2
*D36
70
1
10
0
20
0
3
*D36
1

0
LINE
5
10B
100
AcDbEntity
8
DIMENSION
6
CONTINUOUS
62
7
370
0
100
AcDbLine
10
1123.4375
20
176
11
1123.4375
21
230.35
0
SOLID
5
10C
100
AcDbEntity
8
DIMENSION
6
CONTINUOUS
62
7
370
0
100
AcDbTrace
10
1123.4375
20
200
30
0
11
1125.43566636
21
188
31
0
12
1121.43933364
22
188
32
0
13
1121.43933364
23
188
33
0
0
SOLID
5
10D
100
AcDbEntity
8
DIMENSION
6
CONTINUOUS
62
7
370
0
100
AcDbTrace
10
1123.4375
20
206.35
30
0
11
1121.43933364
21
218.35
31
0
12
1125.43566636
22
218.35
32
0
13
1125.43566636
23
218.35
33
0
0
MTEXT
5
10E
100
AcDbEntity
8
DIMENSION
6
CONTINUOUS
62
7
370
0
100
AcDbMText
10
1117.4125
20
220.375
30
0
40
12
41
28
71
5
72
1
1
6.35
7
standard
210
0
220
0
230
1
50
90
73
2
44
1
0
LINE
5
10F
100
AcDbEntity
8
DIMENSION
6
CONTINUOUS
62
7
370
0
100
AcDbLine
10
1090.025
20
200
11
1123.4875
21
200
0
LINE
5
110
100
AcDbEntity
8
DIMENSION
6
CONTINUOUS
62
7
370
0
100
AcDbLine
10
1096.375
20
206.35
11
1123.4875
21
206.35
0
ENDBLK
5
6B
330
69
100
AcDbEntity
8
0
100
AcDbBlockEnd
0
BLOCK
5
6D
330
6C
100
AcDbEntity
8
0
100
AcDbBlockBegin
2
*D35
70
1
10
0
20
0
3
*D35
1

0
LINE
5
111
100
AcDbEntity
8
DIMENSION
6
CONTINUOUS
62
7
370
0
100
AcDbLine
10
1066
20
240.9375
11
1120.35
21
240.9375
0
SOLID
5
112
100
AcDbEntity
8
DIMENSION
6
CONTINUOUS
62
7
370
0
100
AcDbTrace
10
1090
20
240.9375
30
0
11
1078
21
238.939333643
31
0
12
1078
22
242.935666357
32
0
13
1078
23
242.935666357
33
0
0
SOLID
5
113
100
AcDbEntity
8
DIMENSION
6
CONTINUOUS
62
7
370
0
100
AcDbTrace
10
1096.35
20
240.9375
30
0
11
1108.35
21
242.935666357
31
0
12
1108.35
22
238.939333643
32
0
13
1108.35
23
238.939333643
33
0
0
MTEXT
5
114
100
AcDbEntity
8
DIMENSION
6
CONTINUOUS
62
7
370
0
100
AcDbMText
10
1110.375
20
246.9625
30
0
40
12
41
28
71
5
72
1
1
6.35
7
standard
210
0
220
0
230
1
50
0
73
2
44
1
0
LINE
5
115
100
AcDbEntity
8
DIMENSION
6
CONTINUOUS
62
7
370
0
100
AcDbLine
10
1090
20
200.025
11
1090
21
240.9875
0
LINE
5
116
100
AcDbEntity
8
DIMENSION
6
CONTINUOUS
62
7
370
0
100
AcDbLine
10
1096.35
20
206.375
11
1096.35
21
240.9875
0
ENDBLK
5
6E
330
6C
100
AcDbEntity
8
0
100
AcDbBlockEnd
0
BLOCK
5
70
330
6F
100
AcDbEntity
8
0
100
AcDbBlockBegin
2
*D7
70
1
10
0
20
0
3
*D7
1

0
LINE
5
117
100
AcDbEntity
8
DIMENSION
6
CONTINUOUS
62
7
370
0
100
AcDbLine
10
53
20
158.69140625
11
0
21
158.69140625
0
SOLID
5
118
100
AcDbEntity
8
DIMENSION
6
CONTINUOUS
62
7
370
0
100
AcDbTrace
10
53
20
158.69140625
30
0
11
41
21
156.693239893
31
0
12
41
22
160.689572607
32
0
13
41
23
160.689572607
33
0
0
SOLID
5
119
100
AcDbEntity
8
DIMENSION
6
CONTINUOUS
62
7
370
0
100
AcDbTrace
10
0
20
158.69140625
30
0
11
12
21
160.689572607
31
0
12
12
22
156.693239893
32
0
13
12
23
156.693239893
33
0
0
MTEXT
5
11A
100
AcDbEntity
8
DIMENSION
6
CONTINUOUS
62
7
370
0
100
AcDbMText
10
26.5
20
164.71640625
30
0
40
12
41
14.6666666667
71
5
72
1
1
53
7
standard
210
0
220
0
230
1
50
360
73
2
44
1
0
LINE
5
11B
100
AcDbEntity
8
DIMENSION
6
CONTINUOUS
62
7
370
0
100
AcDbLine
10
53
20
115.9
11
53
21
158.74140625
0
LINE
5
11C
100
AcDbEntity
8
DIMENSION
6
CONTINUOUS
62
7
370
0
100
AcDbLine
10
1.53080849893e-18
20
200.025
11
3.06161699787e-18
21
158.74140625
0
ENDBLK
5
71
330
6F
100
AcDbEntity
8
0
100
AcDbBlockEnd
0
BLOCK
5
73
330
72
100
AcDbEntity
8
0
100
AcDbBlockBegin
2
*D38
70
1
10
0
20
0
3
*D38
1

0
LINE
5
11D
100
AcDbEntity
8
DIMENSION
6
CONTINUOUS
62
7
370
0
100
AcDbLine
10
1051
20
148.828125
11
1114
21
148.828125
0
SOLID
5
11E
100
AcDbEntity
8
DIMENSION
6
CONTINUOUS
62
7
370
0
100
AcDbTrace
10
1075
20
148.828125
30
0
11
1063
21
146.829958643
31
0
12
1063
22
150.826291357
32
0
13
1063
23
150.826291357
33
0
0
SOLID
5
11F
100
AcDbEntity
8
DIMENSION
6
CONTINUOUS
62
7
370
0
100
AcDbTrace
10
1090
20
148.828125
30
0
11
1102
21
150.826291357
31
0
12
1102
22
146.829958643
32
0
13
1102
23
146.829958643
33
0
0
MTEXT
5
120
100
AcDbEntity
8
DIMENSION
6
CONTINUOUS
62
7
370
0
100
AcDbMText
10
1082.5
20
154.853125
30
0
40
12
41
12
71
5
72
1
1
15
7
standard
210
0
220
0
230
1
50
0
73
2
44
1
0
LINE
5
121
100
AcDbEntity
8
DIMENSION
6
CONTINUOUS
62
7
370
0
100
AcDbLine
10
1075
20
125.025
11
1075
21
148.878125
0
LINE
5
122
100
AcDbEntity
8
DIMENSION
6
CONTINUOUS
62
7
370
0
100
AcDbLine
10
1090
20
200.025
11
1090
21
148.878125
0
ENDBLK
5
74
330
72
100
AcDbEntity
8
0
100
AcDbBlockEnd
0
BLOCK
5
76
330
75
100
AcDbEntity
8
0
100
AcDbBlockBegin
2
*D15
70
1
10
0
20
0
3
*D15
1

0
LINE
5
123
100
AcDbEntity
8
DIMENSION
6
CONTINUOUS
62
7
370
0
100
AcDbLine
10
792.5
20
25.6
11
842.5
21
25.6
0
SOLID
5
124
100
AcDbEntity
8
DIMENSION
6
CONTINUOUS
62
7
370
0
100
AcDbTrace
10
792.5
20
25.6
30
0
11
804.5
21
27.5981663573
31
0
12
804.5
22
23.6018336427
32
0
13
804.5
23
23.6018336427
33
0
0
SOLID
5
125
100
AcDbEntity
8
DIMENSION
6
CONTINUOUS
62
7
370
0
100
AcDbTrace
10
842.5
20
25.6
30
0
11
830.5
21
23.6018336427
31
0
12
830.5
22
27.5981663573
32
0
13
830.5
23
27.5981663573
33
0
0
MTEXT
5
126
100
AcDbEntity
8
DIMENSION
6
CONTINUOUS
62
7
370
0
100
AcDbMText
10
817.5
20
31.625
30
0
40
12
41
14.6666666667
71
5
72
1
1
50
7
standard
210
0
220
0
230
1
50
0
73
2
44
1
0
LINE
5
127
100
AcDbEntity
8
DIMENSION
6
CONTINUOUS
62
7
370
0
100
AcDbLine
10
792.5
20
18.025
11
792.5
21
25.65
0
LINE
5
128
100
AcDbEntity
8
DIMENSION
6
CONTINUOUS
62
7
370
0
100
AcDbLine
10
842.5
20
18.025
11
842.5
21
25.65
0
ENDBLK
5
77
330
75
100
AcDbEntity
8
0
100
AcDbBlockEnd
0
BLOCK
5
79
330
78
100
AcDbEntity
8
0
100
AcDbBlockBegin
2
*D26
70
1
10
0
20
0
3
*D26
1

0
LINE
5
129
100
AcDbEntity
8
DIMENSION
6
CONTINUOUS
62
7
370
0
100
AcDbLine
10
1018.06640625
20
115.875
11
1018.06640625
21
84.125
0
SOLID
5
12A
100
AcDbEntity
8
DIMENSION
6
CONTINUOUS
62
7
370
0
100
AcDbTrace
10
1018.06640625
20
115.875
30
0
11
1020.06457261
21
103.875
31
0
12
1016.06823989
22
103.875
32
0
13
1016.06823989
23
103.875
33
0
0
SOLID
5
12B
100
AcDbEntity
8
DIMENSION
6
CONTINUOUS
62
7
370
0
100
AcDbTrace
10
1018.06640625
20
84.125
30
0
11
1016.06823989
21
96.125
31
0
12
1020.06457261
22
96.125
32
0
13
1020.06457261
23
96.125
33
0
0
MTEXT
5
12C
100
AcDbEntity
8
DIMENSION
6
CONTINUOUS
62
7
370
0
100
AcDbMText
10
1012.04140625
20
133.233333333
30
0
40
12
41
34.6666666667
71
5
72
1
1
31.75
7
standard
210
0
220
0
230
1
50
90
73
2
44
1
0
LINE
5
12D
100
AcDbEntity
8
DIMENSION
6
CONTINUOUS
62
7
370
0
100
AcDbLine
10
1036.975
20
115.875
11
1018.01640625
21
115.875
0
LINE
5
12E
100
AcDbEntity
8
DIMENSION
6
CONTINUOUS
62
7
370
0
100
AcDbLine
10
1036.975
20
84.125
11
1018.01640625
21
84.125
0
ENDBLK
5
7A
330
78
100
AcDbEntity
8
0
100
AcDbBlockEnd
0
BLOCK
5
7C
330
7B
100
AcDbEntity
8
0
100
AcDbBlockBegin
2
*D32
70
1
10
0
20
0
3
*D32
1

0
LINE
5
12F
100
AcDbEntity
8
DIMENSION
6
CONTINUOUS
62
7
370
0
100
AcDbLine
10
926.171875
20
200
11
926.171875
21
147
0
SOLID
5
130
100
AcDbEntity
8
DIMENSION
6
CONTINUOUS
62
7
370
0
100
AcDbTrace
10
926.171875
20
200
30
0
11
928.170041357
21
188
31
0
12
924.173708643
22
188
32
0
13
924.173708643
23
188
33
0
0
SOLID
5
131
100
AcDbEntity
8
DIMENSION
6
CONTINUOUS
62
7
370
0
100
AcDbTrace
10
926.171875
20
147
30
0
11
924.173708643
21
159
31
0
12
928.170041357
22
159
32
0
13
928.170041357
23
159
33
0
0
MTEXT
5
132
100
AcDbEntity
8
DIMENSION
6
CONTINUOUS
62
7
370
0
100
AcDbMText
10
920.146875
20
173.5
30
0
40
12
41
14.6666666667
71
5
72
1
1
53
7
standard
210
0
220
0
230
1
50
90
73
2
44
1
0
LINE
5
133
100
AcDbEntity
8
DIMENSION
6
CONTINUOUS
62
7
370
0
100
AcDbLine
10
1089.975
20
200
11
926.121875
21
200
0
LINE
5
134
100
AcDbEntity
8
DIMENSION
6
CONTINUOUS
62
7
370
0
100
AcDbLine
10
833.35
20
147
11
926.121875
21
147
0
ENDBLK
5
7D
330
7B
100
AcDbEntity
8
0
100
AcDbBlockEnd
0
BLOCK
5
7F
330
7E
100
AcDbEntity
8
0
100
AcDbBlockBegin
2
*D42
70
1
10
0
20
0
3
*D42
1

0
LINE
5
135
100
AcDbEntity
8
DIMENSION
6
CONTINUOUS
62
7
370
0
100
AcDbLine
10
0
20
-17.1875
11
272.5
21
-17.1875
0
SOLID
5
136
100
AcDbEntity
8
DIMENSION
6
CONTINUOUS
62
7
370
0
100
AcDbTrace
10
0
20
-17.1875
30
0
11
12
21
-15.1893336427
31
0
12
12
22
-19.1856663573
32
0
13
12
23
-19.1856663573
33
0
0
SOLID
5
137
100
AcDbEntity
8
DIMENSION
6
CONTINUOUS
62
7
370
0
100
AcDbTrace
10
272.5
20
-17.1875
30
0
11
260.5
21
-19.1856663573
31
0
12
260.5
22
-15.1893336427
32
0
13
260.5
23
-15.1893336427
33
0
0
MTEXT
5
138
100
AcDbEntity
8
DIMENSION
6
CONTINUOUS
62
7
370
0
100
AcDbMText
10
136.25
20
-11.1625
30
0
40
12
41
37.3333333333
71
5
72
1
1
272.5
7
standard
210
0
220
0
230
1
50
0
73
2
44
1
0
LINE
5
139
100
AcDbEntity
8
DIMENSION
6
CONTINUOUS
62
7
370
0
100
AcDbLine
10
-4.5924254968e-18
20
-0.0249999999999
11
-9.18485099361e-18
21
-17.2375
0
LINE
5
13A
100
AcDbEntity
8
DIMENSION
6
CONTINUOUS
62
7
370
0
100
AcDbLine
10
272.5
20
11.975
11
272.5
21
-17.2375
0
ENDBLK
5
80
330
7E
100
AcDbEntity
8
0
100
AcDbBlockEnd
0
BLOCK
5
82
330
81
100
AcDbEntity
8
0
100
AcDbBlockBegin
2
*D10
70
1
10
0
20
0
3
*D10
1

0
LINE
5
13B
100
AcDbEntity
8
DIMENSION
6
CONTINUOUS
62
7
370
0
100
AcDbLine
10
317.952
20
42
11
317.952
21
-12
0
SOLID
5
13C
100
AcDbEntity
8
DIMENSION
6
CONTINUOUS
62
7
370
0
100
AcDbTrace
10
317.952
20
18
30
0
11
315.953833643
21
30
31
0
12
319.950166357
22
30
32
0
13
319.950166357
23
30
33
0
0
SOLID
5
13D
100
AcDbEntity
8
DIMENSION
6
CONTINUOUS
62
7
370
0
100
AcDbTrace
10
317.952
20
12
30
0
11
319.950166357
21
0
31
0
12
315.953833643
22
0
32
0
13
315.953833643
23
0
33
0
0
MTEXT
5
13E
100
AcDbEntity
8
DIMENSION
6
CONTINUOUS
62
7
370
0
100
AcDbMText
10
311.927
20
15
30
0
40
12
41
5.33333333333
71
5
72
1
1
6
7
standard
210
0
220
0
230
1
50
90
73
2
44
1
0
LINE
5
13F
100
AcDbEntity
8
DIMENSION
6
CONTINUOUS
62
7
370
0
100
AcDbLine
10
297.525
20
18
11
318.002
21
18
0
LINE
5
140
100
AcDbEntity
8
DIMENSION
6
CONTINUOUS
62
7
370
0
100
AcDbLine
10
297.525
20
12
11
318.002
21
12
0
ENDBLK
5
83
330
81
100
AcDbEntity
8
0
100
AcDbBlockEnd
0
BLOCK
5
85
330
84
100
AcDbEntity
8
0
100
AcDbBlockBegin
2
*D34
70
1
10
0
20
0
3
*D34
1

0
LINE
5
141
100
AcDbEntity
8
DIMENSION
6
CONTINUOUS
62
7
370
0
100
AcDbLine
10
-40
20
230.35
11
-40
21
176
0
SOLID
5
142
100
AcDbEntity
8
DIMENSION
6
CONTINUOUS
62
7
370
0
100
AcDbTrace
10
-40
20
206.35
30
0
11
-41.9981663573
21
218.35
31
0
12
-38.0018336427
22
218.35
32
0
13
-38.0018336427
23
218.35
33
0
0
SOLID
5
143
100
AcDbEntity
8
DIMENSION
6
CONTINUOUS
62
7
370
0
100
AcDbTrace
10
-40
20
200
30
0
11
-38.0018336427
21
188
31
0
12
-41.9981663573
22
188
32
0
13
-41.9981663573
23
188
33
0
0
MTEXT
5
144
100
AcDbEntity
8
DIMENSION
6
CONTINUOUS
62
7
370
0
100
AcDbMText
10
-46.025
20
220.375
30
0
40
12
41
28
71
5
72
1
1
6.35
7
standard
210
0
220
0
230
1
50
90
73
2
44
1
0
LINE
5
145
100
AcDbEntity
8
DIMENSION
6
CONTINUOUS
62
7
370
0
100
AcDbLine
10
-6.375
20
206.35
11
-40.05
21
206.35
0
LINE
5
146
100
AcDbEntity
8
DIMENSION
6
CONTINUOUS
62
7
370
0
100
AcDbLine
10
-0.025
20
200
11
-40.05
21
200
0
ENDBLK
5
86
330
84
100
AcDbEntity
8
0
100
AcDbBlockEnd
0
BLOCK
5
88
330
87
100
AcDbEntity
8
0
100
AcDbBlockBegin
2
*D19
70
1
10
0
20
0
3
*D19
1

0
LINE
5
147
100
AcDbEntity
8
DIMENSION
6
CONTINUOUS
62
7
370
0
100
AcDbLine
10
801.625
20
120.1171875
11
833.375
21
120.1171875
0
SOLID
5
148
100
AcDbEntity
8
DIMENSION
6
CONTINUOUS
62
7
370
0
100
AcDbTrace
10
801.625
20
120.1171875
30
0
11
813.625
21
122.115353857
31
0
12
813.625
22
118.119021143
32
0
13
813.625
23
118.119021143
33
0
0
SOLID
5
149
100
AcDbEntity
8
DIMENSION
6
CONTINUOUS
62
7
370
0
100
AcDbTrace
10
833.375
20
120.1171875
30
0
11
821.375
21
118.119021143
31
0
12
821.375
22
122.115353857
32
0
13
821.375
23
122.115353857
33
0
0
MTEXT
5
14A
100
AcDbEntity
8
DIMENSION
6
CONTINUOUS
62
7
370
0
100
AcDbMText
10
850.733333333
20
126.1421875
30
0
40
12
41
34.6666666667
71
5
72
1
1
31.75
7
standard
210
0
220
0
230
1
50
0
73
2
44
1
0
LINE
5
14B
100
AcDbEntity
8
DIMENSION
6
CONTINUOUS
62
7
370
0
100
AcDbLine
10
801.625
20
146.975
11
801.625
21
120.0671875
0
LINE
5
14C
100
AcDbEntity
8
DIMENSION
6
CONTINUOUS
62
7
370
0
100
AcDbLine
10
833.375
20
146.975
11
833.375
21
120.0671875
0
ENDBLK
5
89
330
87
100
AcDbEntity
8
0
100
AcDbBlockEnd
0
BLOCK
5
8B
330
8A
100
AcDbEntity
8
0
100
AcDbBlockBegin
2
*D25
70
1
10
0
20
0
3
*D25
1

0
LINE
5
14D
100
AcDbEntity
8
DIMENSION
6
CONTINUOUS
62
7
370
0
100
AcDbLine
10
225.067138672
20
161
11
225.067138672
21
224
0
SOLID
5
14E
100
AcDbEntity
8
DIMENSION
6
CONTINUOUS
62
7
370
0
100
AcDbTrace
10
225.067138672
20
185
30
0
11
227.065305029
21
173
31
0
12
223.068972315
22
173
32
0
13
223.068972315
23
173
33
0
0
SOLID
5
14F
100
AcDbEntity
8
DIMENSION
6
CONTINUOUS
62
7
370
0
100
AcDbTrace
10
225.067138672
20
200
30
0
11
223.068972315
21
212
31
0
12
227.065305029
22
212
32
0
13
227.065305029
23
212
33
0
0
MTEXT
5
150
100
AcDbEntity
8
DIMENSION
6
CONTINUOUS
62
7
370
0
100
AcDbMText
10
219.042138672
20
192.5
30
0
40
12
41
12
71
5
72
1
1
15
7
standard
210
0
220
0
230
1
50
90
73
2
44
1
0
LINE
5
151
100
AcDbEntity
8
DIMENSION
6
CONTINUOUS
62
7
370
0
100
AcDbLine
10
247.475
20
185
11
225.017138672
21
185
0
LINE
5
152
100
AcDbEntity
8
DIMENSION
6
CONTINUOUS
62
7
370
0
100
AcDbLine
10
-0.025
20
200
11
225.017138672
21
200
0
ENDBLK
5
8C
330
8A
100
AcDbEntity
8
0
100
AcDbBlockEnd
0
BLOCK
5
8E
330
8D
100
AcDbEntity
8
0
100
AcDbBlockBegin
2
*D21
70
1
10
0
20
0
3
*D21
1

0
LINE
5
153
100
AcDbEntity
8
DIMENSION
6
CONTINUOUS
62
7
370
0
100
AcDbLine
10
792.5
20
163.57421875
11
842.5
21
163.57421875
0
SOLID
5
154
100
AcDbEntity
8
DIMENSION
6
CONTINUOUS
62
7
370
0
100
AcDbTrace
10
792.5
20
163.57421875
30
0
11
804.5
21
165.572385107
31
0
12
804.5
22
161.576052393
32
0
13
804.5
23
161.576052393
33
0
0
SOLID
5
155
100
AcDbEntity
8
DIMENSION
6
CONTINUOUS
62
7
370
0
100
AcDbTrace
10
842.5
20
163.57421875
30
0
11
830.5
21
161.576052393
31
0
12
830.5
22
165.572385107
32
0
13
830.5
23
165.572385107
33
0
0
MTEXT
5
156
100
AcDbEntity
8
DIMENSION
6
CONTINUOUS
62
7
370
0
100
AcDbMText
10
817.5
20
169.59921875
30
0
40
12
41
14.6666666667
71
5
72
1
1
50
7
standard
210
0
220
0
230
1
50
0
73
2
44
1
0
LINE
5
157
100
AcDbEntity
8
DIMENSION
6
CONTINUOUS
62
7
370
0
100
AcDbLine
10
792.5
20
181.975
11
792.5
21
163.52421875
0
LINE
5
158
100
AcDbEntity
8
DIMENSION
6
CONTINUOUS
62
7
370
0
100
AcDbLine
10
842.5
20
181.975
11
842.5
21
163.52421875
0
ENDBLK
5
8F
330
8D
100
AcDbEntity
8
0
100
AcDbBlockEnd
0
BLOCK
5
91
330
90
100
AcDbEntity
8
0
100
AcDbBlockBegin
2
*D2
70
1
10
0
20
0
3
*D2
1

0
LINE
5
159
100
AcDbEntity
8
DIMENSION
6
CONTINUOUS
62
7
370
0
100
AcDbLine
10
-6.35
20
-60.2722167969
11
1096.35
21
-60.2722167969
0
SOLID
5
15A
100
AcDbEntity
8
DIMENSION
6
CONTINUOUS
62
7
370
0
100
AcDbTrace
10
-6.35
20
-60.2722167969
30
0
11
5.65
21
-58.2740504396
31
0
12
5.65
22
-62.2703831542
32
0
13
5.65
23
-62.2703831542
33
0
0
SOLID
5
15B
100
AcDbEntity
8
DIMENSION
6
CONTINUOUS
62
7
370
0
100
AcDbTrace
10
1096.35
20
-60.2722167969
30
0
11
1084.35
21
-62.2703831542
31
0
12
1084.35
22
-58.2740504396
32
0
13
1084.35
23
-58.2740504396
33
0
0
MTEXT
5
15C
100
AcDbEntity
8
DIMENSION
6
CONTINUOUS
62
7
370
0
100
AcDbMText
10
545
20
-54.2472167969
30
0
40
12
41
41.3333333333
71
5
72
1
1
1102.7
7
standard
210
0
220
0
230
1
50
0
73
2
44
1
0
LINE
5
15D
100
AcDbEntity
8
DIMENSION
6
CONTINUOUS
62
7
370
0
100
AcDbLine
10
-6.35
20
-0.0249999999999
11
-6.35
21
-60.3222167969
0
LINE
5
15E
100
AcDbEntity
8
DIMENSION
6
CONTINUOUS
62
7
370
0
100
AcDbLine
10
1096.35
20
-0.025
11
1096.35
21
-60.3222167969
0
ENDBLK
5
92
330
90
100
AcDbEntity
8
0
100
AcDbBlockEnd
0
BLOCK
5
94
330
93
100
AcDbEntity
8
0
100
AcDbBlockBegin
2
*D44
70
1
10
0
20
0
3
*D44
1

0
LINE
5
15F
100
AcDbEntity
8
DIMENSION
6
CONTINUOUS
62
7
370
0
100
AcDbLine
10
1117.67578125
20
100
11
1117.67578125
21
0
0
SOLID
5
160
100
AcDbEntity
8
DIMENSION
6
CONTINUOUS
62
7
370
0
100
AcDbTrace
10
1117.67578125
20
100
30
0
11
1119.67394761
21
88
31
0
12
1115.67761489
22
88
32
0
13
1115.67761489
23
88
33
0
0
SOLID
5
161
100
AcDbEntity
8
DIMENSION
6
CONTINUOUS
62
7
370
0
100
AcDbTrace
10
1117.67578125
20
0
30
0
11
1115.67761489
21
12
31
0
12
1119.67394761
22
12
32
0
13
1119.67394761
23
12
33
0
0
MTEXT
5
162
100
AcDbEntity
8
DIMENSION
6
CONTINUOUS
62
7
370
0
100
AcDbMText
10
1111.65078125
20
50
30
0
40
12
41
21.3333333333
71
5
72
1
1
100
7
standard
210
0
220
0
230
1
50
90
73
2
44
1
0
LINE
5
163
100
AcDbEntity
8
DIMENSION
6
CONTINUOUS
62
7
370
0
100
AcDbLine
10
1078.025
20
100
11
1117.72578125
21
100
0
LINE
5
164
100
AcDbEntity
8
DIMENSION
6
CONTINUOUS
62
7
370
0
100
AcDbLine
10
1090.025
20
0
11
1117.72578125
21
0
0
ENDBLK
5
95
330
93
100
AcDbEntity
8
0
100
AcDbBlockEnd
0
BLOCK
5
97
330
96
100
AcDbEntity
8
0
100
AcDbBlockBegin
2
*D12
70
1
10
0
20
0
3
*D12
1

0
LINE
5
165
100
AcDbEntity
8
DIMENSION
6
CONTINUOUS
62
7
370
0
100
AcDbLine
10
880.37109375
20
39
11
880.37109375
21
-24
0
SOLID
5
166
100
AcDbEntity
8
DIMENSION
6
CONTINUOUS
62
7
370
0
100
AcDbTrace
10
880.37109375
20
15
30
0
11
878.372927393
21
27
31
0
12
882.369260107
22
27
32
0
13
882.369260107
23
27
33
0
0
SOLID
5
167
100
AcDbEntity
8
DIMENSION
6
CONTINUOUS
62
7
370
0
100
AcDbTrace
10
880.37109375
20
0
30
0
11
882.369260107
21
-12
31
0
12
878.372927393
22
-12
32
0
13
878.372927393
23
-12
33
0
0
MTEXT
5
168
100
AcDbEntity
8
DIMENSION
6
CONTINUOUS
62
7
370
0
100
AcDbMText
10
874.34609375
20
7.5
30
0
40
12
41
12
71
5
72
1
1
15
7
standard
210
0
220
0
230
1
50
90
73
2
44
1
0
LINE
5
169
100
AcDbEntity
8
DIMENSION
6
CONTINUOUS
62
7
370
0
100
AcDbLine
10
842.525
20
15
11
880.42109375
21
15
0
LINE
5
16A
100
AcDbEntity
8
DIMENSION
6
CONTINUOUS
62
7
370
0
100
AcDbLine
10
1090.025
20
0
11
880.42109375
21
0
0
ENDBLK
5
98
330
96
100
AcDbEntity
8
0
100
AcDbBlockEnd
0
BLOCK
5
9A
330
99
100
AcDbEntity
8
0
100
AcDbBlockBegin
2
*D13
70
1
10
0
20
0
3
*D13
1

0
LINE
5
16B
100
AcDbEntity
8
DIMENSION
6
CONTINUOUS
62
7
370
0
100
AcDbLine
10
34.66796875
20
125
11
34.66796875
21
75
0
SOLID
5
16C
100
AcDbEntity
8
DIMENSION
6
CONTINUOUS
62
7
370
0
100
AcDbTrace
10
34.66796875
20
125
30
0
11
36.6661351073
21
113
31
0
12
32.6698023927
22
113
32
0
13
32.6698023927
23
113
33
0
0
SOLID
5
16D
100
AcDbEntity
8
DIMENSION
6
CONTINUOUS
62
7
370
0
100
AcDbTrace
10
34.66796875
20
75
30
0
11
32.6698023927
21
87
31
0
12
36.6661351073
22
87
32
0
13
36.6661351073
23
87
33
0
0
MTEXT
5
16E
100
AcDbEntity
8
DIMENSION
6
CONTINUOUS
62
7
370
0
100
AcDbMText
10
28.64296875
20
100
30
0
40
12
41
14.6666666667
71
5
72
1
1
50
7
standard
210
0
220
0
230
1
50
90
73
2
44
1
0
LINE
5
16F
100
AcDbEntity
8
DIMENSION
6
CONTINUOUS
62
7
370
0
100
AcDbLine
10
18.025
20
125
11
34.71796875
21
125
0
LINE
5
170
100
AcDbEntity
8
DIMENSION
6
CONTINUOUS
62
7
370
0
100
AcDbLine
10
18.025
20
75
11
34.71796875
21
75
0
ENDBLK
5
9B
330
99
100
AcDbEntity
8
0
100
AcDbBlockEnd
0
BLOCK
5
9D
330
9C
100
AcDbEntity
8
0
100
AcDbBlockBegin
2
*D5
70
1
10
0
20
0
3
*D5
1

0
LINE
5
171
100
AcDbEntity
8
DIMENSION
6
CONTINUOUS
62
7
370
0
100
AcDbLine
10
-12
20
59.25
11
42
21
59.25
0
SOLID
5
172
100
AcDbEntity
8
DIMENSION
6
CONTINUOUS
62
7
370
0
100
AcDbTrace
10
12
20
59.25
30
0
11
0
21
57.2518336427
31
0
12
0
22
61.2481663573
32
0
13
0
23
61.2481663573
33
0
0
SOLID
5
173
100
AcDbEntity
8
DIMENSION
6
CONTINUOUS
62
7
370
0
100
AcDbTrace
10
18
20
59.25
30
0
11
30
21
61.2481663573
31
0
12
30
22
57.2518336427
32
0
13
30
23
57.2518336427
33
0
0
MTEXT
5
174
100
AcDbEntity
8
DIMENSION
6
CONTINUOUS
62
7
370
0
100
AcDbMText
10
15
20
65.275
30
0
40
12
41
5.33333333333
71
5
72
1
1
6
7
standard
210
0
220
0
230
1
50
0
73
2
44
1
0
LINE
5
175
100
AcDbEntity
8
DIMENSION
6
CONTINUOUS
62
7
370
0
100
AcDbLine
10
12
20
74.975
11
12
21
59.2
0
LINE
5
176
100
AcDbEntity
8
DIMENSION
6
CONTINUOUS
62
7
370
0
100
AcDbLine
10
18
20
74.975
11
18
21
59.2
0
ENDBLK
5
9E
330
9C
100
AcDbEntity
8
0
100
AcDbBlockEnd
0
BLOCK
5
A0
330
9F
100
AcDbEntity
8
0
100
AcDbBlockBegin
2
*D4
70
1
10
0
20
0
3
*D4
1

0
LINE
5
177
100
AcDbEntity
8
DIMENSION
6
CONTINUOUS
62
7
370
0
100
AcDbLine
10
1168.45703125
20
0
11
1168.45703125
21
206.35
0
SOLID
5
178
100
AcDbEntity
8
DIMENSION
6
CONTINUOUS
62
7
370
0
100
AcDbTrace
10
1168.45703125
20
0
30
0
11
1166.45886489
21
12
31
0
12
1170.45519761
22
12
32
0
13
1170.45519761
23
12
33
0
0
SOLID
5
179
100
AcDbEntity
8
DIMENSION
6
CONTINUOUS
62
7
370
0
100
AcDbTrace
10
1168.45703125
20
206.35
30
0
11
1170.45519761
21
194.35
31
0
12
1166.45886489
22
194.35
32
0
13
1166.45886489
23
194.35
33
0
0
MTEXT
5
17A
100
AcDbEntity
8
DIMENSION
6
CONTINUOUS
62
7
370
0
100
AcDbMText
10
1162.43203125
20
103.175
30
0
40
12
41
46.6666666667
71
5
72
1
1
206.35
7
standard
210
0
220
0
230
1
50
90
73
2
44
1
0
LINE
5
17B
100
AcDbEntity
8
DIMENSION
6
CONTINUOUS
62
7
370
0
100
AcDbLine
10
1096.375
20
0
11
1168.50703125
21
0
0
LINE
5
17C
100
AcDbEntity
8
DIMENSION
6
CONTINUOUS
62
7
370
0
100
AcDbLine
10
1096.375
20
206.35
11
1168.50703125
21
206.35
0
ENDBLK
5
A1
330
9F
100
AcDbEntity
8
0
100
AcDbBlockEnd
0
BLOCK
5
A3
330
A2
100
AcDbEntity
8
0
100
AcDbBlockBegin
2
*D29
70
1
10
0
20
0
3
*D29
1

0
LINE
5
17D
100
AcDbEntity
8
DIMENSION
6
CONTINUOUS
62
7
370
0
100
AcDbLine
10
192.260742188
20
200
11
192.260742188
21
147
0
SOLID
5
17E
100
AcDbEntity
8
DIMENSION
6
CONTINUOUS
62
7
370
0
100
AcDbTrace
10
192.260742188
20
200
30
0
11
194.258908545
21
188
31
0
12
190.26257583
22
188
32
0
13
190.26257583
23
188
33
0
0
SOLID
5
17F
100
AcDbEntity
8
DIMENSION
6
CONTINUOUS
62
7
370
0
100
AcDbTrace
10
192.260742188
20
147
30
0
11
190.26257583
21
159
31
0
12
194.258908545
22
159
32
0
13
194.258908545
23
159
33
0
0
MTEXT
5
180
100
AcDbEntity
8
DIMENSION
6
CONTINUOUS
62
7
370
0
100
AcDbMText
10
186.235742188
20
173.5
30
0
40
12
41
14.6666666667
71
5
72
1
1
53
7
standard
210
0
220
0
230
1
50
90
73
2
44
1
0
LINE
5
181
100
AcDbEntity
8
DIMENSION
6
CONTINUOUS
62
7
370
0
100
AcDbLine
10
0.025
20
200
11
192.310742188
21
200
0
LINE
5
182
100
AcDbEntity
8
DIMENSION
6
CONTINUOUS
62
7
370
0
100
AcDbLine
10
256.65
20
147
11
192.310742188
21
147
0
ENDBLK
5
A4
330
A2
100
AcDbEntity
8
0
100
AcDbBlockEnd
0
BLOCK
5
A6
330
A5
100
AcDbEntity
8
0
100
AcDbBlockBegin
2
*D40
70
1
10
0
20
0
3
*D40
1

0
LINE
5
183
100
AcDbEntity
8
DIMENSION
6
CONTINUOUS
62
7
370
0
100
AcDbLine
10
0
20
217.7734375
11
272.5
21
217.7734375
0
SOLID
5
184
100
AcDbEntity
8
DIMENSION
6
CONTINUOUS
62
7
370
0
100
AcDbTrace
10
0
20
217.7734375
30
0
11
12
21
219.771603857
31
0
12
12
22
215.775271143
32
0
13
12
23
215.775271143
33
0
0
SOLID
5
185
100
AcDbEntity
8
DIMENSION
6
CONTINUOUS
62
7
370
0
100
AcDbTrace
10
272.5
20
217.7734375
30
0
11
260.5
21
215.775271143
31
0
12
260.5
22
219.771603857
32
0
13
260.5
23
219.771603857
33
0
0
MTEXT
5
186
100
AcDbEntity
8
DIMENSION
6
CONTINUOUS
62
7
370
0
100
AcDbMText
10
136.25
20
223.7984375
30
0
40
12
41
37.3333333333
71
5
72
1
1
272.5
7
standard
210
0
220
0
230
1
50
0
73
2
44
1
0
LINE
5
187
100
AcDbEntity
8
DIMENSION
6
CONTINUOUS
62
7
370
0
100
AcDbLine
10
1.53080849893e-18
20
200.025
11
3.06161699787e-18
21
217.8234375
0
LINE
5
188
100
AcDbEntity
8
DIMENSION
6
CONTINUOUS
62
7
370
0
100
AcDbLine
10
272.5
20
188.025
11
272.5
21
217.8234375
0
ENDBLK
5
A7
330
A5
100
AcDbEntity
8
0
100
AcDbBlockEnd
0
BLOCK
5
A9
330
A8
100
AcDbEntity
8
0
100
AcDbBlockBegin
2
*D31
70
1
10
0
20
0
3
*D31
1

0
LINE
5
189
100
AcDbEntity
8
DIMENSION
6
CONTINUOUS
62
7
370
0
100
AcDbLine
10
924.8046875
20
53
11
924.8046875
21
0
0
SOLID
5
18A
100
AcDbEntity
8
DIMENSION
6
CONTINUOUS
62
7
370
0
100
AcDbTrace
10
924.8046875
20
53
30
0
11
926.802853857
21
41
31
0
12
922.806521143
22
41
32
0
13
922.806521143
23
41
33
0
0
SOLID
5
18B
100
AcDbEntity
8
DIMENSION
6
CONTINUOUS
62
7
370
0
100
AcDbTrace
10
924.8046875
20
0
30
0
11
922.806521143
21
12
31
0
12
926.802853857
22
12
32
0
13
926.802853857
23
12
33
0
0
MTEXT
5
18C
100
AcDbEntity
8
DIMENSION
6
CONTINUOUS
62
7
370
0
100
AcDbMText
10
918.7796875
20
26.5
30
0
40
12
41
14.6666666667
71
5
72
1
1
53
7
standard
210
0
220
0
230
1
50
90
73
2
44
1
0
LINE
5
18D
100
AcDbEntity
8
DIMENSION
6
CONTINUOUS
62
7
370
0
100
AcDbLine
10
833.4
20
53
11
924.8546875
21
53
0
LINE
5
18E
100
AcDbEntity
8
DIMENSION
6
CONTINUOUS
62
7
370
0
100
AcDbLine
10
1090.025
20
0
11
924.8546875
21
0
0
ENDBLK
5
AA
330
A8
100
AcDbEntity
8
0
100
AcDbBlockEnd
0
BLOCK
5
AC
330
AB
100
AcDbEntity
8
0
100
AcDbBlockBegin
2
*D43
70
1
10
0
20
0
3
*D43
1

0
LINE
5
18F
100
AcDbEntity
8
DIMENSION
6
CONTINUOUS
62
7
370
0
100
AcDbLine
10
817.5
20
-21.3623046875
11
1090
21
-21.3623046875
0
SOLID
5
190
100
AcDbEntity
8
DIMENSION
6
CONTINUOUS
62
7
370
0
100
AcDbTrace
10
817.5
20
-21.3623046875
30
0
11
829.5
21
-19.3641383302
31
0
12
829.5
22
-23.3604710448
32
0
13
829.5
23
-23.3604710448
33
0
0
SOLID
5
191
100
AcDbEntity
8
DIMENSION
6
CONTINUOUS
62
7
370
0
100
AcDbTrace
10
1090
20
-21.3623046875
30
0
11
1078
21
-23.3604710448
31
0
12
1078
22
-19.3641383302
32
0
13
1078
23
-19.3641383302
33
0
0
MTEXT
5
192
100
AcDbEntity
8
DIMENSION
6
CONTINUOUS
62
7
370
0
100
AcDbMText
10
953.75
20
-15.3373046875
30
0
40
12
41
37.3333333333
71
5
72
1
1
272.5
7
standard
210
0
220
0
230
1
50
0
73
2
44
1
0
LINE
5
193
100
AcDbEntity
8
DIMENSION
6
CONTINUOUS
62
7
370
0
100
AcDbLine
10
817.5
20
11.975
11
817.5
21
-21.4123046875
0
LINE
5
194
100
AcDbEntity
8
DIMENSION
6
CONTINUOUS
62
7
370
0
100
AcDbLine
10
1090
20
-0.025
11
1090
21
-21.4123046875
0
ENDBLK
5
AD
330
AB
100
AcDbEntity
8
0
100
AcDbBlockEnd
0
BLOCK
5
AF
330
AE
100
AcDbEntity
8
0
100
AcDbBlockBegin
2
*D37
70
1
10
0
20
0
3
*D37
1

0
LINE
5
195
100
AcDbEntity
8
DIMENSION
6
CONTINUOUS
62
7
370
0
100
AcDbLine
10
1048
20
53.515625
11
1102
21
53.515625
0
SOLID
5
196
100
AcDbEntity
8
DIMENSION
6
CONTINUOUS
62
7
370
0
100
AcDbTrace
10
1072
20
53.515625
30
0
11
1060
21
51.5174586427
31
0
12
1060
22
55.5137913573
32
0
13
1060
23
55.5137913573
33
0
0
SOLID
5
197
100
AcDbEntity
8
DIMENSION
6
CONTINUOUS
62
7
370
0
100
AcDbTrace
10
1078
20
53.515625
30
0
11
1090
21
55.5137913573
31
0
12
1090
22
51.5174586427
32
0
13
1090
23
51.5174586427
33
0
0
MTEXT
5
198
100
AcDbEntity
8
DIMENSION
6
CONTINUOUS
62
7
370
0
100
AcDbMText
10
1075
20
59.540625
30
0
40
12
41
5.33333333333
71
5
72
1
1
6
7
standard
210
0
220
0
230
1
50
0
73
2
44
1
0
LINE
5
199
100
AcDbEntity
8
DIMENSION
6
CONTINUOUS
62
7
370
0
100
AcDbLine
10
1072
20
74.975
11
1072
21
53.465625
0
LINE
5
19A
100
AcDbEntity
8
DIMENSION
6
CONTINUOUS
62
7
370
0
100
AcDbLine
10
1078
20
74.975
11
1078
21
53.465625
0
ENDBLK
5
B0
330
AE
100
AcDbEntity
8
0
100
AcDbBlockEnd
0
BLOCK
5
B2
330
B1
100
AcDbEntity
8
0
100
AcDbBlockBegin
2
*D6
70
1
10
0
20
0
3
*D6
1

0
LINE
5
19B
100
AcDbEntity
8
DIMENSION
6
CONTINUOUS
62
7
370
0
100
AcDbLine
10
-24
20
136.71875
11
39
21
136.71875
0
SOLID
5
19C
100
AcDbEntity
8
DIMENSION
6
CONTINUOUS
62
7
370
0
100
AcDbTrace
10
0
20
136.71875
30
0
11
-12
21
134.720583643
31
0
12
-12
22
138.716916357
32
0
13
-12
23
138.716916357
33
0
0
SOLID
5
19D
100
AcDbEntity
8
DIMENSION
6
CONTINUOUS
62
7
370
0
100
AcDbTrace
10
15
20
136.71875
30
0
11
27
21
138.716916357
31
0
12
27
22
134.720583643
32
0
13
27
23
134.720583643
33
0
0
MTEXT
5
19E
100
AcDbEntity
8
DIMENSION
6
CONTINUOUS
62
7
370
0
100
AcDbMText
10
7.5
20
142.74375
30
0
40
12
41
12
71
5
72
1
1
15
7
standard
210
0
220
0
230
1
50
0
73
2
44
1
0
LINE
5
19F
100
AcDbEntity
8
DIMENSION
6
CONTINUOUS
62
7
370
0
100
AcDbLine
10
-4.5924254968e-18
20
199.975
11
-9.18485099361e-18
21
136.66875
0
LINE
5
1A0
100
AcDbEntity
8
DIMENSION
6
CONTINUOUS
62
7
370
0
100
AcDbLine
10
15
20
124.975
11
15
21
136.66875
0
ENDBLK
5
B3
330
B1
100
AcDbEntity
8
0
100
AcDbBlockEnd
0
BLOCK
5
B5
330
B4
100
AcDbEntity
8
0
100
AcDbBlockBegin
2
*D14
70
1
10
0
20
0
3
*D14
1

0
LINE
5
1A1
100
AcDbEntity
8
DIMENSION
6
CONTINUOUS
62
7
370
0
100
AcDbLine
10
247.5
20
31.73828125
11
297.5
21
31.73828125
0
SOLID
5
1A2
100
AcDbEntity
8
DIMENSION
6
CONTINUOUS
62
7
370
0
100
AcDbTrace
10
247.5
20
31.73828125
30
0
11
259.5
21
33.7364476073
31
0
12
259.5
22
29.7401148927
32
0
13
259.5
23
29.7401148927
33
0
0
SOLID
5
1A3
100
AcDbEntity
8
DIMENSION
6
CONTINUOUS
62
7
370
0
100
AcDbTrace
10
297.5
20
31.73828125
30
0
11
285.5
21
29.7401148927
31
0
12
285.5
22
33.7364476073
32
0
13
285.5
23
33.7364476073
33
0
0
MTEXT
5
1A4
100
AcDbEntity
8
DIMENSION
6
CONTINUOUS
62
7
370
0
100
AcDbMText
10
272.5
20
37.76328125
30
0
40
12
41
14.6666666667
71
5
72
1
1
50
7
standard
210
0
220
0
230
1
50
0
73
2
44
1
0
LINE
5
1A5
100
AcDbEntity
8
DIMENSION
6
CONTINUOUS
62
7
370
0
100
AcDbLine
10
247.5
20
18.025
11
247.5
21
31.78828125
0
LINE
5
1A6
100
AcDbEntity
8
DIMENSION
6
CONTINUOUS
62
7
370
0
100
AcDbLine
10
297.5
20
18.025
11
297.5
21
31.78828125
0
ENDBLK
5
B6
330
B4
100
AcDbEntity
8
0
100
AcDbBlockEnd
0
BLOCK
5
B8
330
B7
100
AcDbEntity
8
0
100
AcDbBlockBegin
2
*D33
70
1
10
0
20
0
3
*D33
1

0
LINE
5
1A7
100
AcDbEntity
8
DIMENSION
6
CONTINUOUS
62
7
370
0
100
AcDbLine
10
24
20
228.881835938
11
-30.35
21
228.881835938
0
SOLID
5
1A8
100
AcDbEntity
8
DIMENSION
6
CONTINUOUS
62
7
370
0
100
AcDbTrace
10
0
20
228.881835938
30
0
11
12
21
230.880002295
31
0
12
12
22
226.88366958
32
0
13
12
23
226.88366958
33
0
0
SOLID
5
1A9
100
AcDbEntity
8
DIMENSION
6
CONTINUOUS
62
7
370
0
100
AcDbTrace
10
-6.35
20
228.881835938
30
0
11
-18.35
21
226.88366958
31
0
12
-18.35
22
230.880002295
32
0
13
-18.35
23
230.880002295
33
0
0
MTEXT
5
1AA
100
AcDbEntity
8
DIMENSION
6
CONTINUOUS
62
7
370
0
100
AcDbMText
10
14.025
20
234.906835938
30
0
40
12
41
28
71
5
72
1
1
6.35
7
standard
210
0
220
0
230
1
50
360
73
2
44
1
0
LINE
5
1AB
100
AcDbEntity
8
DIMENSION
6
CONTINUOUS
62
7
370
0
100
AcDbLine
10
1.53080849893e-18
20
200.025
11
3.06161699787e-18
21
228.931835938
0
LINE
5
1AC
100
AcDbEntity
8
DIMENSION
6
CONTINUOUS
62
7
370
0
100
AcDbLine
10
-6.35
20
206.375
11
-6.35
21
228.931835938
0
ENDBLK
5
B9
330
B7
100
AcDbEntity
8
0
100
AcDbBlockEnd
0
BLOCK
5
BB
330
BA
100
AcDbEntity
8
0
100
AcDbBlockBegin
2
*D9
70
1
10
0
20
0
3
*D9
1

0
LINE
5
1AD
100
AcDbEntity
8
DIMENSION
6
CONTINUOUS
62
7
370
0
100
AcDbLine
10
-51.26953125
20
1.42108547152e-13
11
-51.26953125
21
100
0
SOLID
5
1AE
100
AcDbEntity
8
DIMENSION
6
CONTINUOUS
62
7
370
0
100
AcDbTrace
10
-51.26953125
20
1.42108547152e-13
30
0
11
-53.2676976073
21
12
31
0
12
-49.2713648927
22
12
32
0
13
-49.2713648927
23
12
33
0
0
SOLID
5
1AF
100
AcDbEntity
8
DIMENSION
6
CONTINUOUS
62
7
370
0
100
AcDbTrace
10
-51.26953125
20
100
30
0
11
-49.2713648927
21
88
31
0
12
-53.2676976073
22
88
32
0
13
-53.2676976073
23
88
33
0
0
MTEXT
5
1B0
100
AcDbEntity
8
DIMENSION
6
CONTINUOUS
62
7
370
0
100
AcDbMText
10
-57.29453125
20
50
30
0
40
12
41
21.3333333333
71
5
72
1
1
100
7
standard
210
0
220
0
230
1
50
90
73
2
44
1
0
LINE
5
1B1
100
AcDbEntity
8
DIMENSION
6
CONTINUOUS
62
7
370
0
100
AcDbLine
10
-0.025
20
1.42111608769e-13
11
-51.31953125
21
1.42114670386e-13
0
LINE
5
1B2
100
AcDbEntity
8
DIMENSION
6
CONTINUOUS
62
7
370
0
100
AcDbLine
10
11.975
20
100
11
-51.31953125
21
100
0
ENDBLK
5
BC
330
BA
100
AcDbEntity
8
0
100
AcDbBlockEnd
0
BLOCK
5
BE
330
BD
100
AcDbEntity
8
0
100
AcDbBlockBegin
2
*D28
70
1
10
0
20
0
3
*D28
1

0
LINE
5
1B3
100
AcDbEntity
8
DIMENSION
6
CONTINUOUS
62
7
370
0
100
AcDbLine
10
192.1875
20
53
11
192.1875
21
1.42108547152e-13
0
SOLID
5
1B4
100
AcDbEntity
8
DIMENSION
6
CONTINUOUS
62
7
370
0
100
AcDbTrace
10
192.1875
20
53
30
0
11
194.185666357
21
41
31
0
12
190.189333643
22
41
32
0
13
190.189333643
23
41
33
0
0
SOLID
5
1B5
100
AcDbEntity
8
DIMENSION
6
CONTINUOUS
62
7
370
0
100
AcDbTrace
10
192.1875
20
1.42108547152e-13
30
0
11
190.189333643
21
12
31
0
12
194.185666357
22
12
32
0
13
194.185666357
23
12
33
0
0
MTEXT
5
1B6
100
AcDbEntity
8
DIMENSION
6
CONTINUOUS
62
7
370
0
100
AcDbMText
10
186.1625
20
26.5
30
0
40
12
41
14.6666666667
71
5
72
1
1
53
7
standard
210
0
220
0
230
1
50
90
73
2
44
1
0
LINE
5
1B7
100
AcDbEntity
8
DIMENSION
6
CONTINUOUS
62
7
370
0
100
AcDbLine
10
256.6
20
53
11
192.1375
21
53
0
LINE
5
1B8
100
AcDbEntity
8
DIMENSION
6
CONTINUOUS
62
7
370
0
100
AcDbLine
10
-0.025
20
1.42111608769e-13
11
192.1375
21
1.42114670386e-13
0
ENDBLK
5
BF
330
BD
100
AcDbEntity
8
0
100
AcDbBlockEnd
0
BLOCK
5
C1
330
C0
100
AcDbEntity
8
0
100
AcDbBlockBegin
2
*D30
70
1
10
0
20
0
3
*D30
1

0
LINE
5
1B9
100
AcDbEntity
8
DIMENSION
6
CONTINUOUS
62
7
370
0
100
AcDbLine
10
777.34375
20
42
11
777.34375
21
-12
0
SOLID
5
1BA
100
AcDbEntity
8
DIMENSION
6
CONTINUOUS
62
7
370
0
100
AcDbTrace
10
777.34375
20
18
30
0
11
775.345583643
21
30
31
0
12
779.341916357
22
30
32
0
13
779.341916357
23
30
33
0
0
SOLID
5
1BB
100
AcDbEntity
8
DIMENSION
6
CONTINUOUS
62
7
370
0
100
AcDbTrace
10
777.34375
20
12
30
0
11
779.341916357
21
0
31
0
12
775.345583643
22
0
32
0
13
775.345583643
23
0
33
0
0
MTEXT
5
1BC
100
AcDbEntity
8
DIMENSION
6
CONTINUOUS
62
7
370
0
100
AcDbMText
10
771.31875
20
15
30
0
40
12
41
5.33333333333
71
5
72
1
1
6
7
standard
210
0
220
0
230
1
50
90
73
2
44
1
0
LINE
5
1BD
100
AcDbEntity
8
DIMENSION
6
CONTINUOUS
62
7
370
0
100
AcDbLine
10
792.475
20
18
11
777.29375
21
18
0
LINE
5
1BE
100
AcDbEntity
8
DIMENSION
6
CONTINUOUS
62
7
370
0
100
AcDbLine
10
792.475
20
12
11
777.29375
21
12
0
ENDBLK
5
C2
330
C0
100
AcDbEntity
8
0
100
AcDbBlockEnd
0
BLOCK
5
C4
330
C3
100
AcDbEntity
8
0
100
AcDbBlockBegin
2
*D41
70
1
10
0
20
0
3
*D41
1

0
LINE
5
1BF
100
AcDbEntity
8
DIMENSION
6
CONTINUOUS
62
7
370
0
100
AcDbLine
10
817.5
20
219.53125
11
1090
21
219.53125
0
SOLID
5
1C0
100
AcDbEntity
8
DIMENSION
6
CONTINUOUS
62
7
370
0
100
AcDbTrace
10
817.5
20
219.53125
30
0
11
829.5
21
221.529416357
31
0
12
829.5
22
217.533083643
32
0
13
829.5
23
217.533083643
33
0
0
SOLID
5
1C1
100
AcDbEntity
8
DIMENSION
6
CONTINUOUS
62
7
370
0
100
AcDbTrace
10
1090
20
219.53125
30
0
11
1078
21
217.533083643
31
0
12
1078
22
221.529416357
32
0
13
1078
23
221.529416357
33
0
0
MTEXT
5
1C2
100
AcDbEntity
8
DIMENSION
6
CONTINUOUS
62
7
370
0
100
AcDbMText
10
953.75
20
225.55625
30
0
40
12
41
37.3333333333
71
5
72
1
1
272.5
7
standard
210
0
220
0
230
1
50
0
73
2
44
1
0
LINE
5
1C3
100
AcDbEntity
8
DIMENSION
6
CONTINUOUS
62
7
370
0
100
AcDbLine
10
817.5
20
188.025
11
817.5
21
219.58125
0
LINE
5
1C4
100
AcDbEntity
8
DIMENSION
6
CONTINUOUS
62
7
370
0
100
AcDbLine
10
1090
20
200.025
11
1090
21
219.58125
0
ENDBLK
5
C5
330
C3
100
AcDbEntity
8
0
100
AcDbBlockEnd
0
BLOCK
5
C7
330
C6
100
AcDbEntity
8
0
100
AcDbBlockBegin
2
*D16
70
1
10
0
20
0
3
*D16
1

0
LINE
5
1C5
100
AcDbEntity
8
DIMENSION
6
CONTINUOUS
62
7
370
0
100
AcDbLine
10
256.625
20
67.138671875
11
288.375
21
67.138671875
0
SOLID
5
1C6
100
AcDbEntity
8
DIMENSION
6
CONTINUOUS
62
7
370
0
100
AcDbTrace
10
256.625
20
67.138671875
30
0
11
268.625
21
69.1368382323
31
0
12
268.625
22
65.1405055177
32
0
13
268.625
23
65.1405055177
33
0
0
SOLID
5
1C7
100
AcDbEntity
8
DIMENSION
6
CONTINUOUS
62
7
370
0
100
AcDbTrace
10
288.375
20
67.138671875
30
0
11
276.375
21
65.1405055177
31
0
12
276.375
22
69.1368382323
32
0
13
276.375
23
69.1368382323
33
0
0
MTEXT
5
1C8
100
AcDbEntity
8
DIMENSION
6
CONTINUOUS
62
7
370
0
100
AcDbMText
10
305.733333333
20
73.163671875
30
0
40
12
41
34.6666666667
71
5
72
1
1
31.75
7
standard
210
0
220
0
230
1
50
0
73
2
44
1
0
LINE
5
1C9
100
AcDbEntity
8
DIMENSION
6
CONTINUOUS
62
7
370
0
100
AcDbLine
10
256.625
20
53.025
11
256.625
21
67.188671875
0
LINE
5
1CA
100
AcDbEntity
8
DIMENSION
6
CONTINUOUS
62
7
370
0
100
AcDbLine
10
288.375
20
53.025
11
288.375
21
67.188671875
0
ENDBLK
5
C8
330
C6
100
AcDbEntity
8
0
100
AcDbBlockEnd
0
BLOCK
5
CA
330
C9
100
AcDbEntity
8
0
100
AcDbBlockBegin
2
*D8
70
1
10
0
20
0
3
*D8
1

0
LINE
5
1CB
100
AcDbEntity
8
DIMENSION
6
CONTINUOUS
62
7
370
0
100
AcDbLine
10
83.984375
20
115.875
11
83.984375
21
84.125
0
SOLID
5
1CC
100
AcDbEntity
8
DIMENSION
6
CONTINUOUS
62
7
370
0
100
AcDbTrace
10
83.984375
20
115.875
30
0
11
85.9825413573
21
103.875
31
0
12
81.9862086427
22
103.875
32
0
13
81.9862086427
23
103.875
33
0
0
SOLID
5
1CD
100
AcDbEntity
8
DIMENSION
6
CONTINUOUS
62
7
370
0
100
AcDbTrace
10
83.984375
20
84.125
30
0
11
81.9862086427
21
96.125
31
0
12
85.9825413573
22
96.125
32
0
13
85.9825413573
23
96.125
33
0
0
MTEXT
5
1CE
100
AcDbEntity
8
DIMENSION
6
CONTINUOUS
62
7
370
0
100
AcDbMText
10
77.959375
20
133.233333333
30
0
40
12
41
34.6666666667
71
5
72
1
1
31.75
7
standard
210
0
220
0
230
1
50
90
73
2
44
1
0
LINE
5
1CF
100
AcDbEntity
8
DIMENSION
6
CONTINUOUS
62
7
370
0
100
AcDbLine
10
53.025
20
115.875
11
84.034375
21
115.875
0
LINE
5
1D0
100
AcDbEntity
8
DIMENSION
6
CONTINUOUS
62
7
370
0
100
AcDbLine
10
53.025
20
84.125
11
84.034375
21
84.125
0
ENDBLK
5
CB
330
C9
100
AcDbEntity
8
0
100
AcDbBlockEnd
0
BLOCK
5
CD
330
CC
100
AcDbEntity
8
0
100
AcDbBlockBegin
2
*D39
70
1
10
0
20
0
3
*D39
1

0
LINE
5
1D1
100
AcDbEntity
8
DIMENSION
6
CONTINUOUS
62
7
370
0
100
AcDbLine
10
1037
20
172.265625
11
1090
21
172.265625
0
SOLID
5
1D2
100
AcDbEntity
8
DIMENSION
6
CONTINUOUS
62
7
370
0
100
AcDbTrace
10
1037
20
172.265625
30
0
11
1049
21
174.263791357
31
0
12
1049
22
170.267458643
32
0
13
1049
23
170.267458643
33
0
0
SOLID
5
1D3
100
AcDbEntity
8
DIMENSION
6
CONTINUOUS
62
7
370
0
100
AcDbTrace
10
1090
20
172.265625
30
0
11
1078
21
170.267458643
31
0
12
1078
22
174.263791357
32
0
13
1078
23
174.263791357
33
0
0
MTEXT
5
1D4
100
AcDbEntity
8
DIMENSION
6
CONTINUOUS
62
7
370
0
100
AcDbMText
10
1063.5
20
178.290625
30
0
40
12
41
14.6666666667
71
5
72
1
1
53
7
standard
210
0
220
0
230
1
50
0
73
2
44
1
0
LINE
5
1D5
100
AcDbEntity
8
DIMENSION
6
CONTINUOUS
62
7
370
0
100
AcDbLine
10
1037
20
115.9
11
1037
21
172.315625
0
LINE
5
1D6
100
AcDbEntity
8
DIMENSION
6
CONTINUOUS
62
7
370
0
100
AcDbLine
10
1090
20
200.025
11
1090
21
172.315625
0
ENDBLK
5
CE
330
CC
100
AcDbEntity
8
0
100
AcDbBlockEnd
0
ENDSEC
0
SECTION
2
ENTITIES
0
LINE
5
1D7
100
AcDbEntity
8
REFERENCE
6
ByLayer
62
256
370
-1
100
AcDbLine
10
1090
20
200
11
0
21
200
0
LINE
5
1D8
100
AcDbEntity
8
REFERENCE
6
ByLayer
62
256
370
-1
100
AcDbLine
10
0
20
200
11
0
21
1.42108547152e-13
0
LINE
5
1D9
100
AcDbEntity
8
REFERENCE
6
ByLayer
62
256
370
-1
100
AcDbLine
10
0
20
1.42108547152e-13
11
1090
21
0
0
LINE
5
1DA
100
AcDbEntity
8
REFERENCE
6
ByLayer
62
256
370
-1
100
AcDbLine
10
1090
20
0
11
1090
21
200
0
LINE
5
1DB
100
AcDbEntity
8
OUTER_BOUNDARY
6
ByLayer
62
256
370
-1
100
AcDbLine
10
1096.35
20
0
11
-6.35
21
1.42108547152e-13
0
LINE
5
1DC
100
AcDbEntity
8
OUTER_BOUNDARY
6
ByLayer
62
256
370
-1
100
AcDbLine
10
-6.35
20
1.42108547152e-13
11
-6.35
21
206.35
0
LINE
5
1DD
100
AcDbEntity
8
OUTER_BOUNDARY
6
ByLayer
62
256
370
-1
100
AcDbLine
10
-6.35
20
206.35
11
1096.35
21
206.35
0
LINE
5
1DE
100
AcDbEntity
8
OUTER_BOUNDARY
6
ByLayer
62
256
370
-1
100
AcDbLine
10
1096.35
20
206.35
11
1096.35
21
0
0
LINE
5
1DF
100
AcDbEntity
8
ALIGNMENT_POCKET
6
ByLayer
62
256
370
-1
100
AcDbLine
10
12
20
75
11
18
21
75
0
LINE
5
1E0
100
AcDbEntity
8
ALIGNMENT_POCKET
6
ByLayer
62
256
370
-1
100
AcDbLine
10
18
20
75
11
18
21
125
0
LINE
5
1E1
100
AcDbEntity
8
ALIGNMENT_POCKET
6
ByLayer
62
256
370
-1
100
AcDbLine
10
18
20
125
11
12
21
125
0
LINE
5
1E2
100
AcDbEntity
8
ALIGNMENT_POCKET
6
ByLayer
62
256
370
-1
100
AcDbLine
10
12
20
125
11
12
21
75
0
LINE
5
1E3
100
AcDbEntity
8
ALIGNMENT_POCKET
6
ByLayer
62
256
370
-1
100
AcDbLine
10
1072
20
75
11
1078
21
75
0
LINE
5
1E4
100
AcDbEntity
8
ALIGNMENT_POCKET
6
ByLayer
62
256
370
-1
100
AcDbLine
10
1078
20
75
11
1078
21
125
0
LINE
5
1E5
100
AcDbEntity
8
ALIGNMENT_POCKET
6
ByLayer
62
256
370
-1
100
AcDbLine
10
1078
20
125
11
1072
21
125
0
LINE
5
1E6
100
AcDbEntity
8
ALIGNMENT_POCKET
6
ByLayer
62
256
370
-1
100
AcDbLine
10
1072
20
125
11
1072
21
75
0
LINE
5
1E7
100
AcDbEntity
8
ALIGNMENT_POCKET
6
ByLayer
62
256
370
-1
100
AcDbLine
10
247.5
20
182
11
297.5
21
182
0
LINE
5
1E8
100
AcDbEntity
8
ALIGNMENT_POCKET
6
ByLayer
62
256
370
-1
100
AcDbLine
10
792.5
20
182
11
842.5
21
182
0
LINE
5
1E9
100
AcDbEntity
8
ALIGNMENT_POCKET
6
ByLayer
62
256
370
-1
100
AcDbLine
10
247.5
20
12
11
297.5
21
12
0
LINE
5
1EA
100
AcDbEntity
8
ALIGNMENT_POCKET
6
ByLayer
62
256
370
-1
100
AcDbLine
10
792.5
20
12
11
842.5
21
12
0
CIRCLE
5
1EB
100
AcDbEntity
8
6-32_TAP_HOLE
6
ByLayer
62
256
370
-1
100
AcDbCircle
10
53
20
115.875
40
1.35255
0
CIRCLE
5
1EC
100
AcDbEntity
8
6-32_TAP_HOLE
6
ByLayer
62
256
370
-1
100
AcDbCircle
10
53
20
84.125
40
1.35255
0
CIRCLE
5
1ED
100
AcDbEntity
8
6-32_TAP_HOLE
6
ByLayer
62
256
370
-1
100
AcDbCircle
10
1037
20
115.875
40
1.35255
0
CIRCLE
5
1EE
100
AcDbEntity
8
6-32_TAP_HOLE
6
ByLayer
62
256
370
-1
100
AcDbCircle
10
1037
20
84.125
40
1.35255
0
CIRCLE
5
1EF
100
AcDbEntity
8
6-32_TAP_HOLE
6
ByLayer
62
256
370
-1
100
AcDbCircle
10
256.625
20
147
40
1.35255
0
CIRCLE
5
1F0
100
AcDbEntity
8
6-32_TAP_HOLE
6
ByLayer
62
256
370
-1
100
AcDbCircle
10
288.375
20
147
40
1.35255
0
CIRCLE
5
1F1
100
AcDbEntity
8
6-32_TAP_HOLE
6
ByLayer
62
256
370
-1
100
AcDbCircle
10
801.625
20
147
40
1.35255
0
CIRCLE
5
1F2
100
AcDbEntity
8
6-32_TAP_HOLE
6
ByLayer
62
256
370
-1
100
AcDbCircle
10
833.375
20
147
40
1.35255
0
CIRCLE
5
1F3
100
AcDbEntity
8
6-32_TAP_HOLE
6
ByLayer
62
256
370
-1
100
AcDbCircle
10
256.625
20
53
40
1.35255
0
CIRCLE
5
1F4
100
AcDbEntity
8
6-32_TAP_HOLE
6
ByLayer
62
256
370
-1
100
AcDbCircle
10
288.375
20
53
40
1.35255
0
CIRCLE
5
1F5
100
AcDbEntity
8
6-32_TAP_HOLE
6
ByLayer
62
256
370
-1
100
AcDbCircle
10
801.625
20
53
40
1.35255
0
CIRCLE
5
1F6
100
AcDbEntity
8
6-32_TAP_HOLE
6
ByLayer
62
256
370
-1
100
AcDbCircle
10
833.375
20
53
40
1.35255
0
DIMENSION
5
1F7
100
AcDbEntity
8
DIMENSION
6
ByLayer
62
256
370
-1
100
AcDbDimension
2
*D1
10
1090
20
-28.6102294922
30
0
11
545
21
-22.5852294922
31
0
70
32
71
5
3
Standard
53
0
210
0
220
0
230
1
100
AcDbAlignedDimension
13
0
23
1.42108547152e-13
33
0
14
1090
24
0
34
0
100
AcDbRotatedDimension
0
DIMENSION
5
1F8
100
AcDbEntity
8
DIMENSION
6
ByLayer
62
256
370
-1
100
AcDbDimension
2
*D2
10
1096.35
20
-60.2722167969
30
0
11
545
21
-54.2472167969
31
0
70
32
71
5
3
Standard
53
0
210
0
220
0
230
1
100
AcDbAlignedDimension
13
-6.35
23
1.42108547152e-13
33
0
14
1096.35
24
0
34
0
100
AcDbRotatedDimension
0
DIMENSION
5
1F9
100
AcDbEntity
8
DIMENSION
6
ByLayer
62
256
370
-1
100
AcDbDimension
2
*D3
10
1136.71875
20
-5.72139676477e-15
30
0
11
1130.69375
21
100
31
0
70
32
71
5
3
Standard
53
0
210
0
220
0
230
1
100
AcDbAlignedDimension
13
1090
23
200
33
0
14
1090
24
0
34
0
50
90
100
AcDbRotatedDimension
0
DIMENSION
5
1FA
100
AcDbEntity
8
DIMENSION
6
ByLayer
62
256
370
-1
100
AcDbDimension
2
*D4
10
1168.45703125
20
206.35
30
0
11
1162.43203125
21
103.175
31
0
70
32
71
5
3
Standard
53
0
210
0
220
0
230
1
100
AcDbAlignedDimension
13
1096.35
23
0
33
0
14
1096.35
24
206.35
34
0
50
90
100
AcDbRotatedDimension
0
DIMENSION
5
1FB
100
AcDbEntity
8
DIMENSION
6
ByLayer
62
256
370
-1
100
AcDbDimension
2
*D5
10
18
20
59.25
30
0
11
15
21
65.275
31
0
70
32
71
5
3
Standard
53
0
210
0
220
0
230
1
100
AcDbAlignedDimension
13
12
23
75
33
0
14
18
24
75
34
0
100
AcDbRotatedDimension
0
DIMENSION
5
1FC
100
AcDbEntity
8
DIMENSION
6
ByLayer
62
256
370
-1
100
AcDbDimension
2
*D6
10
15
20
136.71875
30
0
11
7.5
21
142.74375
31
0
70
32
71
5
3
Standard
53
0
210
0
220
0
230
1
100
AcDbAlignedDimension
13
0
23
200
33
0
14
15
24
125
34
0
100
AcDbRotatedDimension
0
DIMENSION
5
1FD
100
AcDbEntity
8
DIMENSION
6
ByLayer
62
256
370
-1
100
AcDbDimension
2
*D7
10
-2.52942185566e-15
20
158.69140625
30
0
11
26.5
21
164.71640625
31
0
70
32
71
5
3
Standard
53
0
210
0
220
0
230
1
100
AcDbAlignedDimension
13
53
23
115.875
33
0
14
0
24
200
34
0
100
AcDbRotatedDimension
0
DIMENSION
5
1FE
100
AcDbEntity
8
DIMENSION
6
ByLayer
62
256
370
-1
100
AcDbDimension
2
*D8
10
83.984375
20
84.125
30
0
11
77.959375
21
100
31
0
70
32
71
5
3
Standard
53
0
210
0
220
0
230
1
100
AcDbAlignedDimension
13
53
23
115.875
33
0
14
53
24
84.125
34
0
50
90
100
AcDbRotatedDimension
0
DIMENSION
5
1FF
100
AcDbEntity
8
DIMENSION
6
ByLayer
62
256
370
-1
100
AcDbDimension
2
*D9
10
-51.26953125
20
100
30
0
11
-57.29453125
21
50
31
0
70
32
71
5
3
Standard
53
0
210
0
220
0
230
1
100
AcDbAlignedDimension
13
0
23
1.42108547152e-13
33
0
14
12
24
100
34
0
50
90
100
AcDbRotatedDimension
0
LINE
5
200
100
AcDbEntity
8
ALIGNMENT_POCKET
6
ByLayer
62
256
370
-1
100
AcDbLine
10
297.5
20
18
11
247.5
21
18
0
LINE
5
201
100
AcDbEntity
8
ALIGNMENT_POCKET
6
ByLayer
62
256
370
-1
100
AcDbLine
10
247.5
20
18
11
247.5
21
12
0
LINE
5
202
100
AcDbEntity
8
ALIGNMENT_POCKET
6
ByLayer
62
256
370
-1
100
AcDbLine
10
297.5
20
12
11
297.5
21
18
0
DIMENSION
5
203
100
AcDbEntity
8
DIMENSION
6
ByLayer
62
256
370
-1
100
AcDbDimension
2
*D10
10
317.952
20
12
30
0
11
311.927
21
15
31
0
70
32
71
5
3
Standard
53
0
210
0
220
0
230
1
100
AcDbAlignedDimension
13
297.5
23
18
33
0
14
297.5
24
12
34
0
50
90
100
AcDbRotatedDimension
0
DIMENSION
5
204
100
AcDbEntity
8
DIMENSION
6
ByLayer
62
256
370
-1
100
AcDbDimension
2
*D11
10
230.712890625
20
1.13854366849e-13
30
0
11
224.687890625
21
7.5
31
0
70
32
71
5
3
Standard
53
0
210
0
220
0
230
1
100
AcDbAlignedDimension
13
247.5
23
15
33
0
14
0
24
1.42108547152e-13
34
0
50
90
100
AcDbRotatedDimension
0
LINE
5
205
100
AcDbEntity
8
ALIGNMENT_POCKET
6
ByLayer
62
256
370
-1
100
AcDbLine
10
842.5
20
18
11
792.5
21
18
0
LINE
5
206
100
AcDbEntity
8
ALIGNMENT_POCKET
6
ByLayer
62
256
370
-1
100
AcDbLine
10
792.5
20
18
11
792.5
21
12
0
LINE
5
207
100
AcDbEntity
8
ALIGNMENT_POCKET
6
ByLayer
62
256
370
-1
100
AcDbLine
10
842.5
20
12
11
842.5
21
18
0
LINE
5
208
100
AcDbEntity
8
ALIGNMENT_POCKET
6
ByLayer
62
256
370
-1
100
AcDbLine
10
842.5
20
188
11
792.5
21
188
0
LINE
5
209
100
AcDbEntity
8
ALIGNMENT_POCKET
6
ByLayer
62
256
370
-1
100
AcDbLine
10
792.5
20
188
11
792.5
21
182
0
LINE
5
20A
100
AcDbEntity
8
ALIGNMENT_POCKET
6
ByLayer
62
256
370
-1
100
AcDbLine
10
842.5
20
182
11
842.5
21
188
0
LINE
5
20B
100
AcDbEntity
8
ALIGNMENT_POCKET
6
ByLayer
62
256
370
-1
100
AcDbLine
10
297.5
20
188
11
247.5
21
188
0
LINE
5
20C
100
AcDbEntity
8
ALIGNMENT_POCKET
6
ByLayer
62
256
370
-1
100
AcDbLine
10
297.5
20
182
11
297.5
21
188
0
LINE
5
20D
100
AcDbEntity
8
ALIGNMENT_POCKET
6
ByLayer
62
256
370
-1
100
AcDbLine
10
247.5
20
188
11
247.5
21
182
0
DIMENSION
5
20E
100
AcDbEntity
8
DIMENSION
6
ByLayer
62
256
370
-1
100
AcDbDimension
2
*D12
10
880.37109375
20
2.56721369048e-14
30
0
11
874.34609375
21
7.5
31
0
70
32
71
5
3
Standard
53
0
210
0
220
0
230
1
100
AcDbAlignedDimension
13
842.5
23
15
33
0
14
1090
24
0
34
0
50
90
100
AcDbRotatedDimension
0
DIMENSION
5
20F
100
AcDbEntity
8
DIMENSION
6
ByLayer
62
256
370
-1
100
AcDbDimension
2
*D13
10
34.66796875
20
75
30
0
11
28.64296875
21
100
31
0
70
32
71
5
3
Standard
53
0
210
0
220
0
230
1
100
AcDbAlignedDimension
13
18
23
125
33
0
14
18
24
75
34
0
50
90
100
AcDbRotatedDimension
0
DIMENSION
5
210
100
AcDbEntity
8
DIMENSION
6
ByLayer
62
256
370
-1
100
AcDbDimension
2
*D14
10
297.5
20
31.73828125
30
0
11
272.5
21
37.76328125
31
0
70
32
71
5
3
Standard
53
0
210
0
220
0
230
1
100
AcDbAlignedDimension
13
247.5
23
18
33
0
14
297.5
24
18
34
0
100
AcDbRotatedDimension
0
DIMENSION
5
211
100
AcDbEntity
8
DIMENSION
6
ByLayer
62
256
370
-1
100
AcDbDimension
2
*D15
10
842.5
20
25.6
30
0
11
817.5
21
31.625
31
0
70
32
71
5
3
Standard
53
0
210
0
220
0
230
1
100
AcDbAlignedDimension
13
792.5
23
18
33
0
14
842.5
24
18
34
0
100
AcDbRotatedDimension
0
DIMENSION
5
212
100
AcDbEntity
8
DIMENSION
6
ByLayer
62
256
370
-1
100
AcDbDimension
2
*D16
10
288.375
20
67.138671875
30
0
11
272.5
21
73.163671875
31
0
70
32
71
5
3
Standard
53
0
210
0
220
0
230
1
100
AcDbAlignedDimension
13
256.625
23
53
33
0
14
288.375
24
53
34
0
100
AcDbRotatedDimension
0
DIMENSION
5
213
100
AcDbEntity
8
DIMENSION
6
ByLayer
62
256
370
-1
100
AcDbDimension
2
*D17
10
833.375
20
68.359375
30
0
11
817.5
21
74.384375
31
0
70
32
71
5
3
Standard
53
0
210
0
220
0
230
1
100
AcDbAlignedDimension
13
801.625
23
53
33
0
14
833.375
24
53
34
0
100
AcDbRotatedDimension
0
DIMENSION
5
214
100
AcDbEntity
8
DIMENSION
6
ByLayer
62
256
370
-1
100
AcDbDimension
2
*D18
10
288.375
20
127
30
0
11
272.5
21
133.025
31
0
70
32
71
5
3
Standard
53
0
210
0
220
0
230
1
100
AcDbAlignedDimension
13
256.625
23
147
33
0
14
288.375
24
147
34
0
100
AcDbRotatedDimension
0
DIMENSION
5
215
100
AcDbEntity
8
DIMENSION
6
ByLayer
62
256
370
-1
100
AcDbDimension
2
*D19
10
833.375
20
120.1171875
30
0
11
817.5
21
126.1421875
31
0
70
32
71
5
3
Standard
53
0
210
0
220
0
230
1
100
AcDbAlignedDimension
13
801.625
23
147
33
0
14
833.375
24
147
34
0
100
AcDbRotatedDimension
0
DIMENSION
5
216
100
AcDbEntity
8
DIMENSION
6
ByLayer
62
256
370
-1
100
AcDbDimension
2
*D20
10
297.5
20
163.0859375
30
0
11
272.5
21
169.1109375
31
0
70
32
71
5
3
Standard
53
0
210
0
220
0
230
1
100
AcDbAlignedDimension
13
247.5
23
182
33
0
14
297.5
24
182
34
0
100
AcDbRotatedDimension
0
DIMENSION
5
217
100
AcDbEntity
8
DIMENSION
6
ByLayer
62
256
370
-1
100
AcDbDimension
2
*D21
10
842.5
20
163.57421875
30
0
11
817.5
21
169.59921875
31
0
70
32
71
5
3
Standard
53
0
210
0
220
0
230
1
100
AcDbAlignedDimension
13
792.5
23
182
33
0
14
842.5
24
182
34
0
100
AcDbRotatedDimension
0
DIMENSION
5
218
100
AcDbEntity
8
DIMENSION
6
ByLayer
62
256
370
-1
100
AcDbDimension
2
*D22
10
777.587890625
20
182
30
0
11
771.562890625
21
185
31
0
70
32
71
5
3
Standard
53
0
210
0
220
0
230
1
100
AcDbAlignedDimension
13
792.5
23
188
33
0
14
792.5
24
182
34
0
50
90
100
AcDbRotatedDimension
0
DIMENSION
5
219
100
AcDbEntity
8
DIMENSION
6
ByLayer
62
256
370
-1
100
AcDbDimension
2
*D23
10
875.854492188
20
200
30
0
11
869.829492188
21
192.5
31
0
70
32
71
5
3
Standard
53
0
210
0
220
0
230
1
100
AcDbAlignedDimension
13
842.5
23
185
33
0
14
1090
24
200
34
0
50
90
100
AcDbRotatedDimension
0
DIMENSION
5
21A
100
AcDbEntity
8
DIMENSION
6
ByLayer
62
256
370
-1
100
AcDbDimension
2
*D24
10
332.03125
20
182
30
0
11
326.00625
21
185
31
0
70
32
71
5
3
Standard
53
0
210
0
220
0
230
1
100
AcDbAlignedDimension
13
297.5
23
188
33
0
14
297.5
24
182
34
0
50
90
100
AcDbRotatedDimension
0
DIMENSION
5
21B
100
AcDbEntity
8
DIMENSION
6
ByLayer
62
256
370
-1
100
AcDbDimension
2
*D25
10
225.067138672
20
200
30
0
11
219.042138672
21
192.5
31
0
70
32
71
5
3
Standard
53
0
210
0
220
0
230
1
100
AcDbAlignedDimension
13
247.5
23
185
33
0
14
0
24
200
34
0
50
90
100
AcDbRotatedDimension
0
DIMENSION
5
21C
100
AcDbEntity
8
DIMENSION
6
ByLayer
62
256
370
-1
100
AcDbDimension
2
*D26
10
1018.06640625
20
84.125
30
0
11
1012.04140625
21
100
31
0
70
32
71
5
3
Standard
53
0
210
0
220
0
230
1
100
AcDbAlignedDimension
13
1037
23
115.875
33
0
14
1037
24
84.125
34
0
50
90
100
AcDbRotatedDimension
0
DIMENSION
5
21D
100
AcDbEntity
8
DIMENSION
6
ByLayer
62
256
370
-1
100
AcDbDimension
2
*D27
10
1053.22265625
20
75
30
0
11
1047.19765625
21
100
31
0
70
32
71
5
3
Standard
53
0
210
0
220
0
230
1
100
AcDbAlignedDimension
13
1072
23
125
33
0
14
1072
24
75
34
0
50
90
100
AcDbRotatedDimension
0
DIMENSION
5
21E
100
AcDbEntity
8
DIMENSION
6
ByLayer
62
256
370
-1
100
AcDbDimension
2
*D28
10
192.1875
20
1.18572366481e-13
30
0
11
186.1625
21
26.5
31
0
70
32
71
5
3
Standard
53
0
210
0
220
0
230
1
100
AcDbAlignedDimension
13
256.625
23
53
33
0
14
0
24
1.42108547152e-13
34
0
50
90
100
AcDbRotatedDimension
0
DIMENSION
5
21F
100
AcDbEntity
8
DIMENSION
6
ByLayer
62
256
370
-1
100
AcDbDimension
2
*D29
10
192.260742188
20
147
30
0
11
186.235742188
21
173.5
31
0
70
32
71
5
3
Standard
53
0
210
0
220
0
230
1
100
AcDbAlignedDimension
13
0
23
200
33
0
14
256.625
24
147
34
0
50
90
100
AcDbRotatedDimension
0
DIMENSION
5
220
100
AcDbEntity
8
DIMENSION
6
ByLayer
62
256
370
-1
100
AcDbDimension
2
*D30
10
777.34375
20
12
30
0
11
771.31875
21
15
31
0
70
32
71
5
3
Standard
53
0
210
0
220
0
230
1
100
AcDbAlignedDimension
13
792.5
23
18
33
0
14
792.5
24
12
34
0
50
90
100
AcDbRotatedDimension
0
DIMENSION
5
221
100
AcDbEntity
8
DIMENSION
6
ByLayer
62
256
370
-1
100
AcDbDimension
2
*D31
10
924.8046875
20
2.02305910687e-14
30
0
11
918.7796875
21
26.5
31
0
70
32
71
5
3
Standard
53
0
210
0
220
0
230
1
100
AcDbAlignedDimension
13
833.375
23
53
33
0
14
1090
24
0
34
0
50
90
100
AcDbRotatedDimension
0
DIMENSION
5
222
100
AcDbEntity
8
DIMENSION
6
ByLayer
62
256
370
-1
100
AcDbDimension
2
*D32
10
926.171875
20
147
30
0
11
920.146875
21
173.5
31
0
70
32
71
5
3
Standard
53
0
210
0
220
0
230
1
100
AcDbAlignedDimension
13
1090
23
200
33
0
14
833.375
24
147
34
0
50
90
100
AcDbRotatedDimension
0
DIMENSION
5
223
100
AcDbEntity
8
DIMENSION
6
ByLayer
62
256
370
-1
100
AcDbDimension
2
*D33
10
-6.35
20
228.881835938
30
0
11
-3.175
21
234.906835938
31
0
70
32
71
5
3
Standard
53
0
210
0
220
0
230
1
100
AcDbAlignedDimension
13
0
23
200
33
0
14
-6.35
24
206.35
34
0
100
AcDbRotatedDimension
0
DIMENSION
5
224
100
AcDbEntity
8
DIMENSION
6
ByLayer
62
256
370
-1
100
AcDbDimension
2
*D34
10
-40
20
200
30
0
11
-46.025
21
203.175
31
0
70
32
71
5
3
Standard
53
0
210
0
220
0
230
1
100
AcDbAlignedDimension
13
-6.35
23
206.35
33
0
14
0
24
200
34
0
50
90
100
AcDbRotatedDimension
0
DIMENSION
5
225
100
AcDbEntity
8
DIMENSION
6
ByLayer
62
256
370
-1
100
AcDbDimension
2
*D35
10
1096.35
20
240.9375
30
0
11
1093.175
21
246.9625
31
0
70
32
71
5
3
Standard
53
0
210
0
220
0
230
1
100
AcDbAlignedDimension
13
1090
23
200
33
0
14
1096.35
24
206.35
34
0
100
AcDbRotatedDimension
0
DIMENSION
5
226
100
AcDbEntity
8
DIMENSION
6
ByLayer
62
256
370
-1
100
AcDbDimension
2
*D36
10
1123.4375
20
206.35
30
0
11
1117.4125
21
203.175
31
0
70
32
71
5
3
Standard
53
0
210
0
220
0
230
1
100
AcDbAlignedDimension
13
1090
23
200
33
0
14
1096.35
24
206.35
34
0
50
90
100
AcDbRotatedDimension
0
DIMENSION
5
227
100
AcDbEntity
8
DIMENSION
6
ByLayer
62
256
370
-1
100
AcDbDimension
2
*D37
10
1078
20
53.515625
30
0
11
1075
21
59.540625
31
0
70
32
71
5
3
Standard
53
0
210
0
220
0
230
1
100
AcDbAlignedDimension
13
1072
23
75
33
0
14
1078
24
75
34
0
100
AcDbRotatedDimension
0
DIMENSION
5
228
100
AcDbEntity
8
DIMENSION
6
ByLayer
62
256
370
-1
100
AcDbDimension
2
*D38
10
1090
20
148.828125
30
0
11
1082.5
21
154.853125
31
0
70
32
71
5
3
Standard
53
0
210
0
220
0
230
1
100
AcDbAlignedDimension
13
1075
23
125
33
0
14
1090
24
200
34
0
100
AcDbRotatedDimension
0
DIMENSION
5
229
100
AcDbEntity
8
DIMENSION
6
ByLayer
62
256
370
-1
100
AcDbDimension
2
*D39
10
1090
20
172.265625
30
0
11
1063.5
21
178.290625
31
0
70
32
71
5
3
Standard
53
0
210
0
220
0
230
1
100
AcDbAlignedDimension
13
1037
23
115.875
33
0
14
1090
24
200
34
0
100
AcDbRotatedDimension
0
DIMENSION
5
22A
100
AcDbEntity
8
DIMENSION
6
ByLayer
62
256
370
-1
100
AcDbDimension
2
*D40
10
272.5
20
217.7734375
30
0
11
136.25
21
223.7984375
31
0
70
32
71
5
3
Standard
53
0
210
0
220
0
230
1
100
AcDbAlignedDimension
13
0
23
200
33
0
14
272.5
24
188
34
0
100
AcDbRotatedDimension
0
DIMENSION
5
22B
100
AcDbEntity
8
DIMENSION
6
ByLayer
62
256
370
-1
100
AcDbDimension
2
*D41
10
1090
20
219.53125
30
0
11
953.75
21
225.55625
31
0
70
32
71
5
3
Standard
53
0
210
0
220
0
230
1
100
AcDbAlignedDimension
13
817.5
23
188
33
0
14
1090
24
200
34
0
100
AcDbRotatedDimension
0
DIMENSION
5
22C
100
AcDbEntity
8
DIMENSION
6
ByLayer
62
256
370
-1
100
AcDbDimension
2
*D42
10
272.5
20
-17.1875
30
0
11
136.25
21
-11.1625
31
0
70
32
71
5
3
Standard
53
0
210
0
220
0
230
1
100
AcDbAlignedDimension
13
0
23
1.42108547152e-13
33
0
14
272.5
24
12
34
0
100
AcDbRotatedDimension
0
DIMENSION
5
22D
100
AcDbEntity
8
DIMENSION
6
ByLayer
62
256
370
-1
100
AcDbDimension
2
*D43
10
1090
20
-21.3623046875
30
0
11
953.75
21
-15.3373046875
31
0
70
32
71
5
3
Standard
53
0
210
0
220
0
230
1
100
AcDbAlignedDimension
13
817.5
23
12
33
0
14
1090
24
0
34
0
100
AcDbRotatedDimension
0
DIMENSION
5
22E
100
AcDbEntity
8
DIMENSION
6
ByLayer
62
256
370
-1
100
AcDbDimension
2
*D44
10
1117.67578125
20
-3.38930569218e-15
30
0
11
1111.65078125
21
50
31
0
70
32
71
5
3
Standard
53
0
210
0
220
0
230
1
100
AcDbAlignedDimension
13
1078
23
100
33
0
14
1090
24
0
34
0
50
90
100
AcDbRotatedDimension
0
ENDSEC
0
SECTION
2
OBJECTS
0
DICTIONARY
5
C
330
0
100
AcDbDictionary
281
1
3
ACAD_GROUP
350
D
0
DICTIONARY
5
D
330
C
100
AcDbDictionary
281
1
0
ENDSEC
0
EOF
